<svg xmlns="http://www.w3.org/2000/svg" width="384" height="320" fill="none" viewBox="0 0 384 320">
  <path fill="#EBEBEB" d="m164.338 205.978-.706 4.32-.752 4.642-6.905 42.332h-11.287l6.898-42.332.759-4.642.706-4.32h11.287Z"/>
  <path fill="#C7C7C7" d="M162.704 205.978c-.599 4.289-1.235 8.57-1.88 12.844l-1.995 12.837-2.087 12.815-1.074 6.399-1.121 6.399.921-6.43.959-6.422 2.018-12.83 2.087-12.814c.683-4.274 1.405-8.54 2.172-12.798Z"/>
  <path fill="#C7C7C7" d="m163.632 210.297-.752 4.643h-11.295l.76-4.643h11.287Z"/>
  <path fill="#EBEBEB" d="m220.076 205.978.706 4.32.752 4.642 6.906 42.332h11.287l-6.898-42.332-.76-4.642-.706-4.32h-11.287Z"/>
  <path fill="#C7C7C7" d="M221.749 205.978c.59 4.289 1.235 8.57 1.879 12.844l1.988 12.837 2.087 12.815 1.082 6.399 1.12 6.399-.921-6.43-.959-6.422-1.995-12.83-2.087-12.814c-.714-4.274-1.435-8.54-2.194-12.798Z"/>
  <path fill="#C7C7C7" d="M220.782 210.297h11.287l.76 4.643h-11.295l-.752-4.643Zm-56.858-16.228h-8.947l1.113-8.348h6.721l1.113 8.348Z"/>
  <path fill="#DBDBDB" d="M167.67 181.222a8.342 8.342 0 1 0-16.43-2.9 8.342 8.342 0 0 0 16.43 2.9Z"/>
  <path fill="#fff" d="M165.625 181.224a6.345 6.345 0 1 0-12.348-2.927 6.345 6.345 0 0 0 12.348 2.927Z"/>
  <path fill="#EBEBEB" d="M164.753 179.39a5.515 5.515 0 0 0-2.072-3.89 5.592 5.592 0 0 0-4.266-1.113 5.383 5.383 0 0 0-3.668 2.379 5.631 5.631 0 0 0-.668 4.604 5.267 5.267 0 0 0 2.479 3.138 5.52 5.52 0 0 0 3.882.599 5.734 5.734 0 0 0 3.254-1.995 6.052 6.052 0 0 0 1.343-3.537c0-.054 0-.108-.054-.108s-.054.046-.054.108a5.737 5.737 0 0 1-.299 1.534 6.49 6.49 0 0 1-.698 1.381 6.657 6.657 0 0 1-1.044 1.136 6.56 6.56 0 0 1-1.312.852 5.365 5.365 0 0 1-4.335.107 5.184 5.184 0 0 1-1.819-1.29 5.185 5.185 0 0 1-1.112-1.933 5.372 5.372 0 0 1 .552-4.442 5.154 5.154 0 0 1 3.568-2.348 5.53 5.53 0 0 1 5.256 2.094c.292.408.529.851.706 1.32.171.476.284.971.338 1.473 0 0 .023-.046.023-.069Z"/>
  <path fill="#EBEBEB" d="M164.008 179.398a4.739 4.739 0 0 0-1.795-3.323 4.894 4.894 0 0 0-3.645-.966 4.596 4.596 0 0 0-3.169 2.025 4.86 4.86 0 0 0-.614 3.96 4.509 4.509 0 0 0 2.149 2.739 4.717 4.717 0 0 0 3.384.506 4.94 4.94 0 0 0 2.816-1.741 5.264 5.264 0 0 0 1.158-3.07c0-.046 0-.092-.046-.092s-.061.039-.061.092a5.057 5.057 0 0 1-2.901 4.228 4.54 4.54 0 0 1-3.744.108 4.473 4.473 0 0 1-2.532-2.793 4.613 4.613 0 0 1 .506-3.837 4.368 4.368 0 0 1 3.069-1.98 4.788 4.788 0 0 1 4.466 1.781c.251.346.457.722.614 1.12.144.408.244.829.299 1.258l.046-.015Z"/>
  <path fill="#EBEBEB" d="M163.264 179.406a3.986 3.986 0 0 0-1.535-2.755 4.14 4.14 0 0 0-3.023-.813 3.835 3.835 0 0 0-2.678 1.657 4.1 4.1 0 0 0-.56 3.353 3.785 3.785 0 0 0 1.819 2.348c.879.492 1.91.64 2.892.415a4.191 4.191 0 0 0 2.379-1.535 4.599 4.599 0 0 0 .982-2.586c0-.046 0-.084-.053-.084a.057.057 0 0 0-.026.008.068.068 0 0 0-.034.041 4.324 4.324 0 0 1-2.442 3.588 3.842 3.842 0 0 1-3.161.107 3.726 3.726 0 0 1-2.141-2.363 3.906 3.906 0 0 1 .46-3.215 3.657 3.657 0 0 1 2.586-1.611 4.44 4.44 0 0 1 2.041.237 3.835 3.835 0 0 1 1.665 1.228c.214.283.39.592.522.921.129.336.219.687.269 1.043 0 0 .046.023.038.016Z"/>
  <path fill="#EBEBEB" d="M162.528 179.413a3.318 3.318 0 0 0-1.251-2.187 3.404 3.404 0 0 0-2.402-.659 3.117 3.117 0 0 0-2.187 1.296 3.364 3.364 0 0 0-.506 2.74 3.077 3.077 0 0 0 1.496 1.949 3.353 3.353 0 0 0 2.394.329 3.486 3.486 0 0 0 1.941-1.258c.462-.613.73-1.351.768-2.118a.065.065 0 0 0-.002-.024.053.053 0 0 0-.011-.021.063.063 0 0 0-.041-.024s-.054 0-.061.062a3.591 3.591 0 0 1-.582 1.703 3.596 3.596 0 0 1-1.337 1.205 3.07 3.07 0 0 1-2.578.123 3.008 3.008 0 0 1-1.742-1.949 3.136 3.136 0 0 1 .415-2.594 2.912 2.912 0 0 1 2.087-1.251 3.77 3.77 0 0 1 1.611.207c.518.192.976.518 1.328.944.168.226.31.471.422.729.109.27.188.55.238.837v-.039Z"/>
  <path fill="#C7C7C7" d="M229.245 194.069h-8.954l1.112-8.348h6.73l1.112 8.348Z"/>
  <path fill="#DBDBDB" d="M233.152 180.493a8.351 8.351 0 1 0-16.515-2.502 8.351 8.351 0 0 0 16.515 2.502Z"/>
  <path fill="#fff" d="M231.035 180.714a6.345 6.345 0 1 0-12.546-1.913 6.345 6.345 0 0 0 12.546 1.913Z"/>
  <path fill="#EBEBEB" d="M230.074 179.39a5.513 5.513 0 0 0-.632-2.16 5.513 5.513 0 0 0-1.44-1.73 5.601 5.601 0 0 0-4.266-1.113 5.381 5.381 0 0 0-3.668 2.379 5.573 5.573 0 0 0-.667 4.604 5.232 5.232 0 0 0 2.478 3.138 5.517 5.517 0 0 0 3.883.598 5.724 5.724 0 0 0 3.253-1.995 6.043 6.043 0 0 0 1.343-3.537c0-.054 0-.107-.054-.107-.053 0-.053.046-.061.107a5.996 5.996 0 0 1-.292 1.535 6.144 6.144 0 0 1-.706 1.381 6.03 6.03 0 0 1-2.355 1.987 5.32 5.32 0 0 1-4.328.108 5.219 5.219 0 0 1-2.939-3.223 5.395 5.395 0 0 1-.205-2.283 5.388 5.388 0 0 1 .765-2.16 5.165 5.165 0 0 1 3.568-2.348 5.535 5.535 0 0 1 5.257 2.095c.288.409.526.852.705 1.32.169.476.28.971.33 1.473 0 0 .031-.046.031-.069Z"/>
  <path fill="#EBEBEB" d="M229.33 179.398a4.792 4.792 0 0 0-1.796-3.323 4.898 4.898 0 0 0-3.645-.966 4.603 4.603 0 0 0-3.176 2.025 4.845 4.845 0 0 0-.614 3.96c.158.576.43 1.115.799 1.585.369.471.827.863 1.349 1.154a4.733 4.733 0 0 0 3.384.506 4.942 4.942 0 0 0 2.824-1.741 5.313 5.313 0 0 0 1.158-3.07c0-.046 0-.092-.053-.092-.054 0-.054.039-.062.092a5.04 5.04 0 0 1-2.892 4.228 4.54 4.54 0 0 1-3.745.108 4.483 4.483 0 0 1-2.54-2.793 4.644 4.644 0 0 1 .507-3.837 4.389 4.389 0 0 1 3.069-1.98 4.78 4.78 0 0 1 4.481 1.781c.253.344.46.721.614 1.12.151.405.251.828.299 1.258a.058.058 0 0 0 .039-.015Z"/>
  <path fill="#EBEBEB" d="M228.585 179.406a4.054 4.054 0 0 0-1.534-2.755 4.157 4.157 0 0 0-3.023-.813 3.83 3.83 0 0 0-2.663 1.657 4.118 4.118 0 0 0-.568 3.353 3.85 3.85 0 0 0 1.826 2.348 4.056 4.056 0 0 0 2.885.415 4.219 4.219 0 0 0 2.387-1.535 4.527 4.527 0 0 0 .974-2.586c0-.046 0-.084-.046-.084a.06.06 0 0 0-.026.008.055.055 0 0 0-.02.017.08.08 0 0 0-.013.024c-.002.009-.003.018-.002.027a4.34 4.34 0 0 1-2.44 3.561 3.837 3.837 0 0 1-3.162.107 3.725 3.725 0 0 1-2.14-2.363 3.906 3.906 0 0 1 .46-3.215 3.625 3.625 0 0 1 2.578-1.612c.692-.082 1.394 0 2.049.238a3.835 3.835 0 0 1 1.665 1.228c.214.283.389.592.522.921.122.338.212.688.268 1.043a.046.046 0 0 0 .023.016Z"/>
  <path fill="#EBEBEB" d="M227.841 179.413a3.282 3.282 0 0 0-1.243-2.186 3.408 3.408 0 0 0-2.402-.66 3.062 3.062 0 0 0-2.186 1.296 3.372 3.372 0 0 0-.507 2.74 3.075 3.075 0 0 0 1.496 1.949 3.34 3.34 0 0 0 2.387.33 3.543 3.543 0 0 0 1.949-1.259 3.834 3.834 0 0 0 .769-2.141.047.047 0 0 0-.009-.022.052.052 0 0 0-.017-.016.053.053 0 0 0-.022-.008.062.062 0 0 0-.043.018.062.062 0 0 0-.018.044 3.574 3.574 0 0 1-1.988 2.885 3.07 3.07 0 0 1-2.57.123 3.005 3.005 0 0 1-1.742-1.949 3.125 3.125 0 0 1 .414-2.594 2.913 2.913 0 0 1 2.087-1.25 3.708 3.708 0 0 1 1.604.207c.52.189.978.515 1.328.943.173.224.318.469.429.729.109.27.189.55.238.837 0 0 .054-.008.046-.016Z"/>
  <path fill="#DBDBDB" d="M248.451 189.818H135.955v21.515h112.496v-21.515Z"/>
  <path fill="#EBEBEB" d="m159.082 189.818-8.164 21.515h-14.533l8.164-21.515h14.533Zm29.78 0-8.165 21.515h-14.532l8.164-21.515h14.533Zm29.771 0-8.156 21.515h-14.533l8.164-21.515h14.525Zm29.788 0-8.165 21.515h-14.533l8.165-21.515h14.533Z"/>
  <path fill="#DBDBDB" d="M246.18 231.23H138.234v13.62H246.18v-13.62Z"/>
  <path fill="#EBEBEB" d="m160.417 231.23-7.826 13.612h-13.942l7.834-13.612h13.934Zm28.583 0-7.834 13.612h-13.95l7.834-13.612H189Zm28.567 0-7.834 13.612h-13.942l7.834-13.612h13.942Zm28.575 0-7.835 13.612h-13.942l7.834-13.612h13.943ZM359.328 87.343h-86.845s8.61-23.518 21.861-23.518c13.252 0 17.403 16.229 17.403 16.229s8.939-8.817 16.29-8.817c7.351 0 13.727 11.656 13.727 11.656s10.382-6.269 17.564 4.45ZM126.579 32.181H85.996s9.062-13.136 16.213-13.136c7.151 0 9.254 8.755 9.254 8.755s5.041-4.082 9.714-3.353c4.673.729 5.402 7.734 5.402 7.734Zm218.922 94.602h-40.583s9.069-13.136 16.213-13.136 9.254 8.755 9.254 8.755 5.041-4.09 9.714-3.353c4.673.736 5.402 7.734 5.402 7.734ZM104.143 65.106H25.086s10.827-24.17 22.406-25.681C59.071 37.913 64.611 57.38 64.611 57.38s7.473-6.906 13.343-6.906 10.405 9.062 10.405 9.062 11.771-6.185 15.784 5.57Z"/>
  <path fill="#263238" d="m27.933 257.464 40.683-.184 40.691-.069 81.365-.13 81.374.13 40.683.069 40.683.184-40.683.184-40.683.069-81.374.131-81.365-.131-40.691-.069-40.683-.184Z"/>
  <path fill="#EBEBEB" d="M192.207 317.936c89.031 0 161.205-8.413 161.205-18.791 0-10.379-72.174-18.792-161.205-18.792s-161.205 8.413-161.205 18.792c0 10.378 72.174 18.791 161.205 18.791Z"/>
  <path fill="#EB9481" d="M213.285 302.651c1.596.537 47.282.698 49.031-.399.668-.414 1.074-7.067 1.343-15.116.061-1.742.107-3.537.154-5.371l3.698-24.362-30.539-.2-2.885 24.378.115 5.371s-17.518 7.765-19.306 9.169c-1.787 1.404-3.199 5.985-1.611 6.53Z"/>
  <path fill="#fff" d="M213.285 302.651c1.596.537 47.282.698 49.031-.399.806-.506 1.251-10.221 1.497-20.479l-29.726-.185.115 5.372s-17.518 7.765-19.306 9.169c-1.787 1.404-3.199 5.977-1.611 6.522Z"/>
  <path fill="#65BEDC" d="M213.285 302.651c1.596.537 47.282.698 49.031-.399.668-.415 1.074-7.067 1.343-15.116l-29.457-.192s-17.518 7.765-19.306 9.169c-1.787 1.404-3.199 5.993-1.611 6.538Z"/>
  <path fill="#263238" d="M213.953 300.825c7.673-.162 38.565-.092 46.146.33.061 0 .061.046 0 .053-7.589.323-38.496 0-46.154-.261-.161-.007-.153-.122.008-.122Zm3.89-6.346a6.146 6.146 0 0 1 4.604 1.888 5.983 5.983 0 0 1 1.703 4.097c0 .046-.092.046-.1 0a7.094 7.094 0 0 0-6.138-5.885.067.067 0 0 1-.046.01.064.064 0 0 1-.039-.026.06.06 0 0 1-.009-.045.06.06 0 0 1 .025-.039Zm13.389-6.783c3.07 0 6.615 1.067 8.51 3.576.077.1-.061.199-.154.153a42.835 42.835 0 0 0-8.44-3.353.195.195 0 0 1-.121-.085.194.194 0 0 1 .06-.266.195.195 0 0 1 .145-.025Zm-2.371.913c3.07 0 6.615 1.067 8.51 3.583.077.092-.062.2-.154.146a42.107 42.107 0 0 0-8.44-3.345.206.206 0 0 1-.101-.092.204.204 0 0 1-.018-.135.207.207 0 0 1 .073-.116.205.205 0 0 1 .13-.041Zm-2.371.921c3.07-.038 6.615 1.059 8.518 3.576.069.092-.069.199-.161.153a41.766 41.766 0 0 0-8.441-3.353.19.19 0 0 1-.12-.085.19.19 0 0 1-.026-.145.195.195 0 0 1 .085-.121.195.195 0 0 1 .145-.025Zm-2.371.913c3.07 0 6.622 1.059 8.518 3.576.069.092-.069.199-.162.153a41.734 41.734 0 0 0-8.44-3.353.195.195 0 0 1-.121-.085.194.194 0 0 1 .06-.266.195.195 0 0 1 .145-.025Zm34.077 3.43c3.445 0 3.414 5.371 0 5.371-3.415 0-3.468-5.394 0-5.371Z"/>
  <path fill="#263238" d="M228.178 283.997c1.643 2.141 4.159 3.499 6.338 5.011a.375.375 0 0 0 .553-.246.063.063 0 0 0 .036-.001.076.076 0 0 0 .032-.017.075.075 0 0 0 .024-.066 16.064 16.064 0 0 0-2.755-7.85c-.951-1.342-2.9-2.601-4.458-1.319-1.557 1.281-.736 3.245.23 4.488Zm-.138-2.539c.323-3.331 3.323-.768 3.983.253.416.665.787 1.357 1.112 2.072a48.446 48.446 0 0 1 1.711 4.55c-1.02-.814-2.11-1.535-3.161-2.302-1.251-.913-3.813-2.732-3.645-4.573Z"/>
  <path fill="#263238" d="M246.057 286.76c-.23-2.003-2.517-2.44-4.128-2.141a16.165 16.165 0 0 0-7.428 3.744.077.077 0 0 0-.026.028.075.075 0 0 0-.01.038c0 .013.003.026.01.037a.077.077 0 0 0 .026.028.371.371 0 0 0 .067.48.369.369 0 0 0 .156.08c2.624.414 5.371 1.189 8.049.767 1.565-.215 3.506-1.166 3.284-3.061Zm-7.221 2.11c-1.296-.169-2.57-.407-3.836-.53 1.45-.729 2.862-1.534 4.381-2.094a17.78 17.78 0 0 1 2.241-.722c1.181-.268 5.125-.046 3.069 2.579-1.205 1.442-4.312.959-5.855.767Z"/>
  <path fill="#37474F" d="M312.399 144.761s-35.473 60.342-36.425 64.577c-1.458 6.515-9.207 70.8-9.207 70.8l-36.908-.66s6.361-56.689 12.384-75.357c4.343-13.451 35.642-58.063 35.642-58.063l34.514-1.297Z"/>
  <path fill="#263238" d="M233.227 273.815c5.303-.038 24.086-.245 31.138.407a.055.055 0 0 1 .054.054.055.055 0 0 1-.016.038.054.054 0 0 1-.038.015c-2.425.346-25.835-.199-31.138-.368a.069.069 0 0 1-.035.003.073.073 0 0 1-.034-.014.087.087 0 0 1-.023-.027.085.085 0 0 1-.008-.035c0-.012.003-.024.008-.035a.1.1 0 0 1 .023-.027.085.085 0 0 1 .034-.014.102.102 0 0 1 .035.003Zm73.118-123.514c-2.302 3.645-4.781 7.213-7.159 10.827a1152.223 1152.223 0 0 0-7.083 10.88 889.542 889.542 0 0 0-13.689 22.022 67.928 67.928 0 0 0-5.532 10.742 65.972 65.972 0 0 0-3.107 11.579c-.729 3.967-1.205 7.965-1.65 11.962-.481 4.256-.957 8.512-1.427 12.769-.972 8.696-1.944 17.407-2.916 26.134a218.135 218.135 0 0 0-.345 3.208c0 .161.26.191.283 0 1.082-8.656 1.988-17.334 2.978-26.005l1.473-12.906c.453-4.013.89-8.026 1.534-12.024a79.59 79.59 0 0 1 2.602-11.617 55.553 55.553 0 0 1 5.072-11.287c4.274-7.374 8.801-14.625 13.328-21.853 4.527-7.228 9.169-14.579 13.95-21.738a99.328 99.328 0 0 1 1.795-2.632c.084-.069-.061-.13-.107-.061Z"/>
  <path fill="#EB9481" d="M281.039 307.723c1.68.107 47.013-11.84 48.425-13.344a.626.626 0 0 0 .107-.307c.177-1.488-2.141-7.051-3.767-14.179-.1-.453-.952-2.617-2.149-5.54-3.292-8.019-9.162-21.8-9.162-21.8l-29.595 7.597 10.896 21.906 1.473 5.149s-14.97 11.978-16.336 13.812c-1.366 1.834-1.565 6.583.108 6.706Z"/>
  <path fill="#fff" d="M281.039 307.723c1.68.107 47.013-11.84 48.425-13.344a.626.626 0 0 0 .107-.307c.177-1.488-2.14-7.051-3.767-14.179-.1-.453-.952-2.617-2.149-5.54l-27.853 7.673 1.473 5.148s-14.97 11.978-16.336 13.812c-1.366 1.834-1.573 6.614.1 6.737Z"/>
  <path fill="#65BEDC" d="M281.039 307.715c1.68.123 47.013-11.832 48.425-13.336.537-.567-.637-6.698-3.66-14.486l-28.529 7.32s-14.97 11.962-16.336 13.811c-1.366 1.85-1.573 6.576.1 6.691Z"/>
  <path fill="#263238" d="M281.215 305.782c7.366-2.103 37.276-9.899 44.719-11.426.061 0 .069 0 0 .054-7.251 2.241-37.222 9.799-44.696 11.51-.146.023-.176-.092-.023-.138Zm2.156-7.121a6.143 6.143 0 0 1 4.903.66 5.993 5.993 0 0 1 2.686 3.53c0 .046-.077.069-.092 0a7.106 7.106 0 0 0-7.474-4.121.045.045 0 0 1-.019.017c-.008.003-.017.004-.025.003a.037.037 0 0 1-.023-.01.045.045 0 0 1-.015-.021.053.053 0 0 1-.001-.025.048.048 0 0 1 .06-.033Zm11.218-9.968c2.955-.813 6.668-.659 9.139 1.29.1.076 0 .214-.107.191a42.17 42.17 0 0 0-8.986-1.112.196.196 0 0 1-.111-.055.197.197 0 0 1-.054-.112.197.197 0 0 1 .025-.121.2.2 0 0 1 .094-.081Zm-2.056 1.489c2.954-.813 6.668-.66 9.139 1.289.1.077 0 .215-.115.192a42.077 42.077 0 0 0-8.986-1.066.208.208 0 0 1-.226-.188.209.209 0 0 1 .188-.227Zm-2.064 1.488c2.962-.813 6.668-.659 9.146 1.29.092.076 0 .207-.115.191a42.152 42.152 0 0 0-8.985-1.105.188.188 0 0 1-.183-.168.19.19 0 0 1 .137-.208Zm-2.056 1.482c2.954-.806 6.668-.653 9.138 1.296.1.077 0 .208-.107.185a42.686 42.686 0 0 0-8.985-1.098.192.192 0 0 1-.175-.311.192.192 0 0 1 .129-.072Zm33.807-5.341c3.33-.859 4.666 4.32 1.328 5.172-3.338.852-4.665-4.32-1.328-5.172Z"/>
  <path fill="#263238" d="M290.691 285.893c2.141 1.65 4.919 2.302 7.405 3.23a.37.37 0 0 0 .333-.067.378.378 0 0 0 .143-.309.077.077 0 0 0 .036-.009.075.075 0 0 0 .027-.026.077.077 0 0 0 .006-.072 16.125 16.125 0 0 0-4.665-6.906c-1.259-1.051-3.469-1.78-4.65-.138-1.182 1.642.122 3.338 1.365 4.297Zm-.767-2.417c-.537-3.307 3.016-1.581 3.913-.767.574.535 1.11 1.109 1.604 1.718a45.933 45.933 0 0 1 2.816 3.96c-1.197-.522-2.432-.936-3.645-1.42-1.457-.568-4.396-1.673-4.696-3.491h.008Z"/>
  <path fill="#263238" d="M308.685 284.013c-.729-1.88-3.069-1.719-4.535-1.013a16.045 16.045 0 0 0-6.231 5.51.077.077 0 0 0-.016.034.093.093 0 0 0 .002.037.07.07 0 0 0 .02.032.073.073 0 0 0 .033.019.376.376 0 0 0 .36.484c2.648-.269 5.502-.223 7.981-1.289 1.45-.622 3.084-2.041 2.386-3.814Zm-6.446 3.883c-1.289.161-2.585.261-3.836.468a47.816 47.816 0 0 1 3.706-3.139 18.204 18.204 0 0 1 1.98-1.266c1.074-.567 4.949-1.35 3.598 1.711-.775 1.696-3.898 2.034-5.448 2.226Z"/>
  <path fill="#37474F" d="m293.768 280.621 33.164-8.701s-31.752-62.482-31.46-66.794c.23-3.837 23.257-37.353 24.554-43.63 2.079-10.274-2.924-19.451-7.773-25.129l-34.299 9.668s2.732 5.931 7.75 9.676c0 0-21.554 35.987-22.106 47.834-.553 11.847 30.17 77.076 30.17 77.076Z"/>
  <path fill="#263238" d="M293.139 274.483c4.804-1.374 3.407-1.044 8.234-2.371 2.363-.645 17.886-4.888 20.188-5.111.053 0 .076.077 0 .1-2.118.952-17.71 4.926-20.081 5.525-4.849 1.228-3.476.821-8.341 2.003-.053.007-.092-.146 0-.146Zm-12.752-120.13a61.187 61.187 0 0 1 9.491 4.481.101.101 0 0 1 .046.138.103.103 0 0 1-.138.046c-3.2-1.397-6.468-2.732-9.584-4.297a.214.214 0 0 1-.087-.119.21.21 0 0 1 .124-.248.21.21 0 0 1 .148-.001Z"/>
  <path fill="#263238" d="M284.415 153.508c.244.603.449 1.221.614 1.85.18.49.261 1.012.238 1.534a.113.113 0 0 1-.042.042.11.11 0 0 1-.058.016.11.11 0 0 1-.058-.016.113.113 0 0 1-.042-.042 5.409 5.409 0 0 1-.644-1.481c-.208-.575-.43-1.143-.614-1.718-.131-.369.476-.553.606-.185Z"/>
  <path fill="#263238" d="M284.415 150.401c-.138-.53-.276-1.051-.422-1.581-.146-.529-.345-1.074-.453-1.627 0-.084-.153-.046-.13 0 .13.53.192 1.082.284 1.62.092.537.199 1.074.307 1.603.202 1.006.458 1.999.767 2.977a3.616 3.616 0 0 1-1.535-.468 2.84 2.84 0 0 1-.936-1.465c-.215-.599-.406-1.205-.629-1.796a12.48 12.48 0 0 1-.66-2.002c0-.093-.153-.054-.138 0a21.974 21.974 0 0 0 1.22 4.227c.238.538.414 1.09.944 1.351a4.564 4.564 0 0 0 1.841.361c.069 0 .177 0 .161-.1a38.108 38.108 0 0 0-.621-3.1Zm.568 6.507c-1.305 2.355-2.793 4.604-4.19 6.906-1.396 2.301-2.655 4.542-3.928 6.844a192.895 192.895 0 0 0-7.113 14.272 177.868 177.868 0 0 0-3.07 7.282 54.918 54.918 0 0 0-2.493 7.519 20.59 20.59 0 0 0-.338 7.812 53.525 53.525 0 0 0 2.056 7.857 139.331 139.331 0 0 0 6.476 17.203c.085.184.392.046.323-.146-1.811-5.11-3.683-10.205-5.318-15.346-1.573-5.018-3.445-10.221-2.578-15.553a40.502 40.502 0 0 1 2.179-7.482 157.226 157.226 0 0 1 2.977-7.374c2.088-4.795 4.42-9.453 6.814-14.095 1.335-2.601 2.739-5.172 4.098-7.765 1.358-2.594 2.693-5.279 4.22-7.796.046-.146-.046-.207-.115-.138Zm24.976-5.034c-.622-.1-1.535.115-4.213-.069a15.173 15.173 0 0 1-2.21-.361 4.853 4.853 0 0 1-2.048-.828 10.828 10.828 0 0 1-2.341-3.223 16.323 16.323 0 0 1-1.634-3.975c0-.084-.146-.046-.131.039.146.767.223 1.534.43 2.348.197.73.454 1.444.767 2.133a8.708 8.708 0 0 0 2.402 3.545c1.213.913 2.908 1.082 4.374 1.189.852.062 4.189 0 4.604-.506.122-.085.115-.269 0-.292Z"/>
  <path fill="#263238" d="M318.698 264.784a1274.741 1274.741 0 0 1-12.277-25.667c-4-8.609-7.882-17.282-11.647-26.019a33.97 33.97 0 0 1-2.479-6.423c-.514-2.432.238-4.604 1.266-6.806a116.532 116.532 0 0 1 6.407-11.625c2.302-3.775 4.788-7.465 7.221-11.172a115.782 115.782 0 0 0 6.905-11.294c1.888-3.768 2.939-7.781 2.402-12.001-.537-4.22-2.355-8.118-4.297-11.824-.514-.975-1.043-1.942-1.534-2.924-.039-.069-.154 0-.108.069 2.164 3.883 4.243 7.957 5.256 12.277a20.01 20.01 0 0 1 .476 6.584 20.879 20.879 0 0 1-1.857 6.422c-1.803 3.959-4.32 7.612-6.691 11.241-2.371 3.63-4.895 7.405-7.259 11.165a129.528 129.528 0 0 0-6.606 11.64c-.875 1.788-1.834 3.652-2.049 5.655-.23 2.202.56 4.304 1.412 6.292 3.683 8.64 7.566 17.211 11.51 25.735a1266.107 1266.107 0 0 0 12.185 25.552l1.534 3.2c.1.176.292.053.23-.077ZM277.195 72.373c.767-3.507 4.665-11.44 12.361-9.891 10.988 2.218 12.576 23.388 18.047 29.987 9.906 11.954 10.228 23.786 2.11 25.682-9.1 2.117-17.955-7.674-17.648-28.775.207-13.213-3.514-19.067-6.138-18.676-2.625.391-4.075 3.73-4.075 3.73l-4.657-2.057Z"/>
  <path fill="#263238" d="M277.563 71.06a21.352 21.352 0 0 1 2.202-4.657 12.65 12.65 0 0 1 3.591-3.775 8.618 8.618 0 0 1 5.08-1.473c1.79.054 3.541.54 5.102 1.42a12.37 12.37 0 0 1 3.837 3.598 22.83 22.83 0 0 1 2.463 4.604 46.09 46.09 0 0 1 2.547 9.975 67.892 67.892 0 0 0-3.238-9.66 24.354 24.354 0 0 0-2.509-4.351 11.646 11.646 0 0 0-3.606-3.3 10.3 10.3 0 0 0-4.658-1.343 8.021 8.021 0 0 0-4.604 1.197 12.934 12.934 0 0 0-3.614 3.407 22.113 22.113 0 0 0-1.404 2.118c-.43.706-.821 1.466-1.189 2.24Zm14.464 11.035c.115 2.094 0 4.197-.046 6.292-.046 2.094-.131 4.181-.139 6.269-.007 2.087.062 4.166.277 6.23.175 2.055.55 4.088 1.12 6.07a16.104 16.104 0 0 0 2.678 5.448 17.486 17.486 0 0 0 4.604 3.982 13.045 13.045 0 0 0 5.793 1.857c1.026.079 2.057.025 3.069-.161.52-.098 1.033-.231 1.535-.399.5-.148.975-.368 1.412-.653a7.756 7.756 0 0 1-2.862 1.297c-1.03.268-2.09.4-3.154.392a13.065 13.065 0 0 1-3.177-.453 13.92 13.92 0 0 1-2.969-1.22 16.545 16.545 0 0 1-2.655-1.811l-.606-.522-.583-.545a11.488 11.488 0 0 1-1.105-1.197 16.915 16.915 0 0 1-2.886-5.739 40.413 40.413 0 0 1-1.212-12.592c.062-2.102.223-4.197.407-6.284.184-2.087.43-4.166.499-6.261Z"/>
  <path fill="#65BEDC" d="M276.565 72.434c-.123-.974.468-2.302 1.082-2.54.614-.238 5.509 1.335 6.023 2.51.515 1.173-1.465 2.424-1.465 2.424l-5.64-2.394Z"/>
  <path fill="#EB9481" d="M282.428 106.994c-3.016 4.304-24.823 22.114-36.716 22.774-5.372.291-26.381-1.995-31.061-3.921-5.747-2.364 5.617-16.597 9.208-15.991 4.496.767 20.441 2.448 23.617 2.532 5.095.13 20.718-8.44 31.238-10.673 5.44-1.144 6.046 1.964 3.714 5.279Z"/>
  <path fill="#DBDBDB" d="M282.19 107.807c-3.331 5.809-15.086 15.768-15.086 15.768l-2.002-3.698-6.63-12.208s11.141-4.435 18.531-6.591a16.495 16.495 0 0 1 2.654-.583c4.773-.614 5.395 2.325 2.533 7.312Z"/>
  <path fill="#DBDBDB" d="M282.19 107.807c-3.33 5.809-15.086 15.768-15.086 15.768l-2.002-3.698-1.366-2.517-5.272-9.683s11.149-4.451 18.539-6.607a17.814 17.814 0 0 1 2.655-.575c.094-.008.189-.008.283 0 4.512-.492 5.065 2.424 2.249 7.312Z"/>
  <path fill="#fff" d="M268.294 104.669a6.885 6.885 0 0 1 0 3.223 6.859 6.859 0 0 1 0-3.223Zm-3.154 6.323a5.986 5.986 0 0 0-1.604.192 6.332 6.332 0 0 0 1.604.191 6.427 6.427 0 0 0 1.611-.191 6.078 6.078 0 0 0-1.611-.192Zm16.298-9.008a6.09 6.09 0 0 0-1.612.191 6.09 6.09 0 0 0 1.612.192 6.37 6.37 0 0 0 1.603-.192 6.416 6.416 0 0 0-1.603-.191Zm-6.277 8.01c.38.387.808.722 1.274.998a6.244 6.244 0 0 0-.998-1.274 6.499 6.499 0 0 0-1.273-.997c.278.464.613.892.997 1.273Zm-6.192 7.673a6.29 6.29 0 0 0 1.274 1.006 6.006 6.006 0 0 0-.998-1.274 6.223 6.223 0 0 0-1.274-1.005c.265.465.59.894.967 1.273h.031Z"/>
  <path fill="#263238" d="M269.153 120.852c-1.113-2.249-6.023-11.303-7.213-13.19-.084-.131-.184-.116-.122 0a139.614 139.614 0 0 0 7.243 13.19c.031.092.123.061.092 0Z"/>
  <path fill="#A6A6A6" d="M282.19 107.807c-3.33 5.809-15.086 15.768-15.086 15.768l-2.002-3.698-1.366-2.517c6.376-6.292 14.057-14.034 16.205-16.881 4.512-.475 5.065 2.44 2.249 7.328Z"/>
  <path fill="#DBDBDB" d="m271.317 134.564 1.742 19.182a64.51 64.51 0 0 0 7.005-.706 164.55 164.55 0 0 0 18.163-3.782c5.931-1.535 12.883-3.653 20.832-6.477 0 0-17.978-32.426-30.385-41.373a14.375 14.375 0 0 0-.844-.576c-.054-.046-.108-.069-.162-.107-5.639-3.568-10.742-.767-13.566 3.207-.713.998-7.619 16.697-7.274 21.961.315 4.627 4.489 8.671 4.489 8.671Z"/>
  <path fill="#fff" d="M281.292 114.03c.136.523.201 1.063.192 1.604a6.12 6.12 0 0 1-.192 1.611 6.078 6.078 0 0 1-.192-1.611c-.005-.541.06-1.08.192-1.604Zm4.182 20.088c-.005.543.06 1.085.192 1.612a5.767 5.767 0 0 0 .191-1.612 6.077 6.077 0 0 0-.191-1.611 6.387 6.387 0 0 0-.192 1.611Zm13.389-11.433a6.127 6.127 0 0 0 .192 1.612 6.859 6.859 0 0 0 0-3.223 6.12 6.12 0 0 0-.192 1.611Zm-24.554 8.986a6.12 6.12 0 0 0 .192 1.611 6.859 6.859 0 0 0 0-3.223 6.122 6.122 0 0 0-.192 1.612Zm15.469-14.142a6.387 6.387 0 0 0-1.611.192 6.885 6.885 0 0 0 3.223 0 6.424 6.424 0 0 0-1.604-.192h-.008Zm11.418 14.31a5.798 5.798 0 0 0-1.611.192 6.855 6.855 0 0 0 3.222 0 6.102 6.102 0 0 0-1.603-.192h-.008Zm-17.357 11.341a5.979 5.979 0 0 0-1.603.192 5.979 5.979 0 0 0 1.603.192 6.08 6.08 0 0 0 1.612-.192 6.424 6.424 0 0 0-1.604-.192h-.008Zm20.219-2.21a6.384 6.384 0 0 0-1.604.192 6.825 6.825 0 0 0 3.215 0 6.427 6.427 0 0 0-1.611-.192Zm-22.62-39.01a6.09 6.09 0 0 0-1.612.192 6.09 6.09 0 0 0 1.612.192 6.417 6.417 0 0 0 1.603-.192 6.406 6.406 0 0 0-1.603-.169v-.023Zm8.21 3.553a6.32 6.32 0 0 0 1.274 1.005 5.839 5.839 0 0 0-.998-1.274 6.314 6.314 0 0 0-1.273-1.005c.276.475.614.911 1.005 1.297l-.008-.023Zm16.766 17.947c.379.389.807.727 1.274 1.005a6.058 6.058 0 0 0-.998-1.273 6.478 6.478 0 0 0-1.274-1.005c.275.474.61.91.998 1.296v-.023Zm-26.81 1.919c.379.388.807.726 1.274 1.005a6.913 6.913 0 0 0-2.302-2.302 6.29 6.29 0 0 0 1.028 1.32v-.023Zm15.423 12.99c.379.389.807.727 1.274 1.005a6.922 6.922 0 0 0-2.302-2.302c.284.476.63.912 1.028 1.297Zm-19.827-28.39a6.24 6.24 0 0 0 1.273.997 6.274 6.274 0 0 0-.997-1.274 6.476 6.476 0 0 0-1.274-.997c.265.468.587.901.959 1.289l.039-.015Zm-1.09 10.082a6.515 6.515 0 0 0 1.005-1.274 6.006 6.006 0 0 0-1.274.998 6.292 6.292 0 0 0-1.005 1.274c.45-.277.865-.607 1.236-.983l.038-.015Zm36.409 13.704c.388-.377.724-.806.997-1.273a6.82 6.82 0 0 0-2.302 2.301 6.31 6.31 0 0 0 1.267-1.012l.038-.016Zm-34.422 5.494c.387-.379.722-.808.998-1.274a6.823 6.823 0 0 0-2.302 2.302 6.305 6.305 0 0 0 1.266-1.012l.038-.016Zm20.549-26.449a6.285 6.285 0 0 0 1.005-1.274 6.129 6.129 0 0 0-1.274 1.005c-.388.38-.726.808-1.005 1.274a6.27 6.27 0 0 0 1.236-.99l.038-.015Zm-5.095 34.452c.39-.378.728-.806 1.005-1.273a6.063 6.063 0 0 0-1.274 1.005 6.314 6.314 0 0 0-1.005 1.273 6.302 6.302 0 0 0 1.236-.989l.038-.016Zm0-20.717a5.84 5.84 0 0 0 1.005-1.274 6.904 6.904 0 0 0-2.302 2.302 6.08 6.08 0 0 0 1.274-1.036l.023.008Z"/>
  <path fill="#EB9481" d="M284.146 100.395c-.107.768-3.161 5.755-6.491 5.886-1.09.038-1.573-5.87-1.573-5.87l-.138-.43-1.895-5.993 6.783-5.195.989-.698s.407 1.68.898 3.768l.069.299c0 .115.062.222.085.338l.23.943c.054.246.107.484.153.768l.161.767c.367 1.787.61 3.597.729 5.417Z"/>
  <path fill="#263238" d="M282.75 91.863a12.593 12.593 0 0 1-6.776 8.156l-1.895-5.993 6.752-5.233.99-.698s.407 1.642.929 3.768Z"/>
  <path fill="#EB9481" d="M265.639 84.957c-.054 11.034 6.553 12.315 8.931 12.323 2.156 0 9.515-.238 10.743-11.21 1.227-10.973-3.921-14.48-8.855-14.764-4.934-.284-10.766 2.594-10.819 13.65Z"/>
  <path fill="#263238" d="M284.676 86.814c-1.803.184-2.302-3.6-2.302-3.6s-3.676.108-5.018-5.155a8.138 8.138 0 0 0 1.734 4.335s-6.515-.507-9.385-5.878c0 0 1.159 2.74 2.203 3.699a7.674 7.674 0 0 1-4.121-2.87s-1.059 3.161-1.91 4.044c0 0-1.259-5.556 1.051-8.44 4.865-6.14 12.852-.768 12.852-.768s4.466.675 6.062 4.02c2.463 5.119-1.166 10.613-1.166 10.613Z"/>
  <path fill="#EB9481" d="M283.517 86.882s2.118-3.629 3.752-2.9c1.635.729.23 5.855-1.534 6.683a1.87 1.87 0 0 1-2.104-.188 1.862 1.862 0 0 1-.467-.579l.353-3.016Z"/>
  <path fill="#263238" d="M267.02 82.724c.259-.045.516-.107.767-.184.271-.03.524-.15.721-.338a.387.387 0 0 0 0-.483.988.988 0 0 0-.974-.192 1.45 1.45 0 0 0-.883.545.427.427 0 0 0 .148.599.421.421 0 0 0 .221.053Zm7.197.859a6.534 6.534 0 0 1-.767-.122 1.24 1.24 0 0 1-.767-.284.38.38 0 0 1 0-.484.96.96 0 0 1 .951-.26c.356.039.685.205.929.467a.428.428 0 0 1 .045.452.43.43 0 0 1-.391.231Zm-1.442 2.256s.053 0 .053.069c0 .767.1 1.627.768 1.864v.046c-.821-.107-.982-1.258-.821-1.98Z"/>
  <path fill="#263238" d="M273.412 85.041c1.212-.115 1.35 2.302.222 2.433-1.128.13-1.243-2.34-.222-2.433Z"/>
  <path fill="#263238" d="M273.895 85.141c.222.13.445.36.706.376.261.015.506-.26.69-.514h.039c0 .468-.123.96-.614 1.059-.491.1-.767-.307-.952-.767-.023-.07.047-.2.131-.154Zm-5.348.736s-.061.039-.054.07c.069.767 0 1.634-.644 1.925.836-.13.882-1.289.698-1.995Z"/>
  <path fill="#263238" d="M267.818 85.133c-1.22 0-1.159 2.425 0 2.44 1.159.016 1.028-2.424 0-2.44Z"/>
  <path fill="#263238" d="M267.319 85.302c-.192.138-.376.376-.606.399-.23.023-.476-.238-.652-.491h-.039c0 .468.169.951.622 1.028.453.077.698-.338.767-.805.054-.054-.007-.185-.092-.131Zm2.494 3.921s-.108 1.105-.108 1.665a11.473 11.473 0 0 1 3.07.322c.238.07.222-.13-.046-.276a4.607 4.607 0 0 0-2.617-.53c-.038-.145.2-1.741.115-1.741-.412.052-.815.16-1.197.322.154-2.37.691-4.704.806-7.067a.069.069 0 0 0-.069-.069.069.069 0 0 0-.069.07 38.577 38.577 0 0 0-1.197 7.565c.023.284 1.105-.161 1.312-.261Z"/>
  <path fill="#263238" d="M270.956 90.888a2.93 2.93 0 0 0 1.535 1.044c.928.092.99-.768-.046-1.159a2.772 2.772 0 0 0-1.489.115Z"/>
  <path fill="#FF99BA" d="M272.506 91.931a1.93 1.93 0 0 1-.944-.445c.169-.299.599-.637 1.612-.153.161.353-.077.66-.668.598Z"/>
  <path fill="#EB9481" d="M282.527 99.075c1.351 0 3.622.338 6.691 2.67 0 0-6.399 5.149-12.353 5.149-2.126 0-2.763-2.969-2.763-2.969s2.862-4.804 8.425-4.85Z"/>
  <path fill="#65BEDC" d="M383.621 320h-25.068c-18.216 0-29.358-12.592-31.361-35.45-.989-11.272-1.596-24.915-2.232-39.356-1.965-44.373-4.658-105.121-21.93-105.121h-19.851v-4.604h19.851c21.669 0 24.139 55.684 26.526 109.534.637 14.394 1.243 27.991 2.225 39.133 1.251 14.256 6.906 31.252 26.772 31.252h25.068V320Z"/>
  <path fill="#000" d="m297.758 135.454-.982 4.603h-13.597v-4.603h14.579Z" opacity=".2"/>
  <path fill="#65BEDC" d="M245.765 110.201h-8.026v56.083h8.026v-56.083Z"/>
  <path fill="#65BEDC" d="M237.747 114.345h-30.516v47.22h30.516v-47.22Z"/>
  <path fill="#000" d="M237.739 114.353v47.22h-7.581l-3.399-47.22h10.98Z" opacity=".2"/>
  <path fill="#DBDBDB" d="M183.813 122.824h23.41v7.059h-23.41a3.027 3.027 0 0 1-3.024-3.023v-1.005a3.036 3.036 0 0 1 .883-2.143 3.015 3.015 0 0 1 2.141-.888Z"/>
  <path fill="#A6A6A6" d="M207.223 122.824h-8.218v7.051h8.218v-7.051Z"/>
  <path fill="#DBDBDB" d="M183.813 146.035h23.41v7.059h-23.41a3.024 3.024 0 0 1-3.024-3.023v-1.005a3.036 3.036 0 0 1 .883-2.143 3.015 3.015 0 0 1 2.141-.888Z"/>
  <path fill="#A6A6A6" d="M207.223 146.035h-8.218v7.051h8.218v-7.051Z"/>
  <path fill="#65BEDC" d="M293.193 133.451h-23.84v9.415h23.84v-9.415Z"/>
  <path fill="#65BEDC" d="M293.193 133.458h-23.84v9.415h23.84v-9.415Z"/>
  <path fill="#000" d="m277.724 133.458-.783 9.415h-7.588v-9.415h8.371Z" opacity=".2"/>
  <path fill="#65BEDC" d="M245.765 116.125h18.869a4.718 4.718 0 0 1 4.719 4.719v34.23a4.721 4.721 0 0 1-4.719 4.719h-18.869v-43.668Z"/>
  <path fill="#000" d="m255.802 116.125-3.399 43.668h-6.63v-43.668h10.029Z" opacity=".2"/>
  <path fill="#000" d="M254.045 124.949h-1.504v26.012h1.504v-26.012Zm4.266 0h-1.504v26.012h1.504v-26.012Zm4.266 0h-1.504v26.012h1.504v-26.012Z" opacity=".2"/>
  <path fill="#EB9481" d="M290.983 107.109c2.64 7.404-1.143 34.529-5.617 40.276-6.645 8.517-19.773 16.351-24.792 18.799-2.194 1.067-12.023-14.648-9.883-16.113 4.604-3.154 19.268-10.681 20.511-12.178 1.243-1.496 7.934-15.868 10.612-23.947 3.598-10.85 7.842-10.574 9.169-6.837Z"/>
  <path fill="#EB9481" d="M260.559 166.23c-6.959 3.975-20.809 3.392-22.697 2.816l-2.44-.767c-2.908-.821-3.691-2.425-3.691-2.425s-3.637.046-4.036-2.148c-.445-2.463 4.75-2.049 7.75-3.568 6.906-3.476 15.668-10.351 17.548-11.548l7.566 17.64Z"/>
  <path fill="#263238" d="M245.213 161.565a48.155 48.155 0 0 1-6.192 2.709c-2.372.687-4.79 1.2-7.236 1.534a.06.06 0 0 0-.029.023.06.06 0 0 0 0 .07c.007.01.017.018.029.022a26.272 26.272 0 0 0 13.512-4.174c.1-.061.016-.23-.084-.184Zm2.701 3.844c-2.041.844-5.64 2.302-12.5 2.809v.046a23.543 23.543 0 0 0 12.577-2.648c.122-.092.061-.26-.077-.207Z"/>
  <path fill="#EB9481" d="M243.463 155.434c.714-.767.292-1.181-1.596-.844-1.887.338-9.062 3.3-9.883.714-.821-2.586 9.369-6.622 12.554-6.952a53.309 53.309 0 0 1 8.624.253c-1.826 1.182-6.154 4.466-9.699 6.829Z"/>
  <path fill="#DBDBDB" d="M283.578 108.973c4.643-9.767 8.878-7.182 9.285 2.479a153.865 153.865 0 0 1-.905 20.088l-16.828-4.819s5.479-11.494 8.448-17.748Z"/>
  <path fill="#fff" d="M287.768 103.28a6.904 6.904 0 0 1 2.302 2.302 6.904 6.904 0 0 1-2.302-2.302Zm-6.668 12.369a6.08 6.08 0 0 0 .192 1.612c.135-.526.2-1.068.192-1.612a5.979 5.979 0 0 0-.192-1.603 6.325 6.325 0 0 0-.192 1.603Zm8.686 1.896a6.432 6.432 0 0 0-1.611.191 6.855 6.855 0 0 0 3.222 0 6.436 6.436 0 0 0-1.611-.207v.016Zm-10.182 7.857c.379.389.807.726 1.274 1.005a6.913 6.913 0 0 0-2.302-2.302c.284.476.63.912 1.028 1.297Zm11.924 1.136a5.84 5.84 0 0 0 1.005-1.274 6.904 6.904 0 0 0-2.302 2.302 6.08 6.08 0 0 0 1.297-1.028Z"/>
  <path fill="#263238" d="M281.983 111.951c-.63 1.281-1.29 2.539-1.949 3.836.112-.598.204-1.205.276-1.818h-.046c-.092.475-.207.951-.3 1.427-.038.23-.084.46-.13.69v.146c-.514.982-1.02 1.972-1.535 2.97-.583 1.197-1.128 2.401-1.68 3.606s-1.067 2.678-1.688 3.898c.529.22 1.079.385 1.642.491.146.054.222-.092.069-.115-.153-.023-1.412-.522-1.427-.529.552-1.221 1.235-2.371 1.818-3.568.583-1.198 1.182-2.379 1.742-3.584 1.136-2.44 2.133-4.949 3.261-7.397 0-.061-.053-.084-.053-.053Zm11.578 5.816c-.153.499-.33.998-.46 1.535-.046.215-.1.422-.154.637.062-1.75.118-3.494.169-5.233-.238 2.854-.483 5.701-.667 8.555a79.557 79.557 0 0 0-.376 8.226 9.838 9.838 0 0 0-1.535-.238 7.433 7.433 0 0 0 1.742.499c.422-2.763.453-5.817.591-8.594.038-.768.061-1.535.092-2.356.092-.483.23-.959.36-1.435.131-.476.231-1.028.338-1.534-.038-.077-.092-.093-.1-.062Z"/>
  <path fill="#263238" d="M291.275 128.993c-2.371-.844-12.193-3.944-14.357-4.474-.153-.038-.215.046-.061.1a136.268 136.268 0 0 0 14.379 4.458c.062.023.1-.069.039-.084Z"/>
  <path fill="#EB9481" d="M208.781 126.392c2.302.706 1.834-2.44 1.834-2.44s1.803 4.358 4.481 4.166c2.678-.192 1.849-3.974 1.803-4.251.092.231 1.857 4.19 4.527 3.722 2.67-.468 1.389-4.167 1.297-4.397.161.184 2.302 2.632 4.266 1.811 3.346-1.412-1.995-7.827-1.604-10.742l4.704.138c.155-.015.308-.038.46-.069l.177-2.402a30.653 30.653 0 0 1-4.343-2.179c-1.773-.998-3.484-1.903-4.757-1.934a2.664 2.664 0 0 0-2.648 1.757s-1.381-2.179-3.499-1.872c-1.081.161-1.787 2.041-1.787 2.041a3.18 3.18 0 0 0-3.07-1.312c-1.488.307-1.964 2.148-1.964 2.148s-1.888-1.112-3.307-.299c-2.847 1.581-1.542 14.579 3.43 16.114Z"/>
  <path fill="#EB9481" d="m225.969 113.984 4.097.376c.155-.015.308-.038.461-.069 5.171-.936 8.394-6.86 4.603-7.282-2.846-.33-5.931 3.453-8.808 2.693l-.353 4.282Z"/>
  <path fill="#263238" d="M208.558 110.815h-.069a22.6 22.6 0 0 0 2.133 13.274c.07.131.307.07.261-.084a46.177 46.177 0 0 1-2.325-13.19Zm5.134-1.174c0-.053-.085-.053-.092 0a21.17 21.17 0 0 0 3.161 14.341c.1.146.338.177.23 0-1.703-2.961-3.299-10.128-3.299-14.341Zm9.338 13.735c-2.647-4.174-3.699-8.778-4.09-13.658 0-.062-.092-.046-.107 0-.453 2.44.122 5.524.767 7.888a13.037 13.037 0 0 0 3.276 5.854c.077.069.215.008.154-.084Z"/>
  <path fill="#AD6359" d="M158.215 298.27c-1.588.529-47.067.399-48.801-.699-.652-.414-1.02-7.044-1.235-15.062a364.748 364.748 0 0 1-.115-5.333c0-2.148-.062-4.328-.077-6.445-.054-9.5.077-17.863.077-17.863h29.61v24.308l-.153 5.333s17.387 7.842 19.183 9.254c1.795 1.412 3.099 6.015 1.511 6.507Z"/>
  <path fill="#fff" d="M158.215 298.269c-1.588.53-47.067.399-48.801-.698-.652-.414-1.021-7.044-1.235-15.062a365.357 365.357 0 0 1-.115-5.333c0-2.149-.062-4.328-.077-6.446h29.672v6.446l-.154 5.333s17.388 7.842 19.183 9.254c1.796 1.411 3.115 6.015 1.527 6.506Z"/>
  <path fill="#65BEDC" d="M158.353 298.37c-1.036.345-20.403.414-34.529.122a429.856 429.856 0 0 1-8.655-.268c-3.323-.154-5.548-.33-5.908-.56-.806-.515-1.182-10.244-1.366-20.511h29.748l-.153 5.372s17.487 7.887 19.267 9.307c1.78 1.42 3.223 6 1.596 6.538Z"/>
  <path fill="#263238" d="M157.678 296.543c-7.673-.215-38.596-.338-46.192.038-.062 0-.062.039 0 .046 7.596.376 38.526.246 46.192.039.184-.008.192-.123 0-.123Zm-19.076-15.722c-3.015-.568-6.706-.115-9.015 2.026-.093.084 0 .207.13.176a42.027 42.027 0 0 1 8.878-1.818c.051.001.1-.019.137-.054a.194.194 0 0 0 .005-.271.191.191 0 0 0-.135-.059Zm2.195 1.335c-3.016-.576-6.706-.123-9.024 2.026-.084.076 0 .207.131.176a42.117 42.117 0 0 1 8.893-1.834.19.19 0 0 0 .138-.184.191.191 0 0 0-.138-.184Zm2.156 1.304c-3.015-.575-6.706-.123-9.016 2.018-.092.085 0 .215.123.184a42.82 42.82 0 0 1 8.878-1.826.19.19 0 0 0 .113-.062.19.19 0 0 0 .01-.243.195.195 0 0 0-.108-.071Zm2.172 1.32c-3.016-.575-6.707-.123-9.016 2.018-.092.084 0 .215.13.184a42.107 42.107 0 0 1 8.87-1.826.196.196 0 0 0 .114-.062.189.189 0 0 0 .048-.12.188.188 0 0 0-.038-.123.193.193 0 0 0-.108-.071Z"/>
  <path fill="#263238" d="M144.196 273.861c-1.181-1.634-3.391-.905-4.65.146a16.125 16.125 0 0 0-4.665 6.906.076.076 0 0 0 .006.072.084.084 0 0 0 .027.026.077.077 0 0 0 .036.009c0 .23.215.476.468.376 2.494-.913 5.279-1.58 7.413-3.238 1.25-.967 2.486-2.747 1.365-4.297Zm-5.279 5.371c-1.212.476-2.447.898-3.645 1.42a47.5 47.5 0 0 1 2.817-3.967 16.19 16.19 0 0 1 1.603-1.719c.898-.821 4.458-2.547 3.914.768-.3 1.818-3.239 2.923-4.689 3.498Z"/>
  <path fill="#263238" d="M127.216 280.092c2.478 1.067 5.371 1.021 7.98 1.289a.385.385 0 0 0 .374-.31.389.389 0 0 0-.006-.173.1.1 0 0 0 .023-.027.085.085 0 0 0 .008-.035.08.08 0 0 0-.008-.034.087.087 0 0 0-.023-.027 16.113 16.113 0 0 0-6.2-5.525c-1.488-.706-3.836-.859-4.542 1.021s.943 3.2 2.394 3.821Zm-1.359-2.148c-1.35-3.07 2.525-2.302 3.599-1.727.689.382 1.353.808 1.988 1.274a46.678 46.678 0 0 1 3.713 3.138c-1.289-.207-2.586-.307-3.882-.468-1.55-.192-4.673-.529-5.418-2.217Z"/>
  <path fill="#A6A6A6" d="m141.879 275.066-36.693.66s-4.995-32.465-8.28-52.653c-1.242-7.589-2.224-13.451-2.623-15.216-.952-4.212-19.544-71.076-19.544-71.076l26.672-.038h9.116s-.583 11.179-.238 12.353c4.757 16.183 14.479 44.881 17.518 54.879 4.657 15.369 14.072 71.091 14.072 71.091Z"/>
  <path fill="#263238" d="M138.541 269.441c-5.264-.038-23.94-.245-30.953.407a.053.053 0 0 0-.034.05.053.053 0 0 0 .034.05c2.417.345 25.689-.192 30.961-.361a.078.078 0 0 0 .068-.014.09.09 0 0 0 .022-.029.07.07 0 0 0 .006-.035.067.067 0 0 0-.01-.034.063.063 0 0 0-.025-.026.066.066 0 0 0-.033-.012.073.073 0 0 0-.036.004Zm-32.756-27.669a734.569 734.569 0 0 0-4.244-25.122c-.767-4.105-1.603-8.202-2.677-12.277-1.075-4.074-2.44-8.102-3.837-12.1a710.843 710.843 0 0 1-7.834-23.979 642.513 642.513 0 0 1-6.906-24.254c-.276-1.029-.545-2.057-.844-3.07 0-.084-.146-.046-.13 0 .836 4.098 1.918 8.157 2.954 12.208a413.553 413.553 0 0 0 3.307 12.108 517.51 517.51 0 0 0 7.588 24.048c1.358 3.959 2.77 7.911 3.975 11.924s2.14 8.08 2.977 12.177c1.696 8.318 3.139 16.689 4.474 25.061 1.335 8.371 2.478 16.881 3.598 25.321.146 1.067.284 2.141.422 3.215.039.299.514.299.484 0-.867-8.417-2.057-16.85-3.307-25.26Z"/>
  <path fill="#263238" d="m101.411 136.727-4.504 86.346c-1.243-7.589-2.225-13.451-2.624-15.216-.952-4.213-19.544-71.076-19.544-71.076l26.672-.054Z"/>
  <path fill="#AD6359" d="M112.706 305.543c-1.588.53-47.067.399-48.801-.705-.652-.407-1.02-7.037-1.236-15.055a381.956 381.956 0 0 1-.115-5.333c0-2.156-.061-4.328-.076-6.445-.054-9.5.076-17.863.076-17.863h29.603v24.316l-.153 5.333s17.387 7.841 19.183 9.253c1.795 1.412 3.107 5.978 1.519 6.499Z"/>
  <path fill="#fff" d="M112.706 305.544c-1.589.529-47.067.399-48.801-.706-.653-.407-1.02-7.036-1.236-15.055a381.956 381.956 0 0 1-.115-5.333c0-2.156-.061-4.327-.077-6.445H92.15v6.453l-.154 5.333s17.387 7.842 19.183 9.254c1.795 1.411 3.115 5.977 1.527 6.499Z"/>
  <path fill="#65BEDC" d="M112.844 305.613c-1.036.337-20.41.406-34.53.115a438.764 438.764 0 0 1-8.654-.261c-3.315-.154-5.54-.338-5.909-.568-.767-.514-1.181-10.236-1.358-20.503h29.749l-.154 5.372s17.503 7.88 19.283 9.269c1.78 1.389 3.169 6.039 1.573 6.576Z"/>
  <path fill="#263238" d="M112.192 303.779c-7.674-.207-38.604-.338-46.193.038-.061 0-.061.046 0 .054 7.59.368 38.527.246 46.193.038.161-.007.161-.122 0-.13Zm-19.099-15.715c-3.015-.575-6.706-.123-9.016 2.018-.092.085 0 .215.123.184a42.827 42.827 0 0 1 8.878-1.826.193.193 0 0 0 .162-.181.193.193 0 0 0-.147-.195Zm2.172 1.32c-3.016-.575-6.707-.123-9.016 2.018-.092.084 0 .215.13.184a42.033 42.033 0 0 1 8.878-1.826.196.196 0 0 0 .112-.064.191.191 0 0 0-.104-.312Zm2.179 1.312c-3.016-.568-6.706-.115-9.024 2.026-.084.084 0 .207.13.176a42.554 42.554 0 0 1 8.879-1.818.194.194 0 0 0 .2-.185.19.19 0 0 0-.052-.137.19.19 0 0 0-.133-.062Zm2.171 1.32c-3.015-.568-6.706-.115-9.016 2.025-.092.085 0 .208.123.177a42.754 42.754 0 0 1 8.878-1.819c.05.002.1-.016.138-.05a.194.194 0 0 0 .01-.272.193.193 0 0 0-.133-.061Z"/>
  <path fill="#263238" d="M98.687 281.105c-1.182-1.642-3.392-.913-4.658.145a16.116 16.116 0 0 0-4.665 6.906.085.085 0 0 0 .013.072.076.076 0 0 0 .028.025c.01.007.023.01.036.011a.372.372 0 0 0 .137.308.365.365 0 0 0 .331.068c2.494-.913 5.271-1.581 7.412-3.238 1.274-.944 2.478-2.755 1.366-4.297Zm-5.28 5.371c-1.22.483-2.447.898-3.644 1.427.913-1.343 1.765-2.716 2.808-3.967a17.91 17.91 0 0 1 1.604-1.726c.906-.814 4.458-2.54 3.921.767-.269 1.818-3.238 2.923-4.688 3.491v.008Z"/>
  <path fill="#263238" d="M81.714 287.335c2.486 1.067 5.371 1.021 7.988 1.289a.377.377 0 0 0 .305-.153.38.38 0 0 0 .055-.338.084.084 0 0 0 .046-.122 16.182 16.182 0 0 0-6.238-5.51c-1.489-.706-3.837-.859-4.542 1.021-.706 1.88.92 3.192 2.386 3.813Zm-1.35-2.156c-1.351-3.069 2.524-2.302 3.598-1.719.69.377 1.354.8 1.987 1.267 1.29.985 2.53 2.035 3.714 3.145-1.296-.214-2.593-.306-3.89-.468-1.558-.191-4.68-.529-5.425-2.225h.016Z"/>
  <path fill="#A6A6A6" d="M96.293 281.872H60.39s7.804-111.322 6.546-117.56c-2.065-10.213-.691-21.945 4.143-27.623h31.943s.637 8.962-2.662 14.318c0 0-3 1.895-4.45 2.732l.383 128.133Z"/>
  <path fill="#263238" d="M92.948 276.064c-4.973-.123-3.538-.161-8.518-.231-2.432-.038-18.415-.26-20.717.1-.054 0-.054.092 0 .1 2.302.391 18.277.338 20.717.322 4.972 0 3.545-.069 8.517-.146a.075.075 0 0 0 .039-.117.072.072 0 0 0-.038-.028Zm9.407-126.461a61.397 61.397 0 0 0-8.986 5.317.107.107 0 0 0-.046.064.102.102 0 0 0 .012.078.1.1 0 0 0 .064.047.107.107 0 0 0 .078-.012c3.07-1.681 6.138-3.307 9.085-5.149a.2.2 0 0 0 .069-.276.202.202 0 0 0-.124-.092.197.197 0 0 0-.152.023Z"/>
  <path fill="#263238" d="M98.28 149.142a15.67 15.67 0 0 0-.43 1.888 4.074 4.074 0 0 0-.1 1.535c0 .099.162.092.208 0 .24-.484.406-1.001.491-1.535.154-.591.322-1.174.453-1.765.092-.376-.499-.506-.622-.123Z"/>
  <path fill="#263238" d="M97.996 146.065c.085-.537.17-1.066.269-1.596.1-.529.238-1.105.292-1.657 0-.092.153-.061.138 0-.085.537-.092 1.09-.138 1.627-.046.537-.093 1.082-.146 1.619a30.417 30.417 0 0 1-.476 3.015 3.617 3.617 0 0 0 1.473-.606c.408-.42.676-.956.768-1.535.153-.613.291-1.227.452-1.841.218-.665.374-1.348.468-2.041 0-.092.154-.061.139 0a21.661 21.661 0 0 1-.814 4.305 2.366 2.366 0 0 1-.806 1.427 4.656 4.656 0 0 1-1.787.529c-.07 0-.177 0-.17-.084.06-1.059.174-2.114.338-3.162Zm-25.873 17.84c-.23-2.348-.614-4.68-.868-7.028a43.735 43.735 0 0 1 .845-14.057c0-.085-.115-.123-.13 0a52.173 52.173 0 0 0-1.26 12.338c.208 4.143.945 8.226 1.006 12.377.061 4.151-.261 8.402-.53 12.591-.268 4.19-.544 8.441-.813 12.653-1.09 16.95-2.095 33.9-3.13 50.858a3193.13 3193.13 0 0 0-.83 14.195c-.275 4.811-.613 9.63-.766 14.456 0 .415.598.384.636 0 .722-8.509 1.136-17.05 1.68-25.559.546-8.509 1.029-16.881 1.535-25.321.507-8.441 1.02-16.881 1.535-25.322.246-4.215.501-8.43.767-12.645.246-4.197.553-8.402.614-12.607a61.266 61.266 0 0 0-.291-6.929Zm11.31-21.4a.084.084 0 0 0-.028-.027.08.08 0 0 0-.075 0 .085.085 0 0 0-.028.027 5.547 5.547 0 0 0-.299 1.727 12.81 12.81 0 0 1-.437 1.856 7.407 7.407 0 0 1-1.919 3.223c-2.01 1.88-4.703 2.578-7.297 3.207a.086.086 0 0 0-.06.081.086.086 0 0 0 .06.081c1.541.069 3.08-.171 4.527-.706a9.422 9.422 0 0 0 3.492-1.957 6.495 6.495 0 0 0 1.887-3.414c.137-.683.21-1.376.215-2.072v-.998a2.629 2.629 0 0 0-.038-1.028Z"/>
  <path fill="#AD6359" d="M98.472 99.443c.66 5.218 10.881 24.616 21.761 33.21 3.99 3.153 25.145 5.018 30.439 4.604 6.193-.476 7.121-15.216 3.653-16.367-4.336-1.435-24.393-3.208-28.329-4.604-4.788-1.734-13.505-12.868-21.792-19.758-4.259-3.568-6.238-1.098-5.732 2.915Z"/>
  <path fill="#AD6359" d="M150.672 137.264c1.957-.054 10.912-1.082 13.344-1.926 2.432-.844 9.208-3.775 8.778-5.701-.43-1.926-2.517-1.228-2.517-1.228s2.678-1.695 2.041-3.591c-.637-1.895-3.836-.698-3.836-.698s2.624-1.941 1.849-3.79c-.775-1.85-3.76-.108-3.76-.108s2.486-1.665 1.212-2.923c-1.534-1.535-5.77 2.079-8.517 2.808-.629.169-12.906 2.463-12.906 2.463l4.312 14.694Z"/>
  <path fill="#263238" d="M166.886 120.077c-3.123 2.624-4.942 3.238-8.917 3.782a.07.07 0 0 0-.033.026.068.068 0 0 0 0 .08c.008.011.02.02.033.025 3.937-.184 6.331-.622 9.047-3.768.115-.153-.008-.268-.13-.145Zm1.864 3.828c-3.476 2.486-5.44 3.123-9.538 4.021-.053 0-.038.115 0 .107 4.113-.529 6.492-1.02 9.646-3.921.13-.145.053-.322-.108-.207Zm1.312 4.543c-3.537 2.125-5.662 2.962-9.775 3.307a.077.077 0 0 0-.077.077.077.077 0 0 0 .077.076 13.698 13.698 0 0 0 9.822-3.345c.207-.161.176-.246-.047-.115Z"/>
  <path fill="#AD6359" d="M143.521 120.959a50.296 50.296 0 0 1 6.468-3.537c2.164-.768 11.295-.768 11.395 1.212.138 2.547-5.133 3.568-7.781 3.737 0 0 .33 5.885-3.299 7.443-3.629 1.557-6.783-8.855-6.783-8.855Z"/>
  <path fill="#263238" d="M161.2 119.348c-1.535 2.409-5.041 2.401-7.597 2.754a.236.236 0 0 0-.109.034.233.233 0 0 0-.082.304c0 2.478-.768 5.962-2.955 7.428-.069.046 0 .145.054.107 2.54-1.258 3.568-4.604 3.422-7.343 2.625-.315 6.139-.461 7.29-3.277.008-.015-.015-.023-.023-.007Z"/>
  <path fill="#455A64" d="M132.395 136.98s-10.834-2.961-12.154-3.997a47.47 47.47 0 0 1-4.113-3.637c-9.86-9.691-15.814-22.905-17.426-27.508-1.703-4.904-.138-9.6 4.428-6.438.367.26.721.539 1.059.836 5.371 4.681 19.735 18.914 21.484 19.643 1.75.729 10.183 1.834 10.183 1.834l-3.461 19.267Z"/>
  <path fill="#263238" d="M116.128 129.346c-9.86-9.691-15.814-22.905-17.426-27.508-1.703-4.904-.138-9.6 4.428-6.438l12.998 33.946Zm16.229-11.97a40.208 40.208 0 0 0-1.251 4.519c-.376 1.535-.767 3.07-1.082 4.604a81.879 81.879 0 0 0-1.534 9.123c0 .019.007.036.02.049.013.013.03.021.049.021a.068.068 0 0 0 .048-.021.069.069 0 0 0 .021-.049c.828-3.007 1.442-6.084 2.071-9.138.315-1.535.599-3.023.913-4.527.315-1.504.691-3.07.86-4.558a.06.06 0 0 0-.09-.061.061.061 0 0 0-.025.038Z"/>
  <path fill="#263238" d="M108.984 110.071a38.54 38.54 0 0 1 .606 3.499 1.075 1.075 0 0 1 0-.139c.062-.652.108-1.319.223-1.964 0 0 .061-.038.061 0 .04.664.014 1.329-.076 1.987-.039.315-.077.63-.123.937.054.529.1 1.058.13 1.58.062.998.253 5.256.23 5.985 0 .154-.176.169-.214 0-.146-.767-.53-5.133-.637-6.138a53.725 53.725 0 0 1-.292-5.77c.016-.023.077-.016.092.023Z"/>
  <path fill="#455A64" d="M110.204 141.945c-1.534 1.381-3.407 3.399-14.18 4.151-.675 0-1.365.054-2.056 0-10.374-.291-24.93-8.44-25.797-9.085 0 0 11.18-30.247 25.966-41.857 2.11-1.665 6.637-.844 9.468.868 1.013.613 4.359 6.207 5.034 11.302.675 5.095 3.092 33.24 1.565 34.621Z"/>
  <path fill="#AD6359" d="M101.802 103.602c-2.609.215-6.346-4.297-7.573-7.673-.085-.23.59-2.432 1.281-5.148.415-1.65.837-3.492 1.097-5.203.054-.353 1.151.476 1.151.476l2.134.875 7.059 2.9a27.527 27.527 0 0 0-2.049 6.415 3.95 3.95 0 0 0 0 .721.554.554 0 0 1 0 .115c-.023 1.358-.583 6.292-3.1 6.522Z"/>
  <path fill="#263238" d="M104.871 96.957a.554.554 0 0 1 0 .116 6.69 6.69 0 0 1-1.112-.108C96.546 95.7 97.06 86.361 97.06 86.361l2.84.56 7.059 2.9a27.433 27.433 0 0 0-2.049 6.415c-.036.239-.048.48-.039.721Z"/>
  <path fill="#AD6359" d="M95.879 74.337c-1.374 3.79.092 15.009 2.7 17.648 3.783 3.837 10.267 4.474 13.559-.145 3.2-4.466 1.028-19.06-1.911-21.485-4.335-3.553-12.323-1.612-14.348 3.982Z"/>
  <path fill="#263238" d="M106.099 82.102s-.054.046-.046.077c.115.767.131 1.634-.529 1.972v.038c.836-.222.813-1.396.575-2.087Z"/>
  <path fill="#263238" d="M105.324 81.396c-1.227.062-1.013 2.51.123 2.456 1.136-.054.905-2.51-.123-2.456Zm5.425.2s.061 0 .061.061c.046.767.223 1.627.929 1.826-.867-.007-1.074-1.158-.99-1.887Z"/>
  <path fill="#263238" d="M111.363 80.744c1.212-.192 1.535 2.248.391 2.433-1.143.184-1.412-2.264-.391-2.433Zm-6.99-1.159c.322-.115.606-.276.92-.422.343-.1.642-.31.852-.598a.512.512 0 0 0-.13-.622 1.314 1.314 0 0 0-1.312 0 1.87 1.87 0 0 0-1.013.913.551.551 0 0 0 .683.729Zm7.757.33a8.755 8.755 0 0 1-.997-.168 1.634 1.634 0 0 1-.982-.369.519.519 0 0 1 0-.629 1.26 1.26 0 0 1 1.258-.353 1.9 1.9 0 0 1 1.22.622.563.563 0 0 1 .045.612.564.564 0 0 1-.544.285Zm-2.447 5.809c.076.552.125 1.108.145 1.665-1.037.004-2.07.149-3.069.43-.23.076-.23-.123 0-.277a4.49 4.49 0 0 1 2.594-.621c0-.146-.261-1.734-.177-1.742a4.78 4.78 0 0 1 1.205.284c-.238-2.363-.852-4.673-1.059-7.029 0-.084.115-.115.138-.038a38.047 38.047 0 0 1 1.466 7.527c.069.3-1.029-.115-1.243-.2Z"/>
  <path fill="#263238" d="M96.692 83.69c1.934-.138 1.688-4.864 1.688-4.864s2.947-.568 4.335-4.604c0 0 3.837 2.302 7.006 1.719 4.972-.967 4.757-7.45 2.877-8.748-2.67-1.841-7.35.944-7.35.944s-7.152-1.895-9.208 2.954a3.66 3.66 0 0 0-3.361 3.691c-.184 3.491 2.578 9.008 4.013 8.909Z"/>
  <path fill="#263238" d="M97.697 79.393a6.536 6.536 0 0 0 3.699-2.087 4.88 4.88 0 0 0 1.082-4.373.063.063 0 0 1 .025-.034.068.068 0 0 1 .08 0c.012.008.02.02.025.034a5.63 5.63 0 0 1-.767 4.742 4.606 4.606 0 0 1-4.16 1.887c-.045-.038-.068-.153.016-.169Zm7.359-11.041a4.893 4.893 0 0 1 2.716-2.133 5.823 5.823 0 0 1 4.143.368 3.301 3.301 0 0 1 1.765 2.785 5.832 5.832 0 0 1-1.266 3.699h-.046a5.76 5.76 0 0 0 .975-3.36 3.013 3.013 0 0 0-1.811-2.656c-2.057-.882-5.049-.698-6.369 1.397-.038.046-.153-.031-.107-.1Z"/>
  <path fill="#AD6359" d="M97.828 83.514s-2.402-3.675-4.067-2.823c-1.665.851.077 6.138 1.972 6.905a1.948 1.948 0 0 0 2.64-.966l-.545-3.116Z"/>
  <path fill="#263238" d="M94.26 82.186v.054a4.92 4.92 0 0 1 2.447 3.162 1.075 1.075 0 0 0-1.603-.346v.07a1.197 1.197 0 0 1 1.304.46c.238.34.439.706.599 1.09.06.122.276.06.237-.077.108-1.742-1.15-4.182-2.984-4.413Z"/>
  <path fill="#65BEDC" d="M25.447 320H.379v-4.604h25.068c19.858 0 25.52-16.996 26.771-31.253.983-11.164 1.581-24.761 2.218-39.133 2.386-53.85 4.857-109.533 26.526-109.533h19.858v4.603H80.947c-17.265 0-19.95 60.764-21.922 105.122-.645 14.449-1.251 28.092-2.233 39.363C54.797 307.408 43.663 320 25.447 320Z"/>
  <path fill="#000" d="M100.82 135.454v4.603H84.983L84 135.454h16.819Z" opacity=".2"/>
  <path fill="#65BEDC" d="M169.709 167.497h8.456v-59.068h-8.456v59.068Z"/>
  <path fill="#65BEDC" d="M169.71 111.229h-32.136v52.853h32.136v-52.853Z"/>
  <path fill="#000" d="M169.709 111.229v52.853h-7.98l-3.583-52.853h11.563Z" opacity=".2"/>
  <path fill="#65BEDC" d="M88.896 142.459h23.841v-9.415h-23.84v9.415Z"/>
  <path fill="#65BEDC" d="M112.736 133.052h-23.84v9.415h23.84v-9.415Z"/>
  <path fill="#000" d="m104.365 142.459.783-9.407h7.588v9.407h-8.371Z" opacity=".2"/>
  <path fill="#65BEDC" d="M137.574 160.951h-20.118a4.718 4.718 0 0 1-4.719-4.719v-36.555a4.718 4.718 0 0 1 4.719-4.719h20.118v45.993Z"/>
  <path fill="#000" d="m127.001 160.951 3.583-45.985h6.99v45.985h-10.573Z" opacity=".2"/>
  <path fill="#000" d="M128.85 151.651h1.588v-27.393h-1.588v27.393Zm-4.489 0h1.588v-27.393h-1.588v27.393Zm-4.496 0h1.588v-27.393h-1.588v27.393Z" opacity=".2"/>
  <path fill="#AD6359" d="M87.43 105.789c-.767 11.08-1.642 33.647 3.254 40.269 6.422 8.686 24.554 13.957 29.925 15.538 2.302.683 7.819-14.579 6.453-16.774-1.366-2.194-20.08-6.906-21.554-8.195-1.473-1.289-6.138-19.275-8.356-28.436-2.87-11.556-9.407-6.776-9.722-2.402Z"/>
  <path fill="#AD6359" d="M140.889 150.685c2.954.706 7.435-.814 7.581 1.45.131 2.01-3.069 2.754-3.069 2.754s3.882.33 3.407 2.533c-.476 2.202-4.159 2.302-4.159 2.302s3.56.483 2.923 2.647c-.637 2.164-4.051 2.463-4.051 2.463s.898.667-.238 1.995c-1.619 1.903-7.021 1.68-9.806.898-2.786-.783-12.431-5.725-13.896-6.515l4.888-17.955s5.609-.89 8.509-.998c2.901-.107 12.546 2.195 12.139 4.604-.407 2.41-7.197.691-8.955.63-1.757-.062-2.064.33-1.296.974.498.453 4.711 1.903 6.023 2.218Z"/>
  <path fill="#263238" d="M145.225 154.851c-4.535.767-6.653.261-10.812-1.535-.084-.038-.153.077-.069.123 3.913 2.11 6.484 3.069 10.927 1.619.222-.061.176-.238-.046-.207Zm-.399 4.796c-4.781.345-7.075-.139-11.572-1.689-.061 0-.107.085-.046.116 4.29 1.88 6.868 2.793 11.602 1.818.215-.038.238-.261.016-.245Zm-1.366 5.156c-4.658 0-7.198-.43-11.372-2.486a.083.083 0 0 0-.062-.005.084.084 0 0 0-.057.1.08.08 0 0 0 .035.051c4.051 2.516 7.22 3.069 11.44 2.486.284-.046.307-.146.016-.146Z"/>
  <path fill="#455A64" d="M106.452 157.997s-14.633-7.351-16.88-12.983c-2.763-7.028-3.891-27.523-2.817-38.036 1.074-10.512 8.395-9.207 10.743.085 2.301 9.07 7.496 27.186 8.033 28.038.683 1.097 9.032 3.161 9.032 3.161"/>
  <path fill="#263238" d="M104.987 132.752c-.254-.867-.699-2.823-.952-3.667-.514-1.689-1.028-3.384-1.535-5.072a175.752 175.752 0 0 0-1.611-5.065c-.1-.284-.192-.575-.284-.859.046-.184-.161-2.409-.146-2.954 0-.085-.138-.092-.13 0 .02.545.002 1.091-.054 1.634v.307a229.993 229.993 0 0 0-1.066-3.276c0-.077-.154-.046-.13 0 .69 2.302 1.027 3.752 1.534 5.616.506 1.865 1.028 3.599 1.535 5.372.506 1.772 1.097 3.575 1.657 5.371a32.882 32.882 0 0 0 1.105 3.138c.322.691.337.368.077-.545Zm-16.505 6.193c-.3-1.896-.599-3.837-.83-5.709a147.521 147.521 0 0 1-.935-11.448c-.1-2.195-.261-4.374-.384-6.561a.083.083 0 0 0-.084-.084.083.083 0 0 0-.085.084c0 1.949-.069 3.89 0 5.839v.852l-.092-.399c-.284-1.113-.683-2.202-.928-3.33a.064.064 0 0 0-.032-.029.062.062 0 0 0-.075.025.062.062 0 0 0-.008.042c.276 1.12.422 2.302.683 3.399.138.561.276 1.121.43 1.681l.076.238c.046 1.12.1 2.24.176 3.36a94.302 94.302 0 0 0 1.328 11.464 45.253 45.253 0 0 0 2.003 7.282.06.06 0 0 0 .022.029c.01.007.023.011.035.011a.062.062 0 0 0 .058-.04c-.453-1.895-1.052-4.811-1.358-6.706Zm23.364-.691a39.764 39.764 0 0 0-2.148 4.266c-.675 1.443-1.358 2.886-1.995 4.343a84.545 84.545 0 0 0-3.384 8.809.073.073 0 0 0 .011.048.074.074 0 0 0 .038.032.075.075 0 0 0 .049.002.076.076 0 0 0 .04-.028c1.427-2.839 2.647-5.793 3.89-8.717.614-1.442 1.205-2.9 1.811-4.343.606-1.442 1.297-2.892 1.765-4.381.015-.046-.054-.069-.077-.031Zm14.311-75.273a.227.227 0 0 1 .248-.051c.028.012.053.03.074.051.678.569 1.525.9 2.409.944a2.726 2.726 0 0 0 1.604-.484 1.344 1.344 0 0 0 .629-1.09 1.185 1.185 0 0 0-.591-1.004 4.937 4.937 0 0 0-1.696-.591 4.545 4.545 0 0 1-1.726-.622 1.535 1.535 0 0 1-.767-1.273 1.695 1.695 0 0 1 .767-1.366 2.98 2.98 0 0 1 1.765-.537 4.052 4.052 0 0 1 2.256.851.218.218 0 0 1 .101.148.217.217 0 0 1-.04.175.217.217 0 0 1-.144.097.222.222 0 0 1-.17-.036 3.602 3.602 0 0 0-2.003-.767 2.613 2.613 0 0 0-1.496.437 1.271 1.271 0 0 0-.576 1.005 1.052 1.052 0 0 0 .545.89c.471.282.992.47 1.535.553.658.1 1.292.326 1.864.667a1.668 1.668 0 0 1 .767 1.381 1.835 1.835 0 0 1-.828 1.466 3.232 3.232 0 0 1-1.88.575 4.541 4.541 0 0 1-2.701-1.058.24.24 0 0 1-.021-.29.246.246 0 0 1 .075-.071Zm10.512-6.054a3.723 3.723 0 0 1 3.863 4.325 3.721 3.721 0 0 1-7.393-.611 3.612 3.612 0 0 1 2.148-3.408 3.608 3.608 0 0 1 1.382-.306Zm0 6.906a3.202 3.202 0 0 0 3.043-3.196 3.202 3.202 0 0 0-3.043-3.196 3.2 3.2 0 0 0 0 6.392Zm9.315-1.128a1.315 1.315 0 0 0-.157-.63 1.314 1.314 0 0 0-.441-.475 2.365 2.365 0 0 0-.845-.369h-1.826v2.893a.259.259 0 0 1-.257.216.262.262 0 0 1-.257-.216V57.31a.26.26 0 0 1 .23-.253h2.087a2.088 2.088 0 0 1 .883 3.96l.1.053a1.845 1.845 0 0 1 .989 1.627c-.012.287.019.574.093.852a.38.38 0 0 0 .099.176.255.255 0 0 1 .307.192.257.257 0 0 1-.192.307.584.584 0 0 1-.59-.338 2.596 2.596 0 0 1-.223-1.181Zm-1.466-5.15h-1.803v3.154h1.849a1.583 1.583 0 0 0 1.45-1.598 1.582 1.582 0 0 0-1.496-1.555Zm8.004 5.15a1.314 1.314 0 0 0-.599-1.105 2.413 2.413 0 0 0-.844-.369h-1.842v2.893a.259.259 0 0 1-.257.216.262.262 0 0 1-.257-.216V57.31a.26.26 0 0 1 .231-.253h2.094a2.089 2.089 0 0 1 1.87 3.016 2.089 2.089 0 0 1-.995.966l.108.054a1.842 1.842 0 0 1 .982 1.627c-.013.287.018.574.092.852a.361.361 0 0 0 .107.176.284.284 0 0 1 .284.169.276.276 0 0 1-.169.33.594.594 0 0 1-.606-.338 2.63 2.63 0 0 1-.199-1.204Zm-1.466-5.15h-1.819v3.154h1.85a1.581 1.581 0 0 0 0-3.153h-.031Zm6.1 3.285-2.455-3.36a.267.267 0 0 1 .054-.354.236.236 0 0 1 .352.046l2.302 3.146 2.302-3.146a.245.245 0 0 1 .17-.103.248.248 0 0 1 .191.057.252.252 0 0 1 .054.353l-2.448 3.338V64.1a.267.267 0 0 1-.019.097.266.266 0 0 1-.055.082.256.256 0 0 1-.358 0 .25.25 0 0 1-.074-.179l-.016-3.261Zm4.19-3.552a.26.26 0 0 1 .425-.155c.047.04.078.094.089.155v5.248a.256.256 0 0 1-.058.213.258.258 0 0 1-.309.068.262.262 0 0 1-.142-.168.252.252 0 0 1-.005-.113v-5.248Zm0 6.56a.259.259 0 0 1 .257-.216.262.262 0 0 1 .257.216v.253a.262.262 0 0 1-.425.155.259.259 0 0 1-.089-.155v-.253Zm5.885-6.561a.255.255 0 0 1 .253-.253h2.072a2.09 2.09 0 0 1 2.087 2.087 2.089 2.089 0 0 1-2.087 2.087h-1.811v2.878a.259.259 0 0 1-.257.216.262.262 0 0 1-.257-.216v-6.799Zm2.302 3.423a1.605 1.605 0 0 0 1.581-1.589 1.582 1.582 0 0 0-1.581-1.573h-1.811v3.162h1.811Zm7.067 1.75h-3.338l-.645 1.726a.26.26 0 0 1-.237.169h-.1a.26.26 0 0 1-.146-.33l2.54-6.791a.282.282 0 0 1 .253-.154.259.259 0 0 1 .253.154l2.54 6.79a.261.261 0 0 1-.138.33h-.092a.26.26 0 0 1-.238-.168l-.652-1.727Zm-3.146-.515h2.954l-1.473-3.928-1.481 3.928Zm8.977-.89a.242.242 0 0 1-.183-.066.234.234 0 0 1-.057-.082.26.26 0 0 1 .24-.358h2.302a.257.257 0 0 1 .163.087c.041.048.062.11.06.174v2.547a.287.287 0 0 1-.092.192 3.753 3.753 0 1 1-2.364-6.622c.864 0 1.702.293 2.379.829a.262.262 0 0 1 0 .353.269.269 0 0 1-.368.046 3.201 3.201 0 0 0-5.047 3.503 3.2 3.2 0 0 0 4.939 1.553v-2.156h-1.972Zm5.088-3.768a.251.251 0 0 1 .253-.253h3.767c.061.01.116.042.155.09a.26.26 0 0 1-.155.424h-3.506v2.893h3.069c.06.01.115.042.155.09a.258.258 0 0 1-.155.425h-3.069v2.884h3.506c.061.01.116.042.155.09a.26.26 0 0 1-.155.424h-3.79a.26.26 0 0 1-.23-.253v-6.814Zm9.867.813v5.993a.253.253 0 0 1-.055.207.26.26 0 0 1-.194.09.252.252 0 0 1-.249-.297V57.38a.235.235 0 0 1-.011-.188.23.23 0 0 1 .049-.084.247.247 0 0 1 .407.057l4.435 6.14v-5.97a.259.259 0 0 1 .257-.217.262.262 0 0 1 .257.216v6.745a.262.262 0 0 1-.261.253.233.233 0 0 1-.2-.1v-.038l-4.435-6.092Zm10.213-1.173a3.723 3.723 0 0 1 2.89 6.28 3.723 3.723 0 0 1-5.78-.478 3.719 3.719 0 0 1-.639-2.088 3.608 3.608 0 0 1 2.149-3.405 3.611 3.611 0 0 1 1.38-.31Zm0 6.906a3.2 3.2 0 1 0-3.023-3.2 3.123 3.123 0 0 0 3.023 3.207v-.007Zm6.998-6.285h-2.21a.264.264 0 0 1-.155-.089.264.264 0 0 1 0-.336.263.263 0 0 1 .155-.089h4.911a.26.26 0 0 1 0 .514h-2.202v6.553a.267.267 0 0 1-.019.097.266.266 0 0 1-.055.082.256.256 0 0 1-.275.055.251.251 0 0 1-.134-.138.262.262 0 0 1-.016-.096v-6.553Zm8.011-.261a.25.25 0 0 1 .069-.173.251.251 0 0 1 .169-.08h3.79c.061.01.116.042.155.09a.26.26 0 0 1-.155.424h-3.514v2.893h3.069a.264.264 0 0 1 .213.057.26.26 0 0 1 .068.31.26.26 0 0 1-.281.147h-3.069v3.146a.259.259 0 0 1-.257.216.26.26 0 0 1-.257-.216v-6.814Zm9.323-.36a3.723 3.723 0 0 1 3.863 4.325 3.721 3.721 0 0 1-7.393-.611 3.612 3.612 0 0 1 2.148-3.408 3.604 3.604 0 0 1 1.382-.306Zm0 6.906a3.198 3.198 0 0 0 2.16-5.403 3.198 3.198 0 0 0-2.16-.99 3.2 3.2 0 0 0 0 6.393Zm5.217-6.545a.263.263 0 0 1 .257-.217.26.26 0 0 1 .257.217v4.105a2.449 2.449 0 1 0 4.888 0v-4.105a.263.263 0 0 1 .257-.217.26.26 0 0 1 .257.217v4.105a2.96 2.96 0 0 1-4.126 2.872 2.967 2.967 0 0 1-1.609-1.693 2.96 2.96 0 0 1-.181-1.18v-4.104Zm8.878.812v5.994a.261.261 0 0 1-.253.253.256.256 0 0 1-.179-.074.25.25 0 0 1-.074-.18V57.38a.26.26 0 0 1 .092-.283.275.275 0 0 1 .361.069l4.427 6.138v-5.97a.262.262 0 0 1 .514 0v6.745a.26.26 0 0 1-.261.253.227.227 0 0 1-.199-.1l-.039-.038-4.389-6.092Zm7.274 6.254h-.046a.26.26 0 0 1-.23-.253v-6.814a.255.255 0 0 1 .253-.253h1.366a3.659 3.659 0 0 1 2.588 6.248 3.659 3.659 0 0 1-2.588 1.072H253.3Zm1.343-.514a3.148 3.148 0 0 0 2.907-4.35 3.147 3.147 0 0 0-2.907-1.942h-1.105v6.292h1.105Zm-90.059-27.285a3.915 3.915 0 0 1-3.983 3.913h-.706v5.371a3.913 3.913 0 1 1-7.826 0v-5.37H129.64a3.478 3.478 0 0 1-2.417-.86 3.788 3.788 0 0 1-1.363-4.124c.148-.493.395-.952.726-1.347l26.312-32.71c.069 0 .069-.078.138-.147a.912.912 0 0 0 .214-.283.671.671 0 0 0 .353-.215c.077-.07.215-.138.284-.215a.77.77 0 0 1 .43-.138c.069-.146.138-.215.284-.215.146 0 .215-.07.43-.138a.42.42 0 0 0 .284-.077h1.204c.11.062.236.089.361.077.069.069.284.069.422.138s.215.069.284.069c.114.102.235.196.36.284.139.077.208.146.353.215.01 0 .02.002.029.006.009.003.017.01.023.017a.064.064 0 0 1 .015.025.054.054 0 0 1 .002.028c.07 0 .215.07.215.139l.284.283c.069.07.146.215.215.284.107.11.202.231.284.361a.526.526 0 0 0 .146.284c.057.137.103.278.138.422 0 .069.069.215.069.284a.77.77 0 0 1 .077.43c0 .138.069.214.069.352v28.944h.706a3.963 3.963 0 0 1 3.693 2.4c.205.478.314.992.32 1.513ZM152.069 15.07l-14.18 17.572h14.149l.031-17.572Zm21.868 9.822c.069-6.546 1.704-12.446 4.834-16.996C181.756 3.346 186.383 0 192 0c5.471 0 10.167 3.345 13.152 7.896 2.984 4.55 4.765 10.45 4.765 16.996 0 6.545-1.704 12.445-4.765 16.996-3.062 4.55-7.674 7.895-13.152 7.895-5.617 0-10.244-3.414-13.229-7.895-3.13-4.55-4.765-10.528-4.834-16.996Zm28.084 0a23.653 23.653 0 0 0-3.407-12.661c-2.064-2.985-4.412-4.404-6.614-4.335-2.21-.07-4.604 1.35-6.76 4.335a23.657 23.657 0 0 0-3.415 12.66 23.358 23.358 0 0 0 3.415 12.584c2.133 3.07 4.55 4.413 6.76 4.413s4.55-1.35 6.614-4.413c2.064-3.061 3.407-7.535 3.407-12.583Zm51.318 11.663a3.918 3.918 0 0 1-3.99 3.913h-.706v5.371a3.913 3.913 0 1 1-7.827 0v-5.37h-22.398a3.474 3.474 0 0 1-2.424-.86 3.788 3.788 0 0 1-1.363-4.124c.148-.493.395-.952.726-1.347l26.311-32.71c.069 0 .069-.078.138-.147a.9.9 0 0 0 .215-.283.675.675 0 0 0 .353-.215c.077-.07.215-.138.284-.215a.768.768 0 0 1 .43-.138c.069-.146.138-.215.283-.215.146 0 .215-.07.43-.138a.414.414 0 0 0 .284-.077h1.205a.611.611 0 0 0 .36.077c.069.069.284.069.422.138a.548.548 0 0 0 .284.069c.146.146.284.215.353.284.069.069.215.146.361.215.01 0 .019.002.028.006.009.003.017.01.024.017a.077.077 0 0 1 .014.025.067.067 0 0 1 .003.028c.069 0 .215.07.215.139l.284.283c.069.07.146.215.215.284.107.11.202.231.283.361a.54.54 0 0 0 .146.284c.058.137.104.278.138.422 0 .069.069.215.069.284a.776.776 0 0 1 .07.43c0 .138.076.214.076.352v28.944h.706a3.967 3.967 0 0 1 3.998 3.913ZM240.816 15.07l-14.149 17.572h14.149V15.07ZM192.33 98.546a.383.383 0 0 1-.384-.384V87.366a.384.384 0 0 1 .768 0v10.796a.384.384 0 0 1-.384.384Zm-19.536 5.172a.395.395 0 0 1-.337-.192l-5.372-9.354a.389.389 0 0 1 0-.45.382.382 0 0 1 .66.067l5.371 9.353a.374.374 0 0 1-.138.522.362.362 0 0 1-.184.054Zm-5.617 76.976a.358.358 0 0 1-.357-.3.389.389 0 0 1 .066-.291l5.371-9.345a.387.387 0 0 1 .233-.18.38.38 0 0 1 .293.038.386.386 0 0 1 .142.525l-5.372 9.346a.384.384 0 0 1-.376.207Zm24.907 6.737a.384.384 0 0 1-.383-.383v-10.781a.382.382 0 0 1 .652-.269.389.389 0 0 1 .115.269v10.796a.382.382 0 0 1-.384.368Zm24.938-6.614a.384.384 0 0 1-.33-.192l-5.371-9.346a.374.374 0 0 1-.038-.292.383.383 0 0 1 .607-.204c.04.031.073.069.099.113l5.371 9.346a.372.372 0 0 1-.025.424.363.363 0 0 1-.113.097.363.363 0 0 1-.2.054Zm-5.187-76.977a.36.36 0 0 1-.192-.053.38.38 0 0 1-.138-.522l5.371-9.354a.383.383 0 0 1 .66.384l-5.371 9.354a.405.405 0 0 1-.33.191Z"/>
</svg>
