<svg xmlns="http://www.w3.org/2000/svg" width="330" height="321" fill="none" viewBox="0 0 330 321">
  <path stroke="#EBEBEB" stroke-miterlimit="10" stroke-width=".75" d="M294.494 20.571h20.484v-8.656h-20.484v8.656Zm11.433-10.915h20.484V1h-20.484v8.656ZM165 105.764h20.484v-8.656H165v8.656Zm11.424-10.915h20.484v-8.657h-20.484v8.657Zm11.38 10.915h20.484v-8.656h-20.484v8.656ZM3.587 9.656h20.484V1H3.587v8.656Zm11.433 203.54h20.485v-8.656H15.02v8.656ZM3.587 202.281h20.484v-8.656H3.587v8.656Zm290.907 10.915h20.484v-8.656h-20.484v8.656Z"/>
  <path stroke="#EBEBEB" stroke-miterlimit="10" d="M133.145 290.94v-97.206l20.677-28.227v-52.858"/>
  <path stroke="#EBEBEB" stroke-miterlimit="10" d="M151.988 110.846a1.84 1.84 0 1 0 1.834-1.841 1.835 1.835 0 0 0-1.834 1.841ZM138.474 290.94v-93.795l20.677-28.227v-36.93"/>
  <path stroke="#EBEBEB" stroke-miterlimit="10" d="M157.31 130.177a1.84 1.84 0 1 0 3.68.015 1.84 1.84 0 0 0-3.68-.015Zm-29.294 160.762V162.21m-1.841-1.841a1.837 1.837 0 0 0 1.131 1.707 1.846 1.846 0 0 0 2.009-.394 1.843 1.843 0 0 0-.275-2.835 1.84 1.84 0 0 0-2.865 1.522Zm-3.103 130.571v-65.428l-14.032-26.471v-47.474"/>
  <path stroke="#EBEBEB" stroke-miterlimit="10" d="M107.199 149.733a1.838 1.838 0 0 0 1.137 1.701 1.841 1.841 0 1 0-1.137-1.701Zm10.961 141.206v-62.597l-16.547-29.272v-31.259"/>
  <path stroke="#EBEBEB" stroke-miterlimit="10" d="M99.773 165.978a1.842 1.842 0 1 0 1.842-1.833 1.847 1.847 0 0 0-1.841 1.833Z"/>
  <path fill="#EBEBEB" d="M113.782 321c45.461 0 82.315-5.884 82.315-13.143 0-7.258-36.854-13.143-82.315-13.143-45.462 0-82.315 5.885-82.315 13.143 0 7.259 36.853 13.143 82.315 13.143Z"/>
  <path fill="#37474F" d="M228.735 101.323h-50.297v189.655h50.297V101.323Z"/>
  <path fill="#455A64" d="M321.299 101.323h-92.565v189.655h92.565V101.323Z"/>
  <path fill="#37474F" d="M315.52 266.379h-79.839v18.442h79.839v-18.442Z"/>
  <path fill="#455A64" d="M284.484 269.427h-45.446v1.555h45.446v-1.555Zm0 2.699h-45.446v1.555h45.446v-1.555Zm0 2.699h-45.446v1.555h45.446v-1.555Zm0 2.693h-45.446v1.555h45.446v-1.555Zm0 2.7h-45.446v1.555h45.446v-1.555Z"/>
  <path fill="#65BEDC" d="M292.77 270.974a1.545 1.545 0 0 1-.955 1.429 1.546 1.546 0 1 1 .955-1.429Zm5.09 0a1.545 1.545 0 0 1-.955 1.429 1.546 1.546 0 1 1 .955-1.429Zm5.09 0a1.545 1.545 0 0 1-.955 1.429 1.546 1.546 0 1 1 .955-1.429Zm5.082 0a1.545 1.545 0 0 1-.955 1.429 1.546 1.546 0 1 1 .955-1.429Zm5.09 0a1.545 1.545 0 0 1-.955 1.429 1.546 1.546 0 1 1 .955-1.429ZM292.77 275.6a1.55 1.55 0 0 1-1.849 1.518 1.544 1.544 0 0 1-1.215-1.216 1.55 1.55 0 0 1 1.517-1.849 1.548 1.548 0 0 1 1.547 1.547Zm5.09 0a1.55 1.55 0 0 1-1.849 1.518 1.544 1.544 0 0 1-1.216-1.216c-.059-.3-.029-.611.088-.894a1.55 1.55 0 0 1 2.524-.502c.29.291.453.684.453 1.094Zm5.09 0a1.55 1.55 0 0 1-1.849 1.518 1.544 1.544 0 0 1-1.216-1.216 1.552 1.552 0 0 1 1.518-1.849 1.55 1.55 0 0 1 1.547 1.547Zm5.082 0a1.55 1.55 0 0 1-1.849 1.518 1.544 1.544 0 0 1-1.216-1.216 1.552 1.552 0 0 1 1.518-1.849 1.55 1.55 0 0 1 1.547 1.547Zm5.09 0a1.55 1.55 0 0 1-1.849 1.518 1.544 1.544 0 0 1-1.215-1.216 1.55 1.55 0 0 1 1.517-1.849 1.548 1.548 0 0 1 1.547 1.547Zm-21.893 6.181a1.547 1.547 0 1 0 0-3.094 1.547 1.547 0 0 0 0 3.094Zm6.631-1.547a1.545 1.545 0 0 1-.955 1.429 1.546 1.546 0 1 1 .955-1.429Zm3.543 1.547a1.547 1.547 0 1 0-.001-3.095 1.547 1.547 0 0 0 .001 3.095Zm6.629-1.547a1.545 1.545 0 0 1-.955 1.429 1.546 1.546 0 1 1 .955-1.429Zm5.09 0a1.545 1.545 0 0 1-.955 1.429 1.546 1.546 0 1 1 .955-1.429Z"/>
  <path fill="#263238" d="M287.648 269.427h-.889v12.346h.889v-12.346Z"/>
  <path fill="#37474F" d="M315.52 244.161h-79.839v18.442h79.839v-18.442Z"/>
  <path fill="#455A64" d="M284.484 247.202h-45.446v1.555h45.446v-1.555Zm0 2.7h-45.446v1.555h45.446v-1.555Zm0 2.7h-45.446v1.554h45.446v-1.554Zm0 2.699h-45.446v1.555h45.446v-1.555Zm0 2.692h-45.446v1.555h45.446v-1.555Z"/>
  <path fill="#65BEDC" d="M292.77 248.749a1.55 1.55 0 0 1-1.849 1.518 1.544 1.544 0 0 1-1.215-1.216 1.55 1.55 0 0 1 1.517-1.849 1.548 1.548 0 0 1 1.547 1.547Zm5.09 0a1.55 1.55 0 0 1-1.849 1.518 1.544 1.544 0 0 1-1.216-1.216c-.059-.3-.029-.611.088-.894a1.55 1.55 0 0 1 2.524-.502c.29.29.453.684.453 1.094Zm5.09 0a1.55 1.55 0 0 1-1.849 1.518 1.544 1.544 0 0 1-1.216-1.216 1.552 1.552 0 0 1 1.518-1.849 1.55 1.55 0 0 1 1.547 1.547Zm5.082 0a1.55 1.55 0 0 1-1.849 1.518 1.544 1.544 0 0 1-1.216-1.216 1.552 1.552 0 0 1 1.518-1.849 1.55 1.55 0 0 1 1.547 1.547Zm5.09 0a1.55 1.55 0 0 1-1.849 1.518 1.544 1.544 0 0 1-1.215-1.216 1.55 1.55 0 0 1 1.517-1.849 1.548 1.548 0 0 1 1.547 1.547Zm-20.352 4.641a1.548 1.548 0 1 1-3.096 0 1.548 1.548 0 0 1 3.096 0Zm5.09 0a1.548 1.548 0 1 1-3.096 0 1.548 1.548 0 0 1 3.096 0Zm5.09 0a1.548 1.548 0 1 1-3.096 0 1.548 1.548 0 0 1 3.096 0Zm5.082 0a1.548 1.548 0 1 1-3.096 0 1.548 1.548 0 0 1 3.096 0Zm5.09 0a1.548 1.548 0 1 1-3.096 0 1.548 1.548 0 0 1 3.096 0Zm-20.352 4.642a1.547 1.547 0 1 1-3.094-.002 1.547 1.547 0 0 1 3.094.002Zm5.09 0a1.547 1.547 0 1 1-3.094-.002 1.547 1.547 0 0 1 3.094.002Zm5.09 0a1.547 1.547 0 1 1-3.094-.002 1.547 1.547 0 0 1 3.094.002Zm5.082 0a1.547 1.547 0 1 1-3.094-.002 1.547 1.547 0 0 1 3.094.002Zm5.09 0a1.547 1.547 0 1 1-3.094-.002 1.547 1.547 0 0 1 3.094.002Z"/>
  <path fill="#263238" d="M287.648 247.202h-.889v12.346h.889v-12.346Z"/>
  <path fill="#37474F" d="M315.52 221.938h-79.839v18.441h79.839v-18.441Z"/>
  <path fill="#455A64" d="M284.484 224.985h-45.446v1.555h45.446v-1.555Zm0 2.692h-45.446v1.555h45.446v-1.555Zm0 2.699h-45.446v1.555h45.446v-1.555Zm0 2.701h-45.446v1.555h45.446v-1.555Zm0 2.699h-45.446v1.555h45.446v-1.555Z"/>
  <path fill="#65BEDC" d="M291.229 228.072a1.547 1.547 0 1 0 0-3.094 1.547 1.547 0 0 0 0 3.094Zm6.631-1.547a1.545 1.545 0 0 1-.955 1.429 1.546 1.546 0 1 1 .955-1.429Zm3.543 1.547a1.547 1.547 0 1 0-.001-3.095 1.547 1.547 0 0 0 .001 3.095Zm6.629-1.547a1.545 1.545 0 0 1-.955 1.429 1.546 1.546 0 1 1 .955-1.429Zm5.09 0a1.545 1.545 0 0 1-.955 1.429 1.546 1.546 0 1 1 .955-1.429Zm-20.352 4.632a1.548 1.548 0 1 1-3.096 0 1.548 1.548 0 0 1 3.096 0Zm5.09 0a1.548 1.548 0 1 1-3.096 0 1.548 1.548 0 0 1 3.096 0Zm5.09 0a1.548 1.548 0 1 1-3.096 0 1.548 1.548 0 0 1 3.096 0Zm5.082 0a1.548 1.548 0 1 1-3.096 0 1.548 1.548 0 0 1 3.096 0Zm5.09 0a1.548 1.548 0 1 1-3.096 0 1.548 1.548 0 0 1 3.096 0Zm-20.352 4.627a1.548 1.548 0 1 1-3.096 0 1.548 1.548 0 0 1 3.096 0Zm5.09 0a1.548 1.548 0 1 1-3.096 0 1.548 1.548 0 0 1 3.096 0Zm5.09 0a1.548 1.548 0 1 1-3.096 0 1.548 1.548 0 0 1 3.096 0Zm5.082 0a1.548 1.548 0 1 1-3.096 0 1.548 1.548 0 0 1 3.096 0Zm5.09 0a1.548 1.548 0 1 1-3.096 0 1.548 1.548 0 0 1 3.096 0Z"/>
  <path fill="#263238" d="M287.648 224.985h-.889v12.346h.889v-12.346Z"/>
  <path fill="#37474F" d="M315.52 199.713h-79.839v18.442h79.839v-18.442Z"/>
  <path fill="#455A64" d="M284.484 202.761h-45.446v1.555h45.446v-1.555Zm0 2.692h-45.446v1.555h45.446v-1.555Zm0 2.699h-45.446v1.555h45.446v-1.555Zm0 2.701h-45.446v1.554h45.446v-1.554Zm0 2.699h-45.446v1.555h45.446v-1.555Z"/>
  <path fill="#65BEDC" d="M292.77 204.301a1.545 1.545 0 0 1-.955 1.429 1.546 1.546 0 0 1-1.452-2.716 1.55 1.55 0 0 1 1.954.193c.29.29.453.683.453 1.094Zm5.09 0a1.545 1.545 0 0 1-.955 1.429 1.546 1.546 0 0 1-1.452-2.716 1.55 1.55 0 0 1 1.954.193c.29.29.453.683.453 1.094Zm5.09 0a1.545 1.545 0 0 1-.955 1.429 1.546 1.546 0 0 1-1.452-2.716 1.548 1.548 0 0 1 2.407 1.287Zm5.082 0a1.545 1.545 0 0 1-.955 1.429 1.546 1.546 0 0 1-1.452-2.716 1.55 1.55 0 0 1 1.954.193c.29.29.453.683.453 1.094Zm5.09 0a1.545 1.545 0 0 1-.955 1.429 1.546 1.546 0 0 1-1.452-2.716 1.55 1.55 0 0 1 1.954.193c.29.29.453.683.453 1.094Zm-21.893 6.179a1.546 1.546 0 1 0 .002-3.092 1.546 1.546 0 0 0-.002 3.092Zm6.631-1.547a1.55 1.55 0 0 1-1.849 1.518 1.544 1.544 0 0 1-1.216-1.216c-.059-.3-.029-.611.088-.894a1.55 1.55 0 0 1 2.524-.502c.29.291.453.684.453 1.094Zm3.543 1.547a1.547 1.547 0 1 0 0-3.094 1.547 1.547 0 0 0 0 3.094Zm6.629-1.547a1.55 1.55 0 0 1-1.849 1.518 1.544 1.544 0 0 1-1.216-1.216 1.552 1.552 0 0 1 1.518-1.849 1.55 1.55 0 0 1 1.547 1.547Zm5.09 0a1.55 1.55 0 0 1-1.849 1.518 1.544 1.544 0 0 1-1.215-1.216 1.55 1.55 0 0 1 1.517-1.849 1.548 1.548 0 0 1 1.547 1.547Zm-21.893 6.173a1.547 1.547 0 1 0 0-3.094 1.547 1.547 0 0 0 0 3.094Zm6.631-1.547a1.545 1.545 0 0 1-.955 1.429 1.546 1.546 0 1 1 .955-1.429Zm3.543 1.547a1.547 1.547 0 1 0-.001-3.095 1.547 1.547 0 0 0 .001 3.095Zm6.629-1.547a1.545 1.545 0 0 1-.955 1.429 1.546 1.546 0 1 1 .955-1.429Zm5.09 0a1.545 1.545 0 0 1-.955 1.429 1.546 1.546 0 1 1 .955-1.429Z"/>
  <path fill="#263238" d="M287.648 202.761h-.889v12.346h.889v-12.346Z"/>
  <path fill="#37474F" d="M315.52 177.488h-79.839v18.442h79.839v-18.442Z"/>
  <path fill="#455A64" d="M284.484 180.536h-45.446v1.555h45.446v-1.555Zm0 2.699h-45.446v1.555h45.446v-1.555Zm0 2.693h-45.446v1.555h45.446v-1.555Zm0 2.699h-45.446v1.555h45.446v-1.555Zm0 2.7h-45.446v1.555h45.446v-1.555Z"/>
  <path fill="#65BEDC" d="M291.229 183.63a1.546 1.546 0 1 0 .002-3.092 1.546 1.546 0 0 0-.002 3.092Zm6.631-1.547a1.55 1.55 0 0 1-1.849 1.518 1.544 1.544 0 0 1-1.216-1.216c-.059-.3-.029-.611.088-.894a1.554 1.554 0 0 1 1.43-.955 1.548 1.548 0 0 1 1.547 1.547Zm3.543 1.547a1.547 1.547 0 1 0 0-3.094 1.547 1.547 0 0 0 0 3.094Zm6.629-1.547a1.55 1.55 0 0 1-1.849 1.518 1.544 1.544 0 0 1-1.216-1.216 1.547 1.547 0 1 1 3.065-.302Zm5.09 0a1.55 1.55 0 0 1-1.849 1.518 1.544 1.544 0 0 1-1.215-1.216 1.545 1.545 0 0 1 2.611-1.396c.29.29.453.684.453 1.094Zm-21.893 6.174a1.547 1.547 0 1 0 0-3.094 1.547 1.547 0 0 0 0 3.094Zm6.631-1.547a1.545 1.545 0 0 1-.955 1.429 1.546 1.546 0 1 1 .955-1.429Zm3.543 1.547a1.547 1.547 0 1 0-.001-3.095 1.547 1.547 0 0 0 .001 3.095Zm6.629-1.547a1.545 1.545 0 0 1-.955 1.429 1.546 1.546 0 1 1 .955-1.429Zm5.09 0a1.545 1.545 0 0 1-.955 1.429 1.546 1.546 0 1 1 .955-1.429Zm-20.352 4.633a1.55 1.55 0 0 1-.955 1.429 1.546 1.546 0 1 1 .955-1.429Zm5.09 0a1.55 1.55 0 0 1-.955 1.429 1.546 1.546 0 1 1 .955-1.429Zm5.09 0a1.55 1.55 0 0 1-.955 1.429 1.546 1.546 0 1 1 .955-1.429Zm5.082 0a1.55 1.55 0 0 1-.955 1.429 1.546 1.546 0 1 1 .955-1.429Zm5.09 0a1.55 1.55 0 0 1-.955 1.429 1.546 1.546 0 1 1 .955-1.429Z"/>
  <path fill="#263238" d="M287.648 180.536h-.889v12.346h.889v-12.346Z"/>
  <path fill="#37474F" d="M315.52 155.264h-79.839v18.442h79.839v-18.442Z"/>
  <path fill="#455A64" d="M284.484 158.312h-45.446v1.555h45.446v-1.555Zm0 2.7h-45.446v1.555h45.446v-1.555Zm0 2.699h-45.446v1.555h45.446v-1.555Zm0 2.692h-45.446v1.555h45.446v-1.555Zm0 2.7h-45.446v1.554h45.446v-1.554Z"/>
  <path fill="#65BEDC" d="M292.77 159.859a1.55 1.55 0 0 1-1.849 1.518 1.552 1.552 0 0 1-1.215-1.216 1.545 1.545 0 0 1 2.611-1.396c.29.29.453.684.453 1.094Zm5.09 0a1.55 1.55 0 0 1-1.849 1.518 1.552 1.552 0 0 1-1.128-2.11 1.554 1.554 0 0 1 1.43-.955 1.548 1.548 0 0 1 1.547 1.547Zm5.09 0a1.55 1.55 0 0 1-1.849 1.518 1.552 1.552 0 0 1-1.128-2.11 1.547 1.547 0 0 1 2.977.592Zm5.082 0a1.55 1.55 0 0 1-1.849 1.518 1.552 1.552 0 0 1-1.128-2.11 1.547 1.547 0 0 1 2.977.592Zm5.09 0a1.55 1.55 0 0 1-1.849 1.518 1.552 1.552 0 0 1-1.215-1.216 1.545 1.545 0 0 1 2.611-1.396c.29.29.453.684.453 1.094Zm-20.352 4.626a1.545 1.545 0 0 1-.955 1.429 1.546 1.546 0 1 1 .955-1.429Zm5.09 0a1.545 1.545 0 0 1-.955 1.429 1.546 1.546 0 1 1 .955-1.429Zm5.09 0a1.545 1.545 0 0 1-.955 1.429 1.546 1.546 0 1 1 .955-1.429Zm5.082 0a1.545 1.545 0 0 1-.955 1.429 1.546 1.546 0 1 1 .955-1.429Zm5.09 0a1.545 1.545 0 0 1-.955 1.429 1.546 1.546 0 1 1 .955-1.429Zm-20.352 4.633a1.548 1.548 0 1 1-3.096 0 1.548 1.548 0 0 1 3.096 0Zm5.09 0a1.548 1.548 0 1 1-3.096 0 1.548 1.548 0 0 1 3.096 0Zm5.09 0a1.548 1.548 0 1 1-3.096 0 1.548 1.548 0 0 1 3.096 0Zm5.082 0a1.548 1.548 0 1 1-3.096 0 1.548 1.548 0 0 1 3.096 0Zm5.09 0a1.548 1.548 0 1 1-3.096 0 1.548 1.548 0 0 1 3.096 0Z"/>
  <path fill="#263238" d="M287.648 158.312h-.889v12.346h.889v-12.346Z"/>
  <path fill="#37474F" d="M315.52 133.047h-79.839v18.442h79.839v-18.442Z"/>
  <path fill="#455A64" d="M284.484 136.087h-45.446v1.555h45.446v-1.555Zm0 2.699h-45.446v1.555h45.446v-1.555Zm0 2.701h-45.446v1.555h45.446v-1.555Zm0 2.7h-45.446v1.555h45.446v-1.555Zm0 2.691h-45.446v1.555h45.446v-1.555Z"/>
  <path fill="#65BEDC" d="M292.77 137.634a1.55 1.55 0 0 1-.955 1.429 1.543 1.543 0 0 1-2.109-1.127 1.545 1.545 0 0 1 2.611-1.396c.29.29.453.684.453 1.094Zm5.09 0a1.55 1.55 0 0 1-.955 1.429 1.543 1.543 0 0 1-2.11-1.127c-.059-.3-.029-.611.088-.894a1.554 1.554 0 0 1 1.43-.955 1.548 1.548 0 0 1 1.547 1.547Zm5.09 0a1.55 1.55 0 0 1-.955 1.429 1.543 1.543 0 0 1-2.11-1.127 1.547 1.547 0 1 1 3.065-.302Zm5.082 0a1.55 1.55 0 0 1-.955 1.429 1.543 1.543 0 0 1-2.11-1.127 1.547 1.547 0 1 1 3.065-.302Zm5.09 0a1.55 1.55 0 0 1-.955 1.429 1.543 1.543 0 0 1-2.109-1.127 1.545 1.545 0 0 1 2.611-1.396c.29.29.453.684.453 1.094Zm-20.352 4.634a1.55 1.55 0 0 1-1.849 1.518 1.544 1.544 0 0 1-1.215-1.216 1.55 1.55 0 0 1 1.517-1.849 1.548 1.548 0 0 1 1.547 1.547Zm5.09 0a1.55 1.55 0 0 1-1.849 1.518 1.544 1.544 0 0 1-1.216-1.216c-.059-.3-.029-.611.088-.894a1.55 1.55 0 0 1 2.524-.502c.29.29.453.684.453 1.094Zm5.09 0a1.55 1.55 0 0 1-1.849 1.518 1.544 1.544 0 0 1-1.216-1.216 1.552 1.552 0 0 1 1.518-1.849 1.55 1.55 0 0 1 1.547 1.547Zm5.082 0a1.55 1.55 0 0 1-1.849 1.518 1.544 1.544 0 0 1-1.216-1.216 1.552 1.552 0 0 1 1.518-1.849 1.55 1.55 0 0 1 1.547 1.547Zm5.09 0a1.55 1.55 0 0 1-1.849 1.518 1.544 1.544 0 0 1-1.215-1.216 1.55 1.55 0 0 1 1.517-1.849 1.548 1.548 0 0 1 1.547 1.547Zm-20.352 4.626a1.55 1.55 0 0 1-1.849 1.518 1.544 1.544 0 0 1-1.215-1.216 1.55 1.55 0 0 1 1.517-1.849 1.548 1.548 0 0 1 1.547 1.547Zm5.09 0a1.55 1.55 0 0 1-1.849 1.518 1.544 1.544 0 0 1-1.216-1.216c-.059-.3-.029-.611.088-.894a1.55 1.55 0 0 1 2.524-.502c.29.29.453.684.453 1.094Zm5.09 0a1.55 1.55 0 0 1-1.849 1.518 1.544 1.544 0 0 1-1.216-1.216 1.552 1.552 0 0 1 1.518-1.849 1.55 1.55 0 0 1 1.547 1.547Zm5.082 0a1.55 1.55 0 0 1-1.849 1.518 1.544 1.544 0 0 1-1.216-1.216 1.552 1.552 0 0 1 1.518-1.849 1.55 1.55 0 0 1 1.547 1.547Zm5.09 0a1.55 1.55 0 0 1-1.849 1.518 1.544 1.544 0 0 1-1.215-1.216 1.55 1.55 0 0 1 1.517-1.849 1.548 1.548 0 0 1 1.547 1.547Z"/>
  <path fill="#263238" d="M287.648 136.087h-.889v12.346h.889v-12.346Z"/>
  <path fill="#37474F" d="M315.52 110.823h-79.839v18.442h79.839v-18.442Z"/>
  <path fill="#455A64" d="M284.484 113.87h-45.446v1.555h45.446v-1.555Zm0 2.692h-45.446v1.555h45.446v-1.555Zm0 2.701h-45.446v1.555h45.446v-1.555Zm0 2.699h-45.446v1.555h45.446v-1.555Zm0 2.699h-45.446v1.555h45.446v-1.555Z"/>
  <path fill="#65BEDC" d="M292.77 115.41a1.545 1.545 0 0 1-.955 1.429 1.546 1.546 0 1 1 .955-1.429Zm5.09 0a1.545 1.545 0 0 1-.955 1.429 1.546 1.546 0 1 1 .955-1.429Zm5.09 0a1.545 1.545 0 0 1-.955 1.429 1.546 1.546 0 1 1 .955-1.429Zm5.082 0a1.545 1.545 0 0 1-.955 1.429 1.546 1.546 0 1 1 .955-1.429Zm5.09 0a1.545 1.545 0 0 1-.955 1.429 1.546 1.546 0 1 1 .955-1.429Zm-21.893 6.181a1.546 1.546 0 1 0 .002-3.092 1.546 1.546 0 0 0-.002 3.092Zm6.631-1.547a1.55 1.55 0 0 1-1.849 1.518 1.544 1.544 0 0 1-1.216-1.216c-.059-.3-.029-.611.088-.894a1.554 1.554 0 0 1 1.43-.955 1.548 1.548 0 0 1 1.547 1.547Zm3.543 1.547a1.547 1.547 0 1 0 0-3.094 1.547 1.547 0 0 0 0 3.094Zm6.629-1.547a1.55 1.55 0 0 1-1.849 1.518 1.544 1.544 0 0 1-1.216-1.216 1.547 1.547 0 1 1 3.065-.302Zm5.09 0a1.55 1.55 0 0 1-1.849 1.518 1.544 1.544 0 0 1-1.215-1.216 1.545 1.545 0 0 1 2.611-1.396c.29.29.453.684.453 1.094Zm-20.352 4.625a1.55 1.55 0 0 1-1.849 1.518 1.544 1.544 0 0 1-1.215-1.216 1.545 1.545 0 0 1 2.611-1.396c.29.29.453.684.453 1.094Zm5.09 0a1.55 1.55 0 0 1-1.849 1.518 1.544 1.544 0 0 1-1.216-1.216c-.059-.3-.029-.611.088-.894a1.554 1.554 0 0 1 1.43-.955 1.548 1.548 0 0 1 1.547 1.547Zm5.09 0a1.55 1.55 0 0 1-1.849 1.518 1.544 1.544 0 0 1-1.216-1.216 1.547 1.547 0 1 1 3.065-.302Zm5.082 0a1.55 1.55 0 0 1-1.849 1.518 1.544 1.544 0 0 1-1.216-1.216 1.547 1.547 0 1 1 3.065-.302Zm5.09 0a1.55 1.55 0 0 1-1.849 1.518 1.544 1.544 0 0 1-1.215-1.216 1.545 1.545 0 0 1 2.611-1.396c.29.29.453.684.453 1.094Z"/>
  <path fill="#263238" d="M287.648 113.87h-.889v12.346h.889V113.87Z"/>
  <path fill="#37474F" d="M302.493 95.475H197.25v5.848h105.243v-5.848Z"/>
  <path fill="#263238" d="M198.302 261.954h-11.75v11.751h11.75v-11.751ZM20.344 140.218v-11.131H22.1v11.131h-1.756Zm6.026-7.836v7.836h-1.756v-11.131h1.377l6.366 8.03v-8.015h1.772v11.116h-1.455l-6.304-7.836Zm18.434-1.74h-3.698v9.577h-1.771v-9.577h-3.713v-1.547h9.182v1.547Zm9.128 8.029v1.547h-7.635v-11.131h7.496v1.547h-5.74v3.164h4.974v1.462h-4.974v3.404l5.879.007Zm1.818 1.548v-11.132h4.82c.48-.003.953.105 1.384.317.414.199.785.478 1.09.82.305.342.546.735.712 1.16a3.548 3.548 0 0 1 .1 2.406 3.49 3.49 0 0 1-.44.959 2.93 2.93 0 0 1-.688.774 2.677 2.677 0 0 1-.89.48l2.615 4.231h-1.989l-2.413-3.868h-2.576v3.868l-1.725-.015Zm1.756-5.415H60.6c.237.002.47-.054.681-.163.206-.113.385-.268.526-.456.14-.214.245-.449.31-.696.082-.25.124-.511.123-.774a2.154 2.154 0 0 0-.147-.774 2.503 2.503 0 0 0-.387-.657 1.975 1.975 0 0 0-.564-.449 1.485 1.485 0 0 0-.673-.162h-2.994l.031 4.131Zm10.364-2.422v7.836h-1.755v-11.131h1.415l6.367 8.03v-8.015h1.771v11.116h-1.454l-6.343-7.836Zm13.584-3.295h1.547l4.394 11.131H85.54l-1.176-3.024H80.07l-1.16 3.024h-1.865l4.41-11.131Zm2.56 6.807-1.786-4.78-1.849 4.78h3.636Zm4.713 4.324v-11.131h1.756v9.584h5.971v1.547h-7.727Zm19.192-8.508a2.5 2.5 0 0 0-.456-.371 3.882 3.882 0 0 0-.697-.364 5.12 5.12 0 0 0-.881-.286 4.503 4.503 0 0 0-.975-.108 2.622 2.622 0 0 0-1.64.41 1.35 1.35 0 0 0-.526 1.129c-.009.233.047.463.162.665.133.188.308.342.511.449.274.149.565.266.866.348.341.098.743.206 1.207.325a13.41 13.41 0 0 1 1.547.449c.413.145.801.351 1.153.611.308.238.559.542.735.889.181.401.268.837.255 1.277a3.188 3.188 0 0 1-.317 1.462c-.21.396-.513.736-.882.99a3.69 3.69 0 0 1-1.292.565 6.519 6.519 0 0 1-1.586.185 7.945 7.945 0 0 1-2.452-.386 7.018 7.018 0 0 1-2.143-1.122l.774-1.547c.176.176.373.33.588.456.28.184.578.34.889.464.36.147.73.268 1.107.364.404.1.82.149 1.237.147a3.003 3.003 0 0 0 1.602-.364 1.173 1.173 0 0 0 .564-1.067 1.122 1.122 0 0 0-.216-.704 1.89 1.89 0 0 0-.604-.495 5.418 5.418 0 0 0-.951-.379c-.379-.116-.774-.24-1.284-.364a13.017 13.017 0 0 1-1.455-.464 3.624 3.624 0 0 1-1.028-.588 2.312 2.312 0 0 1-.619-.773 2.7 2.7 0 0 1-.209-1.122c-.011-.5.095-.995.309-1.447a3.05 3.05 0 0 1 .859-1.067 3.683 3.683 0 0 1 1.276-.65 5.6 5.6 0 0 1 1.602-.224 5.857 5.857 0 0 1 2.08.363 6.76 6.76 0 0 1 1.679.89l-.789 1.454Zm10.667 6.961v1.547h-7.635v-11.131h7.496v1.547h-5.74v3.164h4.974v1.462h-4.974v3.404l5.879.007Zm1.779 1.548v-11.132h4.85c.48-.003.954.105 1.385.317.414.199.784.478 1.09.82.304.342.545.735.712 1.16.167.424.248.876.24 1.331.001.365-.054.727-.163 1.075a3.701 3.701 0 0 1-.433.959c-.184.297-.42.559-.696.774a2.669 2.669 0 0 1-.89.48l2.615 4.231h-1.98l-2.414-3.868h-2.576v3.868l-1.74-.015Zm1.756-5.415h3.094c.237.003.471-.053.681-.163.206-.113.385-.268.526-.456.151-.201.266-.426.34-.666a2.48 2.48 0 0 0 .132-.773 2.166 2.166 0 0 0-.155-.774 2.327 2.327 0 0 0-.387-.657 1.953 1.953 0 0 0-.565-.449 1.477 1.477 0 0 0-.665-.162h-2.986l-.015 4.1Zm9.05-5.717 3.357 8.927 3.342-8.927h1.864l-4.455 11.131h-1.547l-4.464-11.131h1.903Zm17.583 9.584v1.547h-7.658v-11.131h7.496v1.547h-5.74v3.164h4.974v1.462h-4.974v3.404l5.902.007Zm1.795 1.548v-11.132h4.851c.479-.003.954.105 1.384.317.414.199.785.478 1.091.82.304.342.545.735.712 1.16a3.561 3.561 0 0 1 .1 2.406 3.701 3.701 0 0 1-.433.959 3.095 3.095 0 0 1-.696.774 2.688 2.688 0 0 1-.89.48l2.615 4.231h-2.019l-2.414-3.868h-2.576v3.868l-1.725-.015Zm1.756-5.415h3.095c.236.002.47-.054.68-.163.206-.113.386-.268.526-.456a2.442 2.442 0 0 0 .464-1.439 2.137 2.137 0 0 0-.147-.774 2.484 2.484 0 0 0-.386-.657 1.967 1.967 0 0 0-.565-.449 1.484 1.484 0 0 0-.673-.162h-2.978l-.016 4.1Zm-78.525 20.26v2.259h-7.797v-11.132h7.69v2.259h-5.114v2.158h4.386v2.089h-4.386v2.367h5.221Zm1.572 2.258v-11.131h5.012a3.284 3.284 0 0 1 1.455.324c.447.223.848.527 1.183.898.325.355.586.763.774 1.207.179.431.271.894.27 1.361a3.865 3.865 0 0 1-.48 1.895 3.543 3.543 0 0 1-.572.774 3.31 3.31 0 0 1-.773.572l2.444 4.139h-2.9l-2.128-3.59H77.96v3.59l-2.607-.039Zm2.568-5.833h2.32a.967.967 0 0 0 .774-.433c.234-.32.351-.71.333-1.106a1.547 1.547 0 0 0-.38-1.098 1.08 1.08 0 0 0-.773-.403H77.92v3.04Zm7.936 5.833v-11.131h5.013c.503-.005 1 .106 1.454.324a4.07 4.07 0 0 1 1.926 2.074c.182.431.277.893.28 1.361a3.913 3.913 0 0 1-.132.998 3.949 3.949 0 0 1-.356.897 3.543 3.543 0 0 1-.573.774 3.31 3.31 0 0 1-.773.572l2.452 4.139h-2.9l-2.136-3.589h-1.694v3.589l-2.56-.008Zm2.569-5.833h2.32a.967.967 0 0 0 .774-.433c.233-.32.35-.71.333-1.106a1.547 1.547 0 0 0-.38-1.098 1.09 1.09 0 0 0-.812-.403h-2.243l.008 3.04Zm12.81 5.926a5.167 5.167 0 0 1-2.258-.488 5.57 5.57 0 0 1-1.741-1.276 5.888 5.888 0 0 1-1.122-1.81 5.774 5.774 0 0 1-.394-2.104 5.652 5.652 0 0 1 3.334-5.152 5.422 5.422 0 0 1 2.228-.457 5.274 5.274 0 0 1 2.259.48c.66.311 1.251.75 1.74 1.292.48.532.857 1.148 1.114 1.818a5.68 5.68 0 0 1 .394 2.065 5.53 5.53 0 0 1-.417 2.12 5.802 5.802 0 0 1-1.153 1.794 5.605 5.605 0 0 1-1.756 1.246 5.218 5.218 0 0 1-2.228.472Zm-2.9-5.647c-.001.424.061.847.185 1.253.123.385.311.746.557 1.067.248.321.562.585.92.774.39.191.82.287 1.254.278a2.635 2.635 0 0 0 2.197-1.075c.242-.326.425-.693.541-1.083.117-.4.177-.814.178-1.23a4.201 4.201 0 0 0-.186-1.245 3.207 3.207 0 0 0-.564-1.068 2.858 2.858 0 0 0-.921-.735 2.999 2.999 0 0 0-2.522 0 2.9 2.9 0 0 0-.912.774 3.455 3.455 0 0 0-.55 1.075 4.42 4.42 0 0 0-.178 1.215Zm9.939 5.554v-11.131h5.021c.501-.005.996.106 1.446.324.436.214.827.508 1.153.867.327.354.589.762.774 1.207.175.432.267.894.27 1.361a3.86 3.86 0 0 1-.123.998 4.02 4.02 0 0 1-.364.897 3.316 3.316 0 0 1-.572.774 3.44 3.44 0 0 1-.774.572l2.444 4.139h-2.9l-2.135-3.589h-1.664v3.589l-2.576-.008Zm2.576-5.833h2.321a.964.964 0 0 0 .774-.433 1.8 1.8 0 0 0 .332-1.106 1.59 1.59 0 0 0-.379-1.098 1.093 1.093 0 0 0-.363-.288 1.13 1.13 0 0 0-.449-.115h-2.236v3.04Z"/>
  <path fill="#65BEDC" d="M35.597 52.48v17.181a11.642 11.642 0 0 1 5.06-3.96 10.615 10.615 0 0 1 4.038-.704c5.29 0 9.197 1.851 11.72 5.554 2.175 3.197 3.264 7.712 3.264 13.545v17.243c0 5.92-1.875 10.776-5.624 14.566a18.131 18.131 0 0 1-13.538 5.492 17.023 17.023 0 0 1-13.15-5.747 19.116 19.116 0 0 1-5.044-13.414v-1.918l11.55-.867.255 2.746c.304 3.193 1.593 5.323 3.868 6.39a4.795 4.795 0 0 0 2.173.511c4.936 0 7.403-2.579 7.403-7.736V81.729a7.45 7.45 0 0 0-2.568-5.81 4.912 4.912 0 0 0-3.404-1.082 5.198 5.198 0 0 0-4.75 2.49 8.857 8.857 0 0 0-1.283 4.595v2.174H23.53V40.343h35.32V52.48H35.598Zm72.492 49.757a19.15 19.15 0 0 1-11.835 17.634 19.156 19.156 0 0 1-20.833-4.128 18.387 18.387 0 0 1-5.57-13.506v-43.69a19.146 19.146 0 0 1 32.699-13.538 18.577 18.577 0 0 1 5.554 13.537l-.015 43.691ZM95.572 58.291a6.962 6.962 0 0 0-6.962-6.962 6.612 6.612 0 0 0-4.889 2.042 6.784 6.784 0 0 0-2.01 4.92v43.753a6.766 6.766 0 0 0 2.01 4.919 6.608 6.608 0 0 0 4.89 2.043 6.961 6.961 0 0 0 6.961-6.962V58.291Zm61.189 43.946a19.13 19.13 0 0 1-38.261 0v-43.69a19.155 19.155 0 0 1 32.707-13.538 18.577 18.577 0 0 1 5.554 13.537v43.691Zm-12.524-43.946a6.964 6.964 0 0 0-6.962-6.962 6.602 6.602 0 0 0-4.889 2.042 6.752 6.752 0 0 0-2.011 4.92v43.753a6.728 6.728 0 0 0 2.011 4.92 6.61 6.61 0 0 0 4.889 2.042 6.966 6.966 0 0 0 4.923-2.039 6.966 6.966 0 0 0 2.039-4.923V58.291Z"/>
  <path fill="#37474F" d="M25.774 238.492H5.228v20.546h20.546v-20.546Z"/>
  <path fill="#455A64" d="M15.5 255.619a6.862 6.862 0 1 0 0-13.723 6.862 6.862 0 0 0 0 13.723Z"/>
  <path fill="#263238" d="M14.248 245.988H12.7v5.662h1.547v-5.662Zm4.301 0h-1.547v5.662h1.547v-5.662ZM.115 290.978l41.223-.186 41.223-.07 82.439-.131 82.439.131 41.223.07 41.223.186-41.223.193-41.223.07-82.439.123-82.439-.131-41.223-.07-41.223-.185Z"/>
  <path fill="#65BEDC" d="M70.688 271.584c.773 1.64-2.197 13.39-3.094 15.804-.898 2.413-4.17 15.881-5.748 16.461-1.578.58-9.229.418-10.312 0-1.082-.418 0-2.715 1.246-3.52 1.245-.804 2.738-2.034 2.738-2.034s-2.235-20.801-1.818-23.13c.418-2.328 14.977-7.983 16.988-3.581Z"/>
  <path fill="#000" d="M70.688 271.584c.773 1.64-2.197 13.39-3.094 15.804-.898 2.413-4.17 15.881-5.748 16.461-1.578.58-9.229.418-10.312 0-1.082-.418 0-2.715 1.246-3.52 1.245-.804 2.738-2.034 2.738-2.034s-2.235-20.801-1.818-23.13c.418-2.328 14.977-7.983 16.988-3.581Z" opacity=".1"/>
  <path fill="#000" d="M54.69 302.945c.085-.416.256-.808.503-1.153a4.34 4.34 0 0 1 .874-.89 2.844 2.844 0 0 1 1.099-.533.05.05 0 0 1 .038-.002.055.055 0 0 1 .03.024.055.055 0 0 1 .006.038.052.052 0 0 1-.02.032c-.14.124-.294.233-.426.364-.131.132-.278.271-.402.41a4.698 4.698 0 0 0-.658.897c-.193.318-.37.642-.54.983-.171.34-.256.704-.388 1.06 0 .02-.008.04-.022.054a.076.076 0 0 1-.055.023.076.076 0 0 1-.055-.023.076.076 0 0 1-.022-.054 2.84 2.84 0 0 1 .038-1.23Zm-2.235-1.222a3.867 3.867 0 0 1 1.864-1.632c.054 0 .108.039.062.077a6.29 6.29 0 0 0-1.486 1.679 2.825 2.825 0 0 0-.293 2.204s0 .047-.055 0a2.258 2.258 0 0 1-.092-2.328Zm1.879-15.07 10.512 9.948c1.16-3.814 2.244-7.96 2.715-9.19.929-2.413 3.868-14.164 3.095-15.804-2.02-4.401-16.616 1.253-17.019 3.582-.162 1.075.225 6.258.697 11.464Z" opacity=".1"/>
  <path fill="#65BEDC" d="M110.393 283.343c.426.402 4.564-3.512 5.198-5.345.635-1.834-2.011-7.009-1.547-7.891.464-.881 2.746-1.585 3.915-.232 1.168 1.354 4.161 8.773 3.542 11.944-.618 3.172-6.985 10.25-7.658 10.25s-3.45-8.726-3.45-8.726Z"/>
  <path fill="#000" d="M110.393 283.343s2.793 8.664 3.45 8.702c.487 0 4.03-3.759 6.15-7.031l-5.794-4.882c-1.462 1.725-3.512 3.489-3.806 3.211Z" opacity=".1"/>
  <path fill="#C7C7C7" d="M87.017 247.558H52.671s-2.553 22.619-2.274 25.612c.278 2.994 15.37 25.172 20.05 28.034 4.68 2.862 31.585 3.002 38.129 1.547 5.091-1.121 9.337-7.619 7.226-17.621-.921-4.379-12.849-14.806-14.513-16.802-1.663-1.996-14.272-20.77-14.272-20.77Z"/>
  <path fill="#65BEDC" d="M50.396 273.17c.279 2.994 15.371 25.172 20.059 28.034 4.688 2.862 31.577 3.002 38.129 1.547 5.082-1.121 9.337-7.619 7.217-17.629-.92-4.371-12.841-14.799-14.504-16.794-1.021-1.223-6.142-8.742-9.964-14.389-2.42-3.574-4.316-6.397-4.316-6.397H52.67s-.642 5.678-1.246 11.719c-.603 6.042-1.168 12.416-1.029 13.909Z"/>
  <path fill="#000" d="M51.426 259.277c18.457 5.694 34.872-2.406 39.908-5.322a2169.968 2169.968 0 0 1-4.317-6.397H52.672s-.61 5.678-1.245 11.719Z" opacity=".1"/>
  <path fill="#65BEDC" d="M109.234 284.054s-9.453-5.933-16.082-4.866c-6.63 1.068-8.974 14.698-5.794 22.348 0 0-6.05 1.795-6.05 4.719 0 1.663 3.458 2.197 8.44 2.073 4.982-.124 14.899-.216 15.116-1.47a5.943 5.943 0 0 0-.65-2.978s8.95-1.005 10.706-6.962c1.756-5.956-4.193-11.866-5.686-12.864Z"/>
  <path fill="#000" d="M96.323 302.209a24.052 24.052 0 0 0 7.96 1.764c.054 0 .07.092 0 .1a13.016 13.016 0 0 1-7.99-1.802c-.032-.016-.009-.085.03-.062ZM85.2 308.368a4.637 4.637 0 0 1 2.057-2.661 7.126 7.126 0 0 1 1.748-.882c.712-.24 1.439-.372 2.158-.596.055 0 .1.07 0 .093-.615.223-1.21.497-1.779.82a17.34 17.34 0 0 0-1.678.99 10.44 10.44 0 0 0-2.321 2.321c-.023.1-.217.046-.186-.085Zm1.221-4.696c.013 0 .024.005.033.013a.047.047 0 0 1 .014.033.046.046 0 0 1-.014.033.046.046 0 0 1-.033.014 7.61 7.61 0 0 0-4.069 4.038c0 .077-.17.077-.154 0a4.85 4.85 0 0 1 4.223-4.131Zm-2.947-.426v.039a19.816 19.816 0 0 1 3.72-1.71c.155.271.318.542.496.774 0 .054.116 0 .085-.046a17.254 17.254 0 0 1-1.656-7.643c.005-1.399.088-2.796.248-4.185a20.498 20.498 0 0 1 2.243-6.962 8.394 8.394 0 0 1 2.916-3.358 8.09 8.09 0 0 1 4.371-.773c1.549.104 3.08.387 4.564.843 1.508.417 2.986.934 4.425 1.547a24.504 24.504 0 0 0-8.942-2.993 8.178 8.178 0 0 0-4.766.773 9.107 9.107 0 0 0-3.249 3.589 21.609 21.609 0 0 0-2.374 9.19v2.553c.011 2.298.571 4.56 1.632 6.599a7.02 7.02 0 0 0-3.713 1.763Z" opacity=".1"/>
  <path fill="#65BEDC" d="M81.787 274.501c.774 1.632-2.196 13.383-3.094 15.796-.897 2.414-4.2 15.882-5.747 16.47-1.547.587-9.229.417-10.312 0-1.083-.418 0-2.716 1.245-3.52 1.246-.805 2.731-2.035 2.731-2.035s-2.228-20.801-1.818-23.129c.41-2.329 14.984-7.991 16.995-3.582Z"/>
  <path fill="#000" d="M76.635 296.826c.704-2.12 1.625-4.177 2.32-6.289 0-.085.163-.046.132.039-.541 1.701-.951 3.45-1.462 5.167.078-.116.147-.24.217-.356a8.415 8.415 0 0 0 1.215-2.143.071.071 0 0 1 .034-.043.07.07 0 0 1 .054-.007.07.07 0 0 1 .044.034c.01.017.012.037.007.055a4.97 4.97 0 0 1-.457 1.037c-.2.379-.41.773-.619 1.137-.208.363-.549.974-.85 1.446v.101a60.809 60.809 0 0 1-2.321 6.289.098.098 0 0 1-.05.04.1.1 0 0 1-.136-.094 66.332 66.332 0 0 1 1.872-6.413Zm-12.159-15.433c0-.038.085-.054.092 0 .225 1.548.318 3.172.48 4.758.162 1.586.364 3.288.541 4.935.364 3.272.913 6.537 1.176 9.817 0 .139-.24.154-.278 0a60.27 60.27 0 0 1-1.586-9.608 84.272 84.272 0 0 1-.348-4.827 45.706 45.706 0 0 1-.077-5.075Zm.944 24.298a2.89 2.89 0 0 1 .494-1.153c.248-.339.545-.639.882-.889a2.746 2.746 0 0 1 1.099-.534.054.054 0 0 1 .063.063.056.056 0 0 1-.017.03c-.14.131-.294.232-.425.363l-.403.41c-.25.276-.47.577-.657.898a13.28 13.28 0 0 0-.534.982c-.162.341-.263.704-.394 1.06a.083.083 0 0 1-.029.039.08.08 0 0 1-.09 0 .083.083 0 0 1-.029-.039 2.723 2.723 0 0 1 .04-1.23Zm-2.245-1.245a3.873 3.873 0 0 1 1.872-1.633c.047 0 .1.039.054.078a6.128 6.128 0 0 0-1.477 1.678 2.76 2.76 0 0 0-.294 2.205s0 .047-.054 0a2.257 2.257 0 0 1-.1-2.328Z" opacity=".1"/>
  <path fill="#65BEDC" d="M65.813 216.113c.372-1.361-3.017-6.188-4.308-7.774-1.292-1.586-8.401-4.038-10.675-2.793-.89.488-2.545 3.907-4.781 6.87-3.466 4.595-7.504 9.414-6.034 10.706 3.559 3.148 11.689-1.818 14.327-3.481 2.637-1.664 5.043-3.698 5.685-3.628.851.092 2.63 1.438 3.35 1.547a2.494 2.494 0 0 0 2.436-1.447Z"/>
  <path fill="#000" d="M65.813 216.113c.372-1.361-3.017-6.188-4.308-7.774-1.292-1.586-8.401-4.038-10.675-2.793-.89.488-2.545 3.907-4.781 6.87-3.466 4.595-7.504 9.414-6.034 10.706 3.559 3.148 11.689-1.818 14.327-3.481 2.637-1.664 5.043-3.698 5.685-3.628.851.092 2.63 1.438 3.35 1.547a2.494 2.494 0 0 0 2.436-1.447Z" opacity=".1"/>
  <path fill="#65BEDC" d="M82.228 211.301c8.3 4.966 11.983 18.163 12.207 20.275.186 1.717 4.139 7.813 3.435 14.365-.457 4.208-8.022 9.801-14.18 9.747-1.129 0-10.713 3.465-18.813 2.908-8.099-.556-14.225-6.304-14.465-6.791-.24-.488-6.862-1.432-7.248-8.2-.658-10.83 10.365-29.21 13.514-31.716 5.221-4.139 19.873-3.961 25.55-.588Z"/>
  <path fill="#65BEDC" d="M78.283 217.032c-.155-1.469 4.154-5.886 5.763-7.348 1.609-1.462 9.391-2.793 11.541-1.122.844.657 1.996 4.471 3.822 7.921 2.823 5.346 6.188 11.016 4.487 12.114-4.224 2.677-11.836-3.821-14.296-5.995-2.46-2.174-4.641-4.641-5.299-4.703-.897-.047-2.97 1.052-3.72 1.013a2.635 2.635 0 0 1-2.298-1.88Z"/>
  <path fill="#000" d="M78.283 217.032c-.155-1.469 4.154-5.886 5.763-7.348 1.609-1.462 9.391-2.793 11.541-1.122.844.657 1.996 4.471 3.822 7.921 2.823 5.346 6.188 11.016 4.487 12.114-4.224 2.677-11.836-3.821-14.296-5.995-2.46-2.174-4.641-4.641-5.299-4.703-.897-.047-2.97 1.052-3.72 1.013a2.635 2.635 0 0 1-2.298-1.88Zm-15.162 18.512c5.09.047 7.411 5.5 8.022 6.916.611 1.416 3.76 4.641 3.868 8.068.109 3.427-6.366 7.194-13.15 5.995-6.785-1.199-10.366-5.02-10.328-8.47 0-2.777 2.646-5.183 2.94-5.91.294-.727 4.015-6.645 8.648-6.599Zm12.517 9.577a11.71 11.71 0 0 1 1.71 2.56c.473.932.809 1.927.997 2.955a5.339 5.339 0 0 1-.332 3.172 3.753 3.753 0 0 1-.99 1.276 4.446 4.446 0 0 1-1.385.712 4.389 4.389 0 0 0 1.818-2.22 5.764 5.764 0 0 0 .123-2.816 15.626 15.626 0 0 0-.773-2.839 79.278 79.278 0 0 0-1.168-2.8Zm-23.323-2.034a36.68 36.68 0 0 0-1.245 1.624c-.382.529-.71 1.094-.983 1.687a5.407 5.407 0 0 0-.449 1.825 5.7 5.7 0 0 0 .364 1.942 3.414 3.414 0 0 1-.967-1.903 4.266 4.266 0 0 1 .348-2.174 6.423 6.423 0 0 1 2.932-3.001Z" opacity=".1"/>
  <path fill="#263238" d="M131.845 315.941c-8.331 0-17.529-.147-26.773-.318-4.765-.085-8.51-.154-10.877-.154-12.013 0-15.47-15.472-18.813-30.37a389.91 389.91 0 0 0-1.415-6.189c-.96-3.999-1.74-8.029-2.507-11.936-2.32-12.075-4.386-22.495-9.708-23.068-7.031-.773-13.29 9.763-15.572 26.17l-1.547-.209c2.406-17.297 9.345-28.359 17.266-27.5 6.46.688 8.594 11.603 11.062 24.313.774 3.868 1.547 7.906 2.491 11.867.495 2.049.96 4.146 1.431 6.234 3.357 14.992 6.529 29.156 17.297 29.156 2.36 0 6.134.07 10.907.155 10.459.201 24.754.464 36.899.224 19.664-.387 21.993-1.934 22.233-2.406 0-3.218-20.763-7.085-28.576-8.548-7.813-1.462-8.2-1.547-8.115-2.498.085-.952 1.045-.874 2.514-.874h32.444c10.172 0 13.452-14.636 15.417-23.385a32.697 32.697 0 0 1 1.493-5.516c2.274-4.734 8.029-4.045 8.269-4.014l-.201 1.547c-.201 0-4.889-.573-6.676 3.148a34.124 34.124 0 0 0-1.377 5.183c-2.065 9.198-5.507 24.592-16.925 24.592h-28.158l1.617.301c18.89 3.528 29.828 6.32 29.828 10.134a1.49 1.49 0 0 1-.502 1.098c-2.298 2.236-15.967 2.863-33.426 2.863Z"/>
  <path fill="#455A64" d="m50.32 268.94-9.483-.568-.34 5.691 9.482.568.34-5.691Z"/>
  <path fill="#37474F" d="m48.636 267.033-5.915-.355-.108 1.807 5.915.355.108-1.807Z"/>
  <path fill="#65BEDC" d="m43.64 274.258-1.119-.068-.26 4.34 1.12.067.26-4.339Zm4.286.247-1.111-.067-.26 4.34 1.111.067.26-4.34Z"/>
  <path fill="#455A64" d="M190.566 263.083v9.499h4.154v-9.499h-4.154Z"/>
  <path fill="#37474F" d="M187.216 264.87v5.926h3.358v-5.926h-3.358Z"/>
  <path fill="#65BEDC" d="M56.7 243.797s2.02 2.321 2.801 1.841c.781-.479 2.738-5.09 2.738-5.09s.472 5.848 1.98 6.011c1.51.162 4.093-2.151 4.093-2.151l-6.103-4.231-5.508 3.62Z"/>
  <path fill="#000" d="M56.7 243.797s2.02 2.321 2.801 1.841c.781-.479 2.738-5.09 2.738-5.09s.472 5.848 1.98 6.011c1.51.162 4.093-2.151 4.093-2.151l-6.103-4.231-5.508 3.62Zm29.9-7.263c.6-1.882.81-3.866.618-5.832a10.333 10.333 0 0 0-.704-2.963 7.25 7.25 0 0 0-.773-1.385 6.779 6.779 0 0 0-1.037-1.222 5.48 5.48 0 0 0-.627-.503c-.224-.155-.456-.278-.68-.418l-.348-.193-.364-.147a6.452 6.452 0 0 0-.774-.278 8.17 8.17 0 0 0-3.094-.294c-1.992.189-3.89.937-5.477 2.158a15.472 15.472 0 0 1 5.516-1.014 8.16 8.16 0 0 1 2.607.465c.209.061.402.178.603.255l.294.131.279.178c.178.116.37.217.549.341.171.123.334.257.487.402a6.297 6.297 0 0 1 1.5 2.081c.383.822.666 1.687.844 2.576.387 1.862.581 3.76.58 5.662Zm-37.735-3.954c.084-1.609.343-3.204.774-4.757a7.116 7.116 0 0 1 2.32-3.682c.286-.209.592-.387.913-.534.313-.136.644-.227.983-.271a8.37 8.37 0 0 1 2.236.047c1.591.282 3.159.688 4.687 1.214a11.932 11.932 0 0 0-2.08-1.408c-.372-.193-.774-.371-1.145-.541-.398-.16-.803-.3-1.215-.418a7.133 7.133 0 0 0-2.645-.294 4.3 4.3 0 0 0-1.393.341 5.805 5.805 0 0 0-1.207.696 6.13 6.13 0 0 0-1.748 2.096 8.21 8.21 0 0 0-.773 2.499 11.499 11.499 0 0 0 .293 5.012Z" opacity=".1"/>
  <path fill="#263238" d="M73.999 234.105c0-.085.201.116.193.217-.185 2.321 0 5.028 2.321 5.902.07 0 .054.147 0 .132-2.839-.488-3.094-4.069-2.514-6.251Z"/>
  <path fill="#263238" d="M76.396 231.769c4.131-.108 4.123 7.434.294 7.535-3.829.1-3.744-7.45-.294-7.535Zm-18.356.503c0-.085-.21.093-.217.193-.14 2.321-.774 4.974-3.095 5.524-.07 0-.077.131 0 .131 2.84-.093 3.59-3.605 3.311-5.848Z"/>
  <path fill="#263238" d="M55.996 229.626c-4.069-.681-5.12 6.792-1.346 7.418 3.775.627 4.766-6.861 1.346-7.418Zm6.051 10.706c.773.24 5.832-1.369 5.415-2.916-.426-1.671-7.59-2.066-8.51-.983-.92 1.083 2.329 3.652 3.095 3.899Z"/>
  <path fill="#263238" d="M68.404 244.332a17.071 17.071 0 0 1-2.591 1.616 3.443 3.443 0 0 1-1.408.403c-.294.054-.541-.341-.712-.72a11.022 11.022 0 0 1-.642-2.468c-.154-.843-.24-1.709-.332-2.552l-.24-2.321-.704 2.282c-.217.704-.472 1.408-.727 2.112a16.103 16.103 0 0 1-.913 2.042 2.959 2.959 0 0 1-.302.464 1.386 1.386 0 0 1-.356.372.644.644 0 0 1-.425.046 2.443 2.443 0 0 1-.557-.232 7.965 7.965 0 0 1-1.833-1.648 5.817 5.817 0 0 0 1.547 1.903c.202.157.43.277.673.356.15.037.302.058.456.062a1.09 1.09 0 0 0 .495-.116c.217-.12.41-.277.573-.464.14-.159.27-.327.386-.503.432-.658.802-1.355 1.107-2.081.31-.704.572-1.416.773-2.135l-.951-.07c.068.875.187 1.746.356 2.607.085.439.194.873.325 1.3.127.447.3.88.518 1.292.12.232.274.446.456.634a1.307 1.307 0 0 0 .727.379c.095.012.192.012.287 0a3.77 3.77 0 0 0 1.67-.596 10.76 10.76 0 0 0 2.344-1.964Zm-38.856 26.765a36.433 36.433 0 0 1 9.175.627 36.574 36.574 0 0 1-9.175-.627Zm22.272 4.898a32.99 32.99 0 0 1 4.232 1.81 32.043 32.043 0 0 1 3.968 2.32 36.424 36.424 0 0 1-8.2-4.138v.008Zm-17.36 10.659a36.262 36.262 0 0 1 5.524-7.349 32.081 32.081 0 0 1-2.53 3.868 32.195 32.195 0 0 1-2.993 3.481Zm-8.702-24.7c1.2.379 2.367.812 3.528 1.261 1.16.449 2.32.928 3.465 1.416 1.145.487 2.321.99 3.412 1.547 1.09.557 2.259 1.075 3.357 1.678a65.574 65.574 0 0 1-3.527-1.268c-1.16-.449-2.321-.929-3.466-1.416-1.145-.487-2.32-.99-3.411-1.547-1.091-.557-2.252-1.075-3.358-1.671Zm27.176 6.853a20.452 20.452 0 0 1 3.357-1.33 19.888 19.888 0 0 1 3.52-.774 21.992 21.992 0 0 1-6.877 2.112v-.008Zm-11.124-3.914a48.312 48.312 0 0 1-1.772-3.094 155.887 155.887 0 0 1-1.64-3.148 111.5 111.5 0 0 1-1.547-3.203 46.536 46.536 0 0 1-1.385-3.272 50.707 50.707 0 0 1 1.78 3.094 152.796 152.796 0 0 1 1.64 3.141c.533 1.052 1.036 2.119 1.547 3.202.51 1.083.959 2.166 1.377 3.28Zm15.664 24.469c-.688-.774-1.33-1.617-1.957-2.445-.626-.828-1.23-1.686-1.833-2.537a48.916 48.916 0 0 1-1.717-2.615c-.55-.889-1.099-1.779-1.594-2.7.689.774 1.33 1.617 1.957 2.445a84.797 84.797 0 0 1 1.834 2.537 54.136 54.136 0 0 1 1.717 2.615c.55.889 1.098 1.771 1.593 2.7Z"/>
  <path fill="#A6A6A6" d="M265.516 95.475h-63.943l-4.95-43.428h63.942l4.951 43.428Z"/>
  <path fill="#fff" d="M262.036 92.567h-57.639l-4.285-37.603h57.638l4.286 37.603Z"/>
  <path fill="#65BEDC" d="m226.437 74.743-.921 1.099-9.066-7.829.921-1.098 9.066 7.828Z"/>
  <path fill="#65BEDC" d="m224.1 66.915 1.269 1.098-6.583 7.829-1.269-1.099 6.583-7.828Zm21.721 7.828-.92 1.099-9.067-7.829.921-1.098 9.066 7.828Z"/>
  <path fill="#65BEDC" d="m243.486 66.915 1.269 1.098-6.584 7.829-1.268-1.099 6.583-7.828ZM215.289 82.27l-.247-1.547h35.143l.247 1.547h-35.143Z"/>
  <path fill="#A6A6A6" d="M284.284 92.566h-82.261v2.917h82.261v-2.917Z"/>
  <path fill="#C7C7C7" d="M291.23 92.566h-71.338v2.917h71.338v-2.917Z"/>
  <path fill="#263238" d="m257.959 56.79-.209-1.826h-57.638l.209 1.825h57.638Z"/>
  <path fill="#C7C7C7" d="M204.963 55.875a.486.486 0 0 0 .456.449.372.372 0 0 0 .356-.449.486.486 0 0 0-.457-.456.374.374 0 0 0-.283.146.375.375 0 0 0-.072.31Z"/>
  <path fill="#fff" d="M203.292 55.875a.49.49 0 0 0 .464.449.376.376 0 0 0 .28-.143.376.376 0 0 0 .076-.306.495.495 0 0 0-.457-.456.385.385 0 0 0-.363.456Z"/>
  <path fill="#65BEDC" d="M201.629 55.875a.486.486 0 0 0 .457.449.372.372 0 0 0 .355-.449.485.485 0 0 0-.456-.456.379.379 0 0 0-.356.456Z"/>
</svg>
