<svg xmlns="http://www.w3.org/2000/svg" width="234" height="240" fill="none" viewBox="0 0 234 240">
  <path fill="#EBEBEB" d="M196.099 214.731h19.783v-6.288h-19.783v6.288Zm11.034 7.924c3.286-.056 11.709-.196 14.882-.23l4.901-.022-.259.258-.022-6.289.281.281c-3.286-.011-11.664-.039-14.837-.084l-4.946-.062.135-.135-.135 6.289v-.006Zm0 0-.135-6.288v-.129h.135c2.47-.034 7.421-.09 9.892-.113l9.891-.039h.281v.281l-.028 6.288v.259h-.258l-4.991-.023c-3.151-.033-11.54-.174-14.793-.23l.006-.006Zm-74.688-109.081c3.286-.056 11.709-.197 14.882-.231l4.901-.022-.259.258-.022-6.288.281.281c-3.286-.011-11.664-.04-14.837-.084l-4.946-.062.135-.135-.135 6.288v-.005Zm0 0-.135-6.289v-.129h.135c2.47-.034 7.421-.09 9.892-.112l9.891-.04h.282v.281l-.029 6.289v.258h-.258l-4.991-.022a3408.62 3408.62 0 0 1-14.793-.231l.006-.005Zm11.034 7.929c3.286-.056 11.709-.196 14.882-.23l4.901-.022-.259.258-.022-6.289.281.281c-3.286-.011-11.664-.039-14.837-.084l-4.946-.062.135-.135-.135 6.289v-.006Zm0 0-.135-6.288v-.129h.135c2.47-.034 7.421-.09 9.891-.113l9.892-.039h.281v.281l-.028 6.288v.259h-.259l-4.99-.023c-3.151-.033-11.541-.174-14.793-.23l.006-.006Zm10.989-7.929h19.783v-6.289h-19.783v6.289ZM7.095 222.661h19.783v-6.289H7.095v6.289ZM18.129 11.607h19.783V5.318H18.13v6.289ZM7.095 19.531c3.286-.056 11.71-.197 14.883-.23l4.9-.023-.259.259-.022-6.289.281.281c-3.286-.011-11.664-.04-14.837-.084l-4.946-.062.135-.135-.135 6.289v-.006Zm0 0-.135-6.289v-.129h.135c2.47-.034 7.422-.09 9.892-.112l9.891-.04h.282v.281l-.029 6.29v.258h-.258l-4.991-.023c-3.151-.034-11.54-.174-14.793-.23l.006-.006Zm189.004-7.93c3.286-.056 11.709-.196 14.882-.23l4.901-.023-.259.259-.022-6.289.281.281-9.891-.039c-2.465-.017-7.427-.079-9.892-.107l.135-.135-.135 6.289v-.006Zm0 0-.135-6.288v-.13h.135c2.47-.033 7.422-.09 9.892-.112l9.891-.04h.282v.282l-.029 6.288v.259h-.258l-4.991-.023c-3.151-.033-11.54-.174-14.793-.23l.006-.006ZM75.931 28.81H30.373v55.192H75.93V28.81Z"/>
  <path fill="#fff" d="M70.721 33.85H35.577v45.122h35.144V33.851Z"/>
  <path fill="#DBDBDB" d="M36.95 33.85h-1.373v45.122h1.372V33.851Zm40.348-5.04h-1.373v55.192h1.373V28.81ZM55.642 40.072h-8.288v24.66h8.288v-24.66Z"/>
  <path stroke="#EBEBEB" stroke-miterlimit="10" d="M65.837 56.858H43.742v12.083h22.095V56.858Z"/>
  <path fill="#EBEBEB" d="M202.271 28.81h-45.558v55.192h45.558V28.81Z"/>
  <path fill="#fff" d="M197.061 33.85h-35.144v45.122h35.144V33.851Z"/>
  <path fill="#DBDBDB" d="M163.289 33.85h-1.372v45.122h1.372V33.851Zm40.355-5.04h-1.373v55.192h1.373V28.81Zm-21.662 11.262h-8.288v24.66h8.288v-24.66Z"/>
  <path stroke="#EBEBEB" stroke-miterlimit="10" d="M192.178 56.858h-22.096v12.083h22.096V56.858Z"/>
  <path fill="#EBEBEB" d="M139.101 42.09H93.543v55.192H139.1V42.089Z"/>
  <path fill="#fff" d="M133.891 47.13H98.747v45.122h35.144V47.13Z"/>
  <path fill="#DBDBDB" d="M100.119 47.13h-1.372v45.122h1.372V47.13Zm40.354-5.04h-1.372v55.192h1.372V42.089Z"/>
  <path fill="#EBEBEB" d="M120.016 58.791h-7.101V76.72h7.101V58.79Z"/>
  <path stroke="#DBDBDB" stroke-miterlimit="10" d="M127.494 69.688h-19.075v12.358h19.075V69.688Z"/>
  <path fill="#EBEBEB" d="m191.384 193.927-3.365 7.148c-1.451 3.08-4.85 4.305-7.928 2.855-2.864-1.343-4.31-4.844-2.858-7.924l5.385-11.436c.05-.113.163-.062.213-.169-.037-.109-.039-.199-.005-.27 1.345-2.86 5.069-4.198 7.933-2.855 6.938 3.26 15.136.394 18.349-6.423 3.263-6.929.18-14.955-6.752-18.209-4.513-2.118-9.616-1.562-13.414 1.085-2.785 1.916-6.499 1.242-8.417-1.534-1.807-2.731-1.188-6.334 1.598-8.25 7.173-4.957 16.834-6.058 25.308-2.079 12.772 5.996 18.365 21.243 12.362 34-5.126 10.885-17.015 16.443-28.392 14.055l-.017.006Zm-11.338 24.081-.934 1.978c-1.451 3.08-4.85 4.299-7.928 2.855-2.864-1.343-4.31-4.844-2.858-7.919l.934-1.978c1.395-2.967 5.07-4.198 7.934-2.855 3.083 1.45 4.253 4.951 2.858 7.924l-.006-.005Zm-155.857-54.17-3.241-7.205c-1.396-3.102-.113-6.479 2.993-7.868 2.887-1.292 6.488-.112 7.883 2.996l5.182 11.526c.05.113-.062.163-.011.27.109.041.178.099.208.174 1.294 2.883-.113 6.575-2.999 7.868-6.994 3.136-10.162 11.217-7.073 18.09 3.14 6.986 11.242 9.88 18.23 6.744 4.553-2.04 7.45-6.272 7.917-10.874.36-3.355 3.292-5.738 6.65-5.379 3.253.411 5.582 3.226 5.228 6.581a25.482 25.482 0 0 1-14.905 20.535c-12.874 5.772-28.1.079-33.878-12.779-4.934-10.976-1.412-23.609 7.816-30.673v-.006Zm-10.91-24.278-.895-1.995c-1.396-3.102-.113-6.474 2.999-7.868 2.886-1.292 6.487-.112 7.877 2.99l.895 1.995c1.345 2.995-.113 6.575-3 7.873-3.105 1.394-6.532 0-7.876-2.995Z"/>
  <path fill="#90CAF9" d="M54.106 186.447c-7.293 9.862-14.9 21.316-16.75 33.685-.023.186.275.247.32.062a73.555 73.555 0 0 1 3.224-9.908c4.794-1.315 9.498-2.4 12.018-7.154 2.566-4.884 2.24-11.257 1.756-16.579-.034-.286-.422-.297-.568-.112v.006Z"/>
  <path fill="#263238" d="M40.973 210.196c3.275-7.345 7.483-14.718 12.829-20.754.033-.039.09.017.056.056-3.5 4.299-6.161 8.986-8.755 13.752 2.414-2.45 5.058-4.642 7.348-7.238.045-.051.118.022.073.073-2.273 2.72-4.754 5.681-7.708 7.693a499.48 499.48 0 0 1-2.408 4.395c.197-.112.405-.208.607-.309.034-.017.068.034.034.056-.225.113-.45.236-.68.332-.383.691-.766 1.388-1.16 2.079-.09.152-.303.017-.23-.135h-.006Zm2.437-2.562c1.952-1.119 3.837-2.321 5.598-3.732.045-.039.118.028.067.067-1.727 1.462-3.567 2.771-5.587 3.799-.09.045-.169-.084-.079-.134Z"/>
  <path fill="#90CAF9" d="M36.511 218.294c.017.152.27.147.265-.011.039-4.074 0-8.166.067-12.257 1.047-2.107 3.286-3.271 4.85-4.962 1.126-1.22 2.088-2.591 2.91-4.046 1.93-3.445 2.97-7.323 3.375-11.24.433-4.356-1.226-18.737-3.066-18.237-.957.259-4.04 7.379-4.862 9.734-1.339 3.872-2.284 7.89-2.903 11.937-1.491 9.587-1.367 19.433-.636 29.077v.005Z"/>
  <path fill="#263238" d="m36.483 200.715.016-.016c.225-5.154 1.385-10.363 2.476-15.359 1.17-5.384 2.543-10.459 5.317-15.264.051-.09.186-.011.135.079-1.89 3.714-3.24 7.66-4.27 11.711.185-.292.41-.567.602-.837.079-.107.253-.006.18.107-.27.404-.518.877-.867 1.225-.01.011-.022.011-.033.017-.957 3.849-1.643 7.789-2.229 11.717.045-.05.085-.101.13-.151.028-.034.079.011.062.044-.073.13-.152.259-.237.388-.298 1.995-.568 3.985-.844 5.957 3.556-3.034 6.59-6.609 8.3-11.015.005-.022.04-.011.034.012-1.677 4.569-4.322 8.632-8.39 11.408a134.61 134.61 0 0 1-.225 1.59c-.017.113-.191.079-.191-.028 0-.472.022-.938.045-1.41-.05-.045-.073-.118-.011-.169v-.006Z"/>
  <path fill="#263238" d="M38.154 193.247c2.718-4.047 5.255-7.981 7.242-12.46.022-.05.107-.016.09.04-1.677 4.445-4.023 8.952-7.191 12.526-.062.073-.191-.022-.135-.106h-.006Zm3.612-13.454c1.126-1.99 2.313-3.923 3.37-5.952.028-.056.107-.005.085.051-.89 2.074-1.952 4.175-3.28 6.002-.073.101-.236.011-.175-.101Zm-.439.865s.022.033 0 .033-.022-.033 0-.033Z"/>
  <path fill="#90CAF9" d="M33.749 206.51c-.068 2.697-.36 5.4-.951 8.025.04.292.084.579.123.876.85-2.922 1.3-5.923 1.435-8.946.045-.085.068-.175.011-.276v-.011c.152-4.041-.219-8.126-.9-12.122-1.26-7.486-4.023-14.674-9.25-20.282-.163-.174-.495-.084-.58.118-2.11 5.356-1.372 11.751.422 17.095a31.363 31.363 0 0 0 4.147 8.121c1.795 2.518 4.08 4.648 5.537 7.402h.006Z"/>
  <path fill="#263238" d="M24.842 176.286c4.957 8.031 8.4 17.556 8.822 27.043.006.168-.276.213-.298.039-.118-.854-.248-1.697-.383-2.54h-.01c-2.049-1.961-4.153-4.03-5.622-6.48-.028-.045.034-.095.073-.056 1.784 2.034 3.45 4.119 5.464 5.935a88.725 88.725 0 0 0-1.272-6.199c-.135-.152-.264-.309-.394-.461-.084-.101.056-.247.146-.146.04.045.08.09.119.129a72.076 72.076 0 0 0-2.589-8.216c-1.26-1.501-2.672-2.799-3.59-4.614-.022-.045.04-.079.068-.039.737 1.034 1.452 2.079 2.29 3.034.332.383.698.742 1.047 1.113a63.07 63.07 0 0 0-4.057-8.447c-.073-.123.118-.23.191-.112l-.005.017Z"/>
  <path fill="#263238" d="M25.843 186.194c1.604 2.152 3.427 4.209 4.918 6.429.045.062-.05.129-.101.079-1.914-1.793-3.534-4.238-4.918-6.446-.045-.068.062-.124.107-.062h-.006Zm5.137 6.929.067.067c.045.045-.028.124-.073.073l-.067-.067c-.045-.045.028-.118.073-.073Z"/>
  <path fill="#90CAF9" d="M17.077 191.724c.4 4.13 2.577 9.07 5.227 12.251 1.176 1.411 2.605 2.484 4.243 3.304 1.834.905 3.758 1.951 5.66 2.698a36.822 36.822 0 0 1 2.003 7.109l.186-.629c-1.221-10.464-7.996-19.406-16.666-25.144-.31-.207-.681.057-.648.411h-.005Z"/>
  <path fill="#263238" d="M20.07 194.815c-.062-.057.023-.163.09-.113 4.597 3.4 8.733 8.357 11.045 13.6.062.141-.135.27-.214.124a71.157 71.157 0 0 0-1.232-2.063h-.006c-1.98-.371-3.854-1.764-5.322-3.085-.04-.034.017-.095.056-.056.765.674 1.592 1.292 2.504 1.759.804.41 1.677.669 2.515.995a55.076 55.076 0 0 0-2.296-3.361c-2.127-.725-4.158-2.029-5.947-3.338-.056-.04-.006-.135.056-.096a59.332 59.332 0 0 0 5.526 2.951 49.542 49.542 0 0 0-3.905-4.547 57.907 57.907 0 0 1-2.01-1.09c-.05-.034-.016-.124.046-.101a7.505 7.505 0 0 1 1.542.753 48.247 48.247 0 0 0-2.454-2.332h.006Zm.185 3.613c.118.079.225.147.331.237.034.028-.01.067-.039.056-.129-.056-.23-.124-.348-.197-.061-.04 0-.135.056-.096Z"/>
  <path fill="#455A64" d="M47.922 239.74H24.166l1.913-21.609.422-4.765h19.08l.422 4.765 1.919 21.609Z"/>
  <path fill="#37474F" d="m46.003 218.131-19.783-1.568.281-3.197h19.08l.422 4.765Z"/>
  <path fill="#455A64" d="M46.718 210.033H25.365v4.715h21.353v-4.715Z"/>
  <path fill="#37474F" d="M167.516 239.74H113.59c-2.341-9.194-5.953-23.345-9.098-35.67 0-.005 0-.016-.006-.022-.191-.759-.382-1.506-.568-2.242l-.349-1.36a41509.539 41509.539 0 0 0-5.469-21.435 9.558 9.558 0 0 0-.084-.314c-.034-.113-.045-.174-.045-.174h52.063l17.476 61.228.006-.011Z"/>
  <path fill="#37474F" d="M148.357 178.489v.022c0 .034-.006.096-.006.175 0 .612-.005 1.225-.017 1.837a91.08 91.08 0 0 1-.197 4.67c-.393 6.261-1.294 12.471-2.385 18.136-2.161 11.245-5.036 20.321-6.043 23.339-.22.663-.355 1.034-.366 1.073-.006.006-1.806.894-4.152 2.052-.107.056-.22.112-.332.168a5625.148 5625.148 0 0 0-8.221 4.08c-1.153.573-1.986.989-2.222 1.119-.034.011-.057.022-.062.033-.012.006-.096 1.849-.208 4.552H67.913a7715.985 7715.985 0 0 1 1.277-10.784c-.332-1.838-1.8-6.575-1.277-12.077 1.154-12.094 8.586-36.383 9.256-37.833.157-.354.253-.534.253-.534h14.224l33.698-.017h23.019l-.006-.011Z"/>
  <path fill="#263238" d="M124.41 235.03v.124c.017 1.529-.045 3.057-.062 4.586h-.568c.124-1.534.225-3.08.411-4.609a4.8 4.8 0 0 1 .045-.41c.011-.107.163-.107.168.006 0 .101.006.202.006.303Z"/>
  <path fill="#263238" d="M117.664 237.975c2.391-1.658 4.968-3.046 7.5-4.473 2.589-1.461 5.216-2.861 7.911-4.114 5.261-2.45 10.82-4.215 16.357-5.929.141-.045.236.186.096.242-5.334 2.287-10.505 4.911-15.811 7.261-2.667 1.18-5.357 2.315-8.029 3.49-2.673 1.174-5.278 2.506-7.968 3.63-.073.028-.124-.062-.056-.101v-.006Z"/>
  <path fill="#263238" d="M132.259 211.905c.068-2.614.254-5.221.383-7.834.304-6.16.546-12.359 1.12-18.501.022-.242.377-.242.382.011.079 4.766-.107 9.548-.202 14.314-.051 2.383-.118 4.771-.186 7.154-.062 2.27-.214 4.569-.045 6.834.13 1.719.506 5.058 2.752 5.266 2.115.196 3.274-2.085 3.803-3.754 1.339-4.243 1.818-8.824 2.251-13.235.259-2.613.517-5.221.675-7.84.158-2.647.366-6.547.219-9.188-.011-.169.237-.158.265.005.416 2.265.433 6.868.377 9.571-.512 24.311-4.355 25.699-6.381 26.093-.259.05-.506.073-.754.079-.022.55-.101 1.107-.14 1.657-.062.866-.169 1.72-.282 2.58-.112.837-.304 1.68-.529 2.495-.219.809-.439 1.664-.877 2.389-.074.118-.237.05-.242-.073-.062-.821.095-1.653.208-2.462.112-.837.231-1.686.405-2.518.169-.815.321-1.635.489-2.45.113-.545.192-1.113.293-1.663-1.3-.203-2.386-1.057-2.999-2.355-.951-2.012-1.03-4.384-.973-6.564l-.012-.011Zm-49.154-4.614c3.399.236 6.752.674 10.162.269 3.207-.382 6.28-1.478 8.845-3.461 5.604-4.339 8.057-11.442 9.576-18.108.034-.151.254-.118.237.034-.636 5.777-1.88 11.751-5.616 16.405-1.626 2.028-3.623 3.737-5.958 4.906-2.425 1.214-5.188 1.624-7.877 1.618-3.151-.005-6.381-.478-9.43-1.27-.243-.062-.203-.41.056-.393h.005Zm74.148-1.349c-.945-.107-1.874-.028-2.83-.725-.901-.658-1.778-1.95-2.527-4.013-1.637-4.507-2.442-11.234-2.971-17.466-.011-.141-.073-.135-.067.011.27 5.345.72 10.925 1.84 15.533.489 2.012 1.075 3.766 1.744 5.053.698 1.337 1.474 1.983 2.228 2.236.878.298 1.773.175 2.611-.258.067-.034.051-.354-.023-.365l-.005-.006Zm-74.75-25.773c-1.823 9.987-3.989 20.119-5.986 30.078-.507 2.978-1.401 5.923-1.221 8.952.213 3.052.782 6.092 1.446 9.082-.321 1.922-.636 3.85-.98 5.766-.337 1.899-.658 3.799-1.03 5.693.175-1.922.395-3.839.603-5.755.197-1.916.433-3.833.658-5.749-.692-2.231-1.468-6.098-1.716-8.969-.09-1.04-.09-2.136.073-3.17.608-4.086 1.463-8.081 2.319-12.088 1.744-7.997 3.662-15.955 5.834-23.851v.011Z"/>
  <path fill="#D3766A" d="M132.811 104.734c23.508 21.265 40.224 39.592 39.999 47.92-.5 18.67-10.353 22.699-12.108 22.103-18.54-6.283-30.322-41.531-38.115-62.824-7.737-21.142 3.489-13.291 10.224-7.199Z"/>
  <path fill="#90CAF9" d="m166.177 135.03-29.619 15.798s-12.063-26.29-16.171-42.009c-4.107-15.718 2.2-15.213 15.991-2.911s29.799 29.128 29.799 29.128v-.006Z"/>
  <path fill="#fff" d="M129.733 115.237c-.934 0-1.699.765-1.699 1.698 0 .932.765 1.714 1.699 1.714a1.73 1.73 0 0 0 1.716-1.714 1.7 1.7 0 0 0-1.716-1.698Zm0 3.119a1.417 1.417 0 0 1-1.407-1.421c0-.787.636-1.405 1.407-1.405s1.424.635 1.424 1.405c0 .769-.636 1.421-1.424 1.421Zm18.889-1c-.18.579-.721 1-1.362 1a1.417 1.417 0 0 1-1.407-1.421c0-.613.4-1.136.951-1.327a4.882 4.882 0 0 0-.23-.225 1.699 1.699 0 0 0-1.013 1.552c0 .938.765 1.714 1.699 1.714.726 0 1.334-.444 1.587-1.068l-.225-.225Zm-27.65-16.078c-.934 0-1.699.764-1.699 1.697s.765 1.714 1.699 1.714a1.73 1.73 0 0 0 1.717-1.714 1.7 1.7 0 0 0-1.717-1.697Zm0 3.119c-.77 0-1.406-.635-1.406-1.422 0-.787.636-1.405 1.406-1.405.771 0 1.424.635 1.424 1.405s-.636 1.422-1.424 1.422Zm26.288 39.007c-.934 0-1.699.764-1.699 1.697 0 .293.073.568.208.815l.253-.135a1.414 1.414 0 0 1 1.238-2.085 1.43 1.43 0 0 1 1.26.753l.259-.14a1.72 1.72 0 0 0-1.519-.905Zm-8.766-13.96c-.934 0-1.699.765-1.699 1.698 0 .932.765 1.714 1.699 1.714a1.73 1.73 0 0 0 1.716-1.714c0-.939-.76-1.698-1.716-1.698Zm0 3.119a1.417 1.417 0 0 1-1.407-1.421c0-.787.636-1.405 1.407-1.405s1.423.635 1.423 1.405c0 .769-.636 1.421-1.423 1.421Zm17.527-3.119c-.934 0-1.7.765-1.7 1.698 0 .932.766 1.714 1.7 1.714a1.73 1.73 0 0 0 1.716-1.714c0-.939-.76-1.698-1.716-1.698Zm0 3.119a1.417 1.417 0 0 1-1.407-1.421c0-.787.636-1.405 1.407-1.405s1.423.635 1.423 1.405c0 .769-.636 1.421-1.423 1.421Z"/>
  <path fill="#263238" d="M160.139 130.473c-11.433 7.598-22.495 12.515-24.712 13.768-.107.062-.191-.118-.079-.168 2.24-1.119 14.405-8.554 24.701-13.786.118-.061.197.113.09.186Z"/>
  <path fill="#000" d="m159.7 138.824-23.136 12.004s-12.064-26.29-16.177-42.014c-1.508-5.794-1.609-9.38-.439-10.987l39.758 40.997h-.006Z" opacity=".1"/>
  <path fill="#90CAF9" d="m150.855 179.276-3.854-24.194s7.557-9.481 2.599-19.872c-2.503-5.26-15.163-31.128-24.262-37.569-7.472-5.288-20.154-2.433-24.38 4.867-9.565 16.517-19.068 35.934-24.594 76.79l74.491-.022Z"/>
  <path fill="#fff" d="M94.684 115.237a1.703 1.703 0 0 0-1.7 1.698c.001.162.023.32.074.472a1.702 1.702 0 0 0 1.626 1.242c.957 0 1.716-.776 1.716-1.714a1.7 1.7 0 0 0-1.716-1.698Zm0 3.119c-.77 0-1.4-.629-1.406-1.416 0-.438.202-.832.517-1.084l.006-.006c.236-.202.546-.32.883-.32.788 0 1.424.635 1.424 1.405 0 .769-.636 1.421-1.424 1.421Zm17.527-3.119c-.934 0-1.699.765-1.699 1.698 0 .932.765 1.714 1.699 1.714a1.73 1.73 0 0 0 1.716-1.714 1.7 1.7 0 0 0-1.716-1.698Zm0 3.119a1.416 1.416 0 0 1-1.406-1.421c0-.787.635-1.405 1.406-1.405.771 0 1.424.635 1.424 1.405 0 .769-.636 1.421-1.424 1.421Zm17.522-3.119c-.935 0-1.7.765-1.7 1.698 0 .932.765 1.714 1.7 1.714a1.73 1.73 0 0 0 1.716-1.714c0-.939-.76-1.698-1.716-1.698Zm0 3.119a1.417 1.417 0 0 1-1.407-1.421c0-.787.636-1.405 1.407-1.405.77 0 1.423.635 1.423 1.405 0 .769-.636 1.421-1.423 1.421Zm-26.282-17.078c-.934 0-1.7.764-1.7 1.697s.766 1.714 1.7 1.714a1.73 1.73 0 0 0 1.716-1.714 1.7 1.7 0 0 0-1.716-1.697Zm0 3.119a1.417 1.417 0 0 1-1.407-1.422c0-.787.636-1.405 1.407-1.405.77 0 1.423.635 1.423 1.405s-.636 1.422-1.423 1.422Zm17.521-3.119c-.934 0-1.699.764-1.699 1.697s.765 1.714 1.699 1.714a1.73 1.73 0 0 0 1.716-1.714 1.7 1.7 0 0 0-1.716-1.697Zm0 3.119a1.417 1.417 0 0 1-1.407-1.422c0-.787.636-1.405 1.407-1.405s1.423.635 1.423 1.405-.635 1.422-1.423 1.422Zm-26.288 39.007c-.934 0-1.699.764-1.699 1.697s.765 1.714 1.7 1.714c.933 0 1.715-.775 1.715-1.714a1.7 1.7 0 0 0-1.716-1.697Zm0 3.119c-.77 0-1.406-.635-1.406-1.422 0-.786.635-1.405 1.406-1.405.771 0 1.424.635 1.424 1.405s-.636 1.422-1.424 1.422Zm17.527-3.119c-.934 0-1.699.764-1.699 1.697s.765 1.714 1.699 1.714 1.716-.775 1.716-1.714a1.7 1.7 0 0 0-1.716-1.697Zm0 3.119a1.417 1.417 0 0 1-1.406-1.422c0-.786.635-1.405 1.406-1.405.771 0 1.424.635 1.424 1.405s-.636 1.422-1.424 1.422Zm17.522-3.119c-.935 0-1.7.764-1.7 1.697s.765 1.714 1.7 1.714c.934 0 1.716-.775 1.716-1.714a1.7 1.7 0 0 0-1.716-1.697Zm0 3.119a1.417 1.417 0 0 1-1.407-1.422c0-.786.636-1.405 1.407-1.405.77 0 1.423.635 1.423 1.405s-.636 1.422-1.423 1.422Zm17.526-3.119c-.934 0-1.699.764-1.699 1.697s.765 1.714 1.699 1.714a1.73 1.73 0 0 0 1.717-1.714c0-.938-.76-1.697-1.717-1.697Zm0 3.119c-.77 0-1.406-.635-1.406-1.422 0-.786.636-1.405 1.406-1.405.771 0 1.424.635 1.424 1.405s-.636 1.422-1.424 1.422Zm-59.698-15.887c-.073.196-.146.399-.22.601a1.39 1.39 0 0 1-.253.725h-.005c-.073.208-.141.41-.214.613a1.716 1.716 0 0 0 .692-1.939Zm15.89-1.192c-.934 0-1.7.765-1.7 1.698 0 .932.766 1.714 1.7 1.714a1.73 1.73 0 0 0 1.716-1.714c0-.939-.76-1.698-1.716-1.698Zm0 3.119a1.417 1.417 0 0 1-1.407-1.421c0-.787.636-1.405 1.407-1.405.77 0 1.423.635 1.423 1.405 0 .769-.636 1.421-1.423 1.421Zm17.521-3.119c-.934 0-1.699.765-1.699 1.698 0 .932.765 1.714 1.699 1.714a1.73 1.73 0 0 0 1.716-1.714c0-.939-.76-1.698-1.716-1.698Zm0 3.119a1.417 1.417 0 0 1-1.407-1.421c0-.787.636-1.405 1.407-1.405s1.423.635 1.423 1.405a1.43 1.43 0 0 1-1.423 1.421Zm17.521-3.119c-.934 0-1.699.765-1.699 1.698 0 .932.765 1.714 1.699 1.714a1.73 1.73 0 0 0 1.716-1.714 1.7 1.7 0 0 0-1.716-1.698Zm0 3.119a1.416 1.416 0 0 1-1.406-1.421c0-.787.635-1.405 1.406-1.405.771 0 1.424.635 1.424 1.405 0 .769-.636 1.421-1.424 1.421Zm-61.004 39.036c-.01.095-.028.191-.045.292a1.414 1.414 0 0 1 1.142 1.377 1.42 1.42 0 0 1-1.423 1.422c-.045 0-.09 0-.14-.006-.012.096-.029.191-.04.287.062.005.124.011.186.011.956 0 1.716-.775 1.716-1.714a1.7 1.7 0 0 0-1.39-1.669h-.006Zm17.195-.028c-.934 0-1.699.764-1.699 1.697s.765 1.714 1.7 1.714c.933 0 1.715-.775 1.715-1.714a1.7 1.7 0 0 0-1.716-1.697Zm0 3.119c-.77 0-1.406-.635-1.406-1.422 0-.787.635-1.405 1.406-1.405.771 0 1.424.635 1.424 1.405s-.636 1.422-1.424 1.422Zm17.527-3.119c-.934 0-1.699.764-1.699 1.697s.765 1.714 1.699 1.714 1.716-.775 1.716-1.714a1.7 1.7 0 0 0-1.716-1.697Zm0 3.119a1.417 1.417 0 0 1-1.406-1.422c0-.787.635-1.405 1.406-1.405.771 0 1.424.635 1.424 1.405s-.636 1.422-1.424 1.422Zm17.522-3.119c-.935 0-1.7.764-1.7 1.697s.765 1.714 1.7 1.714c.934 0 1.716-.775 1.716-1.714a1.7 1.7 0 0 0-1.716-1.697Zm0 3.119a1.417 1.417 0 0 1-1.407-1.422c0-.787.636-1.405 1.407-1.405.77 0 1.423.635 1.423 1.405s-.636 1.422-1.423 1.422Zm17.526-3.119c-.934 0-1.699.764-1.699 1.697s.765 1.714 1.699 1.714a1.73 1.73 0 0 0 1.717-1.714c0-.938-.76-1.697-1.717-1.697Zm0 3.119c-.77 0-1.406-.635-1.406-1.422 0-.787.636-1.405 1.406-1.405.771 0 1.424.635 1.424 1.405s-.636 1.422-1.424 1.422Zm-61.335-17.079c-.934 0-1.7.764-1.7 1.697s.766 1.714 1.7 1.714c.934 0 1.716-.775 1.716-1.714a1.7 1.7 0 0 0-1.716-1.697Zm0 3.119a1.417 1.417 0 0 1-1.407-1.422c0-.786.636-1.405 1.407-1.405.77 0 1.423.635 1.423 1.405s-.636 1.422-1.423 1.422Zm17.527-3.119c-.934 0-1.7.764-1.7 1.697s.766 1.714 1.7 1.714c.934 0 1.716-.775 1.716-1.714a1.7 1.7 0 0 0-1.716-1.697Zm0 3.119a1.417 1.417 0 0 1-1.407-1.422c0-.786.636-1.405 1.407-1.405.77 0 1.423.635 1.423 1.405s-.636 1.422-1.423 1.422Zm17.521-3.119c-.934 0-1.699.764-1.699 1.697s.765 1.714 1.699 1.714 1.716-.775 1.716-1.714a1.7 1.7 0 0 0-1.716-1.697Zm0 3.119a1.417 1.417 0 0 1-1.407-1.422c0-.786.636-1.405 1.407-1.405s1.423.635 1.423 1.405-.635 1.422-1.423 1.422Zm17.521-3.119c-.934 0-1.699.764-1.699 1.697s.765 1.714 1.699 1.714 1.716-.775 1.716-1.714a1.7 1.7 0 0 0-1.716-1.697Zm0 3.119a1.417 1.417 0 0 1-1.406-1.422c0-.786.635-1.405 1.406-1.405.771 0 1.424.635 1.424 1.405s-.636 1.422-1.424 1.422Z"/>
  <path fill="#263238" d="M134.454 148.985c-3.854.472-7.726 1.079-11.473 2.118-1.868.517-3.697 1.119-5.52 1.759-.911.321-1.823.607-2.745.894-.946.292-1.964.567-2.954.618-.09 0-.085.141 0 .141.967.005 1.89.011 2.858-.107.917-.118 1.823-.332 2.712-.568 1.896-.506 3.77-1.101 5.66-1.624 3.815-1.062 7.63-2.119 11.518-2.905.18-.034.129-.343-.056-.321v-.005Zm9.655 3.237c-3.185-.259-6.431-.371-9.627-.27-1.609.05-3.202.197-4.794.382-.765.09-1.525.191-2.284.303-.839.124-1.655.36-2.493.473-.084.011-.084.146 0 .14.793-.079 1.604-.034 2.397-.067.799-.034 1.598-.079 2.397-.113 1.603-.073 3.201-.123 4.805-.208 3.202-.174 6.397-.309 9.605-.371.174 0 .157-.247-.012-.264l.006-.005Z"/>
  <path fill="#D3766A" d="M97.459 104.728c-22.49 22.334-38.334 40.295-37.727 48.606 1.368 18.625 11.94 21.839 13.667 21.165 18.225-7.137 27.813-41.419 34.61-63.055 6.746-21.474-4.108-13.111-10.544-6.716h-.006Z"/>
  <path fill="#90CAF9" d="m65.539 135.424 30.322 14.404s10.825-25.7 14.196-41.593c3.37-15.893-2.909-15.095-16.11-2.169-13.2 12.931-28.408 29.358-28.408 29.358Z"/>
  <path fill="#fff" d="M94.685 115.237c-.934 0-1.7.765-1.7 1.698 0 .932.766 1.714 1.7 1.714a1.73 1.73 0 0 0 1.716-1.714 1.7 1.7 0 0 0-1.716-1.698Zm0 3.119a1.417 1.417 0 0 1-1.407-1.421c0-.787.636-1.405 1.407-1.405.77 0 1.423.635 1.423 1.405a1.43 1.43 0 0 1-1.423 1.421Zm8.766-17.078c-.934 0-1.699.764-1.699 1.697s.765 1.714 1.699 1.714a1.73 1.73 0 0 0 1.716-1.714 1.7 1.7 0 0 0-1.716-1.697Zm0 3.119a1.417 1.417 0 0 1-1.406-1.422c0-.787.635-1.405 1.406-1.405.771 0 1.424.635 1.424 1.405s-.636 1.422-1.424 1.422Zm-8.766 39.007c-.934 0-1.7.764-1.7 1.697s.766 1.714 1.7 1.714c.934 0 1.716-.775 1.716-1.714a1.7 1.7 0 0 0-1.716-1.697Zm0 3.119a1.417 1.417 0 0 1-1.407-1.422c0-.786.636-1.405 1.407-1.405.77 0 1.423.635 1.423 1.405s-.635 1.422-1.423 1.422Zm-24.65-15.91a9.452 9.452 0 0 1-.237.248 1.42 1.42 0 0 1-1.581 1.691c-.084.084-.157.169-.23.247.135.04.27.057.416.057a1.715 1.715 0 0 0 1.632-2.243Zm15.89-1.169c-.935 0-1.7.765-1.7 1.698 0 .932.765 1.714 1.7 1.714a1.73 1.73 0 0 0 1.715-1.714 1.7 1.7 0 0 0-1.716-1.698Zm0 3.119a1.417 1.417 0 0 1-1.407-1.421c0-.787.635-1.405 1.406-1.405.771 0 1.424.635 1.424 1.405 0 .769-.636 1.421-1.424 1.421Zm17.526-3.119c-.934 0-1.699.765-1.699 1.698 0 .618.332 1.163.821 1.466.034-.09.068-.185.102-.281a1.436 1.436 0 0 1-.63-1.185 1.413 1.413 0 0 1 1.558-1.4c.034-.09.062-.18.096-.275a1.186 1.186 0 0 0-.248-.023Z"/>
  <path fill="#263238" d="M71.357 130.585c11.776 7.059 23.052 11.453 25.325 12.606.107.056.186-.124.073-.175-2.29-1.011-14.786-7.873-25.32-12.622-.123-.056-.19.124-.078.191Z"/>
  <path fill="#263238" d="M93.903 148.822c.191 0 1.536.539 1.811.657 2.397-5.76 1.981-4.451 4.434-10.189 1.204-2.815 2.408-5.625 3.607-8.441 1.243-2.928 2.329-5.962 3.73-8.817.04-.085.158-.034.135.056-.737 2.742-1.806 5.423-2.807 8.087.236-.416.455-.843.714-1.253.58-.911 1.148-1.821 1.655-2.771.078-.146.32-.051.241.101-.483.911-.9 1.838-1.311 2.782-.41.944-.877 1.855-1.356 2.765-.461.882-.979 1.725-1.502 2.568-.062.101-.124.208-.191.315-.647 1.669-1.272 3.344-1.953 5.002-2.397 5.794-4.968 10.396-5.064 10.38-.393-.073-2.036-.973-2.2-1.074-.084-.056-.01-.163.068-.163l-.011-.005Zm8.935-78.566c1.75 1.017 4.006 1.056 5.722-.079 1.688-1.118 2.543-3.17 2.312-5.148 1.942.967 4.271.978 5.897-.741 1.683-1.776 1.531-4.328.085-6.177-.012-.01-.034 0-.029.017 1.137 1.827 1.244 4.26-.332 5.879-1.344 1.382-3.044 1.489-4.658.966 1.603-.061 3.201-.623 4.27-1.86 1.176-1.36 1.48-3.377.653-4.968 1.84-.899 3.483-2.5 3.843-4.586.304-1.753-.4-3.619-1.896-4.574 1.615-1.231 2.447-3.406 1.902-5.4-.507-1.872-2.11-3.272-3.978-3.66 2.29-2.034 1.687-5.833-1.171-7.052.692-.86.737-2.085.231-3.08-.58-1.152-1.767-1.793-2.96-2.18.09-1.136-.343-2.31-1.283-3.013-1.254-.938-2.931-.742-4.011.287-1.21-1.647-2.746-3.271-4.817-3.704-1.699-.36-3.64.163-4.625 1.641a6.153 6.153 0 0 0-9.194.343c-1.322-.77-2.982-.702-4.315.067-1.34.77-2.003 1.641-2.28 2.08-1.243-.601-2.756-.281-3.713.714-.94.983-1.136 2.242-1.018 3.512-.158.31-.36.573-.698.837-1.502 1.192-2.312 2.928-2.189 4.84-2.126.758-3.117 3.439-1.991 5.394-1.835 1.388-2.161 4.226-.71 6.002-1.316 1.242-2.076 3.007-1.986 4.828.068 1.399.743 2.928 2.11 3.394-.731.826-.377 2.152.383 2.905.287.287.625.517.968.737.41.253 1.001.466 1.294.854.315.399.27.983.377 1.455.079.338.191.67.337.984 1.12 2.371 3.945 3.703 6.466 3.035.421 1.815 2.21 2.781 3.955 3.107.574.107 1.137.118 1.722.124.534 0 1.001.04 1.468.349.282.185.518.438.8.629.956.64 2.059.54 3.128.32 1.322 4.805 7.416 4.75 9.931.944v-.022Zm-24.425-43.48c.86-1.226 2.278-1.687 3.713-1.338l-.084.157s-.473.011-.698.04a4.48 4.48 0 0 0-3.128 2.09 4.618 4.618 0 0 0-.45 1.073c-.017.05-.034.09-.046.135.057-.759.225-1.484.698-2.158h-.006Zm32.926-1.03c-.979-.955-2.503-1.224-3.719-.618-.022-.028-.045-.056-.067-.09 1.159-.797 2.436-1.208 3.73-.207.9.697 1.142 1.663 1.058 2.658h-.022a3.604 3.604 0 0 0-.985-1.742h.005Zm-18.213 43.52s.034-.005.05-.01c1.706 2.86 5.267 3.664 7.974 2.174-2.87 1.855-6.432 1.799-8.024-2.163Z"/>
  <path fill="#D3766A" d="M108.2 101.469c.456 1.472 8.564 13.111 16.424 11.071 3.303-.86-.011-13.617-.011-13.617l2.082-13.696-17.691-9.57s-.99 25.188-.804 25.812Z"/>
  <path fill="#263238" d="m126.694 85.222-2.02 13.296c-1.997-.18-10.915-1.703-16.024-13.392.191-5.125.36-9.47.36-9.47l17.684 9.566Z"/>
  <path fill="#D3766A" d="M142.747 64.355c6.932 21.608-5.238 28.2-9.909 29.684-4.236 1.349-18.832 5.412-27.964-15.365-9.132-20.776-1.266-30.83 8.26-34.432 9.526-3.603 22.681-1.5 29.613 20.107v.006Z"/>
  <path fill="#263238" d="M135.28 58.561c-.534-.006-1.035.073-1.564.124-.602.056-1.08.033-1.569.427-.265.213-.31.702-.124.978.422.635 1.176.753 1.896.719.787-.04 1.384-.27 1.969-.792.568-.506.107-1.445-.602-1.456h-.006Zm-15.146 8.913c.326-.427.697-.764 1.063-1.152.411-.438.692-.832 1.305-.972.326-.073.743.19.85.506.242.725-.13 1.388-.602 1.938-.518.596-1.064.922-1.84 1.057-.748.13-1.204-.81-.776-1.371v-.006Zm5.165 3.743c-.028-.056-.096.101-.079.163.45 1.478.714 3.248-.5 4.108-.04.028-.012.101.033.079 1.586-.675 1.209-3.024.546-4.35Z"/>
  <path fill="#263238" d="M123.543 70.02c-2.452.466-1.338 5.328.934 4.895 2.234-.422 1.125-5.289-.934-4.895Z"/>
  <path fill="#263238" d="M122.643 70.492c-.36.37-.67.955-1.17 1.118-.58.197-1.142-.213-1.643-.612-.051-.04-.084.011-.073.073.197.933.776 1.81 1.806 1.72.939-.08 1.406-1.057 1.423-2.046 0-.186-.208-.405-.349-.253h.006Zm11.361-1.945c0-.061.135.045.146.107.287 1.518.866 3.21 2.346 3.412.045.005.056.084.005.084-1.721.135-2.469-2.125-2.497-3.608v.005Z"/>
  <path fill="#263238" d="M135.005 66.676c2.391-.72 3.651 4.108 1.44 4.771-2.177.658-3.443-4.17-1.44-4.77Z"/>
  <path fill="#263238" d="M136.097 66.732c.45.158.945.523 1.412.433.54-.101.793-.725.995-1.315.023-.062.068-.028.09.034.265.916.214 1.955-.63 2.366-.765.37-1.569-.264-2.031-1.124-.084-.158-.022-.456.158-.388l.006-.006Zm-10.083 17.281c.427.293.883.714 1.44.663.54-.05 1.114-.404 1.564-.68.045-.028.101.017.079.068-.287.658-1.052 1.169-1.784 1.175-.709 0-1.159-.529-1.44-1.13-.039-.084.073-.14.135-.096h.006Zm2.509-3.073c2.352-1.36 3.658-1.299 5.216-1.591.158-.079.501-.315.478-.484v-.01c-.022-.051-1.074-3.035-1.074-3.035.467.073 2.824.342 2.605-.225-1.812-4.687-3.826-9.897-6.617-14.173-.085-.147-.315-.034-.253.117 1.564 4.57 3.916 8.84 5.559 13.404-.737-.04-1.958-.163-2.532.034-.141.095 1.3 3.158 1.406 3.67 0 0-2.458-.214-5.058 2.079-.579.511-.591.708.27.213Z"/>
  <path fill="#263238" d="M124.832 46.32s1.413 3.17.67 5.744c-1.531 5.3-7.647 4.968-9.346 7.245-1.592 2.13-.309 5.8-1.722 7.901-1.952 2.911-5.339 2.462-5.452 4.226-.112 1.765-.343 7.356-2.391 8.396-2.043 1.04-17.876-33.314 10.516-36.799 0 0 3.612-2.22 10.117-.168 7.179 2.264 11.866 12.734 11.866 12.734s-.163-.123-1.272-.82c-1.558-.984-2.267-2.012-3.398-2.63-1.767-.973-2.554-.366-4.377-1.293-2.786-1.41-5.216-4.535-5.216-4.535h.005Z"/>
  <path fill="#263238" d="M124.146 44.826a19.295 19.295 0 0 1 1.536 4.193c.348 1.427.523 2.95.09 4.304-.445 1.321-1.587 2.36-2.819 3.057-1.261.714-2.718 1.096-4.063 1.917-.652.427-1.283.967-1.654 1.736-.36.753-.428 1.563-.473 2.31-.062 1.5-.129 2.984-.917 4.176-.771 1.191-2.065 2.04-3.516 2.214-1.424.236-3.056.09-4.344.944 1.35-.747 2.881-.472 4.383-.601 1.542-.107 3.01-.967 3.922-2.248.973-1.304 1.018-2.99 1.108-4.44.051-.736.135-1.461.433-2.057.287-.584.839-1.062 1.43-1.433 1.198-.759 2.672-1.18 4.006-1.95a7.64 7.64 0 0 0 1.828-1.433c.524-.562 1.013-1.242 1.199-2.023.411-1.546.141-3.113-.276-4.558a19.633 19.633 0 0 0-1.873-4.102v-.006Z"/>
  <path fill="#263238" d="M124.894 46.029a15.825 15.825 0 0 0 2.009 3.68c.821 1.147 1.963 2.147 3.342 2.659.692.264 1.44.331 2.076.444.613.112 1.283.376 1.694.775.45.461.906 1.063 1.502 1.473a4.656 4.656 0 0 0 1.964.753c-.647-.253-1.266-.562-1.75-1.029-.518-.438-.861-.994-1.317-1.567-.534-.624-1.243-.866-1.958-1.057-.72-.146-1.361-.202-1.963-.45-1.227-.46-2.268-1.32-3.146-2.354-.894-1.023-1.682-2.164-2.453-3.322v-.005Z"/>
  <path fill="#D3766A" d="M110.889 76.77s-6.408-5.812-9.154-3.373c-2.746 2.434 3.168 11.622 7.162 12.156 3.995.534 4.564-3.153 4.564-3.153l-2.572-5.63Z"/>
  <path fill="#263238" d="M103.502 75.988c-.062.006-.051.096 0 .101 2.819.461 4.726 2.54 6.24 4.805-.985-.78-2.15-1.067-3.224.14-.057.063.033.153.101.124 1.007-.466 1.812-.455 2.717.225.642.484 1.16 1.164 1.683 1.776.174.202.562-.017.416-.258-.011-.017-.022-.04-.034-.057-.686-3.304-4.293-7.322-7.905-6.856h.006Z"/>
  <path fill="#90CAF9" d="M107.063 85.02c.265.988-3.426-1.72-3.691-2.192-.259-.472-2.582-1.49-3.319-2.36-.737-.872-2.397-3.524-2.64-4.204-.236-.675-1.907-2.125-2.177-3.35S93.002 60.663 98.691 51.7c5.688-8.963 12.103-10.897 12.103-10.897s4.377-1.82 9.813-2.647c5.441-.826 15.951 9.992 16.036 10.262.084.27-.091 1.197.331 1.9.422.697 1.413 1.298 1.16 2.107-.259.815 1.237 2.434 1.395 3.209.158.776 0 1.017.253 1.517.253.495-5.294-12.538-22.748-13.6 0 0-15.682 20.204-9.971 41.47Z"/>
  <path fill="#90CAF9" d="M139.726 57.01c.011.045.033.09.061.14.023.04 0-.011-.061-.14Z"/>
  <path fill="#90CAF9" d="M139.726 57.01a.503.503 0 0 0 .061.14c.023.04 0-.011-.061-.14Z"/>
  <path fill="#fff" d="M129.62 42.685c.18-.095.371-.152.563-.168a60.74 60.74 0 0 1 1.536 1.242 1.428 1.428 0 0 1-2.667.865 1.426 1.426 0 0 1 .568-1.939Zm-7.905 1.478c.962.197 1.879.433 2.757.703a1.397 1.397 0 0 0-.102-1.147 1.425 1.425 0 0 0-1.941-.562 1.44 1.44 0 0 0-.72 1.006h.006Zm10.994 4.822a25.762 25.762 0 0 1 2.127 1.76c.58-.417.765-1.203.416-1.844a1.435 1.435 0 0 0-1.941-.568 1.404 1.404 0 0 0-.602.652Zm-31.481-.798a1.427 1.427 0 0 0 1.806.36 1.416 1.416 0 0 0 .563-1.933 1.434 1.434 0 0 0-.495-.523c-.613.63-1.249 1.32-1.879 2.096h.005Zm2.915 11.695a1.43 1.43 0 0 0 2.509-1.371 1.43 1.43 0 0 0-2.509 1.371Zm13.059-20.198a1.433 1.433 0 0 0 1.941.568c.692-.377.94-1.248.563-1.939v-.011c-.934.163-1.829.354-2.667.55a1.38 1.38 0 0 0 .169.827l-.006.005Zm-6.831 4.845a1.43 1.43 0 0 0 2.51-1.371 1.43 1.43 0 0 0-2.51 1.371Zm-2.47 7.603a1.43 1.43 0 0 0 2.51-1.371 1.43 1.43 0 0 0-2.51 1.371Zm-10.088 3.895a1.43 1.43 0 0 0 2.51-1.371 1.43 1.43 0 0 0-2.51 1.371Zm2.284 10.61a1.43 1.43 0 0 0 2.51-1.371 1.43 1.43 0 0 0-2.51 1.371Zm4.642 15.432c.349.64 1.12.9 1.784.635a33.148 33.148 0 0 1-.445-2.748 1.42 1.42 0 0 0-1.339 2.108v.005Zm.816-11.93c.124.224.298.404.512.528.096-.871.219-1.737.366-2.591a1.416 1.416 0 0 0-.872 2.057l-.006.005Zm-10.786-5.654c.365.123.776.095 1.136-.102a1.417 1.417 0 0 0 .563-1.933 1.442 1.442 0 0 0-1.401-.736c-.14.956-.242 1.888-.298 2.77Zm5.356 10.554a1.43 1.43 0 0 0 2.51-1.371 1.43 1.43 0 0 0-2.51 1.371Zm-2.037 2.506c.36.602.805 1.304 1.205 1.894a1.413 1.413 0 0 0-1.204-1.888v-.006Zm-2.953-5.164c.247.01.5-.045.737-.175a1.422 1.422 0 0 0 .562-1.939 1.42 1.42 0 0 0-1.637-.685 28.53 28.53 0 0 0 .343 2.799h-.005Z" opacity=".3"/>
  <path fill="#050400" d="M103.378 82.828c-.377-.939-.541-1.945-.721-2.94a77.808 77.808 0 0 1-.472-2.995c-.276-2-.54-4.013-.715-6.025-.045-.5-.095-1.005-.106-1.5.005-.478.123-.967.241-1.45.248-.972.569-1.933.867-2.9.309-.96.635-1.922.973-2.877l1.001-2.866a92.638 92.638 0 0 0-2.233 5.653 37.41 37.41 0 0 0-.923 2.906c-.129.494-.253.995-.27 1.534 0 .523.051 1.023.09 1.529a94.29 94.29 0 0 0 .799 6.03c.175 1 .349 1.995.568 2.99.113.494.231.989.366 1.477.135.49.287.978.523 1.428l.012.006ZM99.77 62.281c-.59 1.057-1.062 2.175-1.49 3.305a24.304 24.304 0 0 0-1.035 3.484c-.242 1.192-.439 2.394-.428 3.62.006 1.213.158 2.444.602 3.574a23.01 23.01 0 0 0-.185-.883 2.34 2.34 0 0 1-.062-.444l-.04-.45c-.01-.145-.033-.297-.045-.443v-.45c0-.298-.028-.595.012-.893l.061-.894.119-.888c.033-.298.09-.59.146-.882.056-.292.101-.59.174-.883.242-1.174.585-2.326.945-3.473.18-.573.377-1.14.591-1.702.197-.568.422-1.13.647-1.692l-.011-.006Zm36.895-12.543c-.726-.9-1.632-1.63-2.504-2.372a70.303 70.303 0 0 0-2.712-2.13c-.934-.674-1.84-1.371-2.853-1.955a11.673 11.673 0 0 0-3.235-1.214c.54.19 1.075.399 1.592.646.518.236 1.024.5 1.503.804.478.303.934.646 1.395.983l1.384 1.023 2.757 2.057c.462.343.912.691 1.362 1.045.456.349.9.708 1.311 1.113Zm1.491 3.214c-.473-.685-1.024-1.303-1.587-1.916a23.426 23.426 0 0 0-1.778-1.742c-.315-.27-.641-.54-.99-.77-.349-.22-.698-.45-1.052-.663l-1.064-.646c-.36-.203-.714-.422-1.08-.613.321.264.658.506.985.759l1.001.725c.332.247.675.472 1.013.708.332.23.641.494.951.764.619.534 1.215 1.102 1.817 1.663.298.282.597.568.895.855.304.28.591.573.883.87l.006.006ZM99.9 49.923c3.011.568 9.892 1.782 11.304 1.355.332-.102.805-.315 1.379-.602 2.369-4.44 4.451-7.12 4.451-7.12 2.183.135 4.186.455 6.009.916 1.508-1.444 3.027-3.614 3.573-4.417-2.183-1.304-4.333-2.153-6.01-1.9-5.44.826-9.812 2.647-9.812 2.647s-5.543 1.67-10.9 9.121h.006Z" opacity=".1"/>
  <path fill="#90CAF9" d="M115.402 40.752s3.984-8.306 11.816-10.037c0 0 .517 7.879-1.992 10.762-1.249 1.433-7.399 2.624-8.237 1.674-.839-.955-1.587-2.394-1.587-2.394v-.005Z"/>
  <path fill="#fff" d="M122.925 32.457a1.425 1.425 0 0 1-2.149 1.55 16.155 16.155 0 0 1 2.155-1.545l-.006-.005Zm2.594 5.828c.208.376.563.623.956.708.265-.883.451-1.85.563-2.793a1.429 1.429 0 0 0-1.514 2.09l-.005-.005Zm-8.311 1.399a1.43 1.43 0 0 0 2.51-1.371 1.43 1.43 0 0 0-2.51 1.371Z" opacity=".3"/>
  <path fill="#050400" d="M115.402 40.757s.754 1.433 1.581 2.383c.028.04.073.079.135.107a.55.55 0 0 0 .192.095c.05.006.095.034.163.045.737.203 2.07.102 3.449-.185-.282-1.034-.726-2.366-1.216-3.316-.422-.815-1.519-1.45-2.593-1.905-1.154 1.58-1.717 2.776-1.717 2.776h.006Z" opacity=".1"/>
  <path fill="#90CAF9" d="M113.585 42.033s-11.214-.534-16.272 2.416c0 0 3.499 5.44 9.177 6.278 2.543.376 9.312-4.884 8.783-6.137-.529-1.253-1.688-2.552-1.688-2.552v-.005Z"/>
  <path fill="#fff" d="M101.667 46.046a1.436 1.436 0 0 1 1.942.567 1.432 1.432 0 0 1-.569 1.939 1.435 1.435 0 0 1-1.941-.568 1.431 1.431 0 0 1 .568-1.938Zm8.716-1.518a1.43 1.43 0 0 0 2.509-1.371 1.43 1.43 0 0 0-2.509 1.371Zm-2.245 5.93c.332-.113.675-.265 1.035-.434-.236 0-.472.051-.692.175a1.461 1.461 0 0 0-.343.258Z" opacity=".3"/>
  <path fill="#050400" d="M111.036 41.994c-.096 1.045-.051 2.523.585 3.624.348.619.962 1.175 1.642 1.658 1.322-1.13 2.206-2.203 2.009-2.697-.524-1.242-1.688-2.552-1.688-2.552s-1.001-.05-2.543-.033h-.005Z" opacity=".1"/>
  <path fill="#90CAF9" d="M112.69 44.652a3.644 3.644 0 0 0 5.053 1.028 3.634 3.634 0 0 0 1.029-5.046 3.643 3.643 0 0 0-5.052-1.029 3.634 3.634 0 0 0-1.03 5.047Z"/>
  <path fill="#D3766A" d="M74.108 173.588c4.068-7.345 6.972-23.862-1.66-56.002-1.192-4.445-33.86 1.81-32.831 6.621 1.3 6.063 7.652 29.318 8.327 30.959 5.734 13.848 23.401 23.402 26.159 18.417l.005.005Z"/>
  <path fill="#263238" d="M76.849 167.525c.888-2.378 1.44-4.873 1.81-7.385.175-1.259.322-2.523.4-3.788.09-1.287.057-2.562-.01-3.833a75.3 75.3 0 0 0-.789-7.558c-.382-2.501-.877-4.996-1.586-7.424.394 2.495.67 5.002.917 7.508.242 2.507.445 5.013.557 7.519.045 1.254.084 2.501.017 3.738a92.827 92.827 0 0 1-.281 3.748c-.242 2.495-.546 4.991-1.035 7.475Z"/>
  <path fill="#D3766A" d="M56.43 131.327c-3.76-.096-23.981-1.641-28.708-3.052-8.09-2.416-15.057-5.833-13.768-9.402 1.182-3.282 10.179-.219 10.179-.219s-12.469-7.328-10.95-12.251c1.131-3.664 6.685-.292 6.685-.292s-5.779-4.749-3.337-7.705c2.026-2.45 13.926 5.058 13.926 5.058s-11.175-8.453-6.797-11.583c2.875-2.057 8.159 4.474 14.804 6.345.585.163 6.33 1.338 12.03 2.484 5.93 1.197 22.174 17.697 22.174 17.697l-16.244 12.92h.005Z"/>
  <path fill="#263238" d="M30.631 103.419c3.933 2.203 6.865 2.933 9.498 3.636.079.022.056.241-.034.23-4.687-.545-6.037-1.023-9.621-3.67-.197-.146-.034-.303.157-.196Zm-10.493 2.658c6.678 4.681 10.46 5.979 18.376 7.654.113.023.085.214-.034.202-7.905-.994-12.468-1.927-18.528-7.48-.276-.252-.124-.59.186-.37v-.006Zm4.147 12.442c4.433 1.287 5.71 1.467 10.493 2.4.124.022.13.292 0 .287-4.827-.231-6.583-.399-10.555-2.451-.304-.157-.26-.326.062-.23v-.006Z"/>
  <path fill="#D3766A" d="M72.673 118.407s-3.696-15.46-10.583-20.934c-3.455-2.743-19.705-10.565-21.635-7.306-2.492 4.21 5.576 10.616 9.937 13.24 0 0-5.773 9.728-.98 15.579 4.795 5.85 23.261-.579 23.261-.579Z"/>
  <path fill="#263238" d="M40.151 91.544c.501 5.474 6.448 8.548 10.488 11.414.31.219.242.539.029.742-2.15 4.237-3.945 10.84-1.565 15.258.068.129-.107.247-.19.123-3.197-4.389-1.965-11.02.686-15.511-4.192-2.871-10.021-6.215-9.498-12.02 0-.034.05-.04.05 0v-.006Z"/>
  <path fill="#D3766A" d="M159.261 173.476c-4.068-7.345-6.971-23.862 1.66-56.002 1.193-4.445 33.861 1.81 32.832 6.62-1.3 6.064-7.653 29.319-8.328 30.96-5.733 13.847-23.401 23.401-26.158 18.416l-.006.006Z"/>
  <path fill="#263238" d="M156.527 167.412c-.889-2.377-1.441-4.872-1.812-7.384a50.396 50.396 0 0 1-.399-3.788c-.09-1.287-.057-2.563.011-3.833.129-2.54.405-5.058.788-7.559.382-2.5.877-4.996 1.586-7.423-.394 2.495-.669 5.001-.917 7.508a147.314 147.314 0 0 0-.557 7.519c-.045 1.253-.084 2.501-.017 3.737.073 1.253.158 2.501.281 3.749.242 2.495.546 4.99 1.036 7.474Z"/>
  <path fill="#D3766A" d="M176.94 131.215c3.759-.096 23.981-1.641 28.707-3.052 8.091-2.417 15.057-5.833 13.769-9.402-1.182-3.282-10.179-.219-10.179-.219s12.469-7.329 10.95-12.252c-1.131-3.664-6.685-.292-6.685-.292s5.779-4.749 3.337-7.705c-2.026-2.45-13.926 5.058-13.926 5.058s11.174-8.452 6.797-11.582c-2.875-2.057-8.159 4.473-14.804 6.345-.585.163-6.33 1.337-12.03 2.484-5.93 1.197-22.174 17.697-22.174 17.697l16.244 12.92h-.006Z"/>
  <path fill="#263238" d="M202.739 103.306c-3.933 2.203-6.865 2.934-9.498 3.636-.079.023-.056.242.034.231 4.687-.545 6.037-1.023 9.621-3.67.197-.146.034-.303-.157-.197Zm10.493 2.653c-6.679 4.681-10.46 5.979-18.377 7.654-.112.023-.084.214.034.202 7.906-.994 12.469-1.927 18.529-7.48.275-.252.123-.59-.186-.37v-.006Zm-4.147 12.448c-4.433 1.287-5.711 1.467-10.493 2.4-.124.022-.13.292 0 .286 4.827-.23 6.583-.399 10.555-2.45.304-.157.259-.326-.062-.23v-.006Z"/>
  <path fill="#D3766A" d="M160.696 118.295s3.697-15.461 10.584-20.934c3.455-2.743 19.704-10.566 21.634-7.306 2.493 4.209-5.576 10.616-9.936 13.24 0 0 5.773 9.728.979 15.578-4.794 5.851-23.261-.578-23.261-.578Z"/>
  <path fill="#263238" d="M193.224 91.432c-.501 5.473-6.448 8.547-10.488 11.414-.309.219-.242.539-.028.741 2.149 4.238 3.944 10.841 1.564 15.258-.067.13.107.248.191.124 3.196-4.389 1.964-11.021-.686-15.511 4.192-2.872 10.021-6.215 9.498-12.02 0-.035-.051-.04-.051 0v-.006ZM6.341 239.74c70.896-.343 150.428-.349 221.323 0-70.895.349-150.427.344-221.323 0Z"/>
  <path fill="#455A64" d="m153.444 34.969-.912 5.344c-.394 2.304-2.413 3.737-4.72 3.344-2.139-.365-3.736-2.41-3.348-4.715l1.457-8.548c.011-.084.096-.067.113-.151-.045-.064-.064-.124-.057-.18.366-2.136 2.583-3.704 4.721-3.344 5.182.882 10.083-2.512 10.955-7.61.883-5.181-2.628-9.919-7.81-10.8-3.376-.574-6.645.73-8.67 3.174a4.13 4.13 0 0 1-5.852.529c-1.699-1.473-1.947-3.968-.461-5.75A17.519 17.519 0 0 1 155.216.25c9.549 1.624 16.047 10.684 14.421 20.22-1.389 8.138-8.231 13.994-16.193 14.5Zm-3.072 18-.253 1.478c-.394 2.304-2.414 3.732-4.721 3.344-2.138-.365-3.742-2.41-3.348-4.715l.253-1.478c.377-2.22 2.583-3.703 4.721-3.344 2.307.394 3.725 2.495 3.348 4.715Z"/>
</svg>
