<svg xmlns="http://www.w3.org/2000/svg" width="224" height="240" fill="none" viewBox="0 0 224 240">
  <path fill="#EBEBEB" d="m198.912 132.907 7.211-.152 3.553-.059c1.183-.027 2.355 0 3.538-.033l-.243.244-.027-6.068.27.271-7.151-.038c-2.387 0-4.769-.06-7.151-.087l.146-.146c0 .992-.048 1.99-.07 2.999l-.076 3.069Zm0 0-.081-3.004c0-1.014-.059-2.034-.07-3.064v-.168h.151c2.382 0 4.764-.082 7.151-.087l7.151-.033h.27v.271l-.032 6.069v.287h-.238c-1.21 0-2.414 0-3.619-.027l-3.597-.059-7.086-.185Zm7.978 7.652 7.21-.151 3.554-.06c1.183-.027 2.36 0 3.537-.033l-.243.244v-6.068l.27.271-7.15-.038c-2.388 0-4.769-.06-7.151-.087l.146-.146c0 .992-.049 1.99-.071 2.999l-.102 3.069Zm0 0-.076-3.004c-.027-1.014-.065-2.034-.075-3.064v-.147h.151c2.382-.027 4.763-.081 7.151-.086l7.15-.033h.27v.271l-.032 6.069v.244h-.238c-1.204 0-2.414 0-3.618-.027l-3.597-.06-7.086-.163Zm-15.987-.005h14.302v-6.069h-14.302v6.069ZM2.822 182.449l7.215-.152 3.554-.06c1.177 0 2.355 0 3.532-.032l-.237.244-.033-6.069.27.271-7.15-.038c-2.382 0-4.764-.059-7.151-.087l.145-.146c0 .992-.043 1.99-.07 2.999l-.075 3.07Zm0 0-.076-3.005c-.027-1.014-.06-2.034-.07-3.064v-.146h.146c2.387-.028 4.769-.082 7.15-.087l7.151-.033h.27v6.584h-.243c-1.204 0-2.414 0-3.613-.027l-3.608-.071-7.107-.151Zm7.983 7.646h14.301v-6.068H10.805v6.068ZM39.877 69.108l7.216-.151 3.554-.06c1.177-.027 2.355 0 3.532-.027l-.238.238-.032-6.068.27.27-7.15-.032c-2.383 0-4.77-.06-7.152-.092l.146-.146c0 .992-.043 1.995-.07 3.004l-.076 3.064Zm0 0-.075-2.999c0-1.014-.06-2.039-.07-3.07v-.146h.145c2.382-.027 4.77-.087 7.151-.087l7.151-.037h.27v.27l-.027 6.07v.243h-.237c-1.205 0-2.415 0-3.614-.032l-3.597-.06-7.096-.152ZM10.73 16.655h14.3v-6.069H10.729v6.069Zm-7.973 7.652 7.21-.136 3.554-.06h3.538l-.243.24v-6.07l.27.272-7.156-.076c-2.387 0-4.77-.06-7.151-.092l.146-.147c0 .993-.049 1.99-.07 3.005l-.098 3.064Zm0 0-.08-3c0-1.013-.06-2.038-.07-3.069v-.146h.15c2.382 0 4.764-.087 7.151-.092l7.151-.033h.27v.271l-.032 6.069v.244h-.238c-1.21 0-2.414 0-3.619-.032l-3.597-.06-7.086-.152Zm196.155-7.652 7.211-.152 3.553-.06h3.538l-.243.239-.027-6.069.27.271-7.151-.032c-2.387 0-4.769-.06-7.151-.092l.146-.147c0 .993-.048 1.99-.07 3.005l-.076 3.037Zm0 0-.081-3c0-1.013-.059-2.038-.07-3.069v-.146h.151c2.382 0 4.764-.087 7.151-.092l7.151-.033h.27v.298l-.032 6.069v.244h-.238c-1.21 0-2.414 0-3.619-.033l-3.613-.086-7.07-.152Zm-22.608 75.887h14.302v-6.069h-14.302v6.07ZM24.097 48.25a1.702 1.702 0 0 1 1.782 0l.459.266c.157.082.313.163.475.239a1.708 1.708 0 0 1 .994 1.48l.065 2.202 7.15-.222-.07-2.202a1.725 1.725 0 0 1 .897-1.55 9.88 9.88 0 0 0 .907-.543 1.696 1.696 0 0 1 1.777-.114l1.928 1.036 3.381-6.33-1.928-1.04a1.698 1.698 0 0 1-.89-1.546c.01-.362 0-.724-.033-1.085a1.702 1.702 0 0 1 .788-1.627l1.863-1.111L39.862 30l-1.847 1.145a1.691 1.691 0 0 1-1.777 0 7.514 7.514 0 0 0-.454-.26 6.466 6.466 0 0 0-.475-.24 1.71 1.71 0 0 1-.994-1.485l-.08-2.218-7.152.222.07 2.17a1.704 1.704 0 0 1-.896 1.55 9.732 9.732 0 0 0-.907.543 1.686 1.686 0 0 1-1.777.114l-1.928-1.036-3.381 6.377 1.928 1.042a1.688 1.688 0 0 1 .886 1.545c-.007.362.005.724.037 1.085a1.709 1.709 0 0 1-.788 1.627l-1.864 1.16 3.781 6.102 1.853-1.193Zm1.787-11.334a5.873 5.873 0 0 1 2.405-2.417 5.84 5.84 0 0 1 6.48.638 5.885 5.885 0 0 1 1.892 2.84 5.908 5.908 0 0 1 .001 3.416 5.886 5.886 0 0 1-1.889 2.841 5.847 5.847 0 0 1-6.48.643 5.884 5.884 0 0 1-2.844-3.48 5.912 5.912 0 0 1 .435-4.481Zm185.499 85.167a1.19 1.19 0 0 1 1.107-.586h.74a1.186 1.186 0 0 1 1.08.58l.767 1.34 4.321-2.517-.767-1.334a1.193 1.193 0 0 1 .043-1.253c.137-.213.261-.43.373-.65a1.197 1.197 0 0 1 1.08-.662h1.534v-5.033h-1.534a1.182 1.182 0 0 1-1.08-.656 6.362 6.362 0 0 0-.373-.651 1.193 1.193 0 0 1-.043-1.253l.767-1.339-4.321-2.511-.772 1.339a1.18 1.18 0 0 1-1.08.586h-.74a1.198 1.198 0 0 1-1.107-.586l-.767-1.339-4.321 2.511.767 1.334c.11.192.164.411.156.633a1.184 1.184 0 0 1-.199.62 9.58 9.58 0 0 0-.373.651 1.184 1.184 0 0 1-1.08.661h-1.534v5.033h1.534a1.194 1.194 0 0 1 1.08.662c.111.224.236.441.373.65.123.184.192.399.199.621.008.221-.046.44-.156.632l-.767 1.334 4.321 2.517.772-1.334Zm-2.63-7.593a4.136 4.136 0 0 1 .689-2.291 4.09 4.09 0 0 1 6.316-.631 4.126 4.126 0 0 1 .892 4.493 4.096 4.096 0 0 1-3.792 2.545 4.1 4.1 0 0 1-2.896-1.209 4.135 4.135 0 0 1-1.204-2.907h-.005ZM3.654 58.159a1.186 1.186 0 0 1 .584 1.112v.742a1.192 1.192 0 0 1-.578 1.085l-1.334.77 2.506 4.339 1.318-.732a1.19 1.19 0 0 1 1.247.043c.21.136.427.266.648.38a1.184 1.184 0 0 1 .66 1.057v1.54h5.006v-1.54a1.186 1.186 0 0 1 .653-1.057c.224-.114.44-.24.648-.38a1.191 1.191 0 0 1 1.248-.043l1.334.77 2.5-4.339-1.333-.775a1.201 1.201 0 0 1-.584-1.085v-.737a1.208 1.208 0 0 1 .584-1.112l1.334-.77-2.501-4.339-1.329.77a1.179 1.179 0 0 1-1.247-.043 8.165 8.165 0 0 0-.648-.374 1.19 1.19 0 0 1-.66-1.085v-1.54H8.716v1.54a1.202 1.202 0 0 1-.659 1.085c-.223.111-.44.236-.648.374a1.19 1.19 0 0 1-1.253.043l-1.323-.77-2.506 4.339 1.328.732Zm7.562-2.641a4.092 4.092 0 0 1 2.282.692 4.136 4.136 0 0 1 .628 6.342 4.089 4.089 0 0 1-4.474.896 4.108 4.108 0 0 1-1.844-1.518 4.134 4.134 0 0 1 .51-5.202 4.102 4.102 0 0 1 2.898-1.21ZM48.255 240c21.655 0 39.21-2.523 39.21-5.635 0-3.112-17.555-5.635-39.21-5.635-21.656 0-39.211 2.523-39.211 5.635 0 3.112 17.555 5.635 39.21 5.635Z"/>
  <path fill="#90CAF9" d="M190.946 173.977c-3.996-8.248-10.99-12.473-18.903-10.146-7.912 2.326-9.106 13.379-3.24 16.166 5.865 2.788 11.768-5.347 14.879-7.023 3.111-1.676 7.264 1.003 7.264 1.003Z"/>
  <path fill="#263238" d="M194.819 195.942c0-.993-.06-1.991-.097-2.983-.071-1.985-.135-3.97-.206-5.966-.135-3.628-.54-7.196-2.025-10.543a16.306 16.306 0 0 0-6.341-7.337 13.317 13.317 0 0 0-3.332-1.448 7.763 7.763 0 0 0-3.894-2.169c-1.825-.373-3.7-.42-5.541-.141-.07 0-.065.113 0 .103a13.38 13.38 0 0 1 5.249.374 11.3 11.3 0 0 1 2.112.83c.425.229.833.488 1.221.775a11.296 11.296 0 0 0-4.818.049c-.57.134-1.128.315-1.669.542a5.205 5.205 0 0 0-1.318-.114 8.336 8.336 0 0 0-1.706.244 12.795 12.795 0 0 0-3.241 1.427c-.059.032 0 .119.054.086.995-.544 2.06-.947 3.165-1.198.534-.12 1.075-.2 1.62-.239.303-.016.606-.016.908 0a10.484 10.484 0 0 0-5.099 5.104c-.027.059.065.113.092.048a9.633 9.633 0 0 1 2.648-3.354 9.601 9.601 0 0 1 3.833-1.874c.173-.043.351-.065.54-.103-.059.255-.048.543-.081.798-.054.401-.119.802-.2 1.198a20.612 20.612 0 0 1-.642 2.419c-.267.799-.586 1.58-.956 2.337a10.902 10.902 0 0 1-1.348 2.282.047.047 0 0 0-.004.024c0 .008.003.016.007.023a.055.055 0 0 0 .016.018.05.05 0 0 0 .023.009.055.055 0 0 0 .045-.014.057.057 0 0 0 .013-.021c.47-.743 1.021-1.431 1.453-2.201.42-.739.781-1.51 1.08-2.305.304-.803.539-1.63.702-2.473.092-.445.157-.895.211-1.345.051-.27.068-.545.049-.819.926-.14 1.866-.158 2.797-.054-.345 1.968-.723 4.018-1.82 5.727-.038.059.06.113.092.048.514-.906.965-1.846 1.35-2.814.364-.939.593-1.925.681-2.929 1.627.219 3.198.747 4.628 1.557a15.354 15.354 0 0 1 6.163 6.768 25.562 25.562 0 0 1 2.284 9.707c.26 4.214.314 8.461.735 12.664.027.276.459.368.54.054.092-.921.101-1.849.027-2.771Zm-9.241-27.484a4.67 4.67 0 0 0-.907-.847c-.33-.271-.665-.542-1.016-.77a7.674 7.674 0 0 0-2.268-1.085c-.065 0-.092.092 0 .103a6.08 6.08 0 0 1 2.241 1.085c.335.249.654.51.967.787.278.292.585.554.918.781.033.076.108.005.065-.054Z"/>
  <path fill="#263238" d="M172.82 171.445a24.695 24.695 0 0 0-1.835 2.435c-.544.855-1 1.764-1.361 2.711 0 .028.032.044.048 0a32.757 32.757 0 0 1 3.24-5.097c.027-.028-.048-.098-.092-.049Zm8.599-.814a6.008 6.008 0 0 1-.448 1.491c-.221.46-.476.902-.762 1.323 0 .027 0 .055.044.033a5.358 5.358 0 0 0 1.268-2.825c.011-.054-.091-.092-.102-.022Z"/>
  <path fill="#90CAF9" d="M194.262 174.184s5.661-7.148 16.581-4.616c10.386 2.408 15.177 21.531 4.688 23.814-10.488 2.283-8.641-15.402-12.47-18.407-2.804-2.207-6.838-1.73-8.799-.791Z"/>
  <path fill="#263238" d="M219.285 180.014a21.862 21.862 0 0 0-2.252-1.736 9.947 9.947 0 0 0-2.398-1.204 15.003 15.003 0 0 0-1.426-1.838 14.375 14.375 0 0 0-3.3-2.641h.324c.578-.03 1.156-.03 1.734 0a9.672 9.672 0 0 1 3.375.84c.06 0 .103-.07.044-.092a15.233 15.233 0 0 0-3.365-1.02 9.49 9.49 0 0 0-1.707-.146c-.307.002-.613.02-.918.054h-.178a14.627 14.627 0 0 0-3.149-1.16l.308-.087a16.13 16.13 0 0 1 1.62-.266 12.716 12.716 0 0 1 3.273.049.06.06 0 0 0 .027-.02.05.05 0 0 0 .01-.032.05.05 0 0 0-.01-.031.048.048 0 0 0-.027-.02 20.978 20.978 0 0 0-3.305-.13c-.926.025-1.847.145-2.749.358a14.138 14.138 0 0 0-1.988-.228c-3.813-.163-7.966 1.263-10.31 4.409-2.344 3.145-2.803 7.343-3.241 11.139a84.764 84.764 0 0 0-.416 15.95c0 .309.465.255.47-.043.146-4.507.303-9.019.735-13.51.2-2.082.416-4.17.761-6.231a18.63 18.63 0 0 1 1.507-5.13 9.362 9.362 0 0 1 3.689-3.981 12.387 12.387 0 0 1 5.223-1.627 13.889 13.889 0 0 1 4.898.461c-.057.32-.066.648-.027.971.038.407.119.809.243 1.198.116.376.268.739.454 1.085.205.374.459.71.686 1.085.032.054.124 0 .081-.06a5.016 5.016 0 0 1-.848-2.169 9.763 9.763 0 0 1-.13-1.118v-.851a14.493 14.493 0 0 1 4.769 2.527c.265.217.54.44.773.673-.36.337-.673.722-.929 1.144-.374.549-.699 1.13-.972 1.735a14.993 14.993 0 0 0-1.01 3.797c0 .065.097.086.102 0 .204-1.268.626-2.49 1.248-3.612.287-.563.61-1.106.967-1.627.183-.26.372-.542.572-.776.108-.135.227-.276.324-.423a15.15 15.15 0 0 1 3.1 4.382 7.36 7.36 0 0 0-1.269 1.926 16.887 16.887 0 0 0-1.021 2.169 37.48 37.48 0 0 0-1.307 4.469c0 .065.092.086.103 0a19.08 19.08 0 0 1 1.55-4.409 46.63 46.63 0 0 1 1.037-2.029c.377-.62.719-1.261 1.026-1.92a14.212 14.212 0 0 1 1.248 5.082c0 .065.108.06.102 0a17.779 17.779 0 0 0-2.452-7.799c.67.288 1.34.543 1.982.911.822.445 1.584.991 2.269 1.627.048.049.119-.032.07-.075Z"/>
  <path fill="#263238" d="M211.27 180.415c-.324 1.085-.74 2.137-1.037 3.254a12.543 12.543 0 0 0-.47 3.2c0 .032.049.032.054 0 .297-2.19.822-4.342 1.566-6.422a.058.058 0 0 0-.005-.045.08.08 0 0 0-.015-.017.056.056 0 0 0-.043-.013c-.008.001-.015.004-.022.007a.065.065 0 0 0-.018.015.068.068 0 0 0-.01.021Zm6.923-2.684a6.008 6.008 0 0 0-1.447-1.036 10.17 10.17 0 0 0-1.674-.597c-.064 0-.086.087 0 .103.569.145 1.114.37 1.62.667.516.269 1.012.576 1.484.917a.036.036 0 0 0 .015-.008.024.024 0 0 0 .009-.015.032.032 0 0 0 .001-.017.04.04 0 0 0-.008-.014Z"/>
  <path fill="#90CAF9" d="M199.642 164.633s1.042-12.831 10.542-16.991c7.934-3.471 12.476 5.478 6.87 10.961-4.537 4.436-11.812 2.435-17.412 6.03Z"/>
  <path fill="#263238" d="M215.299 150.131a40.194 40.194 0 0 0-4.229 2.013 31.555 31.555 0 0 0-3.278 2.169c.156-.326.291-.662.454-.982.248-.493.513-.981.804-1.448a13.529 13.529 0 0 1 2.096-2.663c.048-.043-.033-.119-.076-.07a20.42 20.42 0 0 0-2.203 2.576c-.327.465-.629.949-.902 1.448-.28.462-.497.96-.643 1.48l-.103.076a31.287 31.287 0 0 0-4.536 4.458c.027-.124.048-.249.086-.368.178-.624.367-1.248.572-1.866a16.22 16.22 0 0 1 1.718-3.742c.038-.054-.054-.109-.092-.049a30.23 30.23 0 0 0-1.987 3.65 13.7 13.7 0 0 0-.659 1.898 8.057 8.057 0 0 0-.308 1.291c-.416.542-.821 1.057-1.205 1.627-4.077 5.83-6.124 12.88-6.616 19.941a61.653 61.653 0 0 0-.108 6.318c.01 2.126.191 4.248.54 6.345.027.136.233.092.233-.038-.049-1.854-.238-3.698-.276-5.553a55.17 55.17 0 0 1 .178-5.575 51.894 51.894 0 0 1 2.074-10.917 39.202 39.202 0 0 1 4.829-10.272c.399-.081.799-.19 1.193-.293.395-.103.951-.244 1.421-.374a14.264 14.264 0 0 0 2.646-.976.05.05 0 0 0 .023-.032.066.066 0 0 0 .001-.02c-.002-.006-.004-.013-.008-.019a.048.048 0 0 0-.031-.022.046.046 0 0 0-.02-.001c-.007.001-.013.004-.019.007a8.55 8.55 0 0 1-2.7.928c-.745.151-1.518.244-2.263.417a37.471 37.471 0 0 1 2.209-2.918c1.81.165 3.635.03 5.401-.401a21.984 21.984 0 0 0 2.765-.868c.956-.368 1.852-.84 2.792-1.236a.05.05 0 0 0 .026-.029.052.052 0 0 0-.001-.039.053.053 0 0 0-.029-.026.048.048 0 0 0-.039.002 15.81 15.81 0 0 1-5.476 1.8 33.099 33.099 0 0 1-5.126.423 33.245 33.245 0 0 1 2.117-2.245c2.495-2.386 5.461-4.577 8.744-5.721.103-.022.071-.125.011-.104Z"/>
  <path fill="#263238" d="M207.565 150.175c-.43.54-.82 1.111-1.167 1.708a9.486 9.486 0 0 0-.836 1.991s0 .038.037 0c.319-.63.583-1.286.907-1.909a9.493 9.493 0 0 1 1.134-1.736c.044-.038-.037-.108-.075-.054Zm8.836 4.268a9.476 9.476 0 0 1-1.95.819c-.65.218-1.312.399-1.982.543-.032 0-.027.059 0 .054.7-.074 1.39-.225 2.058-.45a18.328 18.328 0 0 0 1.923-.868c.064-.038.01-.131-.049-.098Z"/>
  <path fill="#90CAF9" d="M192.254 162.334c-.06.542-1.437-4.664-9.474-9.29-7.291-4.203-16.003-15.136-8.846-22.046 5.773-5.575 20.988 6.579 18.32 31.336Z"/>
  <path fill="#263238" d="M197.784 192.221a143.02 143.02 0 0 0-1.275-16.199 73.122 73.122 0 0 0-3.397-14.518 62.606 62.606 0 0 0-2.02-5.006 11.94 11.94 0 0 0-.032-1.919c-.038-.825-.114-1.627-.189-2.463a94.497 94.497 0 0 0-.254-2.456c-.097-.83-.27-1.627-.302-2.446a.074.074 0 0 0 .002-.026.067.067 0 0 0-.01-.023.054.054 0 0 0-.068-.016.045.045 0 0 0-.02.016.057.057 0 0 0-.007.049c.16.857.256 1.726.286 2.598.065.791.108 1.583.13 2.375.027.797 0 1.589 0 2.386 0 .282 0 .586-.027.895a59.997 59.997 0 0 0-2.441-4.718c.54-3.346-.162-6.844-.843-10.115 0-.065-.113-.032-.097.033.336 1.708.517 3.443.54 5.185.032 1.372-.033 2.744-.038 4.116-.194-.326-.383-.656-.583-.982a75.547 75.547 0 0 0-3.338-5.005 7.794 7.794 0 0 0-.076-2.381 18.764 18.764 0 0 0-.583-2.609 24.823 24.823 0 0 0-.891-2.516c-.351-.825-.81-1.654-1.145-2.5-.032-.076-.135 0-.097.038.429.803.766 1.653 1.004 2.532.269.824.489 1.662.659 2.511.173.846.308 1.698.427 2.56.081.542.13 1.155.227 1.725a62.122 62.122 0 0 0-5.623-6.573c-.048-.049-.118.027-.075.076a74.372 74.372 0 0 1 8.171 11.161l.254.444c-.443-.276-.95-.499-1.366-.732l-2.339-1.291-2.279-1.247c-.389-.217-.772-.445-1.172-.651a9.126 9.126 0 0 1-1.361-.754.054.054 0 0 0-.037-.009.052.052 0 0 0-.033.02.052.052 0 0 0-.009.038.05.05 0 0 0 .02.033c.772.428 1.458 1.084 2.203 1.54.745.456 1.512.944 2.296 1.383 1.425.797 2.975 1.372 4.385 2.202a70.74 70.74 0 0 1 2.701 5.266 48.637 48.637 0 0 0-2.609-1.573c-.567-.32-1.14-.635-1.718-.938a8.659 8.659 0 0 1-1.62-.982.053.053 0 0 0-.033-.004.055.055 0 0 0-.03.016.055.055 0 0 0-.007.064c.936.85 1.973 1.578 3.089 2.169a46.817 46.817 0 0 0 3.149 1.72 72.934 72.934 0 0 1 2.322 5.775c3.381 9.616 4.624 19.822 5.218 29.958.178 3.021.27 6.042.307 9.068.038 3.026-.124 6.041-.118 9.062 0 .087.145.109.162 0 .362-2.679.421-5.423.54-8.102.119-2.679.129-5.51.07-8.26Z"/>
  <path fill="#263238" d="M183.186 148.694a38.638 38.638 0 0 1-4.267-2.212 46.924 46.924 0 0 1-4.056-2.587s-.043 0-.027.038a34.593 34.593 0 0 0 3.894 2.711 39.215 39.215 0 0 0 4.407 2.121c.065.049.114-.044.049-.071Zm2.327-10.868a18.192 18.192 0 0 0-.421-1.383.06.06 0 0 0 .007-.027.064.064 0 0 0-.007-.027c-.103-.26-.211-.542-.313-.775l-.038-.098c0-.049-.043-.098-.06-.147-.016-.048-.032 0-.027 0 .006 0 .049.179.076.266a37.92 37.92 0 0 1 1.236 5.624c0 .06.098.06.092 0a18.628 18.628 0 0 0-.545-3.433Z"/>
  <path fill="#37474F" d="m206.274 194.174-.572 6.822-1.755 20.809h-18.801l-1.755-20.809-.573-6.822h23.456Z"/>
  <path fill="#263238" d="m206.274 194.174-.572 6.822h-22.311l-.573-6.822h23.456Z"/>
  <path fill="#37474F" d="M208.116 191.435h-27.145v6.546h27.145v-6.546Z"/>
  <path fill="#263238" d="m2.606 221.805 27.35-.13 27.35-.049 54.701-.092 54.7.087 27.351.048 27.35.136-27.35.13-27.351.049-54.7.092-54.7-.092-27.35-.049-27.35-.13Z"/>
  <path fill="#263238" d="M157.65 14.176H66.374a9.289 9.289 0 0 0-6.585 2.796 9.366 9.366 0 0 0-2.677 6.657v188.729a9.384 9.384 0 0 0 2.672 6.644 9.308 9.308 0 0 0 6.569 2.803h91.275a9.303 9.303 0 0 0 6.586-2.794 9.395 9.395 0 0 0 2.687-6.653V23.629a9.402 9.402 0 0 0-2.676-6.65 9.299 9.299 0 0 0-6.575-2.802Zm3.472 192.346c0 4.968-3.705 8.987-8.274 8.987H71.17c-4.58 0-8.285-4.019-8.285-8.987V30.777c0-10.12 3.705-10.613 8.285-10.613h16.36c.95 0 1.728 1.084 1.728 2.43v.58c0 3.167 1.717 3.167 3.845 3.167h37.807c2.122 0 3.829 0 3.829-3.162v-.586c0-1.345.761-2.43 1.728-2.43h16.365c4.569 0 8.274 1.346 8.274 10.614l.016 175.745Z"/>
  <path fill="#fff" d="M117.165 22.398h-10.321a.634.634 0 0 1-.589-.395.643.643 0 0 1 .138-.697.636.636 0 0 1 .451-.188h10.321a.64.64 0 0 1 0 1.28Z"/>
  <path fill="#fff" d="M161.155 30.777v175.745c0 4.968-3.705 8.987-8.274 8.987h-81.71c-4.58 0-8.285-4.019-8.285-8.987V30.777c0-10.12 3.705-10.613 8.285-10.613h16.36c.95 0 1.727 1.084 1.727 2.43v.58c0 3.167 1.718 3.167 3.846 3.167h37.806c2.128 0 3.829 0 3.829-3.162v-.586c0-1.345.767-2.43 1.734-2.43h16.365c4.585 0 8.317 1.346 8.317 10.614Z"/>
  <path fill="#C7C7C7" d="m72.828 37.485-2.905-2.727 2.905-2.734.448.483-2.386 2.25 2.386 2.251-.448.477Zm80.69-4.43a.576.576 0 0 1-.684.564.572.572 0 0 1-.45-.452.58.58 0 0 1 .244-.59.568.568 0 0 1 .537-.055.572.572 0 0 1 .353.533Zm0 2.039a.576.576 0 0 1-.684.564.571.571 0 0 1-.45-.452.581.581 0 0 1 .244-.59.568.568 0 0 1 .537-.055.574.574 0 0 1 .311.312c.028.07.042.145.042.22Zm0 2.039a.576.576 0 0 1-.684.564.572.572 0 0 1-.45-.452.58.58 0 0 1 .244-.59.568.568 0 0 1 .537-.055.574.574 0 0 1 .311.312c.028.07.042.145.042.221ZM84.703 24.112l-.156.157-.092.087a2.154 2.154 0 0 0-3.045 0l-.086-.092-.156-.158.2-.179c.144-.112.3-.21.464-.293a2.23 2.23 0 0 1 .615-.206c.1-.02.2-.034.302-.043h.475c.194.023.384.069.567.136.13.05.257.11.378.179.128.073.25.159.362.255l.167.151.005.006Z"/>
  <path fill="#C7C7C7" d="m81.913 24.855-.254-.25a1.804 1.804 0 0 1 2.548 0l-.254.25a1.443 1.443 0 0 0-2.04 0Z"/>
  <path fill="#C7C7C7" d="m83.706 25.11-.249.244a.758.758 0 0 0-.54-.217.73.73 0 0 0-.54.222c-.08-.087-.167-.168-.248-.25a1.079 1.079 0 0 1 1.576 0Z"/>
  <path fill="#C7C7C7" d="M83.16 25.581a.229.229 0 0 1-.227.228.218.218 0 0 1-.158-.067.222.222 0 0 1-.063-.16.223.223 0 1 1 .448 0Zm-13.869-.991a.658.658 0 0 1 .405-.608.65.65 0 0 1 .89.482.66.66 0 0 1-.282.673.651.651 0 0 1-1.013-.548Zm2.047-.001a.658.658 0 0 1 .41-.598.65.65 0 0 1 .884.485.659.659 0 0 1-.28.67.65.65 0 0 1-.967-.303.658.658 0 0 1-.047-.254Zm2.052 0a.66.66 0 0 1 .41-.598.65.65 0 0 1 .885.485.659.659 0 0 1-.642.78.652.652 0 0 1-.653-.667Zm2.053 0a.659.659 0 0 1 .412-.599.65.65 0 0 1 .883.49.66.66 0 0 1-.284.669.65.65 0 0 1-.615.056.648.648 0 0 1-.396-.616Zm2.052 0a.658.658 0 0 1 .412-.599.65.65 0 0 1 .709.152.657.657 0 0 1-.937.918.65.65 0 0 1-.184-.471Zm76.266 1.432h-5.309v-2.473h5.309v2.474Zm-5.028-.276h4.753v-1.92h-4.753v1.92Z"/>
  <path fill="#C7C7C7" d="M152.312 23.97h-3.417v1.628h3.417V23.97Zm1.918.153h-.469v1.318h.469v-1.318Z"/>
  <path fill="#EBEBEB" d="M77.813 204.765h-.75v3.444h-1.394v-1.757h-2.473v1.757h-1.394v-3.444h-.745l3.375-3.509 3.381 3.509Zm75.149-3.509h-8.145v1.167h8.145v-1.167Zm0 2.891h-8.145v1.166h8.145v-1.166Zm0 2.891h-8.145v1.166h8.145v-1.166Zm-38.638-2.772-2.317 2.484-2.317-2.484.41-.379 1.907 2.039 1.906-2.039.411.379Z"/>
  <path fill="#EBEBEB" d="M112.007 209.315a4.191 4.191 0 0 1-2.338-.712 4.24 4.24 0 0 1-.637-6.5 4.199 4.199 0 0 1 6.473.64c.462.695.709 1.512.709 2.348a4.248 4.248 0 0 1-1.235 2.984 4.214 4.214 0 0 1-2.972 1.24Zm0-7.891a3.65 3.65 0 0 0-3.373 2.264 3.673 3.673 0 0 0 .791 3.995 3.64 3.64 0 0 0 5.618-.556 3.676 3.676 0 0 0-.454-4.629 3.648 3.648 0 0 0-2.582-1.074Z"/>
  <path fill="#DBDBDB" d="M105.724 189.911a1.413 1.413 0 0 1-.866 1.303 1.405 1.405 0 0 1-1.914-1.028 1.408 1.408 0 0 1 1.915-1.579 1.4 1.4 0 0 1 .865 1.304Z"/>
  <path fill="#90CAF9" d="M114.286 189.911a2.14 2.14 0 0 1-1.313 1.974 2.123 2.123 0 0 1-2.902-1.557 2.138 2.138 0 0 1 .905-2.194 2.122 2.122 0 0 1 2.687.266c.399.401.623.944.623 1.511Z"/>
  <path fill="#DBDBDB" d="M121.398 189.911a1.408 1.408 0 0 1-1.678 1.383 1.403 1.403 0 0 1-1.102-1.108 1.412 1.412 0 0 1 .596-1.447 1.401 1.401 0 0 1 2.184 1.172Z"/>
  <path fill="#90CAF9" d="M130.656 150.625H92.753v12.105h37.903v-12.105Z"/>
  <path fill="#fff" d="M103.365 158.375v-3.254a.312.312 0 0 1 .087-.216.296.296 0 0 1 .216-.088c.04-.001.08.007.117.022a.293.293 0 0 1 .167.164.304.304 0 0 1 .024.118v2.966h1.501a.31.31 0 0 1 .217.528.306.306 0 0 1-.217.091h-1.809a.3.3 0 0 1-.224-.099.304.304 0 0 1-.079-.232Zm5.941-3.102a2.036 2.036 0 0 1 0 2.809 1.79 1.79 0 0 1-1.318.597 1.847 1.847 0 0 1-1.355-.597 2.064 2.064 0 0 1 0-2.809 1.823 1.823 0 0 1 1.355-.597 1.773 1.773 0 0 1 1.318.597Zm-.07 1.404c0-.359-.135-.706-.378-.97a1.192 1.192 0 0 0-.87-.396 1.203 1.203 0 0 0-.896.396c-.245.263-.38.61-.378.97-.004.359.132.705.378.966a1.202 1.202 0 0 0 .896.401 1.192 1.192 0 0 0 .87-.401 1.41 1.41 0 0 0 .356-.966h.022Zm1.529.006a2.056 2.056 0 0 1 1.169-1.81 2.038 2.038 0 0 1 2.135.237.318.318 0 0 1-.156.564.315.315 0 0 1-.233-.065 1.415 1.415 0 0 0-.869-.298 1.367 1.367 0 0 0-.999.406 1.312 1.312 0 0 0-.415.96 1.311 1.311 0 0 0 .415.96c.131.132.287.236.459.305.171.07.355.105.54.102.266-.002.527-.075.756-.211v-.76h-.794a.324.324 0 0 1-.313-.32.314.314 0 0 1 .313-.309h1.08a.336.336 0 0 1 .122.02.328.328 0 0 1 .105.066c.03.029.054.064.071.102a.3.3 0 0 1 .026.121v1.231a.482.482 0 0 1 0 .093.253.253 0 0 1-.108.135 2.04 2.04 0 0 1-2.968-.494 2.057 2.057 0 0 1-.331-1.068l-.005.033Zm4.72-1.589a.312.312 0 0 1 .087-.217.299.299 0 0 1 .215-.087.295.295 0 0 1 .118.022.31.31 0 0 1 .195.282v3.254a.318.318 0 0 1-.095.215.31.31 0 0 1-.218.088.29.29 0 0 1-.28-.186.312.312 0 0 1-.022-.117v-3.254Zm2.258 3.281a.305.305 0 0 1-.303.304.303.303 0 0 1-.302-.304v-3.254a.31.31 0 0 1 .124-.255.31.31 0 0 1 .421.065l1.787 2.484v-2.272a.303.303 0 0 1 .087-.211.3.3 0 0 1 .21-.088.303.303 0 0 1 .303.299v3.254a.315.315 0 0 1-.09.213.31.31 0 0 1-.213.09.276.276 0 0 1-.126-.031.277.277 0 0 1-.1-.083l-.027-.032-1.771-2.468v2.289Z"/>
  <path fill="#C7C7C7" d="M121.189 56.922v3.965h-2.793v-3.965c0-3.796-2.857-6.838-6.367-6.838-3.511 0-6.368 3.064-6.368 6.838v9.925h-2.836v-9.925c0-5.423 4.111-9.8 9.182-9.8 5.071 0 9.182 4.399 9.182 9.8Z"/>
  <path fill="#A6A6A6" d="m102.847 60.898 2.792.113v5.836h-2.792v-5.95Z"/>
  <path fill="#90CAF9" d="M124.747 63.522H99.266v23.212h25.481V63.522Z"/>
  <path fill="#000" d="M124.748 63.522h-12.741v23.212h12.741V63.522Z" opacity=".1"/>
  <path fill="#263238" d="m113.087 75.98 1.081 5.076h-4.526l1.08-5.076a2.278 2.278 0 0 1-.985-2.56 2.275 2.275 0 0 1 2.181-1.653 2.265 2.265 0 0 1 2.182 1.653 2.287 2.287 0 0 1-.986 2.56h-.027Z"/>
  <path fill="#fff" d="M144.823 112.348H79.196v11.28h65.627v-11.28Z"/>
  <path fill="#EBEBEB" d="M145.087 123.899h-66.16v-11.822h66.16v11.822Zm-65.62-.542h65.08v-10.738h-65.08v10.738Z"/>
  <path fill="#37474F" d="M86.006 115.461h-.54v4.821h.54v-4.821Z"/>
  <path fill="#37474F" d="M88.14 117.598h-4.801v.542h4.801v-.542Z"/>
  <path fill="#37474F" d="m87.247 115.97-3.397 3.408.382.383 3.397-3.408-.382-.383Z"/>
  <path fill="#37474F" d="m84.228 115.973-.382.383 3.396 3.409.382-.383-3.396-3.409Zm9.922-.512h-.539v4.821h.54v-4.821Z"/>
  <path fill="#37474F" d="M96.285 117.598h-4.801v.542h4.801v-.542Z"/>
  <path fill="#37474F" d="m95.39 115.975-3.397 3.408.382.384 3.396-3.408-.382-.384Z"/>
  <path fill="#37474F" d="m92.374 115.971-.382.383 3.396 3.41.382-.384-3.396-3.409Zm9.921-.51h-.539v4.821h.539v-4.821Z"/>
  <path fill="#37474F" d="M104.429 117.598h-4.801v.542h4.801v-.542Z"/>
  <path fill="#37474F" d="m103.533 115.976-3.397 3.408.382.383 3.397-3.408-.382-.383Z"/>
  <path fill="#37474F" d="m100.521 115.969-.382.384 3.395 3.409.382-.384-3.395-3.409Zm9.924-.508h-.539v4.821h.539v-4.821Z"/>
  <path fill="#37474F" d="M112.574 117.598h-4.802v.542h4.802v-.542Z"/>
  <path fill="#37474F" d="m111.681 115.976-3.397 3.408.382.384 3.397-3.408-.382-.384Z"/>
  <path fill="#37474F" d="m108.671 115.974-.381.384 3.395 3.409.382-.383-3.396-3.41Zm9.919-.513h-.54v4.821h.54v-4.821Z"/>
  <path fill="#37474F" d="M120.719 117.598h-4.802v.542h4.802v-.542Z"/>
  <path fill="#37474F" d="m119.824 115.976-3.397 3.408.382.384 3.396-3.408-.381-.384Z"/>
  <path fill="#37474F" d="m116.812 115.967-.382.384 3.395 3.409.382-.383-3.395-3.41Zm9.922-.506h-.539v4.821h.539v-4.821Z"/>
  <path fill="#37474F" d="M128.868 117.598h-4.801v.542h4.801v-.542Z"/>
  <path fill="#37474F" d="m127.97 115.973-3.396 3.408.382.383 3.396-3.408-.382-.383Z"/>
  <path fill="#37474F" d="m124.958 115.966-.382.383 3.395 3.409.382-.383-3.395-3.409Z"/>
  <path fill="#EBEBEB" d="M139.217 119.729a4.008 4.008 0 0 1-2.987-1.627l-.119-.163.119-.157a3.576 3.576 0 0 1 2.971-1.592 3.576 3.576 0 0 1 2.97 1.592l.114.157-.114.163a4.012 4.012 0 0 1-2.954 1.627Zm-2.42-1.768a3.008 3.008 0 0 0 2.431 1.244 2.999 2.999 0 0 0 2.43-1.244 2.995 2.995 0 0 0-4.861 0Z"/>
  <path fill="#EBEBEB" d="M139.21 119.181c.671 0 1.215-.546 1.215-1.22 0-.674-.544-1.22-1.215-1.22-.67 0-1.214.546-1.214 1.22 0 .674.544 1.22 1.214 1.22Z"/>
  <path fill="#EBEBEB" d="m141.211 115.514-4.315 4.333.382.384 4.315-4.333-.382-.384Z"/>
  <path fill="#90CAF9" d="M94.362 100.601h-.864v1.524a.39.39 0 0 1-.664.276.39.39 0 0 1-.114-.276v-4.149a.387.387 0 0 1 .389-.385h1.253a1.495 1.495 0 0 1 1.468.907 1.514 1.514 0 0 1-.867 2.016c-.192.07-.397.099-.601.087Zm-.864-.78h.864a.72.72 0 0 0 .725-.432.73.73 0 0 0-.43-.98.721.721 0 0 0-.295-.037h-.864v1.448Zm5.32 1.528h-1.701l-.346.917a.402.402 0 0 1-.362.244.383.383 0 0 1-.135 0 .397.397 0 0 1-.232-.504l1.55-4.144a.402.402 0 0 1 .373-.244.382.382 0 0 1 .367.244l1.55 4.144a.397.397 0 0 1-.232.504.308.308 0 0 1-.136 0 .381.381 0 0 1-.356-.244l-.34-.917Zm-.286-.77-.567-1.513-.54 1.513h1.107Zm2.036.711a.362.362 0 0 1 .54-.049c.376.321.846.512 1.339.542.312.007.617-.084.875-.26a.635.635 0 0 0 .303-.504.393.393 0 0 0-.065-.223.696.696 0 0 0-.211-.211 2.72 2.72 0 0 0-.961-.331 3.815 3.815 0 0 1-.908-.277 1.497 1.497 0 0 1-.648-.542 1.052 1.052 0 0 1-.162-.575 1.313 1.313 0 0 1 .54-1.03 2.063 2.063 0 0 1 1.21-.369 2.767 2.767 0 0 1 1.529.542.355.355 0 0 1 .152.23.358.358 0 0 1-.055.27.353.353 0 0 1-.497.108 2.033 2.033 0 0 0-1.129-.45 1.332 1.332 0 0 0-.783.238.546.546 0 0 0-.265.445.32.32 0 0 0 .049.195c.05.073.115.136.189.185.269.158.566.263.875.309.332.06.657.157.967.293.284.125.527.328.702.585.108.18.166.386.167.597a1.349 1.349 0 0 1-.605 1.084c-.376.269-.829.41-1.29.402a2.986 2.986 0 0 1-1.794-.705.373.373 0 0 1-.064-.499Zm4.607 0a.364.364 0 0 1 .108-.091.378.378 0 0 1 .135-.041.346.346 0 0 1 .264.083c.377.321.847.512 1.34.542a1.48 1.48 0 0 0 .875-.26.632.632 0 0 0 .302-.504.385.385 0 0 0-.065-.223.642.642 0 0 0-.21-.211 2.694 2.694 0 0 0-.956-.331 3.668 3.668 0 0 1-.902-.277 1.54 1.54 0 0 1-.654-.542 1.099 1.099 0 0 1-.162-.575 1.313 1.313 0 0 1 .54-1.03 2.065 2.065 0 0 1 1.21-.369 2.767 2.767 0 0 1 1.529.542.36.36 0 0 1 .097.499.356.356 0 0 1-.367.163.353.353 0 0 1-.13-.054 2.033 2.033 0 0 0-1.129-.45 1.332 1.332 0 0 0-.783.238.55.55 0 0 0-.265.445.32.32 0 0 0 .049.195.695.695 0 0 0 .189.185c.27.157.567.262.875.309a4.3 4.3 0 0 1 .967.293c.283.124.525.327.697.585.112.179.17.386.167.597a1.37 1.37 0 0 1-.169.615c-.104.189-.252.35-.431.469a2.15 2.15 0 0 1-1.296.402 2.983 2.983 0 0 1-1.793-.705.374.374 0 0 1-.032-.499Zm11.109-3.119-1.717 4.095a.153.153 0 0 1-.038.065s0 .027-.032.043l-.049.033s-.032.038-.065.043h-.275a.101.101 0 0 1-.06-.043l-.048-.033s0-.027-.027-.043a.236.236 0 0 1 0-.065l-.918-2.169-.919 2.169s0 .049-.027.065l-.043.043a.137.137 0 0 0-.043.033l-.054.043a.163.163 0 0 0-.054 0h-.227a.168.168 0 0 1-.065-.043s-.027 0-.048-.033l-.033-.043s0-.043-.038-.065l-1.722-4.1a.384.384 0 0 1 .707-.293l1.372 3.254.907-2.17a.393.393 0 0 1 .362-.238.409.409 0 0 1 .367.239l.902 2.169 1.367-3.254a.388.388 0 0 1 .507-.206.387.387 0 0 1 .011.504Zm4.905.028a2.596 2.596 0 0 1 0 3.563 2.289 2.289 0 0 1-1.675.748 2.373 2.373 0 0 1-1.717-.748 2.645 2.645 0 0 1 0-3.563 2.352 2.352 0 0 1 1.717-.749 2.263 2.263 0 0 1 1.675.749Zm-.092 1.778c0-.454-.17-.89-.475-1.225a1.497 1.497 0 0 0-1.728-.371c-.195.086-.37.212-.514.37a1.798 1.798 0 0 0-.475 1.226c-.005.455.166.894.475 1.226a1.538 1.538 0 0 0 1.134.504 1.507 1.507 0 0 0 1.108-.504c.299-.337.461-.774.453-1.226h.022Zm5.4 1.953a.381.381 0 0 1-.243.488.517.517 0 0 1-.157 0 .48.48 0 0 1-.27-.076.657.657 0 0 1-.227-.244 1.93 1.93 0 0 1-.145-.846.595.595 0 0 0-.087-.304.567.567 0 0 0-.21-.2 1.27 1.27 0 0 0-.389-.169h-.826v1.524a.398.398 0 0 1-.245.358.384.384 0 0 1-.15.027.384.384 0 0 1-.383-.385v-4.148a.377.377 0 0 1 .236-.358.377.377 0 0 1 .147-.027h1.253a1.493 1.493 0 0 1 1.413.992 1.505 1.505 0 0 1-.457 1.67c.093.075.175.163.243.261.152.223.233.488.232.759-.01.14-.001.28.027.417a.357.357 0 0 1 .238.261Zm-.988-2.831a.74.74 0 0 0-.211-.516.713.713 0 0 0-.513-.21h-.859v1.447h.859a.723.723 0 0 0 .724-.721Zm2.128 3.026v-4.149a.376.376 0 0 1 .384-.385h.826c.629.03 1.223.302 1.658.76a2.468 2.468 0 0 1 0 3.399 2.448 2.448 0 0 1-1.658.76h-.826a.385.385 0 0 1-.384-.385Zm.778-.396h.432a1.683 1.683 0 0 0 0-3.357h-.432v3.357Z"/>
  <path fill="#37474F" d="M211.416 37.881s-4.121 33.115-10.894 40.566c-8.101 8.938-14.042 7.63-17.283 12.24-3.283-4.615-9.181-3.302-17.282-12.245-6.773-7.452-10.883-40.566-10.883-40.566 17.823-8.677 28.192-18.44 28.192-18.44.27.31 10.586 9.887 28.15 18.445Z"/>
  <path fill="#455A64" d="M183.218 19.448v71.24c-3.284-4.616-9.182-3.303-17.283-12.246-6.773-7.452-10.883-40.566-10.883-40.566 17.823-8.677 28.193-18.44 28.193-18.44l-.027.012Z"/>
  <path fill="#455A64" d="M207.063 40.55s-3.478 27.973-9.182 34.269c-6.875 7.56-11.882 6.448-14.631 10.342-2.77-3.894-7.755-2.782-14.631-10.342-5.714-6.296-9.181-34.27-9.181-34.27 15.068-7.348 23.818-15.58 23.818-15.58s8.711 8.232 23.807 15.58Z"/>
  <path fill="#37474F" d="M159.4 40.55s3.478 27.967 9.181 34.269c6.865 7.555 11.845 6.454 14.621 10.337V24.958c-.249.298-8.966 8.357-23.802 15.592Z"/>
  <path fill="#90CAF9" d="M191.031 62.909c4.313-4.331 4.313-11.353 0-15.685a11.013 11.013 0 0 0-15.62 0c-4.313 4.332-4.313 11.354 0 15.685a11.013 11.013 0 0 0 15.62 0Z"/>
  <path fill="#fff" d="m181.96 62.27-4.921-5.136 1.826-1.763 2.711 2.831 5.844-9.002 2.122 1.388-7.582 11.682Z"/>
  <path fill="#C7C7C7" d="M20.391 117.494h37.893v-7.88H20.39v7.88Z"/>
  <path fill="#C7C7C7" d="m48.114 117.429 1.06 10.071 13.102 94.278h3.742L55.681 127.5l-.837-10.071h-6.73ZM12.646 221.778h3.748L29.498 127.5l1.059-10.071h-6.73L22.99 127.5l-10.343 94.278Z"/>
  <path fill="#C7C7C7" d="M18.97 190.979h41.798v-2.365H18.971v2.365Z"/>
  <path fill="#A6A6A6" d="M55.681 127.148h-6.508l-1.059-9.719h6.73l.837 9.719Zm-32.692 0h6.508l1.059-9.719h-6.73l-.837 9.719Z"/>
  <path fill="#263238" d="M25.447 71.744c1.62.835 1.9 3.715 6.945 3.558.719 0 1.307-.31 1.966-.065.967.352 1.729 1.128 2.587 1.692a5.53 5.53 0 0 0 2.301.89 6.837 6.837 0 0 0 4.515-1.048c.826-.51 1.518-1.214 2.317-1.768.8-.553 5.622-1.724 6.438-4.447.54-1.73.438-3.698-1.62-6.225a3.166 3.166 0 0 1-.924-1.682c.002-.563.129-1.12.373-1.627a3.206 3.206 0 0 0 .297-1.86 4.105 4.105 0 0 0-1.08-1.589c-.756-.916-.616-2.24 0-3.867a4.806 4.806 0 0 0-.486-4.197 9.99 9.99 0 0 0-1.74-1.898c-.923-.879-1.08-1.692-1.495-2.934-.784-2.387-2.01-3.455-3.452-4.193-1.301-.656-1.258-.406-2.652-.195a7.294 7.294 0 0 0-4.715-1.02c-1.523.196-2.781 1.22-3.931 2.203-1.027.878-1.966 1.822-2.02 3.302-.033.852.172 1.698.135 2.55-.054 1.084-.654 1.773-1.372 2.456a6.388 6.388 0 0 0-2.101 3.541c-.19 1.155.945 2.95-.384 4.659-1.166 1.508-3.24 3.254-3.78 5.141-1.647 5.895 2.35 7.82 3.878 8.623Z"/>
  <path fill="#263238" d="M44.982 74.922c2.317-.352 5.876.087 7.107-2.505a3.978 3.978 0 0 0 1.453-3.325 5.843 5.843 0 0 0-1.755-3.53 8.94 8.94 0 0 1-1.47-1.806 11.846 11.846 0 0 1-.285-1.573 8.067 8.067 0 0 1 .54-1.974c-.508 1.084-.978 2.256-.508 3.449.069.17.15.335.243.493.169.628.4 1.237.691 1.817.762 1.519 1.459 2.89 1.356 4.664a4.245 4.245 0 0 1-.416 1.709 6.382 6.382 0 0 1-3.58 1.562c-.033 0-.033.06 0 .054a7.256 7.256 0 0 0 3.348-1.22c-1.345 1.936-4.472 1.67-6.735 2.12-.06 0-.038.07.01.065Zm7.285-2.945v-.049a6.533 6.533 0 0 0-.291-4.338c-.367-.906-.918-1.72-1.28-2.63-.06-.158-.12-.315-.173-.478.54.71 1.22 1.302 1.728 1.996 1.08 1.508 1.426 3.303.395 4.935a4.49 4.49 0 0 1-.379.564Z"/>
  <path fill="#263238" d="M47.034 47.258a32.24 32.24 0 0 1 2.469 2.397c.544.553.87 1.285.918 2.061a3.448 3.448 0 0 1-.697 2.17c-.173.26-.351.542-.508.796a3.305 3.305 0 0 0 .233 1.481c.378.895 1.215 1.448 1.62 2.354.626 1.464-.07 2.668-.686 3.975.448-1.085 1.08-2.131.724-3.346-.281-.993-1.005-1.53-1.55-2.338a3.381 3.381 0 0 1-.54-1.719c-.487.987-.654 2.029.205 3.064.038.05 0 .114-.065.07-1.08-1.084-.8-2.445-.135-3.611.04-.689.192-1.366.448-2.007 0-.065.124 0 .114.05-.098.509-.227 1.019-.298 1.523l.114-.168c.864-1.242 1.204-2.712.21-4.013-.745-.993-1.76-1.774-2.592-2.712-.038-.01-.005-.049.016-.027Z"/>
  <path fill="#EB9481" d="M53.53 149.66s-9.672 21.573-9.683 21.59c-1.869 4.116-3.44 7.755-4.072 9.718a.045.045 0 0 0 0 .033c-.2.442-.294.925-.276 1.41v.032c.843 1.394 33.162 17.355 34.48 17.544 1.317.19 1.917-3.568 1.156-5.195-.762-1.627-10.419-13.298-10.419-13.298l9.484-21.66-20.67-10.174Z"/>
  <path fill="#EBEBEB" d="M45.835 166.803s-1.977 4.414-1.988 4.43c-1.869 4.117-3.44 7.756-4.072 9.719a.042.042 0 0 0 0 .032 5.938 5.938 0 0 0-.276 1.41v.033c.843 1.394 33.162 17.354 34.48 17.544 1.318.19 1.917-3.568 1.156-5.195-.762-1.627-10.419-13.298-10.419-13.298l2.08-4.469-20.961-10.206Z"/>
  <path fill="#263238" d="M73.968 199.944c-1.318-.174-33.647-16.118-34.495-17.512-.33-.542 1.706-5.39 4.32-11.199l.081-.184 20.978 10.055-.184.352s9.662 11.665 10.43 13.292c.766 1.627.183 5.375-1.13 5.196Z"/>
  <path fill="#90CAF9" d="M75.032 199.022c.47.51-.61 2.402-1.08 2.354-.47-.049-35.646-17.593-36.186-18.027-.54-.434.74-2.479 1.49-2.245.752.233 35.776 17.918 35.776 17.918Z"/>
  <path fill="#fff" d="M66.412 182.384c-1.95-1.459-4.73-2.425-7.123-1.698-.092 0-.049.163.032.174 2.375.346 4.705.948 6.951 1.795a.156.156 0 0 0 .191-.182.158.158 0 0 0-.05-.089Zm1.092 1.703c-1.95-1.465-4.731-2.425-7.124-1.698-.092.027-.049.157.032.174a33.23 33.23 0 0 1 6.951 1.79.155.155 0 0 0 .106-.001.15.15 0 0 0 .034-.265Zm1.091 1.697c-1.95-1.459-4.737-2.424-7.124-1.698-.092.033-.054.163 0 .174 2.376.345 4.709.947 6.956 1.796a.158.158 0 0 0 .12.019.16.16 0 0 0 .118-.191.16.16 0 0 0-.07-.1Zm-21.135-8.466c-1.77-2.332-5.4.423-3.613 2.761 1.788 2.337 5.385-.423 3.614-2.761Z"/>
  <path fill="#37474F" d="M59.235 130.906c-.216 6.275-12.26 33.375-12.26 33.375l21.123 9.762s17.05-30.137 15.468-44.021c-1.35-11.779-30.866-33.564-35.603-39.703-.702-.912-.464-4.578-.464-4.578H28.336v4.594c7.318 15.597 29.208 34.307 30.828 39.801.064.251.088.511.07.77Z"/>
  <path fill="#263238" d="M67.979 169.514c-3.478-1.676-2.458-1.247-5.941-2.88-1.712-.797-10.3-4.837-12.028-5.287a.034.034 0 0 0-.03-.001.035.035 0 0 0-.021.02.037.037 0 0 0-.002.029.04.04 0 0 0 .02.022c1.48 1.009 10.16 4.843 11.883 5.608 3.526 1.562 2.532 1.085 6.076 2.592.059.033.108-.076.043-.103ZM33.154 93.616a202.404 202.404 0 0 0 19.34 25.072c1.74 1.903 3.527 3.752 5.315 5.607 1.512 1.568 3.057 3.308 3.43 5.537.42 2.484-.54 4.957-1.313 7.273a384.55 384.55 0 0 1-2.603 7.625c-.972 2.712-4.947 12.576-5.6 13.905-.33.662 5.26-13.558 6.167-16.183s1.825-5.233 2.598-7.891c.447-1.353.63-2.78.54-4.203a7.608 7.608 0 0 0-1.577-3.752c-1.556-2.083-3.576-3.851-5.342-5.749a189.602 189.602 0 0 1-10.472-12.267 175.552 175.552 0 0 1-10.564-14.936.045.045 0 0 1 .007-.05.046.046 0 0 1 .031-.014.046.046 0 0 1 .033.012.044.044 0 0 1 .01.014Z"/>
  <path fill="#EB9481" d="M21.812 196.695s-.94 23.651-.945 23.667c.108 4.523.28 8.488.54 10.527a3.13 3.13 0 0 0 .405 1.426v.027c1.361.879 37.385 1.085 38.644.667 1.258-.417.172-4.056-1.216-5.184-1.388-1.128-15.16-7.397-15.16-7.397l.718-23.635-22.986-.098Z"/>
  <path fill="#EBEBEB" d="M21.04 215.682s-.184 4.664-.19 4.68c.109 4.523.281 8.488.54 10.527a.11.11 0 0 0 0 .038c.087.478.228.943.422 1.388v.027c1.361.879 37.385 1.085 38.643.667 1.259-.417.173-4.056-1.215-5.184-1.388-1.128-15.16-7.397-15.16-7.397l.146-4.784-23.186.038Z"/>
  <path fill="#263238" d="M60.428 232.966c-1.258.418-37.266.25-38.648-.629-.54-.325-.805-5.597-.962-11.98v-.201l23.224-.151v.395s13.761 6.259 15.166 7.387c1.404 1.128 2.484 4.767 1.22 5.179Z"/>
  <path fill="#90CAF9" d="M60.985 231.675c.642.255.496 2.43.027 2.598-.47.168-39.74-.184-40.41-.336-.67-.152-.41-2.56.367-2.679.778-.12 40.016.417 40.016.417Z"/>
  <path fill="#fff" d="M45.997 220.493c-2.387-.461-5.314-.103-7.145 1.595-.07.065 0 .168.097.141a33.452 33.452 0 0 1 7.021-1.433c.04.004.08-.009.111-.034a.155.155 0 0 0 .02-.215.15.15 0 0 0-.104-.054Zm1.739 1.046c-2.387-.461-5.309-.103-7.145 1.595-.07.065 0 .168.102.141a33.383 33.383 0 0 1 7.022-1.432.151.151 0 0 0 .125-.251.15.15 0 0 0-.104-.053Zm1.702 1.052c-2.387-.461-5.315-.108-7.146 1.595-.075.066 0 .169.098.141a33.383 33.383 0 0 1 7.02-1.432.152.152 0 0 0 .13-.249.154.154 0 0 0-.102-.055Zm-22.695 1.649c-2.609-1.323-4.661 2.744-2.053 4.067 2.609 1.324 4.683-2.738 2.053-4.067Z"/>
  <path fill="#37474F" d="m44.712 212.824-23.548.195s3.92-96.571 1.296-99.728c-6.243-7.5-5.25-17.5-1.042-27.544h21.457s-1.031 15.25-.928 15.695c6.6 28.906 2.765 111.382 2.765 111.382Z"/>
  <path fill="#263238" d="M43.415 207.981c-5.136-.401-18.665.038-20.372.299a.046.046 0 0 0-.02.018.046.046 0 0 0-.006.025c0 .009.002.018.007.025a.046.046 0 0 0 .019.018c1.69.342 17.202-.146 20.367-.271a.06.06 0 0 0 .045-.055.06.06 0 0 0-.01-.036.068.068 0 0 0-.03-.023Zm-.032-116.307c-.216 2.712-.108 7.387-1.68 7.457-1.572.07-1.296-5.624-1.34-6.936-.042-1.188-.448-1.025-.49.374-.12 3.796 0 7.153 1.987 6.996 1.987-.157 1.993-6.041 1.944-7.386-.027-.694-.356-1.367-.421-.505Z"/>
  <path fill="#263238" d="M41.795 99.31c-.097.959-.077 1.926.06 2.879.027.076.329 0 .361-.048.183-.396.038-2.261.086-2.766a.258.258 0 0 0-.22-.287.254.254 0 0 0-.287.222Z"/>
  <path fill="#263238" d="M42.47 102.673c.67 2.386 1.356 6.952 1.194 8.135 0 .108-.173.146-.195.032a1138.97 1138.97 0 0 1-1.263-8.08c-.098-.646.075-.754.264-.087Z"/>
  <path fill="#263238" d="M38.339 104.555a8.87 8.87 0 0 1 1.004-.852 25.08 25.08 0 0 1 1.08-.808c.746-.542 1.513-1.009 2.296-1.475a39.83 39.83 0 0 1 2.35-1.28c.799-.407 1.717-.743 2.549-1.16.048-.028.091.043.043.07-.789.44-1.523.987-2.29 1.47-.767.482-1.534.981-2.306 1.464-.773.483-1.502.954-2.258 1.421a33.42 33.42 0 0 1-1.199.716 10.22 10.22 0 0 1-1.134.634c-.13.049-.205-.119-.135-.2Zm-13.627 58.023c.34-7.739.88-16.384 1.01-24.112.061-3.872.09-7.746.086-11.622 0-3.845 0-8.981-.172-12.82-.103-1.953-3.527-3.46-4.224-9.144a21.67 21.67 0 0 1 .75-9.664c.244-.76.53-1.503.86-2.23 0-.048.091 0 .07.044a21.31 21.31 0 0 0-1.658 10.136 17.27 17.27 0 0 0 1.08 5.104c.918 2.294 3.181 4.154 3.3 5.374.178 1.817.205 3.389.227 5.217a694.62 694.62 0 0 1 .022 17.316 773.476 773.476 0 0 1-.606 23.125c-.324 7.707-2.311 46.293-2.44 47.182 0 .098-.174.076-.168 0 .237-3.888 1.517-36.167 1.863-43.906Z"/>
  <path fill="#EB9481" d="M37.431 67.948c5.11 10.586 11.596 22.05 17.666 23.862 5.78 1.708 16.98-12.538 20.524-16.27 1.264-1.356-9.003-9.11-10.597-7.934-3.003 2.218-8.398 8.26-9.306 8.048-.907-.211-8.484-7.446-15.311-13.52-4.137-3.682-6.513-1.524-2.976 5.814Zm47.074.872c1.404-.59 12.217-.937 12.217-3.291s-13.767-1.692-13.767-1.692l1.55 4.984Z"/>
  <path fill="#EB9481" d="M63.766 69.097c1.89-2.359 3.554-4.88 5.196-5.368 1.14-.326 13.378.206 15.295.092 1.917-.114 8.733.06 8.895 1.74.222 2.381-7.858 2.36-8.717 3.58-2.975 4.197-14.29 10.412-14.29 10.412l-6.379-10.456Z"/>
  <path fill="#263238" d="M93.33 65.6a1.865 1.865 0 0 0-.783-1.085c-.837-.586-1.939-.64-2.922-.716-1.49-.14-2.99-.153-4.483-.038a.027.027 0 0 0 0 .054c1.118 0 2.236.027 3.354.12 1.024.043 2.04.2 3.03.466.448.12.852.364 1.167.705a.971.971 0 0 1 .232.906c-.33 1.035-2.365 1.345-3.305 1.556-1.226.277-2.5.543-3.738.77-.054 0 0 .098.027.087 1.28-.255 2.636-.358 3.921-.591 1.043-.19 2.16-.401 3.003-1.085a1.187 1.187 0 0 0 .497-1.15Z"/>
  <path fill="#90CAF9" d="m74.298 60.473.356-1.832 21.278 4.173a.74.74 0 0 1 .584.872l-.072.372a.744.744 0 0 1-.868.587l-21.278-4.172Z"/>
  <path fill="#000" d="m74.652 58.645-.356 1.832 2.564.503.356-1.832-2.564-.503Z" opacity=".1"/>
  <path fill="#90CAF9" d="m66.515 56.315-.627 3.254a4.242 4.242 0 0 0 .638 3.172 4.196 4.196 0 0 0 5.843 1.15 4.229 4.229 0 0 0 1.783-2.695l.632-3.254a4.247 4.247 0 0 0-.638-3.174 4.222 4.222 0 0 0-2.686-1.791 4.197 4.197 0 0 0-3.161.64 4.232 4.232 0 0 0-1.784 2.698Zm6.946.808a2.394 2.394 0 0 1-.743 1.243c-.37.328-.83.532-1.32.585a2.42 2.42 0 0 1 1.23 2.473c-.253 1.29-1.668 2.104-3.164 1.811-1.496-.293-2.506-1.584-2.258-2.869a2.41 2.41 0 0 1 .747-1.242 2.4 2.4 0 0 1 1.322-.586 2.398 2.398 0 0 1-1.232-2.472c.254-1.297 1.67-2.1 3.165-1.806 1.496.292 2.506 1.572 2.253 2.863Zm1.352.694-.678 3.486a.341.341 0 0 0 .268.401l.17.033a.34.34 0 0 0 .398-.27l.678-3.486a.341.341 0 0 0-.268-.4l-.17-.034a.34.34 0 0 0-.398.27Zm.837.166-.678 3.487a.341.341 0 0 0 .269.4l.17.034a.34.34 0 0 0 .398-.27l.678-3.487a.341.341 0 0 0-.268-.4l-.17-.033a.34.34 0 0 0-.399.27Zm15.185 3.05.632.125.357-1.85.545.109-.189.965.632.125.19-.965.475.092-.292 1.524.632.125.297-1.524.68.135-.394 2.034.632.125.394-2.034.643.125-.502 2.597-5.66-1.106.502-2.603.783.157-.356 1.844ZM18.334 89.012l30.148.499-2.366-9.068a9.513 9.513 0 0 0 1.356-7.902c-.724-2.668-4.154-6.665-6.26-9.22-5.12-6.182-9.57-3.389-10.99-1.8-5.418 6.09-11.888 27.49-11.888 27.49Z"/>
  <path fill="#fff" d="M33.18 65.046v-1.724l1.14 1.28 1.232-.385-.6 1.084.578.608-.896.092v1.171l-.983-.824-.8.667.092-.987-1.166-.542 1.404-.44Zm12.844 19.378-.95.873-.875-.467.307 1.004-1.134.59 1.08.467-.264.868.788-.304.778.987.119-1.29 1.62-.543-1.577-.689.108-1.496Zm-11.023-6.438.923 1.844.913-1.763 1.74.304-.924-1.855 1.29-1.236-1.83.065-.368-1.8-.961 1.865-2.441-.19 1.436 1.492-1.328 1.025 1.55.25Zm7.188-10.657.443-.748-.831.076-.287-.689-.448.749-.73-.18.438.64-.54.543.88-.081.487.91.2-.845.658.238-.27-.612ZM28.05 87.081l.444-.743-.827.07-.291-.688-.443.754-.73-.185.438.64-.54.542.88-.076.487.912.2-.852.664.244-.281-.618Zm4.959-13.444.443-.743-.832.07-.286-.689-.443.754-.735-.184.438.64-.54.542.88-.076.486.906.2-.846.664.239-.275-.613Zm-5.369 2.017-.15-.488-.293.396-.415-.146.15.493-.361.25.448.06v.455l.308-.423.589.146-.292-.423.367-.2-.35-.12Zm13.994 11.633-.151-.488-.297.396-.41-.141.15.488-.367.255.454.054v.456l.308-.418.589.141-.292-.423.367-.195-.35-.125Zm4.186-14.176.383-.342-.48-.103-.044-.44-.383.342-.378-.227.135.433-.405.207.508.108.113.602.265-.445.329.255-.043-.39Zm-7.561 9.16.378-.342-.481-.103-.043-.44-.378.342-.384-.228.135.434-.405.206.508.109.113.602.265-.445.33.255-.038-.39Zm-15.566 2.874.378-.342-.48-.108-.038-.44-.384.348-.356-.234.13.44-.406.2.508.114.119.597.26-.44.329.255-.06-.39Z"/>
  <path fill="#263238" d="M38.052 79.912a25.62 25.62 0 0 1 3.878-.066c.643.044 1.28.12 1.917.212.314.043.632.076.951.108.334.041.67.041 1.005 0 0 0 .037.038 0 .05-.308.069-.62.12-.935.151a7.528 7.528 0 0 1-.923 0c-.648-.043-1.302-.114-1.95-.157-1.313-.098-2.625-.19-3.943-.19-.038.01-.038-.103 0-.108Zm-2.927 1.698c1.025-.3 2.065-.543 3.116-.728a21.72 21.72 0 0 1 1.588-.19l.762-.054h.842c.033 0 .038.043 0 .049-.264.027-.54.098-.788.136l-.789.124-1.577.25a95.234 95.234 0 0 0-3.154.51c-.043 0-.054-.081 0-.098Z"/>
  <path fill="#EB9481" d="M33.153 61.18c.13.542 2.7 4.04 5.158 3.92.8-.043.778-4.436.778-4.436l.07-.325 1.016-4.55-5.315-3.417-.767-.45s-.194 1.264-.421 2.836v.223c0 .076-.032.173-.043.26-.038.233-.076.472-.103.71-.027.24-.049.364-.07.543l-.065.575a30.767 30.767 0 0 0-.238 4.11Z"/>
  <path fill="#263238" d="M33.693 54.753a9.38 9.38 0 0 0 2.144 3.4c.95.965 2.1 1.71 3.365 2.186l.972-4.55-5.314-3.417-.767-.45s-.194 1.258-.4 2.831Z"/>
  <path fill="#EB9481" d="M46.564 48.365c1.583 8.026-3.03 9.88-4.752 10.222-1.561.31-6.93 1.156-9.328-6.66-2.398-7.814.821-11.09 4.364-11.985 3.543-.895 8.14.402 9.716 8.423Z"/>
  <path fill="#263238" d="M44.23 47.139a4.98 4.98 0 0 1-.54.092.93.93 0 0 1-.582 0 .293.293 0 0 1-.13-.33.72.72 0 0 1 .6-.418c.254-.06.522-.021.75.108a.308.308 0 0 1 .047.458.308.308 0 0 1-.144.09Zm-5.676 1.643c.182-.028.363-.066.54-.114.2-.011.39-.09.54-.222a.278.278 0 0 0 0-.353.701.701 0 0 0-.707-.173 1.03 1.03 0 0 0-.664.369.31.31 0 0 0 .291.493Zm1.199 1.031s-.038 0-.033.054c.097.542.119 1.193-.345 1.448v.032c.599-.179.561-1.035.378-1.535Z"/>
  <path fill="#263238" d="M39.18 49.308c-.89.065-.696 1.855.13 1.79.826-.065.616-1.844-.13-1.79Z"/>
  <path fill="#263238" d="M38.84 49.444c-.145.114-.275.309-.464.352-.189.044-.394-.124-.54-.287.033.341.2.678.573.689.372.01.54-.32.588-.673-.032-.043-.097-.13-.157-.081Zm4.3-.152s.043 0 .043.043c.043.543.178 1.188.696 1.318v.033c-.62-.022-.793-.863-.739-1.394Z"/>
  <path fill="#263238" d="M43.572 48.663c.88-.158 1.128 1.627.313 1.768-.815.14-1.053-1.633-.313-1.768Z"/>
  <path fill="#263238" d="M43.956 48.728c.156.076.318.228.486.211.167-.016.313-.227.41-.428h.032c.054.336 0 .71-.324.819-.324.108-.54-.157-.674-.488-.022-.044.01-.147.07-.114Zm-3.198 5.759c.14.125.286.293.486.299a1.52 1.52 0 0 0 .588-.18c.033 0 0 0 0 0a.746.746 0 0 1-.68.348.582.582 0 0 1-.437-.413s0-.07.043-.054Zm2.058-2.277s.216.808.264 1.198c0 .038-.086.065-.221.092a1.86 1.86 0 0 1-1.88-.471c0-.033 0-.082.055-.06.536.28 1.148.376 1.744.276 0-.108-.416-1.377-.357-1.388.306-.01.61.021.908.092-.395-1.703-1.08-3.33-1.431-5.032 0-.06.075-.093.097-.038a28.141 28.141 0 0 1 1.771 5.352c.049.217-.783.022-.95-.021Z"/>
  <path fill="#263238" d="M42.804 53.36a2.241 2.241 0 0 1-.76.85c-.18.113-.39.166-.6.153-.453-.038-.54-.44-.54-.798a2.49 2.49 0 0 1 .103-.542 2.892 2.892 0 0 0 1.797.336Z"/>
  <path fill="#FF9ABB" d="M42.043 54.21a1.004 1.004 0 0 1-.599.153c-.453-.038-.54-.44-.54-.798a1.037 1.037 0 0 1 1.14.646Z"/>
  <path fill="#263238" d="M33.375 52.633c1.529 0 1.426-3.525 1.426-3.525s6.244-2.002 6.05-7.3a8.903 8.903 0 0 0 5.125 4.203s-1.032-5.695-5.714-6.166c0 0-5.904-1.253-8.431 3.671-2.528 4.925.518 9.133 1.544 9.117Z"/>
  <path fill="#263238" d="M40.818 41.417a5.83 5.83 0 0 1 .048 2.425 5.942 5.942 0 0 1-.907 2.283 4.716 4.716 0 0 1-.373.493l-.189.244a4.11 4.11 0 0 1-.221.217c-.076.07-.292.288-.443.423l-.497.369c-.081.06-.162.12-.249.173l-.264.152-.54.299a16.61 16.61 0 0 1-1.124.439c.346-.212.702-.385 1.037-.597l.497-.336.243-.168c.081-.06.151-.125.227-.19l.448-.38c.146-.135.276-.282.41-.422l.206-.212.178-.233c.123-.15.237-.308.34-.472a6.86 6.86 0 0 0 .946-2.17 7.62 7.62 0 0 0 .2-1.165 7.4 7.4 0 0 0 .027-1.172Z"/>
  <path fill="#90CAF9" d="m30.993 47.811-.377.77 2.526 1.855.81-1.73-2.959-.895Zm1.97 1.834-1.743-1.14.081-.178 1.96.71-.297.608Zm-1.862-3.195-.059.857 3.04.765.102-1.915-3.083.293Zm2.516.95-2.046-.391v-.201l2.084-.081-.038.672Z"/>
  <path fill="#EB9481" d="M34.547 51.944s-2.047-2.349-3.121-1.59c-1.075.76.648 4.296 2.046 4.648a1.366 1.366 0 0 0 1.504-.444 1.38 1.38 0 0 0 .252-.494l-.68-2.12Z"/>
  <path fill="#263238" d="M31.944 51.358v.033a3.468 3.468 0 0 1 2.019 1.979.757.757 0 0 0-1.15-.082s0 .055.032.05a.839.839 0 0 1 .956.189c.204.215.385.451.54.705.048.081.2 0 .156-.076-.13-1.242-1.247-2.82-2.553-2.798Z"/>
  <path fill="#EB9481" d="M28.428 63.327c-6.87 11.899-17.137 39.21-18.995 43.115-1.258 2.652 12.547 9.642 13.135 7.712.746-2.468 10.327-34.28 10.953-48.473.292-6.573-2.895-6.16-5.093-2.354Z"/>
  <path fill="#EB9481" d="M16.951 120.228c.73-.64 1.08-.261.75 1.432-.329 1.692-2.997 8.134-.685 8.866 2.312.733 5.94-8.373 6.276-11.231.335-2.858-.184-7.593-.184-7.593-1.064 1.638-3.997 5.348-6.157 8.526Z"/>
  <path fill="#A6A6A6" d="M21.001 130.174 3.72 127.05c-.54-.043-.87-.401-.778-.802l1.582-7.094a1.016 1.016 0 0 1 1.086-.618l17.283 3.107c.54.049.87.407.777.803l-1.582 7.093a.998.998 0 0 1-1.086.635Z"/>
  <path fill="#C7C7C7" d="m21.201 129.339-17.315-3.124c-.54-.049-.864-.407-.778-.803l1.588-7.093a.997.997 0 0 1 1.08-.635l17.316 3.124c.54.043.864.401.777.797l-1.571 7.099a1.007 1.007 0 0 1-1.096.635Z"/>
  <path fill="#263238" d="M20.877 127.088c-.4-.152-.777 0-.842.336a.878.878 0 0 0 .61.874c.4.152.777 0 .842-.331a.874.874 0 0 0-.61-.879Z"/>
  <path fill="#EB9481" d="M10.356 105.195c-3.526 4.772-6.648 10.39-6.724 16.6-.023.69.185 1.367.589 1.925-.081 2.777 1.199 3.656 1.199 3.656.713 2.608 2.16 3.324 2.16 3.324s.206 2.24 1.777 2.207c1.572-.032 2.436-3.704 3.78-6.383 3.15-6.15 8.875-13.135 9.955-14.816l-12.736-6.513Z"/>
  <path fill="#263238" d="M11.48 118.623a44.749 44.749 0 0 0-2.447 5.542 45.04 45.04 0 0 0-1.404 6.508.054.054 0 0 1-.108 0 23.638 23.638 0 0 1 3.878-12.061c.054-.114.151-.076.08.011Zm-3.42-2.446c-.766 1.827-2.095 5.043-2.575 11.204h-.038c-.21-3.91.665-7.802 2.527-11.242.06-.109.14-.087.087.038Zm-1.857-1.28c-1.188 3.156-1.544 5.298-1.966 8.807H4.2c.064-4.04.54-5.505 1.9-8.867.049-.098.146-.065.103.06Z"/>
</svg>
