<svg xmlns="http://www.w3.org/2000/svg" width="234" height="240" fill="none" viewBox="0 0 234 240">
  <path fill="#EBEBEB" d="M33.943 96.92H14.738v6.1h19.205v-6.1Zm116.716-43.252h-19.205v6.099h19.205v-6.099ZM23.232 110.71c-3.2.055-11.268.191-14.36.229H3.781v-6.622h.273l9.603.039c2.387 0 7.21.07 9.602.109h.131v.125l-.125 6.099-.033.021Zm0 0-.131-6.098.131.131c-2.398.032-7.21.087-9.602.103l-9.603.038.273-.272v6.098l-.251-.245h4.757c3.043.033 11.296.169 14.448.224l-.022.021Zm206.753-6.099H210.78v6.099h19.205v-6.099ZM219.274.3h-19.205v6.099h19.205v-6.1Zm10.711 13.789c-3.2.054-11.268.19-14.36.223h-5.09v-.25l-.028-6.1V7.69h.273l9.603.039c2.392 0 7.21.07 9.602.103h.131v.13l-.131 6.1v.027Zm0 0-.131-6.099.131.131c-2.398.033-7.204.082-9.602.104l-9.603.038.274-.273v6.099l-.252-.25h4.758c3.048.037 11.301.174 14.447.228l-.022.022ZM33.943 6.399c-3.2.054-11.268.19-14.36.223h-5.091V0h.273l9.603.038c2.392 0 7.21.071 9.602.104h.131v.13l-.13 6.1-.028.027Zm0 0-.131-6.1.13.132c-2.397.032-7.21.081-9.602.103l-9.602.038.273-.272v6.099l-.251-.251h4.757c3.043.033 11.296.169 14.448.223l-.022.028Z"/>
  <path fill="#000" d="M12.558 232.784c-.17-2.496-.262-4.998-.377-7.494-.114-2.496-.19-4.998-.278-7.499a914.41 914.41 0 0 1-.284-14.994v-.867h.95c4.255 0 8.51-.054 12.765 0 4.255.055 8.51.044 12.76.104s8.51.147 12.765.273c2.125.054 4.255.147 6.38.228 2.124.082 4.255.164 6.38.284-2.125.125-4.25.207-6.38.289-2.13.081-4.255.174-6.38.223-4.255.131-8.51.213-12.765.273-4.255.06-8.505.103-12.76.109-4.255.005-8.51 0-12.765-.028l.94-.866a858.583 858.583 0 0 1-.279 14.993c-.087 2.502-.148 4.998-.279 7.5-.13 2.502-.218 4.976-.393 7.472Zm56.55-29.987c.17 2.502.262 4.998.382 7.499.12 2.502.192 4.998.273 7.494.148 4.998.224 9.996.285 14.994v.867h-.95c-4.294 0-8.593.059-12.892 0-4.298-.06-8.597-.044-12.896-.104a780.7 780.7 0 0 1-12.89-.278c-2.153-.049-4.3-.142-6.446-.223-2.146-.082-4.299-.164-6.45-.289a365.58 365.58 0 0 1 6.45-.284c2.152-.081 4.293-.174 6.446-.229 4.298-.125 8.597-.207 12.89-.272 4.294-.066 8.598-.098 12.896-.104 4.3-.005 8.598 0 12.891.028l-.934.861c.06-4.998.137-9.996.284-14.994.082-2.496.148-4.998.273-7.494.126-2.496.219-4.97.388-7.472Z" opacity=".1"/>
  <path fill="#000" d="M19.889 227.133a354.555 354.555 0 0 1-.295-9.341l-.093-4.666c-.044-1.559-.033-3.117-.05-4.671v-.403h.443l9.455-.049 9.455.054c3.152 0 6.303.093 9.455.137 3.152.043 6.303.147 9.455.261-3.152.115-6.303.207-9.455.262-3.152.054-6.303.131-9.455.131l-9.455.054-9.46-.038.437-.403c0 1.553 0 3.112-.05 4.671l-.092 4.665c-.055 3.112-.17 6.224-.295 9.336Zm41.894-18.678a377.9 377.9 0 0 1 .295 9.336c.055 3.112.137 6.23.142 9.342v.398h-.437l-9.553.043-9.553-.049c-3.185 0-6.364-.092-9.548-.136a428.97 428.97 0 0 1-9.553-.261 461.47 461.47 0 0 1 9.553-.262c3.184-.049 6.363-.136 9.548-.136l9.553-.055 9.553.049-.437.404c0-3.113.088-6.23.143-9.342.054-3.112.169-6.197.294-9.331Zm34.27 18.678c-.13-3.112-.24-6.224-.295-9.341l-.093-4.666c-.043-1.559-.032-3.117-.049-4.671v-.403h.443l9.455-.049 9.455.054c3.151 0 6.303.093 9.455.137 3.151.043 6.303.147 9.455.261-3.152.115-6.304.207-9.455.262-3.152.054-6.326.147-9.461.147l-9.455.055-9.455-.055.437-.403c0 1.553 0 3.112-.049 4.671l-.093 4.665a380.369 380.369 0 0 1-.295 9.336Zm41.895-18.678c.131 3.112.246 6.224.295 9.336.049 3.112.142 6.23.142 9.342v.398h-.437l-9.553.043-9.548-.049c-3.185 0-6.369-.092-9.553-.136a428.982 428.982 0 0 1-9.554-.261 461.48 461.48 0 0 1 9.554-.262c3.184-.049 6.368-.136 9.553-.136l9.548-.055 9.553.049-.431.404c0-3.113.081-6.23.142-9.342.06-3.112.163-6.197.289-9.331Z" opacity=".1"/>
  <path fill="#000" d="M88.729 232.784c-.17-2.496-.263-4.998-.377-7.494-.115-2.496-.192-4.998-.279-7.499a914.41 914.41 0 0 1-.284-14.994v-.867h.945c4.255 0 8.51-.054 12.765 0 4.255.055 8.51.044 12.765.104 4.255.06 8.505.147 12.76.273 2.125.054 4.255.147 6.38.228 2.124.082 4.255.164 6.379.284-2.124.125-4.249.207-6.379.289-2.131.081-4.255.174-6.38.223-4.255.131-8.51.213-12.76.273-4.249.06-8.51.103-12.765.109-4.255.005-8.51 0-12.765-.028l.945-.866c-.06 4.998-.142 9.996-.284 14.993-.087 2.502-.147 4.998-.279 7.5-.13 2.502-.213 4.976-.387 7.472Zm56.555-29.987c.169 2.502.262 4.998.377 7.499.114 2.502.191 4.998.278 7.494.142 4.998.224 9.996.284 14.994v.867h-.945c-4.298 0-8.597.059-12.896 0-4.298-.06-8.597-.044-12.896-.104-4.299-.06-8.592-.147-12.891-.278-2.146-.049-4.298-.142-6.445-.223-2.147-.082-4.299-.164-6.45-.289a365.58 365.58 0 0 1 6.45-.284c2.152-.081 4.299-.174 6.445-.229 4.299-.125 8.598-.207 12.891-.272 4.293-.066 8.598-.098 12.896-.104 4.299-.005 8.598 0 12.896.028l-.939.861c.06-4.998.142-9.996.284-14.994.082-2.496.147-4.998.273-7.494.126-2.496.219-4.97.388-7.472Zm26.934 24.336a403.688 403.688 0 0 1-.295-9.341l-.093-4.666c-.038-1.559-.033-3.117-.049-4.671v-.403h.437l9.455-.049 9.455.054c3.151 0 6.303.093 9.455.137 3.151.043 6.303.147 9.455.261-3.152.115-6.304.207-9.455.262-3.152.054-6.304.131-9.455.131l-9.455.054-9.455-.038.437-.403c0 1.553 0 3.112-.049 4.671l-.093 4.665a354.859 354.859 0 0 1-.295 9.336Zm41.895-18.678c.131 3.112.245 6.224.295 9.336.049 3.112.142 6.23.142 9.342v.398h-.437l-9.548.043-9.554-.049c-3.184 0-6.368-.092-9.553-.136a428.943 428.943 0 0 1-9.553-.261 461.44 461.44 0 0 1 9.553-.262c3.185-.049 6.369-.136 9.553-.136l9.554-.055 9.548.049-.432.404c0-3.113.082-6.23.142-9.342.06-3.112.164-6.197.29-9.331Z" opacity=".1"/>
  <path fill="#000" d="M164.903 232.784c-.174-2.496-.267-4.998-.382-7.494-.115-2.496-.191-4.998-.278-7.499a925.702 925.702 0 0 1-.285-14.994v-.867h.951c4.249 0 8.504-.054 12.76 0 4.255.055 8.51.044 12.765.104 4.255.06 8.504.147 12.759.273 2.13.054 4.255.147 6.38.228 2.125.082 4.255.164 6.385.284-2.13.125-4.255.207-6.385.289-2.13.081-4.25.174-6.38.223-4.255.131-8.51.213-12.759.273-4.25.06-8.51.103-12.765.109-4.256.005-8.511 0-12.76-.028l.939-.866c-.06 4.998-.142 9.996-.284 14.993-.087 2.502-.147 4.998-.278 7.5-.131 2.502-.213 4.976-.383 7.472Zm56.55-29.987c.17 2.502.262 4.998.377 7.499.115 2.502.191 4.998.279 7.494.142 4.998.224 9.996.284 14.994v.867h-.951c-4.298 0-8.597.059-12.896 0-4.299-.06-8.597-.044-12.89-.104a782.65 782.65 0 0 1-12.897-.278c-2.146-.049-4.298-.142-6.445-.223-2.147-.082-4.299-.164-6.445-.289 2.146-.12 4.293-.202 6.445-.284 2.152-.081 4.299-.174 6.445-.229 4.299-.125 8.598-.207 12.897-.272 4.298-.066 8.591-.098 12.89-.104 4.299-.005 8.598 0 12.896.028l-.939.861c.06-4.998.142-9.996.284-14.994.082-2.496.147-4.998.273-7.494.126-2.496.224-4.97.393-7.472Z" opacity=".1"/>
  <path fill="#DBDBDB" d="M24.663 7.991v177.405h184.692V7.991H24.663Zm180.661 173.382H28.694V12.013h176.63v169.36Z"/>
  <path fill="#37474F" d="M205.329 12.014H28.694v169.36h176.635V12.014Z"/>
  <path fill="#fff" d="m124.287 64.134.453.915 1.011.148-.732.714.175 1.002-.907-.474-.907.474.175-1.002-.732-.714 1.011-.148.453-.915ZM78.99 59.523l.453.915 1.01.147-.732.714.17 1.003-.902-.474-.907.474.175-1.003-.732-.714 1.01-.147.454-.916Zm83.718 8.987.453.916 1.011.147-.732.71.169 1.002-.901-.474-.907.474.175-1.003-.732-.709 1.011-.147.453-.915Zm31.375-34.359.447.916 1.016.147-.732.709.17 1.008-.901-.474-.907.474.175-1.008-.732-.709 1.01-.147.454-.916ZM68.546 32.785l.453.916 1.01.147-.731.714.175 1.003-.907-.474-.907.474.175-1.003-.732-.714 1.01-.147.454-.916Zm45.784 6.075.453.91 1.01.148-.731.714.169 1.003-.901-.475-.907.475.175-1.003-.732-.714 1.01-.148.454-.91Zm-21.97 64.03.28.561.622.093-.448.436.104.626-.557-.294-.563.294.11-.626-.454-.436.628-.093.279-.561ZM58.152 56.361l.278.567.629.087-.454.442.104.621-.557-.294-.557.294.104-.621-.454-.442.628-.087.279-.567Zm139.973 3.309.278.561.629.093-.454.441.11.622-.563-.295-.557.295.109-.622-.453-.441.622-.093.279-.561ZM46.812 23.928l.279.567.628.092-.454.436.104.622-.557-.295-.557.295.104-.622-.454-.436.628-.092.279-.567Zm107.02 23.697.278.567.629.093-.454.436.11.62-.563-.288-.557.289.104-.621-.448-.436.622-.093.279-.567Zm-13.633 6.165.278.566.628.087-.453.442.104.62-.557-.293-.557.294.103-.621-.453-.442.628-.087.279-.567Zm-6.665 32.172.279.567.628.087-.454.441.11.622-.563-.295-.557.295.104-.622-.448-.441.623-.087.278-.567ZM34.009 61.447l.278.562.629.092-.454.442.104.621-.557-.294-.557.294.103-.621-.453-.442.628-.092.279-.562Zm6.527-15.537.279.566.628.093-.453.436.103.621-.557-.289-.563.289.11-.621-.454-.436.629-.093.278-.567Zm147.505 35.713.279.561.623.093-.448.442.104.62-.558-.293-.562.294.109-.621-.453-.442.628-.093.278-.561Zm-54.507-61.075.279.567.628.087-.454.441.11.622-.563-.295-.557.295.104-.622-.448-.441.623-.087.278-.567ZM98.451 69.9l.279.562.622.092-.453.442.11.621-.558-.294-.562.294.109-.621-.454-.442.623-.092.284-.562ZM82.605 23.072l.284.562.623.092-.453.442.109.621-.563-.294-.557.294.11-.621-.454-.442.623-.092.278-.562Zm23.897 66.012.279.567.628.087-.453.442.104.62-.558-.293-.562.294.109-.621-.453-.442.628-.087.278-.567Zm46.429-8.794.278.566.623.093-.453.436.109.626-.557-.294-.563.294.109-.626-.453-.437.623-.092.284-.567ZM97.545 29.82l.278.566.629.087-.454.442.104.621-.557-.294-.563.294.11-.621-.454-.442.628-.087.279-.567Zm-6.091 23.97.279.566.628.087-.454.442.11.62-.563-.293-.557.294.104-.621-.448-.442.622-.087.279-.567Zm67.9-7.609a15.133 15.133 0 0 0 5.169 5.334 15.17 15.17 0 0 0 20.148-3.861A15.09 15.09 0 0 0 182.48 27.3a15.162 15.162 0 0 0-6.624-3.372 14.131 14.131 0 0 1 7.795 9.329 14.106 14.106 0 0 1-2.334 11.92 14.167 14.167 0 0 1-10.742 5.714 14.194 14.194 0 0 1-11.221-4.71Z"/>
  <path fill="#263238" d="M86.85 63.644H66.76v117.73h20.09V63.644Z"/>
  <path fill="#37474F" d="M86.855 70.996h-20.09v1.379h20.09v-1.379ZM72.533 76.43h-3.698v7.674h3.698V76.43Zm0 9.68h-3.698v7.673h3.698V86.11Zm0 9.68h-3.698v7.673h3.698v-7.674Zm0 9.673h-3.698v7.674h3.698v-7.674Zm0 9.68h-3.698v7.673h3.698v-7.673Zm0 9.679h-3.698v7.674h3.698v-7.674Zm0 9.673h-3.698v7.674h3.698v-7.674Zm0 9.681h-3.698v7.674h3.698v-7.674Zm0 9.679h-3.698v7.674h3.698v-7.674Zm0 9.674h-3.698v7.674h3.698v-7.674Zm0 9.68h-3.698v7.674h3.698v-7.674Z"/>
  <path fill="#37474F" d="M72.533 76.43h-3.698v7.674h3.698V76.43Zm0 9.68h-3.698v7.673h3.698V86.11Zm0 9.68h-3.698v7.673h3.698v-7.674Zm0 9.673h-3.698v7.674h3.698v-7.674Zm0 9.68h-3.698v7.673h3.698v-7.673Zm0 9.679h-3.698v7.674h3.698v-7.674Zm0 9.673h-3.698v7.674h3.698v-7.674Zm0 9.681h-3.698v7.674h3.698v-7.674Zm0 9.679h-3.698v7.674h3.698v-7.674Zm0 9.674h-3.698v7.674h3.698v-7.674Zm0 9.68h-3.698v7.674h3.698v-7.674Zm6.123-96.779h-3.698v7.674h3.698V76.43Zm0 9.68h-3.698v7.673h3.698V86.11Zm0 9.68h-3.698v7.673h3.698v-7.674Zm0 9.673h-3.698v7.674h3.698v-7.674Zm0 9.68h-3.698v7.673h3.698v-7.673Zm0 9.679h-3.698v7.674h3.698v-7.674Zm0 9.673h-3.698v7.674h3.698v-7.674Zm0 9.681h-3.698v7.674h3.698v-7.674Zm0 9.679h-3.698v7.674h3.698v-7.674Zm0 9.674h-3.698v7.674h3.698v-7.674Zm0 9.68h-3.698v7.674h3.698v-7.674Z"/>
  <path fill="#37474F" d="M78.656 76.43h-3.698v7.674h3.698V76.43Zm0 9.68h-3.698v7.673h3.698V86.11Z"/>
  <path fill="#65BEDC" d="M78.656 95.79h-3.698v7.673h3.698v-7.674Z"/>
  <path fill="#37474F" d="M78.656 105.463h-3.698v7.674h3.698v-7.674Zm0 9.68h-3.698v7.673h3.698v-7.673Zm0 9.679h-3.698v7.674h3.698v-7.674Zm0 9.673h-3.698v7.674h3.698v-7.674Z"/>
  <path fill="#65BEDC" d="M78.656 144.176h-3.698v7.674h3.698v-7.674Z"/>
  <path fill="#37474F" d="M78.656 153.855h-3.698v7.674h3.698v-7.674Zm0 9.674h-3.698v7.674h3.698v-7.674Zm0 9.68h-3.698v7.674h3.698v-7.674Zm6.129-96.779h-3.698v7.674h3.698V76.43Zm0 9.68h-3.698v7.673h3.698V86.11Zm0 9.68h-3.698v7.673h3.698v-7.674Zm0 9.673h-3.698v7.674h3.698v-7.674Zm0 9.68h-3.698v7.673h3.698v-7.673Zm0 9.679h-3.698v7.674h3.698v-7.674Zm0 9.673h-3.698v7.674h3.698v-7.674Zm0 9.681h-3.698v7.674h3.698v-7.674Zm0 9.679h-3.698v7.674h3.698v-7.674Zm0 9.674h-3.698v7.674h3.698v-7.674Zm0 9.68h-3.698v7.674h3.698v-7.674Z"/>
  <path fill="#65BEDC" d="M84.785 76.43h-3.698v7.674h3.698V76.43Z"/>
  <path fill="#37474F" d="M84.785 86.11h-3.698v7.673h3.698V86.11Zm0 9.68h-3.698v7.673h3.698v-7.674Zm0 9.673h-3.698v7.674h3.698v-7.674Zm0 9.68h-3.698v7.673h3.698v-7.673Zm0 9.679h-3.698v7.674h3.698v-7.674Zm0 9.673h-3.698v7.674h3.698v-7.674Zm0 9.681h-3.698v7.674h3.698v-7.674Zm0 9.679h-3.698v7.674h3.698v-7.674Zm0 9.674h-3.698v7.674h3.698v-7.674Zm0 9.68h-3.698v7.674h3.698v-7.674Z"/>
  <path fill="#263238" d="M66.76 63.644H32.42v117.73h34.34V63.644Z"/>
  <path fill="#37474F" d="M66.766 70.996H32.419v1.379h34.347v-1.379ZM42.103 76.43h-6.002v7.674h6.002V76.43Zm0 9.68h-6.002v7.673h6.002V86.11Zm0 9.68h-6.002v7.673h6.002v-7.674Zm0 9.673h-6.002v7.674h6.002v-7.674Zm0 9.68h-6.002v7.673h6.002v-7.673Zm0 9.679h-6.002v7.674h6.002v-7.674Zm0 9.673h-6.002v7.674h6.002v-7.674Zm0 9.681h-6.002v7.674h6.002v-7.674Zm0 9.679h-6.002v7.674h6.002v-7.674Zm0 9.674h-6.002v7.674h6.002v-7.674Zm0 9.68h-6.002v7.674h6.002v-7.674Z"/>
  <path fill="#37474F" d="M42.103 76.43h-6.002v7.674h6.002V76.43Zm0 9.68h-6.002v7.673h6.002V86.11Zm0 9.68h-6.002v7.673h6.002v-7.674Zm0 9.673h-6.002v7.674h6.002v-7.674Zm0 9.68h-6.002v7.673h6.002v-7.673Zm0 9.679h-6.002v7.674h6.002v-7.674Zm0 9.673h-6.002v7.674h6.002v-7.674Zm0 9.681h-6.002v7.674h6.002v-7.674Zm0 9.679h-6.002v7.674h6.002v-7.674Z"/>
  <path fill="#65BEDC" d="M42.103 163.529h-6.002v7.674h6.002v-7.674Z"/>
  <path fill="#37474F" d="M42.103 173.209h-6.002v7.674h6.002v-7.674Zm9.942-96.779h-6.003v7.674h6.003V76.43Zm0 9.68h-6.003v7.673h6.003V86.11Zm0 9.68h-6.003v7.673h6.003v-7.674Zm0 9.673h-6.003v7.674h6.003v-7.674Zm0 9.68h-6.003v7.673h6.003v-7.673Zm0 9.679h-6.003v7.674h6.003v-7.674Zm0 9.673h-6.003v7.674h6.003v-7.674Zm0 9.681h-6.003v7.674h6.003v-7.674Zm0 9.679h-6.003v7.674h6.003v-7.674Zm0 9.674h-6.003v7.674h6.003v-7.674Zm0 9.68h-6.003v7.674h6.003v-7.674Z"/>
  <path fill="#37474F" d="M52.045 76.43h-6.003v7.674h6.003V76.43Z"/>
  <path fill="#65BEDC" d="M52.045 86.11h-6.003v7.673h6.003V86.11Z"/>
  <path fill="#37474F" d="M52.045 95.79h-6.003v7.673h6.003v-7.674Zm0 9.673h-6.003v7.674h6.003v-7.674Zm0 9.68h-6.003v7.673h6.003v-7.673Zm0 9.679h-6.003v7.674h6.003v-7.674Zm0 9.673h-6.003v7.674h6.003v-7.674Z"/>
  <path fill="#65BEDC" d="M52.045 144.176h-6.003v7.674h6.003v-7.674Z"/>
  <path fill="#37474F" d="M52.045 153.855h-6.003v7.674h6.003v-7.674Zm0 9.674h-6.003v7.674h6.003v-7.674Zm0 9.68h-6.003v7.674h6.003v-7.674Zm9.947-96.779h-6.003v7.674h6.003V76.43Zm0 9.68h-6.003v7.673h6.003V86.11Zm0 9.68h-6.003v7.673h6.003v-7.674Zm0 9.673h-6.003v7.674h6.003v-7.674Zm0 9.68h-6.003v7.673h6.003v-7.673Zm0 9.679h-6.003v7.674h6.003v-7.674Zm0 9.673h-6.003v7.674h6.003v-7.674Zm0 9.681h-6.003v7.674h6.003v-7.674Zm0 9.679h-6.003v7.674h6.003v-7.674Zm0 9.674h-6.003v7.674h6.003v-7.674Zm0 9.68h-6.003v7.674h6.003v-7.674Z"/>
  <path fill="#37474F" d="M61.992 76.43h-6.003v7.674h6.003V76.43Zm0 9.68h-6.003v7.673h6.003V86.11Zm0 9.68h-6.003v7.673h6.003v-7.674Zm0 9.673h-6.003v7.674h6.003v-7.674Z"/>
  <path fill="#65BEDC" d="M61.992 115.143h-6.003v7.673h6.003v-7.673Z"/>
  <path fill="#37474F" d="M61.992 124.822h-6.003v7.674h6.003v-7.674Zm0 9.673h-6.003v7.674h6.003v-7.674Zm0 9.681h-6.003v7.674h6.003v-7.674Zm0 9.679h-6.003v7.674h6.003v-7.674Zm0 9.674h-6.003v7.674h6.003v-7.674Zm0 9.68h-6.003v7.674h6.003v-7.674Z"/>
  <path fill="#455A64" d="M66.754 181.373a6501.25 6501.25 0 0 1 0-117.725c.361 37.71.356 80.02 0 117.725Z"/>
  <path fill="#263238" d="M130.033 104.302H95.911v77.071h34.122v-77.071Zm-.12-10.52h-25.536v10.519h25.536V93.782Z"/>
  <path fill="#37474F" d="M108.687 95.407h-2.185v7.271h2.185v-7.27Zm3.818 0h-2.185v7.271h2.185v-7.27Zm3.824 0h-2.185v7.271h2.185v-7.27Zm3.818 0h-2.185v7.271h2.185v-7.27Zm3.824 0h-2.185v7.271h2.185v-7.27Zm3.817 0h-2.184v7.271h2.184v-7.27Z"/>
  <path fill="#263238" d="M141.526 93.782h-11.613v10.519h11.613V93.782Z"/>
  <path fill="#37474F" d="M133.398 95.407h-1.857v7.271h1.857v-7.27Zm3.25 0h-1.857v7.271h1.857v-7.27Zm3.25 0h-1.857v7.271h1.857v-7.27Z"/>
  <path fill="#263238" d="M147.414 104.302h-17.375v77.071h17.375v-77.071Z"/>
  <path fill="#455A64" d="M109.999 88.453h-.782v5.33h.782v-5.33Zm15.07 0h-.781v5.33h.781v-5.33Zm3.462-9.32h-22.772v9.32h22.772v-9.32Z"/>
  <path fill="#65BEDC" d="M109.195 111.502h-6.298v9.625h6.298v-9.625Z"/>
  <path fill="#37474F" d="M122.021 111.502h-6.298v9.625h6.298v-9.625Zm-12.826 15.168h-6.298v9.625h6.298v-9.625Zm12.826 0h-6.298v9.625h6.298v-9.625Zm-12.826 15.168h-6.298v9.625h6.298v-9.625Zm12.826 0h-6.298v9.625h6.298v-9.625Zm-12.826 15.167h-6.298v9.625h6.298v-9.625Z"/>
  <path fill="#65BEDC" d="M122.021 157.005h-6.298v9.625h6.298v-9.625Z"/>
  <path fill="#37474F" d="M109.195 172.174h-6.298v9.2h6.298v-9.2Zm12.826 0h-6.298v9.2h6.298v-9.2Zm14.703-60.672h-3.621v9.625h3.621v-9.625Zm7.369 0h-3.621v9.625h3.621v-9.625Zm-7.369 15.168h-3.621v9.625h3.621v-9.625Z"/>
  <path fill="#65BEDC" d="M144.093 126.67h-3.621v9.625h3.621v-9.625Z"/>
  <path fill="#37474F" d="M136.724 141.838h-3.621v9.625h3.621v-9.625Zm7.369 0h-3.621v9.625h3.621v-9.625Z"/>
  <path fill="#65BEDC" d="M136.724 157.005h-3.621v9.625h3.621v-9.625Z"/>
  <path fill="#37474F" d="M144.093 157.005h-3.621v9.625h3.621v-9.625Zm-7.374 15.169h-3.616v9.2h3.616v-9.2Zm7.369 0h-3.616v9.2h3.616v-9.2Z"/>
  <path fill="#455A64" d="M130.039 181.373c-.367-24.76-.356-52.289 0-77.071.355 24.787.36 52.322 0 77.071Z"/>
  <path fill="#263238" d="M205.329 91.668h-22.493v89.705h22.493V91.668Z"/>
  <path fill="#37474F" d="M188.042 99.691h-3.054v11.936h3.054V99.691Zm0 16.258h-3.054v11.936h3.054v-11.936Zm0 16.258h-3.054v11.936h3.054v-11.936Zm0 16.264h-3.054v11.936h3.054v-11.936Zm0 16.258h-3.054v11.935h3.054v-11.935Zm0 16.263h-3.054v.387h3.054v-.387Zm5.041-81.301h-3.053v11.936h3.053V99.691Zm0 16.258h-3.053v11.936h3.053v-11.936Z"/>
  <path fill="#65BEDC" d="M193.083 132.207h-3.053v11.936h3.053v-11.936Z"/>
  <path fill="#37474F" d="M193.083 148.471h-3.053v11.936h3.053v-11.936Zm0 16.258h-3.053v11.935h3.053v-11.935Zm0 16.263h-3.053v.387h3.053v-.387Zm5.047-81.301h-3.053v11.936h3.053V99.691Zm0 16.258h-3.053v11.936h3.053v-11.936Zm0 16.258h-3.053v11.936h3.053v-11.936Zm0 16.264h-3.053v11.936h3.053v-11.936Zm0 16.258h-3.053v11.935h3.053v-11.935Zm0 16.263h-3.053v.387h3.053v-.387Zm5.042-81.301h-3.053v11.936h3.053V99.691Zm0 16.258h-3.053v11.936h3.053v-11.936Zm0 16.258h-3.053v11.936h3.053v-11.936Zm0 16.264h-3.053v11.936h3.053v-11.936Zm0 16.258h-3.053v11.935h3.053v-11.935Zm0 16.263h-3.053v.387h3.053v-.387Z"/>
  <path fill="#263238" d="M182.836 91.668h-46.112v89.705h46.112V91.668Z"/>
  <path fill="#263238" d="M202.101 85.864h-63.17v5.805h63.17v-5.805Z"/>
  <path fill="#37474F" d="M147.392 99.691h-6.259v11.936h6.259V99.691Zm0 16.258h-6.259v11.936h6.259v-11.936Zm0 16.258h-6.259v11.936h6.259v-11.936Zm0 16.264h-6.259v11.936h6.259v-11.936Zm0 16.258h-6.259v11.935h6.259v-11.935Zm0 16.263h-6.259v.387h6.259v-.387Zm10.345-81.301h-6.259v11.936h6.259V99.691Zm0 16.258h-6.259v11.936h6.259v-11.936Zm0 16.258h-6.259v11.936h6.259v-11.936Zm0 16.264h-6.259v11.936h6.259v-11.936Zm0 16.258h-6.259v11.935h6.259v-11.935Z"/>
  <path fill="#65BEDC" d="M157.732 180.992h-6.26v.387h6.26v-.387Z"/>
  <path fill="#37474F" d="M168.083 99.691h-6.26v11.936h6.26V99.691Z"/>
  <path fill="#65BEDC" d="M168.083 115.949h-6.26v11.936h6.26v-11.936Z"/>
  <path fill="#37474F" d="M168.083 132.207h-6.26v11.936h6.26v-11.936Zm0 16.264h-6.26v11.936h6.26v-11.936Zm0 16.258h-6.26v11.935h6.26v-11.935Zm-.005 16.263h-6.26v.387h6.26v-.387Zm10.345-81.301h-6.26v11.936h6.26V99.691Zm0 16.258h-6.26v11.936h6.26v-11.936Zm0 16.258h-6.26v11.936h6.26v-11.936Zm0 16.264h-6.26v11.936h6.26v-11.936Z"/>
  <path fill="#65BEDC" d="M178.423 164.729h-6.26v11.935h6.26v-11.935Z"/>
  <path fill="#37474F" d="M178.423 180.992h-6.26v.387h6.26v-.387Z"/>
  <path fill="#455A64" d="M182.836 181.373c-.355-28.733-.361-60.972 0-89.705.355 28.733.355 60.972 0 89.705Z"/>
  <path fill="#455A64" d="M205.323 91.685c-22.039.365-46.543.354-68.599 0 22.062-.355 46.554-.36 68.599 0Z"/>
  <path fill="#455A64" d="M136.725 91.685c.355 28.733.355 60.971 0 89.705-.361-28.734-.356-60.972 0-89.705Zm2.206 0a15.154 15.154 0 0 1 0-5.804 15.036 15.036 0 0 1 0 5.804Z"/>
  <path fill="#C7C7C7" d="M28.689 98.705h176.635v-4.017H28.689v4.017Zm-18.195 98.218h213.03V185.39H10.494v11.533Z"/>
  <path fill="#C7C7C7" d="M28.689 12.008h176.635v169.365H28.688V12.008Zm172.904 3.722H32.419v161.926h169.174V15.73Z"/>
  <path fill="#C7C7C7" d="M147.878 12.008h-2.015V177.65h2.015V12.008Zm-59.728 0h-2.016V177.65h2.015V12.008Z"/>
  <path fill="#263238" d="M5.267 239.748c71.587-.332 151.891-.337 223.478 0-71.587.338-151.891.333-223.478 0Z"/>
  <path fill="#65BEDC" d="M209.95 182.184s-4.168-3.14-2.311-4.557c.65-.496 2.098 1.09 2.311 2.807.207-1.738 1.638-3.303 2.305-2.807 1.862 1.417-2.305 4.557-2.305 4.557Z"/>
  <path fill="#000" d="M209.95 182.184s-4.168-3.14-2.311-4.557c.65-.496 2.098 1.09 2.311 2.807.207-1.738 1.638-3.303 2.305-2.807 1.862 1.417-2.305 4.557-2.305 4.557Z" opacity=".2"/>
  <path fill="#65BEDC" d="M209.95 182.183c-2.518 0-4.369-2.283-3.823-3.27.65-1.133 2.911 1.537 2.911 1.537s-.847-3.771.907-3.771c1.753 0 .901 3.771.901 3.771s2.261-2.67 2.911-1.537c.574.987-1.294 3.27-3.807 3.27Z"/>
  <path fill="#455A64" d="m202.839 209.129-.405 9.151c-1.496.131-6.592-1.291-9.034-3.733-1.841-1.831-1.36-7.516-.339-14.563 1.022-7.047 3.054-7.859 4.752-7.456.404.088.78.276 1.093.545.901.785 1.289 2.251 1.442 4.137.202 2.507-.814 9.08-.546 10.639a1.346 1.346 0 0 0 .639.948c.764.469 1.999.332 2.398.332Z"/>
  <path fill="#455A64" d="M216.892 221.817s-7.237 2.643-14.775 0c0 0 .716-29.072 1.639-33.949.923-4.878 2.988-7.217 6.314-7.217.216-.001.431.012.645.039 2.643.272 4.495 2.3 5.058 6.164.437 2.954.819 19.31 1.005 28.57.071 3.793.114 6.393.114 6.393Z"/>
  <path fill="#455A64" d="M225.615 205.281c-2.447 2.442-7.537 3.864-9.029 3.728l-.409-9.145c.546 0 2.785.267 3.053-1.287.268-1.553-.743-8.131-.546-10.638.197-2.508.814-4.273 2.512-4.677.142-.037.286-.061.432-.071 1.6-.158 3.387 1.09 4.321 7.522.438 2.762.733 5.546.884 8.339.115 2.975-.191 5.21-1.218 6.229Z"/>
  <path fill="#37474F" d="M209.95 180.635a.48.48 0 0 1 .312.098c.092.065.176.14.251.224.142.168.266.351.371.545.201.399.367.815.497 1.243.256.856.459 1.728.607 2.61.295 1.761.458 3.543.584 5.32.126 1.776.175 3.564.208 5.346l.103 5.336c.039 3.564.093 7.123.115 10.682v10.683c-.071-1.777-.12-3.559-.18-5.336l-.142-5.341c-.082-3.559-.137-7.118-.208-10.683-.071-3.564-.038-7.117-.213-10.671-.087-1.771-.218-3.548-.47-5.303a19.98 19.98 0 0 0-.513-2.611 7.704 7.704 0 0 0-.448-1.248 3.1 3.1 0 0 0-.339-.545 1.364 1.364 0 0 0-.234-.234.497.497 0 0 0-.301-.115Z"/>
  <path fill="#37474F" d="M215.194 222.28a866.604 866.604 0 0 1-.11-5.346l-.076-5.342-.115-10.682c0-1.784-.029-3.565-.087-5.341l-.033-1.336-.049-1.329a71.098 71.098 0 0 0-.186-2.66 48.11 48.11 0 0 0-.3-2.649 22.309 22.309 0 0 0-.514-2.611 9.407 9.407 0 0 0-.983-2.458 5.41 5.41 0 0 0-.83-1.035 4.593 4.593 0 0 0-1.093-.747c.411.18.79.423 1.126.72.335.298.627.641.868 1.019a9.5 9.5 0 0 1 1.06 2.463c.457 1.729.76 3.494.906 5.276.181 1.771.301 3.554.366 5.336.066 1.782.104 3.564.131 5.346.028 1.783.055 3.559.061 5.342v5.346l-.05 5.342a250.818 250.818 0 0 1-.092 5.346Zm-5.244-41.645a.48.48 0 0 0-.306.109c-.09.066-.169.145-.235.235a2.86 2.86 0 0 0-.344.545 7.67 7.67 0 0 0-.448 1.248c-.229.858-.4 1.73-.513 2.61-.252 1.755-.383 3.532-.47 5.304-.169 3.553-.158 7.112-.213 10.671-.055 3.559-.12 7.123-.208 10.682l-.142 5.342c-.06 1.776-.103 3.559-.18 5.335v-10.682c0-3.559.082-7.118.12-10.682l.099-5.336c.032-1.782.082-3.565.207-5.347.126-1.782.295-3.559.585-5.319.147-.882.35-1.754.606-2.611a7.88 7.88 0 0 1 .497-1.243c.105-.193.229-.376.371-.545.075-.084.159-.159.252-.223a.476.476 0 0 1 .322-.093Z"/>
  <path fill="#37474F" d="M204.701 222.28c-.049-1.782-.077-3.564-.109-5.346l-.044-5.342v-5.346c0-1.783 0-3.559.06-5.342.06-1.782.071-3.564.131-5.346.06-1.782.191-3.565.366-5.336a30.85 30.85 0 0 1 .923-5.276 9.483 9.483 0 0 1 1.054-2.463 5.01 5.01 0 0 1 .869-1.019 4.374 4.374 0 0 1 1.125-.72 4.607 4.607 0 0 0-1.092.747 5.116 5.116 0 0 0-.825 1.035 9.259 9.259 0 0 0-.989 2.458c-.223.86-.394 1.731-.513 2.611-.126.878-.224 1.76-.301 2.649a71.845 71.845 0 0 0-.185 2.66l-.05 1.329-.032 1.336a326.543 326.543 0 0 0-.088 5.341l-.114 10.682-.077 5.342c-.033 1.782-.06 3.564-.109 5.346Zm5.249.693c-.049-1.76-.065-3.526-.104-5.292l-.054-5.292c-.033-3.527-.033-7.086-.05-10.585-.016-3.499 0-7.058.05-10.584l.054-5.292c.039-1.766.055-3.526.104-5.292.044 1.766.066 3.526.099 5.292l.054 5.292c.033 3.526.033 7.058.049 10.584a565.9 565.9 0 0 1-.049 10.585l-.054 5.292c-.033 1.766-.055 3.532-.099 5.292Zm-12.137-30.461c.182.148.346.318.486.507.137.192.252.398.344.615.172.44.293.897.361 1.363.119.931.159 1.87.12 2.807a51.409 51.409 0 0 1-.514 5.608 26.22 26.22 0 0 0-.289 2.752 9.457 9.457 0 0 0 .202 2.726c.108.436.293.849.546 1.22.125.186.274.355.443.502.167.147.35.275.546.381.408.211.844.361 1.294.447.454.088.918.142 1.382.191-.467.001-.934-.028-1.398-.087a4.656 4.656 0 0 1-1.365-.376 2.698 2.698 0 0 1-1.12-.927 3.746 3.746 0 0 1-.628-1.297 9.226 9.226 0 0 1-.284-2.818c.041-.934.132-1.866.273-2.79.131-.921.251-1.842.355-2.763.104-.921.191-1.843.251-2.769.066-.92.066-1.843 0-2.763a5.988 5.988 0 0 0-.268-1.352 2.875 2.875 0 0 0-.737-1.177Z"/>
  <path fill="#37474F" d="M197.496 192.441a.996.996 0 0 0-.398.218c-.115.1-.219.212-.312.333a3.884 3.884 0 0 0-.475.774c-.259.554-.467 1.13-.623 1.722a26.945 26.945 0 0 0-.677 3.597c-.295 2.436-.579 4.873-.655 7.314a21.2 21.2 0 0 0 .153 3.641c.078.593.232 1.174.458 1.728a4.61 4.61 0 0 0 1.027 1.439 10.46 10.46 0 0 0 3.032 1.984c1.117.508 2.288.89 3.49 1.139a15.483 15.483 0 0 1-3.578-.927 10.376 10.376 0 0 1-3.173-1.94 4.755 4.755 0 0 1-1.131-1.521 7.377 7.377 0 0 1-.513-1.815 20.556 20.556 0 0 1-.175-3.711c.111-2.467.362-4.925.754-7.363.175-1.224.444-2.432.803-3.614a9.93 9.93 0 0 1 .715-1.711c.152-.275.335-.531.547-.763.097-.121.211-.227.338-.316a.946.946 0 0 1 .393-.208Zm23.755-9.195a2.91 2.91 0 0 0-.726 1.161 5.938 5.938 0 0 0-.262 1.346 18.546 18.546 0 0 0 0 2.769c.054.926.142 1.848.251 2.769.109.921.218 1.842.349 2.757.143.927.236 1.86.279 2.796a9.453 9.453 0 0 1-.284 2.818c-.127.468-.34.907-.628 1.297a2.856 2.856 0 0 1-.508.545 2.96 2.96 0 0 1-.612.382 4.664 4.664 0 0 1-1.365.376c-.464.06-.931.087-1.399.082.464-.044.923-.098 1.377-.186a4.537 4.537 0 0 0 1.294-.452c.397-.21.737-.51.994-.878.256-.37.441-.783.547-1.22a9.672 9.672 0 0 0 .202-2.725c-.039-.922-.159-1.832-.29-2.753a51.452 51.452 0 0 1-.519-5.57c-.04-.937.002-1.877.126-2.807.068-.466.189-.923.36-1.362a3.43 3.43 0 0 1 .35-.6c.133-.199.288-.382.464-.545Z"/>
  <path fill="#37474F" d="M221.568 183.175c.153.03.297.096.421.191.123.093.236.199.338.316.21.235.393.493.547.768.288.548.526 1.121.71 1.712a23.36 23.36 0 0 1 .803 3.613c.39 2.433.642 4.886.753 7.347a20.559 20.559 0 0 1-.18 3.711 7.154 7.154 0 0 1-.513 1.815 4.807 4.807 0 0 1-1.131 1.521 10.294 10.294 0 0 1-3.173 1.94 15.4 15.4 0 0 1-3.573.949 16.704 16.704 0 0 0 3.496-1.134 10.575 10.575 0 0 0 3.026-1.984c.432-.409.78-.898 1.027-1.439a6.843 6.843 0 0 0 .459-1.727c.158-1.207.209-2.425.153-3.641-.077-2.442-.355-4.905-.656-7.314a25.757 25.757 0 0 0-.677-3.603c-.153-.59-.36-1.164-.617-1.717a4.77 4.77 0 0 0-.475-.779 1.962 1.962 0 0 0-.317-.327.867.867 0 0 0-.421-.218Zm-16.867 2.578c.211.258.403.531.574.817.087.142.164.289.245.431.082.142.153.294.224.441l-.338-.043c.104-.125.213-.251.322-.371.109-.12.224-.245.344-.359.231-.241.483-.46.754-.654a6.223 6.223 0 0 1-.513.855c-.088.142-.192.267-.29.404-.098.136-.202.256-.306.387l-.202.245-.137-.289c-.071-.147-.142-.294-.207-.447a7.994 7.994 0 0 1-.186-.458 6.282 6.282 0 0 1-.284-.959Z"/>
  <path fill="#37474F" d="M205.837 185.279c.053.19.083.386.088.583.013.182.013.364 0 .545a3.997 3.997 0 0 1-.115.545 2.24 2.24 0 0 1-.229.546 2.18 2.18 0 0 1-.088-.584 3.313 3.313 0 0 1 .027-.545c.021-.184.057-.367.11-.545a2.18 2.18 0 0 1 .207-.545Zm6.025 28.488c.243.229.466.478.666.746.104.126.197.262.295.398.098.136.186.273.273.409h-.344c.091-.142.184-.278.279-.409.103-.131.196-.267.3-.398a6.08 6.08 0 0 1 .672-.736c-.11.314-.245.619-.404.911-.077.147-.164.289-.241.43-.076.142-.174.284-.262.42l-.175.272-.169-.272c-.087-.142-.175-.278-.257-.42a6.516 6.516 0 0 1-.234-.436 6.35 6.35 0 0 1-.399-.915Z"/>
  <path fill="#37474F" d="M212.938 213.151c.074.175.126.358.153.545a3.212 3.212 0 0 1-.006 1.09 2.383 2.383 0 0 1-.158.545 2.2 2.2 0 0 1-.159-.545 3.965 3.965 0 0 1-.043-.545c.003-.182.02-.364.049-.545a2.21 2.21 0 0 1 .164-.545Zm-.623-33.845c.115.312.205.632.268.959.038.163.06.327.087.49.028.164.05.322.066.485l-.306-.147c.142-.087.284-.169.432-.245.147-.076.289-.158.442-.223.299-.148.61-.272.929-.371-.24.234-.498.449-.771.643-.131.098-.267.185-.404.284l-.42.261-.274.164-.032-.316c0-.164-.033-.327-.044-.496-.011-.169 0-.327 0-.491a6.912 6.912 0 0 1 .027-.997Z"/>
  <path fill="#37474F" d="M213.545 179.235c-.01.197-.047.391-.109.578a3.61 3.61 0 0 1-.503 1.036 2.795 2.795 0 0 1-.399.436c.01-.199.047-.395.109-.584.059-.186.13-.368.213-.545a3.93 3.93 0 0 1 .295-.49c.114-.159.246-.303.394-.431Zm13.753 17.202a6.815 6.815 0 0 1-.098.997c0 .163-.06.321-.088.485-.027.163-.076.322-.114.48l-.23-.251.486-.076c.164 0 .328-.044.492-.055a6.183 6.183 0 0 1 1 0 6.436 6.436 0 0 1-.945.327l-.481.12-.486.093-.312.06.082-.311c.044-.158.088-.316.137-.474.049-.158.093-.316.153-.469a6.67 6.67 0 0 1 .404-.926Z"/>
  <path fill="#37474F" d="M228.472 196.807a2.423 2.423 0 0 1-.311.501c-.235.3-.517.56-.836.769a2.284 2.284 0 0 1-.546.272c.08-.181.182-.352.306-.507a3.81 3.81 0 0 1 .835-.768c.172-.112.358-.202.552-.267Zm-9.176-3.751c.291.157.567.339.825.545.136.099.256.208.382.317.126.109.246.218.366.332l-.333.076c.054-.152.115-.305.175-.458.06-.152.12-.31.191-.457.134-.305.293-.598.475-.878-.03.332-.089.66-.175.981-.033.164-.087.316-.125.48-.039.163-.099.311-.153.469l-.104.299-.23-.218a11.452 11.452 0 0 1-.688-.714 6.772 6.772 0 0 1-.606-.774Z"/>
  <path fill="#37474F" d="M220.192 192.19c.119.157.216.33.289.513.074.177.134.359.181.545.045.179.074.361.087.545.027.195.027.393 0 .588a2.155 2.155 0 0 1-.295-.517 3.904 3.904 0 0 1-.268-1.09c-.022-.194-.02-.39.006-.584Zm-.142-10.373c.289.16.564.342.825.545l.382.316.366.333-.333.082c.054-.159.109-.311.169-.464a6.71 6.71 0 0 1 .197-.452c.132-.308.291-.603.475-.883a7.322 7.322 0 0 1-.175.986c-.038.158-.087.317-.131.475a6.562 6.562 0 0 1-.153.468l-.104.306-.229-.224c-.115-.114-.235-.229-.35-.349-.114-.12-.224-.234-.333-.365a6.13 6.13 0 0 1-.606-.774Z"/>
  <path fill="#37474F" d="M220.945 180.973c.117.158.215.33.29.512.072.177.131.359.175.545.044.179.075.361.093.545.024.195.024.393 0 .589a2.384 2.384 0 0 1-.29-.513 3.793 3.793 0 0 1-.268-1.09 2.41 2.41 0 0 1 0-.588Zm-7.302 9.042c.255.214.494.448.715.698.109.12.213.25.317.376.104.125.207.261.306.392h-.344c.082-.142.164-.289.251-.425s.175-.283.268-.414a6.45 6.45 0 0 1 .617-.79 5.542 5.542 0 0 1-.339.942c-.065.153-.142.3-.207.447-.066.148-.153.295-.235.436l-.153.278-.186-.256a6.827 6.827 0 0 1-.284-.403c-.087-.136-.186-.273-.268-.414a5.697 5.697 0 0 1-.458-.867Z"/>
  <path fill="#37474F" d="M214.67 189.339c.09.172.156.355.197.545.037.18.065.362.082.545.015.181.015.364 0 .545a2.247 2.247 0 0 1-.121.578 2.262 2.262 0 0 1-.196-.545 3.246 3.246 0 0 1-.082-.545 3.813 3.813 0 0 1 0-.545c.016-.197.056-.391.12-.578Zm-13.333 4.475a6.5 6.5 0 0 1 .989.164l.48.125.47.147-.268.213c0-.164-.027-.327-.038-.491-.011-.163 0-.327 0-.49a6.056 6.056 0 0 1 .055-.998c.114.314.202.637.262.965.033.158.055.322.082.485.027.164.044.327.065.491l.033.316-.3-.104-.47-.169c-.147-.06-.306-.12-.453-.191a5.91 5.91 0 0 1-.907-.463Z"/>
  <path fill="#37474F" d="M201.795 192.675c.175.092.337.208.481.343.139.129.268.267.387.414.117.149.223.305.317.469.101.171.178.354.23.545a2.592 2.592 0 0 1-.476-.343 3.984 3.984 0 0 1-.71-.889 2.289 2.289 0 0 1-.229-.539Zm-10.574 8.383c.333.029.663.084.988.163l.481.126c.158.043.311.098.47.147l-.268.213c0-.164-.033-.327-.038-.491-.006-.163 0-.327 0-.496a6.044 6.044 0 0 1 .055-.997c.112.314.2.636.262.964.032.164.054.327.082.491.027.163.043.327.06.49l.038.316-.306-.103-.464-.169c-.153-.065-.306-.12-.459-.191a5.849 5.849 0 0 1-.901-.463Z"/>
  <path fill="#37474F" d="M191.674 199.919c.176.091.338.207.48.343.28.257.52.555.711.883.1.171.177.354.229.545a2.369 2.369 0 0 1-.481-.338 3.598 3.598 0 0 1-.704-.888 2.48 2.48 0 0 1-.235-.545Zm17.205-3.211c.242.229.465.476.667.741.104.131.196.267.295.398.098.131.191.273.278.409h-.344c.093-.136.18-.278.279-.409.098-.131.191-.267.295-.398.201-.265.424-.512.666-.741-.107.316-.24.622-.399.916-.071.147-.158.289-.24.43a9.798 9.798 0 0 1-.257.42l-.169.267-.175-.267a10.927 10.927 0 0 1-.257-.42c-.081-.141-.163-.283-.24-.436a5.707 5.707 0 0 1-.399-.91Z"/>
  <path fill="#37474F" d="M209.95 196.098c.074.175.127.358.158.545.059.375.059.758 0 1.133-.031.188-.084.37-.158.545a2.21 2.21 0 0 1-.164-.545 3.71 3.71 0 0 1 0-1.133 2.21 2.21 0 0 1 .164-.545Zm-12.262 19.479a6.27 6.27 0 0 1 .994-.136h.988l-.191.283a9.286 9.286 0 0 1-.344-.921 6.471 6.471 0 0 1-.246-.97c.205.267.387.549.546.845.082.142.153.294.224.441.071.147.142.295.208.447l.126.294h-.814c-.164 0-.328 0-.492-.049a6.22 6.22 0 0 1-.999-.234Z"/>
  <path fill="#37474F" d="M197.786 214.35c.189.041.372.103.546.185.173.083.339.177.497.283.158.108.308.226.448.355.146.133.272.285.377.452a2.565 2.565 0 0 1-.546-.185 4.14 4.14 0 0 1-.497-.284 3.861 3.861 0 0 1-.443-.354 2.234 2.234 0 0 1-.382-.452Zm.027-16.164c.242.228.465.476.666.741.11.131.202.267.301.398.098.13.185.272.273.408h-.339l.273-.408c.099-.131.192-.267.295-.398a6.56 6.56 0 0 1 .672-.741 6.488 6.488 0 0 1-.404.915c-.071.147-.158.289-.235.431l-.262.425-.169.267-.17-.267a15.291 15.291 0 0 1-.262-.425c-.076-.142-.164-.284-.235-.431a6.488 6.488 0 0 1-.404-.915Z"/>
  <path fill="#37474F" d="M198.884 197.575c.073.175.126.358.158.545.03.18.045.363.044.545.001.183-.014.365-.044.545a2.116 2.116 0 0 1-.158.545 1.951 1.951 0 0 1-.159-.545 3.31 3.31 0 0 1-.043-.545 3.32 3.32 0 0 1 .043-.545c.03-.187.083-.37.159-.545Zm22.962 5.837c.039.331.048.665.028.997 0 .169 0 .333-.033.496-.033.164-.033.327-.055.491l-.262-.223c.158-.044.317-.093.481-.131.164-.038.317-.082.48-.109.327-.074.66-.119.995-.137a6.09 6.09 0 0 1-.902.436c-.153.066-.311.12-.464.18l-.47.153-.306.093.044-.317c.027-.163.049-.327.077-.485.027-.158.06-.327.103-.485.069-.326.164-.647.284-.959Z"/>
  <path fill="#37474F" d="M223.059 203.636c-.057.191-.14.375-.246.545a3.875 3.875 0 0 1-.333.463c-.125.144-.26.279-.404.403-.149.13-.314.24-.492.327.058-.191.141-.375.246-.545a3.892 3.892 0 0 1 .738-.866c.149-.129.315-.239.491-.327Zm-17.14 4.855c.242.23.465.48.666.747.104.125.197.262.295.398.099.136.191.267.279.409h-.344c.093-.142.18-.278.278-.409.099-.131.191-.273.295-.398.203-.267.428-.517.672-.747-.102.315-.23.622-.382.916-.071.152-.159.289-.241.436-.082.147-.169.283-.256.42l-.17.267-.174-.267a10.46 10.46 0 0 1-.497-.856 6.213 6.213 0 0 1-.421-.916Z"/>
  <path fill="#37474F" d="M206.989 207.887c.075.174.128.357.159.545a3.434 3.434 0 0 1 0 1.09c-.032.187-.085.37-.159.545a2.3 2.3 0 0 1-.164-.545 3.21 3.21 0 0 1 .006-1.09 1.95 1.95 0 0 1 .158-.545Zm-13.923-.529a6.6 6.6 0 0 1 .672.747c.104.125.197.262.295.398.099.136.186.267.279.409h-.344c.087-.142.18-.278.273-.409.093-.131.191-.273.3-.398.201-.267.424-.516.667-.747a6.313 6.313 0 0 1-.399.916c-.077.153-.164.289-.24.436-.077.147-.17.283-.257.42l-.175.267-.169-.267c-.088-.142-.175-.278-.257-.42-.082-.142-.169-.289-.24-.436a6.343 6.343 0 0 1-.405-.916Z"/>
  <path fill="#37474F" d="M194.137 206.754c.079.173.133.357.159.545.029.18.045.362.049.545a3.99 3.99 0 0 1-.044.545 2.21 2.21 0 0 1-.164.545 2.52 2.52 0 0 1-.158-.545 3.312 3.312 0 0 1 0-1.09c.031-.187.084-.37.158-.545Z"/>
  <path fill="#65BEDC" d="M194.569 195.934s-3.873 0-3.409-1.667c.164-.578 1.721-.3 2.628.637-.656-1.128-.498-2.698.103-2.692 1.737.011.678 3.722.678 3.722Z"/>
  <path fill="#000" d="M194.569 195.934s-3.873 0-3.409-1.667c.164-.578 1.721-.3 2.628.637-.656-1.128-.498-2.698.103-2.692 1.737.011.678 3.722.678 3.722Z" opacity=".2"/>
  <path fill="#65BEDC" d="M194.569 195.935c-1.492 1.122-3.616.605-3.726-.24-.125-.965 2.409-.387 2.409-.387s-2.185-1.859-1.158-2.638c1.027-.779 2.223 1.831 2.223 1.831s.142-2.589 1.038-2.18c.781.311.699 2.496-.786 3.614Zm29.523-10.034s-2.037-3.271-.372-3.767c.579-.169 1.164 1.298.842 2.562.611-1.15 2.032-1.842 2.348-1.33.907 1.477-2.818 2.535-2.818 2.535Z"/>
  <path fill="#000" d="M224.092 185.901s-2.037-3.271-.372-3.767c.579-.169 1.164 1.298.842 2.562.611-1.15 2.032-1.842 2.348-1.33.907 1.477-2.818 2.535-2.818 2.535Z" opacity=".2"/>
  <path fill="#65BEDC" d="M224.091 185.901c-1.737-.67-2.414-2.725-1.753-3.27.748-.611 1.6 1.837 1.6 1.837s.427-2.835 1.639-2.366c1.213.469-.388 2.851-.388 2.851s2.283-1.243 2.425-.289c.121.828-1.78 1.907-3.523 1.237Zm-25.71 36.33h20.997l-2.114 17.517h-16.769l-2.114-17.517Z"/>
  <path fill="#000" d="m198.381 222.231.476 3.952 20.16-.965.361-2.987h-20.997Z" opacity=".1"/>
  <path fill="#65BEDC" d="M220.694 220.019H197.06v3.133h23.634v-3.133Z"/>
  <path fill="#AD6359" d="M29.66 119.344c6.336 11.702 16.436 25.038 19.664 26.772 4.064 2.18 23.755-.513 24.847-.693 2.698-.457 2.928-17.685 0-17.315-4.43.545-17.195 3.368-18.385 2.676-1.191-.692-10.045-7.15-19.336-14.585-6.413-5.145-10.723-4.114-6.79 3.145Z"/>
  <path fill="#AD6359" d="M74.161 145.422c2.439.502 4.91.83 7.396.981 1.955.028 7.576-.054 7.816-2.18.17-1.46-3.146-1.804-5.462-2.098-1.229-.153-2.911-.932-2.78-1.728.224-1.395 3.414-.937 5.582-.365 4.195 1.09 10.056 3.543 11.755 1.09.644-.921-.672-1.913-2.436-2.758 2.703.807 5.462 1.314 6.237.316.432-.545.301-1.15-.185-1.716a1.679 1.679 0 0 0 1.698-.769c.547-.986-.153-2.038-1.3-2.992a.919.919 0 0 0 .547-.632c.917-2.845-8.926-7.581-11.848-7.472-8.592.31-16.993 3.013-16.993 3.013-2.48 3.391-.038 17.305-.027 17.31Z"/>
  <path fill="#263238" d="M83.965 134.741a14.225 14.225 0 0 1 5.954.583c2.42.785 4.211 1.984 6.363 3.101a.057.057 0 0 1 .018.011.055.055 0 0 1 .011.017.048.048 0 0 1-.002.04.039.039 0 0 1-.012.016.044.044 0 0 1-.019.01.047.047 0 0 1-.02.001.063.063 0 0 1-.02-.007c-1.026-.545-5.2-2.431-6.248-2.835a13.602 13.602 0 0 0-6.008-.904s-.039-.033-.017-.033Zm.557-3.815c2.296-.09 4.595.056 6.86.436 2.459.501 4.638 1.82 6.768 3.079a98.363 98.363 0 0 1 3.791 2.36c.049.033 0 .12-.044.088a128.3 128.3 0 0 0-6.636-3.734 17.872 17.872 0 0 0-6.702-2.016c-1.339-.126-2.688-.153-4.031-.175-.028-.005-.028-.038-.006-.038Zm1.442-3.619c2.185-.147 4.07-.278 6.2.316 2.818.796 5.828 2.611 6.888 3.27a87.738 87.738 0 0 1 3.446 2.235c.044.027 0 .109-.054.082a69.975 69.975 0 0 0-8.002-4.48 14.151 14.151 0 0 0-4.146-1.308 25.473 25.473 0 0 0-4.332-.082v-.033Z"/>
  <path fill="#65BEDC" d="m73.243 127.465-.814 22.476s-19.117-.163-23.307-2.752c-4.19-2.589-15.141-18.923-19.32-27.164-4.178-8.241.306-9.233 5.889-4.856 5.582 4.376 19.368 14.906 20.013 15.037.644.131 17.539-2.741 17.539-2.741Z"/>
  <path fill="#263238" d="M68.186 141.226c.114-2.654.257-5.314.273-7.974v-4.534c0-.055-.098-.065-.104 0-.224 2.66-.443 5.33-.547 8.001-.103 2.67-.224 5.314-.295 7.973-.033 1.51 0 3.02.028 4.53 0 .007.002.014.008.019a.028.028 0 0 0 .019.008.028.028 0 0 0 .02-.008.026.026 0 0 0 .007-.019c.345-2.655.47-5.32.59-7.996Z"/>
  <path fill="#000" d="M59.282 149.292c-4.32-.403-8.46-1.052-10.16-2.103-4.216-2.589-15.14-18.924-19.32-27.164-2.037-4.017-2.01-6.312-.802-7.086 9.182 10.721 22.335 26.886 30.282 36.353Z" opacity=".1"/>
  <path fill="#65BEDC" d="m48.86 152.792-8.909 4.649-2.545-1.761-3.032 3.391-26.152 3.978c-.11-.845.792-37.154 11.312-49.913 2.185-2.665 5.61-4.322 9.318-1.439 7.625 5.925 20.467 40.484 20.008 41.095Z"/>
  <path fill="#263238" d="M30.256 121.29c3.25 9.712 5.123 19.91 6.604 30.031l.546 4.36c-1.961-11.402-4.026-23.267-7.15-34.391Zm.142 5.276a.665.665 0 0 1-1.138.47.665.665 0 0 1-.195-.47.664.664 0 0 1 .664-.605.667.667 0 0 1 .663.605h.006Zm0 0a.54.54 0 0 0-.527-.402.545.545 0 0 0-.527.402.548.548 0 0 0 1.054 0Zm1.78 6.807a.664.664 0 0 1-.663.605.667.667 0 0 1-.664-.605.665.665 0 0 1 1.327 0Zm0 0a.548.548 0 0 0-1.054 0 .54.54 0 0 0 .527.402.545.545 0 0 0 .527-.402Zm1.432 6.868a.663.663 0 0 1-.664.604.667.667 0 0 1-.664-.604.664.664 0 0 1 .664-.605.667.667 0 0 1 .663.605Zm0 0a.547.547 0 0 0-1.055 0 .548.548 0 0 0 1.054 0Zm1.288 6.943a.656.656 0 0 1-.66.659.66.66 0 1 1 .66-.659Zm0 0a.549.549 0 0 0-.852-.284.549.549 0 0 0-.196.284.542.542 0 0 0 .524.392.546.546 0 0 0 .524-.392Zm1.328 6.763a.667.667 0 0 1-1.327 0 .664.664 0 0 1 .664-.605.667.667 0 0 1 .663.605Zm0 0a.546.546 0 0 0-1.054 0 .548.548 0 0 0 1.054 0Z"/>
  <path fill="#EB9481" d="M21.746 220.855c.42-1.635 25.48-40.43 27.37-41.308.716-.337 2.087-1.536 9.068 2.666l13.688-13.168 9.357 26.03-34.62 16.689s-16.25 10.568-18.429 11.303c-2.18.736-6.855-.577-6.434-2.212Z"/>
  <path fill="#AD6359" d="M21.746 220.855c.42-1.635 25.48-40.43 27.37-41.308.716-.337 2.087-1.536 9.068 2.666l13.688-13.168 9.357 26.03-34.62 16.689s-16.25 10.568-18.429 11.303c-2.18.736-6.855-.577-6.434-2.212Z"/>
  <path fill="#65BEDC" d="m60.713 204.967-14.103 6.796s-16.25 10.563-18.43 11.304c-2.18.741-6.855-.578-6.429-2.213.426-1.635 25.476-40.435 27.366-41.313.715-.338 2.08-1.537 9.067 2.666l1.448-1.396 1.081 24.156Z"/>
  <path fill="#fff" d="m60.713 204.967-14.103 6.796s-16.25 10.563-18.43 11.304c-2.18.741-6.855-.578-6.429-2.213.426-1.635 25.476-40.435 27.366-41.313.715-.338 2.08-1.537 9.067 2.666l1.448-1.396 1.081 24.156Z" opacity=".6"/>
  <path fill="#263238" d="M57.556 205.212a8.501 8.501 0 0 1 1.207-1.493 8.33 8.33 0 0 1 1.48-1.232 8.465 8.465 0 0 1-1.207 1.499 8.722 8.722 0 0 1-1.48 1.226Zm-.148-2.501a8.46 8.46 0 0 1 1.202-1.498 8.728 8.728 0 0 1 1.48-1.227 8.43 8.43 0 0 1-1.202 1.499 8.899 8.899 0 0 1-1.48 1.226Zm-.152-2.507c.347-.54.752-1.04 1.207-1.493.444-.465.94-.877 1.48-1.227a8.67 8.67 0 0 1-1.207 1.494 8.05 8.05 0 0 1-1.48 1.226Zm-.148-2.501a8.476 8.476 0 0 1 1.207-1.494c.444-.466.94-.88 1.48-1.231a9.591 9.591 0 0 1-2.687 2.725Zm-.148-2.502a8.435 8.435 0 0 1 1.202-1.499 8.719 8.719 0 0 1 1.48-1.226 8.46 8.46 0 0 1-1.201 1.498 8.95 8.95 0 0 1-1.48 1.227Zm-.153-2.508a8.947 8.947 0 0 1 1.207-1.493c.444-.465.94-.877 1.48-1.226a8.668 8.668 0 0 1-1.207 1.493c-.442.466-.94.878-1.48 1.226Zm-.147-2.501a9.654 9.654 0 0 1 2.682-2.725 8.503 8.503 0 0 1-1.202 1.499 8.77 8.77 0 0 1-1.48 1.226Zm-.148-2.502a8.467 8.467 0 0 1 1.202-1.499 8.722 8.722 0 0 1 1.48-1.226 8.502 8.502 0 0 1-1.202 1.499c-.447.46-.944.872-1.48 1.226Zm-.136-2.506a8.913 8.913 0 0 1 1.207-1.494c.444-.465.94-.876 1.48-1.226a8.63 8.63 0 0 1-1.207 1.493c-.444.465-.94.877-1.48 1.227Z"/>
  <path fill="#65BEDC" d="M126.996 164.041c-3.774 12.094-62.662 42.354-62.662 42.354L52.65 175.296l27.076-13.08-58.947-5.783 29.348-12.536s5.779 2.126 9.903.72c1.808-.611 41.015-7.925 48.782-6.382 17.124 3.406 21.642 14.71 18.184 25.806Z"/>
  <path fill="#000" d="M126.996 164.041c-3.774 12.094-62.662 42.354-62.662 42.354L52.65 175.296l27.076-13.08-58.947-5.783 29.348-12.536s5.779 2.126 9.903.72c1.808-.611 41.015-7.925 48.782-6.382 17.124 3.406 21.642 14.71 18.184 25.806Z" opacity=".2"/>
  <path fill="#65BEDC" d="M74.018 143.396a1.663 1.663 0 0 1-1.007 1.627 1.672 1.672 0 0 1-2.33-1.627c0-.319.092-.632.268-.899l2.403-.425a1.638 1.638 0 0 1 .666 1.324Zm13.006 1.668a1.676 1.676 0 0 0 1.544-1.029 1.667 1.667 0 0 0-1.218-2.274 1.671 1.671 0 0 0-1.998 1.635 1.667 1.667 0 0 0 1.672 1.668Zm14.671 0a1.677 1.677 0 0 0 1.544-1.029 1.667 1.667 0 0 0-1.218-2.274 1.669 1.669 0 1 0-.309 3.303h-.017Zm14.672 0a1.676 1.676 0 0 0 1.544-1.029 1.667 1.667 0 0 0-1.218-2.274 1.671 1.671 0 0 0-1.872 2.274 1.668 1.668 0 0 0 1.546 1.029Zm-42.354 19.931-2.731 1.325a1.674 1.674 0 0 0 2.27-.087c.313-.313.488-.736.488-1.178a.235.235 0 0 0-.027-.06Zm13.01 1.728a1.676 1.676 0 0 0 1.545-1.029 1.666 1.666 0 0 0-1.218-2.274 1.67 1.67 0 0 0-1.998 1.635 1.667 1.667 0 0 0 1.672 1.668Zm14.672 0a1.677 1.677 0 0 0 1.544-1.029 1.666 1.666 0 0 0-1.218-2.274 1.671 1.671 0 0 0-1.997 1.635 1.661 1.661 0 0 0 .495 1.186 1.672 1.672 0 0 0 1.193.482h-.017Zm14.672 0a1.676 1.676 0 0 0 1.544-1.029 1.67 1.67 0 0 0-2.934-1.565 1.662 1.662 0 0 0-.156 1.566 1.675 1.675 0 0 0 .905.903c.203.083.421.126.641.125Zm-95.38-10.355a1.64 1.64 0 0 0 1.207-.545l-1.208.545Zm14.682 0a1.67 1.67 0 0 0 1.676-1.973 1.666 1.666 0 0 0-1.305-1.328 1.677 1.677 0 0 0-1.726.703 1.665 1.665 0 0 0-.284.93 1.666 1.666 0 0 0 1.639 1.646v.022Zm14.676 0a1.676 1.676 0 0 0 1.545-1.03 1.662 1.662 0 0 0-.363-1.817 1.68 1.68 0 0 0-1.821-.362 1.67 1.67 0 0 0-1.032 1.541 1.67 1.67 0 0 0 1.693 1.646l-.022.022Zm14.672 0a1.676 1.676 0 0 0 1.544-1.03 1.662 1.662 0 0 0-.362-1.817 1.68 1.68 0 0 0-2.572.252 1.668 1.668 0 0 0-.282.927 1.674 1.674 0 0 0 1.671 1.646v.022Zm14.671 0a1.676 1.676 0 0 0 1.544-1.03 1.662 1.662 0 0 0-.362-1.817 1.68 1.68 0 0 0-1.822-.362 1.67 1.67 0 0 0-1.031 1.541c.005.439.184.857.497 1.165.313.308.735.481 1.174.481v.022Zm14.671 0a1.676 1.676 0 0 0 1.545-1.03 1.662 1.662 0 0 0-.363-1.817 1.68 1.68 0 0 0-2.572.252 1.668 1.668 0 0 0-.28.927c.005.439.184.857.496 1.165.313.308.735.481 1.174.481v.022Zm14.672 0a1.673 1.673 0 0 0 1.544-1.03c.127-.304.16-.64.095-.963a1.658 1.658 0 0 0-.457-.854 1.683 1.683 0 0 0-.856-.457 1.674 1.674 0 0 0-1.998 1.636 1.666 1.666 0 0 0 1.672 1.646v.022Zm14.671 0a1.667 1.667 0 0 0 .326-3.304 1.677 1.677 0 0 0-1.715.709 1.666 1.666 0 0 0-.282.927 1.66 1.66 0 0 0 1.671 1.646v.022Zm-66.02 28.684a1.647 1.647 0 0 0-1.18.485l1.092 2.84h.114a1.67 1.67 0 0 0 1.576-1.665 1.67 1.67 0 0 0-1.576-1.665l-.027.005Zm14.67 3.33a1.668 1.668 0 1 0-.64-3.208 1.67 1.67 0 0 0-1.03 1.541 1.666 1.666 0 0 0 1.67 1.667Zm14.672 0a1.668 1.668 0 1 0-.64-3.208 1.67 1.67 0 0 0-1.032 1.541 1.666 1.666 0 0 0 1.672 1.667Zm14.688-3.33a1.64 1.64 0 0 0-1.579 1.134l1.786-1.117a1.304 1.304 0 0 0-.207-.017Zm-36.679-7.047a1.676 1.676 0 0 0 1.544-1.029 1.666 1.666 0 0 0-1.218-2.274 1.67 1.67 0 0 0-1.998 1.635 1.665 1.665 0 0 0 1.656 1.668h.016Zm14.672 0a1.676 1.676 0 0 0 1.544-1.029 1.666 1.666 0 0 0-1.218-2.274 1.67 1.67 0 0 0-1.998 1.635 1.665 1.665 0 0 0 1.655 1.668h.017Zm14.67 0a1.676 1.676 0 0 0 1.545-1.029 1.666 1.666 0 0 0-1.218-2.274 1.67 1.67 0 0 0-1.998 1.635 1.666 1.666 0 0 0 1.655 1.668h.017Zm14.672 0a1.677 1.677 0 0 0 1.544-1.029 1.666 1.666 0 0 0-1.218-2.274 1.66 1.66 0 0 0-.965.095 1.663 1.663 0 0 0-1.032 1.54 1.662 1.662 0 0 0 1.655 1.668h.016Zm-44.014 21.654a1.67 1.67 0 0 0 1.64-1.995 1.666 1.666 0 0 0-1.317-1.309 1.673 1.673 0 0 0-1.994 1.642 1.625 1.625 0 0 0 .476 1.179 1.642 1.642 0 0 0 1.179.483h.016Zm14.672-3.325a1.668 1.668 0 0 0-1.672 1.663c-.001.323.094.64.273.91l2.906-1.635a1.634 1.634 0 0 0-1.524-.943l.017.005Z"/>
  <path fill="#263238" d="M93.158 154.362a30.578 30.578 0 0 0-3.321 1.815c-1.153.649-2.305 1.276-3.452 1.924h-.033c.251-.223.497-.452.754-.67.874-.758 1.671-1.586 2.61-2.268.06-.038 0-.125-.06-.087-.956.665-1.977 1.248-2.873 1.995-.42.354-.83.714-1.229 1.09-.218.207-.437.414-.65.627-.093.098-.207.202-.295.311-.518.305-1.037.615-1.545.932-1.137.714-2.213 1.515-3.354 2.212-.06.038 0 .126.065.088 1.093-.633 2.305-1.167 3.436-1.788a77.563 77.563 0 0 0 3.392-2c1.12-.693 2.185-1.357 3.277-2.028a31.348 31.348 0 0 0 3.327-2.098c.022.011-.006-.055-.05-.055ZM67.3 198.661a331.74 331.74 0 0 0-.917-2.654c-.623-1.761-1.24-3.527-1.874-5.287-1.261-3.499-2.518-6.998-3.856-10.47-.76-1.962-1.508-3.935-2.354-5.864a.09.09 0 0 0-.049-.052.088.088 0 0 0-.071-.003.094.094 0 0 0-.053.049.093.093 0 0 0-.002.071c1.093 3.575 2.382 7.085 3.67 10.601 1.29 3.515 2.6 6.971 3.933 10.442.372.976.743 1.946 1.131 2.916s.836 1.962 1.218 2.949c.004.01.011.018.021.023.01.004.02.005.031.001a.038.038 0 0 0 .023-.021.04.04 0 0 0 .002-.031c-.306-.882-.563-1.787-.853-2.67Z"/>
  <path fill="#AD6359" d="M185.157 182.909c-1.272 1.134-43.752 19.381-45.811 19.076-.781-.12-2.589.12-6.008-7.26-.743-1.591-30.364-11.2-30.364-11.2l25.759-17.201 30.741 10.307s19.396.272 21.614.872c2.218.599 5.337 4.273 4.069 5.406Z"/>
  <path fill="#65BEDC" d="M185.157 182.91c-1.272 1.139-43.746 19.381-45.811 19.076-.781-.12-2.589.12-6.008-7.26-.208-.436-2.846-1.281-6.582-2.283l26.792-17.806 5.926 1.989s19.396.283 21.614.872 5.336 4.284 4.069 5.412Z"/>
  <path fill="#fff" d="M185.157 182.91c-1.272 1.139-43.746 19.381-45.811 19.076-.781-.12-2.589.12-6.008-7.26-.208-.436-2.846-1.281-6.582-2.283l26.792-17.806 5.926 1.989s19.396.283 21.614.872 5.336 4.284 4.069 5.412Z" opacity=".6"/>
  <path fill="#263238" d="M128.848 192.055a8.082 8.082 0 0 1 1.896.327 8.41 8.41 0 0 1 1.797.692 8.134 8.134 0 0 1-1.896-.327 8.369 8.369 0 0 1-1.797-.692Zm2.124-1.346a8.774 8.774 0 0 1 1.896.327 8.486 8.486 0 0 1 1.791.698 8.826 8.826 0 0 1-1.895-.327 8.474 8.474 0 0 1-1.792-.698Zm2.12-1.34a8.134 8.134 0 0 1 1.896.327 8.41 8.41 0 0 1 1.797.692 8.082 8.082 0 0 1-1.896-.327 8.516 8.516 0 0 1-1.797-.692Zm2.125-1.347c.642.04 1.277.149 1.895.327a8.474 8.474 0 0 1 1.792.698 8.774 8.774 0 0 1-1.896-.327 8.465 8.465 0 0 1-1.791-.698Zm2.119-1.34a8.184 8.184 0 0 1 1.901.327 8.446 8.446 0 0 1 1.791.692 8.187 8.187 0 0 1-1.895-.327 8.516 8.516 0 0 1-1.797-.692Zm2.125-1.346a8.765 8.765 0 0 1 1.895.327 8.474 8.474 0 0 1 1.792.698 9.609 9.609 0 0 1-3.687-1.025Zm2.124-1.342a8.472 8.472 0 0 1 1.896.322c.621.166 1.222.4 1.791.697a8.135 8.135 0 0 1-1.895-.327 8.455 8.455 0 0 1-1.792-.692Zm2.12-1.347c.642.04 1.278.149 1.895.327a8.523 8.523 0 0 1 1.798.698 9.584 9.584 0 0 1-3.693-1.025Zm2.125-1.34a8.396 8.396 0 0 1 1.895.321c.622.166 1.222.4 1.792.698a8.178 8.178 0 0 1-1.895-.327 8.455 8.455 0 0 1-1.792-.692Zm2.119-1.329a8.765 8.765 0 0 1 1.895.327 8.332 8.332 0 0 1 1.797.697 9.6 9.6 0 0 1-3.692-1.024Zm2.125-1.357a8.472 8.472 0 0 1 1.896.322c.621.166 1.222.4 1.791.697a8.125 8.125 0 0 1-1.895-.327 8.719 8.719 0 0 1-1.792-.692Zm2.119-1.369a8.774 8.774 0 0 1 1.896.327c.624.16 1.228.395 1.797.698a9.683 9.683 0 0 1-3.693-1.025Zm2.125-1.318a8.414 8.414 0 0 1 1.896.321c.621.166 1.222.4 1.791.698a8.187 8.187 0 0 1-1.895-.327 8.835 8.835 0 0 1-1.792-.692Z"/>
  <path fill="#65BEDC" d="m148.047 171.743-28.856 19.326-56.528-17.909s-11.023 9.385-23.22 12.268c-8.28 1.962-20.548.295-25.355-8.072-4.96-8.644-4.566-14.715-4.566-14.715l9.362-4.796s21.76-17.136 35.788-19.267c21.417-3.232 93.375 33.165 93.375 33.165Z"/>
  <path fill="#000" d="m148.047 171.743-28.856 19.326-56.528-17.909s-11.023 9.385-23.22 12.268c-8.28 1.962-20.548.295-25.355-8.072-4.96-8.644-4.566-14.715-4.566-14.715l9.362-4.796s21.76-17.136 35.788-19.267c21.417-3.232 93.375 33.165 93.375 33.165Z" opacity=".2"/>
  <path fill="#65BEDC" d="M44.676 143.396a1.665 1.665 0 0 1-1.668 1.572 1.67 1.67 0 0 1-1.67-1.572 62.203 62.203 0 0 1 2.732-1.308 1.631 1.631 0 0 1 .606 1.308Zm11.334 0a1.663 1.663 0 0 1 1.032-1.541 1.67 1.67 0 0 1 1.822.362 1.664 1.664 0 0 1-.254 2.566 1.676 1.676 0 0 1-2.11-.207 1.667 1.667 0 0 1-.49-1.18Zm14.671 0a1.663 1.663 0 0 1 1.032-1.541 1.67 1.67 0 0 1 1.821.362 1.664 1.664 0 0 1-.253 2.566 1.676 1.676 0 0 1-2.11-.207 1.667 1.667 0 0 1-.49-1.18Zm-57.019 23.321c.92 0 1.666-.744 1.666-1.662 0-.918-.746-1.662-1.666-1.662-.92 0-1.666.744-1.666 1.662 0 .918.746 1.662 1.666 1.662Zm13.006-1.662a1.666 1.666 0 0 1 1.04-1.544 1.677 1.677 0 0 1 1.824.377 1.666 1.666 0 0 1-1.226 2.835 1.666 1.666 0 0 1-1.639-1.668Zm16.342 1.662c.92 0 1.666-.744 1.666-1.662 0-.918-.746-1.662-1.666-1.662-.92 0-1.666.744-1.666 1.662 0 .918.746 1.662 1.666 1.662Zm13-1.662a1.665 1.665 0 0 1 1.032-1.54 1.67 1.67 0 0 1 2.279 1.215 1.666 1.666 0 0 1-1.64 1.993 1.672 1.672 0 0 1-1.67-1.668Zm16.343 1.662c.92 0 1.666-.744 1.666-1.662 0-.918-.746-1.662-1.666-1.662-.92 0-1.666.744-1.666 1.662 0 .918.746 1.662 1.666 1.662Zm14.671 0c.92 0 1.666-.744 1.666-1.662 0-.918-.746-1.662-1.666-1.662-.92 0-1.666.744-1.666 1.662 0 .918.746 1.662 1.666 1.662Zm13-1.662a1.662 1.662 0 0 1 1.032-1.54 1.674 1.674 0 0 1 2.279 1.215 1.657 1.657 0 0 1-.711 1.712 1.673 1.673 0 0 1-2.6-1.387Zm16.343 1.662c.92 0 1.666-.744 1.666-1.662 0-.918-.746-1.662-1.666-1.662-.92 0-1.666.744-1.666 1.662 0 .918.746 1.662 1.666 1.662Zm16.337-1.661a1.66 1.66 0 0 1-.96 1.517 1.674 1.674 0 0 1-2.305-1.006 1.667 1.667 0 0 1 1.304-2.146l1.737.807c.147.251.225.537.224.828Zm-110.09-9.975a1.642 1.642 0 0 1-1.639 1.265h-.098l1.737-1.265Zm13.055 1.259c.92 0 1.666-.744 1.666-1.662 0-.918-.746-1.662-1.666-1.662-.92 0-1.666.744-1.666 1.662 0 .918.746 1.662 1.666 1.662Zm14.676 0c.92 0 1.666-.744 1.666-1.662 0-.918-.746-1.662-1.666-1.662-.92 0-1.666.744-1.666 1.662 0 .918.746 1.662 1.666 1.662Zm13-1.662a1.666 1.666 0 0 1 1.032-1.541 1.671 1.671 0 0 1 2.279 1.215 1.666 1.666 0 0 1-1.64 1.993 1.674 1.674 0 0 1-1.183-.487 1.664 1.664 0 0 1-.488-1.18Zm16.343 1.662c.92 0 1.666-.744 1.666-1.662 0-.918-.745-1.662-1.666-1.662-.92 0-1.666.744-1.666 1.662 0 .918.746 1.662 1.666 1.662Zm13-1.662a1.665 1.665 0 0 1 1.032-1.541 1.671 1.671 0 0 1 2.279 1.215 1.666 1.666 0 0 1-1.64 1.993 1.674 1.674 0 0 1-1.183-.487 1.666 1.666 0 0 1-.488-1.18Zm18.009 0a1.67 1.67 0 0 1-3.043.96 1.664 1.664 0 0 1 .35-2.274l2.682 1.134c.005.06.011.12.011.18Zm-80.851 31.345a29.685 29.685 0 0 1-2.764-.404 1.645 1.645 0 0 1 1.495-.57 1.633 1.633 0 0 1 1.269.974Zm73.351-.017-2.321-.736a1.59 1.59 0 0 1 .819-.218 1.635 1.635 0 0 1 1.502.954Zm13.17 2.37c.92 0 1.666-.744 1.666-1.662 0-.918-.746-1.662-1.666-1.662-.92 0-1.666.744-1.666 1.662 0 .918.746 1.662 1.666 1.662Zm-97.036-12.039a1.666 1.666 0 0 1 1.04-1.543 1.669 1.669 0 1 1 .599 3.211 1.646 1.646 0 0 1-1.17-.49 1.645 1.645 0 0 1-.469-1.178Zm16.338 1.662c.92 0 1.666-.744 1.666-1.662 0-.918-.746-1.662-1.666-1.662-.92 0-1.666.744-1.666 1.662 0 .918.746 1.662 1.666 1.662Zm14.676 0c.92 0 1.666-.744 1.666-1.662 0-.918-.746-1.662-1.666-1.662-.92 0-1.666.744-1.666 1.662 0 .918.746 1.662 1.666 1.662Zm29.343 0c.92 0 1.666-.744 1.666-1.662 0-.918-.745-1.662-1.666-1.662-.92 0-1.666.744-1.666 1.662 0 .918.746 1.662 1.666 1.662Zm13-1.661a1.665 1.665 0 0 1 1.032-1.541 1.68 1.68 0 0 1 1.821.361 1.672 1.672 0 0 1 .363 1.818 1.668 1.668 0 0 1-1.544 1.029 1.656 1.656 0 0 1-1.184-.486 1.67 1.67 0 0 1-.488-1.181Zm16.343 1.661c.92 0 1.666-.744 1.666-1.662 0-.918-.746-1.662-1.666-1.662-.92 0-1.666.744-1.666 1.662 0 .918.746 1.662 1.666 1.662Zm14.671 0c.92 0 1.666-.744 1.666-1.662 0-.918-.746-1.662-1.666-1.662-.92 0-1.666.744-1.666 1.662 0 .918.746 1.662 1.666 1.662Zm16.338-1.661a1.693 1.693 0 0 1-.317.981l-.951.637a1.663 1.663 0 0 1-1.941-.976 1.666 1.666 0 0 1 1.214-2.278 1.667 1.667 0 0 1 2 1.636h-.005Z"/>
  <path fill="#263238" d="M27.044 151.904c-1.327.883-2.61 1.82-3.922 2.725-1.31.905-2.616 1.722-3.823 2.698a82.656 82.656 0 0 0-3.616 3.123c-.546.518-1.13 1.035-1.682 1.575a14.547 14.547 0 0 0-1.606 1.673c-.044.055.038.126.093.093a16.716 16.716 0 0 0 1.78-1.39c.623-.501 1.242-1.006 1.857-1.515 1.202-.97 2.42-1.919 3.61-2.894 1.192-.976 2.29-2.038 3.464-3.02 1.174-.981 2.583-2.027 3.889-3.024.005-.017-.017-.06-.044-.044Zm35.619 21.255a69.845 69.845 0 0 1-8.106 5.729l-13.913-15.806 22.019 10.077Zm76.257-3.798c-.857.496-1.682 1.057-2.512 1.597-.83.539-1.639 1.062-2.453 1.602-1.671 1.09-3.315 2.229-4.965 3.357-3.31 2.257-6.593 4.557-9.875 6.851-1.841 1.287-3.655 2.605-5.463 3.903-.032 0 0 .076.044.054a829.153 829.153 0 0 0 9.969-6.497 370.354 370.354 0 0 0 9.903-6.79 205.57 205.57 0 0 0 2.698-1.957c.896-.66 1.841-1.325 2.731-2.038a.061.061 0 0 0 .018-.039.061.061 0 0 0-.015-.041.06.06 0 0 0-.039-.017.056.056 0 0 0-.041.015Zm-6.68-5.276c-.847-.545-18.473-8.911-22.247-10.584a280.975 280.975 0 0 0-11.422-4.775c-3.84-1.504-7.712-2.905-11.634-4.147-3.922-1.243-7.811-2.36-11.793-3.194a68.687 68.687 0 0 1-1.53-.338c-.043 0-.054.065 0 .076 2.022.474 4.01 1.09 6.009 1.684 2 .594 3.91 1.199 5.85 1.842 3.884 1.292 7.729 2.726 11.541 4.203 3.813 1.477 7.566 3.095 11.302 4.758a525.51 525.51 0 0 1 11.214 5.156c1.857.877 12.153 5.319 12.634 5.477.076.033.169-.071.076-.158Z"/>
  <path fill="#263238" d="M101.166 185.367c-2.245-.724-4.517-1.378-6.779-2.054-2.26-.676-29.173-9.587-31.773-10.105-.055 0-.087.06-.033.082 2.218.785 14.12 5.101 18.533 6.633 4.583 1.597 17.408 5.003 19.997 5.597.093.022.153-.093.055-.153Z"/>
  <path fill="#DBDBDB" d="M58.872 126.566s8.646-3.952 8.646-9.266-11.213-8.758-11.213-12.922c0-4.164 4.888-6.611 4.888-6.611s-7.723 2.632-7.723 7.897c0 5.265 7.395 8.835 8.1 12.187.983 4.643-2.698 8.715-2.698 8.715Z" opacity=".6"/>
  <path fill="#DBDBDB" d="M59.304 126.565s-8.647-3.123-8.652-7.309c-.006-4.186 11.214-6.862 11.214-10.132 0-3.27-4.916-5.199-4.916-5.199s7.723 2.065 7.723 6.208c0 4.142-8.488 6.987-9.094 10.355-.607 3.368 3.725 6.077 3.725 6.077Z" opacity=".6"/>
  <path fill="#DBDBDB" d="M63.083 139.984h-8.226v1.281h8.226v-1.281Z"/>
  <path fill="#C7C7C7" d="M63.083 139.984h-8.226v.845h8.226v-.845Z"/>
  <path fill="#DBDBDB" d="M45.091 136.545a4.663 4.663 0 0 0 4.632 1.973c.286-.05.567-.13.836-.239.41-.158.8-.363 1.163-.611l-1.049-1.542c-.192.137-.4.254-.617.349a2.73 2.73 0 0 1-3.441-1.009c-1.125-1.58-1.53-5.188-.388-6.578.077-.104.405-.267 1.732 0 .24.054.546.114.836.202.242.081.493.136.748.163l.033-.932.093-.921c-.088 0-.219-.055-.394-.104a11.774 11.774 0 0 0-1.868-.387c-.978-.103-1.999 0-2.622.785-1.857 2.284-1.103 6.868.306 8.851Z"/>
  <path fill="#C7C7C7" d="M50.673 136.125a3.41 3.41 0 0 1-.617.349l.503 1.804c.41-.158.8-.363 1.163-.611l-1.049-1.542Zm-3.266-9.199.546 1.978c.24.055.546.115.836.202.242.081.493.136.748.163l.033-.932.093-.921c-.088 0-.219-.054-.394-.103a11.596 11.596 0 0 0-1.862-.387Z"/>
  <path fill="#DBDBDB" d="M69.905 124.5s-.966 8.366-2.692 11.876c-1.726 3.51-4.08 3.913-5.555 3.913h-5.38c-1.475 0-3.857-.393-5.561-3.913-1.704-3.521-2.693-11.882-2.693-11.882l21.881.006Z"/>
  <path fill="#AD6359" d="M14.984 118.358C5.589 133.074-1.801 155.91 4.218 159.409c5.883 3.423 24.716-4.36 31.194-10.192 1.552-1.389-7.292-15.435-9.143-14.203-2.584 1.723-7.232 4.829-7.5 4.862-.573.071 2.398-14.073 3.037-21.043.901-9.707-3.294-6.001-6.822-.475Z"/>
  <path fill="#263238" d="M8.637 150.666c.4-.899.88-1.76 1.436-2.572a19.124 19.124 0 0 1 1.726-2.355 32.088 32.088 0 0 1 7.1-5.957c.034 0 .061 0 0 .044a83 83 0 0 0-6.554 5.902c-.644.714-1.223 1.488-1.797 2.262-.328.442-.644.889-.95 1.346-.306.458-.58.932-.896 1.379-.005.044-.087.006-.065-.049Z"/>
  <path fill="#AD6359" d="M25.602 135.498s5.462-3.989 9.177-6.426c2.064-1.362 5.817-3.379 7.788-3.69 2.961-.457 15.617-.495 15.688 2.562.07 2.774-4.19 2.098-4.19 2.098s4.725.3 3.95 3.069c-.776 2.769-6.255 1.384-6.255 1.384s5.042-.032 3.928 2.845c-.967 2.496-7.434 1.548-7.434 1.548s5.282-.61 4.544 2.049c-.82 2.933-10.695 2.726-10.695 2.726-4.03 6.164-7.794 7.913-10.569 8.257-.77.103-5.932-16.422-5.932-16.422Z"/>
  <path fill="#263238" d="m53.273 134.653-1.305-.267a21.448 21.448 0 0 0-2.556-.425 35.804 35.804 0 0 0-2.518-.131c-.842-.016-1.786.066-2.677.028a.05.05 0 0 0-.035.014.05.05 0 0 0-.014.035c0 .013.005.025.014.034.01.01.022.015.035.015.88.026 1.757.104 2.627.234.858.093 1.71.196 2.568.3.857.103 1.671.147 2.507.223.42.044.836.098 1.25.158a7.34 7.34 0 0 0 1.191.137c.039 0 .044-.055 0-.071a5.914 5.914 0 0 0-1.087-.284Zm1.775-4.528a35.517 35.517 0 0 0-4.719-.9 24.162 24.162 0 0 0-4.817-.038.047.047 0 0 0-.035.015.047.047 0 0 0-.015.034.05.05 0 0 0 .015.035.05.05 0 0 0 .035.014c1.6.175 3.206.327 4.806.48.781.076 4.332.545 4.709.545.087-.016.098-.153.021-.185Zm-3.336 8.829a33.888 33.888 0 0 0-4.452-.763 30.838 30.838 0 0 0-4.616.278.05.05 0 0 0-.034.014.05.05 0 0 0 0 .07.05.05 0 0 0 .034.014c1.535 0 3.07 0 4.61.12.749.049 3.72.409 4.441.392.066.022.077-.103.017-.125Z"/>
  <path fill="#65BEDC" d="m22.762 135.46 11.612 15.833s-10.105 6.709-18.953 9.811c-4.37 1.542-8.98.97-11.35-.753-7.167-5.21 4.588-33.48 9.93-41.345 5.342-7.865 9.285-9.93 7.99 2.18-1.294 12.111-2.419 17.185-2.419 17.185l3.19-2.911Z"/>
  <path fill="#263238" d="M31.086 152.023c-.328-.463-.617-.942-.956-1.4a97.618 97.618 0 0 0-.989-1.314l-2.07-2.632a201.267 201.267 0 0 0-4.222-5.2c-.41-.485-.825-.964-1.23-1.45a12.547 12.547 0 0 0-1.223-1.351c-.032-.027-.07 0-.049.049.29.485.612.95.967 1.39l.989 1.313c.666.894 1.349 1.777 2.037 2.654a379.34 379.34 0 0 0 4.113 5.151c.404.496.809.981 1.218 1.461.41.479.869.937 1.295 1.411.06.076.174-.005.12-.082Zm-21.685-2.79c.397-.9.876-1.761 1.431-2.573a19.264 19.264 0 0 1 1.732-2.354 32.059 32.059 0 0 1 7.068-5.957c.033 0 .06 0 .027.043a83.195 83.195 0 0 0-6.521 5.897 28.889 28.889 0 0 0-1.797 2.262c-.328.442-.65.889-.95 1.346-.301.458-.58.932-.902 1.379a.05.05 0 0 1-.063.018.049.049 0 0 1-.024-.061Z"/>
  <path fill="#263238" d="M23.232 135.918a2.515 2.515 0 0 0-.508-.637 35.795 35.795 0 0 0-3.037 2.921c.207-.796.388-1.668.546-2.474.159-.807.317-1.783.47-2.671.235-1.417.464-2.845.644-4.278.263-.742.481-1.499.7-2.251 0-.028-.039-.044-.05 0-.196.545-.393 1.052-.573 1.586l.05-.404c.103-1.024.212-2.049.267-3.079a.028.028 0 0 0-.012-.014.03.03 0 0 0-.036 0 .03.03 0 0 0-.012.014c-.634 3.543-1.055 7.123-1.639 10.677-.164 1.003-.492 3.15-.48 3.15.01 0 3.036-2.823 3.124-2.872.165.123.32.26.464.409.033.021.11-.022.082-.077Zm9.749 13.271c-.109-.109-.202-.033-.098.093.508.643.934 1.286 1.404 1.929-2.595 1.499-5.19 2.998-7.838 4.404-2.65 1.406-5.43 2.85-8.237 4.093-6.68 2.97-10.122 1.809-10.968 1.984v.049c.666.158 4.113 1.248 10.443-1.357 2.835-1.172 9.767-4.775 12.454-6.295 1.508-.856 3.195-1.793 4.632-2.769a18.672 18.672 0 0 0-1.792-2.131Z"/>
  <path fill="#AD6359" d="M27.793 117.846c.873 1.379 2.463 3.439 2.463 3.439.27-1.22.478-2.454.623-3.695-.039-.545-2.147-.976-2.147-.976l-.94 1.232Z"/>
  <path fill="#AD6359" d="M29.333 119.23c-2.387.545-6.446-3.129-8.035-6.083-.11-.207.218-2.332.497-4.905.164-1.58.306-3.341.317-4.959 0-.333 10.149 2.55 10.149 2.55a25.93 25.93 0 0 0-1.011 6.175c.004.223.026.446.066.665v.115c.18 1.242.327 5.919-1.983 6.442Z"/>
  <path fill="#263238" d="M22.74 103.304c.448 2.725 2.092 9.358 7.521 9.527.347.016.694.002 1.038-.044a.352.352 0 0 0 0-.114 3.603 3.603 0 0 1-.05-.66 25.57 25.57 0 0 1 1.039-6.208s-7.347-2.082-9.548-2.501Z"/>
  <path fill="#AD6359" d="M18.84 92.55c-.426 3.74 3.343 13.626 6.287 15.425 4.266 2.627 10.312 1.837 12.311-3.068 1.934-4.753-3.206-17.534-6.407-19.076-4.697-2.29-11.563 1.199-12.191 6.72Z"/>
  <path fill="#263238" d="M21.61 101.969c1.824-.714.174-5.2.174-5.2s2.677-1.422 2.808-5.76c0 0 4.37 1.09 7.28-.437 4.524-2.425 2.377-8.611.165-9.303-3.13-.976-6.795 3.112-6.795 3.112s-7.489.305-8.035 5.603a3.706 3.706 0 0 0-1.97 1.867 3.694 3.694 0 0 0-.166 2.705c.885 3.445 5.179 7.941 6.539 7.413Z"/>
  <path fill="#263238" d="M21.293 97.52a6.683 6.683 0 0 0 2.955-3.111 4.96 4.96 0 0 0-.268-4.551c-.05-.066.071-.137.115-.066.852 1.477 1.289 3.134.71 4.796a4.62 4.62 0 0 1-3.458 3.09c-.076 0-.13-.114-.054-.157Zm-7.134-4.866c.546-1.504 1.94-2.18 3.387-2.567a.067.067 0 0 1 .082.049.068.068 0 0 1-.05.082c-1.458.289-2.567 1.684-2.927 3.068-.36 1.385.267 2.725.961 3.87a10.484 10.484 0 0 0 5.905 4.649.03.03 0 0 1 .023.01c.006.006.01.014.01.023a.033.033 0 0 1-.01.023.033.033 0 0 1-.023.009 10.5 10.5 0 0 1-6.555-5.058c-.71-1.226-1.316-2.774-.803-4.158ZM25.1 84.665a4.944 4.944 0 0 1 1.982-2.867 5.904 5.904 0 0 1 4.124-.883 3.329 3.329 0 0 1 2.534 2.18 5.864 5.864 0 0 1-.109 3.946c0 .033-.065 0-.06 0a5.819 5.819 0 0 0-.06-3.532 3.057 3.057 0 0 0-2.55-2.022c-2.257-.24-5.092.834-5.736 3.27-.022.027-.148-.01-.126-.092Z"/>
  <path fill="#AD6359" d="M22.57 100.476s-2.982-2.796-4.309-1.706c-1.327 1.09 1.393 5.543 3.277 5.837.24.051.487.054.728.009a1.836 1.836 0 0 0 1.457-1.464l-1.152-2.676Z"/>
  <path fill="#263238" d="M19.07 100.034v.05c1.338.245 2.222 1.248 2.916 2.338a.999.999 0 0 0-.772-.336 1 1 0 0 0-.757.368.039.039 0 0 0 .02.069.04.04 0 0 0 .029-.009 1.1 1.1 0 0 1 1.284.137c.29.255.552.542.78.855.082.098.268 0 .203-.12v-.027c-.312-1.57-1.983-3.499-3.704-3.325Zm11.284-3.166s-.038.05 0 .077c.257.664.443 1.471-.087 1.907v.038c.7-.37.437-1.433.087-2.022Z"/>
  <path fill="#263238" d="M29.508 96.371c-1.092.3-.431 2.502.6 2.224 1.033-.278.334-2.474-.6-2.224Zm4.637-.779s.065 0 .07.043c.192.687.547 1.445 1.213 1.483 0 0 .033.033 0 .038-.781.125-1.212-.883-1.283-1.564Z"/>
  <path fill="#263238" d="M34.527 94.692c1.092-.425 1.84 1.75.846 2.142-.994.393-1.736-1.787-.846-2.142Zm-6.363.932c.266-.165.521-.347.765-.545.295-.218.546-.36.672-.719a.484.484 0 0 0-.246-.545 1.233 1.233 0 0 0-1.207.234c-.371.24-.64.61-.754 1.036a.545.545 0 0 0 .77.54Zm7.063-2.348c-.317.065-.623.076-.94.114a1.554 1.554 0 0 1-.983-.065.485.485 0 0 1-.191-.545 1.188 1.188 0 0 1 1.032-.654 1.757 1.757 0 0 1 1.262.229.544.544 0 0 1-.18.92Zm-3.977 8.011a2.438 2.438 0 0 0 1.873.545 3.061 3.061 0 0 0 1-.288l.148-.066a.183.183 0 0 0 .087-.196v-.125a18.763 18.763 0 0 0-.448-1.314c.219.038 1.338.174 1.235-.098a36.108 36.108 0 0 0-3.081-6.747.066.066 0 0 0-.088-.033.066.066 0 0 0-.032.087c.726 2.18 1.824 4.208 2.583 6.382a4.2 4.2 0 0 0-1.201 0c-.066.044.606 1.505.655 1.744a3.36 3.36 0 0 1-2.638 0c-.093.006-.137.071-.093.109Z"/>
  <path fill="#65BEDC" d="m30.25 121.289-1.775-4.382-7.046-5.564-2.65 2.986 8.068 7.037.978-2.137 2.425 2.06Z"/>
  <path fill="#fff" d="m30.25 121.289-1.775-4.382-7.046-5.564-2.65 2.986 8.068 7.037.978-2.137 2.425 2.06Z" opacity=".4"/>
  <path fill="#000" d="m27.825 119.23.41-.97 2.015 3.03-2.425-2.06Z" opacity=".1"/>
  <path fill="#65BEDC" d="m30.25 121.291.246-5.058.792-3.559 1.628 1.897-.666 4.954-1.153-1.396-.847 3.162Z"/>
  <path fill="#fff" d="m30.25 121.291.246-5.058.792-3.559 1.628 1.897-.666 4.954-1.153-1.396-.847 3.162Z" opacity=".4"/>
  <path fill="#000" d="m31.098 118.128-.208-.256-.64 3.417.848-3.161Z" opacity=".1"/>
</svg>
