<svg xmlns="http://www.w3.org/2000/svg" width="240" height="240" fill="none" viewBox="0 0 240 240">
  <path fill="#EBEBEB" d="M234.868 121.993h-68.784s6.824-18.729 17.322-18.729 13.784 12.926 13.784 12.926 7.086-7.02 12.904-7.02 10.858 9.278 10.858 9.278 8.241-5.01 13.916 3.545ZM153.175 24.52h-32.152s7.183-10.473 12.847-10.473c5.663 0 7.332 6.986 7.332 6.986s4-3.252 7.692-2.672c3.692.58 4.281 6.16 4.281 6.16Zm61.12 21.855h-32.158s7.184-10.468 12.842-10.468c5.657 0 7.315 6.98 7.315 6.98s4-3.257 7.692-2.677c3.692.58 4.309 6.165 4.309 6.165Zm-45.239 52.293h-32.152S144.088 88.2 149.746 88.2c5.657 0 7.332 6.98 7.332 6.98s4-3.257 7.698-2.677c3.697.58 4.28 6.165 4.28 6.165Zm-131.79 22.331H5.132s7.166-10.434 12.824-10.434c5.658 0 7.338 6.975 7.338 6.975s4-3.257 7.692-2.671c3.692.586 4.28 6.13 4.28 6.13Zm42.679-64.857h-62.63s8.573-19.247 17.751-20.453c9.178-1.206 13.561 14.306 13.561 14.306s5.921-5.481 10.573-5.481 8.224 7.216 8.224 7.216 9.326-4.935 12.52 4.412Z"/>
  <path fill="#DBDBDB" d="M189.281 136.19h-18.95v99.881h18.95V136.19Z"/>
  <path fill="#EBEBEB" d="M176.954 139.437h-3.686v3.814h3.686v-3.814Zm4.714 0h-3.686v3.814h3.686v-3.814Zm-4.714 6.468h-3.686v3.815h3.686v-3.815Zm4.714 0h-3.686v3.815h3.686v-3.815Zm-4.714 6.475h-3.686v3.815h3.686v-3.815Zm4.714 0h-3.686v3.815h3.686v-3.815Zm-4.714 6.475h-3.686v3.815h3.686v-3.815Zm4.714 0h-3.686v3.815h3.686v-3.815Zm-4.714 6.475h-3.686v3.815h3.686v-3.815Zm4.714 0h-3.686v3.815h3.686v-3.815Zm-4.714 6.475h-3.686v3.815h3.686v-3.815Zm4.714 0h-3.686v3.815h3.686v-3.815Zm-4.714 6.474h-3.686v3.815h3.686v-3.815Zm4.714 0h-3.686v3.815h3.686v-3.815Zm-4.714 6.475h-3.686v3.815h3.686v-3.815Zm4.714 0h-3.686v3.815h3.686v-3.815Zm-4.714 6.475h-3.686v3.814h3.686v-3.814Zm4.714 0h-3.686v3.814h3.686v-3.814Zm-4.714 6.474h-3.686v3.815h3.686v-3.815Zm4.714 0h-3.686v3.815h3.686v-3.815Zm-4.714 6.476h-3.686v3.815h3.686v-3.815Zm4.714 0h-3.686v3.815h3.686v-3.815Zm-4.714 6.474h-3.686v3.815h3.686v-3.815Zm4.714 0h-3.686v3.815h3.686v-3.815Zm-4.714 6.475h-3.686v3.815h3.686v-3.815Zm4.714 0h-3.686v3.815h3.686v-3.815Zm-4.714 6.476h-3.686v3.814h3.686v-3.814Zm5.698 3.815h3.686v-3.815h-3.686v3.815Zm0-6.476h3.686v-3.814h-3.686v3.814Zm0-6.474h3.686v-3.815h-3.686v3.815Zm0-6.475h3.686v-3.815h-3.686v3.815Zm0-6.474h3.686v-3.815h-3.686v3.815Zm0-6.47h3.686v-3.815h-3.686v3.815Zm0-6.475h3.686v-3.815h-3.686v3.815Zm0-6.475h3.686v-3.815h-3.686v3.815Zm0-6.475h3.686v-3.815h-3.686v3.815Zm0-6.475h3.686v-3.814h-3.686v3.814Zm0-6.474h3.686v-3.815h-3.686v3.815Zm0-6.476h3.686v-3.815h-3.686v3.815Zm0-6.474h3.686v-3.815h-3.686v3.815Zm0-6.481h3.686v-3.815h-3.686v3.815Zm-.984 80.359h-3.686v3.814h3.686v-3.814Z"/>
  <path fill="#A6A6A6" d="M204.225 136.19h-14.944v99.881h14.944V136.19Z"/>
  <path fill="#C7C7C7" d="M199.642 227.419h3.04v-3.815h-3.04v3.815Zm-3.892 0h3.04v-3.815h-3.04v3.815Zm3.892-6.476h3.04v-3.814h-3.04v3.814Zm-3.892 0h3.04v-3.814h-3.04v3.814Zm3.892-6.474h3.04v-3.815h-3.04v3.815Zm-3.892 0h3.04v-3.815h-3.04v3.815Zm3.892-6.475h3.04v-3.815h-3.04v3.815Zm-3.892 0h3.04v-3.815h-3.04v3.815Zm3.892-6.474h3.04v-3.815h-3.04v3.815Zm-3.892 0h3.04v-3.815h-3.04v3.815Zm3.892-6.47h3.04v-3.815h-3.04v3.815Zm-3.892 0h3.04v-3.815h-3.04v3.815Zm3.892-6.475h3.04v-3.815h-3.04v3.815Zm-3.892 0h3.04v-3.815h-3.04v3.815Zm3.892-6.475h3.04v-3.815h-3.04v3.815Zm-3.892 0h3.04v-3.815h-3.04v3.815Zm3.892-6.475h3.04v-3.815h-3.04v3.815Zm-3.892 0h3.04v-3.815h-3.04v3.815Zm3.892-6.475h3.04v-3.814h-3.04v3.814Zm-3.892 0h3.04v-3.814h-3.04v3.814Zm3.892-6.474h3.04v-3.815h-3.04v3.815Zm-3.892 0h3.04v-3.815h-3.04v3.815Zm3.892-6.476h3.04v-3.815h-3.04v3.815Zm-3.892 0h3.04v-3.815h-3.04v3.815Zm3.892-6.474h3.04v-3.815h-3.04v3.815Zm-3.892 0h3.04v-3.815h-3.04v3.815Zm3.892-6.481h3.04v-3.815h-3.04v3.815Zm-4.709-3.808h-3.04v3.814h3.04v-3.814Zm0 6.468h-3.04v3.815h3.04v-3.815Zm0 6.475h-3.04v3.815h3.04v-3.815Zm0 6.475h-3.04v3.815h3.04v-3.815Zm0 6.475h-3.04v3.815h3.04v-3.815Zm0 6.475h-3.04v3.815h3.04v-3.815Zm0 6.474h-3.04v3.815h3.04v-3.815Zm0 6.475h-3.04v3.815h3.04v-3.815Zm0 6.475h-3.04v3.814h3.04v-3.814Zm0 6.474h-3.04v3.815h3.04v-3.815Zm0 6.476h-3.04v3.815h3.04v-3.815Zm0 6.474h-3.04v3.815h3.04v-3.815Zm0 6.475h-3.04v3.815h3.04v-3.815Zm0 6.476h-3.04v3.814h3.04v-3.814Zm.817-80.359h3.04v-3.815h-3.04v3.815Z"/>
  <path fill="#EBEBEB" d="M54.714 130.801h-22.42v105.263h22.42V130.801Z"/>
  <path fill="#C7C7C7" d="M54.714 128.497H31.752v2.304h22.962v-2.304Z"/>
  <path fill="#fff" d="M36.586 134.202h-2.268V236.07h2.268V134.202Zm4.029 0h-2.269V236.07h2.27V134.202Zm4.024 0h-2.27V236.07h2.27V134.202Zm4.029 0h-2.275V236.07h2.275V134.202Zm4.017 0h-2.269V236.07h2.269V134.202Z"/>
  <path fill="#EBEBEB" d="M36.586 137.115h-2.268v4.55h2.268v-4.55Zm4.029 0h-2.269v4.55h2.27v-4.55Zm4.024 0h-2.27v4.55h2.27v-4.55Zm4.029 0h-2.275v4.55h2.275v-4.55Zm4.017 0h-2.269v4.55h2.269v-4.55Zm-16.099 7.388h-2.268v4.55h2.268v-4.55Zm4.029 0h-2.269v4.55h2.27v-4.55Zm4.024 0h-2.27v4.55h2.27v-4.55Zm4.029 0h-2.275v4.55h2.275v-4.55Zm4.017 0h-2.269v4.55h2.269v-4.55Zm-16.099 7.394h-2.268v4.551h2.268v-4.551Zm4.029 0h-2.269v4.551h2.27v-4.551Zm4.024 0h-2.27v4.551h2.27v-4.551Zm4.029 0h-2.275v4.551h2.275v-4.551Zm4.017 0h-2.269v4.551h2.269v-4.551Zm-16.099 7.394h-2.268v4.55h2.268v-4.55Zm4.029 0h-2.269v4.55h2.27v-4.55Zm4.024 0h-2.27v4.55h2.27v-4.55Zm4.029 0h-2.275v4.55h2.275v-4.55Zm4.017 0h-2.269v4.55h2.269v-4.55Zm-16.099 7.395h-2.268v4.55h2.268v-4.55Zm4.029 0h-2.269v4.55h2.27v-4.55Zm4.024 0h-2.27v4.55h2.27v-4.55Zm4.029 0h-2.275v4.55h2.275v-4.55Zm4.017 0h-2.269v4.55h2.269v-4.55Zm-16.099 7.394h-2.268v4.55h2.268v-4.55Zm4.029 0h-2.269v4.55h2.27v-4.55Zm4.024 0h-2.27v4.55h2.27v-4.55Zm4.029 0h-2.275v4.55h2.275v-4.55Zm4.017 0h-2.269v4.55h2.269v-4.55Zm-16.099 7.394h-2.268v4.55h2.268v-4.55Zm4.029 0h-2.269v4.55h2.27v-4.55Zm4.024 0h-2.27v4.55h2.27v-4.55Zm4.029 0h-2.275v4.55h2.275v-4.55Zm4.017 0h-2.269v4.55h2.269v-4.55Zm-16.099 7.393h-2.268v4.55h2.268v-4.55Zm4.029 0h-2.269v4.55h2.27v-4.55Zm4.024 0h-2.27v4.55h2.27v-4.55Zm4.029 0h-2.275v4.55h2.275v-4.55Zm4.017 0h-2.269v4.55h2.269v-4.55Zm-16.099 7.395h-2.268v4.55h2.268v-4.55Zm4.029 0h-2.269v4.55h2.27v-4.55Zm4.024 0h-2.27v4.55h2.27v-4.55Zm4.029 0h-2.275v4.55h2.275v-4.55Zm4.017 0h-2.269v4.55h2.269v-4.55Zm-16.099 7.394h-2.268v4.55h2.268v-4.55Zm4.029 0h-2.269v4.55h2.27v-4.55Zm4.024 0h-2.27v4.55h2.27v-4.55Zm4.029 0h-2.275v4.55h2.275v-4.55Zm4.017 0h-2.269v4.55h2.269v-4.55Zm-16.099 7.394h-2.268v4.55h2.268v-4.55Zm4.029 0h-2.269v4.55h2.27v-4.55Zm4.024 0h-2.27v4.55h2.27v-4.55Zm4.029 0h-2.275v4.55h2.275v-4.55Zm4.017 0h-2.269v4.55h2.269v-4.55Zm-16.099 7.394h-2.268v4.551h2.268v-4.551Zm4.029 0h-2.269v4.551h2.27v-4.551Zm4.024 0h-2.27v4.551h2.27v-4.551Zm4.029 0h-2.275v4.551h2.275v-4.551Zm4.017 0h-2.269v4.551h2.269v-4.551Zm-16.099 7.394h-2.268v4.55h2.268v-4.55Zm4.029 0h-2.269v4.55h2.27v-4.55Zm4.024 0h-2.27v4.55h2.27v-4.55Zm4.029 0h-2.275v4.55h2.275v-4.55Zm4.017 0h-2.269v4.55h2.269v-4.55Zm-16.099 7.394h-2.268v2.839h2.268v-2.839Zm4.029 0h-2.269v2.839h2.27v-2.839Zm4.024 0h-2.27v2.839h2.27v-2.839Zm4.029 0h-2.275v2.839h2.275v-2.839Zm4.017 0h-2.269v2.839h2.269v-2.839Z"/>
  <path fill="#DBDBDB" d="M69.11 130.801H54.713v105.263h14.395V130.801Z"/>
  <path fill="#C7C7C7" d="M69.732 128.497H54.714v2.304h15.018v-2.304Zm-10.715 5.705h-2.274V236.07h2.274V134.202Zm4.017 0h-2.268V236.07h2.268V134.202Zm4.024 0h-2.269V236.07h2.269V134.202Z"/>
  <path fill="#DBDBDB" d="M59.017 137.115h-2.274v4.55h2.274v-4.55Zm4.017 0h-2.268v4.55h2.268v-4.55Zm4.024 0h-2.269v4.55h2.269v-4.55Zm-8.041 7.388h-2.274v4.55h2.274v-4.55Zm4.017 0h-2.268v4.55h2.268v-4.55Zm4.024 0h-2.269v4.55h2.269v-4.55Zm-8.041 7.394h-2.274v4.551h2.274v-4.551Zm4.017 0h-2.268v4.551h2.268v-4.551Zm4.024 0h-2.269v4.551h2.269v-4.551Zm-8.041 7.394h-2.274v4.55h2.274v-4.55Zm4.017 0h-2.268v4.55h2.268v-4.55Zm4.024 0h-2.269v4.55h2.269v-4.55Zm-8.041 7.395h-2.274v4.55h2.274v-4.55Zm4.017 0h-2.268v4.55h2.268v-4.55Zm4.024 0h-2.269v4.55h2.269v-4.55Zm-8.041 7.394h-2.274v4.55h2.274v-4.55Zm4.017 0h-2.268v4.55h2.268v-4.55Zm4.024 0h-2.269v4.55h2.269v-4.55Zm-8.041 7.394h-2.274v4.55h2.274v-4.55Zm4.017 0h-2.268v4.55h2.268v-4.55Zm4.024 0h-2.269v4.55h2.269v-4.55Zm-8.041 7.393h-2.274v4.55h2.274v-4.55Zm4.017 0h-2.268v4.55h2.268v-4.55Zm4.024 0h-2.269v4.55h2.269v-4.55Zm-8.041 7.395h-2.274v4.55h2.274v-4.55Zm4.017 0h-2.268v4.55h2.268v-4.55Zm4.024 0h-2.269v4.55h2.269v-4.55Zm-8.041 7.394h-2.274v4.55h2.274v-4.55Zm4.017 0h-2.268v4.55h2.268v-4.55Zm4.024 0h-2.269v4.55h2.269v-4.55Zm-8.041 7.394h-2.274v4.55h2.274v-4.55Zm4.017 0h-2.268v4.55h2.268v-4.55Zm4.024 0h-2.269v4.55h2.269v-4.55Zm-8.041 7.394h-2.274v4.551h2.274v-4.551Zm4.017 0h-2.268v4.551h2.268v-4.551Zm4.024 0h-2.269v4.551h2.269v-4.551Zm-8.041 7.394h-2.274v4.55h2.274v-4.55Zm4.017 0h-2.268v4.55h2.268v-4.55Zm4.024 0h-2.269v4.55h2.269v-4.55Zm-8.041 7.394h-2.274v2.839h2.274v-2.839Zm4.017 0h-2.268v2.839h2.268v-2.839Zm4.024 0h-2.269v2.839h2.269v-2.839Z"/>
  <path fill="#EBEBEB" d="M26.471 169.489H4.143v66.581h22.328v-66.581Z"/>
  <path fill="#C7C7C7" d="M26.471 163.842H7.321v5.647h19.15v-5.647Z"/>
  <path fill="#DBDBDB" d="M24.025 172.438H6.595v63.633h17.43v-63.633Z"/>
  <path fill="#fff" d="M24.025 178.51H6.595v1.505h17.43v-1.505Zm0 6.227H6.595v1.506h17.43v-1.506Zm0 6.228H6.595v1.505h17.43v-1.505Zm0 6.227H6.595v1.506h17.43v-1.506Zm0 6.228H6.595v1.505h17.43v-1.505Zm0 6.227H6.595v1.506h17.43v-1.506Zm0 6.229H6.595v1.505h17.43v-1.505Zm0 6.228H6.595v1.506h17.43v-1.506Zm0 6.234H6.595v1.505h17.43v-1.505Zm0 6.227H6.595v1.506h17.43v-1.506Z"/>
  <path fill="#DBDBDB" d="M40.455 169.489H26.471v66.581h13.984v-66.581Z"/>
  <path fill="#A6A6A6" d="M38.358 163.842H26.47v5.647h11.887v-5.647Z"/>
  <path fill="#C7C7C7" d="M39.147 172.438h-10.75v63.633h10.75v-63.633Z"/>
  <path fill="#fff" d="M39.147 178.51h-10.75v1.505h10.75v-1.505Zm0 6.227h-10.75v1.506h10.75v-1.506Zm0 6.228h-10.75v1.505h10.75v-1.505Zm0 6.227h-10.75v1.506h10.75v-1.506Zm0 6.228h-10.75v1.505h10.75v-1.505Zm0 6.227h-10.75v1.506h10.75v-1.506Zm0 6.229h-10.75v1.505h10.75v-1.505Zm0 6.228h-10.75v1.506h10.75v-1.506Zm0 6.234h-10.75v1.505h10.75v-1.505Zm0 6.227h-10.75v1.506h10.75v-1.506Z"/>
  <path fill="#DBDBDB" d="M89.043 197.09h-17.26v38.975h17.26V197.09Z"/>
  <path fill="#C7C7C7" d="M77.55 200.461H74.5v2.39h3.051v-2.39Zm0 5.102H74.5v2.39h3.051v-2.39Zm0 5.102H74.5v2.39h3.051v-2.39Zm0 5.102H74.5v2.39h3.051v-2.39Zm0 5.101H74.5v2.39h3.051v-2.39Zm0 5.096H74.5v2.39h3.051v-2.39Zm0 5.102H74.5v2.39h3.051v-2.39Zm4.395-30.605h-3.052v2.39h3.052v-2.39Zm0 5.102h-3.052v2.39h3.052v-2.39Zm0 5.102h-3.052v2.39h3.052v-2.39Zm0 5.102h-3.052v2.39h3.052v-2.39Zm0 5.101h-3.052v2.39h3.052v-2.39Zm0 5.096h-3.052v2.39h3.052v-2.39Zm0 5.102h-3.052v2.39h3.052v-2.39Zm4.383-30.605h-3.052v2.39h3.052v-2.39Zm0 5.102h-3.052v2.39h3.052v-2.39Zm0 5.102h-3.052v2.39h3.052v-2.39Zm0 5.102h-3.052v2.39h3.052v-2.39Zm0 5.101h-3.052v2.39h3.052v-2.39Zm0 5.096h-3.052v2.39h3.052v-2.39Zm0 5.102h-3.052v2.39h3.052v-2.39Z"/>
  <path fill="#A6A6A6" d="M101.153 197.09h-12.11v38.975h12.11V197.09Z"/>
  <path fill="#C7C7C7" d="M97.426 233.071h2.486v-2.39h-2.486v2.39Zm0-5.096h2.486v-2.39h-2.486v2.39Zm0-5.101h2.486v-2.39h-2.486v2.39Zm0-5.097h2.486v-2.39h-2.486v2.39Zm0-5.107h2.486v-2.39h-2.486v2.39Zm0-5.102h2.486v-2.39h-2.486v2.39Zm0-5.095h2.486v-2.39h-2.486v2.39Zm-3.577 30.598h2.486v-2.39h-2.486v2.39Zm0-5.096h2.486v-2.39h-2.486v2.39Zm0-5.101h2.486v-2.39h-2.486v2.39Zm0-5.097h2.486v-2.39h-2.486v2.39Zm0-5.107h2.486v-2.39h-2.486v2.39Zm0-5.102h2.486v-2.39h-2.486v2.39Zm0-5.095h2.486v-2.39h-2.486v2.39Zm-3.566 30.598h2.486v-2.39h-2.486v2.39Zm0-5.096h2.486v-2.39h-2.486v2.39Zm0-5.101h2.486v-2.39h-2.486v2.39Zm0-5.097h2.486v-2.39h-2.486v2.39Zm0-5.107h2.486v-2.39h-2.486v2.39Zm0-5.102h2.486v-2.39h-2.486v2.39Zm0-5.095h2.486v-2.39h-2.486v2.39Z"/>
  <path fill="#DBDBDB" d="M217.444 152.38h-11.922v14.162h11.922V152.38Z"/>
  <path fill="#C7C7C7" d="M225.01 152.38h-7.561v14.679h7.561V152.38Z"/>
  <path fill="#DBDBDB" d="M225.513 158.637h-7.504v8.428h7.504v-8.428Z"/>
  <path fill="#C7C7C7" d="M230.193 158.637h-4.68v8.428h4.68v-8.428Z"/>
  <path fill="#EBEBEB" d="M220.232 165.623H200.95v70.442h19.282v-70.442Z"/>
  <path fill="#fff" d="M209.22 168.65h-6.064v2.488h6.064v-2.488Zm7.755 0h-6.064v2.488h6.064v-2.488Zm-7.755 4.23h-6.064v2.488h6.064v-2.488Zm7.755 0h-6.064v2.488h6.064v-2.488Zm-7.755 4.227h-6.064v2.488h6.064v-2.488Zm7.755 0h-6.064v2.488h6.064v-2.488Zm-7.755 4.229h-6.064v2.488h6.064v-2.488Zm7.755 0h-6.064v2.488h6.064v-2.488Zm-7.755 4.228h-6.064v2.488h6.064v-2.488Zm7.755 0h-6.064v2.488h6.064v-2.488Zm-7.755 4.229h-6.064v2.488h6.064v-2.488Zm7.755 0h-6.064v2.488h6.064v-2.488Zm-7.755 4.228h-6.064v2.488h6.064v-2.488Zm7.755 0h-6.064v2.488h6.064v-2.488Zm-7.755 4.229h-6.064v2.488h6.064v-2.488Zm7.755 0h-6.064v2.488h6.064v-2.488Zm-7.755 4.229h-6.064v2.487h6.064v-2.487Zm7.755 0h-6.064v2.487h6.064v-2.487Zm-7.755 4.228h-6.064v2.488h6.064v-2.488Zm7.755 0h-6.064v2.488h6.064v-2.488Zm-7.755 4.228h-6.064v2.487h6.064v-2.487Zm7.755 0h-6.064v2.487h6.064v-2.487Zm-7.755 4.229h-6.064v2.493h6.064v-2.493Zm7.755 0h-6.064v2.493h6.064v-2.493Zm-7.755 4.228h-6.064v2.487h6.064v-2.487Zm7.755 0h-6.064v2.487h6.064v-2.487Zm-7.755 4.229h-6.064v2.488h6.064v-2.488Zm7.755 0h-6.064v2.488h6.064v-2.488Z"/>
  <path fill="#C7C7C7" d="M235.857 165.623h-15.625v70.442h15.625v-70.442Z"/>
  <path fill="#EBEBEB" d="M229.313 226.108h4.978v-2.487h-4.978v2.487Zm-6.372 0h4.978v-2.487h-4.978v2.487Zm6.372-4.228h4.978v-2.488h-4.978v2.488Zm-6.372 0h4.978v-2.488h-4.978v2.488Zm6.372-4.229h4.978v-2.493h-4.978v2.493Zm-6.372 0h4.978v-2.493h-4.978v2.493Zm6.372-4.229h4.978v-2.488h-4.978v2.488Zm-6.372 0h4.978v-2.488h-4.978v2.488Zm6.372-4.228h4.978v-2.487h-4.978v2.487Zm-6.372 0h4.978v-2.487h-4.978v2.487Zm6.372-4.228h4.978v-2.488h-4.978v2.488Zm-6.372 0h4.978v-2.488h-4.978v2.488Zm6.372-4.229h4.978v-2.487h-4.978v2.487Zm-6.372 0h4.978v-2.487h-4.978v2.487Zm6.372-4.228h4.978v-2.488h-4.978v2.488Zm-6.372 0h4.978v-2.488h-4.978v2.488Zm6.372-4.229h4.978v-2.487h-4.978v2.487Zm-6.372 0h4.978v-2.487h-4.978v2.487Zm6.372-4.228h4.978v-2.488h-4.978v2.488Zm-6.372 0h4.978v-2.488h-4.978v2.488Zm6.372-4.229h4.978v-2.487h-4.978v2.487Zm-6.372 0h4.978v-2.487h-4.978v2.487Zm6.372-4.228h4.978v-2.488h-4.978v2.488Zm-6.372 0h4.978v-2.488h-4.978v2.488Zm6.372-4.228h4.978v-2.487h-4.978v2.487Zm-6.372 0h4.978v-2.487h-4.978v2.487Zm6.372-4.223h4.978v-2.488h-4.978v2.488Zm-6.372 0h4.978v-2.488h-4.978v2.488Z"/>
  <path fill="#C7C7C7" d="M138.653 190.167h-22.739v45.904h22.739v-45.904Z"/>
  <path fill="#DBDBDB" d="M123.515 194.136h-4.024v2.809h4.024v-2.809Zm0 6.01h-4.024v2.815h4.024v-2.815Zm0 6.003h-4.024v2.816h4.024v-2.816Zm0 6.009h-4.024v2.815h4.024v-2.815Zm0 6.004h-4.024v2.815h4.024v-2.815Zm0 6.01h-4.024v2.815h4.024v-2.815Zm0 6.004h-4.024v2.815h4.024v-2.815Zm5.789-36.04h-4.023v2.809h4.023v-2.809Zm0 6.01h-4.023v2.815h4.023v-2.815Zm0 6.003h-4.023v2.816h4.023v-2.816Zm0 6.009h-4.023v2.815h4.023v-2.815Zm0 6.004h-4.023v2.815h4.023v-2.815Zm0 6.01h-4.023v2.815h4.023v-2.815Zm0 6.004h-4.023v2.815h4.023v-2.815Zm5.772-36.04h-4.024v2.809h4.024v-2.809Zm0 6.01h-4.024v2.815h4.024v-2.815Zm0 6.003h-4.024v2.816h4.024v-2.816Zm0 6.009h-4.024v2.815h4.024v-2.815Zm0 6.004h-4.024v2.815h4.024v-2.815Zm0 6.01h-4.024v2.815h4.024v-2.815Zm0 6.004h-4.024v2.815h4.024v-2.815Zm3.577-44.796h-15.138v4.78h15.138v-4.78Z"/>
  <path fill="#EBEBEB" d="M138.659 182.421h-9.601v2.959h9.601v-2.959Z"/>
  <path fill="#A6A6A6" d="M154.609 190.167h-15.956v45.904h15.956v-45.904Z"/>
  <path fill="#C7C7C7" d="M149.706 232.543h3.274v-2.815h-3.274v2.815Zm0-6.01h3.274v-2.815h-3.274v2.815Zm0-6.004h3.274v-2.815h-3.274v2.815Zm0-6.009h3.274v-2.816h-3.274v2.816Zm0-6.003h3.274v-2.816h-3.274v2.816Zm0-6.01h3.274v-2.815h-3.274v2.815Zm0-6.004h3.274v-2.815h-3.274v2.815Zm-4.715 36.04h3.275v-2.815h-3.275v2.815Zm0-6.01h3.275v-2.815h-3.275v2.815Zm0-6.004h3.275v-2.815h-3.275v2.815Zm0-6.009h3.275v-2.816h-3.275v2.816Zm0-6.003h3.275v-2.816h-3.275v2.816Zm0-6.01h3.275v-2.815h-3.275v2.815Zm0-6.004h3.275v-2.815h-3.275v2.815Zm-4.698 36.04h3.275v-2.815h-3.275v2.815Zm0-6.01h3.275v-2.815h-3.275v2.815Zm0-6.004h3.275v-2.815h-3.275v2.815Zm0-6.009h3.275v-2.816h-3.275v2.816Zm0-6.003h3.275v-2.816h-3.275v2.816Zm0-6.01h3.275v-2.815h-3.275v2.815Zm0-6.004h3.275v-2.815h-3.275v2.815Zm11.898-11.123h-13.538v4.78h13.538v-4.78Z"/>
  <path fill="#DBDBDB" d="M145.991 182.421h-7.338v2.959h7.338v-2.959Z"/>
  <path fill="#263238" d="m240 239.713-29.997.138-30.003.052-60 .097-60-.097-29.997-.052L0 239.713l30.003-.144L60 239.523l60-.097 60 .097 30.003.052 29.997.138Z"/>
  <path fill="#C7C7C7" d="M240 236.065H0v3.499h240v-3.499Z"/>
  <path fill="#263238" d="M16.824 236.065c.2.562.297 1.156.286 1.752a4.787 4.787 0 0 1-.286 1.724 5.497 5.497 0 0 1 0-3.499v.023Zm18.762 0a5.497 5.497 0 0 1 0 3.499 4.783 4.783 0 0 1-.285-1.723 4.943 4.943 0 0 1 .285-1.776Zm18.756 0c.2.562.297 1.156.286 1.752a4.785 4.785 0 0 1-.286 1.724 5.497 5.497 0 0 1 0-3.499v.023Zm18.762 0a5.497 5.497 0 0 1 0 3.499 4.785 4.785 0 0 1-.285-1.723 4.943 4.943 0 0 1 .285-1.776Zm18.756 0c.2.562.297 1.156.286 1.752a4.787 4.787 0 0 1-.286 1.724 5.497 5.497 0 0 1 0-3.499v.023Zm18.762 0a5.499 5.499 0 0 1 0 3.499 4.794 4.794 0 0 1-.286-1.723 4.945 4.945 0 0 1 .286-1.776Zm18.756 0c.2.562.297 1.156.286 1.752a4.796 4.796 0 0 1-.286 1.724 5.499 5.499 0 0 1 0-3.499v.023Zm18.762 0a5.499 5.499 0 0 1 0 3.499 4.794 4.794 0 0 1-.286-1.723 4.945 4.945 0 0 1 .286-1.776Zm18.756 0c.2.562.297 1.156.286 1.752a4.796 4.796 0 0 1-.286 1.724 5.499 5.499 0 0 1 0-3.499v.023Zm18.761 0a5.485 5.485 0 0 1 0 3.499 4.772 4.772 0 0 1-.285-1.723 4.944 4.944 0 0 1 .285-1.776Zm18.757 0c.2.562.297 1.156.285 1.752a4.774 4.774 0 0 1-.285 1.724 5.499 5.499 0 0 1 0-3.499v.023Zm18.762 0a5.499 5.499 0 0 1 0 3.499 4.794 4.794 0 0 1-.286-1.723 4.945 4.945 0 0 1 .286-1.776ZM196.721 15.869l-.137-.408c.36-.127.726-.242 1.092-.357l.125.408-1.08.357Zm-54.176 46.437-.091-.425a22.191 22.191 0 0 0 2.228-.574l.115.413c-.732.236-1.492.426-2.252.587Zm5.001-1.499-.155-.402a25.022 25.022 0 0 0 2.098-.92l.182.391c-.697.34-1.411.65-2.125.931Zm4.68-2.298-.223-.368c.646-.39 1.292-.816 1.92-1.258l.246.35c-.64.431-1.292.857-1.943 1.253v.023Zm4.246-3.045-.274-.333a41.032 41.032 0 0 0 1.714-1.529l.292.317a53.96 53.96 0 0 1-1.732 1.522v.023Zm3.812-3.596-.314-.3a39.969 39.969 0 0 0 1.56-1.723l.32.287a68.73 68.73 0 0 1-1.566 1.712v.023Zm3.429-3.942-.332-.276c.486-.574.96-1.2 1.435-1.815l.337.264c-.469.598-.947 1.2-1.435 1.804l-.005.023Zm3.189-4.148-.343-.253 1.371-1.872.343.252-1.371 1.873Zm3.069-4.228-.349-.253 1.366-1.884.343.252-1.36 1.885Zm3.08-4.246-.343-.259c.463-.62.931-1.24 1.406-1.855l.337.264c-.474.615-.937 1.23-1.4 1.85Zm3.194-4.12-.331-.275c.491-.575.989-1.195 1.497-1.781l.32.282c-.503.585-1 1.177-1.486 1.775Zm3.429-3.923-.314-.293a50.3 50.3 0 0 1 1.629-1.666l.303.31a29.18 29.18 0 0 0-1.623 1.649h.005Zm3.732-3.608-.28-.328a33.032 33.032 0 0 1 1.789-1.482l.268.339a71.7 71.7 0 0 0-1.783 1.47h.006Zm4.098-3.172-.24-.356c.64-.436 1.297-.862 1.954-1.252l.223.367a38.45 38.45 0 0 0-1.943 1.241h.006Zm4.451-2.62-.188-.384a39.03 39.03 0 0 1 2.109-.977l.165.396c-.708.3-1.405.627-2.091.966h.005Zm-53.467 45.055-.04-.431c.38-.035.761-.075 1.142-.12l.052.424-1.154.127Z"/>
  <path fill="#65BEDC" d="m202.116 8.026-4.377 7.285 6.88-3.505L229.05 8.01l-26.934.017Z"/>
  <path fill="#000" d="m202.116 8.026-4.377 7.285 6.88-3.505L229.05 8.01l-26.934.017Z" opacity=".1"/>
  <path fill="#263238" d="m205.031 13.789-7.292 1.522 6.88-3.504.412 1.982Z"/>
  <path fill="#65BEDC" d="M204.619 11.806 229.05 8.01l-22.299 14.644-2.132-10.847Zm-2.502-3.78L193.847 0l35.204 8.009-26.934.017Z"/>
  <path fill="#37474F" d="M65.903 69.66h-7.366v166.409h7.366V69.659Z"/>
  <path fill="#455A64" d="M65.91 236.064h3.994V69.654h-3.995v166.41Z"/>
  <path fill="#263238" d="M65.903 67.564h-8.046v2.09h8.046v-2.09Z"/>
  <path fill="#37474F" d="M65.903 69.66h4.692v-2.092h-4.692v2.091Z"/>
  <path fill="#37474F" d="M65.903 65.713H59.48v1.856h6.423v-1.856Z"/>
  <path fill="#455A64" d="M69.115 65.713h-3.212v1.856h3.212v-1.856Z"/>
  <path fill="#37474F" d="M68.48 61.536a4.192 4.192 0 0 1-.702 2.319 4.16 4.16 0 0 1-1.866 1.536 4.135 4.135 0 0 1-4.526-.91 4.198 4.198 0 0 1-.898-4.551 4.172 4.172 0 0 1 1.53-1.873 4.14 4.14 0 0 1 5.248.522 4.176 4.176 0 0 1 1.215 2.957Z"/>
  <path fill="#65BEDC" d="M34.232 84.046v17.81H15.138V84.213c0-1.24.242-2.467.713-3.612a9.436 9.436 0 0 1 2.034-3.063 9.38 9.38 0 0 1 3.045-2.046 9.34 9.34 0 0 1 3.592-.719h.486a9.2 9.2 0 0 1 6.522 2.716 9.298 9.298 0 0 1 2.702 6.557Z"/>
  <path fill="#65BEDC" d="M64.326 82.598v19.276H34.232v-17.81a9.317 9.317 0 0 0-.697-3.554 9.275 9.275 0 0 0-1.999-3.014 9.183 9.183 0 0 0-6.528-2.722h31.557a7.763 7.763 0 0 1 5.49 2.3 7.846 7.846 0 0 1 2.271 5.524Z"/>
  <path fill="#020100" d="M64.326 82.598v19.276H34.232v-17.81a9.317 9.317 0 0 0-.697-3.554 9.275 9.275 0 0 0-1.999-3.014 9.183 9.183 0 0 0-6.528-2.722h31.557a7.763 7.763 0 0 1 5.49 2.3 7.846 7.846 0 0 1 2.271 5.524Z" opacity=".1"/>
  <path fill="#020100" d="M39.455 83.701v18.173h-1.229v-17.81a9.315 9.315 0 0 0-.696-3.553 9.276 9.276 0 0 0-1.997-3.013 9.183 9.183 0 0 0-6.525-2.724h1.566a8.86 8.86 0 0 1 6.28 2.614 8.952 8.952 0 0 1 2.601 6.313Zm22.077.001v18.172h-1.229v-17.81a9.298 9.298 0 0 0-2.7-6.555 9.199 9.199 0 0 0-6.518-2.718h1.566c2.352 0 4.608.938 6.273 2.609a8.952 8.952 0 0 1 2.608 6.302Zm-15.396 13.39V94.22L45.1 96.311h-.571l-1.035-2.092v2.873h-1.108V92.29h1.2l1.24 2.505 1.24-2.505h1.194v4.803h-1.125Zm3.314-4.802h1l1.715 4.802h-1.143l-.371-1.08h-1.486l-.366 1.08h-1.143l1.794-4.803Zm1.058 2.958-.572-1.724-.571 1.724h1.143Zm2.154 1.844V92.29h1.103v4.803h-1.103Zm2.018 0V92.29h1.103v3.826h2.314v.977H54.68Z" opacity=".1"/>
  <path fill="#020100" d="M33.255 84.482v16.006H16.11V84.631c0-1.114.219-2.218.644-3.248a8.478 8.478 0 0 1 1.833-2.752 8.427 8.427 0 0 1 2.742-1.835 8.39 8.39 0 0 1 3.233-.639h.435a8.259 8.259 0 0 1 5.84 2.447 8.348 8.348 0 0 1 2.418 5.878Z" opacity=".3"/>
  <path fill="#37474F" d="m13.018 103.672 2.12-1.781h19.094l-1.92 1.614c-6.178 5.211-14.63 9.439-19.813 9.439h-1.246c-5.092-.017-5.83-3.395 1.765-9.272Z"/>
  <path fill="#37474F" d="m34.226 101.873-1.914 1.614c-6.178 5.211-14.63 9.44-19.814 9.44h-1.354c-4.995-.052-5.67-3.447 1.874-9.273l2.115-1.781h19.093Z"/>
  <path fill="#455A64" d="m32.815 101.873-1.915 1.614c-6.155 5.171-14.567 9.405-19.756 9.44-4.995-.052-5.67-3.447 1.874-9.273l2.115-1.781h17.682Zm28.557 7.905v4.901l-10.133-12.806h3.88l6.253 7.905Z"/>
  <path fill="#37474F" d="M61.372 114.679h-1.43L49.81 101.873h1.435l10.127 12.806Z"/>
  <path fill="#455A64" d="M45.707 66.482v4.539h-4.132v17.046c0 .38-.15.746-.418 1.016a1.425 1.425 0 0 1-2.02 0 1.44 1.44 0 0 1-.419-1.016V65.345l2.857.465 4.132.672Z"/>
  <path fill="#455A64" d="M45.707 66.482v4.539h-4.132v17.046a1.44 1.44 0 0 1-.324.905c-.208.255-.497.43-.819.497a1.271 1.271 0 0 1-.297.034c-.08.01-.16.01-.24 0a1.374 1.374 0 0 1-.772-.396 1.452 1.452 0 0 1-.417-1.017V65.345l2.858.465 4.143.672Z"/>
  <path fill="#37474F" d="M40.13 89.503h-1.115a1.214 1.214 0 0 1-.843-.327 1.226 1.226 0 0 1-.386-.822v-23.01h.915v22.723c0 .381.15.746.417 1.017.28.25.637.398 1.011.42Z"/>
  <path fill="#EBEBEB" d="M33.254 84.482v11.255l-2.857-1.2-1.669-.707-.737-.31-.48-.207-.509-.213-.154-.063-.2-.086-4.195-1.781.886-2.12.172-.403.76-1.803.303-.736.125-.287.526-1.264.572-1.425 2.285-5.492 2.995 1.27a8.24 8.24 0 0 1 1.857 3.447 8.36 8.36 0 0 1 .32 2.125Z"/>
  <path fill="#DBDBDB" d="M33.255 87.413v1.252l-.07-.143v-.063l-.05-.11a1.003 1.003 0 0 1-.058-.109l-.68-1.407c0-.058-.057-.115-.085-.178l-.6-1.264a31.098 31.098 0 0 1-.366-.764l-.035-.08-.908-1.925c-.223-.489-.452-.977-.675-1.471-.525-1.15-1.068-2.333-1.577-3.522.617 1.097 1.195 2.212 1.795 3.32.285.575.571 1.087.857 1.632l.903 1.724.12.235.383.747.468.925c0 .046.052.092.075.138l.502 1.063Z"/>
  <path fill="#DBDBDB" d="M33.254 88.447v.051h-.068l-.172.052c-.725.224-1.451.425-2.183.615l-.24.057-.531.132h-.063l-.629.15-1.228.275a59.46 59.46 0 0 1-2.612.506h-.103l-.531.086a35.4 35.4 0 0 1-2.218.31 39.26 39.26 0 0 1 1.926-.574l.572-.15.177-.051c.891-.23 1.794-.431 2.692-.632l.805-.172c.24-.04.475-.092.715-.138.24-.046.571-.115.868-.161l.332-.058.183-.034a37.638 37.638 0 0 1 2.011-.299h.206l.091.035Z"/>
  <path fill="#fff" d="M33.26 85.597H18.47v14.684h14.79V85.597Z"/>
  <path fill="#DBDBDB" d="M33.255 92.376v.719l-.138.12-.262.236a1.144 1.144 0 0 0-.092.08l-.08.075-.057.052-2.212 1.93-.303.259-.131.109-.131-.11-1.11-.97-.57-.477c-.115-.104-.235-.201-.35-.31a.304.304 0 0 1-.08-.07l-.4-.344-.05-.046-.092-.08-.092-.075a69.953 69.953 0 0 1-2.217-1.965l-.297-.264-.474-.425-.79-.707c-.57-.494-1.102-.994-1.645-1.5l-.194-.172-.212-.19c-.937-.879-1.886-1.723-2.811-2.63.988.763 1.96 1.573 2.937 2.355.074.063.154.12.229.19l.245.2 1.623 1.339.823.684.84.706.36.305c.679.57 1.355 1.145 2.03 1.723l.148.127.394.339.177.15.332.286 1.365 1.15c.8-.69 1.606-1.385 2.412-2.069l.24-.207c.155-.132.303-.264.463-.39l.172-.133Z"/>
  <path fill="#DBDBDB" d="m27.597 93.434-.366.31a27.23 27.23 0 0 1-1.772 1.413c-.731.575-1.48 1.103-2.234 1.638a72.474 72.474 0 0 1-2.286 1.545c-.766.5-1.566.994-2.378 1.442a41.769 41.769 0 0 1 2.16-1.752 76.736 76.736 0 0 1 4.521-3.189 33.193 33.193 0 0 1 1.892-1.149l.451-.253.012-.005Zm5.657.511v.242l-.491-.414-.137-.115-.229-.195h.04l.275.155.171.103.371.224Z"/>
  <path fill="#EB9481" d="M85.648 174.338s-18.116 15.437-18.133 15.443c-3.48 2.936-6.48 5.573-7.904 7.078a3.2 3.2 0 0 0-.857 1.149v.04c.166 1.632 22.677 30.278 23.797 31.024 1.12.747 3.286-2.413 3.291-4.228.006-1.815-3.731-16.661-3.731-16.661l17.961-15.604-14.424-18.241Z"/>
  <path fill="#EBEBEB" d="M71.235 186.604s-3.703 3.159-3.72 3.165c-3.48 2.936-6.48 5.573-7.904 7.078-.33.348-.617.734-.857 1.149v.04c.166 1.632 22.677 30.278 23.797 31.025 1.12.746 3.286-2.413 3.291-4.229.006-1.815-3.731-16.661-3.731-16.661l3.817-3.166-14.693-18.401Z"/>
  <path fill="#65BEDC" d="M82.522 229.084c-1.143-.73-23.63-29.375-23.796-31.024-.075-.626 3.886-4.165 8.789-8.302l.16-.132 14.722 18.316-.315.241s3.738 14.84 3.732 16.661c-.006 1.821-2.177 4.981-3.292 4.24Z"/>
  <path fill="#263238" d="M83.368 227.884c-3.675-4.918-18.962-24.423-22.968-29.007-.034-.035-.063 0-.029 0 3.538 4.958 18.98 24.336 22.923 29.047.08.121.131.064.074-.04Zm-.12-18.087c-1.143-2.177-3.257-4.274-5.743-4.653-.097 0-.12.12-.052.166a34.017 34.017 0 0 1 5.55 4.671.16.16 0 0 0 .098.048.154.154 0 0 0 .105-.031.153.153 0 0 0 .06-.092.157.157 0 0 0-.018-.109Zm.252 2.023c-1.144-2.178-3.258-4.269-5.716-4.654-.097 0-.114.121-.045.167a33.912 33.912 0 0 1 5.543 4.67.154.154 0 0 0 .217-.183Zm.257 2.028c-1.143-2.183-3.258-4.275-5.744-4.66-.097 0-.114.127-.046.173a33.94 33.94 0 0 1 5.544 4.665c.026.025.06.039.096.042a.155.155 0 0 0 .15-.22Z"/>
  <path fill="#37474F" d="M95.22 156.212c-1.142 6.527-27.362 33.075-27.362 33.075l19.19 21.258s37.147-39.068 34.861-53.385c-2.017-12.444-21.773-62.209-21.773-62.209l-21.448.506s17.67 54.338 16.533 60.755Z"/>
  <path fill="#263238" d="M89.054 205.327c-2.554-3.05-1.777-2.212-4.366-5.234-1.269-1.476-9.6-11.18-11.024-12.352-.034 0-.085 0-.063.058.972 1.568 9.476 11.122 10.767 12.576 2.646 2.97 1.92 2.091 4.572 5.027a.073.073 0 0 0 .043.03.06.06 0 0 0 .027 0 .073.073 0 0 0 .024-.01.064.064 0 0 0 .02-.019.068.068 0 0 0 .001-.076Zm9.801-51.339c-.343-1.614-.731-3.223-1.109-4.826a329.64 329.64 0 0 0-2.44-9.812 487.45 487.45 0 0 0-5.492-19.287c-1.977-6.406-4.057-12.806-6.429-19.08-.297-.776-.6-1.545-.897-2.298a.051.051 0 1 0-.097.034c2.074 6.291 4.212 12.565 6.166 18.896a546.264 546.264 0 0 1 5.48 19.023c.863 3.2 1.67 6.411 2.464 9.629a8507.1 8507.1 0 0 1 1.143 4.751 34.126 34.126 0 0 1 1.011 4.895 7.528 7.528 0 0 1-1.143 4.464c-.771 1.339-1.714 2.608-2.572 3.872-1.777 2.545-18.778 22.51-19.327 23.05-.046.046 0 .109.069.063 2.285-2.166 16.733-18.632 18.555-21.171a160.441 160.441 0 0 0 2.64-3.809 14.933 14.933 0 0 0 2.041-3.826 8.942 8.942 0 0 0-.063-4.568Z"/>
  <path fill="#263238" d="m95.723 95.055-.805 57.182c-2.412-14.271-16.23-56.78-16.23-56.78l17.035-.402Z"/>
  <path fill="#EB9481" d="M89.677 201.013s5.144 22.556 5.144 22.567c.165 4.597.394 8.561.708 10.618a3.187 3.187 0 0 0 .383 1.43l.029.029c1.383.873 37.718.574 38.958.149 1.24-.425.12-4.096-1.298-5.211-1.417-1.114-15.372-7.262-15.372-7.262l-5.384-22.538-23.168.218Z"/>
  <path fill="#EBEBEB" d="M134.916 235.812c-1.263.442-37.575.73-38.958-.144l-.029-.028a3.083 3.083 0 0 1-.383-1.397.039.039 0 0 1-.004-.017c0-.006.002-.012.004-.017-.308-2.057-.531-6.05-.703-10.611l-.891-3.93 23.294-.546 1.005 4.217s13.95 6.147 15.379 7.268c1.429 1.12 2.554 4.763 1.286 5.205Z"/>
  <path fill="#65BEDC" d="M134.916 235.812c-1.263.437-37.57.724-38.958-.15-.537-.321-.886-5.636-1.143-12.064v-.202l23.43-.442v.397s13.945 6.141 15.373 7.261c1.429 1.121 2.561 4.757 1.298 5.2Z"/>
  <path fill="#263238" d="M134.493 234.394c-6.121-.104-30.82.063-36.878.425-.051 0-.051.04 0 .04 6.063.235 30.763-.132 36.878-.362.131-.006.131-.103 0-.103Zm-14.282-11.003c-2.411-.437-5.354-.041-7.177 1.723-.075.069 0 .167.102.144a33.3 33.3 0 0 1 7.07-1.54.166.166 0 0 0 .116-.046.186.186 0 0 0 .036-.052.169.169 0 0 0-.032-.179.164.164 0 0 0-.115-.05Zm1.749 1.04c-2.411-.437-5.355-.041-7.183 1.723-.069.069 0 .167.102.144a33.483 33.483 0 0 1 7.075-1.54.158.158 0 0 0 .116-.046.17.17 0 0 0 .037-.052.169.169 0 0 0-.032-.179.164.164 0 0 0-.115-.05Zm1.743 1.04c-2.411-.437-5.355-.041-7.178 1.723-.074.069 0 .167.103.144a33.424 33.424 0 0 1 7.07-1.54.162.162 0 0 0 .165-.161.161.161 0 0 0-.16-.166Z"/>
  <path fill="#37474F" d="M98.06 94.992c0 .453-1.742 18.959-2.325 19.481-.583.523-4.378 3.201-5.504 3.93 0 0 11.03 31.955 14.002 42.624 4.314 15.472 14.858 61.939 14.858 61.939l-25.23.574s-8.704-44.266-12.402-59.003c-3.166-12.639-15.064-50.483-15.064-50.483a32.914 32.914 0 0 1 .463-18.344s31.208-.736 31.203-.718Z"/>
  <path fill="#263238" d="M118.074 218.054c-3.966.069-2.829 0-6.795.109-1.937.057-14.687.442-16.487.816-.04 0-.035.074 0 .08 1.823.23 14.561-.379 16.499-.471 3.96-.195 2.823-.184 6.783-.419a.058.058 0 0 0 .057-.058.054.054 0 0 0-.017-.04.054.054 0 0 0-.04-.017Zm-21.242-104.54a47.938 47.938 0 0 0-6.858 4.849.076.076 0 0 0-.023.024.086.086 0 0 0 .025.12.09.09 0 0 0 .03.013.096.096 0 0 0 .034 0 .09.09 0 0 0 .031-.014c2.32-1.545 4.704-3.045 6.944-4.711a.17.17 0 0 0 .02-.214.168.168 0 0 0-.09-.069.164.164 0 0 0-.113.002Zm-2.337-17.477c0-.086-.178-.075-.16 0a85.938 85.938 0 0 1 1.091 8.555c.114 1.321.355 8.715-1.983 8.617-.394 0-.651-.356-.817-.913a9.357 9.357 0 0 1-.092-2.264c0-1.557-.091-3.102-.234-4.653a41.87 41.87 0 0 0-1.611-8.509.074.074 0 0 0-.143.034 79.363 79.363 0 0 1 1.411 11.893c.057 1.925-.383 4.918 1.623 4.855 2.006-.063 2.48-5.022 2.492-6.36a43.944 43.944 0 0 0-1.577-11.255Z"/>
  <path fill="#263238" d="M93.529 113.37a13.588 13.588 0 0 0-.24 1.585c-.08.42-.08.851 0 1.27 0 .075.125.063.16 0 .17-.41.273-.844.308-1.287.092-.494.189-.982.263-1.476a.258.258 0 0 0-.376-.216.26.26 0 0 0-.115.124ZM90.5 204.718a83.712 83.712 0 0 0-.268-1.752c-.183-1.12-.4-2.235-.572-3.355a292.78 292.78 0 0 0-1.286-6.722c-.897-4.458-1.914-8.905-2.977-13.323-.606-2.499-1.297-4.97-2.023-7.435-.052-.172-.292-.08-.257.087.457 2.258.903 4.521 1.417 6.773s1.023 4.487 1.526 6.734c.983 4.441 1.909 8.899 2.886 13.34.28 1.252.531 2.511.805 3.763.138.628.28 1.254.43 1.879.148.62.353 1.229.474 1.855 0 .058.097.029.085 0-.131-.626-.154-1.24-.24-1.844Zm16.613-34.108c-.937-4.189-2.166-8.314-3.4-12.421-2.486-8.268-5.378-16.409-8.258-24.544l-2.492-7.032c-.417-1.149-2.469-7.498-2.714-8.095a.053.053 0 0 0-.027-.03.06.06 0 0 0-.04-.002.052.052 0 0 0-.029.027.05.05 0 0 0-.002.039c.572 2.155 1.418 5.297 2.092 7.435.674 2.137 1.4 4.194 2.109 6.319 1.383 4.12 2.789 8.233 4.137 12.37 2.663 8.17 5.309 16.339 7.515 24.653.612 2.326 1.229 4.653 1.795 6.997.566 2.344 1.063 4.688 1.606 7.032 0 .064.12.041.114 0a129.748 129.748 0 0 0-2.406-12.748ZM91.94 192.993c-1.571-7.998-3.429-15.943-5.452-23.831a457.238 457.238 0 0 0-6.737-23.619 439.445 439.445 0 0 0-8.036-23.205 99.178 99.178 0 0 1-3.686-11.036c-.914-3.735-1.434-7.779-.651-11.583.195-.965.462-1.913.8-2.838 0-.063-.074-.115-.097-.052-2.858 7.182-.72 14.909 1.754 21.832 1.355 3.809 2.79 7.59 4.126 11.405 1.38 3.914 2.7 7.848 3.96 11.8 2.515 7.837 4.858 15.719 6.978 23.67a450.273 450.273 0 0 1 5.715 23.998c1.68 8.049 3.183 16.19 4.67 24.308.194 1.057.354 2.12.514 3.183 0 .057.103.057.097 0-1.137-8.026-2.383-16.046-3.955-24.032Z"/>
  <path fill="#EB9481" d="M86.854 62.14c2.612 9.698 8.744 24.704 13.853 24.52 4.657-.184 14.858-8.738 19.161-11.565 4.304-2.826-5.714-13.329-8.183-11.53-3.812 2.78-9.492 7.721-10.481 7.428-1.229-.368-2.858-3.344-10.012-12.065-2.96-3.585-5.481-.92-4.338 3.212Z"/>
  <path fill="#EB9481" d="M116.245 59.319c2.035-.782 4.309-1.839 6.595-1.85 2.286-.012 4.246 2.976 4.269 3.843.023.868-.72 6.32-3 6.355-2.28.034-1-4.137-1.097-4.597-.097-.46-.2-1.08-.629-1.022-.428.057-7.881 3.82-7.881 3.82l1.743-6.55Z"/>
  <path fill="#EB9481" d="M116.394 59.63c.131 0 6.189-2.569 8.475-2.58 2.286-.012 4.275 2.959 4.275 3.838s-.72 6.32-3 6.354c-2.281.034-1.001-4.137-1.098-4.596-.097-.46-.2-1.086-.628-1.029-.429.058-7.881 3.827-7.881 3.827l-.143-5.815Z"/>
  <path fill="#263238" d="M125.355 66.971a2.816 2.816 0 0 1-.412-1.35 4.832 4.832 0 0 1 .052-1.465 8.06 8.06 0 0 0 .246-1.27 2.571 2.571 0 0 0-.343-1.206c-.183-.316-.52-.201-.806-.092-.42.17-.83.361-1.229.575l-1.28.718a12.41 12.41 0 0 0-1.309.764.039.039 0 0 0-.018.02.035.035 0 0 0 .047.043 12.28 12.28 0 0 0 1.143-.574l1.291-.632c.406-.19.801-.408 1.212-.575.143-.063.429-.23.572-.195.142.034.268.465.314.603.103.41.085.841-.052 1.241a6.29 6.29 0 0 0-.205 1.264 3.35 3.35 0 0 0 .12 1.195c.151.345.343.671.571.97.046.053.12 0 .086-.034Z"/>
  <path fill="#EB9481" d="M109.296 65.823s6.189-5.946 7.481-7.124c2.589-2.373 13.607-7.205 15.156-7.406 1.548-.2 2.177 2.982-5.298 6.48-3.938 1.84-4.572 4.149-4.486 5.418.086 1.27 1.366 3.608 3.486 3.5 2.12-.11 3.429-3.258 5.377-3.649 1.949-.39.738 3.235-.571 5.343a13.014 13.014 0 0 1-5.612 4.596c-1.823.736-7.429 3.333-7.429 3.333l-8.104-10.491Z"/>
  <path fill="#263238" d="M128.241 65.128c-.789.644-1.675 1.47-2.726 1.534-1.052.063-1.812-.626-2.338-1.505a4.07 4.07 0 0 1-.628-2.942 5.024 5.024 0 0 1 1.4-2.43 12.217 12.217 0 0 1 2.857-1.994c.046 0 0-.091-.045-.069-.966.466-4.001 1.787-4.521 4.499a4.182 4.182 0 0 0 .657 2.999c.492.839 1.195 1.643 2.229 1.724 1.257.074 2.315-.977 3.2-1.764.012-.058-.045-.087-.085-.052Z"/>
  <path fill="#65BEDC" d="m109.279 65.012 9.801 14.53s-14.813 8.819-19.082 7.555c-4.27-1.264-10.978-13.352-13.87-24.026-2.892-10.675 3.766-6.722 6.39-3.448 2.622 3.275 8.32 10.801 8.623 10.692.303-.109 8.138-5.303 8.138-5.303Z"/>
  <path fill="#EBEBEB" d="M114.822 81.927a94.666 94.666 0 0 1-2.994 1.54l-8.544-14.525c.857-.574 1.852-1.206 2.783-1.815 2.692 4.539 5.961 10.06 8.755 14.8Zm-4.149 2.103-.983.453-8.412-14.265c.183-.103.492-.299.892-.574 2.646 4.48 5.794 9.8 8.503 14.385Z"/>
  <path fill="#263238" d="M108.622 84.96c-3.389 1.482-6.721 2.58-8.481 2.177l-.154-.04c-4.275-1.264-10.973-13.346-13.87-24.026a16.935 16.935 0 0 1-.714-4.401v-.414a.637.637 0 0 1 0-.103 1.422 1.422 0 0 1 0-.23l23.219 27.037Zm5.143-6.734c-.309-.517-.629-1.034-.943-1.545-.634-1.029-4.44-7.124-5.932-8.968-.04-.052-.114 0-.091.063 1.063 2.137 5 8.118 5.657 9.106.338.5.669 1.005 1.012 1.505.343.5.743.965 1.086 1.47.034.047.114 0 .085-.045-.314-.517-.565-1.069-.874-1.586Z"/>
  <path fill="#65BEDC" d="M64.737 105.09c.092.098 37.895-4.435 38.227-4.843.469-.574-9.195-38.447-13.281-43.445-.875-1.069-3.646-1.281-5.984-.908-.61.09-1.21.235-1.794.431h-.057a4.284 4.284 0 0 0-1.31.695c-6.354 5.464-11.24 23.97-12.337 29.52-1.83 9.157-3.79 18.2-3.464 18.55Z"/>
  <path fill="#EBEBEB" d="M102.187 96.14c-9.144 1.19-28.98 3.775-36.866 4.723.274-1.408.605-3.085.983-4.935l34.763-4.372c.44 1.723.823 3.286 1.12 4.584Zm-1.589-6.452c-9.03 1.178-25.717 3.344-33.912 4.35l.32-1.575 33.221-4.211c.125.483.251.965.371 1.436Z"/>
  <path fill="#EB9481" d="M77.967 66.954c1.915 9.91 10.653 28.318 16.105 29.944 6.315 1.879 27.9-5.619 32.094-8.865 1.669-1.287-7.64-12.065-9.715-11.26-8.778 3.481-16.573 5.348-17.744 4.596-1.783-1.15-9.144-11.278-13.956-17.552-6.04-7.882-7.647-1.304-6.784 3.137Z"/>
  <path fill="#EB9481" d="M125.612 88.35c.96-.374 7.509-5.39 9.418-7.716a29.22 29.22 0 0 0 4.938-8.101c1.868-4.677 2.72-8.084 2.211-9.589-.571-1.752-.76-2.034-5.189 5.745-2.503 4.407-4.977 4.953-7.132 4.958a33.005 33.005 0 0 0-15.224 3.804s7.292 12.317 10.978 10.898Z"/>
  <path fill="#37474F" d="m145.351 57.137-11.167 14.862a1.364 1.364 0 0 1-1.377.489l-8.086-2.494a.568.568 0 0 1-.438-.415.576.576 0 0 1 .175-.579l11.166-14.862a1.349 1.349 0 0 1 1.378-.488l8.086 2.493a.575.575 0 0 1 .263.994Z"/>
  <path fill="#263238" d="m144.362 55.895-8.086-2.493a1.36 1.36 0 0 0-1.377.494l-11.161 14.863a.572.572 0 0 0-.198.594.575.575 0 0 0 .461.423l8.086 2.493a1.368 1.368 0 0 0 1.377-.488l11.161-14.863a.578.578 0 0 0 .034-.881.57.57 0 0 0-.297-.142Zm-11.069 15.242a1.277 1.277 0 0 1-1.269.483l-7.229-2.23c-.406-.126-.497-.574-.2-.936l10.395-13.84c.572-.793.954-.735 1.36-.609l1.446.448c.086 0 .092.132 0 .236l-.034.046c-.189.253-.034.298.154.356l3.349 1.034a.386.386 0 0 0 .526-.144l.034-.046a.307.307 0 0 1 .297-.143l1.452.448c.4.12.651.328.103 1.057l-10.384 13.84Z"/>
  <path fill="#fff" d="m140.288 55.442-.909-.288a.032.032 0 0 1-.011-.014.036.036 0 0 1-.004-.017.04.04 0 0 1 .004-.018.031.031 0 0 1 .011-.014.09.09 0 0 1 .097-.034l.915.281c.005.004.01.009.014.015a.045.045 0 0 1 .005.02.045.045 0 0 1-.005.02.056.056 0 0 1-.014.014.11.11 0 0 1-.047.032.1.1 0 0 1-.056.003Z"/>
  <path fill="#fff" d="m143.688 57.297-10.395 13.84a1.278 1.278 0 0 1-1.269.483l-7.229-2.23c-.406-.126-.497-.574-.2-.936l10.395-13.84c.572-.793.954-.735 1.36-.609l1.446.448c.086 0 .091.133 0 .236l-.034.046c-.189.253-.035.299.154.356l3.349 1.034a.386.386 0 0 0 .526-.143l.034-.046a.307.307 0 0 1 .297-.144l1.452.448c.428.12.663.322.114 1.057Z"/>
  <path fill="#65BEDC" d="m143.688 57.297-.777 1.034-8.698-2.683.777-1.034c.571-.793.954-.735 1.36-.609l1.446.448c.086 0 .091.133 0 .236l-.034.046c-.189.253-.035.299.154.356l3.349 1.034a.386.386 0 0 0 .526-.143l.034-.046a.307.307 0 0 1 .297-.144l1.446.448c.434.12.668.322.12 1.057Z"/>
  <path fill="#fff" d="m135.47 55.412-.091-.293.417-.132.011.046-.343.115.075.241-.069.023Zm7.423 1.918a.075.075 0 0 1-.08 0 .047.047 0 0 1-.011-.012.03.03 0 0 1-.004-.016.03.03 0 0 1 .004-.016.045.045 0 0 1 .011-.012.08.08 0 0 1 .08-.034c.012.04.023.068 0 .09Zm-.119.162a.082.082 0 0 1-.043.013.082.082 0 0 1-.043-.013.027.027 0 0 1-.011-.012.032.032 0 0 1-.004-.016c0-.006.001-.012.004-.017a.027.027 0 0 1 .011-.012.073.073 0 0 1 .035-.03.072.072 0 0 1 .045-.005.05.05 0 0 1 .034.012c.009.008.015.02.015.031a.045.045 0 0 1-.043.05Zm-.12.161a.082.082 0 0 1-.043.012.082.082 0 0 1-.043-.012c-.029 0-.035-.035 0-.063a.096.096 0 0 1 .086-.03c.012 0 .024.006.033.014.008.009.013.02.013.033a.048.048 0 0 1-.013.032.048.048 0 0 1-.033.014Zm-5.338-2.965h-.04a.13.13 0 0 0-.097-.092.298.298 0 0 0-.172 0h.223v.034l.086.058Zm-.292-.018a.217.217 0 0 1 .12 0 .109.109 0 0 1 .103.081h-.034a.104.104 0 0 0-.069-.057.159.159 0 0 0-.12-.023Z"/>
  <path fill="#fff" d="M137.145 54.74h-.034a.058.058 0 0 0-.013-.022.054.054 0 0 0-.022-.013.127.127 0 0 0-.063 0c.08-.034.132-.017.132.035Zm-.052.017h-.034.028s.012-.005.006 0Zm-1.171-.454a.08.08 0 0 1 .035-.03.09.09 0 0 1 .045-.01.036.036 0 0 1 .014.015.035.035 0 0 1 0 .04.036.036 0 0 1-.014.014.09.09 0 0 1-.044.032.091.091 0 0 1-.054.002.037.037 0 0 1-.008-.017.04.04 0 0 1 .001-.019.029.029 0 0 1 .009-.016.04.04 0 0 1 .016-.011Zm.182.059a.095.095 0 0 1 .044-.032.091.091 0 0 1 .054-.003.036.036 0 0 1 .014.015.035.035 0 0 1 0 .04.036.036 0 0 1-.014.014.105.105 0 0 1-.098.035.056.056 0 0 1-.014-.015.045.045 0 0 1-.005-.02c0-.007.002-.014.005-.02a.056.056 0 0 1 .014-.014Zm.183.051a.082.082 0 0 1 .041-.03.081.081 0 0 1 .051.002c.035 0 .04.04 0 .068a.089.089 0 0 1-.049.014.088.088 0 0 1-.048-.014c-.012.023-.018-.011.005-.04Zm.177.057a.11.11 0 0 1 .098-.034.036.036 0 0 1 .014.014.035.035 0 0 1 .005.02.035.035 0 0 1-.005.02.036.036 0 0 1-.014.015.098.098 0 0 1-.098.034.036.036 0 0 1-.014-.014.045.045 0 0 1-.005-.02c0-.007.002-.014.005-.02a.037.037 0 0 1 .014-.015Zm.183.058a.095.095 0 0 1 .044-.032.091.091 0 0 1 .054-.003c.035 0 .04.04 0 .07a.093.093 0 0 1-.098.034.044.044 0 0 1-.014-.015.045.045 0 0 1-.005-.02c0-.007.002-.014.005-.02a.044.044 0 0 1 .014-.014Zm6.721 2.35-.737-.23.314-.414.737.224-.314.42Z"/>
  <path fill="#fff" d="m143.311 56.522-.303-.092-.097.126.303.098.097-.132Zm.08.166-.04-.011.08-.104.04.012-.08.103Z"/>
  <path fill="#EBEBEB" d="m126.018 68.724-.063-.023-.206.276-.126-.04.103-.138-.217-.07-.103.139-.125-.035.205-.275-.068-.018.508-.184.092.368Zm6.794 1.867-.725-.224.068-.086.726.219-.069.091Zm-.171.229-.72-.223.069-.092.72.224-.069.092Zm-.171.23-.72-.224.068-.092.72.224-.068.092Zm-3.189-1.366-.354.132-.058-.259.058-.023.051.218.286-.114.017.046Z"/>
  <path fill="#EBEBEB" d="M128.921 70.299a.65.65 0 0 1-.212 0 .566.566 0 0 1-.365-.345.568.568 0 0 1 .108-.523.87.87 0 0 1 .892-.304.528.528 0 0 1 .372.619.576.576 0 0 1-.115.248.878.878 0 0 1-.68.305Zm.2-.655a.332.332 0 0 0-.189.08.348.348 0 0 0 .212-.08h-.023Z"/>
  <path fill="#fff" d="M138.287 56.102a.403.403 0 0 1 .389-.138.169.169 0 0 1 .114.092s0 .04-.028.046c-.029.006-.046 0-.052 0a.113.113 0 0 0-.08-.063.22.22 0 0 0-.148 0 .298.298 0 0 0-.12.08.125.125 0 0 0-.028.054.139.139 0 0 0-.001.061.13.13 0 0 0 .034.05.127.127 0 0 0 .052.03.234.234 0 0 0 .126 0h.045a.04.04 0 0 1-.013.028.043.043 0 0 1-.027.013.331.331 0 0 1-.183 0 .165.165 0 0 1-.102-.107.162.162 0 0 1-.006-.075.178.178 0 0 1 .028-.07Zm.355.328.251-.334a.068.068 0 0 1 .063 0 .027.027 0 0 1 .009.01.029.029 0 0 1 0 .026.026.026 0 0 1-.009.01l-.103.133.166.051.103-.138a.055.055 0 0 1 .028-.007c.01 0 .02.002.029.008 0 0 .029 0 0 .04l-.251.339a.059.059 0 0 1-.058 0s-.028 0 0-.046l.103-.138-.165-.052-.103.138a.068.068 0 0 1-.063 0s-.012-.017 0-.04Zm.691.131-.16-.046-.086.063a.04.04 0 0 1-.022.007.047.047 0 0 1-.023-.007v-.051l.394-.293a.057.057 0 0 1 .052 0v.028l-.109.38a.056.056 0 0 1-.021.024.058.058 0 0 1-.031.01v-.029l.006-.086Zm0-.069.04-.143-.143.109.103.034Zm.572-.046-.097-.034-.229.31a.06.06 0 0 1-.031.008.066.066 0 0 1-.032-.008v-.04l.229-.305-.097-.034s-.029 0 0-.04a.054.054 0 0 1 .028-.008c.01 0 .02.003.029.008l.274.086v.04a.062.062 0 0 1-.074.017Z"/>
  <path fill="#455A64" d="m130.824 61.721 6.218 1.92 1.314-1.747-6.223-1.92-1.309 1.747Z"/>
  <path fill="#455A64" d="m137.619 63.818-.577-.178.405-.54.172.718Z"/>
  <path fill="#fff" d="m137.75 62.117-5.509-1.7.023-.03 5.509 1.696-.023.034Zm-1.28-.172-4.366-1.344.023-.035 4.366 1.345-.023.034Zm.423.568-5.058-1.557.023-.034 5.058 1.563-.023.028Zm.314.323-5.503-1.7.023-.035 5.509 1.7-.029.035Zm-.131.177-5.509-1.7.023-.035 5.509 1.7-.023.035Zm-1.663-.293-3.983-1.23.028-.028 3.983 1.224-.028.034Z"/>
  <path fill="#455A64" d="m127.726 65.84 6.224 1.92 1.308-1.747-6.217-1.92-1.315 1.747Z"/>
  <path fill="#455A64" d="m134.527 67.937-.577-.178.4-.534.177.712Z"/>
  <path fill="#fff" d="m134.653 66.236-5.509-1.7.022-.03 5.51 1.696-.023.034Zm-1.281-.172-4.366-1.344.029-.034 4.366 1.344-.029.034Zm.424.568-5.052-1.556.023-.035 5.051 1.563-.022.028Zm.32.323-5.51-1.7.023-.035 5.509 1.7-.022.035Zm-.138.177-5.509-1.7.029-.035 5.509 1.701-.029.034Zm-1.657-.292-3.983-1.23.023-.029 3.983 1.23-.023.028Z"/>
  <path fill="#65BEDC" d="m140.23 60.343-6.217-1.92 1.103-1.476 6.223 1.92-1.109 1.476Z"/>
  <path fill="#65BEDC" d="m133.436 58.245.577.178.4-.54-.977.362Z"/>
  <path fill="#fff" d="m139.836 58.779-4.583-1.414.023-.034 4.589 1.42-.029.028Zm.789.466-5.509-1.7.028-.035 5.504 1.7-.023.035Zm-.137.178-5.504-1.7.023-.03 5.509 1.695-.028.035Zm-.566.045-5.075-1.562.023-.035 5.075 1.563-.023.034Zm.297.312-5.503-1.696.022-.034 5.51 1.7-.029.03Zm-1.572-.266-4.069-1.252.023-.035 4.075 1.259-.029.029Z"/>
  <path fill="#65BEDC" d="m139.23 61.669-6.217-1.92.817-1.09 6.223 1.918-.823 1.092Z"/>
  <path fill="#65BEDC" d="m132.436 59.572.577.178.4-.534-.977.356Z"/>
  <path fill="#fff" d="m139.465 60.772-5.498-1.695.023-.034 5.498 1.695-.023.034Zm-1.109-.12-4.526-1.396.028-.034 4.526 1.396-.028.034Zm.32.316-4.978-1.534.023-.035 4.983 1.54-.028.029Zm-1.274-.173-3.841-1.183.029-.035 3.84 1.19-.028.028Z"/>
  <path fill="#DBDBDB" d="m136.145 65.783-6.224-1.92 1.16-1.539 6.218 1.92-1.154 1.539Zm-6.796-2.098.572.178.406-.54-.978.362Z"/>
  <path fill="#fff" d="m136.013 64.875-5.201-1.603.029-.035 5.201 1.609-.029.029Zm-.555.051-4.777-1.477.023-.034 4.777 1.477-.023.034Zm.526-.5-4.903-1.51.029-.035 4.897 1.51-.023.035Zm.675-.011-5.441-1.677.023-.035 5.44 1.678-.022.034Zm-1.166.741-4.949-1.529.029-.028 4.943 1.522-.023.035Z"/>
  <path fill="#65BEDC" d="m133.224 69.673-6.223-1.92.966-1.28 6.217 1.919-.96 1.28Z"/>
  <path fill="#65BEDC" d="m126.424 67.575.577.178.4-.54-.977.362Z"/>
  <path fill="#fff" d="m133.613 68.575-5.504-1.7.023-.03 5.509 1.695-.028.035Zm-.132.178-5.509-1.7.023-.03 5.509 1.695-.023.035Zm-.571.045-5.075-1.562.029-.035 5.069 1.563-.023.034Zm.303.312-5.509-1.696.022-.034 5.51 1.7-.023.03Zm-1.572-.266-4.075-1.252.029-.034 4.069 1.258-.023.028Z"/>
  <path fill="#EB9481" d="M130.932 73.602c-2.223.086 4.904-4.596 4.955-7.176.052-2.58-2.4-1.689-4.314-.207-6.635 5.171-11.739 5.028-15.053 9.876-3.315 4.85 14.412-2.493 14.412-2.493Z"/>
  <path fill="#263238" d="M124.132 70.654a17.613 17.613 0 0 0-4.126 1.724 10.87 10.87 0 0 0-2.943 2.873c-.035.051.034.114.074.063 1.772-2.298 4.446-3.488 7.012-4.637a.033.033 0 0 0-.006-.013.038.038 0 0 0-.011-.01Z"/>
  <path fill="#65BEDC" d="M99.14 80.743c1.744.43 13.716-3.171 13.716-3.171L120 93.904s-20.882 5.4-25.82 3.81c-4.937-1.592-12.938-18.173-15.63-27.842-2.531-9.089.423-15.127 7.138-5.809.023 0 12.544 16.455 13.453 16.679Z"/>
  <path fill="#EBEBEB" d="M116.205 94.813c-1.348.31-2.96.678-4.703 1.051l-6.544-16.086c1.566-.385 3.207-.834 4.572-1.218a4615.378 4615.378 0 0 1 6.675 16.253Zm-6.532 1.425-1.514.305-6.527-16.035c.458-.087.955-.19 1.469-.305a5117.372 5117.372 0 0 1 6.572 16.035Z"/>
  <path fill="#263238" d="M93.929 97.191c-4.155-2.017-9.475-12.961-10.498-15.11-.657-1.373-1.258-2.775-1.852-4.177a193.098 193.098 0 0 1-3.332-8.52.041.041 0 0 0-.004-.037.04.04 0 0 0-.073.018 70.2 70.2 0 0 0 2.1 6.58 24.015 24.015 0 0 1-1.4-2.482c0-.04-.091 0-.074.035.426 1.02.973 1.984 1.629 2.872a73.833 73.833 0 0 0 2.76 6.36c.291.575 6.463 14.013 11.081 15.162 1.606.402 7.058-.12 8.212-.414.046 0 .057-.074 0-.074-1.571.023-7.052.522-8.55-.213Zm21.499-5.198a60.613 60.613 0 0 0-.657-1.69c-.446-1.12-3.132-7.796-4.275-9.876 0-.057-.114 0-.097.046.669 2.299 3.503 8.877 4.001 9.963.24.574.48 1.108.731 1.66.252.551.572 1.086.812 1.643 0 .052.114 0 .091-.034-.229-.558-.377-1.15-.606-1.712Zm-2.56-14.398c-1 .069-9.972 2.39-11.955 2.872a4.026 4.026 0 0 1-1.47.242 2.132 2.132 0 0 1-1.2-.862c-.662-.73-7.937-9.94-8.463-10.388-.194-.172-.349-.2-.16.092.326.5 7.4 9.595 8.04 10.342.64.747 1.144 1.361 2.133 1.298.422-.029 12.532-3.056 13.144-3.32.102-.052.085-.288-.069-.276Z"/>
  <path fill="#EB9481" d="M89.14 62.26c-1.806.334-6.418-1.797-7.56-4.423-.08-.184.342-1.965.754-4.16.24-1.332.48-2.826.571-4.2 0-.28 8.395 2.873 8.395 2.873a22.063 22.063 0 0 0-1.291 5.211 2.632 2.632 0 0 0 0 .575.486.486 0 0 1 0 .092c.131 1.068 1.074 3.67-.87 4.033Z"/>
  <path fill="#263238" d="M90.06 58.113v.092a5.827 5.827 0 0 1-.88-.029c-5.04-.574-5.818-7.038-5.932-8.67 1.509.357 8.092 2.828 8.092 2.828a22.06 22.06 0 0 0-1.291 5.21c-.014.19-.01.38.011.57Z"/>
  <path fill="#EB9481" d="M79.47 40.475c-.314 3.194 2.995 11.57 5.515 13.082 3.646 2.194 8.755 1.442 10.384-2.764 1.583-4.079-2.92-14.937-5.652-16.207-4.006-1.896-9.784 1.166-10.247 5.889Z"/>
  <path fill="#263238" d="M88.946 43.98s-.035.046 0 .063c.234.574.417 1.24 0 1.631.56-.304.314-1.177 0-1.694Z"/>
  <path fill="#263238" d="M88.214 43.582c-.931.288-.291 2.143.572 1.873.863-.27.205-2.108-.572-1.873Zm4.063-.666s.058 0 .063.035c.183.574.486 1.218 1.069 1.229-.657.16-1.052-.684-1.132-1.264Z"/>
  <path fill="#263238" d="M92.569 42.14c.897-.39 1.606 1.437.777 1.799-.829.362-1.514-1.471-.777-1.799Zm-5.378.851c.218-.155.428-.322.629-.5.244-.146.434-.367.543-.631a.427.427 0 0 0-.229-.454 1.012 1.012 0 0 0-1.006.241 1.494 1.494 0 0 0-.605.902.44.44 0 0 0 .188.444.432.432 0 0 0 .48-.002Zm5.784-2.028c-.275.046-.526.04-.8.063a1.32 1.32 0 0 1-.829-.092.414.414 0 0 1-.143-.482 1.038 1.038 0 0 1 .903-.523c.369-.05.743.038 1.052.247a.442.442 0 0 1-.183.787Z"/>
  <path fill="#263238" d="M90.283 47.558a2.064 2.064 0 0 0 1.594.42 2.59 2.59 0 0 0 .709-.213l.131-.063.115-.063a.162.162 0 0 0 .074-.167.173.173 0 0 0 0-.057v-.046c-.137-.448-.412-1.103-.412-1.103.19 0 1.144.109 1.04-.12a31.422 31.422 0 0 0-2.794-5.648c-.034-.058-.126 0-.103.051.674 1.827 1.663 3.522 2.366 5.35a3.622 3.622 0 0 0-1.011.04c-.058.04.571 1.258.571 1.464a2.847 2.847 0 0 1-2.229.075c-.091-.006-.12.046-.051.08Z"/>
  <path fill="#263238" d="M92.232 47.633a2.461 2.461 0 0 1-.675 1.04c-.174.148-.39.239-.617.258-.497.04-.651-.379-.691-.764a2.79 2.79 0 0 1 0-.626 3.146 3.146 0 0 0 1.983.092Z"/>
  <path fill="#FF9BBC" d="M91.557 48.673c-.174.148-.39.239-.617.258-.497.04-.651-.379-.691-.764a1.138 1.138 0 0 1 1.308.506Z"/>
  <path fill="#263238" d="M82.362 48.226c1.635-.678-.428-5.229-.428-5.229a3.969 3.969 0 0 0 1.619-1.502 3.998 3.998 0 0 0 .57-2.14s7.011-.574 8-3.32c.989-2.747-.949-6.257-1.812-6.211-.863.046-1.714 1.55-1.714 1.55s-.909-1.114-1.617-1.033c-1.092.12-1.263 1.58-1.715 2.056-1.234 1.247-5.486 2.626-6.406 3.85a2.44 2.44 0 0 0-.52 2.24 2.809 2.809 0 0 0-1.263 2.333c-.137 2.074 3.64 8.095 5.286 7.406Z"/>
  <path fill="#263238" d="M82.505 47.83c1.194-1.724.034-4.074-1.097-5.55 0 0 0-.047.04 0 1.143 1.35 2.503 4.02 1.143 5.63a.058.058 0 0 1-.102-.039.06.06 0 0 1 .016-.042Zm.475-8.728a16.18 16.18 0 0 0 4.828-.086 9.73 9.73 0 0 0 2.103-.701c.669-.31 1.858-.845 2.12-1.609a2.734 2.734 0 0 1-1.337 1.373 8.817 8.817 0 0 1-2.492 1.051 11.267 11.267 0 0 1-5.269.104c-.08-.012-.04-.138.046-.132Zm-3.435-3.906a20.678 20.678 0 0 1 2.417-1.212c1.017-.5 2.252-.989 3.057-1.804h.03a6.738 6.738 0 0 1-1.967 1.401c-.72.397-1.457.765-2.2 1.115-.846.402-1.777.862-2.286 1.724-.509.861-.337 1.723-.229 2.59a.075.075 0 0 1-.06.074.074.074 0 0 1-.082-.045 3.285 3.285 0 0 1-.007-2.153 3.266 3.266 0 0 1 1.327-1.69Zm-1.595 3.705c-1.794 1.31-.88 3.976.04 5.544a8.145 8.145 0 0 0 3.629 3.54c.074.028 0 .143-.057.114-1.863-.735-3.235-2.527-4.092-4.285-.64-1.328-1.36-4.126.48-4.913Z"/>
  <path fill="#EB9481" d="M83.088 47.214s-2.566-2.367-3.675-1.384c-1.109.982 1.246 4.71 2.858 4.935a1.54 1.54 0 0 0 1.622-.683c.113-.177.189-.374.223-.581l-1.028-2.287Z"/>
  <path fill="#263238" d="M80.116 46.88v.04c1.143.196 1.897 1.04 2.498 1.965a.847.847 0 0 0-1.01-.186.848.848 0 0 0-.282.232s0 .064.04.052a.933.933 0 0 1 1.092.098c.248.213.473.454.668.718.075.086.229 0 .172-.103-.28-1.362-1.726-3-3.178-2.816Zm10.556 11.015h-.029c.572 1.654 1.783 5.515-.811 5.98a5.542 5.542 0 0 1-3.12-.655 15.188 15.188 0 0 1-2.778-1.672c-1-.707-1.94-1.495-2.812-2.355-.04-.04-.086 0-.051.057.885.862 1.714 1.793 2.651 2.569a13.03 13.03 0 0 0 3.018 1.867 5.518 5.518 0 0 0 3.28.574c.482-.114.91-.394 1.207-.792.298-.398.447-.888.422-1.385a10.204 10.204 0 0 0-.977-4.188Zm51.879 178.279h92.946v-39.223h-92.946v39.223Z"/>
  <path fill="#37474F" d="M144.311 196.952s1.28-5.774 3.834-6.659c2.555-.885 4.115 1.723 4.115 1.723s.6-5.515 4.223-7.164c3.624-1.649 6.35 1.724 6.35 1.724s2.783-6.998 7.749-6.998c4.966 0 7.475 10.238 7.475 10.238s2.937-3.051 5.943-1.327c3.006 1.724 3.006 8.48 3.006 8.48l-42.695-.017Zm50.925-.001h38.489s-1.269-5.245-3.823-5.619c-2.555-.373-3.743 2.063-3.743 2.063s.114-7.314-4.652-8.561c-4.767-1.246-8.767 5.217-8.767 5.217s-2.994-3.683-7.069-3.447c-4.075.236-5.109 6.32-5.109 6.32s-3.692-2.109-5.326 4.027Z"/>
  <path fill="#455A64" d="M184.246 196.952h23.659s-.057-3.401-2.383-4.303a3.235 3.235 0 0 0-3.709.856s-.948-6.257-5.28-6.257c-4.332 0-6.412 5.401-6.412 5.401a3.335 3.335 0 0 0-3.372-1.328c-2.406.299-2.503 5.631-2.503 5.631Z"/>
  <path fill="#65BEDC" d="M161.021 236.065h77.716v-4.63h-77.716v4.63Zm0-5.746h77.716v-4.63h-77.716v4.63Zm0-5.751h77.716v-4.63h-77.716v4.63Zm0-5.745h77.716v-4.63h-77.716v4.63Zm0-5.75h77.716v-4.63h-77.716v4.63Zm0-5.745h77.716v-4.631h-77.716v4.631Zm0-5.752h77.716v-4.63h-77.716v4.63Z"/>
  <path fill="#65BEDC" d="M139.31 236.065h21.711v-4.63H139.31v4.63Z"/>
  <path fill="#020100" d="M139.31 236.065h21.711v-4.63H139.31v4.63Z" opacity=".2"/>
  <path fill="#65BEDC" d="M139.31 230.319h21.711v-4.63H139.31v4.63Z"/>
  <path fill="#020100" d="M139.31 230.319h21.711v-4.63H139.31v4.63Z" opacity=".2"/>
  <path fill="#65BEDC" d="M139.31 224.568h21.711v-4.63H139.31v4.63Z"/>
  <path fill="#020100" d="M139.31 224.568h21.711v-4.63H139.31v4.63Z" opacity=".2"/>
  <path fill="#65BEDC" d="M139.31 218.823h21.711v-4.63H139.31v4.63Z"/>
  <path fill="#020100" d="M139.31 218.823h21.711v-4.63H139.31v4.63Z" opacity=".2"/>
  <path fill="#65BEDC" d="M139.31 213.073h21.711v-4.63H139.31v4.63Z"/>
  <path fill="#020100" d="M139.31 213.073h21.711v-4.63H139.31v4.63Z" opacity=".2"/>
  <path fill="#65BEDC" d="M139.31 207.328h21.711v-4.631H139.31v4.631Z"/>
  <path fill="#020100" d="M139.31 207.328h21.711v-4.631H139.31v4.631Z" opacity=".2"/>
  <path fill="#65BEDC" d="M139.31 201.576h21.711v-4.63H139.31v4.63Z"/>
  <path fill="#020100" d="M139.31 201.576h21.711v-4.63H139.31v4.63Z" opacity=".2"/>
</svg>
