<svg xmlns="http://www.w3.org/2000/svg" width="256" height="240" fill="none" viewBox="0 0 256 240">
  <path fill="#EBEBEB" d="M256 33.339h-59.703s5.952-15.908 15.032-15.908 11.965 10.98 11.965 10.98 6.141-5.987 11.192-5.987c5.052 0 9.44 7.88 9.44 7.88s7.132-4.216 12.074 3.035Zm-20.375 117.434h-27.898s6.238-8.885 11.149-8.885c4.911 0 6.36 5.921 6.36 5.921s3.469-2.766 6.694-2.269c3.226.497 3.695 5.233 3.695 5.233ZM54.36 132.386H0s7.443-16.345 15.404-17.363c7.96-1.018 11.77 12.142 11.77 12.142s5.13-4.652 9.171-4.652c4.041 0 7.151 6.131 7.151 6.131s8.076-4.203 10.864 3.742Zm45.985 106.376H63.641s6.305-11.843 13.145-12.016c6.84-.174 10.438 8.981 10.438 8.981s10.638-8.419 13.121 3.035Zm83.074-218.877h-24.776s4.26-7.993 8.873-8.107c4.613-.114 7.041 6.047 7.041 6.047s7.182-5.682 8.862 2.06ZM51.208 112.796H26.432s4.26-7.993 8.873-8.107c4.613-.114 7.041 6.047 7.041 6.047s7.188-5.67 8.862 2.06Z"/>
  <path fill="#455A64" d="M217.201 125.259c.03 18.539-5.938 36.607-17.04 51.587-8.972 12.149-20.962 21.831-34.824 28.118a90.504 90.504 0 0 1-44.349 7.792c-15.217-1.178-29.872-6.177-42.564-14.52S55.429 178.485 48.5 165.105a86.578 86.578 0 0 1-9.653-43.291c.6-15.005 5.105-29.608 13.081-42.41 7.977-12.804 19.16-23.38 32.479-30.715a90.357 90.357 0 0 1 43.592-11.185c2.435 0 4.869.096 7.267.287a90.178 90.178 0 0 1 34.956 10.151 88.747 88.747 0 0 1 27.9 23.073 88.19 88.19 0 0 1 5.568 7.783c8.855 13.93 13.538 30.033 13.511 46.461Z"/>
  <g opacity=".1">
    <path fill="#000" d="M147.261 166.68c-1.126 2.951.748 3.071.876 4.298.128 1.228 0 3.593-3.652 7.131-3.651 3.539-9.615 2.826-10.869 4.305-1.254 1.479-3.372 7.742-6.366 9.831-2.994 2.09-3.499.856-7.747 1.719-4.248.862-7.498 6.268-8.746 8.849-1.248 2.58.25 6.885-2.751 7.005-3 .12-4.351-6.269-7.096-9.718-2.745-3.448-3.652-6.514-4.498-10.573-.846-4.059.5-12.537 0-15.854-.499-3.317-9.494-9.221-12.744-13.274-3.25-4.054-7.741-12.166-7.492-14.873a10.95 10.95 0 0 1 3.743-6.747c1.504-1.108.877-1.719 1.126-2.706.25-.988 1.504-1.228 1.753-2.455.25-1.228-.755-4.916-2.002-5.532-1.248-.617-2.124 1.472-2.873 1.107-.748-.365-3-2.952-3.87-3.197-.87-.246-.61 1.599-1.875-.736-1.266-2.336-1.874-8.233-2.873-9.221-.998-.988-1.752 1.724-4.126 0-2.373-1.724-3.371-5.035-4.37-5.526-.998-.491-2.373.12-3.402-1.844-1.028-1.964.901-5.532 0-5.161-.9.371-2.848 3.191-3.347.491-.499-2.701 2.502-11.801 2.002-16.717-.499-4.915 1.218-10.076 4.748-14.255 0 0 .498-2.707.998-4.425.499-1.718 11.24-8.604 12.494-10.574.517-.82.694-2.107.882-3.496 15.299-11.09 33.811-17.06 52.815-17.028 2.434 0 4.868.096 7.266.287l.25.33c1.083 1.347 2.251 2.209 5.416 3.359 3.165 1.15 3.913 2.622 3.25 3.85-.663 1.227-1.753 1.472-3 1.556-1.248.084-2.435-.599-3.749.246-1.315.844-2.666 5.244-4.413 5.49-1.746.245-4.832-3.934-5.477-5.161-.645-1.227 1.497-3.856.475-5.083-1.023-1.228-2.806-.982-5.642-1.198-2.836-.215-9.409.82-9.129 1.886.28 1.066 9.659-.167 9.908 1.964.25 2.131-6.907 5.736-8.161 5.389-1.254-.348-2.915-2.455-4.747-2.7-1.832-.246-3.335 1.197-4.486 1.394-1.15.198-2.507-1.233-4.26-.904-1.752.33-2.166 1.796-3.08 2.395-.912.599-3.085.599-3.334 1.88-.25 1.282 2.75 2.054 3.5 2.874.748.82-.92 3.593-.165 4.191.754.599 5.41-3.443 6.579-4.424 1.168-.982 2.166-5.245 4.662-5.167 2.495.077 3.335 4.263 4.168 4.67.834.407 2.666-.982 5.411-.407 2.745.574 4.662 6.472 5.161 8.274.499 1.802 1.667 3.592.669 4.347-.998.754-5.477-.491-6.086-1.64-.608-1.15 3.001-2.869 2.751-3.276-.249-.407-2.337-.988-3.414-.347-1.077.64-1.583 1.982-2.751 2.311-1.169.33-4.26-3.113-5.082-2.132-.821.982.834 4.096 1.668 4.838.834.743 3.913 1.144 4.163 1.964.249.82-2.082 2.623-4.912 2.46-2.83-.16-5.167-2.298-6.25-1.394-1.083.904-.499 3.275-1.248 4.095-.748.82-4.832.245-6.828 2.395-1.996 2.15-2.915 5.329-4.918 7.125-2.002 1.796-2.915-.491-5.58 2.053-2.666 2.545-3.08 8.191-3.165 10.179-.085 1.988 0 3.52-.663 3.275-.664-.246-1.583-1.964-1.826-3.03-.244-1.065.608-2.868.608-3.526 0-.659-3.834-4.012-6.086-4.341-2.251-.33-4.26 1.473-5.91 2.784-1.648 1.311-4.661 1.066-5.744 2.132-1.084 1.065-1.917 10.489-1.084 12.699.834 2.209 1.918 2.215 4.583 1.065 2.666-1.149 1.163-3.359 2.745-2.868a3.72 3.72 0 0 1 1.767 1.345 3.62 3.62 0 0 1 .667 2.098c0 1.311-3.164 4.425-2.75 5.329.413.904 3.164-.168 4.497.245 1.333.413 2.002 1.198 1.582 4.587-.42 3.388-.164 5.987 1.826 7.088 1.99 1.102 3.128-1.598 3.999-1.227.87.371 2.124 2.335 3.377 2.209 1.254-.125.609-1.227 2.995-1.963 2.385-.737 1.503-1.234 2.002-2.707.499-1.473 1.996-2.706 3.621-1.97 1.625.737.5 1.845.609 3.078.11 1.233 2.994 1.353 5.246 2.089 2.252.737 3.499.001 7.997 1.473 4.497 1.473 4.747 5.898 6.621 6.64 1.875.743 8.119-.497 12.616 2.701 4.498 3.197 3.25 9.094 5.478 10.819 2.227 1.724 10.62 4.053 13.87 4.67 3.25.616 3.749-1.599 6.372-.988 2.623.61 4.12 1.353 4.996 4.921.718 3.054-9.044 9.628-10.169 12.58Z"/>
    <path fill="#000" d="M80.133 103.831c.079.695 2.16.988 4.661 2.395 2.502 1.407 3.415 5.49 4.748 5.389 1.332-.102.918-1.964 1.418-2.455.499-.491 1.332-1.557 0-2.623-1.333-1.065-2.63-3.359-5.064-3.688-2.434-.329-2.848-1.311-3.931-1.197a1.894 1.894 0 0 0-1.431.671 1.836 1.836 0 0 0-.401 1.508Zm13.741 6.886c-.371 1.006 0 1.718 2.666 2.395 2.666.676 5.161-.659 4.327-1.198-.834-.539-2.081-.287-1.582-1.197.499-.91.328-2.215-1.826-1.97-2.154.245-3.256 1.066-3.585 1.97Zm9.323.281c-.907.126-1.412 1.683-.499 2.671.913.988.919.814 2.003 0 1.083-.815 2.744-1.198 2.33-2.048-.413-.85-2.915-.73-3.834-.623Zm7.25 3.346c.408-1.233 2.501 0 3.414 1.288.913 1.287.499 3.197 0 4.586-.499 1.389-.834 3.036-1.996 2.395s.079-2.623-.085-3.766c-.165-1.144-1.668-3.497-1.333-4.503Zm35.895-68.362c-.432 1.03 1.582 1.395 2.751 2.054 1.168.658 2.081 1.065 2.751 0 .669-1.066-.25-2.3-1.169-2.545-.919-.245-3.913-.461-4.333.49Zm15.738 9.591c.766.796 2.081.653 3 1.796.919 1.144.578 3.114 1.747 3.688 1.168.575 2.002 0 2.081-.82.079-.82-1.668-2.868-1.497-3.28.17-.414 2.434.598 2.915 1.795.481 1.198-.499 2.952.663 3.281 1.163.33.919-1.15 1.418-1.479.5-.329 1.583-.161 1.498-1.143-.086-.982-1.412-3.114-2.496-3.85-1.083-.736-1.917-1.557-3.749-1.97-1.831-.413-3.584-.078-4.497.659-.913.736-1.552.832-1.083 1.323Zm36.041 15.441a1.468 1.468 0 0 1-.468.862c-1.753 1.198-3.835-3.03-6.251-3.85-2.416-.82-3.493-3.85-3.998-3.197-.505.653-.335 1.557-1.083 2.623-.749 1.065-1.826.82-2.331 2.868-.506 2.047 2.331 5.82 1.667 7.047-.663 1.227-1.497.82-2.836.736-1.339-.084-1.077 1.066-2.824.599-1.746-.467-.255-2.623-3-5.161-2.745-2.539-3.652-3.03-3.08-4.191.572-1.162-.255-2.784.998-2.952 1.254-.168 2.246 1.64 3.08 2.131.834.491 1.917-.982 1.996-2.293.079-1.311-2.915-3.113-3.998-4.131-1.084-1.018-1.163-4.718-.749-5.46.414-.743 1.668-.491 2.002-2.294.195-1.06-1.509-2.826-2.951-4.107a89.015 89.015 0 0 1 23.826 20.77Zm12.439 73.459c.25-2.623-1.083-2.784.25-7.616s-1.418-9.999-2.434-11.065c-1.017-1.065-3.165-.736-4.912.33-1.746 1.066-.505 1.886-1.667 2.293-1.163.407-2.331-.246-3.415-.162-1.083.084-2.081 2.784-4.418 2.701-2.337-.084-3.828-3.359-5.575-5.694-1.746-2.335-5.331-3.808-6.5-6.676-1.168-2.868 1.084-7.293.609-10.652-.475-3.358-2.751-2.628-3.165-4.508-.413-1.88.335-.982.913-2.79.578-1.808-.663-2.784.505-5.897 1.169-3.114 3.244-4.67 2.745-6.06-.499-1.389-2.081-3.688-2.166-5.322-.086-1.635 1.582-1.563 4.747-3.856 3.164-2.293 3.998-2.138 6.432-1.311a34.64 34.64 0 0 0 5.332 1.472c1.418.246 3.335 3.85 3.913 3.689.578-.162.67-1.228.919-2.784a3.443 3.443 0 0 1 1.041-1.767c9.398 14.833 14.083 32.086 13.455 49.553-.628 17.467-6.54 34.353-16.979 48.495 8.472-12.753 10.121-29.751 10.37-32.373Z"/>
  </g>
  <path fill="#000" d="M197.106 180.749c-9.517 11.471-21.828 20.386-35.789 25.915a90.552 90.552 0 0 1-44.058 5.712c-14.94-1.783-29.18-7.255-41.391-15.909-12.212-8.653-22-20.205-28.454-33.581a86.529 86.529 0 0 1-8.453-42.919c.908-14.779 5.602-29.092 13.645-41.606 8.043-12.515 19.174-22.823 32.356-29.967A90.362 90.362 0 0 1 128 37.504a91.873 91.873 0 0 1 9.256.467 82.615 82.615 0 0 0-35.39 12.318C91.2 57.04 82.278 66.14 75.804 76.87a79.492 79.492 0 0 0-11.236 35.238 79.247 79.247 0 0 0 5.96 36.464c4.835 11.534 12.332 21.804 21.899 29.996 9.566 8.193 20.939 14.083 33.218 17.204a83.037 83.037 0 0 0 37.532.782 82.319 82.319 0 0 0 33.929-15.805Z" opacity=".1"/>
  <path fill="#fff" d="M217.201 125.259c.03 18.539-5.938 36.607-17.04 51.587-8.371 11.303-19.354 20.487-32.043 26.793 11.052-6.218 20.641-14.668 28.135-24.793 11.5-15.538 17.522-34.348 17.151-53.564-.372-19.217-7.116-37.787-19.208-52.884a89.797 89.797 0 0 0-23.96-20.902 90.198 90.198 0 0 0-39.261-12.513 92.11 92.11 0 0 0-7.303-.288 91.543 91.543 0 0 0-21.544 2.557 90.531 90.531 0 0 1 25.865-3.748c2.435 0 4.859.096 7.273.287a89.65 89.65 0 0 1 39.023 12.442 89.1 89.1 0 0 1 23.827 20.782c12.378 15.457 19.102 34.566 19.085 54.244Z" opacity=".3"/>
  <path fill="#263238" d="M86.152 92.33a21.568 21.568 0 0 0 12.318-3.24 25.67 25.67 0 0 0 3.603-2.718c-1.101 6.634-10.638 10.316-15.92 5.957Zm83.694 0a21.567 21.567 0 0 1-12.318-3.24 25.567 25.567 0 0 1-3.603-2.718c1.101 6.634 10.638 10.316 15.921 5.957Zm-.329 8.1c-.213 4.155-1.826 8.825-5.574 11.286-4.078 2.628-9.708 1.353-12.641-2.311a14.491 14.491 0 0 1-3.311-7.736 22.62 22.62 0 0 0 4.723 6.412c2.635 2.515 6.755 3.473 10.011 1.671 3.433-2 5.137-5.712 6.792-9.322Zm-61.51 1.24c-.469 4.155-2.843 8.556-6.878 10.513a9.555 9.555 0 0 1-6.858.52 9.39 9.39 0 0 1-5.387-4.208 16.599 16.599 0 0 1-2.403-8.053 29.312 29.312 0 0 0 3.986 6.94 8.227 8.227 0 0 0 4.378 2.991 8.35 8.35 0 0 0 5.323-.279c3.651-1.563 5.952-4.892 7.839-8.412v-.012Zm36.545 18.513c-7.303-5.527-16.542-9.412-25.287-4.892a42.601 42.601 0 0 0-7.821 5.179 21.782 21.782 0 0 1 6.695-7.059c8.989-6.143 20.911-1.736 26.401 6.796l.012-.024Z"/>
</svg>
