<svg xmlns="http://www.w3.org/2000/svg" width="236" height="240" fill="none" viewBox="0 0 236 240">
  <path fill="#EBEBEB" d="M209.888 166.025h14.983v-6.339h-14.983v6.339Zm8.363 7.995 7.553-.159 3.723-.062c1.239-.028 2.473 0 3.706-.034l-.254.255v-6.34l.283.283-7.492-.034c-2.495 0-4.996-.068-7.491-.096l.153-.153c0 1.037-.046 2.079-.074 3.133l-.107 3.207Zm0 0-.102-3.111c-.029-1.053-.068-2.124-.074-3.201v-.198h.159c2.495-.034 4.996-.09 7.491-.096l7.491-.034h.283v.283l-.034 6.34v.255h-.249c-1.261 0-2.529 0-3.791-.029l-3.768-.062-7.406-.147Zm-110.357-62.27 7.56-.159 3.717-.062c1.239-.028 2.473 0 3.706-.028l-.254.249-.029-6.34.283.284-7.491-.034c-2.495 0-4.996-.063-7.492-.097l.153-.153c0 1.037-.045 2.08-.073 3.139l-.08 3.201Zm0 0-.079-3.161c-.028-1.054-.062-2.125-.073-3.201v-.153h.158c2.495-.029 4.996-.091 7.491-.097l7.492-.034h.283v.284l-.029 6.339v.261h-.249c-1.261 0-2.529 0-3.785-.034l-3.774-.062-7.435-.142Zm8.358 7.994h14.982v-6.34h-14.982v6.34Zm-16.844 0 7.559-.159 3.723-.062c1.239-.028 2.467 0 3.7-.028l-.249.249-.034-6.34.283.284-7.491-.034c-2.495 0-4.99-.063-7.491-.097l.158-.153c0 1.037-.05 2.08-.073 3.139l-.085 3.201Zm0 0-.08-3.139c0-1.053-.062-2.124-.073-3.201v-.153h.153c2.501 0 4.996-.09 7.491-.096l7.491-.034h.289v.283l-.028 6.34v.255h-.255c-1.262 0-2.529 0-3.785-.034l-3.769-.062-7.434-.159Zm31.555-80.297h14.982v-6.34h-14.982v6.34ZM2.767 174.02l7.56-.159 3.722-.062c1.234-.028 2.467 0 3.7-.034l-.248.255-.034-6.34.283.283-7.492-.034c-2.495 0-4.996-.068-7.491-.096l.153-.153c0 1.037-.045 2.079-.074 3.133l-.079 3.207Zm0 0-.08-3.111c-.027-1.053-.061-2.124-.073-3.201v-.198h.153c2.495-.034 4.996-.09 7.491-.096l7.492-.034h.283v6.878h-.255c-1.262 0-2.53 0-3.785-.029l-3.769-.062-7.457-.147Zm8.357-160.498 7.56-.158 3.722-.063c1.24-.028 2.467 0 3.7-.034l-.248.255-.034-6.345.283.283-7.492-.034c-2.495 0-4.99-.068-7.49-.096l.158-.153c0 1.037-.051 2.08-.08 3.139l-.079 3.206Zm0 0-.062-3.138c0-1.054-.062-2.125-.074-3.201V7.03h.153c2.5-.029 4.996-.09 7.491-.097l7.492-.034h.288v.278l-.073 6.345v.255h-.255c-1.262 0-2.529 0-3.785-.034l-3.768-.062-7.407-.159Zm-8.357 7.994H17.75v-6.34H2.767v6.34Zm215.484-7.994 7.553-.158 3.723-.063c1.239-.028 2.473 0 3.706-.034l-.254.255v-6.34l.283.284-7.492-.034c-2.495 0-4.996-.068-7.491-.096l.153-.153c0 1.036-.046 2.079-.074 3.138l-.107 3.201Zm0 0-.102-3.138c-.029-1.054-.068-2.125-.074-3.201V7.03h.159c2.495-.029 4.996-.09 7.491-.097l7.491-.034h.283v.278l-.017 6.345v.255h-.249c-1.261 0-2.529 0-3.791-.034l-3.768-.062-7.423-.159ZM72.322 194.574h-40.71v45.137h40.71v-45.137Z"/>
  <path fill="#DBDBDB" d="M10.598 239.717h21.02v-45.143h-21.02v45.143Z"/>
  <path fill="#EBEBEB" d="M12.04 236.629c1.562-3.21 3.105-6.421 4.629-9.631l4.577-9.762 4.527-9.75a601.889 601.889 0 0 0 4.436-9.801 905.961 905.961 0 0 0-4.629 9.659l-4.56 9.711-4.526 9.75a772.772 772.772 0 0 0-4.454 9.824Z"/>
  <path fill="#EBEBEB" d="M12.04 197.685a967.31 967.31 0 0 0 4.437 9.801l4.526 9.75 4.56 9.711c1.528 3.229 3.07 6.44 4.629 9.631a1057.16 1057.16 0 0 0-4.436-9.801l-4.527-9.75-4.56-9.711c-1.528-3.211-3.07-6.421-4.629-9.631Zm60.282-71.284h-40.71v42.027h40.71v-42.027Z"/>
  <path fill="#DBDBDB" d="M10.598 168.434h21.02v-42.033h-21.02v42.033Zm37.915-32.277h1.51l.368-.753.52.753.702-1.546.668 1.546h2.772l.317-1.031.295 1.031h.565v-9.756h-7.717v9.756Z"/>
  <path fill="#EBEBEB" d="M12.04 165.754a671.704 671.704 0 0 0 4.629-9.008l4.56-9.065 4.527-9.065a472.877 472.877 0 0 0 4.436-9.127 852.705 852.705 0 0 0-4.629 8.997l-4.56 9.037-4.526 9.064a1271.714 1271.714 0 0 0-4.437 9.167Z"/>
  <path fill="#EBEBEB" d="M12.04 129.512a877.15 877.15 0 0 0 4.437 9.104l4.526 9.065 4.56 9.065c1.528 3.021 3.07 6.02 4.629 8.997a970.485 970.485 0 0 0-4.436-9.128l-4.527-9.064-4.56-9.037a960.815 960.815 0 0 0-4.629-9.002Z"/>
  <path fill="#fff" d="M34.294 165.821h4.52v-4.526h-4.52v4.526Z"/>
  <path fill="#DBDBDB" d="M69.612 168.434h-40.71v26.14h40.71v-26.14Z"/>
  <path fill="#C7C7C7" d="M7.882 194.574h21.02v-26.14H7.882v26.14Z"/>
  <path fill="#fff" d="M45.803 178.19h1.51l.368-.754.52.754.702-1.547.668 1.547h2.772l.312-1.032.3 1.032h.565v-9.756h-7.717v9.756Z"/>
  <path fill="#DBDBDB" d="M9.33 193.005c1.558-1.889 3.1-3.794 4.628-5.717l4.56-5.745 4.527-5.773a738.597 738.597 0 0 0 4.43-5.801 462.83 462.83 0 0 0-4.628 5.716l-4.56 5.751-4.527 5.767c-1.49 1.938-2.966 3.872-4.43 5.802Z"/>
  <path fill="#DBDBDB" d="M9.33 169.985a642.913 642.913 0 0 0 4.436 5.802l4.527 5.773 4.56 5.745a292.013 292.013 0 0 0 4.617 5.699 492.704 492.704 0 0 0-4.43-5.801l-4.527-5.768-4.56-5.75a845.718 845.718 0 0 0-4.623-5.7Zm218.788 30.244h-40.71v39.488h40.71v-39.488Z"/>
  <path fill="#C7C7C7" d="M166.394 239.717h21.02v-39.489h-21.02v39.489Z"/>
  <path fill="#fff" d="M204.309 209.984h1.511l.368-.753.52.753.702-1.546.667 1.546h2.773l.317-1.036.294 1.036h.566v-9.755h-7.718v9.755Z"/>
  <path fill="#DBDBDB" d="M167.837 237.365a848.14 848.14 0 0 0 4.628-8.634l4.561-8.68 4.526-8.713a495.818 495.818 0 0 0 4.43-8.759 1074.024 1074.024 0 0 0-4.628 8.634l-4.56 8.674-4.498 8.719c-1.494 2.912-2.98 5.832-4.459 8.759Z"/>
  <path fill="#DBDBDB" d="M167.837 202.579a1177.21 1177.21 0 0 0 4.436 8.759l4.498 8.713 4.561 8.68a848.14 848.14 0 0 0 4.628 8.634 815.584 815.584 0 0 0-4.43-8.759l-4.527-8.719-4.56-8.674a637.67 637.67 0 0 0-4.606-8.634Z"/>
  <path fill="#EBEBEB" d="M157.335 4.91v96.37h66.234V4.91h-66.234Zm63.79 93.894H159.78V7.33h61.345v91.475Z"/>
  <path fill="#fff" d="M221.125 7.33h-61.346v91.474h61.346V7.33Z"/>
  <path fill="#EBEBEB" d="M159.78 57.124h61.345v-2.448H159.78v2.448Z"/>
  <path fill="#DBDBDB" d="M152.831 108.271h75.236v-7.025h-75.236v7.025Z"/>
  <path fill="#EBEBEB" d="m154.829 111.082 71.247 1.495v-4.306h-71.247v2.811Z"/>
  <path fill="#DBDBDB" d="M159.779 7.33h61.346v62.846h-61.346V7.33Zm59.082 2.265h-56.818V67.91h56.818V9.595Z"/>
  <path fill="#DBDBDB" d="M201.548 7.33h-1.222v60.58h1.222V7.33Zm-20.969 0h-1.223v60.58h1.223V7.33Z"/>
  <path fill="#EBEBEB" d="M12.431 4.91v96.37h66.234V4.91H12.431Zm63.79 93.894H14.875V7.33h61.346v91.475Z"/>
  <path fill="#fff" d="M76.22 7.33H14.875v91.474H76.22V7.33Z"/>
  <path fill="#EBEBEB" d="M14.875 57.124h61.346v-2.448H14.875v2.448Z"/>
  <path fill="#DBDBDB" d="M7.927 108.271h75.236v-7.025H7.927v7.025Z"/>
  <path fill="#EBEBEB" d="m9.924 111.082 71.247 1.495v-4.306H9.924v2.811Z"/>
  <path fill="#DBDBDB" d="M14.875 7.33H76.22v62.846H14.875V7.33Zm59.082 2.265H17.138V67.91h56.82V9.595Z"/>
  <path fill="#DBDBDB" d="M56.644 7.33H55.42v60.58h1.223V7.33Zm-20.97 0h-1.222v60.58h1.222V7.33Z"/>
  <path fill="#65BEDC" d="M168.194 193.033h-56.401v46.661h56.401v-46.661Z"/>
  <path fill="#000" d="M168.194 193.033h-56.401v46.661h56.401v-46.661Z" opacity=".1"/>
  <path fill="#65BEDC" d="M190.543 193.039h-22.35V239.7h22.35v-46.661Z"/>
  <path fill="#000" d="M190.543 193.039h-22.35V239.7h22.35v-46.661Z" opacity=".2"/>
  <path fill="#65BEDC" d="M188.998 236.482a1249.183 1249.183 0 0 1-4.917-9.983l-4.849-10.039-4.786-10.079a1217.359 1217.359 0 0 1-4.714-10.13c1.66 3.32 3.301 6.647 4.923 9.983l4.843 10.039 4.787 10.079a870.826 870.826 0 0 1 4.713 10.13Z"/>
  <path fill="#65BEDC" d="M188.998 196.251a835.387 835.387 0 0 1-4.713 10.13l-4.787 10.079-4.843 10.039a1231.315 1231.315 0 0 1-4.923 9.983c1.558-3.4 3.129-6.776 4.714-10.13l4.786-10.079 4.849-10.034c1.626-3.342 3.265-6.672 4.917-9.988Z"/>
  <path fill="#fff" d="M143.982 203.118h-1.562l-.379-.776-.537.776-.73-1.598-.685 1.598h-2.869l-.328-1.065-.305 1.065h-.583v-10.079h7.978v10.079Z"/>
  <path fill="#65BEDC" d="M171.594 146.378h-42.08v46.655h42.08v-46.655Zm21.727 0h-21.727v46.661h21.727v-46.661Z"/>
  <path fill="#000" d="M193.321 146.378h-21.727v46.661h21.727v-46.661Z" opacity=".1"/>
  <g opacity=".1">
    <path fill="#000" d="M168.51 189.821c-3.089-3.32-6.152-6.648-9.189-9.983l-9.07-10.062-8.934-10.079a994.514 994.514 0 0 1-8.804-10.13c3.093 3.32 6.156 6.65 9.189 9.989l9.053 10.033 8.934 10.079c2.976 3.381 5.917 6.765 8.821 10.153Z"/>
    <path fill="#000" d="M168.51 149.59a863.655 863.655 0 0 1-8.804 10.13l-8.934 10.056-9.053 10.039a803.47 803.47 0 0 1-9.189 9.983 873.134 873.134 0 0 1 8.804-10.13l8.917-10.056 9.053-10.034c3.045-3.343 6.113-6.672 9.206-9.988Z"/>
  </g>
  <path fill="#fff" d="M190.265 185.141h-3.807v5.382h3.807v-5.382Z"/>
  <path fill="#263238" d="m0 239.717 29.501-.142 29.502-.045 58.997-.096 58.997.096 29.502.045 29.501.142-29.501.136-29.502.051L118 240l-58.997-.096-29.502-.051L0 239.717ZM140.474 79.015a41.09 41.09 0 0 0-.95-.595l.221-.368.961.606-.232.357Zm-13.817 56.769h-.407v-.425a19 19 0 0 0 2.263-.085l.045.425c-.617.045-1.262.085-1.901.085Zm4.198-.465-.09-.414a15.099 15.099 0 0 0 2.161-.662l.153.396c-.724.278-1.467.501-2.224.669v.011Zm4.317-1.7-.209-.368c.65-.38 1.269-.812 1.85-1.292l.272.323c-.599.501-1.239.95-1.913 1.343v-.006Zm3.582-2.946-.311-.289c.507-.558.975-1.153 1.397-1.779l.351.238a16.089 16.089 0 0 1-1.437 1.842v-.012Zm2.591-3.847-.384-.181c.322-.682.585-1.391.786-2.119l.407.114a13.371 13.371 0 0 1-.809 2.192v-.006Zm1.223-4.487-.425-.034c0-.306.04-.617.04-.917a11.477 11.477 0 0 0-.074-1.258c-.44-.03-.878-.085-1.312-.164l.073-.42c.691.125 1.391.19 2.094.193h.147v.425h-.577c.045.41.068.822.067 1.235.006.306-.011.629-.033.946v-.006Zm2.868-2.458-.096-.414a9.408 9.408 0 0 0 2.099-.771l.193.38a9.903 9.903 0 0 1-2.196.81v-.005Zm-6.891-.527a14.682 14.682 0 0 1-2.122-.963l.209-.369c.659.365 1.346.675 2.054.929l-.141.403Zm3.044-1.496a10.13 10.13 0 0 0-.974-2.023l.357-.226c.419.661.761 1.368 1.018 2.107l-.401.142Zm7.989-.091-.272-.323a11.503 11.503 0 0 0 1.568-1.614l.328.266a11.68 11.68 0 0 1-1.624 1.688v-.017Zm-15.073-.68-.119-.113a5.126 5.126 0 0 1-1.307-1.784l.396-.159a4.683 4.683 0 0 0 1.199 1.632l.114.102-.283.322Zm18.009-2.895-.362-.221c.396-.657.764-1.331 1.087-1.994l.384.187c-.328.674-.701 1.36-1.109 2.028Zm-13.307-.085a10.08 10.08 0 0 0-1.698-1.325l-.085-.057.221-.363.09.057c.631.399 1.217.864 1.749 1.388l-.277.3Zm-5.619-1.093-.351-.238a2.591 2.591 0 0 1 2.139-1.088v.425a2.206 2.206 0 0 0-1.788.901Zm20.935-2.986-.396-.147c.262-.711.487-1.435.673-2.17l.408.102a19.657 19.657 0 0 1-.679 2.215h-.006Zm1.132-4.492-.425-.057c.101-.752.16-1.508.176-2.266h.424a21 21 0 0 1-.175 2.323Zm-.328-4.59a21.916 21.916 0 0 0-.323-2.266l.419-.085c.148.76.257 1.525.328 2.295l-.424.056Zm-.877-4.453a23.285 23.285 0 0 0-.764-2.147l.396-.158c.294.72.566 1.456.775 2.18l-.407.125Zm-1.698-4.22a26.012 26.012 0 0 0-1.131-1.989l.362-.22a27.5 27.5 0 0 1 1.131 2.016l-.362.193Zm-2.382-3.887a31.981 31.981 0 0 0-1.392-1.807l.328-.272c.493.595.968 1.212 1.409 1.83l-.345.25Zm-2.897-3.524a29.09 29.09 0 0 0-1.612-1.614l.288-.312a27.75 27.75 0 0 1 1.63 1.637l-.306.29Zm-3.321-3.133a37.293 37.293 0 0 0-1.788-1.41l.249-.34a33.37 33.37 0 0 1 1.81 1.427l-.271.323Zm-20.273 53.85a10.563 10.563 0 0 1-1.132-.203l.102-.414s.407.102 1.086.198l-.056.419Z"/>
  <path fill="#263238" d="M118.17 134.735c-.266 2.266 4.357 3.535 4.708.566.351-2.968-4.442-2.849-4.708-.566Z"/>
  <path fill="#EBEBEB" d="M124.224 138.485c-.43.856-1.952.975-3.525-.124a10.56 10.56 0 0 1-2.659-2.986 10.445 10.445 0 0 1 3.96.346c1.862.628 2.677 1.897 2.224 2.764Z"/>
  <path fill="#263238" d="M118.057 135.375c.894.402 1.771.838 2.648 1.269.877.431 1.742.89 2.597 1.365-.894-.402-1.771-.838-2.648-1.269a55.81 55.81 0 0 1-2.597-1.365Z"/>
  <path fill="#263238" d="M122.165 138.469a7.649 7.649 0 0 1-.566-.742 7.58 7.58 0 0 1-.464-.799c.203.236.392.483.566.742.172.256.327.523.464.799Zm-1.902-1.989a8.94 8.94 0 0 1 .945-.193c.321-.045.644-.074.968-.085a9.735 9.735 0 0 1-1.913.278Zm-.492.375a2.128 2.128 0 0 1-.408-.828c.195.243.334.525.408.828Z"/>
  <path fill="#EBEBEB" d="M124.97 132.554c-.22-.935-1.669-1.4-3.451-.697a10.56 10.56 0 0 0-3.282 2.294c1.272.441 2.617.634 3.961.567 1.907-.159 2.999-1.201 2.772-2.164Z"/>
  <path fill="#263238" d="M118.237 134.152c.962-.181 1.918-.408 2.869-.629a57.674 57.674 0 0 0 2.829-.725c-.956.181-1.912.408-2.863.629a63.32 63.32 0 0 0-2.835.725Z"/>
  <path fill="#263238" d="M122.951 132.089a7.87 7.87 0 0 0-.708.566 8.97 8.97 0 0 0-.639.669c.249-.172.485-.361.707-.567.226-.21.44-.433.64-.668Zm-2.32 1.496a9.154 9.154 0 0 0 1.799.708 8.808 8.808 0 0 0-1.799-.708Zm-.366-.476a1.978 1.978 0 0 0-.59.709c.124-.095.236-.203.335-.323a1.69 1.69 0 0 0 .255-.386Z"/>
  <path fill="#455A64" d="M118.17 134.735a.824.824 0 0 1 .698.595.823.823 0 0 1-.279.874.82.82 0 0 1-.914.077.824.824 0 0 1-.114-1.369.83.83 0 0 1 .609-.177Zm.193-1.648a.814.814 0 0 1 .554.309.85.85 0 0 1 .173.611.833.833 0 0 1-.92.728.83.83 0 0 1 .193-1.648Z"/>
  <path fill="#D3766A" d="M67.077 188.082s-12.063 24.186-12.068 24.186c-.996 4.991-1.777 9.393-1.975 11.705a.093.093 0 0 0 0 .04 3.526 3.526 0 0 0 .062 1.614.09.09 0 0 0 0 .04c1.285 1.303 40.925 10.441 42.436 10.294 1.51-.147 1.188-4.413-.068-5.994-1.256-1.581-14.875-11.898-14.875-11.898l11.791-24.225-25.303-5.762Z"/>
  <path fill="#EBEBEB" d="M94.933 235.984c-1.489.147-40.535-8.997-41.814-10.294a.149.149 0 0 1 0-.04 3.506 3.506 0 0 1-.068-1.615.055.055 0 0 1 0-.039c.193-2.312.98-6.714 1.97-11.711l2.885-5.79 25.014 6.867-2.308 4.747s13.014 10.295 14.275 11.898c1.262 1.603 1.54 5.835.046 5.977Z"/>
  <path fill="#263238" d="M95.475 235.349c-1.51.114-41.247-10.027-42.515-11.376-.486-.504.651-6.391 2.23-13.461l.05-.221 25.711 6.26-.119.431s13.472 10.696 14.711 12.328c1.24 1.632 1.438 5.932-.068 6.039Z"/>
  <path fill="#fff" d="M95.413 233.69c-6.654-1.87-33.677-8.805-40.399-10.153-.056 0-.068.028 0 .045 6.558 2 33.638 8.714 40.388 10.198.13.051.153-.051.011-.09Zm-12.447-16.079c-2.513-1.167-5.84-1.586-8.33-.215-.095.051 0 .187.069.181a38.26 38.26 0 0 1 8.164.363.177.177 0 0 0 .18-.126.176.176 0 0 0-.084-.203Zm1.606 1.632c-2.506-1.162-5.833-1.581-8.328-.216-.097.051 0 .187.073.187a37.874 37.874 0 0 1 8.165.363.179.179 0 0 0 .117-.03.175.175 0 0 0-.026-.304Zm1.613 1.637c-2.513-1.167-5.84-1.587-8.33-.221-.095.056 0 .192.074.187a38.22 38.22 0 0 1 8.16.362.175.175 0 0 0 .173-.241.174.174 0 0 0-.077-.087Z"/>
  <path fill="#65BEDC" d="M96.443 234.08c.64.454-.124 2.805-.685 2.867-.56.062-43.839-11.189-44.523-11.546-.685-.357.254-2.929 1.131-2.833.877.096 44.077 11.512 44.077 11.512Z"/>
  <path fill="#fff" d="M60.666 216.421c-2.512-2.175-5.895 1.734-3.394 3.915 2.5 2.181 5.912-1.733 3.394-3.915Z"/>
  <path fill="#455A64" d="m57.979 204.563 28.992 7.32s27.023-48.831 26.418-61.244c-.832-17.121-20.907-69.765-20.907-69.765H68.447s15.95 56.91 16.17 66.485c.097 5.008-26.638 57.204-26.638 57.204Z"/>
  <path fill="#263238" d="M88.21 205.991c-1.544-.618-15.344-4.606-25.642-6.799a.057.057 0 0 0-.028.021.057.057 0 0 0-.011.033c0 .012.004.024.01.033a.06.06 0 0 0 .029.021c3.242 1.133 23.702 6.532 25.62 6.799.045.017.09-.063.022-.108Zm-1.6-70.859a823.807 823.807 0 0 0-6.111-24.004c-2.15-7.96-4.453-15.994-6.983-23.892-.305-.969-.628-1.926-.939-2.89a.121.121 0 1 0-.232.069c2.263 7.87 4.527 15.722 6.671 23.619a862.31 862.31 0 0 1 6.11 23.795c.482 1.972.951 3.938 1.41 5.915a52.959 52.959 0 0 1 1.233 6.158 15.973 15.973 0 0 1-.401 5.927 33.338 33.338 0 0 1-2.134 5.518 59185.16 59185.16 0 0 0-10.394 22.611c-3.462 7.557-4.023 9.28-7.355 16.9-.413.946-.826 1.892-1.222 2.833 0 .062.062.119.096.051 3.79-7.468 4.374-9.263 7.921-16.867 3.548-7.603 7.073-15.296 10.592-22.95 1.585-3.456 3.446-6.98 3.684-10.844.237-4.034-1.03-8.079-1.947-11.949Z"/>
  <path fill="#D3766A" d="m87.922 197.645.928 26.628c.153 5.099.373 9.558.707 11.852a3.572 3.572 0 0 0 .419 1.598l.034.034c1.544.98 42.221.957 43.641.476 1.42-.482.164-4.561-1.415-5.824-1.578-1.264-17.161-8.227-17.161-8.227l-1.182-26.599-25.971.062Z"/>
  <path fill="#EBEBEB" d="m88.657 218.823.193 5.467c.152 5.099.373 9.558.707 11.853a.092.092 0 0 0 0 .039c.077.534.218 1.058.419 1.558l.034.034c1.544.98 42.22.958 43.641.476 1.42-.481.164-4.56-1.415-5.824-1.579-1.263-17.161-8.226-17.161-8.226l-.119-5.547-26.299.17Z"/>
  <path fill="#263238" d="M133.673 238.205c-1.437.459-42.436-.176-43.986-1.196-.566-.379-.849-6.362-.95-13.597v-.226l26.457.113v.453s15.588 7.269 17.166 8.566c1.579 1.298 2.756 5.445 1.313 5.887Z"/>
  <path fill="#fff" d="M133.238 236.629c-6.909-.277-34.803-.742-41.655-.487-.057 0-.057.04 0 .04 6.84.425 34.741.668 41.655.566.141-.034.147-.119 0-.119ZM117.4 223.854c-2.71-.566-6.048-.187-8.153 1.7-.085.074 0 .187.113.164a38.584 38.584 0 0 1 8.023-1.546.175.175 0 0 0 .083-.058.175.175 0 0 0 .035-.095.17.17 0 0 0-.101-.165Zm1.947 1.213c-2.716-.567-6.049-.182-8.154 1.728-.085.073 0 .187.108.158a38.283 38.283 0 0 1 8.029-1.541.174.174 0 0 0 .153-.165.175.175 0 0 0-.136-.18Zm1.941 1.218c-2.71-.567-6.043-.187-8.153 1.7-.08.073 0 .187.113.164a38.638 38.638 0 0 1 8.023-1.547.17.17 0 0 0 .017-.317Z"/>
  <path fill="#65BEDC" d="M134.324 236.743c.73.295.532 2.759 0 2.946-.532.187-45.265-.703-45.995-.884-.73-.181-.435-2.906.453-3.037.888-.13 45.542.975 45.542.975Z"/>
  <path fill="#fff" d="M95.436 227.876c-2.948-1.535-5.336 3.054-2.383 4.589 2.954 1.536 5.336-3.053 2.383-4.589Z"/>
  <path fill="#455A64" d="M92.182 80.83c-.108.492-6.1 24.214-6.846 24.656-.849.504 21.772 30.978 24.454 45.941 1.698 9.569 5.658 65.346 5.658 65.346H86.603s-2.829-47.369-3.768-62.978c-.368-6.056-23.057-34.055-25.213-52.723-.679-5.88 3.542-20.265 3.542-20.265l31.018.022Z"/>
  <path fill="#263238" d="M85.873 194.235c-.34-7.847-.65-15.711-1.222-23.546-.322-4.442-.956-8.742-1.397-13.167 0-.232-.21-.288-.204-.051.204 7.881.854 15.677 1.273 23.552.419 7.875.82 9.711 1.267 17.563.25 4.442.47 8.883.815 13.32a.063.063 0 0 0 .02.028c.01.007.022.01.034.01a.056.056 0 0 0 .033-.01.057.057 0 0 0 .02-.028c.018-7.887-.293-9.796-.639-17.671Zm23.946-42.435a42.094 42.094 0 0 0-1.199-6.135 31.437 31.437 0 0 0-2.337-5.637c-1.964-3.774-4.199-7.422-6.354-11.088a534.053 534.053 0 0 0-6.677-11.07 1514.535 1514.535 0 0 0-3.853-6.159c-1.313-2.068-2.699-4.096-4.051-6.135a.075.075 0 0 0-.105-.026.077.077 0 0 0-.025.105c2.206 3.705 4.39 7.416 6.597 11.121 2.207 3.706 4.38 7.422 6.552 11.139 2.173 3.716 4.283 7.32 6.332 11.036a38.968 38.968 0 0 1 2.597 5.507 33.961 33.961 0 0 1 1.454 6.056c.769 4.799 1.397 9.632 2.359 14.385a.058.058 0 0 0 .054.039.058.058 0 0 0 .054-.039c-.3-4.374-.821-8.753-1.398-13.099Zm3.089 60.02c-1.646-.215-14.213-.651-24.726-.198-.068 0-.062.102 0 .108 3.423.3 22.78.436 24.709.209.051-.005.074-.107.017-.119Z"/>
  <path fill="#263238" d="M89.099 103.865a53.677 53.677 0 0 0-8.488 3.966.095.095 0 0 0-.05.054.095.095 0 0 0 .002.073.097.097 0 0 0 .127.049c2.864-1.236 5.789-2.414 8.584-3.802a.192.192 0 0 0-.175-.34Zm.865-19.637c0-.096-.181-.119-.181 0 0 3.202-.16 6.401-.481 9.586-.136 1.48-1.324 9.632-3.882 9.065-.43-.102-.645-.521-.712-1.173.007-.845.12-1.687.34-2.504.282-1.7.508-3.399.655-5.15.3-3.216.266-6.455-.101-9.665a.084.084 0 0 0-.082-.063.084.084 0 0 0-.082.063 89.03 89.03 0 0 1-.781 13.337c-.323 2.124-1.392 5.325.831 5.665 2.224.34 3.724-5.025 3.995-6.492a49.04 49.04 0 0 0 .481-12.669Z"/>
  <path fill="#263238" d="M85.489 103.054a13.243 13.243 0 0 0-.566 1.7 3.896 3.896 0 0 0-.238 1.388.095.095 0 0 0 .074.08.093.093 0 0 0 .102-.041c.267-.417.468-.874.594-1.354.198-.526.402-1.042.566-1.575a.284.284 0 0 0-.532-.198Zm1.205 58.355c-.272-4.034-.255-8.289-1.969-12.028a40.16 40.16 0 0 0-3.135-5.235 386.139 386.139 0 0 1-3.462-5.399c-4.527-7.235-8.895-14.617-12.873-22.181-1.918-3.643-3.683-7.405-4.645-11.427a36.59 36.59 0 0 1-.526-12.895c.136-1.07.283-2.136.458-3.2a.062.062 0 0 0-.119-.029 42.265 42.265 0 0 0-.945 12.464 34.802 34.802 0 0 0 3.322 11.495c1.754 3.802 3.842 7.462 5.901 11.105a342.814 342.814 0 0 0 6.558 11.166c2.263 3.66 4.594 7.247 6.931 10.85a20.643 20.643 0 0 1 2.756 5.546 30.3 30.3 0 0 1 .882 6.3c.566 8.918 2.83 38.565 3.633 47.437.096 1.134.198 2.267.305 3.4a.08.08 0 0 0 .014.069.079.079 0 0 0 .063.031.085.085 0 0 0 .035-.008.083.083 0 0 0 .028-.023.078.078 0 0 0 .013-.069c-.34-8.906-2.642-38.48-3.225-47.369Z"/>
  <path fill="#263238" d="M72.849 88.647c0-.062-.102-.04-.102 0-.085 2.476 0 5.037-.968 7.365-.871 2.147-2.625 3.654-4.588 4.782a35.199 35.199 0 0 1-3.525 1.728c-.085.04-.051.176.045.147 2.263-.725 4.6-1.512 6.495-3.03 2.026-1.632 2.914-3.995 3.01-6.544a21.141 21.141 0 0 0-.367-4.448Z"/>
  <path fill="#D3766A" d="M85.404 48.292c3.236 9.948 11.978 26.894 15.101 28.939 2.767 1.807 15.787-.21 21.501-1.586 2.128-.516-2.659-16.753-4.928-16.158-2.721.713-10.83 2.543-11.418 2.09-.588-.453-8.764-10.538-14.558-16.475-5.274-5.377-6.92-.572-5.698 3.19Z"/>
  <path fill="#D3766A" d="M120.756 75.77c1.092-.136 10.331-.566 14.569-2.872 2.264-1.23 8.041-5.298 7.463-6.76-.526-1.33-2.382-.606-2.382-.606s2.552-1.852 1.805-3.699c-.747-1.847-3.83-.459-3.83-.459s2.484-2.096 1.607-3.88c-.877-1.785-3.74.124-3.74.124s2.359-1.807 1.018-2.974c-1.618-1.406-5.596 2.424-8.283 3.32-.611.203-12.652 3.251-12.652 3.251l4.425 14.555Z"/>
  <path fill="#263238" d="M136.146 57.567c-2.931 2.804-4.702 3.524-8.617 4.317-.074 0-.068.136 0 .124 3.904-.425 6.252-1.008 8.747-4.305.136-.165.006-.272-.13-.136Zm2.139 3.739c-3.299 2.651-5.211 3.444-9.251 4.578-.057 0-.034.118.028.107 4.051-.782 6.383-1.416 9.33-4.498.136-.136.046-.306-.107-.187Zm1.923 4.272c-3.395 2.334-5.437 3.303-9.5 3.897a.075.075 0 0 0-.052.022.077.077 0 0 0-.021.052c0 .02.008.038.021.052a.075.075 0 0 0 .052.022c4.204-.204 6.79-1.388 9.546-3.932.203-.159.164-.255-.046-.113Z"/>
  <path fill="#D3766A" d="M113.174 61.736s3.366-3.813 5.211-5.161c1.844-1.349 10.581-3.842 11.226-1.983.831 2.402-3.927 4.832-6.411 5.716 0 0 1.929 5.552-1.132 8.034-3.061 2.481-8.894-6.606-8.894-6.606Z"/>
  <path fill="#263238" d="M129.628 55.334c-.82 2.736-4.159 3.688-6.507 4.725a.256.256 0 0 0-.09.067.25.25 0 0 0-.05.212.239.239 0 0 0 .05.1c.656 2.38.882 5.927-.781 7.932-.045.057.028.136.085.085 2.076-1.903 2.133-5.41 1.25-7.971 2.428-1.026 5.732-2.13 6.066-5.139.005-.011-.017-.011-.023-.011Z"/>
  <path fill="#65BEDC" d="m120.75 78.563-4.266-19.456-10.558 1.92c-4.164-4.775-12.487-14.322-15.843-17.188-3.96-3.366-6.552-.839-5.092 4.26 3.299 11.654 12.946 28.764 15.469 30.379 3.661 2.35 20.29.085 20.29.085Z"/>
  <path fill="#030402" d="M105.677 66.948a8.243 8.243 0 0 0 1.59.187c1.132.153 1.629 1.825.6 2.46a4.058 4.058 0 0 1-3.644.31c-1.132-.441-2.088-1.54-1.845-2.832a1.417 1.417 0 0 1 1.601-1.157c.242.036.47.134.663.285.313.29.661.541 1.035.747Zm-2.92-4.628c-.407 1.926 2.569 3.58 4.091 2.555a1.02 1.02 0 0 0 .406-.792 1.02 1.02 0 0 0-.366-.811c-.447-.363-.821-.42-1.217-.748a1.831 1.831 0 0 1-.362-.38 2.7 2.7 0 0 0-.843-.76 1.236 1.236 0 0 0-1.496.422 1.25 1.25 0 0 0-.213.514Zm-4.747.102c-.61.799-.153 2 .385 2.725a2.457 2.457 0 0 0 2.224 1.082.826.826 0 0 0 .418-1.45 2.632 2.632 0 0 1-.792-.986c-.266-.6-.441-1.377-1.131-1.638a.967.967 0 0 0-1.104.267Zm12.533 12.6c-.798 1.614 1.63 3.45 3.101 3.133.492-.108.967-.754.532-1.218-.351-.374-.77-.669-1.098-1.066-.402-.481-.623-1.099-1.251-1.342a.993.993 0 0 0-1.284.493ZM87.753 55.22a2.164 2.164 0 0 0-.567-.686c.317.812.651 1.626 1.002 2.442a3.347 3.347 0 0 0-.436-1.756Zm3.15-1.7a6.718 6.718 0 0 0-1.561-3.801c-.679-.879-1.856-2.267-3.1-1.966a.645.645 0 0 0-.453.623c-.08.957 1.018 1.983 1.493 2.748.566.963 1.013 2.028 1.624 2.985a1.086 1.086 0 0 0 1.998-.594v.005Zm-.367 6.09a1.034 1.034 0 0 0 .95-.781c.088-.44.06-.895-.084-1.32a2.216 2.216 0 0 0-.566-1.077.803.803 0 0 0-1.324.391c-.046.33-.046.666 0 .997v.43c-.003.214.02.427.068.635a1.003 1.003 0 0 0 .956.72v.005Z" opacity=".1"/>
  <path fill="#263238" d="M117.056 76.863c-.487-1.133-1.698-6.164-1.964-7.416-.266-1.252-1.25-6.317-1.539-7.603 0-.074.079-.113.096-.045.306 1.269 1.67 6.266 1.969 7.512.3 1.246 1.426 6.272 1.505 7.535.002.005.002.01.001.014a.053.053 0 0 1-.004.013.036.036 0 0 1-.022.016.033.033 0 0 1-.026-.004.034.034 0 0 1-.016-.022Z"/>
  <path fill="#000" d="M107.25 79.537c-2.971 0-5.579-.283-6.79-1.06-2.54-1.643-12.188-18.696-15.509-30.372-.837-2.924-.334-5.009.99-5.615l21.309 37.047Z" opacity=".1"/>
  <path fill="#65BEDC" d="M59.371 83.498c.073.107 35.38 4.64 35.76 4.31.199-.983.34-1.978.424-2.98 0 0-3.237-38.49-4.912-40.751-1.465-1.972-5.912-3.4-8.94-2.113C75.35 44.66 60.136 79.05 60.3 80.489c-.011-.017-1.018 2.873-.928 3.008Z"/>
  <path fill="#030402" d="M72.102 78.812a9.564 9.564 0 0 0 1.697.634c1.177.47 1.285 2.436 0 2.833a4.589 4.589 0 0 1-4.074-.651c-1.131-.794-1.861-2.267-1.25-3.581a1.598 1.598 0 0 1 2.058-.825c.254.103.476.27.647.485.316.368.509.855.922 1.105Zm-1.935-5.853c-.968 2 1.833 4.612 3.774 3.904a1.132 1.132 0 0 0 .475-1.745c-.385-.516-.78-.68-1.132-1.133a2.007 2.007 0 0 1-.288-.516 3.236 3.236 0 0 0-.719-1.054c-.673-.651-1.754-.192-2.11.544Zm-3.27-2.13c-1.059.397-1.33 1.824-1.251 2.833a2.773 2.773 0 0 0 1.482 2.362.927.927 0 0 0 1.262-1.133 2.892 2.892 0 0 1-.18-1.428c.095-.725.384-1.575-.097-2.226a1.091 1.091 0 0 0-1.217-.408Zm11.599 6.742a1.051 1.051 0 0 0-1.132.9 1.237 1.237 0 0 0 .877 1.31 1.9 1.9 0 0 0 1.188 0 .883.883 0 0 0 .459-.414.919.919 0 0 0 .13-.612.992.992 0 0 0-.776-.816.647.647 0 0 0-.124-.124 1.176 1.176 0 0 0-.622-.244Zm-8.674-13.67c-.95.974-.566 3.189.52 3.937a1.007 1.007 0 0 0 1.607-.663 4.46 4.46 0 0 0 0-.674c0-.244-.034-.397 0-.567.085-.484.102-.978.051-1.467a1.246 1.246 0 0 0-2.178-.567Zm-6.14 14.095c-1.306 1.552.85 4.215 2.541 4.266.566 0 1.262-.567.911-1.19-.283-.498-.662-.94-.91-1.456-.306-.634-.38-1.376-1.002-1.807a1.13 1.13 0 0 0-1.54.187Zm31.216-.493a1.085 1.085 0 0 0-.894.816c-.18.629-.203 1.19-.673 1.7-.508.4-.964.862-1.358 1.376a.833.833 0 0 0 .758 1.213 3.909 3.909 0 0 0 2.53-1.383c-.114-1.076-.227-2.34-.357-3.745l-.006.023Zm-2.829-4.674c-.317.77-.26 1.643-.526 2.447-.233.738-.511 1.46-.832 2.165-.237.51.238 1.314.855 1.042a4.263 4.263 0 0 0 2.297-2.102c.43-.89.905-2.385.492-3.331-.413-.946-1.816-1.36-2.297-.244l.011.023Zm-3.225 7.722a5.095 5.095 0 0 1-1.76 1.445 1.21 1.21 0 0 0-.744 1.657 1.212 1.212 0 0 0 1.735.535 4.357 4.357 0 0 0 2.455-2.753c.266-.98-1.058-1.62-1.697-.907l.011.023Zm-5.171-27.76a1.25 1.25 0 0 0 1.47-.919c.318-1.218-.769-2.47-1.629-3.229-.86-.76-2.07-1.45-3.276-1.06a.99.99 0 0 0-.65 1.206.99.99 0 0 0 .249.432c.526.657 1.256 1.133 1.816 1.779.56.646 1.024 1.603 2.008 1.767l.012.023Zm4.34 4.81c.475-.686.107-1.7-.233-2.352a2.078 2.078 0 0 0-.809-.861 1.051 1.051 0 0 0-1.448.311 1.39 1.39 0 0 0-.068 1.032c.047.177.112.35.192.515v.096c.102.541.33 1.05.668 1.485a1.074 1.074 0 0 0 1.698-.227Zm2.92-4.057a6.718 6.718 0 0 0-1.563-3.802c-.678-.878-1.855-2.266-3.1-1.966a.645.645 0 0 0-.453.623c-.079.958 1.019 1.983 1.494 2.748.566.963 1.013 2.028 1.624 2.986a1.087 1.087 0 0 0 1.969-.618l.028.029Zm-4.273 9.699c.207.045.421.045.628 0a1.29 1.29 0 0 0 .742-.595c.151-.304.227-.64.22-.98a2.013 2.013 0 0 0-.254-.918l-.187-.232-.25-.181a1.166 1.166 0 0 0-1.663.747c-.094.33-.16.668-.198 1.009l.051.311c.04.157.118.3.227.42.17.198.4.335.656.39l.028.029Zm3.904-3.609a1.034 1.034 0 0 0 .95-.782c.089-.44.06-.895-.084-1.32a2.216 2.216 0 0 0-.566-1.076.803.803 0 0 0-1.324.39 3.706 3.706 0 0 0 0 .998v.43c-.003.214.02.427.068.635a1.003 1.003 0 0 0 .928.697l.028.028Z" opacity=".1"/>
  <path fill="#D3766A" d="M88.578 50.11c-2.155-.198-4.916-4.81-5.443-7.739-.034-.204.826-1.909 1.771-4.028.566-1.286 1.177-2.736 1.63-4.096l7.83 4.935a22.91 22.91 0 0 0-2.574 4.951 3.21 3.21 0 0 0-.124.567.774.774 0 0 1 0 .096c-.198 1.133-1.002 5.507-3.09 5.314Z"/>
  <path fill="#263238" d="M91.668 44.711a.91.91 0 0 1 0 .096 6.22 6.22 0 0 1-.889-.243c-4.9-1.768-4.034-8.204-3.689-9.983l1.952 1.235 5.347 3.4a22.738 22.738 0 0 0-2.569 4.951 3.107 3.107 0 0 0-.152.544Z"/>
  <path fill="#D3766A" d="M87.356 25.166c-1.618 2.918-1.901 12.288-.108 14.775 2.592 3.604 7.797 5.009 11.096 1.7 3.197-3.24 3.344-15.461 1.262-17.818-3.078-3.501-9.862-2.969-12.25 1.343Z"/>
  <path fill="#263238" d="M94.87 32.74s-.05 0-.05.057c0 .646-.114 1.382-.702 1.575v.04c.718-.08.854-1.06.752-1.672Z"/>
  <path fill="#263238" d="M94.322 32.05c-1.036-.114-1.189 1.96-.233 2.067.957.108 1.098-1.971.233-2.068Zm4.26.91s.045.035.045.063c-.074.64-.045 1.388.515 1.643v.04c-.708-.159-.73-1.15-.56-1.745Z"/>
  <path fill="#263238" d="M99.21 32.338c1.035 0 .95 2.08 0 2.08s-.871-2.086 0-2.08Zm-4.052-.708c-.288.062-.566.067-.848.101a1.378 1.378 0 0 1-.883-.062.441.441 0 0 1-.175-.51 1.093 1.093 0 0 1 .939-.566 1.56 1.56 0 0 1 1.131.215.464.464 0 0 1-.164.821Zm4.98-1.224a7.517 7.517 0 0 1-.81-.278 1.369 1.369 0 0 1-.769-.436.437.437 0 0 1 .063-.532 1.075 1.075 0 0 1 1.097-.125c.382.105.713.347.928.68a.466.466 0 0 1-.243.672.469.469 0 0 1-.266.019ZM94.4 37.85a5.457 5.457 0 0 1 2.535 0c.074 0 .147-.147.164-.215l.045-1.36c.176.103 1.058.567 1.058.318a32.369 32.369 0 0 0-.401-6.606.061.061 0 0 0-.06-.044.062.062 0 0 0-.059.044c-.09 2.045.17 4.085.108 6.142a3.751 3.751 0 0 0-.996-.38c-.074 0 0 1.445 0 1.66a3.153 3.153 0 0 0-2.377.13c-.294.187-.413.436-.017.312Zm-1.675 1.348c.142.159.283.374.51.408.238.012.475-.029.696-.119 0 0 .04 0 0 .034a.843.843 0 0 1-.826.295.673.673 0 0 1-.464-.567c.01-.062.062-.073.084-.05Z"/>
  <path fill="#263238" d="M90.089 22.19c-.085 1.456-.43 5.972-1.132 6.89-.701.918-2.184 3.053-2.936 3.399.101-3.008.565-5.87 1.34-7.365a7.685 7.685 0 0 1 2.728-2.924Z" opacity=".2"/>
  <path fill="#263238" d="M98.151 26.605a3.303 3.303 0 0 1-3.094.906 3.354 3.354 0 0 1-2.45-2.204c0-.034-.063 0-.051 0a3.326 3.326 0 0 0 2.433 2.442 3.39 3.39 0 0 0 3.219-1.133c.034.006-.011-.046-.056-.011Zm-2.84-8.397a5.19 5.19 0 0 0-4.526 2.096 3.726 3.726 0 0 0-.532 2.391h.074a4.067 4.067 0 0 1 2.178-3.54 5.256 5.256 0 0 1 4.674-.233 3.351 3.351 0 0 1 1.697 1.558c.034.074.181.04.153-.034-.464-1.235-1.964-2.153-3.718-2.238Zm10.807 4.94a4.192 4.192 0 0 0-1.629-2.374c-1.132-.81-2.456-.799-3.78-.753-.039 0-.034.056 0 .05a5.868 5.868 0 0 1 3.271.607 4.158 4.158 0 0 1 1.771 2.159 4.059 4.059 0 0 1-.101 2.832 4.048 4.048 0 0 1-1.931 2.074 4.1 4.1 0 0 1-3.259.102c-.039 0-.073.04-.034.062a4.132 4.132 0 0 0 5.599-2.488c.242-.734.274-1.52.093-2.27Z"/>
  <path fill="#263238" d="M86.79 27.007s-1.561-3.564.108-5.434c.945-1.053 3.785-.69 3.785-.69a5.17 5.17 0 0 1 3.451-1.938c2.428-.38 5.195 1.263 5.195 1.263s2.365-1.133 4.396.244c2.829 1.92 2.122 6.413-.968 7.637-2.172.867-4.877-1.207-4.877-1.207-.271 0-3.202 1.496-5.132-1.167 0 0-1.833 1.4-3.299.21a2.5 2.5 0 0 1-2.659 1.082Z"/>
  <path fill="#D3766A" d="M87.713 32.928s-1.483-3.326-2.948-2.833c-1.466.493-.753 5.014.696 5.898a1.606 1.606 0 0 0 2.263-.442l-.011-2.623Z"/>
  <path fill="#263238" d="M85.002 31.375v.04c1.008.651 1.387 1.779 1.585 2.906a.89.89 0 0 0-1.262-.487c-.034 0 0 .062 0 .062a.983.983 0 0 1 1.007.567c.154.306.271.63.35.963 0 .107.216.09.205 0 .288-1.462-.42-3.62-1.885-4.051Z"/>
  <path fill="#65BEDC" d="M166.138 39.528 105.222 58.21l10.983 35.904 60.917-18.683-10.984-35.904Z"/>
  <path fill="#000" d="M166.138 39.528 105.222 58.21l10.983 35.904 60.917-18.683-10.984-35.904Z" opacity=".2"/>
  <path fill="#000" d="m166.136 39.528-20.472 6.279 10.983 35.904 20.472-6.279-10.983-35.904Z" opacity=".2"/>
  <path fill="#65BEDC" d="M165.155 41.357c-.69 3.18-1.362 6.36-2.014 9.541l-1.93 9.563-1.867 9.603a1007.13 1007.13 0 0 0-1.788 9.604c.69-3.177 1.362-6.357 2.014-9.541l1.93-9.564 1.867-9.58c.611-3.21 1.207-6.419 1.788-9.626Z"/>
  <path fill="#65BEDC" d="M175.209 74.229a735.49 735.49 0 0 0-6.852-6.952l-6.903-6.89-6.948-6.837a1900.315 1900.315 0 0 0-7.005-6.799 674.411 674.411 0 0 0 6.852 6.952l6.903 6.889 6.949 6.838a738.169 738.169 0 0 0 7.004 6.799Z"/>
  <path fill="#263238" d="m116.921 62.838.336-.103-1.444-4.718-.335.103 1.443 4.718Zm-.797.24.336-.103-1.444-4.72-.335.104 1.443 4.719Zm-.804.256.336-.103-1.444-4.718-.336.103 1.444 4.718Zm-.796.232.336-.103-1.443-4.72-.336.104 1.443 4.719Zm-.803.249.336-.103-1.443-4.719-.336.103 1.443 4.719Zm-.798.24.336-.103-1.444-4.719-.336.103 1.444 4.72Zm-.808.264.336-.103-1.444-4.719-.336.103 1.444 4.719Zm-.799.238.335-.103-1.444-4.718-.336.103 1.445 4.718Zm-.808.255.336-.103-1.443-4.719-.336.103 1.443 4.719Zm8.698-7.444-1.392.034 3.016-.935-1.177.759.532 1.734c.956-.165 1.601.634 2.088 2.22l-3.016.952c-.487-1.58-.402-2.606.481-3.008l-.532-1.756Zm3.032 1.207.787-.244-.707-2.311 2.014-.618.707 2.312.792-.244-1.064 2.958-2.529-1.853Z"/>
  <path fill="#000" d="m105.224 58.212.9 2.946 42.107-6.957-2.568-8.39-40.439 12.401Z" opacity=".1"/>
  <path fill="#65BEDC" d="m185.015 79.503-20.476 6.278-7.893-4.068 20.476-6.283 7.893 4.073Z"/>
  <path fill="#000" d="m185.015 79.503-20.476 6.278-7.893-4.068 20.476-6.283 7.893 4.073Z" opacity=".2"/>
  <path fill="#65BEDC" d="m111.94 101.916 20.477-6.283 4.261-7.796-20.477 6.277-4.261 7.802Z"/>
  <path fill="#000" d="m111.94 101.916 20.477-6.283 4.261-7.796-20.477 6.277-4.261 7.802Z" opacity=".1"/>
  <path fill="#D3766A" d="M78.24 52.672c2.994 10.022 11.317 27.194 14.406 29.29 2.722 1.875 15.786.17 21.501-1.07 2.139-.46-2.263-16.81-4.526-16.272-2.739.652-10.892 2.266-11.47 1.819-.576-.448-8.486-10.765-14.145-16.815-5.137-5.507-6.897-.743-5.765 3.048Z"/>
  <path fill="#D3766A" d="M108.444 65.951s4.328-4.883 7.395-6.747a23.006 23.006 0 0 1 10.603-3.032c4.023-.158 13.863 2.233 13.665 5.19-.176 2.68-10.106-.278-10.106-.278s10.621 1.343 9.817 4.533c-.803 3.19-12.137-.907-12.137-.907s10.881 1.62 9.557 4.788c-1.018 2.385-11.492-.742-11.492-.742s9.348 1.461 8.403 3.965c-1.041 2.76-10.892.482-10.892.482-3.457 5.937-7.537 7.365-10.553 8.005-.752.13-4.26-15.257-4.26-15.257Z"/>
  <path fill="#263238" d="M126.357 60.382c1.251.113 2.524.22 3.763.442 1.239.22 2.467.493 3.684.833a21.576 21.576 0 0 1 4.594 1.762c-2.688-1.162-7.112-2.034-8.351-2.267-1.24-.232-2.467-.51-3.701-.73-.034.01-.022-.04.011-.04Zm-.888 4.47c1.59.21 3.186.363 4.77.646 1.584.283 3.05.691 4.606 1.082.118.028.062.085-.057.057-1.573-.329-3.044-.51-4.617-.816-1.573-.306-3.135-.68-4.713-.935-.023 0-.017-.04.011-.034Zm-1.454 3.694c2.454.267 4.873.787 7.22 1.552.119.034.039.097-.085.069-2.388-.567-4.261-1.02-7.141-1.536-.045-.005-.045-.09.006-.085Z"/>
  <path fill="#65BEDC" d="m112.851 83.791-3.802-19.557L98.451 65.9c-4.05-4.873-12.142-14.617-15.446-17.563-3.876-3.462-6.53-.992-5.2 4.135 3.044 11.722 12.278 29.036 14.779 30.736 3.587 2.436 20.267.583 20.267.583Z"/>
  <path fill="#030402" d="M105.677 66.948a8.243 8.243 0 0 0 1.59.187c1.132.153 1.629 1.825.6 2.46a4.058 4.058 0 0 1-3.644.31c-1.132-.441-2.088-1.54-1.845-2.832a1.417 1.417 0 0 1 1.601-1.157c.242.036.47.134.663.285.313.29.661.541 1.035.747Zm-1.132-2.005a2.454 2.454 0 0 0 2.264-.068.857.857 0 0 0 .294-.34l-2.558.408Zm-5.505.86a2.26 2.26 0 0 0 1.562.426.824.824 0 0 0 .713-.782l-2.275.357Zm11.995 8.731a.984.984 0 0 0-.509.488c-.475.957.187 1.988 1.132 2.606l-.623-3.094Zm-17.042 3.762c-.181.63-.204 1.19-.673 1.7a7.75 7.75 0 0 0-1.347 1.4.834.834 0 0 0 .758 1.212 3.97 3.97 0 0 0 3.474-4.09 1.134 1.134 0 0 0-1.01-.987 1.13 1.13 0 0 0-1.185.765h-.017Zm-1.952-5.49c-.317.771-.26 1.644-.526 2.448a19.2 19.2 0 0 1-.832 2.164c-.238.51.238 1.315.854 1.043a4.262 4.262 0 0 0 2.297-2.102c.43-.89.906-2.385.493-3.332-.413-.946-1.788-1.337-2.27-.22h-.016Zm-8.397-20.038a1.249 1.249 0 0 0 1.471-.918c.317-1.218-.77-2.47-1.63-3.23-.86-.759-2.07-1.45-3.275-1.059a.99.99 0 0 0-.402 1.637c.526.658 1.256 1.133 1.816 1.78.56.645 1.053 1.625 2.037 1.79h-.017Zm4.368 4.832c.476-.685.108-1.7-.232-2.35a2.078 2.078 0 0 0-.809-.862 1.051 1.051 0 0 0-1.448.312 1.39 1.39 0 0 0-.068 1.03c.047.178.112.351.192.516v.097c.101.54.33 1.05.668 1.484a1.076 1.076 0 0 0 1.697-.227Zm-1.352 5.666c.207.045.421.045.628 0a1.29 1.29 0 0 0 .741-.595c.152-.304.228-.64.221-.98a2.014 2.014 0 0 0-.255-.918l-.186-.232-.25-.182a1.164 1.164 0 0 0-1.663.748c-.094.33-.16.668-.198 1.009l.051.311c.04.157.118.3.226.42.175.189.404.318.657.368l.028.05Zm4.747-5.75-1.131-1.275a.74.74 0 0 0-.81.566 3.698 3.698 0 0 0 0 .997v.43c-.002.214.02.427.068.635a1.002 1.002 0 0 0 1.002.726 1.035 1.035 0 0 0 .95-.782 2.575 2.575 0 0 0-.079-1.298Z" opacity=".1"/>
  <path fill="#263238" d="M109.196 81.996c-.458-1.161-1.533-6.204-1.788-7.467-.254-1.263-1.097-6.34-1.352-7.637 0-.068.079-.113.096-.04.272 1.275 1.522 6.3 1.788 7.558s1.279 6.3 1.324 7.57a.031.031 0 0 1-.004.026.032.032 0 0 1-.021.016.036.036 0 0 1-.027-.004.038.038 0 0 1-.016-.022Zm-3.496 2.345a79.986 79.986 0 0 1-5.211.13 42.265 42.265 0 0 1-5.217-.3 8.342 8.342 0 0 1-2.569-.68 7.664 7.664 0 0 1-1.878-1.898 38.618 38.618 0 0 1-2.779-4.447c-1.697-3.054-3.157-6.232-4.583-9.394a138.469 138.469 0 0 1-3.91-9.687c1.444 3.166 2.87 6.34 4.352 9.484 1.482 3.144 2.982 6.277 4.6 9.342a46.877 46.877 0 0 0 2.67 4.442 7.232 7.232 0 0 0 1.698 1.852 8.02 8.02 0 0 0 2.439.686c3.446.418 6.918.575 10.388.47Z"/>
  <path fill="#263238" d="M80.657 60.83a5.374 5.374 0 0 1-.628-.765 3.095 3.095 0 0 1-.436-.89c.085.142.178.278.278.409l.277.402c.186.271.356.553.509.844Zm8.934-5.252c1.432 1.44 2.716 3.02 4.046 4.532 1.33 1.513 2.603 3.11 3.96 4.618l.504.566c.09.085.175.182.26.261.085.08.085.074.125.108h.062c.43 0 .973-.097 1.46-.159l3.01-.448c2.003-.294 4.012-.6 6.02-.872l.079.499-.118-.493h.028c-1.986.425-3.961.804-5.975 1.172-1.002.182-2.003.34-3.01.493-.515.09-1.035.15-1.556.182a.48.48 0 0 1-.125 0 .462.462 0 0 1-.152-.08 2.144 2.144 0 0 1-.165-.141l-.277-.272a17.27 17.27 0 0 1-.52-.567c-1.33-1.547-2.62-3.11-3.887-4.697l-1.896-2.385c-.622-.742-1.188-1.558-1.873-2.317Z"/>
  <path fill="#263238" d="M90.332 55.748c.214.262.403.543.566.839.16.292.273.607.334.934-.068-.153-.153-.289-.232-.436l-.232-.436a9.302 9.302 0 0 1-.436-.901Z"/>
  <path fill="#65BEDC" d="M22.468 203.894a149.09 149.09 0 0 1 .22-15.903 202.41 202.41 0 0 1 4.974-32.379c1.387-5.994 3.095-11.897 4.878-17.778.05-.176.334-.125.288.057-5.505 20.758-10.026 42.185-9.715 63.759.09 6.04.787 11.971 1.358 17.971 0 .164-.249.227-.283.062-1.137-5.149-1.505-10.543-1.72-15.789Z"/>
  <path fill="#65BEDC" d="M32.828 137.862s8.34 21.201 6.473 26.181c-1.867 4.979-5.72 6.045-5.72 6.045s5.092 7.297 1.539 14.163c-3.553 6.867-11.486 6.516-12.018 14.277 0-.022-.441-32.463 9.726-60.666Z"/>
  <path fill="#263238" d="M24.013 185.112a.158.158 0 0 1 0-.113 194.548 194.548 0 0 1 8.097-42.644c0-.04.08-.029.068 0a315.16 315.16 0 0 0-4.38 18.696 9.205 9.205 0 0 1 3.961-2.221s.04 0 0 .04a10.588 10.588 0 0 0-4.108 2.753 354.282 354.282 0 0 0-.707 3.688c1.861-2.085 4.447-3.121 7.033-4.107.034 0 .057.045 0 .057-2.693 1.099-5.38 2.515-7.203 4.838a250.309 250.309 0 0 0-1.697 10.589 10.039 10.039 0 0 1 4.973-2.833c.057 0 .09.074 0 .091a10.51 10.51 0 0 0-5.041 3.235h-.034a247.817 247.817 0 0 0-.47 3.744 12.653 12.653 0 0 1 3.593-2.084c.034 0 .051.039 0 .051a12.096 12.096 0 0 0-3.457 2.317h-.045c-.136 1.184-.277 2.374-.396 3.563a16.977 16.977 0 0 1 7.072-5.059.052.052 0 0 1 .035 0c.006.003.01.006.015.011a.04.04 0 0 1 .01.015.041.041 0 0 1 .003.017.05.05 0 0 1-.004.018.045.045 0 0 1-.01.014.045.045 0 0 1-.015.01 18.441 18.441 0 0 0-6.97 5.371.16.16 0 0 1-.079.058.161.161 0 0 1-.097-.001 196.786 196.786 0 0 0-.475 5.484h-.045c.09-1.853.22-3.728.373-5.598Z"/>
  <path fill="#263238" d="M30.712 156.745a10.386 10.386 0 0 1 5.013-1.563c.04 0 .045.056 0 .062a19.714 19.714 0 0 0-4.956 1.62.066.066 0 0 1-.044-.006.066.066 0 0 1-.03-.031.068.068 0 0 1 .017-.082ZM29.7 179.186a10.55 10.55 0 0 1 3.762-1.286c.045 0 .051.063 0 .068a14.304 14.304 0 0 0-3.729 1.309c-.04.023-.085-.062-.034-.091Z"/>
  <path fill="#65BEDC" d="M.543 164.388a56.724 56.724 0 0 1 9.653 8.453 34.671 34.671 0 0 1 6.79 11.495 86.22 86.22 0 0 1 5.04 27.495 66.63 66.63 0 0 1-1.487 15.461.147.147 0 0 1-.259.051.146.146 0 0 1-.03-.102 86.791 86.791 0 0 0-.136-27.03c-1.437-8.77-3.683-18.311-9.25-25.438-3.062-3.864-6.841-6.929-10.553-10.096-.22-.158.028-.43.232-.289Z"/>
  <path fill="#65BEDC" d="M20.782 205.519a51.965 51.965 0 0 0-7.033-9.008c-4.175-4.175-7.69-7.144-8.232-9.909-.544-2.764 4.181-4.793 4.181-4.793s-5.777 1.037-7.356-1.393C.764 177.985 0 163.94 0 163.94s10.496 7.536 15.401 18.034c4.906 10.498 5.381 23.545 5.381 23.545Z"/>
  <path fill="#263238" d="M3.751 177.141a9.53 9.53 0 0 1 2.088-.068c.085 0 .08.148 0 .148-.69 0-1.38-.034-2.076 0-.057-.012-.057-.08-.012-.08Zm7.559 13.597a9.381 9.381 0 0 1 3.243.652v.045c-1.07-.255-2.15-.362-3.23-.538-.108 0-.103-.159-.012-.159Zm2.27-4.696a6.97 6.97 0 0 1 1.375.125c.045 0 .04.085 0 .085-.46.023-.92 0-1.375-.068a.076.076 0 0 1-.039-.027.071.071 0 0 1-.015-.044c0-.016.006-.032.015-.044a.076.076 0 0 1 .039-.027Z"/>
  <path fill="#65BEDC" d="M51.574 179.306a47.684 47.684 0 0 0-9.76 4.6 29.35 29.35 0 0 0-8.12 7.739 72.554 72.554 0 0 0-10.428 21.087 56.458 56.458 0 0 0-2.365 12.855c0 .033.013.065.036.088a.127.127 0 0 0 .088.037.127.127 0 0 0 .088-.037.124.124 0 0 0 .037-.088 73.042 73.042 0 0 1 6.32-21.818c3.186-6.764 7.208-13.965 13.359-18.441 3.35-2.442 7.112-4.034 10.863-5.722.221-.091.108-.368-.118-.3Z"/>
  <path fill="#65BEDC" d="M25.705 207.905a43.55 43.55 0 0 1 7.768-5.666c4.346-2.413 7.87-4.005 8.951-6.113 1.081-2.107-2.263-4.849-2.263-4.849s4.43 2.175 6.27.566c1.838-1.609 5.697-12.798 5.697-12.798s-10.23 3.649-16.624 11.036c-6.393 7.388-9.8 17.824-9.8 17.824Z"/>
  <path fill="#263238" d="M34.198 197.617a7.89 7.89 0 0 1 2.97.362v.046a23.314 23.314 0 0 0-2.959-.306.056.056 0 0 1-.037-.011.053.053 0 0 1-.02-.034.05.05 0 0 1 .012-.038.048.048 0 0 1 .034-.019Zm8.928-11.728a5.283 5.283 0 0 1 1.37.079.043.043 0 0 1 .021.017.043.043 0 0 1 .008.026.042.042 0 0 1-.008.025.043.043 0 0 1-.021.017c-.447-.051-.894-.034-1.347-.045a.065.065 0 0 1-.038-.015.067.067 0 0 1-.02-.036.061.061 0 0 1 .006-.04.06.06 0 0 1 .03-.028Z"/>
  <path fill="#455A64" d="M12.504 239.717h23.097l-3.293-24.163-.843-6.193H16.64l-.843 6.193-3.293 24.163Z"/>
  <path fill="#263238" d="M15.797 215.554h16.51l-.842-6.193H16.64l-.843 6.193Z"/>
  <path fill="#455A64" d="M14.513 212.454h19.073v-5.246H14.513v5.246Z"/>
  <path fill="#fff" d="M135.54 12.711a12.575 12.575 0 0 1-6.92 11.24 12.55 12.55 0 0 1-13.138-1.138l-6.162 1.575 2.563-5.74a12.598 12.598 0 0 1 8.028-18.15 12.556 12.556 0 0 1 10.792 2.287 12.583 12.583 0 0 1 4.837 9.927Z"/>
  <path fill="#263238" d="M135.54 12.706a12.742 12.742 0 0 1-1.856 6.617c-.295.503-.62.987-.973 1.45-.376.445-.778.865-1.205 1.259a12.335 12.335 0 0 1-2.829 2 12.45 12.45 0 0 1-5.019 1.348 10.64 10.64 0 0 1-1.749 0 12.742 12.742 0 0 1-6.518-2.408l.17.034-6.145 1.62-.498.13.21-.475 2.54-5.75v.237a12.749 12.749 0 0 1-.396-11.257 12.9 12.9 0 0 1 3.491-4.595A12.798 12.798 0 0 1 125.616.293a12.873 12.873 0 0 1 5.131 2.459 12.65 12.65 0 0 1 3.538 4.426 12.684 12.684 0 0 1 1.255 5.528Zm0 0a12.476 12.476 0 0 0-2.818-7.894 12.446 12.446 0 0 0-7.174-4.32 12.433 12.433 0 0 0-5.596.17 12.291 12.291 0 0 0-4.94 2.583 12.976 12.976 0 0 0-3.304 4.498 12.381 12.381 0 0 0-1.03 5.456 12.634 12.634 0 0 0 1.449 5.309l.062.119-.057.119-2.585 5.733-.289-.34 6.173-1.53h.096l.074.057a12.35 12.35 0 0 0 6.297 2.465c.565.041 1.133.041 1.698 0a12.06 12.06 0 0 0 4.973-1.264 11.708 11.708 0 0 0 2.829-1.937c.427-.389.83-.803 1.205-1.241.361-.45.695-.922 1.002-1.41a12.697 12.697 0 0 0 1.935-6.573Z"/>
  <path fill="#65BEDC" d="M123.845 14.071v1.388a1.023 1.023 0 0 1-1.047 1.048 1.044 1.044 0 0 1-1.041-1.048v-2.3a1.079 1.079 0 0 1 1.041-1.048 2.387 2.387 0 0 0 2.504-2.388 2.4 2.4 0 0 0-.741-1.731 2.386 2.386 0 0 0-1.763-.657 2.35 2.35 0 0 0-2.043 1.173 1.043 1.043 0 0 1-.644.493 1.058 1.058 0 0 1-.804-.108 1.04 1.04 0 0 1-.499-1.05 1.03 1.03 0 0 1 .137-.383 4.482 4.482 0 0 1 3.619-2.224 4.47 4.47 0 0 1 3.845 1.803 4.483 4.483 0 0 1-2.564 7.032Zm0 4.674v.385a1.016 1.016 0 0 1-.3.747 1.023 1.023 0 0 1-.747.296 1.04 1.04 0 0 1-1.041-1.043v-.385a1.059 1.059 0 0 1 1.041-1.048 1.03 1.03 0 0 1 .97.645c.052.128.078.265.077.403Z"/>
</svg>
