<svg xmlns="http://www.w3.org/2000/svg" width="260" height="240" fill="none" viewBox="0 0 260 240">
  <path fill="#EBEBEB" d="M22.99 120.774H8.23v6.229h14.76v-6.229Zm-8.232 7.854H0v6.228h14.758v-6.228Zm16.462 0H16.464v6.228H31.22v-6.228Zm212.502 0h-14.758v6.228h14.758v-6.228Zm0-88.181h-14.758v6.228h14.758v-6.228Zm8.231 7.853h-14.758v6.229h14.758v-6.228ZM14.758 40.452H0v6.228h14.758v-6.228ZM96.5 186.424h14.758v-6.228H96.5v6.228Zm8.237-7.855h14.758v-6.228h-14.758v6.228Z"/>
  <path fill="#DBDBDB" d="m255.999 82.497-14.418-77.32-13.325 77.32-.552-.094L241.559 2.02l14.986 80.376-.546.1Zm-3.844 63.707-10.422-38.21-9.631 38.204-.54-.139 10.148-40.263 10.98 40.258-.535.15Z"/>
  <path fill="#A6A6A6" d="M242.886 2.983a1.316 1.316 0 1 1-2.046-1.092 1.32 1.32 0 0 1 1.661.164c.247.246.385.58.385.928Z"/>
  <path fill="#EBEBEB" d="m253.776 144.912-.407 5.354-.969 12.735h-20.549l-.964-12.735-.412-5.354h23.301Z"/>
  <path fill="#DBDBDB" d="m253.776 144.912-.407 5.354h-22.482l-.412-5.354h23.301Z"/>
  <path fill="#EBEBEB" d="M255.186 143.204h-26.122v4.158h26.122v-4.158Z"/>
  <path fill="#C7C7C7" d="M255.894 142.341a1.24 1.24 0 0 1-.89 1.104 1.252 1.252 0 0 1-.498.043 1.33 1.33 0 0 1-1.494.434 1.508 1.508 0 0 1-.609.679c-.269.158-.579.23-.89.206a1.522 1.522 0 0 1-.892 1.848.943.943 0 0 1-.98.674 1.564 1.564 0 0 1-1.154-.808 1.182 1.182 0 0 1-1.331.411 1.177 1.177 0 0 1-.425-.249.97.97 0 0 1-.211-1.063 1.136 1.136 0 0 1-.229-.145 1.504 1.504 0 0 1-.407-1.258 1.444 1.444 0 0 1-1.07 0 .815.815 0 0 1-.736.618 1.44 1.44 0 0 1-.25 1.308 1.53 1.53 0 0 1-1.332.501c.145.701.178 1.497-.463 1.965a1.03 1.03 0 0 1-1.048.1 1.322 1.322 0 0 1-.597.875 1.353 1.353 0 0 1-1.047.166c.111.424.053.875-.161 1.258a1.154 1.154 0 0 1-.881.556c0 .685-.29 1.431-1.115 1.414a.819.819 0 0 1-.609-.309.811.811 0 0 1-.154-.665 1.013 1.013 0 0 1-.759-1.209c.04-.172.125-.331.246-.461a1.466 1.466 0 0 1 0-2.31.95.95 0 0 1 .039-1.413 1.303 1.303 0 0 1-.474-1.025 1.443 1.443 0 0 1 .747-1.141.615.615 0 0 1-.356-.361.35.35 0 0 1 0-.112.97.97 0 0 1-.758 0 .84.84 0 0 1-.379-.345 1.558 1.558 0 0 1-1.5.368 1.254 1.254 0 0 1-1.922.395c-.474.423-1.115.829-1.734.445a.777.777 0 0 1-.351-.69.86.86 0 0 1-.774-.462.796.796 0 0 1 .217-.985.77.77 0 0 1-.295-.446.897.897 0 0 1 .88-1.001 1.266 1.266 0 0 1 .24-1.264 1.821 1.821 0 0 1 1.471-.523 1.574 1.574 0 0 1 .775-1.642 1.294 1.294 0 0 1 1.594.384 2.06 2.06 0 0 1 3.277-.211 1.02 1.02 0 0 1 1.276-.524 1.671 1.671 0 0 1 .964 1.67 1.95 1.95 0 0 1 2.633.864c.153.308.222.652.198.995a1.805 1.805 0 0 1 1.918.117 3.94 3.94 0 0 1 2.039-1.553 1.939 1.939 0 0 1 1.672.351 2.278 2.278 0 0 1 1.901-1.627c.441-.055.889.02 1.289.216.399.196.732.504.957.888a1.606 1.606 0 0 1 1.672-.223c.802.328 1.204 1.163 1.482 1.942a1.243 1.243 0 0 1 1.187.747c.066.153.1.317.101.483Z"/>
  <path fill="#EBEBEB" d="m257.694 82.726-.546 7.152-1.293 17.02h-27.459l-1.293-17.02-.546-7.152h31.137Z"/>
  <path fill="#DBDBDB" d="m257.694 82.726-.546 7.152h-30.045l-.546-7.152h31.137Z"/>
  <path fill="#EBEBEB" d="M259.578 80.438h-34.905v5.554h34.905v-5.555Z"/>
  <path fill="#C7C7C7" d="M258.781 81.835a2.039 2.039 0 0 1 .429 1.904 3.76 3.76 0 0 1-2.14 1.909 2.266 2.266 0 0 1-.758 3.34c.83.973 1.17 2.081.095 2.782a2.493 2.493 0 0 1-.014 2.867 2.49 2.49 0 0 1-.739.69c.234.768-.507 3.067-2.09 3.061a1.677 1.677 0 0 1-1.413-.825 1.665 1.665 0 0 1-.03-1.635 1.946 1.946 0 0 1-.452-3.078s-.975.206-1.438-.29a1.338 1.338 0 0 1-.078-1.313 2.22 2.22 0 0 1-.461-1.734 2.21 2.21 0 0 1 .969-1.51 1.838 1.838 0 0 1-.458-2.13 1.84 1.84 0 0 1 .458-.62 2.601 2.601 0 0 1-1.115-.93c-.791.384-1.271.045-1.711-.707a1.84 1.84 0 0 1-1.99.523 2.186 2.186 0 0 1-1.28 1.463 2.197 2.197 0 0 1-1.941-.127 3.027 3.027 0 0 1-.602 1.631c-.111.145-.24.262-.362.395a2.995 2.995 0 0 0-.351.557c-.18.325-.427.608-.725.83a1.365 1.365 0 0 1-1.811-.073 1.028 1.028 0 0 1-.167-1.074 1.394 1.394 0 0 1-.87-1.77 1.676 1.676 0 0 1-1.672-.969 1.795 1.795 0 0 1-1.376.685 2.018 2.018 0 0 1-1.143 2.532 2.078 2.078 0 0 1-.891 2.95 1.465 1.465 0 0 1-.43 1.937 1.834 1.834 0 0 1-.066 1.67 1.212 1.212 0 0 1-1.115.556.89.89 0 0 1-.557-1.33 2.231 2.231 0 0 1-1.438-1.625 2.226 2.226 0 0 1 .629-2.076 1.837 1.837 0 0 1-1.259-1.113 1.828 1.828 0 0 1 .178-1.67 1.899 1.899 0 0 1-1.438-1.453 1.849 1.849 0 0 1 .396-1.48 1.115 1.115 0 0 1-1.003-.368 1.01 1.01 0 0 1-.201-.629 1.424 1.424 0 0 1-1.532-.667 1.38 1.38 0 0 1 .278-1.615 1.184 1.184 0 0 1-.501-.32 1.185 1.185 0 0 1-.279-.526.999.999 0 0 1 .089-.7 1.373 1.373 0 0 1-1.638-1.153 1.112 1.112 0 0 1 .747-1.158 1.36 1.36 0 0 1-.112-.885c.212-.846 1.193-1.113 1.967-1.202a1.75 1.75 0 0 1 .321-1.691 1.74 1.74 0 0 1 1.619-.59 1.79 1.79 0 0 1 .836-1.67 1.672 1.672 0 0 1 1.878.144h.056a2.11 2.11 0 0 1 1.789 2.06 2.184 2.184 0 0 1 2.079 0 3.065 3.065 0 0 1 1.432 2.109 2.467 2.467 0 0 1 2.119-.754 2.472 2.472 0 0 1 1.855 1.272 2.34 2.34 0 0 1 2.452-.557 2.366 2.366 0 0 1 1.466 1.859 5.615 5.615 0 0 1 5.277-1.035 2.477 2.477 0 0 1 1.577-1.516 2.47 2.47 0 0 1 2.163.33 2.476 2.476 0 0 1 2.564-1.508c1.304.133 2.262 1.185 2.786 2.315a2.517 2.517 0 0 1 1.932 1.104 2.502 2.502 0 0 1 .298 2.203 1.824 1.824 0 0 1-.459 2.023 1.83 1.83 0 0 1-.628.375Z"/>
  <path fill="#EBEBEB" d="M191.925 240c30.605 0 55.415-2.031 55.415-4.536 0-2.505-24.81-4.536-55.415-4.536-30.604 0-55.414 2.031-55.414 4.536 0 2.505 24.81 4.536 55.414 4.536Zm-153.497 0c15.294 0 27.693-2.031 27.693-4.536 0-2.505-12.399-4.536-27.693-4.536-15.295 0-27.694 2.031-27.694 4.536 0 2.505 12.4 4.536 27.694 4.536Z"/>
  <path fill="#263238" d="m9.24 213.439 29.187-.133 29.181-.05 58.369-.095 58.368.095 29.181.05 29.187.133-29.187.134-29.181.05-58.368.095-58.369-.095-29.18-.05-29.188-.134Z"/>
  <path fill="#EBEBEB" d="M221.429 6.545H30.524v.557H221.43v-.557Zm0 151.286H30.524l12.4-15.311H209.03l12.4 15.311Z"/>
  <path fill="#DBDBDB" d="M42.925 6.824h-12.4v151.008l12.4-15.312V6.824Zm166.104 0h12.401v151.008l-12.401-15.312V6.824Z"/>
  <path fill="#A6A6A6" d="M42.937 6.824V142.52h166.081V6.824H42.936Zm161.561 131.199H47.456V11.321h157.042v126.702Z"/>
  <path fill="#fff" d="M204.498 11.321H47.456v126.702h157.042V11.321Z"/>
  <path fill="#A6A6A6" d="M128.25 11.321h-4.536v126.702h4.536V11.321Z"/>
  <path fill="#EBEBEB" d="M228.791 4.937H23.168v3.1h205.623v-3.1Zm0 3.483H23.168v3.101h205.623v-3.1Zm0 3.491H23.168v3.1h205.623v-3.1Zm0 3.49H23.168v3.1h205.623v-3.1Zm0 3.485H23.168v3.1h205.623v-3.1Zm0 3.489H23.168v3.1h205.623v-3.1Zm0 3.485H23.168v3.1h205.623v-3.1Zm0 3.489H23.168v3.1h205.623v-3.1Zm0 3.489H23.168v3.1h205.623v-3.1Z"/>
  <path fill="#263238" d="M213.805 3.24h-.557v88.157h.557V3.239Z"/>
  <path fill="#263238" d="M214.519 93.99h-1.979l.496-2.838h.987l.496 2.839Zm1.297-90.75h-.556v120.072h.556V3.239Z"/>
  <path fill="#263238" d="M216.524 125.404h-1.978l.496-2.839h.986l.496 2.839Z"/>
  <path fill="#DBDBDB" d="M232.247 0H19.707v6.484h212.54V0Z"/>
  <path fill="#263238" d="m68.606 109.965-4.67-.674a14.453 14.453 0 0 1-.04-8.783c.196-.657-2.045 2.928-2.335 8.444-4.926-.713-11.63-1.67-17.483-2.594.273-2.293.424-4.453.424-4.453a25.62 25.62 0 0 1-1.672 4.241c-.803-.117-1.583-.245-2.335-.361.769-3.501 1.187-9.735 1.187-9.735a31.57 31.57 0 0 1-4.531 9.228c-3.706-.612-6.13-1.085-5.947-1.236 6.688-5.465 3.216-9.857 5.768-15.239 3.06-6.45 9.09-6.534 9.776-11.65.557-4.163 1.332-11.76 6.838-12.478a10.236 10.236 0 0 1 11.297-.24c7.736 4.565 2.302 16.77 2.424 19.481.173 3.84 1.717 5.45 2.324 9.902.608 4.453-1.817 7.018-2.53 9.885-.713 2.866 2.436 6.401 1.505 6.262Z"/>
  <path fill="#263238" d="M31.193 103.081a14.745 14.745 0 0 0 2.414-3.34c.635-1.19.674-2.51.64-3.896a40.786 40.786 0 0 1 0-4.208 10.882 10.882 0 0 1 1.115-4.19 9.584 9.584 0 0 1 2.854-3.296 25.12 25.12 0 0 1 3.639-2.16 15.793 15.793 0 0 0 3.405-2.226 7.585 7.585 0 0 0 2.112-3.45 7.053 7.053 0 0 1-1.75 3.8 14.454 14.454 0 0 1-3.343 2.59 31.261 31.261 0 0 0-3.423 2.225 9.15 9.15 0 0 0-2.502 2.995 10.681 10.681 0 0 0-1.042 3.79c-.145 1.342-.128 2.71-.178 4.113a13.259 13.259 0 0 1-.229 2.132c-.15.72-.43 1.406-.825 2.026a11.915 11.915 0 0 1-2.887 3.095Zm37.564-33.129c.306 1.69.403 3.412.29 5.126-.072 1.715-.234 3.423-.407 5.12l-.245 2.533a12.995 12.995 0 0 0-.028 2.46 13.569 13.569 0 0 0 1.538 4.66c.378.79.704 1.604.975 2.437.259.862.42 1.751.48 2.65.04.881.015 1.765-.078 2.643a10.56 10.56 0 0 1-.585 2.588c-.296.841-.68 1.614-1.02 2.377-.34.762-.607 1.554-.797 2.365a5.24 5.24 0 0 0 1.31 4.614 5.324 5.324 0 0 1-1.834-4.708c.13-.865.348-1.713.652-2.533.29-.824.64-1.592.87-2.382.44-1.587.585-3.242.428-4.881a11.593 11.593 0 0 0-.484-2.382 18.399 18.399 0 0 0-.953-2.3 25.397 25.397 0 0 1-1.01-2.41 10.481 10.481 0 0 1-.556-2.62 13.46 13.46 0 0 1 .105-2.65 63.82 63.82 0 0 1 .352-2.55c.25-1.669.523-3.339.724-5.053a24.61 24.61 0 0 0 .273-5.104Z"/>
  <path fill="#EB9481" d="M203.801 155.544c-1.455.557-43.655 2.438-45.305 1.498-.178-.106-.128-1.971-.752-6.78-.028-.228-.992-1.113-2.497-2.382-5.64-4.725-18.904-14.682-18.904-14.682l21.061-18.273 20.409 20.037 5.306 5.204s17.243 8.187 18.949 9.412c1.705 1.224 3.187 5.41 1.733 5.966Z"/>
  <path fill="#65BEDC" d="M203.801 155.544c-1.455.556-43.655 2.437-45.305 1.497-.178-.106-.128-1.971-.752-6.78-.028-.228-.992-1.113-2.497-2.382 4.303-2.387 17.277-9.874 22.566-12.918l5.306 5.204s17.243 8.187 18.949 9.412c1.705 1.224 3.187 5.41 1.733 5.967Z"/>
  <path fill="#fff" d="M166.923 155.193a6.109 6.109 0 0 0-.424-1.436 6.341 6.341 0 0 0-1.761-2.394 5.91 5.91 0 0 0-2.719-1.263 7.125 7.125 0 0 0-2.988.156c-.055 0-.028.095.028.083a6.142 6.142 0 0 1 5.367 1.509 6.015 6.015 0 0 1 1.55 2.226c.165.415.286.846.362 1.286.033.222.056.445.067.668 0 .228 0 .406.156.556a.206.206 0 0 0 .15.063.23.23 0 0 0 .082-.016.217.217 0 0 0 .069-.047c.306-.256.122-1.029.061-1.391Zm30.324-8.126a4.577 4.577 0 0 0-2.547 1.113 11.797 11.797 0 0 0-2.062 2.121 11.592 11.592 0 0 0-1.455 2.521 12.91 12.91 0 0 0-.485 1.336 5.02 5.02 0 0 0-.284 1.414.088.088 0 0 0 .12.071.088.088 0 0 0 .042-.032c.166-.393.311-.794.434-1.202.163-.444.349-.879.558-1.303a15.23 15.23 0 0 1 1.454-2.349 8.921 8.921 0 0 1 4.292-3.284.2.2 0 0 0 .134-.083.203.203 0 0 0-.048-.287.203.203 0 0 0-.153-.036Zm-18.18-9.027c-5.289 2.927-10.562 5.894-15.884 8.771-1.505.813-3.004 1.67-4.525 2.438-.051.028 0 .1.044.073a167.183 167.183 0 0 0 16.163-8.316c1.476-.879 2.92-1.814 4.352-2.755a.131.131 0 0 0 .053-.084.131.131 0 0 0-.106-.15.134.134 0 0 0-.097.023Zm-19.862 10.486a.385.385 0 0 0-.056-.106l-.1-.089-.195-.167a12.236 12.236 0 0 0-1.288-.924c-.044-.028-.089.039-.05.067.267.217.557.445.791.673l.385.334.201.178c.058.062.131.11.211.14.015.003.03.003.044-.001a.08.08 0 0 0 .037-.023.075.075 0 0 0 .021-.039.079.079 0 0 0-.001-.043Zm2.474-1.404a.284.284 0 0 0-.061-.105.707.707 0 0 0-.101-.089l-.189-.167a7.393 7.393 0 0 0-.424-.334 12.348 12.348 0 0 0-.869-.59c-.039-.028-.089.039-.05.067.273.217.557.445.797.673l.384.334.201.178c.059.062.131.11.212.139a.087.087 0 0 0 .081-.023.092.092 0 0 0 .021-.039.094.094 0 0 0-.002-.044Zm2.475-1.402a.404.404 0 0 0-.062-.106l-.1-.089-.195-.167a7.738 7.738 0 0 0-.418-.334 12.7 12.7 0 0 0-.869-.59c-.039-.027-.09.039-.051.067.274.217.558.445.797.674l.379.334c.067.055.14.116.201.178a.559.559 0 0 0 .212.139.094.094 0 0 0 .082-.024.093.093 0 0 0 .024-.082Zm2.468-1.402a.275.275 0 0 0-.061-.106l-.1-.089-.19-.167c-.139-.111-.278-.228-.423-.334a12.472 12.472 0 0 0-.864-.59c-.045-.028-.095.039-.056.072.273.212.557.44.797.668l.385.334.2.178c.057.065.13.113.212.139a.08.08 0 0 0 .081-.023.083.083 0 0 0 .019-.082Zm2.475-1.403a.299.299 0 0 0-.061-.105l-.101-.089-.195-.167a7.366 7.366 0 0 0-.418-.334 12.348 12.348 0 0 0-.869-.59c-.039-.028-.089.039-.05.072.273.212.557.44.797.668l.384.334.201.178c.057.064.13.112.212.139a.087.087 0 0 0 .081-.023.092.092 0 0 0 .021-.039.094.094 0 0 0-.002-.044Zm2.475-1.403a.404.404 0 0 0-.062-.106l-.1-.089-.195-.161a7.984 7.984 0 0 0-.424-.34c-.278-.206-.557-.4-.864-.59-.044-.027-.089.039-.05.073.268.211.558.439.792.668l.384.334.201.178a.52.52 0 0 0 .212.139c.014.005.03.006.045.002a.083.083 0 0 0 .04-.022.09.09 0 0 0 .023-.04.102.102 0 0 0-.002-.046Zm2.468-1.402a.275.275 0 0 0-.061-.106l-.1-.089-.19-.162c-.139-.116-.278-.233-.423-.339a12.608 12.608 0 0 0-.87-.59c-.039-.028-.089.039-.05.072.273.212.557.44.797.668l.385.334.2.178a.562.562 0 0 0 .212.145.093.093 0 0 0 .081-.028.086.086 0 0 0 .02-.039.082.082 0 0 0-.001-.044Zm2.475-1.403a.412.412 0 0 0-.061-.106l-.101-.089-.217-.162a6.573 6.573 0 0 0-.418-.339 12.142 12.142 0 0 0-.87-.59c-.039 0-.089.039-.05.072.273.212.558.44.797.668.123.117.251.223.379.334l.206.178c.058.066.13.115.212.145a.085.085 0 0 0 .052.008.082.082 0 0 0 .047-.022.084.084 0 0 0 .027-.045.091.091 0 0 0-.003-.052Zm2.469-1.403a.385.385 0 0 0-.056-.106l-.106-.089-.189-.161-.424-.34a12.236 12.236 0 0 0-.864-.59.04.04 0 0 0-.03-.003.046.046 0 0 0-.034.048c.002.01.006.02.014.027.268.218.557.44.792.668l.384.334.201.178a.554.554 0 0 0 .212.145.083.083 0 0 0 .084-.024.084.084 0 0 0 .021-.042.086.086 0 0 0-.005-.045Z"/>
  <path fill="#455A64" d="m170.368 125.605-3.25 3.702-10.488 11.95-5.713 6.556s-21.178-20.165-29.482-24.668c-.471-.26-.961-.483-1.466-.668a6.011 6.011 0 0 0-2.118.212c-8.304 1.887-34.163 14.081-53.107 19.519l4.503-14.638 1.99-6.495c20.008-9.846 42.546-27.529 56.172-25.882 14.758 1.76 42.959 30.412 42.959 30.412Z"/>
  <path fill="#263238" d="M165.267 124.258c-3.343 3.596-2.418 2.521-5.706 6.15-1.606 1.776-9.715 10.687-10.941 12.596-.028.039.034.094.073.061 1.75-1.442 9.664-10.525 11.241-12.328 3.221-3.691 2.257-2.666 5.439-6.39a.066.066 0 0 0 .016-.05.064.064 0 0 0-.024-.047.066.066 0 0 0-.05-.016.068.068 0 0 0-.048.024Zm-47.461-1.603c-8.304 1.887-34.163 14.082-53.107 19.52l4.503-14.638 48.604-4.882Z"/>
  <path fill="#263238" d="m156.629 141.257-5.712 6.556s-21.178-20.165-29.482-24.667l35.194 18.111Z"/>
  <path fill="#263238" d="M152.199 143.522c-4.877-3.996-27.766-24.139-30.881-24.139-2.837 0-52.745 19.057-53.503 19.33-.056 0 0 .1 0 .084 5.924-2.227 51.831-18.835 53.324-18.785 3.116.1 30.162 23.287 30.787 23.749.206.123.44-.1.273-.239Z"/>
  <path fill="#455A64" d="M43.443 127.409s-3.115 17.972 5.886 25.046c9 7.074 74.931 6.211 84.935 2.978 10.004-3.234 10.316-19.347-.618-23.082-10.4-3.557-56.53-5.599-57.622-6.033-1.092-.435-4.291-5.533-4.291-5.533l-28.29 6.624Z"/>
  <path fill="#263238" d="M57.103 126.952c0-.078-.134-.05-.134 0a8.846 8.846 0 0 1-2.078 5.71c-1.533 1.765-3.79 2.756-5.841 3.791-.195.1-.045.406.156.345a17.903 17.903 0 0 0 3.617-1.559 8.715 8.715 0 0 0 2.72-2.254 7.787 7.787 0 0 0 1.56-6.033Zm17.778.172c-.457-.584-.953-1.113-1.427-1.703a116.345 116.345 0 0 0-3.444-3.98c-.111-.122-.329.056-.228.19.797 1.035 1.638 2.042 2.469 3.055l1.276 1.553c.442.472.835.987 1.176 1.536.306.557-.1 1.069-.697 1.114a2.09 2.09 0 0 1-1.438-.529 19.282 19.282 0 0 1-2.44-2.605 49.21 49.21 0 0 0-1.433-1.592c-.485-.523-1.059-1.113-1.572-1.67-.028-.033-.094 0-.067.056.452.612.864 1.252 1.31 1.865a86.19 86.19 0 0 0 1.36 1.82c.463.601.892 1.113 1.354 1.669.388.484.853.9 1.377 1.23.853.501 2.34.613 2.787-.495a1.547 1.547 0 0 0-.363-1.514Z"/>
  <path fill="#263238" d="M132.893 155.483c-3.444.067-6.883.268-10.327.34-3.444.072-6.838.089-10.254.061a353.124 353.124 0 0 1-20.571-.801c-6.922-.479-14.385-1.164-21.256-2.115-3.289-.457-6.621-.835-9.876-1.537a15.574 15.574 0 0 1-7.803-3.968c-4.458-4.314-6.18-10.653-6.894-16.698a72.09 72.09 0 0 1-.24-2.443c0-.056-.088-.056-.083 0 .401 6.212 1.371 12.685 5.278 17.683a15.509 15.509 0 0 0 6.376 4.937c3.076 1.235 6.492 1.519 9.742 1.959 6.9.935 14.395 1.67 21.334 2.198 6.938.529 13.989.88 20.994.98 7.006.1 14.011 0 21.011-.34a56.197 56.197 0 0 0 2.558-.167c.062-.011.062-.089.011-.089Z"/>
  <path fill="#EB9481" d="M59.338 96.173c10.946 7.08 20.459 10.575 24.895 10.809 3.584.189 19.919-2.054 20.688-2.438 1.9-.946 2.369-15.317.206-16.035-.496-.167-14.35 4.753-20.381 5.7-1.115.172-7.535-1.882-17.221-3.117-6.343-.808-10.116-1.197-10.55.673-.234 1.052.184 3 2.363 4.408Z"/>
  <path fill="#EB9481" d="M103.684 104.817c2.281.485 4.592.82 6.917 1.002 1.839.067 7.133.117 7.412-1.892.19-1.375-2.92-1.77-5.116-2.099-1.154-.172-2.72-.946-2.581-1.669.246-1.308 3.233-.802 5.262-.217 3.901 1.113 9.385 3.567 11.04 1.308.63-.858-.591-1.82-2.229-2.655 2.524.818 5.133 1.358 5.863.434a1.183 1.183 0 0 0-.14-1.62 1.58 1.58 0 0 0 1.622-.684c.519-.919-.1-1.926-1.153-2.85a.894.894 0 0 0 .557-.557c.925-2.66-8.232-7.341-10.979-7.302-8.098.1-16.062 2.783-16.062 2.783-2.408 3.105-.413 16.013-.413 16.018Z"/>
  <path fill="#263238" d="M115.254 95.823c3.238.078 5.902.857 9.419 2.894.066.039.145-.056.078-.106-3.266-2.304-5.256-3.056-9.519-2.989-.201.006-.179.195.022.2Zm1.683-3.863c5.79.456 9.307 3.395 13.141 5.42.056.029.095-.038.039-.072-3.572-2.226-6.403-5.193-13.136-5.565-.2-.011-.245.2-.044.217Zm2.113-3.396c4.603.396 7.802 2.883 11.274 5.171a.079.079 0 0 0 .093-.026.077.077 0 0 0-.004-.097c-3.343-2.677-6.687-5.21-11.33-5.17-.262 0-.295.1-.033.122Z"/>
  <path fill="#65BEDC" d="m75.99 91.431-2.284 5.276-2.87 6.641s-7.608-3.067-11.743-6.457c-3.038-2.499-4.191-5.176-2.714-6.467a4.117 4.117 0 0 1 2.653-.79c7.122-.201 16.959 1.797 16.959 1.797Z"/>
  <path fill="#263238" d="M73.382 91.353c-.964 2.01-4.38 9.412-4.458 10.486 0 0 .072.056.089.039.719-.801 3.706-8.388 4.492-10.475.017-.039-.106-.089-.123-.05Z"/>
  <path fill="#fff" d="M66.104 93.14a.557.557 0 0 1 0-1.08.557.557 0 0 1 0 1.08Zm0-.941a.402.402 0 0 0-.284.684.401.401 0 1 0 .284-.684Zm-7.72.467a.557.557 0 0 1 0-1.08.557.557 0 0 1 0 1.08Zm0-.94a.402.402 0 0 0-.283.684.401.401 0 1 0 .284-.684Zm14.976 3.718a.558.558 0 0 1-.304-.883.558.558 0 0 1 .304-.197.558.558 0 0 1 0 1.08Zm0-.94a.402.402 0 0 0-.284.683.402.402 0 0 0 .568-.566.401.401 0 0 0-.284-.118Zm-11.069.255a.558.558 0 1 1 0-1.115.558.558 0 0 1 0 1.115Zm0-.94a.402.402 0 0 0-.283.684.402.402 0 0 0 .685-.284.406.406 0 0 0-.401-.395v-.005Zm6.94 3.206a.557.557 0 1 1-.001-1.115.557.557 0 0 1 0 1.115Zm0-.947a.406.406 0 1 0 .4.401.4.4 0 0 0-.4-.4Zm1.192-3.729a.558.558 0 0 1-.547-.665.556.556 0 1 1 .547.665Zm0-.94a.402.402 0 0 0-.284.684.401.401 0 1 0 .284-.684Zm-8.41-.284a.558.558 0 0 1 0-1.08.558.558 0 0 1 0 1.08Zm0-.94a.402.402 0 0 0-.284.683.403.403 0 0 0 .685-.283.4.4 0 0 0-.401-.4Zm2.686 8.57a.558.558 0 0 1 0-1.08.558.558 0 0 1 .304.883.558.558 0 0 1-.304.197Zm0-.94a.402.402 0 0 0-.284.684.401.401 0 1 0 .284-.684Z"/>
  <path fill="#263238" d="m73.706 96.707-2.87 6.64s-7.608-3.067-11.743-6.457c-3.038-2.499-4.191-5.176-2.714-6.467l17.327 6.284Z"/>
  <path fill="#65BEDC" d="M76.932 123.985c-.446 1.57-9.435 6.412-20.063 8.171-.173.028-.357.061-.558.083a42.1 42.1 0 0 1-10.979.357c-.206 0-.412-.039-.624-.073a31.93 31.93 0 0 1-3.901-.751s.384-8.466 1.454-17.115c0-.167.034-.329.062-.495.596-4.782 1.41-9.568 2.48-12.986a24.949 24.949 0 0 1 4.363-8.465 11.747 11.747 0 0 1 2.742-2.455c.05-.039.106-.067.157-.1 2.418-1.458 5.238-1.636 8.36.2a24.41 24.41 0 0 1 3.148 2.394c3.015 2.588 8.405 9.183 9.174 11.104 1.265 3.178-.942 7.324-.942 7.324l5.127 12.807Z"/>
  <path fill="#fff" d="M62.76 110.043a.56.56 0 0 1-.546-.665.553.553 0 0 1 .438-.438.563.563 0 0 1 .572.237.554.554 0 0 1-.07.703.56.56 0 0 1-.394.163Zm0-.941a.402.402 0 0 0-.393.479.399.399 0 0 0 .315.315.4.4 0 0 0 .362-.677.402.402 0 0 0-.284-.117Zm6.51 7.236a.56.56 0 0 1-.547-.665.553.553 0 0 1 .438-.438.563.563 0 0 1 .572.237.554.554 0 0 1 .094.309.556.556 0 0 1-.557.579v-.022Zm0-.941a.402.402 0 0 0-.394.479.399.399 0 0 0 .316.315.4.4 0 0 0 .48-.393.4.4 0 0 0-.401-.379v-.022Zm-5.84-10.202a.56.56 0 0 1-.547-.665.557.557 0 0 1 1.103.108.556.556 0 0 1-.557.579v-.022Zm0-.941a.402.402 0 0 0-.394.479.398.398 0 0 0 .315.315.4.4 0 0 0 .48-.393.4.4 0 0 0-.402-.379v-.022Zm1.744-2.293a.56.56 0 0 1-.547-.665.557.557 0 0 1 1.104.108.556.556 0 0 1-.557.579v-.022Zm0-.941a.402.402 0 0 0-.284.685.397.397 0 0 0 .437.086.397.397 0 0 0 .248-.37.406.406 0 0 0-.401-.362v-.039Zm3.75 0a.558.558 0 0 1-.546-.665.557.557 0 0 1 1.104.109.556.556 0 0 1-.558.595v-.039Zm0-.94a.401.401 0 1 0 .402.401.403.403 0 0 0-.402-.379v-.022Zm-9.597 3.484a.56.56 0 0 1-.546-.665.557.557 0 0 1 1.104.108.556.556 0 0 1-.558.579v-.022Zm0-.941a.402.402 0 0 0-.283.685.397.397 0 0 0 .437.086.397.397 0 0 0 .247-.37.4.4 0 0 0-.4-.378v-.023Zm2.687-6.946a.557.557 0 1 1 .557-.556.556.556 0 0 1-.557.579v-.023Zm0-.94a.402.402 0 0 0-.284.684.402.402 0 0 0 .685-.284.4.4 0 0 0-.401-.378v-.022Zm-4.56 2.393a.558.558 0 0 1-.546-.665.556.556 0 0 1 1.104.108.557.557 0 0 1-.557.59v-.033Zm0-.946a.408.408 0 0 0-.405.482.405.405 0 0 0 .554.3.408.408 0 0 0 .253-.376.406.406 0 0 0-.401-.384v-.022Zm3.684 3.59a.558.558 0 0 1-.546-.665.556.556 0 0 1 1.104.108.555.555 0 0 1-.557.579v-.022Zm0-.941a.402.402 0 1 0 0 .803.402.402 0 0 0 0-.803Zm4.259-.556a.558.558 0 0 1-.547-.666.556.556 0 0 1 .76-.405.557.557 0 0 1-.213 1.07Zm0-.941a.401.401 0 1 0 .4.4.4.4 0 0 0-.4-.389v-.011Zm-14.83 5.299a.56.56 0 0 1-.547-.666.556.556 0 0 1 1.103.109.55.55 0 0 1-.159.401.553.553 0 0 1-.398.167v-.011Zm0-.947a.406.406 0 0 0 0 .807.405.405 0 0 0 0-.807Zm-.943-7.397a.557.557 0 1 1 0-1.114.557.557 0 0 1 0 1.114Zm0-.946a.407.407 0 1 0 0 .814.407.407 0 0 0 0-.814Zm-3.934 10.241a.557.557 0 0 1-.394-.95.554.554 0 0 1 .909.608.557.557 0 0 1-.521.342h.006Zm0-.94a.401.401 0 0 0-.284.684.4.4 0 1 0 .278-.684h.006Zm7.869 7.397a.56.56 0 0 1-.547-.665.553.553 0 0 1 .438-.438.563.563 0 0 1 .572.237.555.555 0 0 1-.254.825.565.565 0 0 1-.215.041h.006Zm0-.941a.403.403 0 0 0-.394.479.399.399 0 0 0 .316.315.399.399 0 0 0 .449-.548.41.41 0 0 0-.221-.217.394.394 0 0 0-.156-.029h.006Zm-.474 11.438a.56.56 0 0 1-.546-.665.557.557 0 1 1 .546.665Zm0-.941a.403.403 0 0 0-.393.479.399.399 0 0 0 .315.315.397.397 0 0 0 .48-.393.4.4 0 0 0-.402-.412v.011Zm-8.426 5.01a.56.56 0 0 1-.547-.666.556.556 0 0 1 1.104.109.555.555 0 0 1-.557.545v.012Zm0-.947a.408.408 0 0 0-.406.482.404.404 0 0 0 .319.323.41.41 0 0 0 .461-.556.409.409 0 0 0-.374-.26v.011Zm1.27 7.564a.555.555 0 0 1 0-1.079.555.555 0 0 1 0 1.079Zm0-.94a.402.402 0 1 0 .401.4.398.398 0 0 0-.245-.38.398.398 0 0 0-.156-.031v.011Zm2.915-17.922a.56.56 0 0 1-.547-.666.554.554 0 0 1 .438-.437.563.563 0 0 1 .572.237.554.554 0 0 1 .094.309.555.555 0 0 1-.557.546v.011Zm0-.947a.411.411 0 0 0-.36.404.404.404 0 0 0 .36.404.411.411 0 0 0 .36-.404.404.404 0 0 0-.36-.404Zm-.474 10.18a.558.558 0 0 1-.546-.665.557.557 0 0 1 1.104.109.555.555 0 0 1-.558.545v.011Zm0-.946a.408.408 0 0 0-.295.692.405.405 0 0 0 .627-.059.406.406 0 0 0 .07-.226.407.407 0 0 0-.402-.418v.011Zm4.409 8.572a.559.559 0 0 1-.637-.784.558.558 0 0 1 .637-.296.56.56 0 0 1 .636.296.555.555 0 0 1-.385.788.56.56 0 0 1-.251-.004Zm0-.941a.402.402 0 0 0-.394.479.399.399 0 0 0 .315.315.4.4 0 0 0 .48-.393.4.4 0 0 0-.401-.412v.011Zm-10.233.941a.56.56 0 0 1-.546-.666.561.561 0 0 1 .438-.437.563.563 0 0 1 .572.237.554.554 0 0 1 .094.309.555.555 0 0 1-.558.546v.011Zm0-.941a.402.402 0 0 0-.393.479.398.398 0 0 0 .315.315.4.4 0 0 0 .48-.393.4.4 0 0 0-.402-.412v.011Zm0-7.492a.545.545 0 0 1-.478-.101.555.555 0 0 1 .478-.978.555.555 0 0 1 0 1.079Zm0-.94a.401.401 0 1 0 .402.4.398.398 0 0 0-.245-.38.398.398 0 0 0-.157-.031v.011Zm1.505-6.206a.56.56 0 0 1-.547-.665.553.553 0 0 1 .438-.438.563.563 0 0 1 .572.237.557.557 0 0 1-.463.866Zm0-.941a.402.402 0 0 0-.284.684.407.407 0 0 0 .206.11.409.409 0 0 0 .412-.17.402.402 0 0 0-.334-.624Zm25.693-.824a.555.555 0 0 1 0-1.079.555.555 0 0 1 0 1.079Zm0-.94a.402.402 0 1 0 .15.029.394.394 0 0 0-.156-.029h.006Zm-.469 10.313a.558.558 0 0 1-.546-.665.557.557 0 1 1 .54.665h.006Zm0-.94a.401.401 0 0 0-.283.684.4.4 0 1 0 .278-.684h.005Zm4.738 5.682a.554.554 0 0 1-.304-.882.554.554 0 0 1 .304-.197.554.554 0 0 1 .303.882.554.554 0 0 1-.303.197Zm0-.94a.401.401 0 1 0 .15.029.393.393 0 0 0-.156-.029h.006Zm-6.984 2.555a.56.56 0 0 1-.546-.666.557.557 0 1 1 .54.666h.006Zm0-.947a.411.411 0 0 0-.359.404.408.408 0 0 0 .36.403.405.405 0 0 0 0-.807Zm-12.26-11.393a.56.56 0 0 1-.547-.665.556.556 0 1 1 .54.665h.006Zm0-.941a.403.403 0 0 0-.284.685.397.397 0 0 0 .437.086.397.397 0 0 0 .217-.525.405.405 0 0 0-.376-.246h.005Zm7.245 6.451a.557.557 0 0 1-.394-.95.554.554 0 0 1 .952.394.555.555 0 0 1-.559.556Zm0-.94a.401.401 0 0 0-.284.684.4.4 0 1 0 .284-.684Zm-12.04 12.801a.56.56 0 0 1-.546-.665.557.557 0 1 1 1.063.323.569.569 0 0 1-.302.305.564.564 0 0 1-.215.043v-.006Zm0-.941a.403.403 0 0 0-.283.685.402.402 0 1 0 .283-.685Zm8.594-19.825a.56.56 0 0 1-.546-.665.557.557 0 1 1 1.063.323.554.554 0 0 1-.517.347v-.005Zm0-.941a.402.402 0 0 0-.284.684.4.4 0 0 0 .618-.06.402.402 0 0 0 .068-.223.402.402 0 0 0-.402-.395v-.006Zm-.646 7.765a.56.56 0 0 1-.547-.666.557.557 0 1 1 1.063.324.554.554 0 0 1-.516.347v-.005Zm0-.941a.4.4 0 0 0-.078.794.399.399 0 0 0 .48-.393.402.402 0 0 0-.402-.401Zm-5.144 7.141a.56.56 0 0 1-.547-.665.557.557 0 1 1 1.063.323.567.567 0 0 1-.302.305.564.564 0 0 1-.214.043v-.006Zm0-.941a.402.402 0 0 0-.394.479.399.399 0 0 0 .315.315.397.397 0 1 0 .078-.788v-.006Zm4.676 4.587a.56.56 0 0 1-.547-.666.557.557 0 0 1 1.104.109.557.557 0 0 1-.557.562v-.005Zm0-.941a.402.402 0 0 0-.284.684.402.402 0 0 0 .567-.567.402.402 0 0 0-.283-.117Zm-1.7 4.336a.56.56 0 0 1-.547-.665.553.553 0 0 1 .438-.438.563.563 0 0 1 .572.237.556.556 0 0 1-.463.866Zm0-.946a.402.402 0 0 0-.38.248.405.405 0 0 0 .532.532.402.402 0 0 0 .25-.38.404.404 0 0 0-.402-.4Zm9.875-17.538a.56.56 0 0 1-.546-.666.557.557 0 1 1 .53.666h.016Zm0-.941a.402.402 0 0 0-.283.684.402.402 0 0 0 .567-.567.402.402 0 0 0-.284-.117Zm7.48 4.781a.56.56 0 0 1-.636-.296.554.554 0 0 1 .385-.788.56.56 0 0 1 .555.202.556.556 0 0 1-.304.882Zm0-.941a.402.402 0 0 0-.284.684.392.392 0 0 0 .206.11.392.392 0 0 0 .231-.023.397.397 0 0 0 .248-.37.4.4 0 0 0-.418-.401h.017Zm-6.292-7.569a.559.559 0 0 1-.637-.784.558.558 0 0 1 .637-.296.56.56 0 0 1 .636.296.555.555 0 0 1-.385.788.56.56 0 0 1-.251-.004Zm0-.941a.402.402 0 0 0-.394.479.399.399 0 0 0 .315.315.408.408 0 0 0 .412-.17.402.402 0 0 0-.35-.624h.017Zm1.488-2.376a.56.56 0 0 1-.547-.666.557.557 0 1 1 .53.666h.017Zm0-.941a.401.401 0 1 0 .142.025.408.408 0 0 0-.159-.025h.017Zm3.544-.251a.558.558 0 0 1-.515-.343.558.558 0 1 1 .499.343h.016Zm0-.946a.405.405 0 0 0-.376.251.406.406 0 1 0 .36-.251h.016Zm-.468 4.637a.56.56 0 0 1-.547-.666.557.557 0 1 1 .525.666h.022Zm0-.941a.4.4 0 0 0-.078.794.4.4 0 0 0 .447-.552.408.408 0 0 0-.23-.218.399.399 0 0 0-.161-.024h.022Zm-12.969.557a.56.56 0 0 1-.546-.666.557.557 0 0 1 1.104.109.555.555 0 0 1-.574.534l.016.023Zm0-.947a.408.408 0 0 0-.405.482.402.402 0 0 0 .318.323.41.41 0 0 0 .488-.398.403.403 0 0 0-.256-.389.407.407 0 0 0-.161-.029l.016.011Zm-3.438-5.565a.56.56 0 0 1-.547-.666.556.556 0 0 1 1.104.109.55.55 0 0 1-.173.392.549.549 0 0 1-.401.153l.017.012Zm0-.941a.402.402 0 1 0 .4.401.4.4 0 0 0-.417-.429l.017.028Zm-3.121-1.853a.558.558 0 0 1 0-1.08.557.557 0 0 1 0 1.08Zm0-.941a.401.401 0 1 0 .4.4.4.4 0 0 0-.4-.389v-.011Zm2.457 8.349a.56.56 0 0 1-.546-.666.556.556 0 1 1 .53.666h.016Zm0-.941a.402.402 0 0 0-.283.684.402.402 0 0 0 .567-.567.402.402 0 0 0-.284-.117Zm-6.626-5.911a.557.557 0 1 1 0-1.115.557.557 0 0 1 0 1.115Zm0-.946a.408.408 0 0 0-.293.693.406.406 0 0 0 .694-.292.4.4 0 0 0-.401-.379v-.022Zm6.342-2.677a.558.558 0 0 1-.394-.95.558.558 0 0 1 .951.393.555.555 0 0 1-.557.579v-.022Zm0-.941a.401.401 0 1 0 .401.4.4.4 0 0 0-.4-.378v-.022Zm4.069-1.475a.558.558 0 0 1-.547-.665.556.556 0 0 1 1.01-.2.55.55 0 0 1 .094.308.555.555 0 0 1-.557.58v-.023Zm0-.94a.402.402 0 0 0-.284.684.401.401 0 0 0 .685-.284.4.4 0 0 0-.401-.378v-.023Zm-4.275-.607a.558.558 0 0 1-.304-.882.558.558 0 0 1 .304-.198.558.558 0 0 1 0 1.08Zm0-.94a.401.401 0 1 0 .401.4.4.4 0 0 0-.401-.379v-.022Zm-3.344 25.886a.56.56 0 0 1-.547-.665.557.557 0 0 1 1.104.108.557.557 0 0 1-.585.579l.028-.022Zm0-.946a.41.41 0 0 0-.38.248.405.405 0 0 0 .533.532.401.401 0 0 0 .248-.379.402.402 0 0 0-.429-.379l.028-.022Zm-.853-8.477a.56.56 0 0 1-.546-.665.557.557 0 1 1 .546.665Zm0-.941a.4.4 0 0 0-.366.252.4.4 0 0 0 .527.519.404.404 0 0 0 .215-.525.394.394 0 0 0-.22-.217.412.412 0 0 0-.156-.029Zm-4.631 2.611a.56.56 0 0 1-.547-.665.553.553 0 0 1 .438-.438.563.563 0 0 1 .572.237.555.555 0 0 1-.254.825.566.566 0 0 1-.215.041h.006Zm0-.946a.402.402 0 0 0-.405.484.406.406 0 0 0 .806-.084.398.398 0 0 0-.251-.372.412.412 0 0 0-.156-.028h.006Zm.697 10.497a.56.56 0 0 1-.547-.665.553.553 0 0 1 .438-.438.563.563 0 0 1 .572.237.555.555 0 0 1-.254.825.565.565 0 0 1-.215.041h.006Zm0-.941a.402.402 0 0 0-.394.479.398.398 0 0 0 .315.315.4.4 0 0 0 .228-.765.394.394 0 0 0-.155-.029h.006Zm2.942 10.575a.552.552 0 0 1-.515-.343.557.557 0 1 1 1.073-.213.556.556 0 0 1-.563.54l.005.016Zm0-.946a.408.408 0 0 0-.405.482.408.408 0 0 0 .806-.076.404.404 0 0 0-.247-.39.398.398 0 0 0-.16-.033l.006.017Zm12.919-10.92a.56.56 0 0 1-.547-.665.557.557 0 0 1 1.104.108.557.557 0 0 1-.563.54l.006.017Zm0-.941a.403.403 0 0 0-.394.479.399.399 0 0 0 .316.315.4.4 0 0 0 .48-.393.4.4 0 0 0-.408-.417l.006.016Zm-3.623 9.323a.56.56 0 0 1-.636-.296.555.555 0 0 1 .386-.788.56.56 0 0 1 .554.202.556.556 0 0 1-.304.882Zm0-.941a.403.403 0 0 0-.283.685.398.398 0 0 0 .437.086.397.397 0 0 0 .248-.37.404.404 0 0 0-.248-.387.396.396 0 0 0-.16-.03l.006.016Zm4.37 2.811a.552.552 0 0 1-.515-.343.557.557 0 1 1 1.072-.213.556.556 0 0 1-.563.539l.006.017Zm0-.94a.402.402 0 0 0-.284.684.4.4 0 0 0 .685-.284.408.408 0 0 0-.407-.417l.006.017Zm3.104-6.819a.558.558 0 0 1-.515-.343.558.558 0 1 1 1.072-.213.558.558 0 0 1-.563.54l.006.016Zm0-.94a.401.401 0 0 0-.284.684.4.4 0 0 0 .685-.284.398.398 0 0 0-.113-.296.404.404 0 0 0-.293-.121l.005.017Zm.245 6.083a.552.552 0 0 1-.515-.343.557.557 0 1 1 1.073-.213.556.556 0 0 1-.563.54l.005.016Zm0-.94a.402.402 0 0 0-.284.684.4.4 0 0 0 .685-.284.395.395 0 0 0-.113-.296.405.405 0 0 0-.293-.121l.005.017Zm8.065-.852a.56.56 0 0 1-.547-.665.557.557 0 0 1 1.104.108.557.557 0 0 1-.563.54l.006.017Zm0-.946a.406.406 0 1 0 .407.406.407.407 0 0 0-.413-.423l.006.017Zm-3.288 3.779a.56.56 0 0 1-.547-.665.557.557 0 1 1 .547.665Zm0-.941a.403.403 0 0 0-.402.401.4.4 0 0 0 .401.401.4.4 0 1 0 0-.802Zm-8.812 6.679a.559.559 0 0 1-.515-.343.557.557 0 1 1 1.073-.213.556.556 0 0 1-.558.534v.022Zm0-.94a.402.402 0 1 0 .401.401.404.404 0 0 0-.242-.391.378.378 0 0 0-.159-.032v.022Z"/>
  <path fill="#263238" d="M56.869 132.157c-.173.027-.357.061-.558.083-3.628.598-7.32.718-10.979.356-.206 0-.412-.039-.624-.072a32.314 32.314 0 0 1-3.901-.751s.384-8.466 1.454-17.115c0-.167.034-.329.062-.496.596-4.781 1.41-9.567 2.48-12.985a24.947 24.947 0 0 1 4.363-8.466 11.745 11.745 0 0 1 2.742-2.454l4.96 41.9Z"/>
  <path fill="#EB9481" d="M91.145 111.74c.813 2.059-5.222 3.852-6.605 4.609-1.382.757-1.443 1.213-.557 1.352.185.021.372.021.557 0-2.446.429-10.968.796-10.968.796s3.901-3.273 6.092-4.692c2.19-1.419 10.645-4.13 11.48-2.065Z"/>
  <path fill="#EB9481" d="M46.213 95.833c-7.35 9.974-14.523 28.475-9.736 31.859 6.46 4.536 26.328 7.163 42.016 6.829 2.174-.05-.2-16.441-2.519-16.514-2.926-.083-25.18-.796-25.76-1.397-.49-.517 1.038-8.816 1.784-17.493.87-10.141-3.683-6.14-5.785-3.284Z"/>
  <path fill="#fff" d="M103.623 99.284a2.631 2.631 0 0 1 2.173-1.853c1.85-.345 5.356-.952 6.097-1.22l1.187.084-10.823 23.177-8.36 2.02-16.72-6.907 9.23-22.169 1.204.067s2.106.963 3.901 1.575 8.014 1.653 12.111 5.226Z"/>
  <path fill="#37474F" d="m92.253 121.927 9.898-22.392-16.452-7.441-9.602 22.914 16.156 6.919Z"/>
  <path fill="#263238" d="m92.253 121.927 2.48.445 9.926-22.386-2.508-.45-9.898 22.391Z"/>
  <path fill="#37474F" d="m94.733 122.372 9.926-22.386 8.956-3.84-11.107 23.588-7.775 2.638Z"/>
  <path fill="#EB9481" d="M98.852 118.13c.636 1.853-1.95 3.573-2.129 3.69.162-.089 2.575-1.33 3.066.557.49 1.887-1.578 3.896-1.578 3.896s1.004.094.747 1.642c-.379 2.226-4.637 4.53-7.15 5.215-2.514.685-12.222 1.336-13.71 1.408l-4.51-16.063s8.522-.367 10.969-.796h.039a42.11 42.11 0 0 0 5.066-1.069c2.608-.823 5.361-4.051 6.515-2.387 1.037 1.491-1.115 3.545-1.115 3.545s3.144-1.558 3.79.362Z"/>
  <path fill="#263238" d="M94.918 117.801c-3.166 2.661-5.016 3.273-9.04 3.824-.078 0-.078.133 0 .128 3.996-.184 6.42-.624 9.168-3.802.14-.156.022-.272-.128-.15Zm1.912 3.881c-3.529 2.471-5.524 3.155-9.698 4.04-.062 0-.045.117 0 .106 4.174-.523 6.582-1.018 9.78-3.952.157-.133.084-.311-.083-.194Zm1.32 4.597c-3.584 2.148-5.74 2.994-9.904 3.339a.078.078 0 1 0 0 .156c4.286.061 6.978-.974 9.96-3.373.206-.167.172-.256-.056-.122Z"/>
  <path fill="#65BEDC" d="m37.82 108.557 14.446-.406s.953-6.924.803-11.739c-.1-3.15-.48-6.078-.875-6.228-.519-.2-2.603.969-4.51 3.095a58.057 58.057 0 0 0-9.864 15.278Z"/>
  <path fill="#fff" d="M44.659 101.511a.556.556 0 0 1 0-1.08.556.556 0 0 1 0 1.08Zm0-.941a.402.402 0 0 0-.284.684.399.399 0 0 0 .437.087.404.404 0 0 0 .248-.37.4.4 0 0 0-.401-.401Zm1.967-3.417a.558.558 0 0 1-.547-.665.556.556 0 0 1 1.104.108.556.556 0 0 1-.557.568v-.011Zm0-.946a.408.408 0 0 0-.405.482.405.405 0 0 0 .554.3.408.408 0 0 0 .135-.662.407.407 0 0 0-.284-.12Zm4.91 7.413a.558.558 0 0 1-.547-.665.557.557 0 1 1 .547.665Zm0-.946a.408.408 0 0 0-.295.692.408.408 0 0 0 .696-.286.407.407 0 0 0-.401-.406Zm-9.931 1.38a.558.558 0 0 1-.547-.665.557.557 0 1 1 .547.665Zm0-.94a.401.401 0 1 0-.002.802.401.401 0 0 0 .002-.802Zm5.79 2.081a.559.559 0 0 1-.515-.343.557.557 0 1 1 .515.343Zm0-.94a.402.402 0 1 0-.002.803.402.402 0 0 0 .002-.803Zm1.187-3.735a.56.56 0 0 1-.547-.665.556.556 0 0 1 1.01-.2c.062.09.094.198.094.308a.56.56 0 0 1-.546.54l-.01.017Zm0-.94a.402.402 0 0 0-.07.794.406.406 0 0 0 .41-.172.398.398 0 0 0-.05-.502.407.407 0 0 0-.279-.12h-.01Zm-9.14 8.576a.558.558 0 0 1-.547-.665.557.557 0 1 1 .558.665h-.01Zm0-.946a.41.41 0 0 0-.38.249.403.403 0 0 0 .087.445.404.404 0 0 0 .446.087.407.407 0 0 0-.142-.781h-.01Zm10.64.663a.56.56 0 0 1-.547-.666.557.557 0 1 1 .558.666h-.012Zm0-.941a.4.4 0 1 0 .154.771.4.4 0 0 0 .133-.65.4.4 0 0 0-.276-.121h-.012Zm-.458-13.325a.558.558 0 1 1 0-1.115.558.558 0 0 1 0 1.115Zm0-.94a.402.402 0 0 0-.276.686.402.402 0 1 0 .276-.686Zm1.75 5.232a.557.557 0 1 1 .21-.041.557.557 0 0 1-.215.04h.005Zm0-.947a.407.407 0 1 0 .282.12.407.407 0 0 0-.287-.12h.005Zm-8.025 10.136a.56.56 0 0 1-.547-.665.557.557 0 1 1 .541.665h.006Zm0-.941a.402.402 0 0 0-.284.684.399.399 0 0 0 .438.087.403.403 0 0 0 .247-.37.403.403 0 0 0-.407-.401h.006Z"/>
  <path fill="#263238" d="M51.697 105.897a95.675 95.675 0 0 0-12.222.134c-.028 0-.028.094 0 .094 3.344.151 9.998 0 12.228-.094.033 0 .039-.134-.006-.134Z"/>
  <path fill="#EB9481" d="M52.539 90.746c.211.634 3.695 4.541 6.637 4.13.959-.14.446-5.4.446-5.4l.056-.394.708-5.566-6.783-3.507-.975-.456s-.095 1.53-.195 3.44v.583c0 .284-.04.556-.05.868-.012.312 0 .434 0 .668v.696a36.839 36.839 0 0 0 .156 4.937Z"/>
  <path fill="#263238" d="M52.41 82.998a11.25 11.25 0 0 0 7.245 6.084l.708-5.566-6.782-3.507-.976-.456s-.072 1.536-.195 3.445Z"/>
  <path fill="#EB9481" d="M67.943 75.569c.312 9.83-5.573 11.132-7.669 11.193-1.928.055-8.493 0-9.82-9.73-1.326-9.728 3.143-12.996 7.54-13.357 4.398-.362 9.631 2.065 9.949 11.894Z"/>
  <path fill="#263238" d="M66.076 74.132a6.708 6.708 0 0 1-.658-.167 1.116 1.116 0 0 1-.64-.295.362.362 0 0 1 0-.428.864.864 0 0 1 .863-.167c.313.056.593.226.786.478a.378.378 0 0 1-.351.58Zm-6.816-.049a5.41 5.41 0 0 0 .669-.117c.242-.005.476-.091.663-.245a.35.35 0 0 0 0-.429.869.869 0 0 0-.847-.234 1.288 1.288 0 0 0-.82.418.373.373 0 0 0 .335.607Zm1.215 2.525s-.05.034-.05.062c0 .668-.089 1.436-.697 1.67v.033c.747-.106.87-1.13.747-1.765Z"/>
  <path fill="#263238" d="M59.89 75.901c-1.075-.094-1.193 2.06-.195 2.154.998.095 1.076-2.042.195-2.154Z"/>
  <path fill="#263238" d="M59.46 76.013c-.194.117-.395.323-.623.328-.229.006-.452-.222-.608-.45h-.039c-.028.417.106.846.557.935.452.089.714-.273.836-.685.017-.078-.044-.195-.122-.128Zm5.212.517c0-.027.05.034.044.062-.06.668 0 1.441.557 1.703v.033c-.707-.15-.751-1.174-.601-1.797Z"/>
  <path fill="#263238" d="M65.33 75.868c1.08 0 1.03 2.149 0 2.16-1.031.01-.909-2.149 0-2.16Z"/>
  <path fill="#263238" d="M65.787 76.014c.167.117.334.329.557.345.223.017.418-.206.557-.428h.034c0 .412-.145.84-.558.913-.412.072-.624-.295-.713-.713-.017-.039.044-.156.123-.117Zm-2.353 3.445s.095 1.001.073 1.475c0 .044-.117.06-.273.06a2.233 2.233 0 0 1-2.14-.929c-.034-.044.027-.089.072-.06a3.347 3.347 0 0 0 2.023.673c.04-.129-.223-1.715-.15-1.72.366.046.724.144 1.064.29-.14-2.1-.613-4.159-.724-6.251a.067.067 0 0 1 .128-.028c.573 2.186.93 4.423 1.064 6.679.006.29-.953-.106-1.137-.19Z"/>
  <path fill="#263238" d="M51.134 77.483c2.324 0 2.274-3.657 2.274-3.657s2.63-.267 2.787-4.514a6.444 6.444 0 0 0 4.865 3.045c.758.1-1.794-1.831-1.794-1.831s3.065 2.716 8.688 1.625c.396-.078-.507-6.006-4.943-7.993-4.437-1.987-8.416-.801-11.147 2.01 0 0-3.227 1.519-3.561 4.586-.334 3.067 1.928 6.729 2.831 6.729Z"/>
  <path fill="#EB9481" d="M52.037 77.739s-1.973-3.184-3.41-2.494c-1.439.69-.062 5.221 1.554 5.917a1.673 1.673 0 0 0 2.28-.774l-.424-2.65Z"/>
  <path fill="#263238" d="M49.066 76.531v.045c1.115.556 1.672 1.62 2.03 2.744a.918.918 0 0 0-1.36-.323c-.034 0 0 .067 0 .061a1.031 1.031 0 0 1 1.114.418c.197.294.362.61.49.94.045.106.234.062.2-.061v-.028c.096-1.458-.924-3.562-2.474-3.796Z"/>
  <path fill="#A6A6A6" d="M229.36 157.274H22.6v6.78h206.76v-6.78Z"/>
  <path fill="#263238" d="M57.426 169.442c-2.073-2.026-4.753-4.453-7.919-3.601-2.982.824-4.124 4.069-4.654 6.779-.69 3.49-1.226 7.013-1.778 10.525-.551 3.512-1.114 7.097-1.599 10.653-.29 2.004-.574 4.01-.853 6.017a455.183 455.183 0 0 0-.423 3.011c-.134.985-.301 1.97-.351 2.961 0 .317.479.362.557.061.385-1.669.557-3.411.791-5.115.234-1.703.49-3.417.742-5.12.501-3.395 1.01-6.789 1.527-10.18.507-3.39 1.042-6.779 1.582-10.169.457-2.872.675-6.445 3.227-8.349a4.925 4.925 0 0 1 4.771-.445c1.672.64 3.015 1.837 4.33 3.028.05.022.095-.017.05-.056Z"/>
  <path fill="#65BEDC" d="M54.595 167.372s-4.236-1.525-6.326 1.564.407 10.942 19.696 15.373a54.37 54.37 0 0 0-4.643-17.416c-4.135-9.005-11.503-5.593-8.727.479Z"/>
  <path fill="#263238" d="M66.856 183.023a15.479 15.479 0 0 0-.97-1.564 133.17 133.17 0 0 0-.98-1.481c-.246-.373-.502-.74-.753-1.113 0-.089 0-.184.033-.278l.067-.501c.05-.362.1-.718.156-1.08.056-.362.112-.718.179-1.074a5.47 5.47 0 0 1 .256-1.114c0-.055-.078-.083-.09 0a3.684 3.684 0 0 1-.172.635c-.044.161-.083.328-.128.49-.095.362-.184.729-.262 1.113-.078.384-.145.685-.2 1.024-.028.167-.05.328-.073.495a53.681 53.681 0 0 0-1.059-1.452 63.871 63.871 0 0 0-3.227-3.896v-.034c.1-2.026.05-4.029.502-6.022 0-.05-.073-.084-.084-.028a20.759 20.759 0 0 0-.702 5.716 61.888 61.888 0 0 0-1.22-1.336 94.308 94.308 0 0 0-2.876-2.977.048.048 0 0 0-.029-.007.05.05 0 0 0-.026.013.046.046 0 0 0-.013.026.05.05 0 0 0 .006.029c1.628 1.748 3.171 3.568 4.67 5.421a33.941 33.941 0 0 0-3.522.128c-1.31.1-2.608.267-3.9.445-.057 0-.04.095 0 .084 1.292-.185 2.595-.3 3.9-.345 1.254-.056 2.508 0 3.768 0a187.31 187.31 0 0 1 2.407 3.039h-1.07c-.557 0-1.17.055-1.755.105a26.605 26.605 0 0 0-3.561.557.046.046 0 0 0-.022.016.048.048 0 0 0-.008.026c0 .009.003.018.008.025a.048.048 0 0 0 .022.017 47.353 47.353 0 0 1 3.566-.284h2.592c.163.02.328.004.485-.045.518.674 1.042 1.342 1.555 2.021.407.556.814 1.079 1.21 1.625.395.545.768 1.174 1.22 1.697.015.014.035.02.056.019a.077.077 0 0 0 .044-.135Z"/>
  <path fill="#263238" d="M56.44 171.747a12.805 12.805 0 0 0-2.062-.101c-.691 0-1.377 0-2.068.045-.007-.003-.014-.003-.021-.003a.047.047 0 0 0-.034.024.042.042 0 0 0-.005.021.04.04 0 0 0 .005.02.039.039 0 0 0 .014.016.048.048 0 0 0 .02.008 24.028 24.028 0 0 1 2.117-.053c.696.011 1.348.073 2.023.056.028 0 .033-.033.01-.033Zm6.052 1.552a21.202 21.202 0 0 1 .303-1.986.038.038 0 0 0-.008-.019.053.053 0 0 0-.016-.015.05.05 0 0 0-.02-.005.05.05 0 0 0-.021.005.054.054 0 0 0-.016.015.043.043 0 0 0-.005.04c-.1.652-.223 1.292-.318 1.943-.05.323-.094.646-.133.974-.06.302-.086.61-.078.918a.06.06 0 0 0 .016.04.057.057 0 0 0 .079 0 .058.058 0 0 0 .016-.04 5.56 5.56 0 0 0 .1-.912c.05-.334.05-.646.1-.958Zm-1.27-7.29c-.167.64-.335 1.291-.452 1.942-.061.328-.111.662-.156.996a4.074 4.074 0 0 0-.067.974h.05c.078-.303.13-.612.157-.924.039-.322.089-.64.145-.957.117-.673.24-1.341.406-1.998.023-.056-.066-.084-.083-.033Zm-25.113 39.066a199.388 199.388 0 0 0-.352-3.635 256.943 256.943 0 0 0-.869-7.185c-.323-2.383-.63-4.77-1.014-7.147a17.444 17.444 0 0 0-.736-3.245 3.06 3.06 0 0 0-1.8-2.031c-2.268-.78-3.8 1.569-4.715 3.233 0 .051.045.084.078.039.557-.784 2.062-3 3.784-2.894 1.16.067 2.085.891 2.642 3.774 1.388 7.185 2.636 21.768 2.787 22.725.078.507.434.484.434-.061.006-1.191-.133-2.393-.24-3.573Z"/>
  <path fill="#65BEDC" d="M27.236 184.169s1.984-6.997-2.402-3.496c-7.301 5.822-7.535 18.484-7.535 18.484s12.974-7.525 14.585-12.489c2.385-7.397-4.648-2.499-4.648-2.499Z"/>
  <path fill="#263238" d="M29.694 187.604c-1.02.206-2.05.339-3.082.489l-1.46.206c-.329.045-.663.073-.992.117.964-1.33 1.94-2.655 2.87-4.013.034-.05-.05-.106-.089-.061a29.148 29.148 0 0 0-2.168 2.499c-.19-.557-.384-1.085-.557-1.625-.223-.629-.457-1.252-.619-1.898 0-.05-.1-.028-.083 0 .178.64.3 1.297.473 1.937.173.64.357 1.235.558 1.837a51.379 51.379 0 0 0-1.371 1.886c-.223-.634-.502-1.246-.697-1.886a.043.043 0 0 0-.023-.021.041.041 0 0 0-.03-.001.043.043 0 0 0-.025.019.044.044 0 0 0-.006.03c.235.707.357 1.447.558 2.16-.296.434-.597.868-.88 1.308a61.707 61.707 0 0 0-1.5 2.46.195.195 0 0 0-.112.195 140.282 140.282 0 0 0-2.368 4.302c-.028.05.05.095.072.045a60.388 60.388 0 0 1 2.52-4.197 2.35 2.35 0 0 1 .423-.083l.446-.095c.34-.072.669-.161 1.003-.245a30.16 30.16 0 0 1 1.979-.434c.055 0 0-.089 0-.078-.786.145-1.572.234-2.363.328-.38.045-.753.089-1.115.151h-.05c.468-.707.936-1.408 1.415-2.104.48-.696.959-1.358 1.444-2.032.451-.061.897-.178 1.343-.267l1.505-.289c1.003-.201 2.006-.423 3.015-.59.044.022.016-.062-.034-.05Z"/>
  <path fill="#263238" d="M21.89 188.294c-.055-.184-.11-.373-.172-.557-.12-.386-.218-.778-.295-1.174 0-.056-.094-.028-.083.027.083.396.172.785.267 1.18.08.396.192.785.334 1.164.039.089.178.055.15-.045-.056-.2-.133-.401-.2-.595Zm9.13-2.31c-.59.089-1.192.128-1.783.184a33 33 0 0 0-1.783.223c-.034 0-.034.055 0 .05a27.528 27.528 0 0 0 1.783-.162c.597-.078 1.187-.167 1.784-.206.055-.005.05-.1 0-.089Zm14.635 10.252c-.228-5.148-.557-10.291-1.075-15.417a205.832 205.832 0 0 0-.909-7.647 54.11 54.11 0 0 0-1.477-7.409 14.193 14.193 0 0 0-2.463-5.215 5.622 5.622 0 0 0-5.016-2.176c-2.23.278-4.074 1.698-5.646 3.239-1.76 1.731-3.377 3.624-5.016 5.477-.412.468-.824.935-1.231 1.414-.034.039 0 .1.067.055a83.274 83.274 0 0 1 5.015-5.309c1.606-1.576 3.26-3.295 5.479-3.947a5.64 5.64 0 0 1 3.182-.072 5.104 5.104 0 0 1 2.185 1.386 11.453 11.453 0 0 1 2.452 4.764c1.388 4.731 1.884 9.696 2.397 14.583.524 4.97.875 9.946 1.114 14.933.24 4.987.446 10.019.931 15.028.061.618.14 1.23.217 1.848.056.412.697.412.664 0-.396-5.204-.636-10.375-.87-15.535Z"/>
  <path fill="#65BEDC" d="M28.813 162.156s2.943-5.443-.557-7.191c-3.5-1.747-15.103 11.215-18.503 30.217 0 0 18.81-8.31 25.196-16.592 6.387-8.282-.858-10.102-6.136-6.434Z"/>
  <path fill="#263238" d="M31.577 166.581c-2.112 0-4.219-.162-6.336-.145.395-.456.791-.907 1.192-1.358a20.009 20.009 0 0 0 1.672-1.92c0-.045-.039-.106-.078-.073a15.606 15.606 0 0 0-1.6 1.603c-.529.557-1.058 1.114-1.582 1.67-.808.874-1.6 1.759-2.391 2.65v-3.512c0-1.453 0-2.911.111-4.359 0-.055-.083-.055-.083 0-.106 1.459-.256 2.906-.323 4.364a46.35 46.35 0 0 0-.062 2.149v1.73l-.373.418a122.318 122.318 0 0 0-4.854 5.939c0-.112 0-.223-.028-.334 0-.223-.045-.446-.073-.668a57.709 57.709 0 0 0-.412-2.805c-.078-.451-.206-1.024-.245-1.537 0-.061-.1-.05-.084 0 .088.512.146 1.029.173 1.548.044.467.089.929.128 1.391l.134 1.397.067.668c0 .112 0 .228.039.34a.627.627 0 0 0 .094.261c-.267.351-.557.702-.802 1.052-1.07 1.408-2.118 2.833-3.166 4.258 0 .045.034.106.067.061.992-1.291 2.012-2.56 3.043-3.818.775.034 1.566 0 2.34-.039.776-.039 1.628 0 2.448 0 .055 0 .05-.089 0-.089h-2.447c-.82 0-1.5-.033-2.23 0a172.12 172.12 0 0 1 2.754-3.295l1.008-1.196c.313.041.628.052.942.033h3.199c1.433 0 2.87-.067 4.309-.072.055 0 .05-.09 0-.09-1.438 0-2.87-.077-4.309-.116-.696 0-1.393-.039-2.09-.045h-1.76c.792-.935 1.578-1.876 2.375-2.783a.087.087 0 0 0 .038-.05c.775-.913 1.544-1.82 2.325-2.722.105-.122.217-.239.323-.367 2.19.072 4.38-.072 6.57-.033.04-.017.034-.106-.022-.106Zm-1.081 3.73h-.512c-.05 0-.045.077 0 .077h.512c.061.012.056-.077 0-.077Z"/>
  <path fill="#263238" d="m29.36 170.322-2.03-.045-1.014-.033a3.806 3.806 0 0 0-.942 0c-.033 0 0 .056 0 .061.312.064.63.087.948.067h3.043a.039.039 0 0 0-.006-.05Zm-5.93 6.334a28.963 28.963 0 0 0-4.159-.373v.034c1.383.128 2.787.206 4.136.428.072.011.095-.078.022-.089Zm-5.636-6.023c0-.123 0-.245-.045-.362a16.637 16.637 0 0 0-.122-.812 47.335 47.335 0 0 0-.267-1.548c0-.044-.095-.033-.09 0 .067.529.123 1.063.173 1.592.028.262.045.523.067.785a2.22 2.22 0 0 0 .106.746c.01.017.025.031.043.039.018.009.038.012.058.009a.098.098 0 0 0 .053-.026.098.098 0 0 0 .03-.05c.018-.124.016-.25-.006-.373Zm27.677-15.468c-.674-1.252-1.527-2.905-3.21-2.783-1.388.084-2.012 1.498-2.307 2.666-.92 3.618-.981 7.431-1.16 11.132-.378 7.831-.718 15.668-.769 23.51v6.518c0 2.226 0 4.453.156 6.679a.16.16 0 0 0 .162.161.163.163 0 0 0 .162-.161c0-1.892-.056-3.79-.062-5.688-.005-1.898 0-3.696.04-5.566.055-3.748.155-7.494.3-11.238.134-3.718.301-7.441.457-11.159.078-1.855.158-3.711.24-5.566.084-1.798.162-3.601.368-5.393.117-1.002.262-2.01.474-2.995a4.136 4.136 0 0 1 .869-2.009 1.892 1.892 0 0 1 2.452-.178 5.178 5.178 0 0 1 1.739 2.165c.039 0 .117-.045.09-.095Z"/>
  <path fill="#65BEDC" d="M45.015 154.565s-1.377-4.87 1.672-2.433c5.088 4.052 5.267 12.874 5.267 12.874s-9.018-5.243-10.133-8.699c-1.705-5.154 3.194-1.742 3.194-1.742Z"/>
  <path fill="#263238" d="M50.053 161.394c-.084-.14-.173-.268-.256-.401a2.628 2.628 0 0 0 0-.418v-.629c0-.411 0-.823.044-1.235 0-.056-.083-.05-.083 0 0 .401-.04.807-.05 1.208v.868a24.009 24.009 0 0 0-1.115-1.631c-.106-.156-.223-.306-.335-.462a9.42 9.42 0 0 1-.028-1.586c0-.557 0-1.113.04-1.703 0-.056-.09-.05-.09 0 0 .59-.044 1.174-.078 1.764 0 .417-.055.84-.033 1.263a82.228 82.228 0 0 0-2.736-3.467c-.028-.039-.095 0-.067.056.557.734 1.114 1.486 1.672 2.226-1.065-.25-2.146-.39-3.227-.557-.056 0-.078.073 0 .084 1.148.172 2.268.456 3.4.707l1.287 1.836.512.752h-.05l-.35-.011c-.252-.034-.502-.05-.753-.073-.524-.039-1.042-.066-1.566-.094-.056 0-.056.083 0 .083.518 0 1.025.05 1.538.106l.808.1.351.045h.106l.87 1.28c.507.751.964 1.558 1.51 2.287a.04.04 0 0 0 .025.011.043.043 0 0 0 .027-.006.048.048 0 0 0 .018-.021.046.046 0 0 0 .002-.028c-.42-.81-.885-1.596-1.393-2.354Z"/>
  <path fill="#263238" d="M47.801 155.889v-.556c-.01-.4.005-.799.045-1.197 0-.061-.083-.072-.083 0 0 .395-.045.79-.062 1.186v.84a.797.797 0 0 0 0 .284.044.044 0 0 0 .015.018.041.041 0 0 0 .021.006.042.042 0 0 0 .022-.006.045.045 0 0 0 .015-.018.834.834 0 0 0 0-.262c.027-.1.027-.194.027-.295Zm-1.114 2.016c-.34-.056-.68-.073-1.02-.1a29.604 29.604 0 0 1-1.136-.114.046.046 0 0 0-.02.007.047.047 0 0 0-.014.016.048.048 0 0 0-.005.021c0 .007.002.014.005.021a.058.058 0 0 0 .014.016.05.05 0 0 0 .041.005c.714.044 1.422.172 2.135.2a.041.041 0 0 0 .018-.014.04.04 0 0 0 .006-.022.04.04 0 0 0-.006-.022.041.041 0 0 0-.018-.014Zm-1.004 23.258c-1.9-1.425-3.611-3.473-6.164-3.573-2.112-.083-3.59 1.503-4.459 3.267-.425.94-.772 1.914-1.036 2.911a125.638 125.638 0 0 0-1.076 4.019 105.296 105.296 0 0 0-1.672 8.009 102.511 102.511 0 0 0-.685 4.514 37.773 37.773 0 0 0-.44 4.62.239.239 0 0 0 .213.218.241.241 0 0 0 .255-.168c.262-1.264.367-2.566.557-3.841.19-1.274.384-2.566.602-3.84.434-2.561.938-5.106 1.51-7.637.557-2.387 1.081-4.808 1.856-7.135.557-1.67 1.438-3.618 3.244-4.213 2.742-.913 5.233 1.408 7.245 2.911.033.033.089-.017.05-.062Z"/>
  <path fill="#65BEDC" d="M43.716 179.8s-1.756-5.009.78-5.977c3.8-1.47 13.738 9.712 11.793 26.844 0 0-7.68-4.225-13.376-8.978s-7.122-10.965-4.62-12.568c2.502-1.603 5.423.679 5.423.679Z"/>
  <path fill="#263238" d="M55.142 196.993a13.173 13.173 0 0 0-.926-1.725 77.015 77.015 0 0 0-.992-1.748c-.657-1.113-1.315-2.26-1.99-3.379l-.334-.556c0-.067 0-.134.045-.2l.111-.496c.084-.373.15-.746.218-1.113.14-.729.267-1.475.462-2.193 0-.056-.072-.072-.083 0-.156.735-.39 1.453-.608 2.171-.106.356-.217.707-.312 1.063l-.095.367a106.382 106.382 0 0 0-2.541-3.952 1.93 1.93 0 0 0 .09-.556c0-.251.055-.501.083-.752.067-.556.133-1.113.217-1.669.142-1.105.343-2.201.602-3.284 0-.056-.072-.067-.09 0-.272 1.08-.556 2.159-.774 3.25-.1.557-.195 1.08-.267 1.62-.04.267-.067.557-.095.813v.244c-.279-.389-.557-.779-.842-1.157a112.125 112.125 0 0 0-2.703-3.395c-.033-.045-.105 0-.072.05a59.408 59.408 0 0 1 4.32 6.3l.746 1.208h-.245c-.324-.045-.647-.061-.97-.095a90.564 90.564 0 0 0-1.94-.167c-1.292-.1-2.591-.183-3.9-.317-.056 0-.073.078 0 .084 1.309.15 2.608.356 3.9.556l1.923.256c.488.099.985.149 1.483.151l1.521 2.476h-4.687c-.056 0-.05.084 0 .084.847 0 1.672.056 2.53.1l1.199.072.602.045c.172.036.35.036.523 0 .435.701.868 1.403 1.299 2.104.396.645.797 1.291 1.21 1.931.383.684.819 1.337 1.303 1.954.028-.061.1-.089.078-.145Z"/>
  <path fill="#263238" d="M51.48 183.151a12.608 12.608 0 0 1-.34 1.625 31.338 31.338 0 0 1-.485 1.67.055.055 0 0 0 .034.074.045.045 0 0 0 .023.002.044.044 0 0 0 .022-.007.048.048 0 0 0 .017-.015.052.052 0 0 0 .01-.021c.167-.556.317-1.085.451-1.631.134-.545.223-1.113.357-1.669.01-.073-.078-.089-.09-.028Zm-5.64 3.345a.63.63 0 0 0-.419-.156l-.724-.1a56.825 56.825 0 0 0-1.354-.161c-.931-.112-1.873-.201-2.787-.323-.056 0-.072.083 0 .089.88.106 1.761.239 2.642.356.429.056.864.117 1.298.167l.624.072c.241-.001.48.039.708.117a.03.03 0 0 0 .014-.011.039.039 0 0 0 .006-.034.043.043 0 0 0-.008-.016Zm5.628 7.514c-.44-.033-.886-.05-1.332-.061h-.992a2.085 2.085 0 0 1-.418 0c-.062 0-.067.095 0 .084.13-.011.26-.011.39 0h.346l.674.039c.44 0 .886.055 1.326.055a.055.055 0 0 0 .042-.015.058.058 0 0 0 .004-.082.058.058 0 0 0-.04-.02Zm2.708-1.898c.05-.25.095-.501.145-.751.09-.496.178-.991.273-1.486a.045.045 0 0 0-.013-.032.046.046 0 0 0-.032-.013.046.046 0 0 0-.031.013.045.045 0 0 0-.013.032c-.106.478-.217.963-.323 1.441-.056.24-.111.479-.161.724l-.067.334a.942.942 0 0 0-.04.35c0 .045.068.078.096.034.093-.204.15-.422.166-.646Z"/>
  <path fill="#455A64" d="m53.152 206.878-.424 7.08-1.265 20.905H25.581l-1.26-20.905-.428-7.08h29.259Z"/>
  <path fill="#263238" d="m53.152 206.878-.424 7.08H24.322l-.43-7.08h29.26Z"/>
  <path fill="#455A64" d="M55.136 201.868H21.914v7.086h33.222v-7.086Z"/>
  <path fill="#37474F" d="M238.45 195.166h-93.051v6.278h93.051v-6.278Zm-73.934 6.284-2.33 5.672-11.375 27.757h-2.915l7.653-27.757 1.56-5.672h7.407Z"/>
  <path fill="#263238" d="M157.108 201.45h7.407l-2.329 5.672h-6.638l1.56-5.672Z"/>
  <path fill="#37474F" d="M235.953 234.879h-2.915l-11.375-27.757-2.324-5.672h7.401l1.561 5.672 7.652 27.757Z"/>
  <path fill="#263238" d="M228.301 207.122h-6.638l-2.324-5.672h7.401l1.561 5.672Z"/>
  <path fill="#455A64" d="M207.529 193.352h-40.495v1.814h40.495v-1.814Z"/>
  <path fill="#263238" d="M207.529 193.352h-20.382v1.814h20.382v-1.814Z"/>
  <path fill="#455A64" d="M189.338 195.166h39.464l5.161-26.771h-39.464l-5.161 26.771Z"/>
  <path fill="#263238" d="M209.252 181.764a2.143 2.143 0 0 0 .551 1.694 2.16 2.16 0 0 0 1.639.704 2.675 2.675 0 0 0 2.591-2.398 2.167 2.167 0 0 0-.555-1.695 2.154 2.154 0 0 0-1.64-.704 2.667 2.667 0 0 0-2.586 2.399Z"/>
  <path fill="#65BEDC" d="M171.019 194.031h-7.273v1.136h7.273v-1.136Z"/>
  <path fill="#263238" d="M171.019 194.031h-7.273v.746h7.273v-.746Z"/>
  <path fill="#65BEDC" d="M155.119 190.987a4.102 4.102 0 0 0 4.09 1.748c.253-.048.501-.119.742-.212a5.348 5.348 0 0 0 1.025-.556l-.925-1.369a2.925 2.925 0 0 1-.557.311 2.422 2.422 0 0 1-3.043-.89c-.992-1.403-1.349-4.598-.34-5.822.066-.095.356-.239 1.527 0l.741.178c.214.075.437.123.663.145v-.824l.084-.818a3.22 3.22 0 0 1-.351-.089 11.1 11.1 0 0 0-1.672-.345c-.864-.089-1.767 0-2.319.695-1.583 2.032-.914 6.095.335 7.848Z"/>
  <path fill="#263238" d="M160.05 190.614a2.87 2.87 0 0 1-.557.312l.446 1.597a5.319 5.319 0 0 0 1.025-.556l-.914-1.353Zm-2.863-8.143.484 1.753.742.178c.214.075.437.123.663.145v-.824l.083-.818a3.34 3.34 0 0 1-.351-.089 11.078 11.078 0 0 0-1.621-.345Z"/>
  <path fill="#65BEDC" d="M177.055 180.334s-.875 7.397-2.38 10.514c-1.505 3.117-3.612 3.462-4.916 3.462h-4.77c-1.304 0-3.411-.351-4.916-3.462-1.505-3.111-2.38-10.514-2.38-10.514h19.362Z"/>
  <path fill="#fff" d="M175.633 185.204a.487.487 0 0 1-.453-.302.49.49 0 1 1 .453.302Zm0-.84a.35.35 0 0 0-.248.598.35.35 0 1 0 .248-.598Zm-13.782-1.548a.497.497 0 0 1-.549-.492.498.498 0 0 1 .343-.472.5.5 0 0 1 .649.472.494.494 0 0 1-.443.492Zm0-.846a.357.357 0 0 0-.357.351.357.357 0 0 0 .357.356.356.356 0 0 0 .248-.604.35.35 0 0 0-.248-.103Zm.685 7.664a.496.496 0 0 1-.486-.592.495.495 0 0 1 .982.097.484.484 0 0 1-.305.459.48.48 0 0 1-.191.036Zm0-.846a.35.35 0 0 0-.351.351.355.355 0 0 0 .603.252.356.356 0 0 0 .105-.252.357.357 0 0 0-.357-.351Zm-3.795-7.191a.491.491 0 0 1-.384-.124.494.494 0 0 1 .179-.84.496.496 0 1 1 .205.964Zm0-.846a.353.353 0 0 0-.25.103.355.355 0 0 0-.107.248.357.357 0 0 0 .357.356.354.354 0 0 0 0-.707Zm6.487 3.741a.502.502 0 0 1-.463-.304.494.494 0 0 1 .362-.678.493.493 0 0 1 .446.837.499.499 0 0 1-.345.145Zm0-.846a.357.357 0 0 0-.357.356.359.359 0 0 0 .357.35.352.352 0 0 0 .249-.6.354.354 0 0 0-.249-.106Zm5.061 5.794a.493.493 0 0 1-.463-.302.495.495 0 1 1 .953-.194.48.48 0 0 1-.301.458.494.494 0 0 1-.189.038Zm0-.846a.35.35 0 1 0 .248.598.35.35 0 0 0-.248-.598Zm-3.071-6.997a.497.497 0 0 1-.549-.492.502.502 0 0 1 .165-.369.504.504 0 0 1 .178-.103.496.496 0 1 1 .206.964Zm0-.846a.357.357 0 0 0-.357.351.357.357 0 0 0 .357.356.357.357 0 0 0 .351-.356.35.35 0 0 0-.351-.351Zm-.558 6.824a.497.497 0 0 1-.316-.824.497.497 0 0 1 .822.533.501.501 0 0 1-.3.27.511.511 0 0 1-.206.021Zm0-.846a.357.357 0 0 0-.351.356.35.35 0 0 0 .351.351.36.36 0 0 0 .251-.102.358.358 0 0 0 .075-.396.348.348 0 0 0-.37-.209h.044Zm-4.614 6.412a.499.499 0 0 1-.463-.303.498.498 0 0 1 .362-.679.495.495 0 1 1 .056.982h.045Zm0-.846a.357.357 0 0 0-.357.356c.002.094.04.183.107.248a.353.353 0 0 0 .601-.248c0-.05-.01-.1-.03-.146a.354.354 0 0 0-.366-.21h.045Zm11.302-9.974a.495.495 0 1 1-.011-.99.495.495 0 0 1 .011.99Zm0-.846a.357.357 0 0 0-.356.356.358.358 0 0 0 .589.223.35.35 0 0 0 .118-.223.346.346 0 0 0-.092-.268.363.363 0 0 0-.259-.116v.028Zm-12.996 4.859a.498.498 0 0 1-.444-.493.494.494 0 0 1 .828-.368.491.491 0 0 1 .164.368.502.502 0 0 1-.164.369.517.517 0 0 1-.179.103.508.508 0 0 1-.205.021Zm0-.846a.354.354 0 0 0-.352.356.35.35 0 0 0 .352.351.357.357 0 0 0 .356-.351.364.364 0 0 0-.101-.279.365.365 0 0 0-.278-.105l.023.028Zm9.535-.557a.497.497 0 0 1-.316-.824.502.502 0 0 1 .522-.14.504.504 0 0 1 .3.27.502.502 0 0 1 0 .403.49.49 0 0 1-.3.27.497.497 0 0 1-.206.021Zm0-.846a.357.357 0 0 0-.351.356.349.349 0 0 0 .351.351.36.36 0 0 0 .251-.102.358.358 0 0 0 .106-.249.362.362 0 0 0-.106-.271.35.35 0 0 0-.273-.101l.022.016Zm-3.249 8.349a.495.495 0 1 1 .384-.861.504.504 0 0 1 .165.368.498.498 0 0 1-.549.493Zm0-.846a.356.356 0 0 0-.248.604.357.357 0 0 0 .605-.248.357.357 0 0 0-.379-.35l.022-.006Zm3.901 2.527a.49.49 0 0 1-.275-.084.49.49 0 0 1-.211-.508.494.494 0 0 1 .676-.361.496.496 0 0 1 .171.804.5.5 0 0 1-.338.155l-.023-.006Zm0-.846a.35.35 0 0 0-.351.351.357.357 0 0 0 .351.356.358.358 0 0 0 .357-.356.359.359 0 0 0-.334-.346l-.023-.005Zm2.787-6.123a.49.49 0 0 1-.463-.303.495.495 0 0 1 .65-.648.493.493 0 0 1 .303.462.487.487 0 0 1-.468.495l-.022-.006Zm0-.846a.356.356 0 0 0-.357.357.355.355 0 0 0 .354.311.353.353 0 0 0 .354-.311.354.354 0 0 0-.329-.351l-.022-.006Zm.418 5.043a.496.496 0 1 1 .46-.304.495.495 0 0 1-.46.31v-.006Zm0-.846a.354.354 0 0 0-.33.221.35.35 0 0 0-.019.207.348.348 0 0 0 .099.182.355.355 0 0 0 .607-.259.354.354 0 0 0-.357-.345v-.006Z"/>
</svg>
