<svg xmlns="http://www.w3.org/2000/svg" width="254" height="240" fill="none" viewBox="0 0 254 240">
  <path fill="#DBDBDB" d="M218.831 37.8h15.453v-6.525h-15.453V37.8Z"/>
  <path fill="#EBEBEB" d="M227.449 29.578h15.454v-6.525h-15.454v6.525Z"/>
  <path fill="#DBDBDB" d="M11.074 28.236h15.453V21.71H11.074v6.525Z"/>
  <path fill="#EBEBEB" d="M19.692 149.519h15.453v-6.525H19.692v6.525ZM95.672 6.525h15.454V0H95.672v6.525Z"/>
  <path fill="#DBDBDB" d="M28.305 206.029h15.453v-6.524H28.305v6.524Z"/>
  <path fill="#EBEBEB" d="M11.074 141.291h15.453v-6.525H11.074v6.525Zm196.412 89.213h15.454v-6.525h-15.454v6.525Zm0-16.366h15.454v-6.524h-15.454v6.524Zm-8.612 8.144h15.453v-6.525h-15.453v6.525Z"/>
  <path fill="#DBDBDB" d="M216.093 222.282h15.454v-6.525h-15.454v6.525Z"/>
  <path fill="#EBEBEB" d="M19.692 214.138h15.453v-6.524H19.692v6.524Zm8.613 8.144h15.453v-6.525H28.305v6.525Zm196.396 8.222h15.453v-6.525h-15.453v6.525Zm7.483-80.985h15.454v-6.525h-15.454v6.525ZM12.332 173.164a61.374 61.374 0 0 1-2.974-8.459 58.885 58.885 0 0 1-1.75-8.786 46.088 46.088 0 0 1-.237-8.955l.243-2.256c.101-.744.237-1.477.355-2.216.119-.739.271-1.472.412-2.205.142-.733.3-1.466.463-2.194 1.287-5.842 3.15-11.532 4.837-17.25.836-2.859 1.614-5.729 2.173-8.645.124-.727.288-1.455.373-2.188.122-.728.203-1.462.242-2.199.067-.728.08-1.459.04-2.188a20.358 20.358 0 0 0-.17-2.199 58.367 58.367 0 0 0-1.777-8.645c-.774-2.876-1.637-5.73-2.49-8.589-.852-2.86-1.693-5.746-2.347-8.668a42.856 42.856 0 0 1-1.259-8.983 41.296 41.296 0 0 1 1.084-8.983c.637-2.938 1.445-5.825 2.257-8.701 1.694-5.735 3.54-11.414 4.984-17.166a60.934 60.934 0 0 0 1.592-8.696 21.059 21.059 0 0 0-.886-8.56 16.308 16.308 0 0 0-1.84-3.863 11.658 11.658 0 0 0-2.822-3.068 6.093 6.093 0 0 0-1.773-.913 2.785 2.785 0 0 0-1.738 0c-.25.092-.478.238-.666.428a2.65 2.65 0 0 0-.463.716 3.415 3.415 0 0 0-.248 1.8 4.65 4.65 0 0 0 2.088 3.123A9.454 9.454 0 0 0 13.89 16.1c1.419.221 2.858.276 4.29.164.728-.034 1.45-.141 2.172-.226.723-.085 1.44-.226 2.157-.395a54.066 54.066 0 0 0 8.465-2.577 155.814 155.814 0 0 0 4.092-1.726c1.35-.597 2.648-1.263 4.058-1.883a41.792 41.792 0 0 1 8.63-2.899 43.32 43.32 0 0 1 9.03-.953c6.085 0 12.073 1.185 17.858 2.78 5.786 1.596 11.435 3.604 17.124 5.33 5.69 1.725 11.458 3.175 17.328 3.496.728.045 1.462.045 2.195.073.734.029 1.479 0 2.218-.034.74-.033 1.479 0 2.218-.05l2.219-.124c2.963-.164 5.92-.463 8.872-.801 5.909-.694 11.79-1.692 17.683-2.64 5.892-.947 11.796-1.956 17.762-2.644 1.49-.175 2.985-.293 4.481-.44L169 10.41c.745-.05 1.501-.096 2.257-.101a62.959 62.959 0 0 1 9.031.304c12.038 1.224 23.456 5.143 35.111 7.331 5.819 1.088 11.768 1.731 17.581.936a30.12 30.12 0 0 0 8.399-2.368c.649-.327 1.326-.626 1.953-.976.304-.186.626-.35.903-.564l.434-.299.401-.327c1.067-.857 1.846-2.08 1.659-3.225-.186-1.145-1.382-2.014-2.664-2.12a4.66 4.66 0 0 0-3.629 1.28 8.642 8.642 0 0 0-2.257 3.467 9.704 9.704 0 0 0-.683 4.134c.146 2.82 1.535 5.51 3.126 7.957 1.592 2.447 3.477 4.793 5.266 7.196a46.816 46.816 0 0 1 4.826 7.646 21.223 21.223 0 0 1 1.541 4.297c.178.743.306 1.497.384 2.256.045.374.066.751.062 1.128v1.128a31.381 31.381 0 0 1-1.541 8.96 84.993 84.993 0 0 1-3.245 8.386c-1.174 2.746-2.41 5.459-3.46 8.24a53.595 53.595 0 0 0-2.546 8.509 39.365 39.365 0 0 0 1.101 17.577c.446 1.416.971 2.82 1.546 4.184.576 1.365 1.157 2.752 1.603 4.19.474 1.434.706 2.935.689 4.444a33.815 33.815 0 0 1-.384 4.472c-.412 2.961-1.05 5.882-1.693 8.792l-.988 4.364a27.835 27.835 0 0 0-.705 4.416c.099-1.489.318-2.967.654-4.421l.937-4.382c.621-2.915 1.225-5.842 1.603-8.797.205-1.473.314-2.957.328-4.444a13.43 13.43 0 0 0-.723-4.348c-.942-2.819-2.359-5.47-3.251-8.34a37.317 37.317 0 0 1-1.693-8.831c-.249-3-.129-6.018.355-8.99a53.817 53.817 0 0 1 2.478-8.65c1.027-2.82 2.258-5.554 3.387-8.306 1.128-2.752 2.297-5.498 3.149-8.33a30.145 30.145 0 0 0 1.473-8.656 17.789 17.789 0 0 0-1.964-8.413 45.48 45.48 0 0 0-4.769-7.438c-1.789-2.38-3.68-4.704-5.356-7.224a26.379 26.379 0 0 1-2.219-3.993 13.348 13.348 0 0 1-1.128-4.511 11.03 11.03 0 0 1 .711-4.63 9.906 9.906 0 0 1 2.568-3.948 5.937 5.937 0 0 1 4.577-1.612c.866.08 1.692.398 2.388.919a3.711 3.711 0 0 1 1.422 2.255 3.941 3.941 0 0 1-.486 2.583 6.634 6.634 0 0 1-1.585 1.884l-.463.383-.486.339c-.321.225-.654.432-.999.62-.677.383-1.366.694-2.048 1.043a31.13 31.13 0 0 1-8.766 2.532c-6.05.857-12.151.186-18.061-.896-5.909-1.083-11.7-2.645-17.496-4.033a131.332 131.332 0 0 0-17.497-3.236 60.908 60.908 0 0 0-8.844-.271c-.739 0-1.479.05-2.218.101l-2.212.141c-1.479.147-2.958.271-4.431.446-5.904.694-11.785 1.692-17.677 2.667-5.893.976-11.796 1.98-17.751 2.69a118.322 118.322 0 0 1-18.015.987c-6.085-.355-11.983-1.861-17.711-3.61-5.73-1.747-11.356-3.76-17.074-5.35-5.717-1.591-11.547-2.764-17.428-2.758a41.637 41.637 0 0 0-8.732.89 40.858 40.858 0 0 0-8.32 2.78c-1.331.565-2.703 1.28-4.069 1.879a119.902 119.902 0 0 1-4.17 1.748 56.469 56.469 0 0 1-8.681 2.633c-.74.17-1.501.271-2.258.4a18.2 18.2 0 0 1-2.257.232 19.977 19.977 0 0 1-4.645-.237 10.841 10.841 0 0 1-4.448-1.692A6.088 6.088 0 0 1 6.48 11.69a4.835 4.835 0 0 1 .367-2.577c.188-.415.444-.796.757-1.128.34-.34.75-.603 1.202-.772a4.197 4.197 0 0 1 2.658 0c.789.253 1.53.634 2.196 1.127a13.13 13.13 0 0 1 3.205 3.457 17.285 17.285 0 0 1 1.987 4.207 22.426 22.426 0 0 1 .903 9.107 60.774 60.774 0 0 1-1.693 8.894c-1.501 5.814-3.386 11.475-5.08 17.182-.852 2.86-1.693 5.719-2.325 8.628a40.051 40.051 0 0 0-1.129 8.741 42.028 42.028 0 0 0 1.197 8.74c.654 2.888 1.45 5.759 2.257 8.623.807 2.865 1.694 5.73 2.439 8.623a58.248 58.248 0 0 1 1.738 8.836c.086.749.133 1.502.141 2.256.032.753.011 1.506-.062 2.256a21.096 21.096 0 0 1-.277 2.255c-.096.745-.27 1.478-.406 2.217-.598 2.943-1.417 5.825-2.286 8.684-1.755 5.707-3.68 11.358-5.029 17.16a48.64 48.64 0 0 0-.485 2.183c-.141.733-.316 1.455-.435 2.188-.118.733-.27 1.466-.378 2.199l-.27 2.216a46.491 46.491 0 0 0 .135 8.905 58.834 58.834 0 0 0 1.648 8.808 60.496 60.496 0 0 0 2.878 8.459Z"/>
  <path fill="#DBDBDB" d="M11.638 164.705c.723-5.56 1.247-11.149 1.467-16.743a83.34 83.34 0 0 0-.045-8.397 81.373 81.373 0 0 0-1.072-8.329c-.954-5.515-2.094-11.019-2.59-16.624a66.708 66.708 0 0 1-.272-8.431c.116-2.812.421-5.614.915-8.385.982-5.544 2.45-10.963 3.279-16.49a87.62 87.62 0 0 0 .886-8.323 58.125 58.125 0 0 0-.164-8.352c-.496-5.56-1.783-11.019-2.754-16.556a50.557 50.557 0 0 1-.83-8.426 27 27 0 0 1 .3-4.257 18.562 18.562 0 0 1 1.19-4.128 19.46 19.46 0 0 1 2.162-3.728c.824-1.161 1.75-2.255 2.647-3.304a22.686 22.686 0 0 0 2.433-3.327 8.82 8.82 0 0 0 1.129-3.779 7.49 7.49 0 0 0-.768-3.834 6.52 6.52 0 0 0-2.641-2.82 3.778 3.778 0 0 0-1.778-.485 2.259 2.259 0 0 0-1.58.62c-.875.807-.988 2.217-.537 3.384a6.425 6.425 0 0 0 2.399 3.006 9.668 9.668 0 0 0 3.669 1.517c1.336.241 2.7.294 4.052.158a40.221 40.221 0 0 0 4.092-.689c5.452-1.19 10.87-2.69 16.317-4.048 5.446-1.36 10.904-2.69 16.424-3.796A140.835 140.835 0 0 1 76.68 7.71a71.962 71.962 0 0 1 8.466-.175c2.822.107 5.644.35 8.427.654 5.593.61 11.152 1.46 16.689 2.38 11.079 1.844 22.096 4.02 33.187 5.583 5.542.75 11.107 1.381 16.689 1.297a163.046 163.046 0 0 0 16.741-1.032c5.565-.61 11.102-1.472 16.644-2.346 2.771-.434 5.542-.869 8.336-1.23a71.33 71.33 0 0 1 8.466-.693 36.42 36.42 0 0 1 8.466.913 67.487 67.487 0 0 1 8.1 2.46c2.652.947 5.254 1.99 7.901 2.819 2.647.829 5.424 1.398 8.015.631a4.889 4.889 0 0 0 3.042-2.21 2.738 2.738 0 0 0 .322-1.76 2.124 2.124 0 0 0-.915-1.426 3.01 3.01 0 0 0-1.766-.446 4.618 4.618 0 0 0-1.857.474 6.696 6.696 0 0 0-2.822 2.712 8.514 8.514 0 0 0-1.09 3.835 10.94 10.94 0 0 0 .61 3.998 68.207 68.207 0 0 0 3.313 7.664c1.208 2.532 2.444 5.075 3.488 7.68a32.97 32.97 0 0 1 1.343 4.027c.175.694.307 1.399.395 2.109.078.715.092 1.436.04 2.154a60.568 60.568 0 0 1-1.394 8.312c-.593 2.741-1.214 5.476-1.778 8.217-.564 2.74-1.061 5.492-1.383 8.267a41.343 41.343 0 0 0-.214 8.352c.261 2.78.786 5.53 1.569 8.21a49.867 49.867 0 0 1 1.721 8.245c.565 5.639-.417 11.278-1.761 16.675a23.452 23.452 0 0 0 0 8.346 43.99 43.99 0 0 0 2.094 8.126 43.87 43.87 0 0 1-2.178-8.12c-.522-2.77-.54-5.61-.051-8.386a70.918 70.918 0 0 0 1.529-8.256 36.38 36.38 0 0 0 .091-8.363 49.956 49.956 0 0 0-1.778-8.182c-.804-2.7-1.35-5.47-1.631-8.273a42.178 42.178 0 0 1 .146-8.459c.305-2.82.785-5.571 1.327-8.323.542-2.752 1.168-5.481 1.732-8.2a60.721 60.721 0 0 0 1.332-8.25 11.14 11.14 0 0 0-.045-2.041 16.682 16.682 0 0 0-.389-2.02 33.236 33.236 0 0 0-1.332-3.947c-1.044-2.582-2.286-5.075-3.505-7.612a68.762 68.762 0 0 1-3.387-7.749 11.614 11.614 0 0 1-.666-4.269 9.217 9.217 0 0 1 1.174-4.184 7.455 7.455 0 0 1 3.139-3.056 5.426 5.426 0 0 1 2.189-.564 3.826 3.826 0 0 1 2.258.564 2.977 2.977 0 0 1 1.293 1.99 3.6 3.6 0 0 1-.396 2.301 4.93 4.93 0 0 1-1.529 1.692 7.107 7.107 0 0 1-2.021.953 10.87 10.87 0 0 1-4.34.321 23.695 23.695 0 0 1-4.188-.885c-2.709-.823-5.322-1.861-7.964-2.786a66.758 66.758 0 0 0-8.003-2.385 35.548 35.548 0 0 0-8.234-.88c-2.787.07-5.566.304-8.325.7-2.772.36-5.543.8-8.314 1.24-5.537.88-11.096 1.754-16.684 2.374-5.594.643-11.217.998-16.847 1.066-5.644.096-11.288-.564-16.842-1.28-11.141-1.557-22.164-3.71-33.221-5.544-5.531-.93-11.068-1.787-16.627-2.402a86.196 86.196 0 0 0-16.718-.508 138.88 138.88 0 0 0-16.588 2.386c-5.492 1.088-10.944 2.39-16.367 3.756-5.425 1.364-10.848 2.82-16.368 4.037a39.607 39.607 0 0 1-4.205.694 15.08 15.08 0 0 1-4.329-.175 10.61 10.61 0 0 1-4.047-1.692 7.332 7.332 0 0 1-2.748-3.48 4.892 4.892 0 0 1-.255-2.283 3.552 3.552 0 0 1 1.062-2.132c.3-.285.653-.51 1.038-.665a3.564 3.564 0 0 1 1.191-.192c.79.013 1.566.22 2.258.604a7.508 7.508 0 0 1 3.036 3.225 8.451 8.451 0 0 1 .841 4.32 9.548 9.548 0 0 1-1.304 4.179 23.237 23.237 0 0 1-2.545 3.445c-.909 1.072-1.817 2.12-2.625 3.237a19.083 19.083 0 0 0-2.065 3.547 17.856 17.856 0 0 0-1.13 3.948 25.615 25.615 0 0 0-.304 4.116c.026 2.78.282 5.553.768 8.29.937 5.504 2.257 10.996 2.692 16.624a58.7 58.7 0 0 1 .135 8.46 87.36 87.36 0 0 1-.937 8.385c-.869 5.566-2.364 10.985-3.386 16.483a62.25 62.25 0 0 0-.982 8.279 65.86 65.86 0 0 0 .197 8.374c.452 5.577 1.547 11.081 2.456 16.613a80.02 80.02 0 0 1 1.01 8.357 83.795 83.795 0 0 1 0 8.42c-.277 5.6-.841 11.182-1.62 16.737Z"/>
  <path fill="#DBDBDB" d="M244.319 160.724c-.756-5.555-1.315-11.143-1.574-16.743a81.876 81.876 0 0 1 0-8.408 79.73 79.73 0 0 1 1.021-8.352c.926-5.526 2.026-11.036 2.489-16.619a67.05 67.05 0 0 0 .22-8.385 62.48 62.48 0 0 0-.959-8.33c-.999-5.509-2.484-10.934-3.341-16.489a87.659 87.659 0 0 1-.92-8.368 57.375 57.375 0 0 1 .146-8.425c.463-5.64 1.767-11.093 2.71-16.608.502-2.749.772-5.535.807-8.329a26.354 26.354 0 0 0-.305-4.162 17.765 17.765 0 0 0-1.163-3.98 18.565 18.565 0 0 0-2.071-3.604c-.807-1.128-1.693-2.194-2.63-3.265a23.472 23.472 0 0 1-2.512-3.384 9.401 9.401 0 0 1-1.264-4.066 8.159 8.159 0 0 1 .824-4.179 7.2 7.2 0 0 1 2.923-3.107 4.455 4.455 0 0 1 2.106-.564c.375.004.747.07 1.1.198.353.14.675.346.948.609a3.27 3.27 0 0 1 .949 1.94 4.71 4.71 0 0 1-.266 2.165 7.091 7.091 0 0 1-2.647 3.344 10.308 10.308 0 0 1-3.95 1.636 14.94 14.94 0 0 1-4.25.174 38.174 38.174 0 0 1-4.177-.693c-5.497-1.185-10.904-2.679-16.368-4.032-5.463-1.354-10.893-2.668-16.367-3.762a140.294 140.294 0 0 0-16.594-2.385 86.675 86.675 0 0 0-16.752.496c-5.548.632-11.113 1.472-16.644 2.397-11.062 1.838-22.085 3.992-33.209 5.543-5.565.745-11.17 1.376-16.808 1.286a164.205 164.205 0 0 1-16.814-1.066c-5.588-.62-11.136-1.494-16.678-2.374-2.766-.44-5.537-.88-8.314-1.24a71.706 71.706 0 0 0-8.359-.7 35.795 35.795 0 0 0-8.302.885 66.336 66.336 0 0 0-8.037 2.397c-2.642.93-5.249 1.968-7.947 2.82a23.874 23.874 0 0 1-4.137.913c-1.415.175-2.85.064-4.222-.327a6.859 6.859 0 0 1-1.953-.913 4.652 4.652 0 0 1-1.456-1.613 3.33 3.33 0 0 1-.372-2.149 2.683 2.683 0 0 1 1.174-1.844 3.563 3.563 0 0 1 2.11-.564 5.281 5.281 0 0 1 2.095.536 7.245 7.245 0 0 1 3.047 2.96 8.983 8.983 0 0 1 1.13 4.09 11.356 11.356 0 0 1-.65 4.189 67.119 67.119 0 0 1-3.358 7.726c-1.202 2.56-2.433 5.075-3.46 7.67a32.129 32.129 0 0 0-1.338 3.947 12.69 12.69 0 0 0-.434 4.116A60.816 60.816 0 0 0 10.87 52c.565 2.741 1.203 5.476 1.75 8.228.548 2.752 1.033 5.52 1.338 8.312.341 2.792.398 5.61.169 8.414a44.182 44.182 0 0 1-1.614 8.261 50.42 50.42 0 0 0-1.79 8.217 36.78 36.78 0 0 0 .114 8.374 70.58 70.58 0 0 0 1.58 8.256 23.325 23.325 0 0 1-.062 8.402 44.227 44.227 0 0 1-2.14 8.121 44.315 44.315 0 0 0 2.106-8.126 23.334 23.334 0 0 0 0-8.352c-1.332-5.425-2.325-11.053-1.727-16.664a49.848 49.848 0 0 1 1.738-8.25 44.517 44.517 0 0 0 1.57-8.233c.213-2.79.147-5.593-.198-8.369-.322-2.78-.819-5.538-1.372-8.284-.553-2.746-1.174-5.481-1.766-8.222a62.41 62.41 0 0 1-1.372-8.312c-.047-.709-.032-1.42.045-2.126.09-.703.221-1.4.395-2.087a33.345 33.345 0 0 1 1.344-3.992c1.044-2.611 2.257-5.132 3.493-7.658a67.877 67.877 0 0 0 3.336-7.687c.462-1.306.675-2.687.626-4.071a8.633 8.633 0 0 0-1.128-3.948 6.872 6.872 0 0 0-2.901-2.82c-.607-.3-1.27-.47-1.948-.496a3.264 3.264 0 0 0-1.902.48 2.38 2.38 0 0 0-1.027 1.596 2.998 2.998 0 0 0 .339 1.917 5.127 5.127 0 0 0 3.183 2.335c1.333.369 2.726.466 4.098.287a23.478 23.478 0 0 0 4.063-.908c2.676-.823 5.283-1.866 7.902-2.82a66.84 66.84 0 0 1 8.139-2.396 36.298 36.298 0 0 1 8.398-.914 73.51 73.51 0 0 1 8.41.694c2.782.361 5.559.8 8.33 1.23 5.543.873 11.085 1.736 16.656 2.345 5.568.635 11.165.983 16.768 1.044 5.599.084 11.181-.564 16.729-1.303 11.102-1.562 22.119-3.744 33.193-5.583 5.537-.92 11.09-1.77 16.678-2.38a86.699 86.699 0 0 1 16.847-.479 140.798 140.798 0 0 1 16.679 2.425c5.508 1.128 10.966 2.414 16.407 3.79 5.441 1.376 10.859 2.864 16.328 4.054 1.362.301 2.739.531 4.126.688 1.376.143 2.765.088 4.126-.164a9.836 9.836 0 0 0 3.781-1.556 6.77 6.77 0 0 0 2.495-3.14 4.27 4.27 0 0 0 .248-1.969 2.907 2.907 0 0 0-.852-1.726 2.452 2.452 0 0 0-1.772-.693 4.05 4.05 0 0 0-1.908.519 6.812 6.812 0 0 0-2.76 2.926 7.775 7.775 0 0 0-.784 3.948 8.96 8.96 0 0 0 1.207 3.902 22.726 22.726 0 0 0 2.467 3.35c.903 1.071 1.823 2.137 2.647 3.293a19.239 19.239 0 0 1 2.105 3.677 18.146 18.146 0 0 1 1.151 4.094 26.95 26.95 0 0 1 .305 4.218 50.37 50.37 0 0 1-.818 8.391c-.96 5.527-2.258 10.991-2.732 16.574a57.661 57.661 0 0 0-.141 8.374 88.46 88.46 0 0 0 .903 8.346c.841 5.532 2.325 10.952 3.313 16.484a62.05 62.05 0 0 1 .931 8.368 67.32 67.32 0 0 1-.254 8.414c-.485 5.6-1.608 11.104-2.556 16.625a81.103 81.103 0 0 0-1.056 8.334 83.517 83.517 0 0 0 0 8.403c.203 5.6.74 11.182 1.473 16.743Z"/>
  <path fill="#EBEBEB" d="M243.349 163.013c-.757-5.554-1.316-11.143-1.575-16.743a83.616 83.616 0 0 1 0-8.408c.195-2.8.538-5.588 1.027-8.351.92-5.533 2.026-11.036 2.489-16.619.249-2.788.321-5.589.215-8.386a60.944 60.944 0 0 0-.971-8.335c-.994-5.504-2.484-10.928-3.336-16.483a87.985 87.985 0 0 1-.92-8.369 58.36 58.36 0 0 1 .141-8.425c.469-5.639 1.772-11.092 2.715-16.607.5-2.75.769-5.535.807-8.33a26.236 26.236 0 0 0-.305-4.161 17.704 17.704 0 0 0-1.162-3.981 18.814 18.814 0 0 0-2.072-3.61c-.807-1.127-1.721-2.188-2.63-3.259a23.11 23.11 0 0 1-2.511-3.412 9.348 9.348 0 0 1-1.265-4.06 8.106 8.106 0 0 1 .796-4.156 7.211 7.211 0 0 1 2.918-3.107 4.52 4.52 0 0 1 2.111-.564c.375.004.747.07 1.101.197.351.143.672.35.948.61.543.523.888 1.218.976 1.967a4.641 4.641 0 0 1-.259 2.166 7.103 7.103 0 0 1-2.647 3.344 10.306 10.306 0 0 1-3.951 1.635 14.96 14.96 0 0 1-4.256.175 38.324 38.324 0 0 1-4.171-.694c-5.497-1.184-10.904-2.678-16.368-4.032-5.463-1.353-10.893-2.667-16.367-3.761a140.302 140.302 0 0 0-16.622-2.391 86.675 86.675 0 0 0-16.752.496c-5.57.615-11.113 1.478-16.644 2.403-11.045 1.81-22.057 3.964-33.181 5.503-5.565.745-11.175 1.376-16.808 1.28-5.62-.064-11.231-.42-16.814-1.065-5.587-.615-11.135-1.49-16.678-2.369-2.771-.44-5.537-.88-8.314-1.24a71.708 71.708 0 0 0-8.358-.7 35.763 35.763 0 0 0-8.303.886 66.046 66.046 0 0 0-8.037 2.396c-2.641.93-5.249 1.968-7.947 2.82a23.782 23.782 0 0 1-4.137.913 10.688 10.688 0 0 1-4.244-.31 6.919 6.919 0 0 1-1.953-.919 4.636 4.636 0 0 1-1.45-1.613 3.33 3.33 0 0 1-.373-2.148 2.723 2.723 0 0 1 1.185-1.839 3.613 3.613 0 0 1 2.117-.563 5.19 5.19 0 0 1 2.094.563 7.244 7.244 0 0 1 3.047 2.961 8.961 8.961 0 0 1 1.13 4.088 11.474 11.474 0 0 1-.627 4.19 67.573 67.573 0 0 1-3.387 7.726c-1.213 2.527-2.45 5.042-3.493 7.636a32.123 32.123 0 0 0-1.338 3.947c-.37 1.34-.516 2.73-.434 4.117a60.818 60.818 0 0 0 1.354 8.267c.565 2.74 1.202 5.476 1.75 8.227.547 2.752 1.033 5.521 1.337 8.313a41.88 41.88 0 0 1 .17 8.414 44.646 44.646 0 0 1-1.615 8.26 50.416 50.416 0 0 0-1.766 8.2 37.112 37.112 0 0 0 .107 8.375 71.865 71.865 0 0 0 1.552 8.255c.5 2.774.496 5.614-.011 8.386a43.798 43.798 0 0 1-2.145 8.12 43.868 43.868 0 0 0 2.111-8.12c.5-2.762.5-5.59 0-8.352-1.332-5.425-2.325-11.053-1.727-16.664.344-2.787.926-5.54 1.738-8.227a44.514 44.514 0 0 0 1.57-8.233c.214-2.79.146-5.594-.204-8.37-.316-2.78-.812-5.543-1.366-8.283-.553-2.74-1.202-5.482-1.766-8.222a61.514 61.514 0 0 1-1.372-8.312c-.05-.709-.034-1.42.045-2.126.087-.704.219-1.4.396-2.087.36-1.362.808-2.7 1.343-4.004 1.044-2.61 2.258-5.131 3.494-7.658a68.52 68.52 0 0 0 3.335-7.692 11.27 11.27 0 0 0 .627-4.071 8.7 8.7 0 0 0-1.13-3.948 6.872 6.872 0 0 0-2.9-2.82c-.607-.3-1.27-.47-1.947-.496a3.265 3.265 0 0 0-1.902.48 2.348 2.348 0 0 0-1.028 1.596 2.998 2.998 0 0 0 .339 1.917 5.076 5.076 0 0 0 3.2 2.374 10.24 10.24 0 0 0 4.098.293 23.484 23.484 0 0 0 4.063-.908c2.67-.823 5.278-1.866 7.902-2.82a66.904 66.904 0 0 1 8.082-2.418 36.23 36.23 0 0 1 8.421-.914c2.809.07 5.611.302 8.393.694 2.782.36 5.56.8 8.33 1.229 5.543.874 11.085 1.737 16.656 2.346a161.96 161.96 0 0 0 16.78 1.038c5.599.09 11.175-.564 16.729-1.297 11.102-1.563 22.119-3.745 33.192-5.583 5.537-.92 11.091-1.771 16.679-2.38a86.698 86.698 0 0 1 16.847-.48 140.783 140.783 0 0 1 16.678 2.425c5.509 1.128 10.967 2.414 16.407 3.79 5.441 1.376 10.86 2.865 16.329 4.055 1.362.301 2.739.53 4.125.688 1.376.143 2.766.088 4.126-.164a9.782 9.782 0 0 0 3.776-1.562 6.67 6.67 0 0 0 2.506-3.107c.237-.628.32-1.302.243-1.968a2.875 2.875 0 0 0-.847-1.726 2.702 2.702 0 0 0-.813-.524 2.77 2.77 0 0 0-.959-.17 4.034 4.034 0 0 0-1.908.52 6.773 6.773 0 0 0-2.76 2.926 7.71 7.71 0 0 0-.784 3.947 8.961 8.961 0 0 0 1.208 3.903 22.72 22.72 0 0 0 2.466 3.35c.903 1.071 1.823 2.137 2.647 3.287a19.735 19.735 0 0 1 2.105 3.683 18.152 18.152 0 0 1 1.174 4.071 25.79 25.79 0 0 1 .305 4.218 50.193 50.193 0 0 1-.813 8.386c-.959 5.532-2.257 10.996-2.731 16.58a57.662 57.662 0 0 0-.153 8.373c.17 2.792.469 5.578.903 8.34.841 5.539 2.32 10.958 3.308 16.49.504 2.765.817 5.561.937 8.369.09 2.807.005 5.617-.254 8.413-.486 5.594-1.615 11.104-2.557 16.625a81.365 81.365 0 0 0-1.056 8.335 83.378 83.378 0 0 0-.033 8.396c.237 5.6.773 11.183 1.507 16.743Z"/>
  <path fill="#DBDBDB" d="M15.295 41.014a13.188 13.188 0 0 1 8.636-7.055s-1.128 4.438-2.906 5.736c-1.835 1.359-5.73 1.32-5.73 1.32Zm-2.02 81.12a13.191 13.191 0 0 1 8.636-7.054s-1.129 4.438-2.913 5.735c-1.783 1.297-5.723 1.319-5.723 1.319Z"/>
  <path fill="#EBEBEB" d="M12.863 31.557a13.782 13.782 0 0 0-4.08-10.573s-1.13 4.438-.244 6.468c.949 2.137 4.324 4.105 4.324 4.105ZM9.32 63.825A10.93 10.93 0 0 0 0 62.25s2.653 2.82 4.516 3.057c1.902.225 4.803-1.483 4.803-1.483Zm3.87 74.782a13.783 13.783 0 0 0-4.08-10.557s-1.13 4.438-.243 6.474c.948 2.115 4.324 4.083 4.324 4.083Zm.124-58.49a13.484 13.484 0 0 1 6.774-8.99s-.09 4.59-1.502 6.288c-1.501 1.794-5.272 2.701-5.272 2.701Zm-3.798 28.382a13.482 13.482 0 0 1 6.773-8.99s-.09 4.591-1.501 6.289c-1.496 1.782-5.272 2.701-5.272 2.701Zm3.934 37.941a7.367 7.367 0 0 1 3.691-4.907s-.05 2.51-.818 3.435c-.768.925-2.873 1.472-2.873 1.472Z"/>
  <path fill="#DBDBDB" d="M9.32 62.285a13.528 13.528 0 0 0-6.407-9.237s-.085 4.596 1.258 6.344c1.411 1.816 5.148 2.893 5.148 2.893Zm3.244 24.553a8.16 8.16 0 0 0-6.09-2.971s1.31 2.453 2.557 2.955c1.247.501 3.533.016 3.533.016Zm.661 57.442a9.388 9.388 0 0 0-5.927-5.262s.688 3.181 1.902 4.151c1.214.97 4.025 1.111 4.025 1.111ZM246.228 44.206a13.17 13.17 0 0 1-8.614 7.055s1.129-4.439 2.907-5.736c1.835-1.358 5.707-1.32 5.707-1.32Zm-4.437 99.532a7.548 7.548 0 0 1-3.229 5.499s-.265-2.611.424-3.655c.688-1.043 2.805-1.844 2.805-1.844Z"/>
  <path fill="#EBEBEB" d="M241.825 137.259a13.775 13.775 0 0 0 4.081 10.573s1.128-4.438.242-6.473c-.948-2.132-4.323-4.1-4.323-4.1Zm3.843-34.704a10.915 10.915 0 0 0 8.032 5.03s-1.366-3.643-2.991-4.551c-1.626-.908-5.041-.479-5.041-.479Zm3.669-63.949a13.78 13.78 0 0 0 4.081 10.573s1.129-4.437.242-6.468c-.942-2.137-4.323-4.105-4.323-4.105Zm-8.297 51.436a13.482 13.482 0 0 1-4.007 10.5s-1.186-4.438-.299-6.457c.937-2.126 4.306-4.043 4.306-4.043Zm8.269-28.45a13.503 13.503 0 0 1-6.773 8.989s.09-4.596 1.501-6.288c1.479-1.782 5.272-2.701 5.272-2.701ZM238.8 23.645a7.369 7.369 0 0 1-3.686 4.912s.051-2.51.818-3.434c.768-.925 2.868-1.478 2.868-1.478Zm1.789 46.761a7.378 7.378 0 0 1-3.692 4.906s.051-2.504.819-3.434c.767-.93 2.873-1.472 2.873-1.472Zm3.155 52.084a7.369 7.369 0 0 1-2.625 5.549s-.457-2.47.113-3.53c.57-1.061 2.512-2.019 2.512-2.019Z"/>
  <path fill="#DBDBDB" d="M241.915 79.93A8.168 8.168 0 0 0 248 82.902s-1.31-2.436-2.529-2.96c-1.219-.525-3.556-.011-3.556-.011Zm3.369 25.298a8.135 8.135 0 0 0 2.93 6.102s.485-2.724-.147-3.891c-.632-1.168-2.783-2.211-2.783-2.211Zm-6.208-77.962a9.384 9.384 0 0 0 5.927 5.255s-.689-3.18-1.903-4.15c-1.213-.97-4.024-1.105-4.024-1.105ZM137.201 15.965a13.177 13.177 0 0 1 6.773 8.87s-4.402-1.303-5.644-3.107c-1.31-1.895-1.129-5.763-1.129-5.763Zm-98.297.017a13.219 13.219 0 0 1 10.307 4.268s-4.459 1.089-6.434.147c-2.072-.981-3.873-4.415-3.873-4.415Zm55.199.575a8.692 8.692 0 0 1 1.389 7.224s-2.219-2.059-2.422-3.491c-.203-1.432 1.033-3.733 1.033-3.733Zm76.736 1.528a8.724 8.724 0 0 1 4.99 5.414s-2.974-.564-3.894-1.692c-.921-1.128-1.096-3.722-1.096-3.722Z"/>
  <path fill="#EBEBEB" d="M144.267 9.959a13.809 13.809 0 0 0 9.156-6.694s-4.589.05-6.316 1.455c-1.818 1.466-2.84 5.239-2.84 5.239Zm-23.665 3.705a10.89 10.89 0 0 0 1.908-9.277s-2.941 2.55-3.218 4.388c-.293 1.934 1.31 4.889 1.31 4.889Zm75.286-4.354a8.1 8.1 0 0 0 5.509-4.381s-2.89.056-3.923.97c-1.033.913-1.586 3.411-1.586 3.411Zm-30.867 1.737a8.128 8.128 0 0 0 6.129-3.468s-2.867-.4-4.035.344c-1.169.745-2.094 3.124-2.094 3.124ZM48.313 7.652a13.833 13.833 0 0 0 10.042-5.278s-4.516-.62-6.463.513c-2.016 1.185-3.579 4.765-3.579 4.765Zm47.455 8.691a13.496 13.496 0 0 1 8.749 7.065s-4.589-.259-6.237-1.725c-1.648-1.466-2.512-5.34-2.512-5.34Zm117.825 1.647a13.547 13.547 0 0 1 8.783 7.065s-4.595-.254-6.237-1.726c-1.643-1.471-2.546-5.34-2.546-5.34Zm-32.267-6.153a13.52 13.52 0 0 1 8.749 7.066s-4.589-.254-6.209-1.692c-1.62-1.438-2.54-5.374-2.54-5.374ZM63.151 13.1a13.518 13.518 0 0 1 8.75 7.066s-4.59-.254-6.21-1.692-2.54-5.374-2.54-5.374ZM25.06 15.677a7.372 7.372 0 0 1 4.775 3.863s-2.506-.141-3.387-.942c-.88-.8-1.388-2.92-1.388-2.92Zm106.785.767a7.381 7.381 0 0 1 4.781 3.857s-2.506-.14-3.387-.941c-.881-.801-1.394-2.916-1.394-2.916Z"/>
  <path fill="#DBDBDB" d="M122.933 13.737a13.55 13.55 0 0 0 9.488-6.068s-4.589-.248-6.389 1.032c-1.863 1.348-3.099 5.036-3.099 5.036Zm74.185.4a13.559 13.559 0 0 0 9.489-6.067s-4.595-.248-6.396 1.032c-1.885 1.342-3.093 5.035-3.093 5.035ZM79.31 8.318a8.167 8.167 0 0 0 5.52-3.948s-2.765 0-3.81.812c-1.044.813-1.71 3.136-1.71 3.136Zm144.521 7.308a8.133 8.133 0 0 0 5.515-3.947s-2.766 0-3.804.812c-1.039.812-1.711 3.135-1.711 3.135Zm-196.598-.101a9.387 9.387 0 0 0 5.469-5.73s-3.206.564-4.216 1.754c-1.01 1.19-1.253 3.976-1.253 3.976Z"/>
  <path fill="#fff" d="M177.195 38.082H76.787v154.52h100.408V38.082Z"/>
  <path fill="#37474F" d="M180.609 195.986H73.401V34.704h107.208v161.282Zm-100.407-6.767h93.634V41.471H80.174l.028 147.748Z"/>
  <path fill="#37474F" d="M177.195 96.521H76.787v3.417h100.408v-3.417Zm0-25.478H76.787v3.417h100.408v-3.417Z"/>
  <path fill="#37474F" d="M149.708 44.556V97.53h3.105V44.556h-3.105Zm-24.269 0V97.53h3.104V44.556h-3.104Zm-24.27 0V97.53h3.105V44.556h-3.105Z"/>
  <path fill="#37474F" d="M183.482 34.134H70.5v12.373h112.982V34.134Z"/>
  <path fill="#263238" d="M183.482 34.134H70.5v8.628h112.982v-8.628Z"/>
  <path fill="#37474F" d="M187.755 27.948H66.233v12.373h121.522V27.948Z"/>
  <path fill="#DBDBDB" d="M73.4 46.512H23.204v149.474H73.4V46.512Z"/>
  <path fill="#C7C7C7" d="M68.953 51.52H27.65v2.752h41.303V51.52Zm0 5.064H27.65v2.752h41.303v-2.752Zm0 5.064H27.65V64.4h41.303v-2.752Zm0 5.058H27.65v2.752h41.303v-2.752Zm0 5.064H27.65v2.752h41.303V71.77Zm0 5.065H27.65v2.752h41.303v-2.752Zm0 5.063H27.65v2.752h41.303v-2.752Zm0 5.065H27.65v2.752h41.303v-2.752Zm0 5.064H27.65v2.751h41.303v-2.751Zm0 5.063H27.65v2.753h41.303V97.09Zm0 5.059H27.65v2.752h41.303v-2.752Zm0 5.064H27.65v2.752h41.303v-2.752Zm0 10.128H27.65v2.752h41.303v-2.752Zm0 5.064H27.65v2.752h41.303v-2.752Zm0 5.064H27.65v2.752h41.303v-2.752Zm0 5.064H27.65v2.752h41.303v-2.752Zm0 5.059H27.65v2.752h41.303v-2.752Zm0 5.064H27.65v2.752h41.303v-2.752Zm0 5.064H27.65v2.752h41.303v-2.752Zm0 5.064H27.65v2.752h41.303v-2.752Zm0 5.064H27.65v2.752h41.303v-2.752Zm0 5.064H27.65v2.752h41.303v-2.752Zm0 5.064H27.65v2.752h41.303v-2.752Zm0 5.064H27.65v2.752h41.303v-2.752Zm0 5.058H27.65v2.752h41.303v-2.752Zm0 5.064H27.65v2.752h41.303v-2.752Zm0 5.064H27.65v2.752h41.303v-2.752Z"/>
  <path fill="#DBDBDB" d="M230.779 46.512h-50.198v149.474h50.198V46.512Z"/>
  <path fill="#C7C7C7" d="M226.332 51.52h-41.303v2.752h41.303V51.52Zm0 5.064h-41.303v2.752h41.303v-2.752Zm0 5.064h-41.303V64.4h41.303v-2.752Zm0 5.058h-41.303v2.752h41.303v-2.752Zm0 5.064h-41.303v2.752h41.303V71.77Zm0 5.065h-41.303v2.752h41.303v-2.752Zm0 5.063h-41.303v2.752h41.303v-2.752Zm0 5.065h-41.303v2.752h41.303v-2.752Zm0 5.064h-41.303v2.751h41.303v-2.751Zm0 5.063h-41.303v2.753h41.303V97.09Zm0 5.059h-41.303v2.752h41.303v-2.752Zm0 5.064h-41.303v2.752h41.303v-2.752Zm0 10.128h-41.303v2.752h41.303v-2.752Zm0 5.064h-41.303v2.752h41.303v-2.752Zm0 5.064h-41.303v2.752h41.303v-2.752Zm0 5.064h-41.303v2.752h41.303v-2.752Zm0 5.059h-41.303v2.752h41.303v-2.752Zm0 5.064h-41.303v2.752h41.303v-2.752Zm0 5.064h-41.303v2.752h41.303v-2.752Zm0 5.064h-41.303v2.752h41.303v-2.752Zm0 5.064h-41.303v2.752h41.303v-2.752Zm0 5.064h-41.303v2.752h41.303v-2.752Zm0 5.064h-41.303v2.752h41.303v-2.752Zm0 5.064h-41.303v2.752h41.303v-2.752Zm0 5.058h-41.303v2.752h41.303v-2.752Zm0 5.064h-41.303v2.752h41.303v-2.752Zm0 5.064h-41.303v2.752h41.303v-2.752Z"/>
  <path fill="#263238" d="M138.008 119.146c-.305 9.975 1.005 21.993-3.951 31.106-3.877 7.128-11.214 11.566-18.659 14.205-16.368 5.803-38.622 5.024-48.539-11.527-3.95-6.615-3.713-19.737 3.996-23.972 3.951-2.16 8.466-2.385 12.846-3.214 5.746-1.083 10.047-3.948 13.044-8.967 5.864-9.812 5.418-17.357 7.23-28.314.344-2.03.976-4.01 3.132-5.583a14.025 14.025 0 0 1 6.824-3.136c2.174-.753 4.5-.958 6.772-.597 4.849.88 9.2 5.746 12.767 8.836s5.148 6.237 5.08 11.059c-.04 6.705-.339 13.404-.542 20.104Z"/>
  <path fill="#263238" d="M138.883 123.928c-.305-9.17-.796-18.311-1.225-27.469 0-.056-.085-.062-.085 0 .13 7.545.164 15.085.396 22.63.225 7.393.965 14.978.564 22.371-.948 16.585-18.507 22.033-32.544 20.149-.637-.085-.699.942-.05 1.004 12.371 1.269 27.486-1.839 32.255-15.017 2.591-7.213.943-16.162.689-23.668Zm-34-36.272a.14.14 0 0 0-.138-.113.139.139 0 0 0-.089.032.135.135 0 0 0-.049.081c-1.129 9.08-1.552 19.738-7.338 27.305a23.24 23.24 0 0 1-11.226 7.895c-3.527 1.128-7.168.976-10.802 1.41-14.2 1.692-15.804 20.555-6.164 28.692.198.17.503-.169.305-.355-6.722-6.242-8.297-16.782-1.88-23.944 5.148-5.746 13.998-3.124 20.635-5.932 13.755-5.82 16.018-21.824 16.746-35.07Z"/>
  <path fill="#F7A9A0" d="M106.345 126.358c-14.748 14.939-33.3 46.366-29.846 52.733 3.855 7.099 24.394-13.845 24.315-15.068-.062-.925 7.168-20.014 12.648-33.898 5.48-13.884-3.465-7.483-7.117-3.767Z"/>
  <path fill="#65BEDC" d="M100.949 164.023c.632-2.042 10.464-27.21 13.275-35.172 2.811-7.963.203-10.422-7.822-3.13-8.026 7.292-25.624 31.642-29.637 44.55-3.872 12.451 2.545 12.451 11.011 6.711 6.931-4.675 13.173-12.959 13.173-12.959Z"/>
  <path fill="#fff" d="M115.28 124.554c0 .146-.029.293-.051.451a.515.515 0 0 1-.684.146.504.504 0 0 1-.149-.718.498.498 0 0 1 .21-.17.494.494 0 0 1 .268-.037.494.494 0 0 1 .406.328Zm-16.735 10.534a.511.511 0 0 0-.474.31.51.51 0 0 0 .665.665.508.508 0 0 0-.191-.975Zm8.127 0a.506.506 0 0 0-.357.868.51.51 0 0 0 .782-.083.516.516 0 0 0 .045-.477.507.507 0 0 0-.47-.308Zm-4.063-5.205a.51.51 0 0 0-.498.608.505.505 0 0 0 .402.398.51.51 0 0 0 .455-.861.498.498 0 0 0-.359-.145Zm8.133 0a.505.505 0 0 0-.365.866.505.505 0 0 0 .556.109.513.513 0 0 0 .311-.473.503.503 0 0 0-.502-.502Zm-20.319 16.072a.504.504 0 0 0-.504.605.505.505 0 0 0 .4.4.504.504 0 0 0 .523-.219.512.512 0 0 0-.23-.75.495.495 0 0 0-.194-.036h.005Zm8.128 0a.504.504 0 0 0-.504.605.505.505 0 0 0 .4.4.504.504 0 0 0 .523-.219.511.511 0 0 0-.231-.75.495.495 0 0 0-.194-.036h.006Zm8.127 0a.508.508 0 0 0-.096 1.006.51.51 0 0 0 .286-.972.503.503 0 0 0-.196-.034h.006Zm-12.191-5.205a.504.504 0 0 0-.504.605.505.505 0 0 0 .4.4.504.504 0 0 0 .523-.219.512.512 0 0 0-.23-.75.495.495 0 0 0-.195-.036h.006Zm8.127 0a.505.505 0 0 0-.497.608.51.51 0 0 0 .402.398.51.51 0 0 0 .564-.699.503.503 0 0 0-.474-.307h.005Zm-12.197 16.06a.512.512 0 0 0-.473.311.505.505 0 0 0 .37.695.505.505 0 0 0 .523-.22.506.506 0 0 0 .083-.284.502.502 0 0 0-.502-.502Zm8.128 0a.511.511 0 0 0-.474.311.506.506 0 0 0 .665.664.508.508 0 0 0-.191-.975Zm-12.191-5.194a.509.509 0 1 0 0 1.017.509.509 0 0 0 0-1.017Zm8.133 0a.505.505 0 0 0-.474.311.506.506 0 0 0 .37.695.513.513 0 0 0 .523-.22.507.507 0 0 0 .044-.477.51.51 0 0 0-.275-.272.515.515 0 0 0-.194-.037h.006Zm8.127 0a.506.506 0 0 0-.497.609.51.51 0 0 0 .402.397.51.51 0 0 0 .52-.22.502.502 0 0 0 .083-.284.494.494 0 0 0-.151-.359.516.516 0 0 0-.362-.143h.005Zm-20.318 16.072a.504.504 0 0 0-.09.995.503.503 0 1 0 .078-.995h.012Zm8.133 0a.504.504 0 0 0-.493.6.502.502 0 1 0 .481-.6h.012Zm-4.075-5.205a.509.509 0 1 0 0 1.017.509.509 0 0 0 0-1.017Zm8.133 0a.512.512 0 0 0-.474.311.505.505 0 0 0 .37.695.505.505 0 0 0 .523-.22.507.507 0 0 0 .044-.477.5.5 0 0 0-.469-.309h.006ZM82.29 178.555a.5.5 0 0 0-.486.603.504.504 0 0 0 .685.362.504.504 0 0 0 .27-.658.501.501 0 0 0-.475-.307h.006Zm-4.064-5.205a.512.512 0 0 0-.473.311.505.505 0 0 0 .37.694.504.504 0 0 0 .522-.219.506.506 0 0 0 .045-.478.505.505 0 0 0-.47-.308h.006Zm8.128 0a.509.509 0 1 0 0 1.017.509.509 0 0 0 0-1.017Z"/>
  <path fill="#F7A9A0" d="m95.119 186.89 1.473-8.826 2.117-15.66s-4.984-8.696-2.094-14.933c1.461-3.163 14.268-22.805 19.652-26.752 5.08-3.671 12.417.259 15.138 3.13 10.531 11.075 15.498 33.068 19.28 63.024l-55.566.017Z"/>
  <path fill="#65BEDC" d="m96.965 175.295 1.744-12.885s-4.984-8.696-2.094-14.938c1.461-3.164 14.268-22.806 19.652-26.753 5.08-3.665 12.417.259 15.138 3.135 9.12 9.587 14.07 27.373 17.688 51.425l-52.128.016Z"/>
  <path fill="#263238" d="M118.581 162.145a49.85 49.85 0 0 0-7.393-.096c-1.22.09-2.433.237-3.646.412-.604.084-1.208.152-1.818.214a7.71 7.71 0 0 1-1.908 0c-.006-.003-.014-.004-.021-.003a.05.05 0 0 0-.02.008.043.043 0 0 0-.014.016.04.04 0 0 0-.005.021c0 .007.001.015.005.021a.043.043 0 0 0 .014.016.05.05 0 0 0 .02.008c.007.001.015 0 .021-.003.59.136 1.188.232 1.79.288.584.04 1.171.04 1.755 0 1.242-.079 2.478-.22 3.719-.31 2.501-.192 5.001-.378 7.513-.389a.103.103 0 0 0 .096-.107.102.102 0 0 0-.108-.096Zm5.589 3.203a53.6 53.6 0 0 0-5.949-1.354 36.543 36.543 0 0 0-3.026-.355 41.809 41.809 0 0 0-1.456-.09c-.486-.023-1.073 0-1.609 0-.056 0-.073.079 0 .085.502.05.999.18 1.496.259l1.501.225c1.005.153 2.01.316 3.015.463 2.009.288 4.013.592 6.011.947.107.006.13-.152.017-.18Zm-27.578 12.716c.282-2.616.565-5.239.898-7.849.333-2.611.62-5.234.97-7.845l.051.186a15.948 15.948 0 0 1-1.834-3.434 17.833 17.833 0 0 1-1.039-3.739 17.2 17.2 0 0 1-.169-3.885c.146-1.295.47-2.565.96-3.773a38.197 38.197 0 0 1 3.618-6.767 64.288 64.288 0 0 1 4.56-6.169 88.71 88.71 0 0 0-4.272 6.35 42.99 42.99 0 0 0-3.438 6.767 13.552 13.552 0 0 0-.892 3.637 17.76 17.76 0 0 0 1.163 7.387 15.289 15.289 0 0 0 1.738 3.328l.057.084v.096c-.35 2.611-.762 5.211-1.129 7.822-.367 2.611-.818 5.205-1.242 7.804Z"/>
  <path fill="#263238" d="M100.334 140.947a4.6 4.6 0 0 1 .209-1.032 8.76 8.76 0 0 1 .367-.981c.141-.316.288-.632.457-.936.169-.307.357-.603.565-.886-.215.671-.492 1.303-.763 1.935-.27.631-.57 1.251-.835 1.9Z"/>
  <path fill="#65BEDC" d="M54.6 231.005h144.782l5.395-27.113H49.205l5.396 27.113Z"/>
  <path fill="#000" d="m49.21 203.892 1.93 9.694h151.701l1.93-9.694H49.211Z" opacity=".12"/>
  <path fill="#65BEDC" d="M46.496 210.259h160.99v-8.25H46.496v8.25Z"/>
  <path fill="#455A64" d="M205.663 199.403a3.524 3.524 0 0 1-1.789.942 4.31 4.31 0 0 1-1.129 4.805 2.427 2.427 0 0 1-1.58 3.331c-.452.124-.93.115-1.377-.027a6.075 6.075 0 0 1-8.731 2.205 4.646 4.646 0 0 1-5.919 1.98 4.656 4.656 0 0 1-1.786-1.382 7.378 7.378 0 0 1-9.741-.953 4.397 4.397 0 0 1-2.45 1.128c-1.129.191-2.314.062-3.42.327-1.569.378-2.512 1.505-3.725 2.447-1.214.942-3.386 1.297-4.555.339a15.74 15.74 0 0 1-12.445 7.945c-4.408.339-9.9-1.765-10.944-6.276a9.231 9.231 0 0 1-14.606-3.576c-3.46 1.444-7.942 2.408-10.16-.924a5.779 5.779 0 0 1-7.647.97c-3.522 3.727-9.838 8.227-14.003 3.299-3.567 3.197-9.522 5.306-12.592.563-2.986 1.754-6.773 3.333-10.058 1.608-2.167-1.128-3.567-3.44-3.211-5.803a4.37 4.37 0 0 1-4.436-1.861c-1.411.671-2.213-.801-3.325-1.743-2.139-1.832-4.967-.496-7.196-2.064-3.612-2.532-.508-6.581 2.387-7.894a5.584 5.584 0 0 1 1.814-4.972 5.592 5.592 0 0 1 5.151-1.232 7.094 7.094 0 0 1 3.556-7.229c3.85-2.166 8.32-.276 11.141 2.667a14.499 14.499 0 0 1 12.903-6.502c3.149.169 7.337 2.019 8.86 4.951a12.155 12.155 0 0 1 3.325-1.302 12.25 12.25 0 0 1 12.14 4.004 10.914 10.914 0 0 1 5.838-.479 10.916 10.916 0 0 1 5.242 2.61 9.415 9.415 0 0 1 8.001-3.907 9.426 9.426 0 0 1 7.683 4.499 14.94 14.94 0 0 1 23.547 1.128c2.766-4.889 8.342-5.171 13.687-4.573 1.693.18 2.822.169 4.357-.536.565-.254 1.05-.62 1.609-.863a11.42 11.42 0 0 1 3.68-.947 12.785 12.785 0 0 1 7.365 1.579c.988.564 1.998 1.985 2.946 2.374 1.191.485 3.387-.209 4.758-.028 2.461.333 5.08 1.489 6.677 3.468 1.36 1.748 1.925 4.252.158 5.904Z"/>
  <path fill="#65BEDC" d="M65.923 197.108c1.13-2.34 0-6.525-2.952-7.726-2.952-1.201-6.97 1.077-7.626 3.654-.654 2.578 2.168 6.886 4.482 7.196 2.585.327 5.26-1.404 6.096-3.124Z"/>
  <path fill="#000" d="M54.11 193.657c2.094 1.793 5.57 3.383 8.415 3.265a23.294 23.294 0 0 1-3.77 3.699c-.08.068 0 .215.107.152 3.263-2.171 6.474-6.096 6.616-10.15 0-.057-.074-.057-.08 0a10.565 10.565 0 0 1-.953 3.276c-1.13-2.425-4.324-4.246-6.774-4.821a.06.06 0 0 0-.048.003.067.067 0 0 0-.03.036.063.063 0 0 0 .002.048.06.06 0 0 0 .037.031c.75.303 1.482.646 2.195 1.026-1.354 1.196-2.376 3.525-2.071 5.313a18.938 18.938 0 0 1-3.5-2.036c-.073-.085-.242.079-.147.158Zm8.54 3.124a13.365 13.365 0 0 1-3.438-.699 7.949 7.949 0 0 0 4.753-1.252c-.392.68-.832 1.332-1.315 1.951Zm1.693-2.696c-.09.186-.186.367-.288.564a10.54 10.54 0 0 1-3.522 1.066 6.634 6.634 0 0 0 2.602-3.079c.446.446.85.931 1.208 1.449Zm-1.276-1.533a11.22 11.22 0 0 1-1.62 2.188 7.397 7.397 0 0 1-.683-.192 2.826 2.826 0 0 0 1.13-2.357c.315.039.637.095.964.163l.21.198Zm-2.404-.429c.103.164.186.34.248.524.052.228.073.461.062.694a3.151 3.151 0 0 1-1.129-.045 5.18 5.18 0 0 1 .39-1.128c.158-.034.288-.039.429-.045Zm.209 0c.315-.001.63.018.942.056a5.51 5.51 0 0 1-.361 1.094l-.435.062a1.418 1.418 0 0 0-.146-1.212Zm.513 1.28c-.21.403-.494.765-.835 1.066a6.642 6.642 0 0 1-.604-.276 1.597 1.597 0 0 1-.119-.779 1.813 1.813 0 0 0 1.558-.011Zm-1.467-3.141a14.345 14.345 0 0 1 2.686 1.867 5.287 5.287 0 0 0-3.889.225 8.728 8.728 0 0 1 1.203-2.092Zm-1.27 2.256a6.387 6.387 0 0 1 1.478-.367 2.043 2.043 0 0 0-.423 1.878 4.58 4.58 0 0 1-1.23-1.049c.056-.147.118-.299.175-.451v-.011Zm-.26.71a4.34 4.34 0 0 0 2.969 1.585 7.804 7.804 0 0 1-1.067.908c-.496.067-1.01.113-1.552.163-.277-.107-.565-.214-.83-.332a12.41 12.41 0 0 1 .48-2.313v-.011Z" opacity=".12"/>
  <path fill="#65BEDC" d="M115.247 196.234c1.128-2.346 0-6.525-2.953-7.731-2.952-1.207-6.976 1.082-7.631 3.654-.655 2.571 2.173 6.891 4.516 7.19 2.574.321 5.232-1.371 6.068-3.113Z"/>
  <path fill="#000" d="M103.433 192.783c2.094 1.787 5.565 3.383 8.416 3.265a23.313 23.313 0 0 1-3.771 3.699c-.079.068 0 .209.107.152 3.263-2.171 6.475-6.101 6.616-10.15a.036.036 0 0 0-.012-.028.036.036 0 0 0-.028-.012.04.04 0 0 0-.039.04 10.595 10.595 0 0 1-.954 3.276c-1.129-2.425-4.324-4.246-6.774-4.821a.06.06 0 0 0-.047.003.063.063 0 0 0-.032.036.062.062 0 0 0 .004.048c.007.015.02.026.036.031.75.302 1.483.644 2.196 1.026-1.355 1.196-2.377 3.519-2.072 5.307a18.65 18.65 0 0 1-3.5-2.03c-.101-.085-.242.073-.146.158Zm8.529 3.124a13.375 13.375 0 0 1-3.438-.705 7.834 7.834 0 0 0 4.747-1.252 15.552 15.552 0 0 1-1.309 1.957Zm1.693-2.696c-.09.186-.186.367-.288.564-1.102.559-2.295.92-3.522 1.066a6.637 6.637 0 0 0 2.602-3.079c.452.443.86.928 1.219 1.449h-.011Zm-1.281-1.539a10.811 10.811 0 0 1-1.615 2.193 5.845 5.845 0 0 1-.683-.197 2.82 2.82 0 0 0 1.129-2.357c.316.037.638.094.965.169l.204.192Zm-2.399-.423c.1.166.184.341.248.524.052.228.073.461.062.694a3.13 3.13 0 0 1-1.129-.051 5.38 5.38 0 0 1 .39-1.128c.158-.028.299-.039.44-.039h-.011Zm.209 0c.315.002.629.021.942.056-.08.378-.203.745-.367 1.094-.141 0-.288.051-.429.068.07-.201.094-.416.07-.627a1.427 1.427 0 0 0-.205-.597l-.011.006Zm.513 1.286a3.789 3.789 0 0 1-.835 1.065 6.087 6.087 0 0 1-.604-.276 1.606 1.606 0 0 1-.119-.778 1.828 1.828 0 0 0 1.569-.017l-.011.006Zm-1.467-3.141c.963.516 1.865 1.14 2.686 1.86a5.288 5.288 0 0 0-3.889.232 8.713 8.713 0 0 1 1.214-2.098l-.011.006Zm-1.27 2.255a6.116 6.116 0 0 1 1.478-.366 2.047 2.047 0 0 0-.423 1.878 4.516 4.516 0 0 1-1.213-1.049l.158-.463Zm-.26.711a4.346 4.346 0 0 0 2.969 1.584 8.178 8.178 0 0 1-1.067.908c-.497.062-1.01.113-1.552.158h-.028a12.549 12.549 0 0 1-.83-.327c.098-.787.272-1.564.519-2.318l-.011-.005Z" opacity=".12"/>
  <path fill="#65BEDC" d="M152.881 206.864c2.551-.564 5.153-4.01 4.301-7.066-.853-3.057-5.131-4.844-7.569-3.784-2.439 1.06-4.115 5.938-2.93 7.957 1.321 2.239 4.329 3.288 6.198 2.893Z"/>
  <path fill="#000" d="M148.365 195.428c-.13 2.746.745 6.462 2.58 8.639a23.569 23.569 0 0 1-5.233-.705c-.107 0-.158.147-.056.18 3.714 1.241 8.788 1.365 12.09-1.009a.05.05 0 0 0 .008-.026.062.062 0 0 0-.009-.026.054.054 0 0 0-.022-.015.05.05 0 0 0-.027-.001 10.57 10.57 0 0 1-3.178 1.258c1.242-2.363.705-6.017-.339-8.301a.058.058 0 0 0-.031-.036.062.062 0 0 0-.048-.004.063.063 0 0 0-.036.032.055.055 0 0 0-.003.047c.231.777.419 1.566.564 2.363-1.778-.338-4.239.288-5.47 1.624a19.029 19.029 0 0 1-.564-4.009c-.006-.13-.22-.141-.226-.011Zm2.76 8.644a13.452 13.452 0 0 1-1.552-3.141 7.865 7.865 0 0 0 3.9 2.978 16.17 16.17 0 0 1-2.348.163Zm3.178-.31a7.615 7.615 0 0 1-.609.107 10.428 10.428 0 0 1-3.003-2.126 6.646 6.646 0 0 0 4.03.17 10.099 10.099 0 0 1-.418 1.849Zm.429-1.951c-.9.135-1.814.158-2.72.068a5.449 5.449 0 0 1-.266-.66 2.833 2.833 0 0 0 2.552-.564c.165.278.318.566.457.863a5.356 5.356 0 0 1-.023.293Zm-1.129-2.16a2.672 2.672 0 0 1-.265.519 2.12 2.12 0 0 1-.508.474 3.051 3.051 0 0 1-.649-.914c.36-.174.739-.306 1.129-.395l.293.316Zm.13.169c.193.247.37.505.531.773a4.922 4.922 0 0 1-1.084.389l-.322-.304c.2-.069.382-.182.532-.331.15-.148.266-.328.337-.527h.006Zm-.694 1.19c-.45.085-.911.085-1.36 0a5.031 5.031 0 0 1-.147-.643c.135-.234.329-.429.564-.563a1.79 1.79 0 0 0 .937 1.206h.006Zm1.58-3.084c.18 1.076.237 2.17.17 3.259a5.235 5.235 0 0 0-2.563-2.921 8.687 8.687 0 0 1 2.388-.338h.005Zm-2.574.389c.438.261.84.577 1.197.942a2.046 2.046 0 0 0-.975.189 2.05 2.05 0 0 0-.769.628 4.586 4.586 0 0 1 .079-1.618l.468-.141Zm-.716.231a4.322 4.322 0 0 0 .564 3.316 7.66 7.66 0 0 1-1.372-.288 35.11 35.11 0 0 1-1.078-1.128c-.09-.287-.169-.564-.248-.857a12.404 12.404 0 0 1 2.128-1.049l.006.006Z" opacity=".12"/>
  <path fill="#65BEDC" d="M191.83 200.649c-2.546-.563-5.153-4.009-4.301-7.066.852-3.056 5.131-4.844 7.569-3.778 2.439 1.066 4.115 5.933 2.93 7.952-1.316 2.238-4.33 3.287-6.198 2.892Z"/>
  <path fill="#000" d="M196.126 189.224a19.38 19.38 0 0 1-.565 4.01c-1.225-1.337-3.691-1.957-5.469-1.624.145-.797.333-1.586.564-2.363a.05.05 0 0 0 .003-.024.105.105 0 0 0-.006-.024.07.07 0 0 0-.015-.019.094.094 0 0 0-.022-.012c-.007-.003-.016-.004-.024-.003a.086.086 0 0 0-.023.006.058.058 0 0 0-.019.015.067.067 0 0 0-.013.021c-1.044 2.284-1.574 5.939-.338 8.301a10.532 10.532 0 0 1-3.178-1.257.043.043 0 0 0-.031-.006.035.035 0 0 0-.014.006.043.043 0 0 0-.012.011l-.006.015a.043.043 0 0 0 0 .016c.001.005.004.01.007.014a.025.025 0 0 0 .011.012c3.296 2.379 8.371 2.255 12.09 1.009.096-.034.045-.203-.056-.175a24.295 24.295 0 0 1-5.238.705c1.834-2.182 2.715-5.899 2.579-8.645-.011-.13-.225-.118-.225.011Zm-4.889 8.459a7.861 7.861 0 0 0 3.901-2.977 13.225 13.225 0 0 1-1.553 3.141c-.785.006-1.57-.045-2.348-.152v-.012Zm-1.241-1.996a6.654 6.654 0 0 0 4.03-.169 10.611 10.611 0 0 1-3.009 2.131 9.899 9.899 0 0 1-.604-.112 9.678 9.678 0 0 1-.417-1.816v-.034Zm-.04-.389c.147-.299.299-.564.463-.863a2.814 2.814 0 0 0 2.551.564 6.585 6.585 0 0 1-.265.66c-.908.09-1.824.067-2.726-.068-.012-.09-.012-.186-.023-.282v-.011Zm1.439-2.183c.391.084.77.215 1.129.39a3.152 3.152 0 0 1-.654.919 2.41 2.41 0 0 1-.508-.48 2.522 2.522 0 0 1-.266-.513c.107-.096.203-.203.299-.304v-.012Zm.463 1.337a5.006 5.006 0 0 1-.316.304 5.123 5.123 0 0 1-1.089-.383c.159-.271.336-.531.53-.778a1.43 1.43 0 0 0 .875.868v-.011Zm.79-.885a1.5 1.5 0 0 1 .565.564 6.17 6.17 0 0 1-.152.642 3.632 3.632 0 0 1-1.355 0 1.803 1.803 0 0 0 .942-1.195v-.011Zm-.158-1.529a5.273 5.273 0 0 0-2.562 2.927 14.394 14.394 0 0 1 .169-3.265c.81.004 1.616.122 2.393.35v-.012Zm.65.198c.127.528.155 1.074.084 1.613a2.03 2.03 0 0 0-1.75-.813 5.95 5.95 0 0 1 1.197-.947c.158.062.316.102.469.158v-.011Zm2.41 1.128c-.074.287-.158.563-.249.857-.372.4-.722.772-1.078 1.128-.449.137-.91.233-1.377.287a4.322 4.322 0 0 0 .565-3.316c.744.279 1.461.628 2.139 1.044Z" opacity=".12"/>
  <path fill="#65BEDC" d="M86.241 211.161c-2.545-.536-5.147-4.01-4.3-7.066.846-3.056 5.13-4.844 7.569-3.778 2.438 1.066 4.12 5.938 2.935 7.951-1.321 2.244-4.33 3.293-6.204 2.893Z"/>
  <path fill="#000" d="M90.537 199.736a18.59 18.59 0 0 1-.565 4.009c-1.224-1.336-3.685-1.956-5.463-1.624.135-.795.314-1.581.536-2.357a.062.062 0 0 0-.002-.048.063.063 0 0 0-.035-.034.063.063 0 0 0-.048.002.063.063 0 0 0-.034.035c-1.05 2.284-1.58 5.944-.338 8.301a10.475 10.475 0 0 1-3.178-1.258c-.045 0-.09.04-.051.068 3.296 2.38 8.376 2.256 12.09 1.009.102-.033.046-.197-.056-.174a23.62 23.62 0 0 1-5.233.705c1.835-2.183 2.71-5.899 2.58-8.64.011-.129-.197-.118-.203.006Zm-4.888 8.459a7.9 7.9 0 0 0 3.906-2.983c-.378 1.11-.9 2.166-1.553 3.141a15.7 15.7 0 0 1-2.353-.141v-.017Zm-1.242-2.002a6.646 6.646 0 0 0 4.03-.164 10.462 10.462 0 0 1-3.008 2.126l-.604-.107a10.133 10.133 0 0 1-.418-1.838v-.017Zm-.04-.384c.147-.304.3-.592.463-.868a2.833 2.833 0 0 0 2.551.564 6.088 6.088 0 0 1-.265.654 11.01 11.01 0 0 1-2.72-.062c-.017-.079-.017-.175-.029-.271v-.017Zm1.423-2.193c.39.088.769.22 1.129.394-.163.34-.382.649-.65.914a2.376 2.376 0 0 1-.507-.474 2.13 2.13 0 0 1-.266-.519 1.04 1.04 0 0 0 .294-.315Zm.463 1.342-.317.299a5.39 5.39 0 0 1-1.089-.384 8.3 8.3 0 0 1 .536-.778 1.415 1.415 0 0 0 .887.885l-.017-.022Zm.79-.891c.234.135.429.33.564.564a4.336 4.336 0 0 1-.152.648 3.76 3.76 0 0 1-1.355 0 1.782 1.782 0 0 0 .96-1.19l-.017-.022Zm-.158-1.528a5.254 5.254 0 0 0-2.557 2.926 14.358 14.358 0 0 1 .17-3.259c.82 0 1.635.119 2.42.355l-.033-.022Zm.655.197a4.61 4.61 0 0 1 .079 1.618 2.027 2.027 0 0 0-1.75-.817c.359-.362.76-.678 1.196-.942l.475.141Zm2.404 1.128c-.073.293-.158.564-.243.857h-.028c-.367.4-.722.773-1.078 1.128-.45.133-.91.227-1.377.282a4.312 4.312 0 0 0 .564-3.31c.76.278 1.49.632 2.18 1.054l-.018-.011Z" opacity=".12"/>
  <path fill="#F7A9A0" d="M76.5 179.068c3.318 4.748 12.354 5.639 34.902 10.066 3.116.609 13.331-20.228 10.052-21.045-4.154-1.038-20.493-4.162-21.718-4.241-10.323-.66-25.489 12.006-23.237 15.22Z"/>
  <path fill="#F7A9A0" d="M116.945 167.057s9.555 1.438 14.335 3.75c6.406 3.09 10.662 8.396 12.31 10.714 3.443 4.867 8.398 19.004 4.566 21.142-3.46 1.934-7.794-12.773-7.794-12.773s6.897 14.267 2.297 15.829c-4.6 1.562-8.664-15.79-8.664-15.79s6.773 14.815 1.761 15.677c-3.776.654-8.342-14.865-8.342-14.865s5.718 12.779 1.863 13.613c-4.261.953-9.369-13.145-9.369-13.145-10.16.48-15.194-3.445-18.445-6.66-.785-.767 15.482-17.492 15.482-17.492Z"/>
  <path fill="#263238" d="M138.279 184.814c.869 1.647 1.767 3.305 2.484 5.025.716 1.72 1.383 3.462 1.941 5.239a31.407 31.407 0 0 1 1.513 7.128c-.722-4.275-3.212-10.467-3.951-12.187-.74-1.719-1.355-3.468-2.077-5.182.017-.045.09-.062.09-.023Zm-6.248 2.487c1.022 2.155 2.117 4.252 3.042 6.446.926 2.194 1.603 4.342 2.371 6.587.062.169-.051.146-.118-.029-.858-2.21-1.824-4.184-2.704-6.389-.881-2.205-1.693-4.432-2.642-6.592-.017-.034.04-.062.051-.023Zm-5.751 1.173a53.08 53.08 0 0 1 3.889 10.213c.056.169-.09.124-.153-.051-1.23-3.417-2.167-6.107-3.849-10.1-.028-.062.073-.146.113-.062Zm10.661-14.036a20.28 20.28 0 0 1 3.105 2.482 25.01 25.01 0 0 1 2.664 2.96c.412.525.779 1.077 1.163 1.624.384.547.717 1.128 1.005 1.692a19.807 19.807 0 0 1 1.546 3.666c-.333-.564-.564-1.19-.931-1.749l-.474-.862c-.164-.282-.345-.564-.514-.835a37.199 37.199 0 0 0-2.258-3.22 43.696 43.696 0 0 0-2.523-3 39.83 39.83 0 0 0-2.783-2.758Z"/>
  <path fill="#65BEDC" d="M118.937 167.057 99.183 189.05s-19.975-4.585-22.915-9.7c-1.936-3.383 13.1-17.013 24.45-15.423l18.219 3.13Z"/>
  <path fill="#fff" d="M90.92 168.19a.505.505 0 0 1-.311.473.505.505 0 0 1-.696-.37.505.505 0 0 1 .505-.605.503.503 0 0 1 .502.502Zm7.625-.502a.504.504 0 0 0-.493.6.503.503 0 1 0 .493-.6Zm8.127 0a.507.507 0 0 0-.46.314.501.501 0 1 0 .46-.314Zm8.133 0a.506.506 0 0 0-.464.31.497.497 0 0 0 .109.547.5.5 0 0 0 .773-.076.506.506 0 0 0-.062-.634.505.505 0 0 0-.356-.147Zm-32.52 10.867a.5.5 0 0 0-.487.603.504.504 0 0 0 .686.362.504.504 0 0 0 .16-.82.496.496 0 0 0-.359-.145Zm8.133 0a.497.497 0 0 0-.465.31.5.5 0 0 0 .367.684.506.506 0 0 0 .6-.492.502.502 0 0 0-.502-.502Zm8.127 0a.499.499 0 0 0-.355.857.501.501 0 0 0 .773-.076.504.504 0 0 0-.063-.634.503.503 0 0 0-.355-.147Zm8.127 0a.499.499 0 0 0-.46.314.5.5 0 0 0 .37.68.506.506 0 0 0 .514-.214.5.5 0 0 0-.23-.743.493.493 0 0 0-.194-.037Zm-20.318-5.205a.509.509 0 1 0 0 1.017.509.509 0 0 0 0-1.017Zm8.133 0a.512.512 0 0 0-.474.311.506.506 0 0 0 .665.664.508.508 0 0 0-.197-.975h.006Zm8.127 0a.506.506 0 0 0-.357.868.51.51 0 0 0 .782-.083.5.5 0 0 0 .083-.283.503.503 0 0 0-.513-.502h.005Zm8.133 0a.51.51 0 0 0-.504.605.506.506 0 0 0 .401.4.505.505 0 0 0 .606-.503.498.498 0 0 0-.314-.465.5.5 0 0 0-.194-.037h.005Zm-24.393 10.867a.509.509 0 1 0 0 1.017.509.509 0 0 0 0-1.017Zm8.133 0a.512.512 0 0 0-.474.31.51.51 0 0 0 .665.665.508.508 0 0 0-.197-.975h.006Zm8.133 0a.507.507 0 0 0-.359.864.495.495 0 0 0 .359.145l.497-.564a.508.508 0 0 0-.503-.451l.006.006Z"/>
  <path fill="#263238" d="M87.183 167.485c1.83-1.325 6.982-4.415 13.546-3.592.057 0 .062.101 0 .096-4.955-.141-11.644 2.447-13.546 3.575-.005.028-.045-.039 0-.079Zm6.604 17.865c2.043-2.532 4.216-4.951 6.4-7.365 2.185-2.413 4.363-4.838 6.61-7.201 1.264-1.336 2.528-2.679 3.843-3.947.034-.034.096 0 .068.056-2.038 2.526-4.211 4.963-6.372 7.387a528.552 528.552 0 0 1-6.576 7.23 105.279 105.279 0 0 1-3.843 3.947c-.068.062-.186-.033-.13-.107Z"/>
  <path fill="#263238" d="M118.976 166.769a27.573 27.573 0 0 0-3.702-.84c-1.247-.237-2.5-.446-3.748-.649-2.489-.4-7.721-1.528-12.32-1.517-.052 0 .208.248.259.248 2.19-.118 17.88 3 19.19 3.091-.053.083-.1.17-.141.259 0 .068.039.147.107.102.163-.108.276-.243.429-.361a.191.191 0 0 0 .072-.191.185.185 0 0 0-.052-.092.18.18 0 0 0-.094-.05Z"/>
  <path fill="#65BEDC" d="M135.005 125.23c18.874 16.45 33.718 36.774 32.736 41.855-1.778 9.462-14.223 10.054-16.131 8.007-7.642-8.272-15.707-24.299-24.444-42.181-7.806-15.982 1.625-13.089 7.839-7.681Z"/>
  <path fill="#fff" d="M131.568 124.723a.51.51 0 0 1-.311.473.504.504 0 0 1-.665-.664.503.503 0 0 1 .474-.311.503.503 0 0 1 .502.502Zm-.502 10.365a.51.51 0 0 0-.504.605.505.505 0 0 0 .401.4.502.502 0 0 0 .522-.219.514.514 0 0 0-.064-.639.503.503 0 0 0-.355-.147Zm8.127 0a.506.506 0 0 0-.357.868.51.51 0 0 0 .783-.083.516.516 0 0 0 .044-.477.492.492 0 0 0-.111-.163.495.495 0 0 0-.359-.145Zm-12.202-5.205a.51.51 0 0 0-.504.605.505.505 0 0 0 .401.4.502.502 0 0 0 .522-.219.514.514 0 0 0-.064-.639.503.503 0 0 0-.355-.147Zm8.127 0a.51.51 0 0 0-.504.605.506.506 0 0 0 .401.4.505.505 0 0 0 .606-.503.502.502 0 0 0-.491-.502h-.012Zm4.064 16.072a.508.508 0 0 0-.498.608.505.505 0 0 0 .403.398.508.508 0 0 0 .603-.505.498.498 0 0 0-.497-.501h-.011Zm8.133 0a.507.507 0 1 0 .419.785.503.503 0 0 0 .045-.477.5.5 0 0 0-.469-.308h.005Zm7.953.028a.502.502 0 0 0-.328.473.5.5 0 0 0 .751.437.51.51 0 0 0 .186-.177l-.609-.733Zm-20.15-5.233a.505.505 0 0 0-.364.866.505.505 0 0 0 .783-.081.506.506 0 0 0-.059-.635.502.502 0 0 0-.348-.15h-.012Zm8.128 0a.508.508 0 0 0-.498.608.505.505 0 0 0 .402.398.51.51 0 0 0 .459-.857.502.502 0 0 0-.352-.149h-.011Zm7.704.236a.518.518 0 0 0 .072.624.49.49 0 0 0 .357.149.474.474 0 0 0 .209-.045c-.198-.248-.412-.485-.627-.728h-.011Zm-11.542 15.869c.107.186.203.372.305.564a.589.589 0 0 0 0-.084.496.496 0 0 0-.305-.48Zm7.902-.045a.513.513 0 0 0-.505.605.506.506 0 0 0 .401.401.514.514 0 0 0 .523-.22.51.51 0 0 0-.419-.786Zm8.127 0a.51.51 0 0 0-.504.605.505.505 0 0 0 .401.401.51.51 0 0 0 .464-.853.498.498 0 0 0-.344-.153h-.017Zm7.935.034a.514.514 0 0 0-.243.231.512.512 0 0 0 .127.621.508.508 0 0 0 .314.118.518.518 0 0 0 .344-.13 20.827 20.827 0 0 0-.525-.829l-.017-.011Zm-20.132-5.239a.51.51 0 0 0-.498.609.51.51 0 0 0 .923.176.506.506 0 0 0 .083-.283.502.502 0 0 0-.491-.491l-.017-.011Zm8.133 0a.51.51 0 0 0-.504.605.512.512 0 0 0 .401.401.514.514 0 0 0 .522-.22.503.503 0 0 0 .084-.284.504.504 0 0 0-.486-.491l-.017-.011Zm8.63.4-.237-.31a.493.493 0 0 0-.254-.067.507.507 0 0 0 0 1.009.516.516 0 0 0 .508-.502.775.775 0 0 0 0-.118l-.017-.012Zm-12.693 15.683a.507.507 0 0 0-.465.31.497.497 0 0 0 .109.547.504.504 0 0 0 .858-.355.503.503 0 0 0-.502-.502Zm8.127 0a.506.506 0 0 0-.493.6.51.51 0 0 0 .395.394.497.497 0 0 0 .516-.213.505.505 0 0 0-.401-.781h-.017Zm8.133 0a.506.506 0 0 0-.493.6.51.51 0 0 0 .395.394.497.497 0 0 0 .516-.213.505.505 0 0 0-.401-.781h-.017Zm-20.319-5.205a.506.506 0 0 0-.497.609c.02.098.069.189.14.26a.516.516 0 0 0 .556.106.506.506 0 0 0 .309-.473.498.498 0 0 0-.502-.502h-.006Zm8.134 0a.513.513 0 0 0-.505.605.513.513 0 0 0 .401.401.506.506 0 0 0 .523-.22.51.51 0 0 0-.414-.786h-.005Zm8.127 0a.51.51 0 0 0-.357.869.509.509 0 1 0 .363-.869h-.006Zm-8.127 10.867a.507.507 0 1 0 .005 0h-.005Zm8.127 0a.51.51 0 0 0-.498.609c.02.098.069.189.141.259a.503.503 0 0 0 .555.107.507.507 0 0 0 .31-.473.503.503 0 0 0-.502-.502h-.006Z"/>
  <path fill="#263238" d="M148.495 171.399c-1.383-2.143-2.687-4.354-4.008-6.542a489.209 489.209 0 0 1-3.917-6.598c-2.539-4.37-4.899-8.836-7.173-13.348-1.287-2.554-2.596-5.075-3.821-7.68-.04-.085-.175 0-.147.062a152.242 152.242 0 0 0 3.827 8.876l-.057-.073c-.304-.412-.609-.824-.908-1.241-.593-.823-1.129-1.664-1.694-2.526-.039-.068-.146 0-.107.067a29.077 29.077 0 0 0 2.066 3.384c.374.504.777.986 1.208 1.443l.039.034a132.88 132.88 0 0 0 1.936 3.869 152.906 152.906 0 0 0 7.699 13.263c.79 1.201 1.586 2.397 2.415 3.575.83 1.179 1.694 2.318 2.574 3.48.011.073.113.028.068-.045Z"/>
  <path fill="#F7A9A0" d="M154.737 173.26c-3.578-5.126-1.784-15.322 2.167-39.796.565-3.384 26.268-3.649 25.873 0-.497 4.59-5.08 22.731-6.271 25.376-5.853 13.083-19.348 17.899-21.769 14.42Z"/>
  <path fill="#F7A9A0" d="M181.941 136.622c1.067-2.741 5.972-17.933 6.209-21.785.237-3.851.152-14.989-2.783-15.474-2.935-.485-3.166 2.775-3.166 2.775s-.785-4.698-3.782-4.923c-2.997-.226-3.194 4.866-3.194 4.866s-1.157-4.765-4.165-4.77c-3.009-.006-2.303 5.137-2.303 5.137s-.858-4.404-3.336-3.384c-2.98 1.241-.485 9.187-1.078 13.416-.135.964-4.109 19.286-4.109 19.286l21.707 4.856Z"/>
  <path fill="#263238" d="M168.678 102.008c1.823 5.848 1.609 8.718.051 14.538-.029.118.135.186.175.073 2.043-5.566 2.822-9.13.056-14.712-.135-.277-.367-.175-.282.101Zm6.406-.389c1.36 6.237 1.157 9.355 0 15.575 0 .085.135.125.158.034 1.693-6 2.376-9.586.197-15.626-.129-.276-.417-.265-.355.017Zm7.061.829c.88 6.135.801 9.587-1.129 15.451a.115.115 0 0 0 .153.148.114.114 0 0 0 .061-.063c2.546-5.814 2.676-10.089 1.095-15.542-.101-.372-.237-.378-.18.006Z"/>
  <path fill="#F7A9A0" d="M156.532 136.56s-2.038-7.393-2.213-10.845c-.175-3.451 3.9-16.528 6.773-15.789 3.72.93 2.856 8.949 1.919 12.817 0 0 8.602 2.143 9.228 8.031.627 5.887-15.707 5.786-15.707 5.786Z"/>
  <path fill="#263238" d="M162.04 110.495c2.778 3.288 1.22 8.29.565 12.113a.358.358 0 0 0 .227.411.369.369 0 0 0 .168.018c3.545 1.128 8.218 3.772 9.37 7.522a.09.09 0 0 0 .04.048c.019.01.041.014.062.01a.091.091 0 0 0 .053-.032.098.098 0 0 0 .02-.059c-.689-4.196-5.08-7.162-9.031-8.155.705-3.913 2.049-9.022-1.474-11.904.006-.017-.022.006 0 .028Z"/>
  <path fill="#65BEDC" d="m183.183 141.753-29.829 8.459s-5.949 19.534-2.167 24.435c4.047 5.239 22.824-2.882 26.561-14.295l5.435-18.599Z"/>
  <path fill="#fff" d="M172.217 146.456a.5.5 0 0 1-.601.493.502.502 0 1 1 .601-.493Zm7.625-.501a.502.502 0 0 0-.498.608.505.505 0 0 0 .402.398.51.51 0 0 0 .455-.861.498.498 0 0 0-.359-.145Zm-24.388 10.855a.51.51 0 0 0-.504.605.505.505 0 0 0 .401.401.507.507 0 1 0 .103-1.006Zm8.133 0a.51.51 0 0 0-.504.605.505.505 0 0 0 .401.401.507.507 0 1 0 .103-1.006Zm8.127 0a.51.51 0 0 0-.504.605.506.506 0 0 0 .401.401.506.506 0 0 0 .522-.22.503.503 0 0 0 .084-.284.503.503 0 0 0-.503-.502Zm-12.196-5.205a.507.507 0 1 0 .508.502.5.5 0 0 0-.508-.491v-.011Zm8.133 0a.513.513 0 0 0-.504.605.506.506 0 1 0 .847-.459.502.502 0 0 0-.366-.135l.023-.011Zm8.127 0a.51.51 0 0 0-.498.609.51.51 0 0 0 .696.366.506.506 0 0 0 .31-.473.504.504 0 0 0-.508-.491v-.011Zm-20.318 16.072a.506.506 0 0 0-.465.31.505.505 0 0 0 .367.684.506.506 0 0 0 .6-.492.504.504 0 0 0-.508-.491l.006-.011Zm8.133 0a.5.5 0 0 0-.493.6.505.505 0 0 0 .395.394.506.506 0 0 0 .6-.492.504.504 0 0 0-.508-.491l.006-.011Zm8.127 0a.505.505 0 0 0-.464.31.504.504 0 0 0 .109.547.5.5 0 0 0 .857-.355.504.504 0 0 0-.508-.491l.006-.011Zm-20.319-5.205a.507.507 0 1 0 .503.502.502.502 0 0 0-.514-.491l.011-.011Zm8.128 0a.51.51 0 0 0-.498.609c.02.098.069.189.141.259a.503.503 0 0 0 .555.107.513.513 0 0 0 .31-.473.512.512 0 0 0-.157-.354.507.507 0 0 0-.362-.137l.011-.011Zm8.133 0a.51.51 0 0 0-.504.605.505.505 0 0 0 .401.4.502.502 0 0 0 .522-.219.51.51 0 0 0 .039-.481.504.504 0 0 0-.492-.294l.034-.011Zm8.127 0a.506.506 0 0 0-.357.868.51.51 0 0 0 .782-.083.5.5 0 0 0-.074-.637.502.502 0 0 0-.362-.137l.011-.011Zm-24.388 10.867a.506.506 0 0 0-.103 1.005.505.505 0 0 0 .451-.855.498.498 0 0 0-.359-.139l.011-.011Zm8.128 0a.51.51 0 0 0-.498.608.505.505 0 0 0 .402.398.505.505 0 0 0 .561-.697.508.508 0 0 0-.476-.298l.011-.011Z"/>
  <path fill="#263238" d="M154.331 156.985c3.33-.756 6.615-1.692 9.899-2.628 3.285-.936 6.576-1.872 9.838-2.893 1.84-.564 3.685-1.128 5.509-1.788.05 0 .033-.101 0-.09-3.325.75-6.621 1.692-9.9 2.589-3.279.896-6.581 1.872-9.855 2.853-1.845.564-3.685 1.128-5.508 1.788-.107.034-.079.191.017.169Zm.085-7.1c-.463.045-.926.141-1.383.231a.207.207 0 0 0-.092.055.207.207 0 0 0-.055.092c-.508 1.737-.869 3.524-1.23 5.295a134.378 134.378 0 0 0-.96 5.256 56.233 56.233 0 0 0-.401 2.82c-.576 1.15-.926 2.4-1.033 3.682a.056.056 0 0 0 .057.056.06.06 0 0 0 .04-.016.06.06 0 0 0 .016-.04c.142-1.138.436-2.251.875-3.31a23.54 23.54 0 0 0 .186 6.975c-.564-3.439.283-7.026.847-10.41.282-1.691.604-3.383.937-5.075.333-1.692.722-3.355 1.033-5.041.395-.153.796-.299 1.174-.48a.055.055 0 0 0 .014-.022.054.054 0 0 0-.006-.05.054.054 0 0 0-.019-.018Z"/>
  <path fill="#F7A9A0" d="M124.169 120.832c-.265.958-5.13 7.077-9.555 6.705-1.44-.124-1.129-8.014-1.129-8.014l-.107-.563-1.524-8.228 9.815-5.803 1.416-.767s.271 2.256.565 5.126c0 .13.028.26.039.401.011.141.045.315.057.462a46.248 46.248 0 0 1 .231 2.284c.023.344.056.688.085 1.032.202 2.45.238 4.91.107 7.365Z"/>
  <path fill="#263238" d="M123.662 109.271a16.814 16.814 0 0 1-10.296 9.666l-1.524-8.228 9.827-5.78 1.417-.767s.271 2.267.576 5.109Z"/>
  <path fill="#F7A9A0" d="M101.486 97.395c-1.519 14.611 7.071 17.172 10.227 17.482 2.861.293 12.648.93 15.667-13.45 3.02-14.38-3.301-19.698-9.815-20.718-6.513-1.021-14.561 2.075-16.079 16.686Z"/>
  <path fill="#263238" d="M106.413 94a9.977 9.977 0 0 0 1.005-.118c.36.007.713-.104 1.004-.316a.518.518 0 0 0 .062-.637 1.305 1.305 0 0 0-1.247-.406 1.91 1.91 0 0 0-1.253.564.564.564 0 0 0 .429.913Zm10.487-.079a8.742 8.742 0 0 1-.977-.282 1.632 1.632 0 0 1-.937-.479.522.522 0 0 1 .045-.632 1.3 1.3 0 0 1 1.298-.208 1.89 1.89 0 0 1 1.129.761.57.57 0 0 1-.019.593.561.561 0 0 1-.539.247Zm-2.614 4.388c0-.034.074.056.068.096-.13.992-.107 2.154.762 2.571v.056c-1.106-.265-1.106-1.804-.83-2.723Z"/>
  <path fill="#263238" d="M115.28 97.356c1.614.04 1.422 3.259-.074 3.231-1.496-.028-1.281-3.26.074-3.231Z"/>
  <path fill="#263238" d="M115.9 97.564c.271.198.531.536.864.592.333.057.711-.259.988-.564.028 0 .051 0 .051.04-.029.62-.3 1.24-.971 1.291-.672.051-1.011-.518-1.129-1.127 0-.147.09-.31.197-.232Zm-7.704.034c0-.04-.084.04-.084.08-.034 1.003-.243 2.142-1.169 2.413-.034 0-.034.056 0 .056 1.118-.107 1.378-1.618 1.253-2.549Z"/>
  <path fill="#263238" d="M107.372 96.47c-1.597-.23-1.941 2.983-.462 3.198 1.478.214 1.806-3 .462-3.198Z"/>
  <path fill="#263238" d="M106.673 96.611c-.277.141-.565.423-.864.412-.299-.011-.565-.39-.768-.744 0-.04-.045 0-.051.028-.084.609.051 1.274.627 1.455.576.18.982-.322 1.191-.914.051-.113-.017-.293-.135-.237Zm6.033 9.48c-.243.231-.485.564-.852.564a2.562 2.562 0 0 1-1.073-.265.034.034 0 0 0-.02.001.045.045 0 0 0-.017.011.044.044 0 0 0-.009.018.044.044 0 0 0 .001.02 1.338 1.338 0 0 0 1.264.564 1.063 1.063 0 0 0 .802-.874c.017-.073-.062-.073-.096-.039Zm-3.923-3.903s-.31 1.478-.361 2.183c0 .062.164.107.401.141h.028a3.35 3.35 0 0 0 3.336-1.021c.056-.062-.028-.141-.096-.101a5.08 5.08 0 0 1-3.116.659c-.039-.197.616-2.509.508-2.526a6.048 6.048 0 0 0-1.625.248c.564-3.09 1.608-6.073 2.116-9.158a.09.09 0 0 0-.059-.115.092.092 0 0 0-.116.059c-1.326 3.04-2.043 6.586-2.703 9.767-.091.395 1.4-.034 1.687-.136Z"/>
  <path fill="#263238" d="M109.065 104.252a3.948 3.948 0 0 0 1.434 1.41c.328.178.704.245 1.073.192.807-.113.908-.823.835-1.455a4.267 4.267 0 0 0-.237-.976 5.146 5.146 0 0 1-3.105.829Z"/>
  <path fill="#FF9CBD" d="M110.499 105.662a1.73 1.73 0 0 0 1.072.192c.808-.113.909-.823.836-1.455a1.855 1.855 0 0 0-1.908 1.263Z"/>
  <path fill="#263238" d="M126.771 100.581c-3.387-.242-2.907-5.549-2.907-5.549s-3.793-.66-3.561-6.84c0 0-2.145 3.57-7.383 3.897-1.128.073 2.822-2.465 2.822-2.465s-5.294 3.463-13.337 1.28c-.564-.152 1.942-8.504 8.591-10.917 6.648-2.414 12.287-.265 15.916 4.1 0 0 4.515 2.548 4.679 7.037.164 4.49-3.511 9.553-4.82 9.457Z"/>
  <path fill="#65BEDC" d="M129.373 98.326a13.182 13.182 0 0 0 .7-12.367c-3.093-6.891-14.19-9.626-21.51-4.749 0 0 12.586-2.255 16.842 3.418 4.256 5.673 3.968 13.698 3.968 13.698Z"/>
  <path fill="#F7A9A0" d="M124.863 101.997s3.285-4.512 5.346-3.384c2.06 1.128-.458 7.788-2.919 8.651a2.487 2.487 0 0 1-3.307-1.387l.88-3.88Z"/>
  <path fill="#263238" d="M129.441 100.519c.039 0 .045.051 0 .068-1.727.66-2.653 2.256-3.314 3.868.52-.62 1.22-.958 2.061-.338.045.034 0 .102-.051.09a1.531 1.531 0 0 0-1.693.508 7.568 7.568 0 0 0-.825 1.342c-.084.152-.361.068-.299-.107v-.04c.017-2.182 1.767-5.21 4.121-5.391Z"/>
  <path fill="#fff" d="M144.087 81.633a13.522 13.522 0 0 1-2.314-7.455c0-9.445 10.385-17.103 23.18-17.103s23.169 7.658 23.169 17.103c0 9.446-10.374 17.099-23.169 17.099-6.209 0-11.853-1.794-15.99-4.732l-7.98 2.03 3.104-6.942Z"/>
  <path fill="#263238" d="M144.087 81.633a13.183 13.183 0 0 1-.525-14.284 18.24 18.24 0 0 1 5.079-5.532 24.245 24.245 0 0 1 6.722-3.417 30.974 30.974 0 0 1 7.405-1.478 31.924 31.924 0 0 1 7.547.384c.615.124 1.247.209 1.856.372l1.829.49 1.789.632c.599.215 1.163.502 1.744.75a22.577 22.577 0 0 1 6.209 4.303 15.831 15.831 0 0 1 4.007 6.417 12.96 12.96 0 0 1 .073 7.563 15.725 15.725 0 0 1-3.905 6.48 22.165 22.165 0 0 1-6.13 4.37 26.95 26.95 0 0 1-7.196 2.306 31.3 31.3 0 0 1-7.54.429 29.588 29.588 0 0 1-7.411-1.405 24.93 24.93 0 0 1-6.745-3.383h.108l-7.998 1.962-.13.034.057-.118 3.155-6.874Zm0 0-3.048 6.942-.073-.084 7.969-2.092h.056l.051.034a27.339 27.339 0 0 0 14.026 4.573 30.976 30.976 0 0 0 7.433-.496 26.618 26.618 0 0 0 7.066-2.256 21.653 21.653 0 0 0 6.017-4.291 15.23 15.23 0 0 0 3.759-6.266c.687-2.37.656-4.889-.091-7.24a15.319 15.319 0 0 0-3.855-6.204 22.004 22.004 0 0 0-6.061-4.218c-.565-.242-1.129-.53-1.693-.738l-1.75-.627-1.801-.49c-.598-.164-1.219-.242-1.823-.372a32.2 32.2 0 0 0-7.433-.406 30.73 30.73 0 0 0-7.337 1.393 23.845 23.845 0 0 0-6.643 3.276 18.354 18.354 0 0 0-5.08 5.38 13.344 13.344 0 0 0-1.93 7.11c.075 2.52.851 4.969 2.241 7.072Z"/>
  <path fill="#263238" d="M155.844 71.28v6.355h-1.197v-2.712h-2.89v2.712h-1.236V71.28h1.236v2.571h2.89V71.28h1.197Zm5.745 5.272v1.083h-4.419V71.28h4.335v1.083h-3.099v1.55h2.681v1.004h-2.681v1.653l3.183-.017Zm.959 1.083V71.28h1.236v5.272h3.28v1.083h-4.516Zm5.238 0V71.28h1.236v5.272h3.246v1.083h-4.482Zm7.546.045a2.911 2.911 0 0 1-1.27-.27 3.048 3.048 0 0 1-.976-.728 3.316 3.316 0 0 1-.852-2.222 3.2 3.2 0 0 1 .237-1.218c.151-.382.373-.732.654-1.032.279-.3.615-.542.988-.71a2.97 2.97 0 0 1 1.248-.265c.435-.005.866.092 1.258.282.368.182.697.433.971.738a3.43 3.43 0 0 1 .853 2.222c.001.416-.079.828-.238 1.213a3.19 3.19 0 0 1-.643 1.043c-.28.296-.613.537-.982.71-.394.168-.82.25-1.248.237Zm-1.845-3.203c-.002.27.04.539.124.795.078.248.2.48.361.683.153.195.345.357.565.474a1.784 1.784 0 0 0 1.574 0c.22-.121.413-.286.565-.486.159-.207.281-.44.361-.688.102-.248.165-.51.186-.778 0-.27-.043-.538-.129-.795a2.164 2.164 0 0 0-.367-.682 1.734 1.734 0 0 0-.565-.468 1.836 1.836 0 0 0-1.575 0 1.738 1.738 0 0 0-.564.485 2.181 2.181 0 0 0-.356.682 2.512 2.512 0 0 0-.18.778Zm6.022.773v-4.032h1.196v4.032h-1.196Zm0 2.385v-1.348h1.196v1.348h-1.196Z"/>
</svg>
