<svg xmlns="http://www.w3.org/2000/svg" width="240" height="240" fill="none" viewBox="0 0 240 240">
  <path fill="#EBEBEB" d="M33.074 194.107H12.9v6.543h20.175v-6.543ZM98.224 34.24H78.05v6.542h20.175V34.24ZM21.822 208.9l-10.019.175-5.067.07H1.39v-7.069h.287l10.087.041 5.044.053 5.044.064h.137v.135l-.166 6.531Zm0 0-.138-6.543.138.14-5.044.064-5.044.053-10.087.047.287-.292v6.542l-.264-.263h4.998l5.02.07 10.134.182Zm195.421-61.744-10.019.169-5.066.071h-5.354v-7.104h.287l10.087.035 5.044.052 5.044.065h.138v.14l-.161 6.572Zm0 0-.138-6.543.138.135-5.044.064-5.044.053-10.087.035.287-.287-.029 6.543-.258-.269h4.998l5.021.07 10.156.199Zm-11.258 8.244-10.013.175-5.073.071h-5.347v-7.104h.292l10.088.035 5.038.052 5.043.065h.144v.175l-.172 6.531Zm0 0-.155-6.531.132.135-5.044.064-5.038.052-10.087.036.286-.287-.028 6.537-.258-.263h4.997l5.015.07 10.18.187Zm-11.207-14.787h-20.175v6.543h20.175v-6.543Zm44.241 61.744h-20.175v6.543h20.175v-6.543ZM227.767.316h-20.175v6.542h20.175V.316Zm11.252 14.792L229 15.284l-5.067.07h-5.347v-.269l-.029-6.543V8.25h.287l10.087.041 5.044.053 5.044.064h.138v.134l-.138 6.566Zm0 0-.138-6.566.138.14-5.044.065-5.044.047-10.087.04.287-.292v6.543l-.264-.263h4.998l5.02.07 10.134.216ZM33.074 6.858l-10.018.176-5.067.07H12.64V0h.287l10.087.04 5.044.054 5.044.064h.138v.134l-.167 6.566Zm0 0L32.937.316l.137.14L28.03.52l-5.043.047-10.088.041.287-.292v6.542l-.264-.263h4.998l5.02.07 10.134.193Z"/>
  <path fill="#EBEBEB" d="M9.8 2v103.876h66.264V2H9.8Zm63.82 101.386H12.221V4.49H73.62v98.896Z"/>
  <path fill="#fff" d="M73.614 4.49H12.245v98.896h61.369V4.49Z"/>
  <path fill="#EBEBEB" d="M12.245 55.184h61.369v-2.491H12.245v2.49Z"/>
  <path fill="#DBDBDB" d="M5.302 113.027h75.26v-7.151H5.302v7.151ZM12.245 4.49h61.397v63.984H12.245V4.49Zm59.102 2.304H14.512v59.37h56.84l-.005-59.37Z"/>
  <path fill="#DBDBDB" d="M54.03 4.49h-1.223v61.674h1.223V4.49Zm-20.979 0H31.83v61.674h1.222V4.49Z"/>
  <path fill="#EBEBEB" d="M164.608 2v103.876h66.257V2h-66.257Zm63.813 101.386h-61.369V4.49h61.397l-.028 98.896Z"/>
  <path fill="#fff" d="M228.421 4.49h-61.369v98.896h61.369V4.49Z"/>
  <path fill="#EBEBEB" d="M167.052 55.184h61.369v-2.491h-61.369v2.49Z"/>
  <path fill="#DBDBDB" d="M160.109 113.027h75.26v-7.151h-75.26v7.151ZM167.052 4.49h61.397v63.984h-61.397V4.49Zm59.102 2.304h-56.841v59.37h56.841V6.794Z"/>
  <path fill="#DBDBDB" d="M208.837 4.49h-1.223v61.674h1.223V4.49Zm-20.979 0h-1.222v61.674h1.222V4.49Z"/>
  <path fill="#EBEBEB" d="M83.844 136.801H0v5.215h83.844v-5.215Zm-7.476 5.215H7.477v14.39h68.89v-14.39Z"/>
  <path fill="#C7C7C7" d="m76.368 144.858-68.891 1.397v-4.239h68.89v2.842Z"/>
  <path fill="#DBDBDB" d="M65.988 153.687H17.857v-8.946h48.13v8.946Zm-47.557-.585h46.983v-7.776H18.43v7.776Z"/>
  <path fill="#DBDBDB" d="M49.766 148.009H34.084v2.415h15.682v-2.415Z"/>
  <path fill="#EBEBEB" d="M6.92 239.175H4.636l6.64-82.764h5.818L6.92 239.175Z"/>
  <path fill="#C7C7C7" d="m17.094 156.411-.683 5.538h-5.578l.442-5.538h5.819Z"/>
  <path fill="#EBEBEB" d="M76.924 239.175h2.284l-6.639-82.764h-5.818l10.173 82.764Z"/>
  <path fill="#C7C7C7" d="m66.75 156.411.684 5.538h5.577l-.442-5.538h-5.818Z"/>
  <path fill="#263238" d="m.666 239.175 29.918-.146 29.918-.047 59.831-.099 59.831.099 29.918.047 29.918.146-29.918.141-29.918.052-59.831.1-59.83-.1-29.92-.052-29.917-.141Z"/>
  <path fill="#263238" d="M168.825 15.325H71.852a9.746 9.746 0 0 0-3.79.794 9.898 9.898 0 0 0-3.2 2.213 10.11 10.11 0 0 0-2.126 3.294 10.26 10.26 0 0 0-.725 3.873v203.473a10.2 10.2 0 0 0 2.84 7.164 9.822 9.822 0 0 0 6.978 3.022h96.973a9.776 9.776 0 0 0 3.793-.797 9.91 9.91 0 0 0 3.204-2.216 10.128 10.128 0 0 0 2.128-3.297c.49-1.231.737-2.548.727-3.876V25.499a10.2 10.2 0 0 0-2.849-7.16 9.826 9.826 0 0 0-6.98-3.014Zm3.69 207.373c0 5.356-3.937 9.689-8.785 9.689H76.947c-4.871 0-8.802-4.333-8.802-9.689V33.222c0-10.91 3.93-11.442 8.802-11.442h17.38c1.01 0 1.837 1.17 1.837 2.62v.625c0 3.397 1.825 3.397 4.086 3.397h40.166c2.295 0 4.068 0 4.068-3.409V24.4c0-1.45.815-2.62 1.848-2.62h17.386c4.849 0 8.785 1.451 8.785 11.443l.012 189.476Z"/>
  <path fill="#fff" d="M125.813 24.189h-10.966a.673.673 0 0 1-.479-.202.696.696 0 0 1 0-.976.67.67 0 0 1 .479-.202h10.966a.67.67 0 0 1 .478.202.697.697 0 0 1 0 .976.67.67 0 0 1-.478.202Z"/>
  <path fill="#fff" d="M172.549 33.222v189.476c0 5.356-3.936 9.689-8.791 9.689h-86.81c-4.867 0-8.803-4.333-8.803-9.689V33.222c0-10.91 3.936-11.442 8.802-11.442h17.38c1.01 0 1.837 1.17 1.837 2.62v.625c0 3.397 1.825 3.397 4.086 3.397h40.166c2.261 0 4.068 0 4.068-3.409V24.4c0-1.45.815-2.62 1.842-2.62h17.386c4.872 0 8.837 1.45 8.837 11.443Z"/>
  <path fill="#C7C7C7" d="m78.709 45.87-3.087-2.942 3.087-2.947.476.52-2.536 2.427 2.536 2.42-.476.521Zm85.727-4.778a.628.628 0 0 1-.376.573.596.596 0 0 1-.663-.134.626.626 0 0 1 .092-.954.601.601 0 0 1 .77.075.607.607 0 0 1 .177.44Zm0 2.198a.628.628 0 0 1-.376.573.596.596 0 0 1-.663-.134.626.626 0 0 1 .092-.954.601.601 0 0 1 .77.076.606.606 0 0 1 .177.44Zm0 2.2a.627.627 0 0 1-.376.572.596.596 0 0 1-.663-.135.626.626 0 0 1 .092-.953.601.601 0 0 1 .77.075.605.605 0 0 1 .177.44Zm-52.314-.696a.21.21 0 0 1 .292 0c.214.19.485.301.769.315a.83.83 0 0 0 .499-.152.36.36 0 0 0 .173-.292.234.234 0 0 0-.035-.129.405.405 0 0 0-.12-.123 1.443 1.443 0 0 0-.574-.192 2.345 2.345 0 0 1-.517-.164.836.836 0 0 1-.373-.316.622.622 0 0 1-.091-.34.765.765 0 0 1 .321-.584 1.17 1.17 0 0 1 .694-.216c.318.017.624.131.878.327a.21.21 0 0 1 .088.216.208.208 0 0 1-.087.135.207.207 0 0 1-.23 0 1.137 1.137 0 0 0-.649-.263.757.757 0 0 0-.447.14.332.332 0 0 0-.155.258.184.184 0 0 0 .028.117c.03.042.067.078.109.105.153.093.323.155.5.181.197.032.39.089.573.17.163.073.302.19.402.339a.657.657 0 0 1 .098.35.796.796 0 0 1-.345.637 1.24 1.24 0 0 1-.74.229 1.705 1.705 0 0 1-1.033-.41.219.219 0 0 1-.028-.338Zm2.794-1.948c0-.058.023-.115.064-.157a.215.215 0 0 1 .154-.065c.059 0 .116.023.158.064a.236.236 0 0 1 .072.158v2.421a.236.236 0 0 1-.072.158.225.225 0 0 1-.158.064.215.215 0 0 1-.154-.065.224.224 0 0 1-.064-.157v-2.42Zm1.073 1.176a1.499 1.499 0 0 1 .439-1.053 1.453 1.453 0 0 1 1.041-.427c.332 0 .655.11.919.316a.234.234 0 0 1 .089.158.241.241 0 0 1-.049.175.227.227 0 0 1-.322.04 1.024 1.024 0 0 0-1.36.077.987.987 0 0 0-.303.708.983.983 0 0 0 .303.707 1.012 1.012 0 0 0 .723.299c.202.003.4-.05.574-.152v-.585h-.574a.228.228 0 0 1-.162-.069.236.236 0 0 1-.049-.254.21.21 0 0 1 .05-.074.215.215 0 0 1 .161-.065h.798a.218.218 0 0 1 .166.062.227.227 0 0 1 .069.166v.976a.197.197 0 0 1-.074.1 1.472 1.472 0 0 1-.913.316 1.431 1.431 0 0 1-1.053-.387 1.495 1.495 0 0 1-.473-1.034Zm3.833 1.245a.224.224 0 0 1-.064.157.216.216 0 0 1-.308 0 .224.224 0 0 1-.064-.157v-2.38a.221.221 0 0 1 .086-.187.223.223 0 0 1 .31.047l1.297 1.83v-1.684c0-.059.023-.115.064-.157a.215.215 0 0 1 .308 0 .224.224 0 0 1 .064.157v2.38a.224.224 0 0 1-.064.157.215.215 0 0 1-.247.044.21.21 0 0 1-.074-.06l-1.285-1.82-.023 1.673Zm5.027.223c-.305 0-.597-.124-.812-.343a1.181 1.181 0 0 1-.336-.827v-1.462a.21.21 0 0 1 .015-.086.218.218 0 0 1 .359-.072.232.232 0 0 1 .068.158v1.462c0 .194.075.38.21.517a.71.71 0 0 0 1.014 0 .736.736 0 0 0 .21-.517v-1.462a.21.21 0 0 1 .018-.086.214.214 0 0 1 .206-.136.212.212 0 0 1 .218.222v1.462a1.19 1.19 0 0 1-.344.835 1.143 1.143 0 0 1-.826.334Zm3.041-1.112h-.494v.889a.225.225 0 0 1-.221.192.223.223 0 0 1-.22-.192v-2.42a.218.218 0 0 1 .218-.222h.717c.228 0 .447.092.608.256a.884.884 0 0 1 0 1.24.851.851 0 0 1-.608.257Zm-.494-.456h.494a.41.41 0 0 0 .292-.123.427.427 0 0 0 0-.595.41.41 0 0 0-.292-.124h-.494v.842ZM91.327 26.037l-.166.169-.098.094a2.274 2.274 0 0 0-1.618-.68c-.606 0-1.188.244-1.618.68l-.092-.1-.166-.17.212-.192c.154-.122.319-.228.493-.316.207-.106.427-.181.654-.222.104 0 .213 0 .322-.047h.51a2.697 2.697 0 0 1 .976.34c.136.079.265.17.384.274l.178.164.029.006Z"/>
  <path fill="#C7C7C7" d="m88.36 26.837-.27-.268c.36-.365.847-.569 1.355-.569.507 0 .994.204 1.354.569l-.27.268a1.524 1.524 0 0 0-1.084-.456 1.53 1.53 0 0 0-1.085.456Z"/>
  <path fill="#C7C7C7" d="m90.265 27.113-.264.269a.774.774 0 0 0-.556-.24.762.762 0 0 0-.557.24c-.086-.094-.178-.182-.264-.27a1.148 1.148 0 0 1 .82-.352 1.128 1.128 0 0 1 .821.353Z"/>
  <path fill="#C7C7C7" d="M89.686 27.621a.248.248 0 0 1-.07.174.239.239 0 0 1-.263.053.235.235 0 0 1-.127-.133.245.245 0 0 1-.016-.094c0-.063.024-.124.069-.17a.233.233 0 0 1 .166-.07.233.233 0 0 1 .222.147c.013.03.019.061.019.093Zm-14.736-1.07c0-.14.041-.277.118-.394a.682.682 0 0 1 1.07-.104.712.712 0 0 1 .147.773.704.704 0 0 1-.259.316.684.684 0 0 1-.876-.091.7.7 0 0 1-.2-.5Zm2.175-.001a.717.717 0 0 1 .114-.394.682.682 0 0 1 1.069-.114.711.711 0 0 1 .153.772.705.705 0 0 1-.255.319.685.685 0 0 1-.875-.086.714.714 0 0 1-.206-.496Zm2.181 0a.717.717 0 0 1 .114-.394.682.682 0 0 1 1.069-.114.711.711 0 0 1 .153.772.705.705 0 0 1-.256.319.685.685 0 0 1-.875-.086.714.714 0 0 1-.205-.496Zm2.18.001a.716.716 0 0 1 .115-.395.682.682 0 0 1 1.07-.11.712.712 0 0 1 .15.773.705.705 0 0 1-.258.317.685.685 0 0 1-.875-.089.704.704 0 0 1-.202-.496Zm2.181 0a.716.716 0 0 1 .114-.395.682.682 0 0 1 1.07-.11.712.712 0 0 1 .15.773.705.705 0 0 1-.258.317.685.685 0 0 1-.875-.089.702.702 0 0 1-.201-.496Zm81.027 1.544h-5.641v-2.667h5.641v2.667Zm-5.342-.299h5.049v-2.07h-5.049v2.07Z"/>
  <path fill="#C7C7C7" d="M163.156 25.884h-3.632v1.755h3.632v-1.755Zm2.037.164h-.499v1.421h.499v-1.42Z"/>
  <path fill="#EBEBEB" d="M81.44 222.149h-.51v2.385h-.953v-1.216H78.29v1.216h-.958v-2.385h-.505l2.306-2.427 2.307 2.427Zm82.617-2.427h-5.56v.807h5.56v-.807Zm0 2h-5.56v.813h5.56v-.813Zm0 2.005h-5.56v.813h5.56v-.813Zm-41.98-1.514-1.584 1.719-1.577-1.719.275-.269 1.302 1.415 1.303-1.415.281.269Z"/>
  <path fill="#EBEBEB" d="M120.493 225.71a2.83 2.83 0 0 1-1.593-.493 2.91 2.91 0 0 1-1.057-1.312 2.973 2.973 0 0 1-.163-1.689c.11-.567.384-1.088.785-1.497a2.85 2.85 0 0 1 1.469-.8 2.818 2.818 0 0 1 1.657.166c.525.221.973.596 1.288 1.077a2.965 2.965 0 0 1-.357 3.691 2.84 2.84 0 0 1-2.029.857Zm0-5.467c-.493 0-.976.149-1.387.429-.41.279-.73.677-.919 1.142a2.583 2.583 0 0 0 .544 2.773c.349.355.794.597 1.279.694.485.098.987.047 1.443-.147.456-.193.845-.52 1.119-.939a2.583 2.583 0 0 0-.314-3.211 2.449 2.449 0 0 0-1.765-.741Z"/>
  <path fill="#263238" d="M87.333 98.755c-.295 0-.578-.12-.787-.332a1.145 1.145 0 0 1-.326-.802v-1.374a.222.222 0 0 1 .074-.134.216.216 0 0 1 .282 0 .22.22 0 0 1 .074.133v1.398a.707.707 0 0 0 .222.454.682.682 0 0 0 .928 0 .707.707 0 0 0 .222-.454v-1.398a.221.221 0 0 1 .064-.155.212.212 0 0 1 .346.073c.01.026.015.054.014.082v1.398c-.006.297-.126.58-.334.787a1.102 1.102 0 0 1-.779.324Zm1.888-.561a.196.196 0 0 1 .137-.08.191.191 0 0 1 .15.05c.12.101.269.16.425.17a.503.503 0 0 0 .263-.076c.052-.047.07-.082.07-.117a.065.065 0 0 0 0-.035s0-.03-.052-.053a.947.947 0 0 0-.31-.105 1.58 1.58 0 0 1-.333-.105.664.664 0 0 1-.264-.228.45.45 0 0 1-.069-.246.592.592 0 0 1 .23-.433.82.82 0 0 1 .476-.146c.21.007.41.083.574.217a.225.225 0 0 1 .063.292.202.202 0 0 1-.132.09.197.197 0 0 1-.155-.037.648.648 0 0 0-.35-.147.39.39 0 0 0-.235.076.12.12 0 0 0-.058.088.04.04 0 0 0 0 .03l.04.04a.77.77 0 0 0 .282.094c.123.021.242.058.356.111.112.049.208.13.275.234a.51.51 0 0 1 0 .514.582.582 0 0 1-.172.2.85.85 0 0 1-.5.157 1.136 1.136 0 0 1-.688-.269.218.218 0 0 1-.023-.286Zm1.848-.421a.98.98 0 0 1 .267-.69.947.947 0 0 1 .668-.293.908.908 0 0 1 .649.262.94.94 0 0 1 .28.65v.035a.183.183 0 0 1-.065.12.176.176 0 0 1-.13.038H91.51c.018.1.064.19.132.264a.61.61 0 0 0 .769.076.216.216 0 0 1 .293 0 .19.19 0 0 1 0 .257.976.976 0 0 1-.694.257.944.944 0 0 1-.668-.29.98.98 0 0 1-.273-.686Zm.419-.193h1.09a.643.643 0 0 0-.225-.297.624.624 0 0 0-.349-.118.528.528 0 0 0-.325.118.546.546 0 0 0-.186.297h-.005ZM94.66 97a.213.213 0 0 1-.062.146.205.205 0 0 1-.144.06.351.351 0 0 0-.23.075.58.58 0 0 0-.177.188 1.404 1.404 0 0 0-.16.333v.742a.215.215 0 0 1-.063.151.206.206 0 0 1-.15.06.205.205 0 0 1-.143-.064.213.213 0 0 1-.058-.147v-1.543c0-.055.021-.107.059-.145a.2.2 0 0 1 .142-.06.197.197 0 0 1 .15.056.204.204 0 0 1 .062.149v.029a.532.532 0 0 1 .08-.082.821.821 0 0 1 .488-.152.196.196 0 0 1 .146.058.204.204 0 0 1 .06.147Zm2.107.609v.935a.21.21 0 0 1-.055.147.2.2 0 0 1-.14.064.205.205 0 0 1-.147-.062.213.213 0 0 1-.06-.149v-.935a.41.41 0 0 0-.25-.37.39.39 0 0 0-.536.37v.935a.117.117 0 0 1 0 .041.222.222 0 0 1-.075.12.197.197 0 0 1-.276-.013.207.207 0 0 1-.057-.148v-1.543a.208.208 0 0 1 .057-.149.203.203 0 0 1 .144-.062.204.204 0 0 1 .19.123.747.747 0 0 1 .407-.123.796.796 0 0 1 .564.242c.15.153.234.36.234.577Zm2.387.169v.766a.208.208 0 0 1-.045.151.2.2 0 0 1-.357-.11.884.884 0 0 1-1.17-.117 1.022 1.022 0 0 1-.265-.69.987.987 0 0 1 .264-.69.86.86 0 0 1 1.148-.123.207.207 0 0 1 .073-.138.2.2 0 0 1 .284.029c.034.042.05.096.045.15l.023.772Zm-.408 0a.591.591 0 0 0-.149-.403.481.481 0 0 0-.557-.122.46.46 0 0 0-.16.122.591.591 0 0 0-.15.403.59.59 0 0 0 .15.404.47.47 0 0 0 .356.152.486.486 0 0 0 .361-.152.59.59 0 0 0 .15-.404Zm2.772-.175v.941a.211.211 0 0 1-.201.21.214.214 0 0 1-.212-.21v-.941a.408.408 0 0 0-.247-.364.394.394 0 0 0-.426.092.408.408 0 0 0-.114.284v.97a.22.22 0 0 1-.195.129h-.04a.207.207 0 0 1-.115-.074.213.213 0 0 1-.046-.13v-1.516a.217.217 0 0 1 .057-.15.205.205 0 0 1 .144-.066.2.2 0 0 1 .184.117.866.866 0 0 1 .413-.117.786.786 0 0 1 .608.274.792.792 0 0 1 .574-.274.802.802 0 0 1 .569.243c.15.155.234.363.234.581v.93a.21.21 0 0 1-.06.148.205.205 0 0 1-.292 0 .212.212 0 0 1-.061-.148v-.93a.408.408 0 0 0-.114-.283.392.392 0 0 0-.276-.12.4.4 0 0 0-.271.123.413.413 0 0 0-.113.28Zm1.916.17a.99.99 0 0 1 .273-.688.949.949 0 0 1 .668-.295.909.909 0 0 1 .649.262c.174.17.275.404.281.65v.035a.186.186 0 0 1-.066.12.176.176 0 0 1-.129.038h-1.228c.018.1.063.19.132.264a.569.569 0 0 0 .367.175.623.623 0 0 0 .402-.1.215.215 0 0 1 .292 0 .186.186 0 0 1 0 .258.976.976 0 0 1-.694.257.956.956 0 0 1-.669-.292.998.998 0 0 1-.278-.684Zm.425-.193h1.09a.641.641 0 0 0-.225-.297.621.621 0 0 0-.349-.118.541.541 0 0 0-.516.415Z"/>
  <path fill="#EBEBEB" d="M155.094 101.749H85.572v8.413h69.522v-8.413Z"/>
  <path fill="#263238" d="M86.22 118.705v-2.339a.215.215 0 0 1 .06-.155.218.218 0 0 1 .07-.047.23.23 0 0 1 .082-.015h1.257a.216.216 0 0 1 .212.217.22.22 0 0 1-.212.222h-1.044v.713h.9a.22.22 0 0 1 0 .439h-.9v.725h1.044a.214.214 0 0 1 .13.075.224.224 0 0 1-.13.363h-1.257a.215.215 0 0 1-.212-.198Zm3.85-.936v.942a.212.212 0 0 1-.058.146.2.2 0 0 1-.143.064.211.211 0 0 1-.148-.061.22.22 0 0 1-.064-.149v-.942a.406.406 0 0 0-.118-.279.394.394 0 0 0-.278-.113.393.393 0 0 0-.276.121.406.406 0 0 0-.114.283v.97a.228.228 0 0 1-.08.093.225.225 0 0 1-.115.036h-.04a.205.205 0 0 1-.12-.072.213.213 0 0 1-.047-.133v-1.514a.22.22 0 0 1 .06-.151.21.21 0 0 1 .147-.065.2.2 0 0 1 .184.117.798.798 0 0 1 1.021.158.777.777 0 0 1 .602-.275.8.8 0 0 1 .569.243c.15.155.235.364.235.581v.93a.213.213 0 0 1-.06.149.206.206 0 0 1-.353-.149v-.93a.406.406 0 0 0-.114-.283.388.388 0 0 0-.277-.12.4.4 0 0 0-.38.246.41.41 0 0 0-.033.157Zm3.684.176v.766a.211.211 0 0 1-.127.194.196.196 0 0 1-.208-.034.215.215 0 0 1-.072-.12.85.85 0 0 1-.511.17.892.892 0 0 1-.654-.287 1.02 1.02 0 0 1-.264-.689.997.997 0 0 1 .56-.91.885.885 0 0 1 .358-.079.86.86 0 0 1 .51.176.22.22 0 0 1 .071-.124.217.217 0 0 1 .13-.052.202.202 0 0 1 .149.064.212.212 0 0 1 .058.153v.772Zm-.407 0a.556.556 0 0 0-.155-.404.464.464 0 0 0-.356-.164.457.457 0 0 0-.356.164.559.559 0 0 0-.149.404.591.591 0 0 0 .15.403.462.462 0 0 0 .355.152.477.477 0 0 0 .356-.152.59.59 0 0 0 .172-.403h-.017Zm1.583-1.48a.22.22 0 0 1-.047.176.208.208 0 0 1-.162.076.212.212 0 0 1-.205-.159.22.22 0 0 1-.005-.093v-.082a.217.217 0 0 1 .073-.129.21.21 0 0 1 .274 0 .217.217 0 0 1 .072.129v.082Zm0 .714v1.531a.216.216 0 0 1-.072.13.21.21 0 0 1-.274 0 .217.217 0 0 1-.073-.13v-1.531a.22.22 0 0 1 .048-.176.208.208 0 0 1 .162-.076.212.212 0 0 1 .205.159.22.22 0 0 1 .004.093Zm.82-1.006a.215.215 0 0 1 .15.065c.039.04.062.094.063.151v2.339a.223.223 0 0 1-.064.151.21.21 0 0 1-.148.065.208.208 0 0 1-.15-.063.22.22 0 0 1-.062-.153v-2.339a.212.212 0 0 1 .212-.216Z"/>
  <path fill="#EBEBEB" d="M155.094 121.915H85.572v8.413h69.522v-8.413Z"/>
  <path fill="#263238" d="M87.12 138.017h-.475v.854a.225.225 0 0 1-.063.153.215.215 0 0 1-.068.047.225.225 0 0 1-.082.016.215.215 0 0 1-.148-.065.222.222 0 0 1-.064-.151v-2.339a.22.22 0 0 1 .062-.153.209.209 0 0 1 .15-.063h.689a.803.803 0 0 1 .628.219.849.849 0 0 1-.291 1.416.82.82 0 0 1-.337.043v.023Zm-.475-.433h.476a.39.39 0 0 0 .28-.118.406.406 0 0 0-.28-.688h-.476v.806Zm3.408.527v.771a.216.216 0 0 1-.062.146.205.205 0 0 1-.144.059.206.206 0 0 1-.13-.05.212.212 0 0 1-.071-.119.871.871 0 0 1-.867.095.902.902 0 0 1-.298-.212 1.012 1.012 0 0 1-.264-.69.997.997 0 0 1 .264-.69.852.852 0 0 1 1.148-.123.22.22 0 0 1 .07-.124.216.216 0 0 1 .13-.052.217.217 0 0 1 .206.217l.018.772Zm-.407 0a.591.591 0 0 0-.155-.404.484.484 0 0 0-.359-.163.476.476 0 0 0-.359.163.591.591 0 0 0-.143.404.59.59 0 0 0 .144.403.507.507 0 0 0 .358.152.5.5 0 0 0 .359-.152.59.59 0 0 0 .155-.403Zm1.067.415a.19.19 0 0 1 .137-.079.197.197 0 0 1 .08.008c.026.009.05.023.07.042.12.101.269.16.424.169a.504.504 0 0 0 .264-.076c.052-.047.07-.082.07-.117a.065.065 0 0 0 0-.035.105.105 0 0 0-.052-.047.74.74 0 0 0-.305-.111 1.393 1.393 0 0 1-.332-.105.579.579 0 0 1-.27-.228.507.507 0 0 1-.063-.246.593.593 0 0 1 .224-.432.837.837 0 0 1 .476-.146c.209.009.41.084.574.216a.217.217 0 0 1 .001.35.194.194 0 0 1-.225-.005.675.675 0 0 0-.356-.141.358.358 0 0 0-.23.071c-.051.035-.062.07-.062.087a.043.043 0 0 0 0 .03.116.116 0 0 0 .045.041.758.758 0 0 0 .282.093c.123.021.242.058.355.111.114.046.21.128.276.234a.513.513 0 0 1 .074.257.593.593 0 0 1-.24.456.872.872 0 0 1-.506.158 1.135 1.135 0 0 1-.682-.269.21.21 0 0 1-.029-.286Zm1.859 0a.19.19 0 0 1 .137-.079.197.197 0 0 1 .08.008c.026.009.05.023.07.042a.71.71 0 0 0 .425.169.504.504 0 0 0 .264-.076c.051-.047.068-.082.068-.117a.065.065 0 0 0 0-.035.139.139 0 0 0-.051-.047.784.784 0 0 0-.31-.111 1.546 1.546 0 0 1-.339-.105.621.621 0 0 1-.264-.228.452.452 0 0 1-.068-.246.597.597 0 0 1 .23-.432.829.829 0 0 1 .475-.147c.21.007.411.083.574.217a.224.224 0 0 1 .063.292.217.217 0 0 1-.057.059.204.204 0 0 1-.156.028.201.201 0 0 1-.074-.034.638.638 0 0 0-.35-.141.39.39 0 0 0-.235.071.122.122 0 0 0-.057.087.044.044 0 0 0 0 .03l.04.04a.782.782 0 0 0 .281.094c.123.021.243.058.356.111.112.049.208.13.275.234a.51.51 0 0 1 0 .514.58.58 0 0 1-.172.199.846.846 0 0 1-.5.158 1.132 1.132 0 0 1-.688-.269.217.217 0 0 1-.017-.286Zm4.407-1.088-.637 1.526v.029h-.224v-.029l-.281-.684-.27.684v.029h-.194a.055.055 0 0 1-.04 0v-.029l-.632-1.526a.19.19 0 0 1-.162-.081.201.201 0 0 1-.028-.182.183.183 0 0 1 .253.117l.46 1.058.269-.66a.204.204 0 0 1 .074-.09.204.204 0 0 1 .11-.033.197.197 0 0 1 .19.123l.274.66.453-1.058a.19.19 0 0 1 .181-.134c.027 0 .053.006.078.017a.203.203 0 0 1 .118.105.206.206 0 0 1 .008.158Zm.918 1.363a.969.969 0 0 1-.264-.69c0-.256.094-.502.264-.69a.904.904 0 0 1 .666-.299.863.863 0 0 1 .643.299c.173.186.27.433.269.69a.967.967 0 0 1-.27.69.846.846 0 0 1-.643.298.893.893 0 0 1-.666-.298Zm.155-.69a.658.658 0 0 0 .138.415.525.525 0 0 0 .562.108.499.499 0 0 0 .16-.108.592.592 0 0 0 .156-.415.593.593 0 0 0-.155-.41.522.522 0 0 0-.35-.146.573.573 0 0 0-.373.146.642.642 0 0 0-.138.41Zm3.185-.778a.21.21 0 0 1-.201.211.399.399 0 0 0-.236.07.71.71 0 0 0-.177.193c-.07.099-.123.21-.155.327v.748a.212.212 0 0 1-.419 0v-1.549a.22.22 0 0 1 .072-.13.21.21 0 0 1 .275 0 .225.225 0 0 1 .072.13v.029a.563.563 0 0 1 .08-.082.814.814 0 0 1 .488-.152.208.208 0 0 1 .142.06.214.214 0 0 1 .059.145Zm2.151 1.544a.21.21 0 0 1-.206.21.21.21 0 0 1-.201-.169.919.919 0 0 1-.528.169.953.953 0 0 1-.682-.288.994.994 0 0 1 0-1.389.956.956 0 0 1 .682-.287.88.88 0 0 1 .516.169v-.742a.218.218 0 0 1 .073-.13.21.21 0 0 1 .274 0 .212.212 0 0 1 .072.13v2.327Zm-.935-1.322a.51.51 0 0 0-.361.158.585.585 0 0 0-.116.607.533.533 0 0 0 .116.177.483.483 0 0 0 .723 0 .546.546 0 0 0 .154-.386.589.589 0 0 0-.154-.398.492.492 0 0 0-.362-.158Z"/>
  <path fill="#EBEBEB" d="M155.094 142.081H85.572v8.413h69.522v-8.413Z"/>
  <path fill="#263238" d="M89.772 159.92a.075.075 0 0 1 .075-.076c.01-.001.02 0 .03.004a.07.07 0 0 1 .026.016.08.08 0 0 1 .018.025.08.08 0 0 1 .006.031v2.134a.081.081 0 0 1-.08.082.064.064 0 0 1-.03-.007.068.068 0 0 1-.025-.018.068.068 0 0 1-.016-.026.079.079 0 0 1-.004-.031v-2.134Zm3.202.69v1.444a.075.075 0 0 1-.127.054.079.079 0 0 1-.022-.054v-.234a.76.76 0 0 1-.252.225.733.733 0 0 1-.322.091.78.78 0 0 1-.556-.235.808.808 0 0 1 0-1.133.78.78 0 0 1 .556-.234.728.728 0 0 1 .574.31v-.234c0-.02.007-.04.021-.054a.075.075 0 0 1 .106 0 .077.077 0 0 1 .022.054Zm-.15.725a.59.59 0 0 0-.123-.308.571.571 0 0 0-.593-.199.564.564 0 0 0-.279.172.588.588 0 0 0-.1.628.58.58 0 0 0 .522.35.612.612 0 0 0 .414-.204.631.631 0 0 0 .16-.439Zm2.307.672a.768.768 0 0 1-.22.534.74.74 0 0 1-.853.144.083.083 0 0 1-.029-.105.076.076 0 0 1 .017-.027.069.069 0 0 1 .027-.016.055.055 0 0 1 .03-.003.064.064 0 0 1 .03.011.567.567 0 0 0 .658-.113.588.588 0 0 0 .168-.413v-.199a.708.708 0 0 1-.574.316.774.774 0 0 1-.552-.233.803.803 0 0 1 0-1.125.774.774 0 0 1 .552-.233.726.726 0 0 1 .574.31v-.234a.077.077 0 0 1 .044-.073.072.072 0 0 1 .043-.005.067.067 0 0 1 .04.02.075.075 0 0 1 .074.076l-.029 1.368Zm-.155-.678a.579.579 0 0 0-.391-.497.565.565 0 0 0-.604.162.592.592 0 0 0 .11.882.57.57 0 0 0 .312.096.605.605 0 0 0 .416-.202.626.626 0 0 0 .157-.441Zm.895-.713a.082.082 0 0 1 .08-.082c.011 0 .021.002.03.006.01.004.019.01.026.018a.08.08 0 0 1 .02.058v.35-.041a.763.763 0 0 1 .631-.391c.01 0 .02.002.03.006.009.004.017.01.025.018a.08.08 0 0 1 .02.058c0 .02-.009.039-.023.053a.072.072 0 0 1-.052.023.559.559 0 0 0-.46.263c-.08.114-.144.24-.189.374v.702a.08.08 0 0 1-.02.057.068.068 0 0 1-.024.018.077.077 0 0 1-.087-.018.081.081 0 0 1-.024-.057l.017-1.415Zm1.137.719a.788.788 0 0 1 .203-.559.756.756 0 0 1 1.08-.041c.148.14.235.335.243.541a.08.08 0 0 1-.008.029.067.067 0 0 1-.018.023.067.067 0 0 1-.025.015.077.077 0 0 1-.03.003h-1.29a.64.64 0 0 0 .185.434.613.613 0 0 0 .428.18.564.564 0 0 0 .505-.292.072.072 0 0 1 .052-.021c.02 0 .038.007.052.021a.089.089 0 0 1 .028.111.765.765 0 0 1-.636.363.784.784 0 0 1-.549-.242.796.796 0 0 1-.22-.565Zm.166-.129h1.194a.614.614 0 0 0-.202-.378.593.593 0 0 0-.79 0 .615.615 0 0 0-.202.378Zm1.79.129a.788.788 0 0 1 .224-.52.756.756 0 0 1 1.036-.039.783.783 0 0 1 .261.5.078.078 0 0 1-.022.052.065.065 0 0 1-.053.018h-1.308a.64.64 0 0 0 .183.432.615.615 0 0 0 .425.182.564.564 0 0 0 .511-.292.072.072 0 0 1 .052-.021c.019 0 .037.007.051.021a.082.082 0 0 1 0 .111.75.75 0 0 1-.637.363.769.769 0 0 1-.52-.256.797.797 0 0 1-.203-.551Zm.167-.129h1.187a.614.614 0 0 0-.173-.428.59.59 0 0 0-.84 0 .613.613 0 0 0-.174.428Zm3.414-.596a.087.087 0 0 1-.024.052.08.08 0 0 1-.051.024h-.206v1.169a.126.126 0 0 0 .114.123.078.078 0 0 1 .037-.002.078.078 0 0 1 .033.016c.01.007.018.017.024.028a.095.095 0 0 1 .008.037.09.09 0 0 1-.008.036.096.096 0 0 1-.024.029.077.077 0 0 1-.033.015.077.077 0 0 1-.037-.001.277.277 0 0 1-.106-.02.276.276 0 0 1-.169-.261v-1.169h-.195c-.075 0-.075-.035-.075-.076 0-.041 0-.076.075-.076h.195v-.585c0-.022.008-.043.024-.058a.08.08 0 0 1 .056-.024.083.083 0 0 1 .081.082v.585h.206c.02.001.038.009.051.023a.087.087 0 0 1 .024.053Zm1.36-.047c.208 0 .408.084.556.234a.812.812 0 0 1 0 1.133.778.778 0 0 1-1.112 0 .806.806 0 0 1-.23-.566c0-.213.082-.416.23-.567a.778.778 0 0 1 .556-.234Zm0 1.444a.63.63 0 0 0 .632-.354.663.663 0 0 0-.098-.728.631.631 0 0 0-.998.071.63.63 0 0 0 .059.789.61.61 0 0 0 .405.193v.029Zm3.615-1.397v1.444a.083.083 0 0 1-.004.031.076.076 0 0 1-.016.026.064.064 0 0 1-.025.018.063.063 0 0 1-.03.007.082.082 0 0 1-.057-.024.083.083 0 0 1-.023-.058v-.234a.734.734 0 0 1-.574.316.782.782 0 0 1-.556-.235.81.81 0 0 1 0-1.133.781.781 0 0 1 .556-.234.718.718 0 0 1 .574.31v-.234a.072.072 0 0 1 .024-.056.063.063 0 0 1 .026-.016.063.063 0 0 1 .03-.004.075.075 0 0 1 .075.076Zm-.155.725a.586.586 0 0 0-.391-.497.566.566 0 0 0-.605.162.589.589 0 0 0 .11.882.57.57 0 0 0 .312.096.61.61 0 0 0 .414-.204.63.63 0 0 0 .16-.439Zm.918-1.415a.072.072 0 0 1 .024-.056.063.063 0 0 1 .026-.016.063.063 0 0 1 .03-.004c.021 0 .041.007.055.022a.08.08 0 0 1 .026.054v2.134a.08.08 0 0 1-.024.058.08.08 0 0 1-.057.024.084.084 0 0 1-.057-.024.083.083 0 0 1-.023-.058v-2.134Zm.769 0c0-.022.008-.043.023-.058a.08.08 0 0 1 .114 0 .083.083 0 0 1 .024.058v2.134a.084.084 0 0 1-.024.058.08.08 0 0 1-.114 0 .083.083 0 0 1-.023-.058v-2.134Zm1.635 1.882a.085.085 0 0 1 .025-.017.06.06 0 0 1 .03-.007c.01 0 .02.002.029.007.01.004.018.01.025.017a.83.83 0 0 0 .482.188.483.483 0 0 0 .299-.1.225.225 0 0 0 .079-.083.222.222 0 0 0 0-.225.228.228 0 0 0-.079-.084.78.78 0 0 0-.339-.117.873.873 0 0 1-.356-.122.33.33 0 0 1-.166-.287.41.41 0 0 1 .166-.316.672.672 0 0 1 .385-.105c.17.007.334.067.47.17a.08.08 0 0 1 .021.055.081.081 0 0 1-.021.056.075.075 0 0 1-.051.021.076.076 0 0 1-.052-.021.714.714 0 0 0-.39-.158.493.493 0 0 0-.299.088.26.26 0 0 0-.069.082.256.256 0 0 0-.028.105.183.183 0 0 0 .092.158c.096.062.207.1.321.111.133.02.262.065.379.134a.389.389 0 0 1 0 .649.642.642 0 0 1-.391.129.966.966 0 0 1-.573-.228.074.074 0 0 1-.013-.052.082.082 0 0 1 .024-.048Zm2.284-1.192a.085.085 0 0 1-.023.052.084.084 0 0 1-.052.024h-.206v1.169a.126.126 0 0 0 .114.123.078.078 0 0 1 .037-.002.078.078 0 0 1 .033.016c.01.007.018.017.024.028a.095.095 0 0 1 .008.037.09.09 0 0 1-.008.036.096.096 0 0 1-.024.029.077.077 0 0 1-.033.015.077.077 0 0 1-.037-.001.277.277 0 0 1-.106-.02.276.276 0 0 1-.169-.261v-1.169h-.195c-.075 0-.075-.035-.075-.076 0-.041 0-.076.075-.076h.195v-.585a.083.083 0 0 1 .08-.082.083.083 0 0 1 .081.082v.585h.183a.07.07 0 0 1 .035 0 .064.064 0 0 1 .031.015c.01.007.017.016.023.027.005.01.008.022.009.034Zm1.957 0v1.444a.11.11 0 0 1-.004.031.076.076 0 0 1-.041.044.066.066 0 0 1-.03.007.082.082 0 0 1-.057-.024.083.083 0 0 1-.023-.058v-.234a.734.734 0 0 1-.574.316.779.779 0 0 1-.556-.235.81.81 0 0 1 0-1.133.778.778 0 0 1 .556-.234.732.732 0 0 1 .574.31v-.234c0-.011.002-.021.006-.031a.085.085 0 0 1 .017-.025.074.074 0 0 1 .027-.016c.009-.004.02-.005.03-.004a.075.075 0 0 1 .075.076Zm-.155.725a.586.586 0 0 0-.391-.497.566.566 0 0 0-.605.162.591.591 0 0 0 .11.882.57.57 0 0 0 .312.096.61.61 0 0 0 .414-.204.635.635 0 0 0 .16-.439Zm1.371-.725a.085.085 0 0 1-.023.052.084.084 0 0 1-.052.024h-.206v1.169a.123.123 0 0 0 .037.085.126.126 0 0 0 .083.038.078.078 0 0 1 .037-.002.078.078 0 0 1 .033.016c.01.007.018.017.024.028a.095.095 0 0 1 .008.037.09.09 0 0 1-.008.036.096.096 0 0 1-.024.029.077.077 0 0 1-.033.015.077.077 0 0 1-.037-.001.265.265 0 0 1-.257-.172.253.253 0 0 1-.018-.109v-1.169h-.201c-.074 0-.074-.035-.074-.076 0-.041 0-.076.074-.076h.201v-.585c0-.021.008-.041.021-.056a.084.084 0 0 1 .054-.026c.02.001.04.011.055.026a.085.085 0 0 1 .025.056v.585h.206c.02.001.038.009.052.023a.086.086 0 0 1 .023.053Zm.493.725a.79.79 0 0 1 .204-.559.757.757 0 0 1 1.079-.041c.149.14.236.335.244.541a.096.096 0 0 1-.008.029.068.068 0 0 1-.018.023.064.064 0 0 1-.025.015.077.077 0 0 1-.03.003h-1.291a.64.64 0 0 0 .186.434.612.612 0 0 0 .428.18.566.566 0 0 0 .505-.292.073.073 0 0 1 .052-.021c.019 0 .038.007.052.021a.086.086 0 0 1 .021.055.086.086 0 0 1-.021.056.741.741 0 0 1-.632.363.775.775 0 0 1-.533-.25.799.799 0 0 1-.213-.557Zm.167-.129h1.193a.613.613 0 0 0-.201-.378.59.59 0 0 0-.791 0 .613.613 0 0 0-.201.378Zm4.154-.017a.5.5 0 0 0-.143-.352.482.482 0 0 0-.689 0 .5.5 0 0 0-.143.352v.882a.072.072 0 0 1-.04.041h-.092v-.871a.515.515 0 0 0-.122-.386.491.491 0 0 0-.562-.122.503.503 0 0 0-.286.508v.871a.078.078 0 0 1-.034.065h-.052a.107.107 0 0 1-.041-.021.097.097 0 0 1-.028-.038v-1.467a.086.086 0 0 1 .023-.053.078.078 0 0 1 .052-.023c.01-.001.02 0 .03.004.01.003.019.009.026.016a.064.064 0 0 1 .018.025c.004.01.006.02.006.031v.152a.61.61 0 0 1 .482-.228.646.646 0 0 1 .574.339.658.658 0 0 1 .574-.339.628.628 0 0 1 .452.192.663.663 0 0 1 .185.462v.872c0 .02-.008.039-.022.053a.072.072 0 0 1-.053.023.072.072 0 0 1-.053-.023.075.075 0 0 1-.022-.053l-.04-.912Zm.689.146a.788.788 0 0 1 .223-.52.757.757 0 0 1 1.036-.039.779.779 0 0 1 .261.5c0 .01-.002.02-.005.028a.08.08 0 0 1-.017.024.06.06 0 0 1-.024.015.067.067 0 0 1-.028.003h-1.291c.004.163.07.317.183.432a.616.616 0 0 0 .425.182.566.566 0 0 0 .511-.292.071.071 0 0 1 .051-.021c.02 0 .038.007.052.021a.08.08 0 0 1 .021.055.081.081 0 0 1-.021.056.75.75 0 0 1-.637.363.775.775 0 0 1-.532-.25.798.798 0 0 1-.208-.557Zm.166-.129h1.188a.615.615 0 0 0-.174-.428.589.589 0 0 0-.84 0 .615.615 0 0 0-.174.428Zm3.024-.017a.493.493 0 0 0-.296-.46.475.475 0 0 0-.529.11.51.51 0 0 0-.145.35v.917a.072.072 0 0 1-.025.021.09.09 0 0 1-.032.009.097.097 0 0 1-.052-.041v-1.462a.092.092 0 0 1 .001-.037.08.08 0 0 1 .017-.033.069.069 0 0 1 .054.024.074.074 0 0 1 .016.027c.004.01.005.02.004.031v.152a.626.626 0 0 1 1.042.027.66.66 0 0 1 .106.394v.865a.08.08 0 0 1-.004.031.092.092 0 0 1-.016.027.094.094 0 0 1-.025.018.073.073 0 0 1-.03.006.082.082 0 0 1-.057-.024.082.082 0 0 1-.023-.058l-.006-.894Zm1.395-.579a.086.086 0 0 1-.026.054.08.08 0 0 1-.055.022h-.201v1.169a.133.133 0 0 0 .035.083c.021.023.05.037.08.04a.078.078 0 0 1 .037-.002.084.084 0 0 1 .033.016.07.07 0 0 1 .023.028.08.08 0 0 1 .009.037.077.077 0 0 1-.009.036.08.08 0 0 1-.023.029.082.082 0 0 1-.07.014.266.266 0 0 1-.196-.081.271.271 0 0 1-.079-.2v-1.169h-.195c-.075 0-.075-.035-.075-.076 0-.041 0-.076.075-.076h.195v-.585c0-.022.008-.043.023-.058a.082.082 0 0 1 .057-.024c.021 0 .042.009.057.024a.082.082 0 0 1 .023.058v.585h.201c.021 0 .04.007.055.021a.089.089 0 0 1 .026.055Zm.625 1.192a.074.074 0 0 1 .025-.017.06.06 0 0 1 .03-.007c.01 0 .02.002.029.007.01.004.018.01.025.017a.83.83 0 0 0 .482.188.466.466 0 0 0 .298-.1.253.253 0 0 0 .121-.193.273.273 0 0 0-.115-.199.748.748 0 0 0-.333-.117.81.81 0 0 1-.355-.122.325.325 0 0 1-.173-.287.4.4 0 0 1 .173-.316.667.667 0 0 1 .384-.105c.17.01.333.068.471.17a.086.086 0 0 1 .021.055.086.086 0 0 1-.021.056.078.078 0 0 1-.052.021.078.078 0 0 1-.052-.021.69.69 0 0 0-.384-.158.466.466 0 0 0-.299.088.237.237 0 0 0-.103.187c.001.032.01.063.026.091a.184.184 0 0 0 .066.067.751.751 0 0 0 .321.111c.136.02.266.065.385.134a.4.4 0 0 1 .178.328.39.39 0 0 1-.184.321.628.628 0 0 1-.39.129.951.951 0 0 1-.574-.228.07.07 0 0 1-.02-.05c0-.009.002-.018.005-.027a.083.083 0 0 1 .015-.023Zm2.657-1.719c0-.02.008-.039.022-.053a.072.072 0 0 1 .053-.023c.01 0 .02.001.03.004.01.004.019.009.026.017a.064.064 0 0 1 .018.025.08.08 0 0 1 .006.03v.076a.098.098 0 0 1 .002.038.104.104 0 0 1-.015.034.08.08 0 0 1-.029.023.074.074 0 0 1-.071 0 .08.08 0 0 1-.029-.023.104.104 0 0 1-.015-.034.082.082 0 0 1 .002-.038v-.076Zm0 .527a.075.075 0 0 1 .075-.076c.01-.001.02 0 .03.004.01.003.019.009.026.016a.072.072 0 0 1 .024.056v1.444a.083.083 0 0 1-.023.058.084.084 0 0 1-.057.024.06.06 0 0 1-.03-.007.064.064 0 0 1-.025-.018.054.054 0 0 1-.016-.026.067.067 0 0 1-.004-.031v-1.444Zm2.019.579a.493.493 0 0 0-.296-.46.475.475 0 0 0-.529.11.505.505 0 0 0-.144.35v.917a.075.075 0 0 1-.026.021.09.09 0 0 1-.032.009.094.094 0 0 1-.051-.041v-1.462c0-.022.008-.042.023-.058a.082.082 0 0 1 .057-.024c.01 0 .021.002.03.006a.114.114 0 0 1 .025.018.092.092 0 0 1 .016.027.11.11 0 0 1 .004.031v.152a.634.634 0 0 1 .487-.234c.17.002.332.071.451.194a.662.662 0 0 1 .186.461v.865a.065.065 0 0 1-.004.031.072.072 0 0 1-.04.045.08.08 0 0 1-.03.006.083.083 0 0 1-.081-.082l-.046-.882Zm2.359-.579a.086.086 0 0 1-.026.054.08.08 0 0 1-.054.022h-.201v1.169a.126.126 0 0 0 .114.123.078.078 0 0 1 .037-.002.078.078 0 0 1 .033.016c.01.007.018.017.024.028a.095.095 0 0 1 .008.037.09.09 0 0 1-.008.036.096.096 0 0 1-.024.029.077.077 0 0 1-.033.015.077.077 0 0 1-.037-.001.277.277 0 0 1-.106-.02.276.276 0 0 1-.169-.261v-1.169h-.195c-.08 0-.08-.035-.08-.076 0-.041 0-.076.08-.076h.195v-.585a.088.088 0 0 1 .023-.055.085.085 0 0 1 .052-.027c.021 0 .043.008.059.024a.09.09 0 0 1 .027.058v.585h.201c.02 0 .039.007.054.021a.089.089 0 0 1 .026.055Zm.493.725a.789.789 0 0 1 .224-.52.755.755 0 0 1 1.036-.039.783.783 0 0 1 .261.5.078.078 0 0 1-.022.052.065.065 0 0 1-.053.018h-1.291c.002.164.067.32.18.435a.603.603 0 0 0 .72.103.574.574 0 0 0 .213-.216.073.073 0 0 1 .052-.021c.019 0 .038.007.052.021a.096.096 0 0 1 .025.02.087.087 0 0 1 .014.029c.003.01.003.021.001.032a.066.066 0 0 1-.012.03.767.767 0 0 1-.636.363.767.767 0 0 1-.711-.503.809.809 0 0 1-.053-.304Zm.161-.129h1.194a.614.614 0 0 0-.202-.378.59.59 0 0 0-.791 0 .613.613 0 0 0-.201.378Zm1.853-.59a.083.083 0 0 1 .081-.082.072.072 0 0 1 .07.051c.004.01.005.02.004.031v.35-.041a.759.759 0 0 1 .631-.391.073.073 0 0 1 .071.051.08.08 0 0 1 .004.031c0 .02-.008.039-.022.053a.072.072 0 0 1-.053.023.554.554 0 0 0-.26.074.59.59 0 0 0-.199.189 1.4 1.4 0 0 0-.189.374v.702a.078.078 0 0 1-.02.057.073.073 0 0 1-.055.024.076.076 0 0 1-.056-.024.082.082 0 0 1-.024-.057l.017-1.415Zm3.644.572a.515.515 0 0 0-.122-.385.47.47 0 0 0-.363-.165.475.475 0 0 0-.363.165.497.497 0 0 0-.101.179.515.515 0 0 0-.021.206v.883a.07.07 0 0 1-.015.025.067.067 0 0 1-.025.016h-.086v-.871a.513.513 0 0 0-.122-.386.482.482 0 0 0-.827.18.513.513 0 0 0-.021.206v.871a.078.078 0 0 1-.034.065h-.052a.097.097 0 0 1-.063-.059v-1.467a.076.076 0 0 1 .075-.076.076.076 0 0 1 .074.076v.152a.633.633 0 0 1 .488-.228.652.652 0 0 0 .237.262.63.63 0 0 0 .674 0 .652.652 0 0 0 .237-.262c.17 0 .334.069.454.191a.66.66 0 0 1 .188.463v.872a.08.08 0 0 1-.023.056.092.092 0 0 1-.027.016.099.099 0 0 1-.03.004.072.072 0 0 1-.053-.023.075.075 0 0 1-.022-.053l-.057-.913Zm.694.614a.085.085 0 0 1 .055-.024.08.08 0 0 1 .054.024.833.833 0 0 0 .482.188.471.471 0 0 0 .299-.1.25.25 0 0 0 .12-.193.267.267 0 0 0-.115-.199.748.748 0 0 0-.332-.117.81.81 0 0 1-.356-.122.325.325 0 0 1-.172-.287.386.386 0 0 1 .172-.316.671.671 0 0 1 .384-.105c.168.009.33.068.465.17a.064.064 0 0 1 .018.025.08.08 0 0 1 0 .061.072.072 0 0 1-.018.025.076.076 0 0 1-.052.021.075.075 0 0 1-.051-.021.696.696 0 0 0-.385-.158.463.463 0 0 0-.298.088.237.237 0 0 0-.103.187.183.183 0 0 0 .092.158.751.751 0 0 0 .321.111c.135.02.266.065.384.134a.385.385 0 0 1 .123.511.386.386 0 0 1-.128.138.63.63 0 0 1-.391.129.95.95 0 0 1-.573-.228.072.072 0 0 1-.018-.051.09.09 0 0 1 .007-.027c.004-.008.01-.015.016-.022Zm3.323-1.239a.792.792 0 0 1 .754.465.81.81 0 0 1-.144.886.78.78 0 0 1-.861.193.806.806 0 0 1-.495-.743.788.788 0 0 1 .211-.557.761.761 0 0 1 .535-.244Zm0 1.444a.63.63 0 0 0 .632-.354.663.663 0 0 0-.098-.728.631.631 0 0 0-.998.071.63.63 0 0 0 .059.789.607.607 0 0 0 .405.193v.029Zm1.916-2.076a.081.081 0 0 1-.006.031.064.064 0 0 1-.018.025.054.054 0 0 1-.026.016.063.063 0 0 1-.03.004c-.109 0-.167 0-.195.065a.387.387 0 0 0-.063.263v.169h.218a.082.082 0 0 1 .074.113.072.072 0 0 1-.018.025.063.063 0 0 1-.026.016.063.063 0 0 1-.03.004h-.218v1.398a.096.096 0 0 1-.025.056.091.091 0 0 1-.056.026.084.084 0 0 1-.057-.024.085.085 0 0 1-.023-.058v-1.398h-.207c-.01.001-.02 0-.03-.004a.063.063 0 0 1-.026-.016.072.072 0 0 1-.024-.056c0-.021.009-.042.024-.058a.08.08 0 0 1 .056-.024h.207v-.169a.594.594 0 0 1 .103-.357.433.433 0 0 1 .316-.111.08.08 0 0 1 .051.018.078.078 0 0 1 .029.046Zm1.326 1.871a.08.08 0 0 1 .054-.024.085.085 0 0 1 .055.024.847.847 0 0 0 .482.188.457.457 0 0 0 .298-.1.227.227 0 0 0 .084-.31.22.22 0 0 0-.084-.082.725.725 0 0 0-.333-.117.836.836 0 0 1-.355-.122.34.34 0 0 1-.173-.287.408.408 0 0 1 .173-.316.666.666 0 0 1 .372-.093c.17.008.334.067.471.169a.083.083 0 0 1 .021.056c0 .021-.007.04-.021.056a.078.078 0 0 1-.054.021.079.079 0 0 1-.055-.021.68.68 0 0 0-.384-.158.497.497 0 0 0-.299.087.252.252 0 0 0-.097.187.185.185 0 0 0 .086.158.751.751 0 0 0 .321.111c.136.019.266.065.384.135a.39.39 0 0 1 .178.327.403.403 0 0 1-.178.322.64.64 0 0 1-.395.129.951.951 0 0 1-.574-.228.069.069 0 0 1-.013-.029.086.086 0 0 1 0-.032.069.069 0 0 1 .012-.029.1.1 0 0 1 .024-.022Zm1.572-.467a.784.784 0 0 1 .224-.52.755.755 0 0 1 1.035-.039.779.779 0 0 1 .261.5.052.052 0 0 1-.005.028.08.08 0 0 1-.017.024.06.06 0 0 1-.024.015.067.067 0 0 1-.028.003h-1.297c.004.163.07.317.183.432a.617.617 0 0 0 .425.182.566.566 0 0 0 .511-.292.072.072 0 0 1 .052-.021c.019 0 .037.007.051.021a.082.082 0 0 1 0 .111.75.75 0 0 1-.637.363.772.772 0 0 1-.528-.252.797.797 0 0 1-.206-.555Zm.161-.129h1.193a.624.624 0 0 0-.196-.364.6.6 0 0 0-.378-.156.616.616 0 0 0-.409.141.64.64 0 0 0-.222.379h.012Zm1.836-.59a.086.086 0 0 1 .086-.082c.01 0 .019.003.028.008.009.004.017.01.023.018a.082.082 0 0 1 .018.056v.35a.28.28 0 0 0 0-.041.763.763 0 0 1 .631-.391.072.072 0 0 1 .055.024.092.092 0 0 1 .016.027.08.08 0 0 1 .003.031c0 .02-.007.039-.021.053a.072.072 0 0 1-.053.023.558.558 0 0 0-.459.263c-.081.114-.145.24-.19.374v.702c.001.009 0 .02-.003.029a.082.082 0 0 1-.014.026.066.066 0 0 1-.023.018.06.06 0 0 1-.028.008.086.086 0 0 1-.086-.081l.017-1.415Zm1.916 1.508v-.035l-.574-1.438a.086.086 0 0 1-.002-.057.075.075 0 0 1 .037-.043.078.078 0 0 1 .06 0 .078.078 0 0 1 .043.041l.522 1.263.523-1.263a.072.072 0 0 1 .014-.026.072.072 0 0 1 .025-.018.093.093 0 0 1 .029-.005c.01.001.02.003.029.008a.08.08 0 0 1 .04.041.075.075 0 0 1 0 .059l-.574 1.42a.094.094 0 0 1 0 .041.058.058 0 0 1-.051 0h-.046l-.075.012Zm1.366-2.041c0-.01.002-.02.006-.03a.064.064 0 0 1 .018-.025.065.065 0 0 1 .026-.017.106.106 0 0 1 .031-.004.08.08 0 0 1 .08.076v.076a.086.086 0 0 1-.023.06.082.082 0 0 1-.057.028.082.082 0 0 1-.058-.028.086.086 0 0 1-.023-.06v-.076Zm0 .527a.072.072 0 0 1 .024-.056.063.063 0 0 1 .026-.016.065.065 0 0 1 .031-.004c.01-.001.02 0 .03.004.01.003.019.009.026.016a.072.072 0 0 1 .024.056v1.444a.08.08 0 0 1-.024.058.08.08 0 0 1-.056.024.08.08 0 0 1-.057-.024.08.08 0 0 1-.024-.058v-1.444Zm.786.719a.805.805 0 0 1 .503-.74.768.768 0 0 1 .306-.055.801.801 0 0 1 .505.175.078.078 0 0 1 .021.053.078.078 0 0 1-.021.052.076.076 0 0 1-.052.019.075.075 0 0 1-.051-.019.638.638 0 0 0-.838.038.676.676 0 0 0-.197.564.655.655 0 0 0 .627.568c.148 0 .291-.05.408-.141a.075.075 0 0 1 .051-.021.076.076 0 0 1 .07.048.087.087 0 0 1 0 .064.068.068 0 0 1-.018.026.801.801 0 0 1-.499.17.793.793 0 0 1-.749-.49.83.83 0 0 1-.066-.311Zm1.785.006a.785.785 0 0 1 .203-.559.756.756 0 0 1 1.079-.041c.149.14.236.335.244.541a.074.074 0 0 1-.008.029.058.058 0 0 1-.018.023.064.064 0 0 1-.025.015.074.074 0 0 1-.029.003h-1.292a.644.644 0 0 0 .184.432.614.614 0 0 0 .425.182.57.57 0 0 0 .51-.292.073.073 0 0 1 .052-.021c.019 0 .038.007.052.021a.086.086 0 0 1 .021.055.086.086 0 0 1-.021.056.754.754 0 0 1-.637.363.775.775 0 0 1-.53-.252.798.798 0 0 1-.21-.555Zm.166-.129h1.193a.613.613 0 0 0-.201-.378.59.59 0 0 0-.791 0 .613.613 0 0 0-.201.378Z"/>
  <path fill="#EBEBEB" d="M86.427 163.182h-4.54v-4.63h4.545l-.005 4.63Zm-3.971-.584h3.397v-3.462h-3.391l-.006 3.462Z"/>
  <path fill="#A6A6A6" d="M151.318 105.216a.863.863 0 0 1-.141.474.84.84 0 0 1-.86.363.831.831 0 0 1-.429-.234.866.866 0 0 1 .127-1.313.827.827 0 0 1 1.06.104.856.856 0 0 1 .243.606Zm.609 2.339h-2.904c.023-.376.186-.728.455-.986a1.44 1.44 0 0 1 .994-.401c.369 0 .725.144.994.401.269.258.432.61.455.986h.006Zm-2.904 17.722-.493-.404h3.873l-.494.404c-.166.134-.332.269-.493.409l-.545.468-.408.35-.407-.35-.545-.468-.488-.409Z"/>
  <path fill="#A6A6A6" d="M152.414 124.897v2.502h-3.873v-2.502l.471.45.482.438.499.451h-.029c-.108.06-.214.127-.315.198a8.11 8.11 0 0 0-.391.263l-.373.275c-.126.1-.246.193-.367.298.138-.076.27-.157.402-.245s.258-.17.384-.263c.126-.094.258-.182.379-.275.12-.094.201-.158.298-.246l.425.375.425-.375c.097.088.195.164.292.246l.379.275c.126.093.258.181.384.263.127.082.264.169.402.245-.115-.105-.241-.198-.361-.298l-.379-.275a5.815 5.815 0 0 0-.385-.263 3.417 3.417 0 0 0-.321-.198h-.029l.505-.451.477-.438.619-.45Zm-1.939 20.423a2.81 2.81 0 0 0-1.934.976c.228.302.522.547.858.715a2.396 2.396 0 0 0 2.158 0c.336-.168.629-.413.857-.715a2.81 2.81 0 0 0-1.939-.976Zm0 1.666a.69.69 0 0 1-.631-.429.708.708 0 0 1 .148-.758.677.677 0 0 1 .744-.151.684.684 0 0 1 .307.256.705.705 0 0 1 .064.654.681.681 0 0 1-.632.428Z"/>
  <path fill="#A6A6A6" d="M150.911 146.291a.447.447 0 0 1-.433.495.424.424 0 0 1-.326-.149.442.442 0 0 1-.108-.346.449.449 0 0 1 .144-.281.428.428 0 0 1 .58 0c.08.072.131.172.143.281Z"/>
  <path fill="#90CAF9" d="M136.944 173.128h-33.217v10.209h33.217v-10.209Z"/>
  <path fill="#fff" d="M109.832 179.051a.286.286 0 0 1 .08-.067.291.291 0 0 1 .099-.03.264.264 0 0 1 .194.062c.276.238.62.38.981.403a1.08 1.08 0 0 0 .643-.193.468.468 0 0 0 .224-.38.32.32 0 0 0-.046-.163.569.569 0 0 0-.155-.158 2.05 2.05 0 0 0-.706-.246 2.788 2.788 0 0 1-.66-.204 1.16 1.16 0 0 1-.482-.41.849.849 0 0 1-.114-.432.96.96 0 0 1 .407-.761c.26-.187.571-.285.889-.28.416.016.817.163 1.148.421a.27.27 0 0 1 .069.368.254.254 0 0 1-.164.119.255.255 0 0 1-.198-.037 1.461 1.461 0 0 0-.832-.333.963.963 0 0 0-.574.175.424.424 0 0 0-.195.328.277.277 0 0 0 .035.146.51.51 0 0 0 .138.14c.198.116.416.193.642.228.245.044.484.119.712.222.208.09.386.241.51.433a.848.848 0 0 1 .127.444 1.022 1.022 0 0 1-.442.813 1.599 1.599 0 0 1-.953.298 2.196 2.196 0 0 1-1.314-.52.276.276 0 0 1-.107-.288.271.271 0 0 1 .044-.098Zm3.575-2.467a.28.28 0 0 1 .281-.287.29.29 0 0 1 .287.287v3.093a.285.285 0 0 1-.395.266.277.277 0 0 1-.173-.266v-3.093Zm1.371 1.52a1.96 1.96 0 0 1 .307-1.007c.192-.3.461-.54.779-.693a1.862 1.862 0 0 1 1.02-.175c.349.039.681.176.958.395a.305.305 0 0 1 .055.419.273.273 0 0 1-.086.076.28.28 0 0 1-.222.03.28.28 0 0 1-.102-.051 1.311 1.311 0 0 0-.815-.286 1.23 1.23 0 0 0-.924.385 1.255 1.255 0 0 0-.384.907 1.267 1.267 0 0 0 .384.906 1.27 1.27 0 0 0 .924.38 1.38 1.38 0 0 0 .706-.199v-.719h-.735a.29.29 0 0 1-.207-.087.3.3 0 0 1 .001-.42.277.277 0 0 1 .206-.083h1.022a.274.274 0 0 1 .21.081.286.286 0 0 1 .088.211v1.169a.431.431 0 0 1 0 .088.048.048 0 0 0 0 .029.264.264 0 0 1-.103.123 1.86 1.86 0 0 1-1.148.409 1.845 1.845 0 0 1-1.359-.527 1.893 1.893 0 0 1-.423-.621 1.94 1.94 0 0 1-.152-.74Zm4.906 1.573a.288.288 0 0 1-.084.2.28.28 0 0 1-.305.066.277.277 0 0 1-.173-.266v-3.047a.286.286 0 0 1 .026-.138.273.273 0 0 1 .089-.107.285.285 0 0 1 .208-.048.287.287 0 0 1 .182.112l1.658 2.339v-2.158a.287.287 0 0 1 .276-.28.287.287 0 0 1 .287.28v3.047a.287.287 0 0 1-.287.286.272.272 0 0 1-.207-.105l-.028-.029-1.642-2.339v2.187Zm6.421.286a1.46 1.46 0 0 1-1.049-.444 1.526 1.526 0 0 1-.431-1.07v-1.865a.29.29 0 0 1 .08-.205.276.276 0 0 1 .201-.082c.075 0 .147.03.201.084a.294.294 0 0 1 .086.203v1.865a.944.944 0 0 0 .547.931.914.914 0 0 0 .736 0 .938.938 0 0 0 .547-.931v-1.865a.297.297 0 0 1 .085-.205.274.274 0 0 1 .202-.082.274.274 0 0 1 .262.176c.013.035.02.073.019.111v1.865a1.534 1.534 0 0 1-.433 1.072 1.457 1.457 0 0 1-1.053.442Zm3.896-1.427h-.631v1.141c0 .077-.03.151-.084.206a.285.285 0 0 1-.406 0 .298.298 0 0 1-.084-.206v-3.093a.298.298 0 0 1 .084-.201.288.288 0 0 1 .198-.086h.923a1.092 1.092 0 0 1 .83.298 1.116 1.116 0 0 1 .352.822 1.147 1.147 0 0 1-.352.822 1.075 1.075 0 0 1-.83.297Zm-.631-.584h.631a.517.517 0 0 0 .374-.158.53.53 0 0 0 .154-.38.536.536 0 0 0-.528-.538h-.631v1.076Z"/>
  <path fill="#455A64" d="M135.126 65.153c3.65 0 6.61-3.016 6.61-6.736 0-3.72-2.96-6.736-6.61-6.736-3.651 0-6.611 3.016-6.611 6.736 0 3.72 2.96 6.736 6.611 6.736Z"/>
  <path fill="#EBEBEB" d="M104.553 88.096c2.561 0 4.637-2.115 4.637-4.725 0-2.609-2.076-4.724-4.637-4.724-2.56 0-4.636 2.115-4.636 4.724 0 2.61 2.076 4.725 4.636 4.725Z"/>
  <path fill="#90CAF9" d="M129.755 86.061a17.447 17.447 0 0 1-5.165 2.199 17.59 17.59 0 0 1-12.919-1.78c-3.934-2.23-6.898-5.888-8.302-10.245a18.547 18.547 0 0 1 .729-13.264c1.871-4.17 5.217-7.468 9.37-9.236a17.576 17.576 0 0 1 13.034-.301c4.227 1.574 7.717 4.714 9.772 8.794a18.537 18.537 0 0 1 1.318 13.216c-1.209 4.418-4.007 8.209-7.837 10.617Z"/>
  <path fill="#fff" d="M125.79 68.468a5.62 5.62 0 0 1-.917 3.081 5.471 5.471 0 0 1-2.442 2.044c-.995.42-2.089.53-3.145.318a5.414 5.414 0 0 1-2.788-1.516 5.579 5.579 0 0 1-1.493-2.838 5.654 5.654 0 0 1 .305-3.205 5.533 5.533 0 0 1 2.001-2.492 5.372 5.372 0 0 1 6.881.678c.507.516.91 1.128 1.184 1.803a5.65 5.65 0 0 1 .414 2.127Z"/>
  <path fill="#fff" d="M129.755 83.775v2.286a17.446 17.446 0 0 1-5.165 2.199c-2.305.58-4.701.683-7.047.305a17.587 17.587 0 0 1-6.609-2.51v-2.28a9.748 9.748 0 0 1 .648-3.742 9.608 9.608 0 0 1 2.024-3.19 9.397 9.397 0 0 1 3.081-2.141 9.254 9.254 0 0 1 7.309 0 9.397 9.397 0 0 1 3.081 2.14c.877.916 1.565 2 2.024 3.191a9.748 9.748 0 0 1 .648 3.742h.006Z"/>
  <path fill="#263238" d="M141.644 101.403a12.81 12.81 0 0 1-.212-2.473 12.43 12.43 0 0 1 .212-2.473c.155.815.228 1.643.218 2.473.007.83-.066 1.658-.218 2.473Zm-3.449 1.562c-.67-.468-1.295-1-1.865-1.591a12.53 12.53 0 0 1-1.566-1.906 13.914 13.914 0 0 1 3.443 3.508l-.012-.011Zm-1.354 3.59c-.798.153-1.609.226-2.421.216-.814.013-1.628-.06-2.427-.216a13.663 13.663 0 0 1 4.848 0Zm1.538 3.514a14.222 14.222 0 0 1-3.443 3.508c.455-.688.978-1.327 1.561-1.906a12.653 12.653 0 0 1 1.882-1.602Zm3.517 1.38a14.086 14.086 0 0 1 0 4.94 14.478 14.478 0 0 1 0-4.94Zm3.449-1.562a13.773 13.773 0 0 1 3.443 3.509 11.93 11.93 0 0 1-1.865-1.591 12.698 12.698 0 0 1-1.578-1.918Zm1.383-3.589a13.333 13.333 0 0 1 4.854 0 13.743 13.743 0 0 1-4.854 0Zm-1.561-3.515c.459-.685.981-1.323 1.561-1.906a12.345 12.345 0 0 1 1.87-1.59 14.182 14.182 0 0 1-3.442 3.508l.011-.012Z"/>
  <path fill="#90CAF9" d="M171.046 50.904s4.016 28.468 3.747 31.175c-.27 2.708-3.546 28.949-3.546 28.949s-7.357-1.614-9.48-2.924c-1.526-.93-6.931-5.677-6.931-5.677s9.181-18.301 9.938-22.014c.757-3.713 1.257-21.715 2.135-25.34a7.408 7.408 0 0 1 1.557-2.933 7.232 7.232 0 0 1 2.666-1.932"/>
  <path fill="#263238" d="M162.404 90.4a6.139 6.139 0 0 0 2.261 2.508c.499.345 1.463 1.082 1.767.129a1.74 1.74 0 0 0-.126-1.106 6.147 6.147 0 0 0-1.044-1.806c-.54-.673-1.435-1.555-2.376-1.392-.941.164-.763 1-.482 1.667Zm5.882 4.572a5.901 5.901 0 0 0 1.354 3.385c.396.421.855.556 1.211.263.355-.292.545-.924.573-1.426a6.397 6.397 0 0 0-.631-3.508c-.338-.673-.935-1.608-1.813-1.404-1.102.293-.803 1.865-.694 2.69Zm-4.487-.48c-.5.398 0 1.93.464 2.655.574.924 1.567 1.976 2.387 1.579.414-.205.471-1.345-.436-2.778-.849-1.315-2.002-1.771-2.415-1.456Zm-2.514 8.443c.195.392.62 1.082 1.119 1.106.499.023.574-.492.574-.866a5.776 5.776 0 0 0-.316-1.713c-.235-.748-.671-1.397-1.377-1.438-1.394-.076-.252 2.409 0 2.911Z"/>
  <path fill="#EB9481" d="M205.428 183.6s12.509 22.569 12.515 22.569c2.008 4.543 3.689 8.566 4.372 10.729a.07.07 0 0 1 0 .035c.213.489.313 1.021.293 1.556v.04c-.924 1.527-36.104 18.95-37.533 19.138-1.428.187-2.06-3.947-1.222-5.736.838-1.789 11.384-14.618 11.384-14.618l-12.285-22.627 22.476-11.086Z"/>
  <path fill="#EBEBEB" d="M185.638 237.52c1.423-.187 36.046-17.476 36.964-19.002v-.041a3.57 3.57 0 0 0-.292-1.555.04.04 0 0 0 0-.03c-.683-2.163-2.365-6.192-4.367-10.735 0 0-2.112-3.941-2.949-5.309l-22.379 11.788 2.605 4.677s-9.978 12.676-10.816 14.466c-.838 1.789-.201 5.963 1.234 5.741Z"/>
  <path fill="#90CAF9" d="M184.989 237.035c1.44-.222 36.494-18.622 37.389-20.189.35-.585-1.985-5.947-4.986-12.343 0-.065-.063-.135-.098-.199l-22.74 11.612.207.386s-10.328 13.161-11.138 14.985c-.809 1.825-.068 5.976 1.366 5.748Z"/>
  <path fill="#fff" d="M184.691 235.445c5.83-3.251 29.666-15.787 35.673-18.559.046 0 .063 0 0 .036-5.738 3.35-29.643 15.699-35.645 18.616-.12.065-.154-.029-.028-.093Z"/>
  <path fill="#263238" d="M192.896 217.372c2.1-1.661 5.13-2.795 7.758-2.035.103.029.057.175-.029.187a36.353 36.353 0 0 0-7.568 2.14.164.164 0 0 1-.203-.076.17.17 0 0 1 .042-.216Zm-1.159 1.912c2.1-1.667 5.13-2.795 7.758-2.035.103.029.063.175 0 .187a36.476 36.476 0 0 0-7.568 2.14.167.167 0 0 1-.13.025.174.174 0 0 1-.134-.206.176.176 0 0 1 .074-.111Zm-1.159 1.912c2.106-1.667 5.13-2.795 7.764-2.035.097 0 .057.175-.029.187a36.468 36.468 0 0 0-7.574 2.14.165.165 0 0 1-.203-.076.168.168 0 0 1-.018-.116.166.166 0 0 1 .06-.1Z"/>
  <path fill="#fff" d="M213.53 211.344c1.888-2.632 5.899.35 4.017 2.987-1.882 2.637-5.905-.356-4.017-2.987Z"/>
  <path fill="#000" d="m193.206 218.278-2.519 16.038a61.635 61.635 0 0 1-5.704 2.719c-1.434.228-2.169-3.929-1.371-5.748.626-1.379 6.725-9.267 9.594-13.009Z" opacity=".1"/>
  <path fill="#263238" d="M183.807 236.035c-.499.585.723 2.655 1.263 2.585.539-.071 38.668-20.301 39.242-20.786.574-.486-.861-2.743-1.681-2.468-.821.275-38.824 20.669-38.824 20.669Z"/>
  <path fill="#37474F" d="m215.051 198.743-25.213 13.717s-31.823-46.19-32.455-58.352c-.883-16.769 13.169-70.005 13.169-70.005l22.413-.153s-9.112 54.745-8.366 64.083c.384 4.888 30.452 50.71 30.452 50.71Z"/>
  <path fill="#263238" d="M187.64 207.151c1.297-.953 13.249-8.01 22.35-12.518.057 0 .097.059.046.094-2.76 1.859-20.6 11.816-22.327 12.524-.057.023-.126-.059-.069-.1Zm-6.157-70.812c1.039-8.01 2.186-16.015 3.495-23.972 1.308-7.958 2.691-16.01 4.338-23.973.199-.97.403-1.945.614-2.923a.118.118 0 0 1 .05-.076.116.116 0 0 1 .162.033.122.122 0 0 1 .017.09c-1.377 7.881-2.8 15.757-4.068 23.656a922.92 922.92 0 0 0-3.523 23.75c-.264 1.965-.517 3.93-.769 5.894a53.336 53.336 0 0 0-.574 6.116 15.89 15.89 0 0 0 .958 5.736 33.519 33.519 0 0 0 2.582 5.157c4.057 6.987 22.212 37.531 22.683 38.42.034.059-.046.117-.08.059-4.361-6.888-17.88-28.896-21.989-36-1.859-3.204-3.982-6.432-4.59-10.185-.62-3.865.189-7.929.694-11.782Z"/>
  <path fill="#EB9481" d="m187.939 198.743.252 26.072c-.132 4.982-.339 9.355-.654 11.6a3.52 3.52 0 0 1-.402 1.567h-.028c-1.481.965-40.597 1.023-41.963.585-1.366-.439-.172-4.467 1.349-5.701 1.52-1.234 16.485-8.086 16.485-8.086v-26.037h24.961Z"/>
  <path fill="#EBEBEB" d="m188.139 219.465.052 5.35c-.132 4.982-.339 9.355-.654 11.6a.07.07 0 0 1 0 .035 6.48 6.48 0 0 1-.402 1.532h-.028c-1.481.965-40.597 1.023-41.963.585-1.366-.439-.172-4.467 1.349-5.701 1.52-1.234 16.485-8.086 16.485-8.086v-5.432l25.161.117Z"/>
  <path fill="#90CAF9" d="M145.121 238.52c1.383.445 40.809-.257 42.29-1.257.573-.374.803-6.233.889-13.319v-.234l-25.443.164v.444s-14.97 7.145-16.491 8.42c-1.52 1.274-2.633 5.338-1.245 5.782Z"/>
  <path fill="#fff" d="M145.54 236.954c6.639-.287 33.459-.802 40.046-.585.057 0 .057.041 0 .046-6.576.428-33.396.72-40.046.632-.143.018-.143-.087 0-.093Z"/>
  <path fill="#263238" d="M160.74 224.447c2.605-.55 5.813-.193 7.844 1.666.08.076 0 .187-.109.158a36.457 36.457 0 0 0-7.718-1.491.17.17 0 0 1-.112-.27.166.166 0 0 1 .095-.063Zm-1.865 1.192c2.605-.549 5.813-.193 7.838 1.667.081.076 0 .187-.103.158a36.502 36.502 0 0 0-7.723-1.491.17.17 0 0 1-.107-.272.166.166 0 0 1 .095-.062Zm-1.87 1.193c2.605-.544 5.812-.193 7.844 1.666.08.076 0 .188-.109.164a36.144 36.144 0 0 0-7.718-1.497.163.163 0 0 1-.101-.052.17.17 0 0 1-.044-.107.17.17 0 0 1 .128-.174Zm-12.515 10.256c-.7.292-.505 2.701 0 2.888.505.187 43.494-.778 44.223-.959.729-.181.413-2.847-.436-2.97-.849-.123-43.787 1.041-43.787 1.041Z"/>
  <path fill="#fff" d="M181.868 228.335c2.834-1.503 5.135 2.976 2.295 4.49-2.84 1.515-5.136-2.976-2.295-4.49Z"/>
  <path fill="#37474F" d="M170.828 84.05c.149.473 8.199 22.961 8.962 23.323.855.404-17.787 32.328-18.901 47.156-.705 9.489.683 63.147.683 63.147h27.267s-1.314-48.261-1.933-63.556c-.241-5.929 18.723-35.45 18.935-53.839.075-5.794-4.016-16.372-4.016-16.372l-30.997.14Z"/>
  <path fill="#263238" d="M186.768 153.757c0-.246.189-.327.207-.076.614 8.279.757 16.506 1.147 24.797s.167 10.261.528 18.523c.207 4.678 0 9.355.115 14.033a.06.06 0 0 1-.021.029.06.06 0 0 1-.034.011.055.055 0 0 1-.033-.011.06.06 0 0 1-.021-.029c-.849-8.221-1.882-52.594-1.888-57.277Zm-25.861 1.123c.044-2.043.236-4.079.573-6.093a31.003 31.003 0 0 1 1.687-5.718c1.504-3.871 3.288-7.648 4.993-11.431a523.09 523.09 0 0 1 5.301-11.442c1.022-2.129 2.049-4.255 3.082-6.379 1.05-2.146 2.18-4.257 3.276-6.379.04-.082.172 0 .132.064-1.75 3.824-3.471 7.659-5.221 11.483-1.751 3.824-3.443 7.666-5.165 11.501-1.721 3.836-3.379 7.554-4.975 11.373a38.261 38.261 0 0 0-1.945 5.618 33.644 33.644 0 0 0-.838 6.07c-.263 4.741-.39 9.507-.849 14.237 0 .058-.103.052-.103 0-.138-4.298-.075-8.619.052-12.904Zm2.656 57.353c1.584-.211 13.668-.638 23.773-.199.014 0 .027.005.037.015.009.01.015.023.015.037a.058.058 0 0 1-.015.038.051.051 0 0 1-.037.015c-3.294.299-21.908.427-23.761.211-.063-.006-.086-.111-.012-.117Z"/>
  <path fill="#263238" d="M176.038 106.145a51.63 51.63 0 0 1 8.527 3.012.097.097 0 0 1 .009.177.097.097 0 0 1-.073.004c-2.869-.912-5.772-1.754-8.578-2.842a.184.184 0 0 1-.086-.096.19.19 0 0 1 .076-.231.182.182 0 0 1 .125-.024Zm-2.754-19.049c0-.094.166-.134.172 0 .315 3.321.815 6.215 1.4 9.285.275 1.427 2.209 9.262 4.59 8.425.402-.14.574-.584.574-1.21a10.073 10.073 0 0 0-.574-2.403 72.636 72.636 0 0 1-1.147-4.952 47.163 47.163 0 0 1-.844-9.42c0-.022.009-.042.024-.058a.078.078 0 0 1 .113 0 .083.083 0 0 1 .024.058 88.346 88.346 0 0 0 2.048 12.91c.517 2.035 1.854 5.04-.241 5.584-2.094.544-4.051-4.52-4.458-5.923a48.794 48.794 0 0 1-1.681-12.296Z"/>
  <path fill="#263238" d="M179.435 105.017c.274.513.513 1.044.717 1.59.201.416.324.866.362 1.328 0 .087-.109.111-.167.058a4.968 4.968 0 0 1-.7-1.263c-.235-.491-.482-.976-.706-1.473a.29.29 0 0 1 .008-.199.273.273 0 0 1 .486-.041Zm4.539 56.902c-.138-3.946-.574-8.092.7-11.904a39.843 39.843 0 0 1 2.49-5.408 343.476 343.476 0 0 0 2.783-5.602c3.644-7.496 7.075-15.114 10.139-22.879 1.48-3.736 2.8-7.572 3.328-11.583a36.274 36.274 0 0 0-.763-12.606 70.19 70.19 0 0 0-.752-3.07c0-.07.092-.116.115-.04a42.263 42.263 0 0 1 2.129 12.056 34.795 34.795 0 0 1-2.054 11.519c-1.309 3.882-2.944 7.647-4.556 11.407a418.212 418.212 0 0 1-5.165 11.519c-1.784 3.788-3.689 7.513-5.571 11.255a20.8 20.8 0 0 0-2.095 5.677 30.051 30.051 0 0 0-.223 6.216c.321 8.741 1.061 37.823 1.147 46.541 0 1.105.029 2.21.04 3.321 0 .094-.143.111-.149 0-.539-8.688-1.234-37.707-1.543-46.419Z"/>
  <path fill="#263238" d="M190.09 89.71c0-.059.098-.047.104 0 .321 2.409.505 4.9 1.646 7.08 1.045 2.006 2.869 3.298 4.855 4.198 1.157.506 2.338.951 3.54 1.333.086 0 .069.164-.028.141-2.256-.474-4.545-1.012-6.507-2.304-2.101-1.38-3.179-3.59-3.524-6.063a21.215 21.215 0 0 1-.086-4.385Z"/>
  <path fill="#EBEBEB" d="M203.248 85.81c-.052.11-35.921 10.068-36.322 9.805-.04 0-1.521-.842-1.842-3.666-.092-.778.929-4.093.958-6.59.08-8.659-.252-24.738 2.06-33.374.62-2.339 5.526-4.981 8.217-3.292 12.125 7.596 26.998 36.97 26.929 37.117Z"/>
  <path fill="#90CAF9" d="M174.517 48.015s1.331 18.435 1.813 20.575c.333 1.497 4.396 16.547 6.484 27.423.896 4.677.477 11.992.477 11.992s12.491-4.134 16.319-6.789c2.215-1.537 7.155-8.185 7.155-8.185s-7.907-17.875-12.411-24.587c-4.505-6.712-13.066-18.33-17.077-20.026-1.807-.771-2.76-.403-2.76-.403Z"/>
  <path fill="#263238" d="M196.878 79.039a2.016 2.016 0 0 0-.734.669 2.07 2.07 0 0 0-.333.945 6.541 6.541 0 0 0-.269 2.894c.074.526.304 1.304.975 1.17.671-.135 1.044-1.305 1.222-1.9.178-.597.706-4.456-.861-3.778Zm-5.319 4.479c-.734.62-.654 1.894-.499 2.742.106.695.332 1.366.666 1.982.154.349.416.636.746.819.912.38.981-.842 1.05-1.456a6.29 6.29 0 0 0-.408-3.38c-.298-.637-.878-1.28-1.555-.707Zm2.577-7.122c-.574-.07-.878.368-1.039.947a5.428 5.428 0 0 0-.224 2.082c.046.427.138 1.17.603 1.345.465.175.838-.31 1.004-.69.298-.696.895-3.52-.344-3.684Zm-8.699 29.79c-.442.918-1.343.158-2.066-.736 0-1.059.029-2.339 0-3.719l.195.164a6.506 6.506 0 0 1 1.658 2.338 2.096 2.096 0 0 1 .213 1.953Zm4.125-.409-1.314.485a5.794 5.794 0 0 1-1.669-2.461c-.115-.398-.167-1.023.315-1.17.482-.146 1.01.328 1.32.614a5.36 5.36 0 0 1 1.148 1.725c.135.246.204.525.2.807Zm-3.379-31.573c.545-.03 1.056.76 1.297 1.169.384.683.627 1.44.711 2.222.057.45.218 1.403-.195 1.754-.499.415-.981-.059-1.337-.708a5.212 5.212 0 0 1-1.062-3.245c.006-.409.052-1.157.586-1.192Zm4.085 16.371c-.723.544-.413 1.614-.132 2.31a6.31 6.31 0 0 0 2.198 2.753c.407.281 1.021.62 1.457.456.437-.163.643-.526.574-1.11a5.884 5.884 0 0 0-1.658-3.24c-.528-.596-1.503-1.853-2.439-1.146v-.023Zm4.545.199c.482 1.643 1.371 2.339 1.79 2.146.826-.38.683-1.819.373-2.877-.241-.83-1.061-2.21-1.687-2.082-.511.13-.935 1.322-.476 2.836v-.023Zm-16.595-28.65a6.037 6.037 0 0 1-.946 1.86c-.35.53-.808.98-1.343 1.315-.098-.965-.201-2.082-.299-3.263.283-.28.581-.541.896-.783.482-.38 1.4-1.17 1.761-.234.1.373.076.77-.069 1.128v-.023Zm2.68-.55c.884.158 1.429-.807 1.721-1.497a6.367 6.367 0 0 0 .437-3.508c-.081-.491-.264-1.17-.678-1.391-.413-.223-.82-.106-1.193.333a5.949 5.949 0 0 0-1.148 3.461c-.069.836-.287 2.427.861 2.626v-.024Zm-2.995-3.508c-.769 1.374-1.9 1.894-2.33 1.59a.47.47 0 0 1-.166-.233c0-.229-.04-.462-.063-.696a5.045 5.045 0 0 1 .545-1.754c.539-.96 1.463-2.059 2.295-1.708.43.222.551 1.357-.281 2.842v-.041Zm24.203 32.222c-.43.585-.23 1.328.183 1.994.284.51.646.97 1.074 1.363.275.245.722.497 1.015.117.293-.38.069-1.17-.097-1.585-.213-.485-1.32-2.982-2.175-1.848v-.04Zm-11.247-19.633a1.45 1.45 0 0 0-.384 1.59c.084.471.243.925.47 1.345.15.269.431.584.758.374.327-.21.361-.895.338-1.257-.023-.433-.223-2.655-1.182-2.012v-.04Z"/>
  <path fill="#EB9481" d="M170.684 57.475c2.026-.49 3.73-5.917 3.833-8.828 0-.2-.757-1.17-1.945-3.082-.723-1.17-1.492-2.485-2.112-3.736l-6.782 5.847a22.29 22.29 0 0 1 3.127 4.438c.084.172.151.352.201.538.01.031.022.063.035.093.344 1.082 1.687 5.204 3.643 4.73Z"/>
  <path fill="#263238" d="M167.907 53.909c-.138.076-.275.14-.407.205a25.795 25.795 0 0 1-.494-1.439 3.285 3.285 0 0 0-.201-.544 22.364 22.364 0 0 0-3.127-4.432l6.782-5.847c.132.264.264.527.408.796.786 2.853 1.681 8.747-2.961 11.26Z"/>
  <path fill="#EB9481" d="M167.19 33.357c2.226 2.339 4.814 11.109 3.77 13.939-1.515 4.064-6.002 6.712-9.899 4.391-3.769-2.251-6.943-13.77-5.588-16.523 1.996-4.064 8.429-5.274 11.717-1.807Z"/>
  <path fill="#263238" d="M161.968 42.519s.052 0 .063.035c.19.585.505 1.228 1.09 1.228 0 0 .029 0 0 .035-.654.146-1.061-.708-1.153-1.298Z"/>
  <path fill="#263238" d="M162.255 41.724c.889-.415 1.641 1.432.815 1.812-.826.38-1.561-1.461-.815-1.812Zm-3.477 2.181s-.029.047 0 .07c.246.585.442 1.251 0 1.655.574-.322.298-1.228 0-1.725Z"/>
  <path fill="#263238" d="M158.009 43.519c-.93.31-.253 2.187.608 1.894.861-.292.161-2.151-.608-1.894Zm4.504-3.286a7.278 7.278 0 0 1-.803.064 1.251 1.251 0 0 1-.826-.088.431.431 0 0 1-.15-.497c.092-.16.223-.294.381-.386.158-.093.338-.14.52-.14.372-.055.75.032 1.062.246a.45.45 0 0 1 .163.461.446.446 0 0 1-.347.34Zm-5.83 2.029a6.51 6.51 0 0 0 .643-.492c.247-.192.459-.315.574-.63a.421.421 0 0 0-.218-.462.992.992 0 0 0-1.016.216c-.313.209-.538.53-.631.9a.452.452 0 0 0 .181.44.434.434 0 0 0 .467.028Zm6.8 3.572c-.052.286-.16.558-.319.8a2.103 2.103 0 0 1-.605.603c-.207.14-.433.248-.671.322l-.138.035-.132.035a.154.154 0 0 1-.166-.082v-.111a16.347 16.347 0 0 1-.419-1.122c-.126.146-.781.853-.861.62a32.078 32.078 0 0 1-1.647-6.198.059.059 0 0 1 .055-.04c.012 0 .024.003.033.01a.06.06 0 0 1 .021.03c.706 1.847 1.09 3.812 1.773 5.677.232-.255.496-.477.786-.66.069 0 .419 1.338.523 1.525.368-.112.71-.3 1.005-.55.296-.25.539-.558.716-.906 0-.07.063-.046.046.012Z"/>
  <path fill="#263238" d="M170.357 41.823c-1.652.31-3.012-3.771-3.012-3.771s-2.221-.094-4.046-3.602c0 0-.166 4.093-7.017 5.514a6.168 6.168 0 0 1-.649-3.66 25.912 25.912 0 0 0-.493 4.174s-3.38-5.051.66-8.589c1.606-1.403 4.487-2.192 9.485-1.467 0 0 0-2.924.574-2.72.573.205.441 2.924.441 2.924s1.693-1.228 2.141-.93c.447.299-1.274 1.345-1.274 1.345a3.897 3.897 0 0 1 2.54 1.036 4.038 4.038 0 0 1 1.264 2.473c.574 3.303.207 7.121-.614 7.273Z"/>
  <path fill="#263238" d="M166.639 31.193a3.535 3.535 0 0 1 2.543.024 3.623 3.623 0 0 1 1.892 1.73c.405.957.59 1.995.54 3.035a13.164 13.164 0 0 1-.511 3.204c0 .059-.103 0-.086-.035.242-.954.338-1.94.287-2.923a9.344 9.344 0 0 0-.442-2.813 3.488 3.488 0 0 0-1.691-1.893 3.385 3.385 0 0 0-2.503-.217c-.052.005-.081-.088-.029-.112Zm-7.374-1.49a13.613 13.613 0 0 1 3.615.128 9.95 9.95 0 0 1 3.288 1c.052 0 0 .111-.034.088a18.042 18.042 0 0 0-6.519-.743c-2.031.082-4.223.819-5.164 2.83 0 .035-.063 0-.051 0 .763-2.076 2.869-3.076 4.865-3.303Z"/>
  <path fill="#EB9481" d="M168.802 41.075s.574-3.508 2.031-3.444c1.458.064 1.94 4.555.815 5.753a1.553 1.553 0 0 1-1.085.566 1.532 1.532 0 0 1-1.153-.402l-.608-2.473Z"/>
  <path fill="#263238" d="M170.931 38.947s.04 0 .029.035c-.775.877-.85 2.034-.752 3.151a.882.882 0 0 1 .348-.639.841.841 0 0 1 .702-.144c.034 0 .029.058 0 .064a.96.96 0 0 0-.521.257.99.99 0 0 0-.282.515 4.844 4.844 0 0 0-.081 1.005c0 .111-.183.14-.195 0-.625-1.274-.499-3.496.752-4.245Z"/>
  <path fill="#EB9481" d="M181.81 56.955c2.91 10.384 4.757 29.942 3.282 33.497-1.308 3.146-11.137 10.455-16.789 14.36-1.842 1.275-10.759-13.085-8.722-14.336 2.777-1.696 12.733-8.403 12.974-9.127.241-.725 1.147-15.425 2.679-23.85 1.378-7.636 5.48-4.473 6.576-.544Z"/>
  <path fill="#EB9481" d="M140.772 107.408c1.394 1.45 4.59-2.338 4.59-2.338a3.816 3.816 0 0 0 .339 2.52c.769 1.327 3.144.684 3.144.684.001.925.272 1.829.781 2.596.86 1.169 3.351.894 3.351.894a3.981 3.981 0 0 0 2.094 1.842c2.421.807 5.239-1.965 7.316-3.333a30.063 30.063 0 0 0 6.432-6.151l-8.32-13.88s-11.843 3.005-13.834 5.21c-1.705 1.853-8.016 9.746-5.893 11.956Z"/>
  <path fill="#263238" d="M145.368 105.017c1.314-2.403 3.196-4.491 5.026-6.478.041-.041.109 0 .069.064-1.847 1.959-3.225 4.467-4.992 6.496a.073.073 0 0 1-.041.012.076.076 0 0 1-.04-.015.072.072 0 0 1-.023-.036.07.07 0 0 1 .001-.043Zm3.408 3.046a6.879 6.879 0 0 1 1.234-1.391c.471-.462.953-.918 1.434-1.363a76.813 76.813 0 0 1 2.984-2.602c.046-.035.109 0 .063.065-.964.894-1.916 1.801-2.869 2.73-.464.468-.929.936-1.388 1.409a8.636 8.636 0 0 1-1.354 1.281.105.105 0 0 1-.05-.003.094.094 0 0 1-.06-.076.095.095 0 0 1 .006-.05Zm4.264 3.649a5.005 5.005 0 0 1 1.176-1.17l1.348-1.169c.896-.807 1.785-1.614 2.651-2.444a.052.052 0 0 1 .033-.016c.012 0 .024.004.033.013.01.008.015.02.016.033a.047.047 0 0 1-.013.034c-.878.854-1.721 1.719-2.622 2.567-.43.415-.866.824-1.308 1.234a4.596 4.596 0 0 1-1.28 1.017s-.034-.076-.034-.099Z"/>
  <path fill="#90CAF9" d="m186.998 80.927-15.82.2s2.031-17.77 4.217-25.505c1.836-6.502 5.658-5.905 7.758 2.49 1.985 7.94 3.845 22.815 3.845 22.815Z"/>
  <path fill="#263238" d="m186.711 78.706-.052-.088a5.212 5.212 0 0 1-1.062-3.245c0-.368.046-1.035.477-1.17.246 1.79.476 3.333.637 4.503Zm-12.309-14.822a6.159 6.159 0 0 1 2.124-2.626c.482-.38 1.4-1.169 1.761-.233a1.78 1.78 0 0 1-.069 1.11 6.018 6.018 0 0 1-.947 1.86c-.499.701-1.342 1.637-2.295 1.526-.952-.111-.815-.96-.574-1.626v-.011Zm5.629-4.912a5.949 5.949 0 0 1 1.148-3.461c.373-.439.826-.585 1.194-.333.367.251.573.9.677 1.391a6.375 6.375 0 0 1-.436 3.508c-.304.69-.85 1.655-1.722 1.497-1.142-.175-.924-1.766-.883-2.59l.022-.012Zm-4.458.714c-.522-.375-.103-1.93.316-2.678.539-.96 1.463-2.058 2.295-1.708.424.176.545 1.31-.287 2.795-.757 1.386-1.905 1.9-2.324 1.602v-.011Zm-.935 16.5c-.086.426-.322 1.204-.804 1.362-.482.158-.682-.322-.769-.69a5.504 5.504 0 0 1-.126-1.754c.035-.79.293-1.526.964-1.754 1.331-.41.855 2.292.735 2.847v-.011Zm-1.349 1.584a24.02 24.02 0 0 1 3.03-.234c1.044-.058 2.089-.076 3.133-.1 1.044-.023 5.199.048 6.237.065.046 0 .04.082 0 .088-1.044.059-5.193.299-6.214.316-1.021.018-2.043.047-3.064.03a26.12 26.12 0 0 1-3.11-.112s-.04-.047-.012-.052Z"/>
  <path fill="#263238" d="M183.813 61.019a143.14 143.14 0 0 1 1.038 4.935c.322 1.648.614 3.309.907 4.964.293 1.654.539 3.315.78 4.981a59.6 59.6 0 0 1 .316 2.503c.092.836.184 1.678.207 2.525v.07h-.069l-1.595-.046 1.589-.088-.063.07c-.189-1.666-.476-3.32-.752-4.975l-.826-4.97c-.258-1.66-.574-3.316-.803-4.976-.23-1.66-.517-3.321-.729-4.993Z"/>
  <path fill="#263238" d="M184.525 61.907c.137.5.207 1.015.207 1.532a5.12 5.12 0 0 1-.207 1.532 13.752 13.752 0 0 1-.081-1.532 10.6 10.6 0 0 1 .081-1.532Z"/>
  <path fill="#90CAF9" d="M33.809 202.48s9.812-2.269 15.188-7.315c5.377-5.046 8.384-14.097 8.384-14.097a83.528 83.528 0 0 0-11.006 2.924 18.986 18.986 0 0 0-3.328 4.794 23.516 23.516 0 0 1 0-3.426 14.676 14.676 0 0 0-3.494 2.163c-4.488 4.029-5.744 14.957-5.744 14.957Z"/>
  <path fill="#263238" d="M51.252 185.465c1.337-.941 2.697-1.853 4.017-2.801a.078.078 0 0 0 .026-.108.076.076 0 0 0-.048-.035.075.075 0 0 0-.058.009 131.095 131.095 0 0 0-7.46 4.905c-.843.585-1.664 1.222-2.484 1.86l.172-.293c.292-.502.608-.994.918-1.491a20.713 20.713 0 0 1 2.083-2.829c.029-.036 0-.082-.052-.047-.763.894-1.526 1.783-2.22 2.736a20.52 20.52 0 0 0-.936 1.403c-.149.246-.298.497-.442.755l-.143.257a58.718 58.718 0 0 0-3.684 3.192 43.217 43.217 0 0 0-2.106 2.146c.379-1.21.706-2.432 1.148-3.625 0-.041-.052-.058-.063 0-.43 1.251-.895 2.508-1.228 3.789-.765.83-1.48 1.69-2.146 2.578l.034-.163c.115-.468.23-.942.35-1.409.241-.901.5-1.801.803-2.69a15.7 15.7 0 0 1 2.634-5.069c.029-.035 0-.082-.051-.047a19.626 19.626 0 0 0-3.753 7.993c-.11.426-.207.853-.304 1.28-.046.228-.11.462-.144.696-.298.403-.573.818-.866 1.239a43.678 43.678 0 0 0-4.154 8.297 99.17 99.17 0 0 0-3.145 9.993c0 .064.08.087.103 0 1.917-5.847 3.88-11.782 7.162-17.015a38.494 38.494 0 0 1 2.243-3.192 18.226 18.226 0 0 0 4.837-.965 21.004 21.004 0 0 0 4.786-2.339 30.521 30.521 0 0 0 2.45-1.888.037.037 0 0 0 .011-.025.035.035 0 0 0-.032-.037.038.038 0 0 0-.025.009 19.334 19.334 0 0 1-4.493 2.771 24.307 24.307 0 0 1-4.952 1.696c-.723.158-1.457.281-2.192.38.9-1.139 1.858-2.23 2.87-3.268.332-.334.67-.655 1.015-.983a22.613 22.613 0 0 1 3.626-2.116c1.607-.795 3.19-1.632 4.78-2.456.901-.468 1.79-.941 2.697-1.392.035 0 0-.076-.034-.058-1.613.795-3.254 1.532-4.883 2.292-1.527.719-3.082 1.438-4.55 2.274l-.184.117a77.649 77.649 0 0 1 4.114-3.385 84.75 84.75 0 0 1 3.953-2.941Z"/>
  <path fill="#263238" d="M50.696 190.622c-.798.357-1.613.672-2.404 1.047-.792.374-1.578.842-2.353 1.303-.035 0 0 .071.034.053.78-.38 1.573-.737 2.347-1.134.775-.398 1.578-.842 2.393-1.205.04-.017.023-.082-.017-.064Z"/>
  <path fill="#90CAF9" d="M1.934 152.096a14.463 14.463 0 0 1 2.932 8.303c0 .895-.11 2.146-.212 3.614a23.406 23.406 0 0 1 6.403 5.578 11.379 11.379 0 0 0-6.467-1.579c.049 1.004.173 2.003.373 2.988a10.82 10.82 0 0 1 4.16.836 9.202 9.202 0 0 0-3.752.76c1.75 5.671 6.949 11.495 21.305 13.968a31.194 31.194 0 0 0-2.542-20.581c-4.303-8.624-22.2-13.887-22.2-13.887Z"/>
  <path fill="#263238" d="M31.645 210.847a161.107 161.107 0 0 0-.93-7.245 145.988 145.988 0 0 0-2.868-14.319 57.34 57.34 0 0 0-2.072-6.525c.042-.388.061-.779.058-1.169v-1.404c0-.935-.058-1.871-.132-2.806a34.118 34.118 0 0 0-.884-5.485c-.264-1.04-.574-2.07-.866-3.099a.037.037 0 0 0-.013-.015.032.032 0 0 0-.038 0 .037.037 0 0 0-.012.015c.475 1.8.827 3.63 1.055 5.479.258 1.82.42 3.653.488 5.49v2.152a47.371 47.371 0 0 0-2.416-5.099 62.097 62.097 0 0 0-4.929-7.484 3.512 3.512 0 0 0-.12-.812l-.207-.983a48.566 48.566 0 0 0-.493-1.994c-.356-1.327-.826-2.607-1.234-3.917 0-.041-.074 0-.063 0 .379 1.292.631 2.637.924 3.958.143.649.281 1.304.424 1.959.07.322.138.649.201.977v.076a44.921 44.921 0 0 0-1.779-2.211c-2.742-3.274-5.738-6.297-8.773-9.296a52.893 52.893 0 0 0-1.148-1.094c-.028-.029-.074 0-.045.053 2.869 3.076 5.738 6.18 8.434 9.437.643.772 1.269 1.555 1.888 2.339l-.975-.661a44.809 44.809 0 0 0-2.554-1.596c-.872-.497-1.721-.982-2.645-1.433-.924-.45-1.905-.842-2.794-1.374-.035 0-.07.047-.029.065a20.25 20.25 0 0 1 2.617 1.479c.877.526 1.721 1.058 2.605 1.614.883.555 1.692 1.081 2.53 1.637.7.462 1.389.965 2.112 1.391a68.908 68.908 0 0 1 4.59 6.824 51.049 51.049 0 0 1 2.381 4.595l-.516-.228-1.314-.584-2.542-1.129c-1.607-.713-3.242-1.368-4.826-2.151a21.236 21.236 0 0 1-2.576-1.462c-.034 0-.063.035 0 .064 2.944 2.064 6.243 3.508 9.502 4.994l1.412.631c.384.175.774.374 1.147.526a52.455 52.455 0 0 1 2.428 6.777 140.088 140.088 0 0 1 3.121 14.155c.826 4.777 1.383 9.589 1.813 14.419.052.585.104 1.204.172 1.807a.197.197 0 0 0 .065.114.188.188 0 0 0 .308-.114c.018-2.462-.23-4.918-.482-7.338Z"/>
  <path fill="#263238" d="M22.912 170.433c-.264-1.491-.654-2.924-1.044-4.403 0-.041-.075 0-.063 0 .361 1.426.62 2.882.883 4.338.264 1.456.505 2.959.712 4.45h.04a40.5 40.5 0 0 0-.528-4.385Zm-6.185 4.028a25.915 25.915 0 0 0-3.122-1.789 98.047 98.047 0 0 0-1.584-.801c-.528-.263-1.147-.491-1.658-.772a.033.033 0 0 0-.027-.003.036.036 0 0 0-.022.018.037.037 0 0 0-.003.028.034.034 0 0 0 .018.021c.527.264 1.027.585 1.543.877.517.293 1.056.585 1.59.889 1.05.585 2.082 1.21 3.184 1.678.01.006.02.009.03.01a.08.08 0 0 0 .06-.017.085.085 0 0 0-.01-.139Z"/>
  <path fill="#263238" d="M33.986 185.161s9.078-2.21 13.25-8.414c3.976-5.929 5.267-16.032 5.365-16.921-.16.813-2.037 9.648-8.217 13.758-4.734 3.152-9.307 5.742-10.398 11.577Z" opacity=".1"/>
  <path fill="#263238" d="M42.364 169.175a11.883 11.883 0 0 0-3.345 5.619c0 .03 0 0 0 0a13.84 13.84 0 0 1 3.362-5.578c.058-.017.012-.07-.017-.041Z"/>
  <path fill="#90CAF9" d="M33.986 185.161s9.078-2.21 13.25-8.414c3.976-5.929 5.267-16.032 5.365-16.921a.264.264 0 0 0 0-.064s-4.35 6.309-8.929 7.917c-4.579 1.608-11 7.174-9.685 17.482Z"/>
  <path fill="#263238" d="M51.006 163.241a38.427 38.427 0 0 1-2.806 4.894 19.448 19.448 0 0 1-3.736 3.911c-1.233 1-2.536 1.906-3.787 2.883a.335.335 0 0 0 0-.047c.233-.351.48-.696.74-1.035a31.861 31.861 0 0 1 1.664-1.947c1.148-1.245 2.296-2.467 3.288-3.818a13.875 13.875 0 0 0 1.458-2.391c0-.041-.046-.059-.063 0-1.475 3.128-4.413 5.127-6.513 7.77-.3.374-.58.764-.838 1.17a4.51 4.51 0 0 0-.522.941 19.194 19.194 0 0 0-3.099 3.187c.08-.607.2-1.206.362-1.795a9.269 9.269 0 0 1 .964-2.339c0-.035-.035-.07-.058-.035a11.17 11.17 0 0 0-1.055 2.338 8.527 8.527 0 0 0-.333 2c-.447.62-.855 1.269-1.222 1.941.034-.198.074-.391.109-.584.183-.924.384-1.842.614-2.754a16.57 16.57 0 0 1 2.194-5.223.038.038 0 0 0 .002-.016.041.041 0 0 0-.006-.015.043.043 0 0 0-.01-.011.037.037 0 0 0-.016-.004.027.027 0 0 0-.015.002.05.05 0 0 0-.013.008 19.727 19.727 0 0 0-2.423 5.113 30.51 30.51 0 0 0-.729 2.759c-.097.456-.19.912-.275 1.374-.04.234-.092.474-.132.72a34.202 34.202 0 0 0-2.095 6.273 93.734 93.734 0 0 0-1.933 11.694 98.746 98.746 0 0 0-.603 12.396c0 .52.04 1.04.063 1.555 0 .134.207.158.213 0 .091-2.052.143-4.093.264-6.163.12-2.07.292-4.093.504-6.145a112.25 112.25 0 0 1 1.894-11.963c.734-3.379 1.693-6.782 3.506-9.747a18.193 18.193 0 0 1 3.276-3.97c1.274-1.169 2.663-2.186 4.017-3.262a22.311 22.311 0 0 0 3.678-3.602 29.32 29.32 0 0 0 2.87-4.777c.211-.421.435-.836.653-1.251.023-.035-.034-.07-.051-.035Z"/>
  <path fill="#263238" d="M49.44 164.597a32.152 32.152 0 0 1-2.026 3.608s0 .052.04.029a25.639 25.639 0 0 0 2.048-3.613c.017-.041-.046-.059-.063-.024Z"/>
  <path fill="#90CAF9" d="M.666 181.068s-.144 13.15 7.574 16.956c7.717 3.807 11.849.632 17.093 1.906-.206-.315-3.947-5.794-9.898-7.303-6.128-1.572-12.91-6.08-14.77-11.559Z"/>
  <path fill="#000" d="M.666 181.068s-.144 13.15 7.574 16.956c7.717 3.807 11.849.632 17.093 1.906a28.74 28.74 0 0 0-8.773-2.637c-4.872-.614-14.167-3.847-15.894-16.225Z" opacity=".1"/>
  <path fill="#263238" d="M25.838 200.153a12.757 12.757 0 0 0-3.052-2.117c-.167-.082-.333-.146-.505-.222a3.051 3.051 0 0 0-.258-.298c-.23-.246-.47-.486-.723-.708a11.447 11.447 0 0 0-1.573-1.163c-1.273-.766-2.674-1.298-3.982-2.012-.04 0-.074.041-.034.059.648.345 1.274.719 1.9 1.093.624.374 1.238.713 1.83 1.105.536.351 1.046.742 1.526 1.169.138.123.27.252.402.386a20.5 20.5 0 0 0-2.6-.69c-1.411-.286-2.869-.497-4.252-.801a20.466 20.466 0 0 1-2.042-.584c-.643-.526-1.28-1.047-1.888-1.62a15.357 15.357 0 0 1-2.003-2.198c0-.035-.086 0-.057.035a23.972 23.972 0 0 0 3.161 3.555 16.039 16.039 0 0 1-7.563-5.988c0-.035-.08 0-.057.036a18.347 18.347 0 0 0 5.32 5.203 16.077 16.077 0 0 0 3.362 1.62c1.368.432 2.764.768 4.177 1.006 1.383.224 2.748.546 4.086.964a12.288 12.288 0 0 1 3.443 1.842 16.327 16.327 0 0 1 4.59 5.847 29.735 29.735 0 0 1 2.548 9.612c0 .141.23.141.218 0-.345-5.542-1.79-11.296-5.974-15.131Z"/>
  <path fill="#263238" d="M16.887 195.867a4.435 4.435 0 0 0-1.56-1.468 5.715 5.715 0 0 1-1.883-1.59c-.028-.035-.086 0-.057.035a6.305 6.305 0 0 0 1.664 1.52c.7.379 1.318.901 1.813 1.532-.006.029.04 0 .023-.029Z"/>
  <path fill="#455A64" d="m20.978 209.858.35 7.227 1.08 22.09h16.18l1.08-22.09.35-7.227h-19.04Z"/>
  <path fill="#263238" d="m20.978 209.858.35 7.227h18.34l.35-7.227h-19.04Z"/>
  <path fill="#455A64" d="M19.848 213.735h21.305v-6.899H19.848v6.899Z"/>
</svg>
