<svg xmlns="http://www.w3.org/2000/svg" width="254" height="240" fill="none" viewBox="0 0 254 240">
  <path fill="#EBEBEB" d="M202.338 235.11c7.38-2.7 11.059-10.575 8.217-17.588-2.842-7.013-11.127-10.51-18.507-7.809-7.379 2.701-11.058 10.575-8.216 17.588 2.841 7.014 11.127 10.51 18.506 7.809ZM55.797 36.579c7.908 0 14.318-6.092 14.318-13.608 0-7.515-6.41-13.607-14.318-13.607-7.908 0-14.318 6.092-14.318 13.607 0 7.516 6.41 13.608 14.318 13.608Zm-42.76 83.502c.542-3.164-1.717-6.146-5.046-6.661-3.329-.516-6.467 1.632-7.01 4.795-.541 3.164 1.718 6.147 5.047 6.662 3.329.515 6.467-1.632 7.009-4.796Zm234.856 5.702c3.373 0 6.107-2.598 6.107-5.804 0-3.205-2.734-5.804-6.107-5.804s-6.107 2.599-6.107 5.804c0 3.206 2.734 5.804 6.107 5.804Z"/>
  <path fill="#EBEBEB" d="m10.415 119.426-.02 1.111 88.787 1.488.02-1.111-88.787-1.488Zm120.044 4.012-.981.603 67.201 98.722.981-.603-67.201-98.722ZM56.324 22.723l-1.045.499 43.752 82.674 1.045-.499-43.752-82.674Zm191.569 96.701H136.58v1.11h111.313v-1.11Zm2.443-32.231-2.075 1.955-1.169 1.111c-5.569-5.137-12.196-7.876-19.963-7.881-7.767-.006-14.394 2.733-20.005 7.903-.368-.366-.736-.744-1.116-1.11-.678-.656-1.36-1.308-2.045-1.956a.141.141 0 0 0-.065-.033v-.05l.152-.116c.877-.74 1.724-1.5 2.624-2.222 4.095-3.139 8.934-5.282 14.096-6.243 1.327-.228 2.677-.35 4.015-.505.456-.056 3.425-.061 3.507-.056.911.067 1.829.1 2.741.195 2.518.27 4.992.83 7.369 1.666a33.346 33.346 0 0 1 4.985 2.222 30.84 30.84 0 0 1 4.757 3.165c.748.606 1.461 1.244 2.192 1.872v.083Z"/>
  <path fill="#EBEBEB" d="m213.699 96.458-3.261-3.088c3.582-3.462 8.27-5.698 13.33-6.36 7.75-.994 14.406 1.244 20.046 6.32l-3.291 3.11c-3.555-3.376-8.376-5.272-13.403-5.272-5.027 0-9.848 1.896-13.403 5.273l-.018.017Z"/>
  <path fill="#EBEBEB" d="m237.233 99.568-3.261 3.093a9.738 9.738 0 0 0-3.148-2.008 10.121 10.121 0 0 0-3.719-.706c-1.276 0-2.54.24-3.718.706a9.717 9.717 0 0 0-3.148 2.008l-3.256-3.093a14.299 14.299 0 0 1 4.639-2.974 14.884 14.884 0 0 1 5.486-1.045c1.884 0 3.749.355 5.487 1.045 1.737.69 3.314 1.7 4.638 2.974Zm-7.182 5.909c0 .549-.172 1.086-.493 1.543a2.89 2.89 0 0 1-1.311 1.023 3.067 3.067 0 0 1-1.688.158 2.977 2.977 0 0 1-1.497-.76 2.733 2.733 0 0 1-.799-1.422 2.646 2.646 0 0 1 .166-1.604 2.812 2.812 0 0 1 1.076-1.247 3.036 3.036 0 0 1 1.624-.468 3 3 0 0 1 2.066.814c.548.52.856 1.227.856 1.963ZM6.479 154.092a4.785 4.785 0 0 0 1.381 3.349 5.284 5.284 0 0 0 3.41 1.561h29.326a6.258 6.258 0 0 0 4.232-1.578c1.143-1.026 1.824-2.433 1.9-3.925a5.608 5.608 0 0 0-1.494-4.081c-1.034-1.126-2.487-1.827-4.053-1.957-.074-2.261-.974-4.428-2.546-6.127-1.571-1.7-3.716-2.826-6.066-3.187a10.702 10.702 0 0 0-6.813 1.21c-2.054 1.144-3.626 2.93-4.445 5.055a6.243 6.243 0 0 0-2.724-.611 6.26 6.26 0 0 0-4.167 1.569c-1.128 1.009-1.81 2.388-1.905 3.857a5.419 5.419 0 0 0-2.831.304 5.195 5.195 0 0 0-1.687 1.069 4.912 4.912 0 0 0-1.126 1.602 4.708 4.708 0 0 0-.392 1.89ZM123.881 15.18c2.25 0 4.073-1.734 4.073-3.872s-1.823-3.871-4.073-3.871c-2.25 0-4.073 1.733-4.073 3.871s1.823 3.871 4.073 3.871Zm-10.63 4.71c0 .768-.24 1.52-.69 2.16a4.049 4.049 0 0 1-1.836 1.431 4.288 4.288 0 0 1-2.363.221 4.16 4.16 0 0 1-2.095-1.064 3.835 3.835 0 0 1-1.12-1.99 3.72 3.72 0 0 1 .233-2.247c.31-.71.834-1.317 1.507-1.745a4.246 4.246 0 0 1 2.273-.655 4.2 4.2 0 0 1 2.892 1.139 3.79 3.79 0 0 1 1.199 2.75Zm14.703 8.586c0 .769-.24 1.52-.689 2.16a4.059 4.059 0 0 1-1.836 1.432 4.292 4.292 0 0 1-2.364.22 4.161 4.161 0 0 1-2.094-1.063 3.835 3.835 0 0 1-1.12-1.99 3.705 3.705 0 0 1 .233-2.247 3.933 3.933 0 0 1 1.507-1.745 4.24 4.24 0 0 1 2.272-.655c1.085 0 2.126.41 2.893 1.139a3.793 3.793 0 0 1 1.198 2.749Z"/>
  <path fill="#EBEBEB" d="m123.565 29.38-15.487-9.502 15.499-9.048.614.95-13.921 8.12 13.932 8.548-.637.933ZM150.6 209.883c-7.042 0-12.752 4.01-12.752 8.948a6.782 6.782 0 0 0 1.269 3.888l-1.73 3.654 4.394-1.066a15.863 15.863 0 0 0 8.796 2.477c7.042 0 12.746-4.005 12.746-8.953 0-4.949-5.681-8.948-12.723-8.948Zm-5.914 10.208a1.368 1.368 0 0 1-.739-.209 1.284 1.284 0 0 1-.491-.565 1.21 1.21 0 0 1 .284-1.376 1.383 1.383 0 0 1 1.446-.276c.243.096.451.257.597.465.146.207.224.451.224.701 0 .333-.139.653-.387.889-.247.237-.583.37-.934.371Zm5.914 0a1.367 1.367 0 0 1-.738-.209 1.286 1.286 0 0 1-.492-.565 1.201 1.201 0 0 1-.077-.729c.05-.245.176-.47.361-.647a1.387 1.387 0 0 1 1.447-.276c.242.096.45.257.596.465a1.215 1.215 0 0 1-.161 1.592 1.371 1.371 0 0 1-.936.369Zm5.909 0a1.368 1.368 0 0 1-.739-.209 1.278 1.278 0 0 1-.491-.565 1.202 1.202 0 0 1-.078-.729c.05-.245.176-.47.362-.647a1.385 1.385 0 0 1 1.446-.276c.243.096.45.257.596.465a1.215 1.215 0 0 1-.162 1.59c-.248.237-.584.37-.934.371Z"/>
  <path fill="#455A64" d="M220.958 121.74c.024 18.761-6.229 37.045-17.854 52.208-9.401 12.306-21.967 22.113-36.496 28.483-14.529 6.371-30.535 9.091-46.487 7.902-15.952-1.19-31.315-6.25-44.62-14.697-13.307-8.446-24.109-19.996-31.375-33.545-7.265-13.548-10.75-28.642-10.123-43.837.628-15.195 5.348-29.983 13.709-42.949 8.36-12.965 20.082-23.675 34.044-31.104 13.961-7.43 29.695-11.329 45.696-11.327 2.563 0 5.096.099 7.597.295 14.485 1.103 28.496 5.417 40.909 12.597 9.577 5.54 18.032 12.665 24.966 21.038 12.99 15.649 20.048 35.004 20.034 54.936Z"/>
  <g opacity=".2">
    <path fill="#000" d="M147.637 163.673c-1.169 2.988.789 3.11.918 4.354.128 1.244 0 3.61-3.799 7.221-3.799 3.61-10.081 2.86-11.39 4.354-1.309 1.494-3.536 7.837-6.674 9.953-3.138 2.116-3.67.872-8.118 1.744-4.447.872-7.86 6.348-9.169 8.959-1.309 2.61.263 6.97-2.881 7.092-3.144.122-4.582-6.348-7.463-9.831-2.881-3.482-3.793-6.592-4.71-10.702-.918-4.11.52-12.691 0-16.052-.52-3.36-9.935-9.33-13.354-13.435-3.419-4.104-8.118-12.319-7.86-15.04.401-2.657 1.795-5.088 3.927-6.849 1.572-1.11.917-1.738 1.169-2.732.25-.994 1.572-1.244 1.835-2.494.263-1.25-.79-4.999-2.098-5.598-1.31-.6-2.227 1.494-3.01 1.11-.783-.383-3.144-2.988-4.062-3.238-.917-.25-.654 1.622-1.963-.744-1.31-2.366-1.964-8.331-3.01-9.331-1.046-.999-1.835 1.739-4.319 0-2.484-1.738-3.506-5.104-4.582-5.598-1.075-.495-2.49.122-3.565-1.872-1.075-1.994.947-5.599 0-5.226-.946.372-2.986 3.238-3.506.5-.52-2.739 2.618-11.947 2.092-16.924-.526-4.976 1.31-10.203 4.98-14.44 0 0 .52-2.739 1.045-4.477.526-1.738 11.782-8.714 13.091-10.703.55-.833.73-2.138.924-3.538 16.035-11.239 35.442-17.29 55.367-17.262 2.563 0 5.096.098 7.597.295l.263.333c1.134 1.366 2.338 2.222 5.675 3.4 3.337 1.176 4.09 2.654 3.407 3.887-.684 1.233-1.835 1.494-3.144 1.577-1.309.084-2.531-.555-3.928.25-1.396.806-2.793 5.304-4.628 5.554s-5.061-3.982-5.762-5.226c-.702-1.244 1.572-3.888.502-5.143-1.069-1.255-2.922-.994-5.914-1.244-2.992-.25-9.859.833-9.596 1.91.263 1.078 10.122-.166 10.385 1.989.263 2.155-7.247 5.81-8.556 5.476-1.309-.333-3.056-2.488-4.973-2.738-1.917-.25-3.507 1.244-4.676 1.41-1.168.167-2.635-1.243-4.464-.91-1.83.333-2.274 1.821-3.232 2.405-.959.583-3.232.555-3.507 1.905-.274 1.35 2.882 2.077 3.67 2.904.79.828-.964 3.65-.175 4.233.789.583 5.675-3.488 6.896-4.483 1.222-.994 2.268-5.304 4.886-5.226 2.618.078 3.506 4.316 4.365 4.732.859.417 2.794-1 5.675-.416 2.881.583 4.886 6.553 5.412 8.38.526 1.828 1.753 3.65.695 4.394-1.058.744-5.756-.494-6.37-1.666-.614-1.172 3.144-2.905 2.881-3.333-.263-.427-2.443-.994-3.576-.344-1.134.65-1.66 2.005-2.882 2.338-1.221.333-4.453-3.155-5.324-2.16-.87.994.871 4.149 1.754 4.893.882.744 4.091 1.16 4.365 1.994.275.833-2.18 2.655-5.148 2.488-2.969-.167-5.412-2.327-6.552-1.41-1.139.916-.52 3.332-1.309 4.148-.789.817-5.06.25-7.153 2.405-2.092 2.155-3.056 5.393-5.154 7.22-2.099 1.828-3.051-.494-5.845 2.078-2.793 2.571-3.237 8.353-3.313 10.33-.076 1.977 0 3.566-.696 3.333-.695-.234-1.642-1.978-1.934-3.088-.292-1.111.614-2.905.614-3.566s-4.015-4.071-6.376-4.399c-2.361-.328-4.448 1.494-6.195 2.816-1.747 1.322-4.886 1.083-6.02 2.16-1.133 1.078-2.01 10.62-1.168 12.858.841 2.238 2.01 2.222 4.803 1.078 2.794-1.144 1.222-3.4 2.882-2.905a3.895 3.895 0 0 1 1.838 1.368c.452.623.694 1.363.692 2.12 0 1.327-3.32 4.476-2.881 5.393.438.916 3.314-.167 4.71.244 1.397.411 2.098 1.244 1.66 4.649-.438 3.405-.175 6.054 1.923 7.176 2.098 1.122 3.272-1.616 4.19-1.244.918.372 2.227 2.36 3.536 2.221 1.309-.139.654-1.244 3.138-1.988s1.572-1.244 2.098-2.738c.526-1.494 2.092-2.738 3.799-1.994 1.706.744.52 1.866.654 3.11.135 1.244 3.139 1.372 5.5 2.116 2.36.745 3.664 0 8.374 1.494 4.711 1.494 4.979 5.971 6.943 6.721 1.964.75 8.509-.5 13.225 2.738 4.716 3.238 3.401 9.209 5.757 10.947 2.355 1.738 11.133 4.11 14.534 4.732 3.401.622 3.927-1.622 6.68-1 2.752.622 4.319 1.372 5.259 4.999.813 3.177-9.42 9.831-10.601 12.819Z"/>
    <path fill="#000" d="M77.286 100.045c.087.706 2.267.995 4.885 2.405 2.618 1.411 3.583 5.554 4.98 5.477 1.396-.078.958-1.989 1.478-2.489.52-.499 1.397-1.577 0-2.654-1.397-1.078-2.753-3.4-5.3-3.733-2.548-.333-2.987-1.327-4.126-1.244-.29.002-.577.065-.838.184a1.97 1.97 0 0 0-.675.506 1.839 1.839 0 0 0-.385.731 1.78 1.78 0 0 0-.02.817Zm14.4 6.971c-.386 1.016 0 1.744 2.793 2.405 2.794.661 5.412-.661 4.541-1.205-.87-.545-2.186-.289-1.66-1.2s.345-2.222-1.922-1.994c-2.268.228-3.402 1.083-3.752 1.994Zm9.777.283c-.953.128-1.484 1.705-.526 2.705s.964.828 2.098 0 2.881-1.244 2.443-2.077c-.439-.833-3.057-.761-4.015-.628Zm7.597 3.388c.427-1.244 2.618 0 3.577 1.305.958 1.306.526 3.238 0 4.644-.526 1.405-.871 3.071-2.098 2.41-1.228-.661.087-2.655-.082-3.816-.17-1.16-1.747-3.526-1.397-4.543Zm37.619-69.209c-.456 1.044 1.659 1.41 2.881 2.077 1.221.667 2.18 1.078 2.881 0 .701-1.077-.263-2.322-1.221-2.571-.959-.25-4.103-.5-4.541.494Zm16.498 9.725c.806.805 2.179.661 3.144 1.822.964 1.16.584 3.154 1.829 3.738 1.245.583 2.098 0 2.186-.834.087-.833-1.754-2.904-1.572-3.332.181-.428 2.53.556 3.056 1.822.526 1.266-.526 2.988.695 3.332 1.222.345.959-1.16 1.485-1.494.526-.333 1.66-.166 1.572-1.16-.088-.995-1.484-3.155-2.618-3.888-1.134-.734-2.011-1.578-3.927-1.994-1.917-.417-3.758-.084-4.717.666-.958.75-1.63.806-1.133 1.322Z"/>
    <path fill="#000" d="M200.941 66.821a1.451 1.451 0 0 1-.491.872c-1.835 1.244-4.02-3.066-6.545-3.888-2.525-.822-3.67-3.888-4.19-3.232-.52.655-.351 1.572-1.169 2.65-.818 1.077-1.917.832-2.443 2.904s2.443 5.893 1.753 7.137c-.689 1.244-1.572.827-2.968.744-1.397-.083-1.134 1.078-2.963.583-1.83-.494-.269-2.655-3.15-5.226-2.881-2.572-3.84-3.072-3.226-4.232.613-1.161-.263-2.822 1.046-2.988 1.309-.167 2.337 1.666 3.232 2.16.894.494 2.004-.994 2.092-2.327.087-1.333-3.057-3.15-4.19-4.177-1.134-1.027-1.222-4.782-.784-5.554.439-.772 1.754-.5 2.093-2.321.204-1.072-1.578-2.866-3.086-4.16 9.587 5.543 18.05 12.674 24.989 21.055Zm13.039 74.358c.257-2.655-1.134-2.821.257-7.714 1.391-4.894-1.461-10.109-2.531-11.17-1.069-1.06-3.313-.744-5.148.334-1.835 1.077-.521 1.905-1.754 2.321-1.233.417-2.443-.25-3.576-.166-1.134.083-2.186 2.821-4.629 2.738-2.443-.084-4.015-3.399-5.844-5.765-1.829-2.366-5.587-3.86-6.808-6.76-1.222-2.899 1.133-7.381.584-10.786-.549-3.404-2.881-2.655-3.313-4.56-.433-1.905.35-1 .958-2.821.608-1.822-.701-2.822.526-5.976 1.227-3.155 3.401-4.727 2.875-6.138-.526-1.41-2.18-3.732-2.267-5.387-.088-1.655 1.659-1.577 4.973-3.888 3.314-2.31 4.19-2.155 6.727-1.327a38.033 38.033 0 0 0 5.581 1.494c1.484.25 3.506 3.888 4.091 3.732.584-.155.701-1.244.964-2.816a3.454 3.454 0 0 1 1.087-1.788c9.849 15.005 14.762 32.461 14.113 50.135-.65 17.674-6.833 34.762-17.76 49.077 8.901-12.896 10.631-30.103 10.894-32.769Z"/>
  </g>
  <path fill="#000" d="M199.878 177.919c-9.975 11.618-22.881 20.649-37.516 26.251-14.635 5.602-30.524 7.594-46.187 5.789-15.664-1.805-30.592-7.347-43.394-16.11-12.803-8.764-23.065-20.463-29.83-34.01-6.764-13.547-9.811-28.5-8.858-43.468.953-14.967 5.876-29.462 14.31-42.135 8.434-12.672 20.106-23.11 33.927-30.343 13.822-7.232 29.344-11.022 45.122-11.019 2.563 0 5.096.099 7.597.295.696.05 1.391.111 2.081.183-13.209 1.375-25.899 5.65-37.069 12.489-11.17 6.839-20.513 16.053-27.29 26.914-6.777 10.862-10.803 23.073-11.759 35.668-.956 12.595 1.184 25.229 6.251 36.902 5.067 11.674 12.921 22.067 22.943 30.358 10.022 8.292 21.935 14.254 34.799 17.416a90.017 90.017 0 0 0 39.32.801c12.995-2.634 25.166-8.105 35.553-15.981Z" opacity=".1"/>
  <path fill="#fff" d="M220.957 121.74c.029 18.763-6.226 37.048-17.859 52.208-8.764 11.458-20.27 20.769-33.569 27.165 11.581-6.298 21.629-14.854 29.484-25.104 9.819-12.834 15.865-27.921 17.517-43.711 1.652-15.79-1.15-31.713-8.117-46.133-6.968-14.42-17.85-26.816-31.528-35.915-13.679-9.1-29.66-14.574-46.301-15.86a99.874 99.874 0 0 0-7.662-.294 98.913 98.913 0 0 0-22.575 2.594 97.973 97.973 0 0 1 27.105-3.816c2.563 0 5.096.099 7.597.295 23.41 1.805 45.247 11.92 61.165 28.331 15.919 16.412 24.753 37.919 24.743 60.24Z" opacity=".3"/>
  <path fill="#fff" d="M210.122 217.192c19.037 0 34.469-14.666 34.469-32.758 0-18.091-15.432-32.758-34.469-32.758-19.036 0-34.468 14.667-34.468 32.758 0 18.092 15.432 32.758 34.468 32.758Z"/>
  <path fill="#65BEDC" d="M210.122 217.47c-6.873-.007-13.591-1.95-19.302-5.584-5.712-3.634-10.162-8.796-12.788-14.833a31.512 31.512 0 0 1-1.963-19.084c1.345-6.406 4.658-12.29 9.521-16.906 4.863-4.617 11.057-7.76 17.799-9.032a36.453 36.453 0 0 1 20.079 1.885c6.349 2.502 11.776 6.736 15.594 12.168 3.818 5.432 5.856 11.818 5.856 18.35-.011 8.764-3.681 17.166-10.206 23.36-6.524 6.194-15.368 9.674-24.59 9.676Zm0-65.538c-6.757.006-13.36 1.916-18.975 5.488-5.615 3.572-9.99 8.646-12.572 14.58a30.985 30.985 0 0 0-1.935 18.761c1.321 6.297 4.576 12.082 9.355 16.622 4.779 4.54 10.866 7.632 17.493 8.885a35.839 35.839 0 0 0 19.74-1.845c6.243-2.456 11.58-6.616 15.337-11.953 3.757-5.338 5.764-11.614 5.769-18.036-.011-8.617-3.62-16.877-10.035-22.967-6.414-6.09-15.11-9.512-24.177-9.513v-.022Z"/>
  <path fill="#65BEDC" d="M210.122 221.991c-7.815-.001-15.455-2.205-21.953-6.332-6.498-4.128-11.562-9.994-14.552-16.856-2.99-6.863-3.772-14.414-2.247-21.699 1.526-7.285 5.29-13.977 10.817-19.228 5.527-5.252 12.568-8.829 20.234-10.277a41.43 41.43 0 0 1 22.831 2.138c7.221 2.843 13.393 7.656 17.735 13.832 4.342 6.176 6.659 13.437 6.659 20.865-.012 9.958-4.181 19.505-11.59 26.546-7.41 7.041-17.456 11-27.934 11.011Zm0-74.003c-7.584.001-14.998 2.14-21.304 6.145-6.305 4.006-11.22 9.698-14.121 16.358-2.902 6.659-3.661 13.987-2.18 21.057 1.48 7.069 5.133 13.563 10.496 18.659 5.364 5.097 12.197 8.567 19.636 9.973a40.207 40.207 0 0 0 22.156-2.075c7.007-2.759 12.996-7.43 17.21-13.423 4.213-5.994 6.462-13.04 6.462-20.248-.012-9.663-4.057-18.927-11.248-25.76-7.19-6.832-16.939-10.675-27.107-10.686Z"/>
  <path fill="#263238" d="M215.885 156.114c.342.127.656.315.923.555 1.216 1.111 1.373 2.777 1.216 4.282-.182 1.594-.76 3.261-.369 4.86a2.669 2.669 0 0 0 1.023 1.611 2.674 2.674 0 0 0 2.122.239c.759-.161 1.618-.517 2.384-.195.301.154.56.373.756.639.196.266.323.573.372.894.35 1.611-.795 3.144-1.122 4.677a7.945 7.945 0 0 0 .526 4.893 8.26 8.26 0 0 0 2.12 2.798 8.795 8.795 0 0 0 3.139 1.729c.854.244 1.754.316 2.619.527.421.07.823.223 1.179.448a3 3 0 0 1 .889.863c.31.555.123 2.921-1.899 5.082-.14.155.158.389.368.283.404-.197.794-.418 1.169-.661a11.353 11.353 0 0 0 3.656-3.888 10.715 10.715 0 0 0 1.393-5.043 11.096 11.096 0 0 0-1.367-5.454 18.285 18.285 0 0 1-1.438-2.849 5.528 5.528 0 0 1-.14-2.744c.316-1.749 1.069-3.41 1.064-5.215a9.413 9.413 0 0 0-1.304-4.604 11.762 11.762 0 0 0-3.442-3.676 12.475 12.475 0 0 0-4.739-1.978c-3.384-.678-11.285 1.855-11.098 1.927Z"/>
  <path fill="#263238" d="M215.99 156.175a4.685 4.685 0 0 1 1.683 1.278 3.58 3.58 0 0 1 .678 1.738c.187 1.388-.24 2.721-.619 4.054-.351 1.245-.661 2.589-.182 3.844.193.547.546 1.03 1.017 1.394.539.368 1.21.518 1.865.416 1.209-.133 2.694-.672 3.722.25 1.029.922.649 2.433.404 3.544-.585 2.716-1.783 6.154.438 8.52a10.899 10.899 0 0 0 4.377 2.527c1.128.389 2.56.872 2.992 2.049 0 .039-.052.056-.07 0-.485-1.238-2.004-1.483-3.179-1.832a11.615 11.615 0 0 1-3.857-1.917c-1.114-.895-1.814-2.169-1.952-3.549-.111-1.416.035-2.84.432-4.21.17-.711.357-1.41.509-2.127a4.325 4.325 0 0 0 .076-1.972 1.553 1.553 0 0 0-.536-.821 1.694 1.694 0 0 0-.943-.362 8.84 8.84 0 0 0-2.121.223 3.465 3.465 0 0 1-1.859-.173 2.953 2.953 0 0 1-1.168-.938 4.266 4.266 0 0 1-.754-3.16c.193-1.561.929-3.011 1.092-4.571a3.531 3.531 0 0 0-.335-2.387 3.806 3.806 0 0 0-1.809-1.685.078.078 0 0 1-.014-.049.093.093 0 0 1 .017-.048.096.096 0 0 1 .096-.036Zm12.355-2.699c3.471.633 6.206 3.26 7.299 6.393.59 1.757.731 3.623.409 5.443-.275 1.699-.801 3.399-.684 5.131.129 1.922 1.344 3.433 2.285 5.06a10.072 10.072 0 0 1 1.333 4.26c.212 2.914-.796 5.788-2.805 7.998-.254.278-.523.543-.807.794-.035.034-.082 0-.047-.05a10.615 10.615 0 0 0 2.492-3.591c.564-1.345.834-2.786.793-4.234a9.968 9.968 0 0 0-.953-4.116c-.76-1.6-2.01-2.96-2.548-4.66-.503-1.588-.21-3.266.123-4.86.362-1.738.713-3.454.444-5.232a9.198 9.198 0 0 0-1.946-4.541 9.891 9.891 0 0 0-4.079-3.001c-3.694-1.383-7.662-.3-11.151 1.111l-1.397.555c-.052 0-.093-.05-.041-.072 3.472-1.594 7.347-3.11 11.28-2.388Z"/>
  <path fill="#65BEDC" d="M215.113 154.276c.256-.139.545-.211.839-.211.294 0 .583.072.838.211.275.277.532 3.238 0 3.776-.531.539-1.712-.249-1.712-.249l.035-3.527Z"/>
  <path fill="#DD6A57" d="M200.205 178.674c-14.768 12.647-28.455 26.499-29.524 33.564-1.485 9.792 4.85 12.502 7.685 12.53 7.731.072 21.769-29.687 26.655-41.05 4.739-11.036-1.596-7.821-4.816-5.044Z"/>
  <path fill="#C7C7C7" d="m177.916 198.942 16.416 8.481s10.209-17.923 12.559-26.255c2.349-8.331-1.169-8.064-8.883-1.605-7.715 6.46-20.092 19.379-20.092 19.379Z"/>
  <path fill="#65BEDC" d="m177.916 198.942 16.416 8.481s10.209-17.923 12.559-26.255c2.349-8.331-1.169-8.064-8.883-1.605-7.715 6.46-20.092 19.379-20.092 19.379Z"/>
  <path fill="#000" d="M206.891 181.168c-2.338 8.331-12.559 26.232-12.559 26.232l-14.949-7.725 27.549-24.616c.9.694.941 2.666-.041 6.109Z" opacity=".1"/>
  <path fill="#263238" d="M181.299 196.525c6.347 4.083 12.46 6.715 13.693 7.415.058.033.105-.061.041-.089-1.239-.6-7.977-4.587-13.687-7.398-.064-.061-.129.033-.047.072Z"/>
  <path fill="#65BEDC" d="M230.618 210.777a31.539 31.539 0 0 1-2.28 1.472 33.07 33.07 0 0 1-1.168.667 34.873 34.873 0 0 1-3.782 1.766c-.6.24-1.213.463-1.841.666a35.513 35.513 0 0 1-9.157 1.772c-.748.05-1.502.072-2.262.072s-1.514 0-2.262-.072a35.741 35.741 0 0 1-10.992-2.438 34.77 34.77 0 0 1-3.781-1.766c-.39-.212-.78-.434-1.169-.667h-.52l.046-.283.246-1.489.111-.666.292-1.772.058-.367s-.064-.1-.169-.294c-.193-.344-.52-.966-.871-1.777l-.14-.322a9.455 9.455 0 0 1-.14-.339c-.217-.556-.439-1.111-.631-1.772a.062.062 0 0 1 0-.033 2.375 2.375 0 0 1-.088-.295c-.035-.111-.064-.222-.094-.333a16.937 16.937 0 0 1-.397-1.777 12.82 12.82 0 0 1-.088-.661c-.067-.588-.09-1.18-.07-1.772a.614.614 0 0 1 0-.105c0-.139 0-.284.029-.422v-.106a8.445 8.445 0 0 1 .363-1.777c.028-.1.061-.198.099-.295a.31.31 0 0 1 0-.061c.035-.1.082-.205.123-.305.047-.117.087-.234.146-.35.158-.333.432-.817.806-1.422l.03-.05.379-.616c.334-.556.719-1.111 1.169-1.772.1-.15.199-.3.304-.45l.14-.211c.38-.556.789-1.161 1.216-1.772l.468-.666c.414-.556.841-1.172 1.279-1.772.164-.217.322-.439.485-.661a81.99 81.99 0 0 1 1.345-1.777l.122-.161c.121-.167.25-.334.386-.5.473-.606.947-1.2 1.426-1.772.082-.106.17-.206.251-.306l.298-.355a59.285 59.285 0 0 1 1.561-1.777l.374-.406a28.613 28.613 0 0 1 2.092-2.027c.28-.25.555-.467.818-.661.089-.074.183-.142.281-.205 3.132-2.155 7.387-1.383 10.437.205l.105.056c.164.083.328.172.48.266l.087.05c.141.084.281.167.415.256l.047.033a8.638 8.638 0 0 1 2.034 1.772l.041.05.467.611c.444.588.877 1.177 1.286 1.777.158.217.304.439.45.661.391.555.765 1.166 1.128 1.772.093.161.193.322.286.488l.099.173c.328.555.649 1.166.959 1.777.099.189.199.389.286.555v.078c.275.555.544 1.161.807 1.772l.193.472c.029.061.052.128.081.194.234.556.456 1.156.678 1.772.082.211.158.439.234.661.199.555.392 1.155.585 1.772.07.216.134.439.204.666.175.556.345 1.161.509 1.772.05.174.097.346.14.517a57.23 57.23 0 0 1 .491 1.921 22 22 0 0 1 .163.661c.135.556.269 1.161.404 1.772.046.217.093.439.146.661.122.555.245 1.166.368 1.777.041.217.087.439.134.661.111.555.222 1.166.333 1.772l.187.666c.106.556.211 1.172.31 1.778 0 .055 0 .105.029.161.03.166.053.333.082.5.1.555.199 1.166.292 1.771.041.222.076.439.111.667.041.122.053.194.071.294Z"/>
  <path fill="#000" d="M217.007 176.342c-.134-.089-.275-.172-.415-.256l-.087-.049a6.165 6.165 0 0 0-.48-.267l-.105-.056h-10.741a11.48 11.48 0 0 0-.818.661h12.675l-.029-.033Zm2.133 1.855-.041-.05h-16.562l-.251.256-.374.405h17.696l-.468-.611Zm1.754 2.388h-20.543l-.298.356-.257.305h21.553a6.96 6.96 0 0 0-.45-.633l-.005-.028Zm1.864 2.922c-.094-.167-.193-.328-.287-.489H198.37c-.136.167-.265.333-.385.5l-.129.161h25.013l-.111-.172Zm1.361 2.571v-.039a5.04 5.04 0 0 0-.286-.555h-27.327c-.164.222-.321.444-.485.661h28.128a.09.09 0 0 0-.024-.067h-.006Zm1.023 2.283-.193-.472h-30.214l-.467.666h30.974c-.041-.066-.065-.133-.094-.166l-.006-.028Zm.766 1.966h-32.85l-.14.211c-.105.15-.205.3-.304.45h33.533c-.076-.222-.152-.45-.233-.661h-.006Zm.824 2.433h-35.264l-.379.616-.03.05h35.883c-.07-.227-.14-.45-.204-.666h-.006Zm.847 2.955c-.041-.173-.087-.35-.134-.517h-37.344c-.041.1-.088.206-.123.306a.31.31 0 0 0 0 .061 2.985 2.985 0 0 0-.099.294h37.77a1.316 1.316 0 0 0-.064-.144h-.006Zm.491 1.921h-38.571v.106c0 .139 0 .283-.029.422v.105h38.793c-.076-.194-.129-.438-.187-.633h-.006Zm.584 2.433h-39.132c0 .222.053.444.088.661h39.156c-.03-.222-.076-.444-.123-.678l.011.017Zm.515 2.438h-39.185c.029.111.058.222.094.333.023.1.052.198.087.295a.062.062 0 0 0 0 .033h39.103a4.286 4.286 0 0 0-.128-.661h.029Zm.467 2.433h-38.81c.046.117.093.233.14.339l.14.322h38.618l-.088-.661Zm.462 2.599c0-.055 0-.105-.029-.161h-38.092c.105.195.169.295.169.295l-.058.366h38.08c-.029-.167-.052-.333-.082-.5h.012Zm.374 2.272h-38.676l-.111.666h38.886c-.035-.227-.07-.427-.111-.666h.012Zm-38.571 2.438c.389.233.779.456 1.169.667h34.077c.389-.211.779-.434 1.169-.667h-36.415Zm4.956 2.433c.584.239 1.215.461 1.835.666h22.85a34.17 34.17 0 0 0 1.841-.666h-26.526Zm10.992 2.438c.748.05 1.502.072 2.262.072s1.514 0 2.262-.072h-4.524Z" opacity=".1"/>
  <path fill="#263238" d="M200.1 205.662c2.09.196 4.163.537 6.201 1.022 1.011.255 1.998.555 2.992.872.491.161.987.3 1.484.444a7.018 7.018 0 0 0 1.596.3c.009 0 .018.004.024.01a.031.031 0 0 1 .011.023.032.032 0 0 1-.011.024.035.035 0 0 1-.024.01c-.515.02-1.03.007-1.543-.039a11.208 11.208 0 0 1-1.467-.272c-1.023-.25-2.04-.556-3.062-.806-2.063-.522-4.126-1.044-6.23-1.421-.094-.023-.07-.178.029-.167Zm-5.184 1.716a47.554 47.554 0 0 1 5.189-.189c.865 0 1.724.078 2.589.167.409.039.824.089 1.234.144.409.056.894.172 1.344.222.046 0 .046.078 0 .072-.427-.033-.865 0-1.292 0l-1.297-.044c-.865-.028-1.754-.044-2.589-.083a164.825 164.825 0 0 0-5.184-.134c-.093-.016-.088-.144.006-.155Z"/>
  <path fill="#DD6A57" d="M220.239 177.775c14.025 10.214 28.595 27.554 28.811 37.562.216 9.886-5.622 8.887-6.61 8.609-10.402-3.077-22.938-30.498-27.578-41.656-4.605-11.119 1.911-7.042 5.377-4.515Z"/>
  <path fill="#65BEDC" d="m242.727 197.703-16.253 8.759s-10.519-17.773-13.05-26.01c-2.53-8.237 1.011-8.081 8.854-1.755 7.843 6.326 20.449 19.006 20.449 19.006Z"/>
  <path fill="#263238" d="M239.308 195.37c-6.253 4.171-12.337 6.926-13.553 7.615-.058.033-.111-.056-.046-.089 1.227-.617 7.889-4.721 13.546-7.626.065-.033.111.056.053.1Z"/>
  <path fill="#263238" d="M227.52 205.856c-.335.122-.663.261-.982.417-1.56-2.955-1.279-2.277-2.869-5.216-.777-1.438-1.56-2.877-2.338-4.321-.777-1.444-1.531-3.06-2.425-4.51 0-.044-.088 0-.07.034.52 1.416 1.221 2.777 1.882 4.16-.146-.211-.287-.428-.445-.633a18.68 18.68 0 0 1-1.028-1.4c-.053-.078-.181 0-.129.061.304.461.585.939.836 1.422s.584.944.865 1.405c.28.461.614.878.935 1.305l.123.156c.421.855.835 1.716 1.28 2.566a39.807 39.807 0 0 0 3.231 5.287 8.222 8.222 0 0 0 1.169-.65c.053-.033.006-.088-.035-.083Z"/>
  <path fill="#DD6A57" d="M179.084 224.423c4.816-.672 7.545-9.181 12.892-22.721.941-2.377-11.501-15.991-13.19-13.802-2.127 2.777-7.767 18.051-8.328 22.216-1.11 8.187 2.998 15.091 8.626 14.307Z"/>
  <path fill="#263238" d="M186.478 215.404c.379-1.172.818-2.322 1.256-3.471.438-1.15.912-2.289 1.373-3.427.462-1.139.953-2.266 1.444-3.394.251-.555.497-1.111.73-1.699.234-.589.48-1.111.678-1.711a20.235 20.235 0 0 1-.981 3.555c-.398 1.166-.86 2.31-1.327 3.454a60.96 60.96 0 0 1-1.502 3.383c-.538 1.116-1.052 2.227-1.671 3.31Z"/>
  <path fill="#DD6A57" d="M174.859 197.72c.678-4.649 2.058-11.108 3.805-12.491 1.747-1.383 8.497-6.193 10.42-6.826 1.923-.634 10.519-3.738 12.08-2.872 1.262.694-.234 3.849-4.313 5.36-3.589 1.327-5.435 2.566-6.464 2.988-1.028.422-3.559 3.649-2.875 5.076.409.839 2.98 1.828 4.576 1.139 1.595-.689 1.993-3.694 3.822-5.115 1.829-1.422 5.049-1.244 5.23-.422.181.822-.876 1.216-2.524 4.026-1.058 1.805-1.128 6.143-3.507 9.253-1.204 1.561-3.308 5.721-3.308 5.721l-16.942-5.837Z"/>
  <path fill="#263238" d="M197.61 183.695a3.28 3.28 0 0 0 1.602-.683c.18-.17.306-.386.362-.622.02-.129.02-.26 0-.389a.584.584 0 0 0-.158-.372c-.029 0 0-.055.035-.027.042.065.091.127.146.183a.982.982 0 0 1 .088.178.844.844 0 0 1 .07.377 1.235 1.235 0 0 1-.315.772 2.224 2.224 0 0 1-.84.521 2.318 2.318 0 0 1-.996.112l.006-.05Z"/>
  <path fill="#DD6A57" d="M178.664 185.228c1.554-2.321 5.528-6.503 9.467-7.942 2.665-.972 11.834 3.26 11.566 4.927-.269 1.666-1.83 1.666-4.15 1.41-.841-.094-5.312-1.616-6.072-.722-1.093 1.278-2.478 5.654-2.478 5.654l-8.333-3.327Z"/>
  <path fill="#263238" d="M199.475 181.563c-1.134-1.783-3.629-2.733-6.101-3.483a.034.034 0 0 0-.016.013.035.035 0 0 0 0 .036c.004.006.009.01.016.012.631.189 4.675 1.95 6.095 3.45-.006.016.012-.012.006-.028Z"/>
  <path fill="#DD6A57" d="M178.664 185.229c1.554-2.322 5.528-6.504 9.467-7.943 2.665-.972 9.935 4.444 9.654 6.11-.28 1.666-2.512 1.799-5.002.977-.801-.266-3.507-2.066-4.26-1.172-1.093 1.278-3.758 4.444-3.758 4.444l-6.101-2.416Z"/>
  <path fill="#263238" d="M186.302 185.695c.251-.367.333-.494.584-.855.252-.361.521-.717.801-1.061.221-.316.498-.594.818-.822a1.834 1.834 0 0 1 1.099-.206 6.438 6.438 0 0 1 2.378.989c.813.45 2.508 1.166 3.805 1.039a2.697 2.697 0 0 0 1.023-.267c.242-.105.453-.265.613-.467.585-.905-.14-1.938-.859-2.671a16.663 16.663 0 0 0-4.891-3.171c-.427-.2-.865-.389-1.298-.556a3.959 3.959 0 0 0-1.572-.422c-.9 0-2.378.861-2.834 1.111-.035 0-.064-.033-.029-.056.584-.327 1.928-1.399 3.378-1.327a4.566 4.566 0 0 1 1.513.483c.509.206 1.011.428 1.502.667.967.447 1.895.967 2.776 1.555a8.522 8.522 0 0 1 2.268 2.033 2.306 2.306 0 0 1 .157 2.466 2.19 2.19 0 0 1-.72.583 2.295 2.295 0 0 1-.91.244 4.4 4.4 0 0 1-1.169 0 18.882 18.882 0 0 1-2.49-.689c-.789-.299-1.501-.805-2.337-1.033a1.604 1.604 0 0 0-1.169.073c-.331.21-.627.466-.877.76a12.262 12.262 0 0 0-1.467 1.667c-.075.139-.198.089-.093-.067Z"/>
  <path fill="#DD6A57" d="M177.512 187.278c.585-1.111 1.531-5.654 2.455-7.048.923-1.394 5.137-6.226 7.106-6.015 2.478.261-.099 4.499-1.397 6.248-1.297 1.75-1.075 4.715-1.075 4.715l-7.089 2.1Z"/>
  <path fill="#263238" d="M187.483 177.542a21.144 21.144 0 0 0-1.269 1.76c-.413.551-.782 1.13-1.104 1.733a5.866 5.866 0 0 0-.485 1.938c-.029.328-.041.656-.041.984 0 .327.029.716 0 1.077a.037.037 0 0 0 .013.015.038.038 0 0 0 .038 0 .031.031 0 0 0 .013-.015c.041-.657.129-1.31.263-1.955a8.216 8.216 0 0 1 .62-1.938c.584-1.233 1.426-2.333 2.016-3.561.047-.044-.029-.077-.064-.038Zm-2.847 8.109c.06.547.202 1.084.421 1.594.202.512.434 1.012.695 1.499a15.415 15.415 0 0 0 1.853 2.75c.75.885 1.342 1.881 1.753 2.949a8.527 8.527 0 0 1 .491 3.332 11.072 11.072 0 0 0-2.694-5.937 13.336 13.336 0 0 1-1.029-1.378c-.307-.487-.58-.994-.818-1.516a6.64 6.64 0 0 1-.672-3.293Z"/>
  <path fill="#37474F" d="m203.746 181.496 6.774 19.223c.269.555 0 1.049-.585 1.11l-10.642.772a1.771 1.771 0 0 1-.923-.249 1.657 1.657 0 0 1-.637-.684l-6.779-19.222c-.269-.556 0-1.05.584-1.111l10.642-.778c.327.002.648.091.924.257.277.166.5.402.642.682Z"/>
  <path fill="#455A64" d="m202.478 181.579 6.791 19.223a.672.672 0 0 1 .063.724.71.71 0 0 1-.267.28.763.763 0 0 1-.38.107l-10.642.777a1.824 1.824 0 0 1-.92-.255 1.711 1.711 0 0 1-.641-.678l-6.773-19.222c-.269-.556 0-1.05.584-1.111l10.643-.772c.323 0 .639.088.912.252s.492.398.63.675Z"/>
  <path fill="#263238" d="M199.632 182.69a.824.824 0 0 0 .104.322c.056.1.133.188.225.26a.934.934 0 0 0 .665.19.927.927 0 0 0 .612-.312.856.856 0 0 0 .166-.297.808.808 0 0 0 .034-.335.852.852 0 0 0-.328-.582.945.945 0 0 0-1.277.122.836.836 0 0 0-.201.632Z"/>
  <path fill="#DD6A57" d="M244.649 224.051c-4.64.656-10.478-2.716-25.632-12.985-2.098-1.422 4.477-18.184 6.797-16.773 2.922 1.771 13.868 9.258 14.61 9.897 6.119 5.426 7.375 19.412 4.225 19.861Z"/>
  <path fill="#DD6A57" d="M231.243 199.28s-4.348-5.659-7.597-7.964c-4.354-3.088-9.45-4.044-11.612-4.321-4.512-.584-15.85.972-15.949 4.154-.088 2.877 11.414.728 11.414.728s-12.104.35-11.543 3.838c.561 3.488 13.769.272 13.769.272s-12.43.622-11.25 4.132c.889 2.649 13.021.378 13.021.378s-10.683.605-9.888 3.371c.876 3.049 12.208 1.622 12.208 1.622 3.261 6.698 7.697 8.625 11.028 9.636.789.244 6.399-15.846 6.399-15.846Z"/>
  <path fill="#263238" d="M211.671 191.505c-1.42 0-2.863-.028-4.283.083a46.958 46.958 0 0 0-4.237.511 25.013 25.013 0 0 0-5.365 1.422c3.155-.972 8.228-1.45 9.648-1.561 1.42-.111 2.829-.294 4.243-.405l-.006-.05Zm.52 4.859c-1.817.067-3.623.067-5.44.211-1.818.145-3.507.422-5.301.683-.134 0-.082.084.058.067 1.8-.189 3.507-.233 5.26-.405 1.753-.173 3.6-.406 5.4-.511l.023-.045Zm1.239 4.099a42.904 42.904 0 0 0-8.299.922c-.134.028-.052.1.088.083 2.753-.355 4.909-.655 8.211-.91.053-.006.059-.095 0-.095Zm22.792.766a38.337 38.337 0 0 1 3.548 2.355c.584.423 1.116.872 1.648 1.35a8.35 8.35 0 0 1 1.414 1.622 18.887 18.887 0 0 1 1.852 3.749c.504 1.289.84 2.632 1 3.999a20.78 20.78 0 0 0-.643-1.95c-.251-.638-.491-1.277-.777-1.899a26.222 26.222 0 0 0-1.929-3.599 7.988 7.988 0 0 0-1.303-1.55c-.491-.483-1.029-.933-1.555-1.394-.526-.461-1.069-.9-1.618-1.344l-1.637-1.339Z"/>
  <path fill="#DD6A57" d="M214.704 175.825c-.105.756-3.319 5.971-7.667 5.765-2.525-.116-.859-4.921-.859-4.921l-2.262-6.526 8.258-6.109s2.571 11.469 2.53 11.791Z"/>
  <path fill="#263238" d="M213.115 168.305a12.924 12.924 0 0 1-2.658 4.699 13.724 13.724 0 0 1-4.408 3.305l-2.133-6.16 8.275-6.143.924 4.299Z"/>
  <path fill="#DD6A57" d="M193.987 161.057c-.111 11.247 6.966 12.586 9.52 12.608 2.337 0 10.209-.2 11.548-11.375 1.338-11.175-4.132-14.79-9.433-15.101-5.3-.311-11.518 2.616-11.635 13.868Z"/>
  <path fill="#263238" d="M196.897 160.174c.266-.06.528-.136.783-.228.286-.044.548-.174.748-.372a.389.389 0 0 0-.046-.489 1.083 1.083 0 0 0-1.046-.144 1.553 1.553 0 0 0-.912.594.414.414 0 0 0 .018.466.469.469 0 0 0 .455.173Zm8.083-.272a7.892 7.892 0 0 1-.813-.089 1.366 1.366 0 0 1-.806-.244.396.396 0 0 1-.112-.237.39.39 0 0 1 .065-.252 1.05 1.05 0 0 1 .457-.288c.177-.056.366-.066.548-.029.381.02.739.174 1.005.433a.402.402 0 0 1 .074.462.438.438 0 0 1-.17.182.467.467 0 0 1-.248.062Zm-1.421 2.555c0-.028.065.033.071.066 0 .767.192 1.639.935 1.844v.045c-.9-.061-1.111-1.222-1.006-1.955Z"/>
  <path fill="#263238" d="M204.226 161.612c1.286-.172 1.554 2.289.362 2.45-1.192.161-1.443-2.3-.362-2.45Z"/>
  <path fill="#263238" d="M204.746 161.696c.24.116.491.338.766.338.274 0 .526-.283.707-.555 0-.028.041 0 .047.028.058.466-.076.972-.585 1.111-.508.138-.871-.273-1.046-.734-.041-.099.012-.238.111-.188Zm-6.031 1.144c0-.033-.058.039-.052.072.116.756.111 1.667-.585 1.978v.038c.888-.211.877-1.388.637-2.088Z"/>
  <path fill="#263238" d="M197.902 162.118c-1.297.044-1.104 2.516.1 2.471 1.203-.044.993-2.51-.1-2.471Z"/>
  <path fill="#263238" d="M197.376 162.318c-.193.144-.38.4-.625.433-.246.033-.514-.217-.713-.461 0 0-.041 0-.041.033 0 .472.228.95.713 1.006.485.055.731-.372.812-.85.012-.089-.07-.195-.146-.161Zm2.683 3.793s-.053 1.155 0 1.694c0 .05.14.061.333.056.494.039.99-.051 1.434-.261.444-.209.819-.53 1.085-.928.035-.055-.047-.105-.094-.066a4.211 4.211 0 0 1-2.39.888c-.052-.144.164-1.977.07-1.972a5.114 5.114 0 0 0-1.256.389c.041-2.41.485-4.787.485-7.187a.072.072 0 0 0-.022-.051.083.083 0 0 0-.054-.021c-.02 0-.04.008-.054.021a.072.072 0 0 0-.022.051c-.649 2.466-.76 5.238-.865 7.72.006.284 1.128-.222 1.35-.333Z"/>
  <path fill="#263238" d="M200.743 167.539c.324.36.741.635 1.209.799.259.078.537.078.795 0 .585-.172.585-.672.427-1.11a3.093 3.093 0 0 0-.292-.645 3.834 3.834 0 0 1-2.139.956Z"/>
  <path fill="#FF9ABB" d="M201.952 168.338c.259.078.536.078.795 0 .584-.172.584-.672.427-1.11-.306.026-.594.15-.816.352a1.266 1.266 0 0 0-.406.758Z"/>
  <path fill="#263238" d="M214.138 162.707c-2.157.511-3.302-3.066-3.302-3.066s-9.45.322-11.133-6.798c0 0-1.023 4.998-5.698 6.609 0 0-.649-9.059 5.75-11.325 0 0 7.831-3.743 13.196 1.911 5.365 5.654 2.63 12.33 1.187 12.669Z"/>
  <path fill="#263238" d="M199.743 152.754a7.62 7.62 0 0 0 1.169 3.149 8.481 8.481 0 0 0 2.396 2.494c.241.166.493.318.754.455l.386.217.409.177c.274.106.543.228.824.328l.853.228c.146.033.286.078.432.105l.439.067.871.122c.584.028 1.168.028 1.753 0-.585-.111-1.169-.155-1.718-.266l-.842-.195-.421-.089-.403-.139-.806-.272c-.263-.105-.515-.227-.772-.344l-.386-.172-.356-.211a6.446 6.446 0 0 1-.713-.445 9.755 9.755 0 0 1-2.367-2.293 10.313 10.313 0 0 1-1.508-2.939l.006.023Z"/>
  <path fill="#DD6A57" d="M213.044 162.368s2.291-3.688 4.039-2.938c1.747.749.216 5.965-1.695 6.803a2.085 2.085 0 0 1-1.562.15 2.031 2.031 0 0 1-.7-.37 1.898 1.898 0 0 1-.491-.602l.409-3.043Z"/>
  <path fill="#263238" d="M216.604 160.913c.029 0 .041.039 0 .05-1.333.633-1.958 1.894-2.338 3.193.069-.137.168-.258.291-.355a1.143 1.143 0 0 1 1.334-.056c.035 0 0 .078-.029.073a1.288 1.288 0 0 0-.745.053c-.237.09-.438.248-.576.452a5.59 5.59 0 0 0-.585 1.111c-.058.122-.286.078-.251-.061a.065.065 0 0 0 0-.034c-.146-1.688 1.029-4.121 2.899-4.426Z"/>
  <path fill="#65BEDC" d="m160.95 144.386-.739.86 20 15.536.74-.86-20.001-15.536Z"/>
  <path fill="#fff" d="M94.817 206.397c3.639-17.758-8.559-34.957-27.244-38.415-18.685-3.459-36.783 8.134-40.422 25.892-3.639 17.758 8.559 34.957 27.244 38.415 18.686 3.459 36.783-8.134 40.422-25.892Z"/>
  <path fill="#65BEDC" d="M60.987 233.166c-6.875 0-13.596-1.938-19.312-5.568-5.717-3.63-10.172-8.789-12.803-14.826a31.514 31.514 0 0 1-1.978-19.087c1.341-6.408 4.652-12.294 9.513-16.915 4.861-4.62 11.055-7.766 17.798-9.041a36.46 36.46 0 0 1 20.084 1.88c6.352 2.501 11.78 6.735 15.6 12.168 3.82 5.432 5.858 11.819 5.858 18.353-.009 8.759-3.674 17.157-10.191 23.35-6.517 6.194-15.353 9.677-24.57 9.686Zm0-65.538c-6.76 0-13.367 1.905-18.988 5.474-5.62 3.569-10 8.641-12.587 14.576a30.987 30.987 0 0 0-1.945 18.767c1.319 6.3 4.574 12.087 9.353 16.63 4.78 4.542 10.87 7.636 17.5 8.889a35.843 35.843 0 0 0 19.745-1.848c6.245-2.459 11.583-6.622 15.338-11.963 3.756-5.341 5.76-11.621 5.76-18.045-.017-8.607-3.624-16.857-10.03-22.941-6.407-6.085-15.09-9.507-24.146-9.517v-.022Z"/>
  <path fill="#65BEDC" d="M60.987 237.692c-7.818.001-15.46-2.201-21.96-6.327-6.5-4.127-11.567-9.993-14.56-16.857-2.992-6.863-3.776-14.416-2.251-21.703 1.524-7.286 5.288-13.98 10.815-19.233 5.528-5.254 12.57-8.832 20.237-10.282a41.441 41.441 0 0 1 22.837 2.137c7.222 2.842 13.395 7.657 17.738 13.834s6.661 13.44 6.661 20.869c-.01 9.958-4.177 19.505-11.586 26.547-7.408 7.042-17.453 11.004-27.931 11.015Zm0-74.008c-7.587-.001-15.003 2.136-21.311 6.141-6.309 4.005-11.226 9.698-14.13 16.359-2.903 6.661-3.663 13.99-2.183 21.062 1.48 7.071 5.132 13.567 10.497 18.665 5.364 5.098 12.199 8.57 19.64 9.976a40.218 40.218 0 0 0 22.161-2.076c7.009-2.759 13-7.432 17.213-13.427 4.214-5.996 6.463-13.044 6.462-20.254-.011-9.663-4.055-18.927-11.245-25.76-7.189-6.832-16.937-10.675-27.104-10.686Z"/>
  <path fill="#AD6359" d="M66.334 185.506c1.017 5.432 4.436 29.587 9.35 31.78 8.013 3.577 10.567 3.45 17.223 4.61 3.764.65 8.182-18.328 4.675-18.134-5.616.311-10.566.395-12.003.161-1.339-.227-6.394-13.852-12.273-21.177-5.318-6.576-7.69-1.072-6.972 2.76Z"/>
  <path fill="#AD6359" d="M91.037 221.33a57.113 57.113 0 0 0 7.492 1.877c2.011.267 7.808.878 8.34-1.194.356-1.411-3.01-2.155-5.377-2.733-1.251-.299-2.875-1.271-2.641-2.038.415-1.344 3.635-.5 5.797.328 4.178 1.594 9.894 4.715 11.963 2.538.783-.828-.444-1.966-2.151-3.01 2.677 1.111 5.476 1.96 6.382 1.077.52-.5.456-1.111.029-1.705.332.091.685.087 1.015-.011a1.77 1.77 0 0 0 .838-.544c.672-.906.105-2.022-.947-3.099a.996.996 0 0 0 .397-.204.922.922 0 0 0 .258-.352c1.314-2.677-8.182-8.531-11.227-8.786-8.889-.756-17.895.855-17.895.855-2.98 3.044-2.279 16.995-2.273 17.001Z"/>
  <path fill="#263238" d="M102.527 212.066c2.093.025 4.157.474 6.054 1.316 2.39 1.066 4.091 2.472 6.154 3.827.053.039 0 .116-.059.083-.987-.644-5.037-3.027-6.072-3.555a14.663 14.663 0 0 0-6.077-1.627s-.018-.044 0-.044Zm1.075-3.683a36.83 36.83 0 0 1 7.013 1.278c2.46.794 4.535 2.36 6.563 3.86 1.221.9 2.425 1.827 3.6 2.777.046.039 0 .122-.059.083a132.63 132.63 0 0 0-6.341-4.482 18.971 18.971 0 0 0-6.644-2.805c-1.362-.289-2.747-.483-4.126-.672l-.006-.039Zm1.952-3.365c2.256.122 4.231.227 6.341 1.077 2.799 1.111 5.663 3.277 6.674 4.038a85.76 85.76 0 0 1 3.255 2.616c.047.033 0 .111-.065.072a73.507 73.507 0 0 0-7.655-5.376 15.116 15.116 0 0 0-4.091-1.8 28.592 28.592 0 0 0-4.459-.616s-.012-.011 0-.011Z"/>
  <path fill="#65BEDC" d="m85.988 202.596-16.095 13.563s-4.424-21.661-4.506-31.003c-.087-9.714 3.682-12.046 10.485-.922a197.368 197.368 0 0 1 10.116 18.362Z"/>
  <path fill="#263238" d="M70.25 211.449c.368-.383.794-.716 1.168-1.061l1.24-1.072c.83-.727 1.677-1.438 2.53-2.144 1.7-1.416 3.395-2.832 5.12-4.221a35.8 35.8 0 0 1 1.431-1.11c.48-.35 1.052-.739 1.56-1.111 0 0 .065 0 .035.05-.409.361-.788.755-1.198 1.111-.409.355-.841.744-1.268 1.11-.847.717-1.694 1.422-2.548 2.128-1.689 1.377-3.366 2.777-5.084 4.11l-1.438 1.11c-.502.395-.993.822-1.525 1.167-.006-.006-.047-.045-.023-.067Z"/>
  <path fill="#000" d="M65.387 185.123c.082 9.325 4.5 31.008 4.5 31.008l13.483-11.336-14.704-27.975c-2.186-.2-3.331 2.921-3.279 8.303Z" opacity=".1"/>
  <path fill="#65BEDC" d="M83.732 224.746c-6.26 5.229-14.303 8.124-22.638 8.148-8.335.023-16.396-2.826-22.689-8.02 4.81-14.73 14.791-42.3 20.73-46.805a5.607 5.607 0 0 1 1.653-.772h.076a14.02 14.02 0 0 1 2.256-.438c2.922-.345 6.37 0 7.41 1.305 3.594 4.437 10.11 31.814 13.202 46.582Z"/>
  <path fill="#AD6359" d="M51.204 187.467c-6.85 10.758-16.364 27.465-13.658 36.373 2.583 8.576 42.732 7.36 49.529 6.438 2.922-.395-.392-19.673-3.553-19.44-5.22.345-25.937-.555-26.299-.555 0 0 1.49-11.408 3.927-21.333 3.29-13.513-3.722-11.253-9.946-1.483Z"/>
  <path fill="#263238" d="m57.2 210.3-2.221 1.11c-.736.367-1.467.734-2.192 1.111-.724.378-1.449.772-2.168 1.167-.719.394-1.414.822-2.139 1.227a20.442 20.442 0 0 1 4.091-2.777 25.794 25.794 0 0 1 2.256-1.039c.77-.317 1.563-.585 2.373-.799Z"/>
  <path fill="#C7C7C7" d="M106.144 220.591H60.32v1.95h45.824v-1.95Z"/>
  <path fill="#A6A6A6" d="M106.144 220.591v1.95h-31.15l1.573-1.95h29.577Z"/>
  <path fill="#A6A6A6" d="M81.295 222.546h40.102l5.803-26.893H87.098l-5.803 26.893Z"/>
  <path fill="#C7C7C7" d="M83.17 222.546h40.103l5.803-26.893H88.974l-5.803 26.893Z"/>
  <path fill="#fff" d="M109.738 208.095a2.593 2.593 0 0 1-.506 1.685 2.827 2.827 0 0 1-1.493 1.03c-1.168.228-2.103-.622-2.15-1.888-.034-.6.144-1.193.506-1.685a2.824 2.824 0 0 1 1.493-1.031c1.162-.228 2.109.622 2.15 1.889Z"/>
  <path fill="#AD6359" d="M79.793 225.046c3.156 1.627 6.972 5.515 9.602 5.954a3.212 3.212 0 0 0 1.912-.203 3.009 3.009 0 0 0 1.407-1.247s1.17 2.577 3.635 2.599c1.263 0 2.39-1.894 2.39-1.894s1.035 2.028 3.221 1.916c1.753-.083 2.612-1.982 2.612-1.982s1.952 1.505 3.693.877c3.536-1.272 4.343-15.473-1.034-17.951-2.507-1.149-2.507 2.328-2.507 2.328s-1.274-4.999-4.348-5.238c-3.074-.239-2.788 4.288-2.788 4.288s-1.28-4.838-4.494-4.771c-3.348.067-2.244 4.543-2.244 4.543s-2.075-3.277-4.523-2.688c-4.044.961.537 8.381-.421 11.464h-5.348l-.765 2.005Z"/>
  <path fill="#AD6359" d="M84.34 227.823c-3.133-1.294-4.635.827-7.902.422-3.635-.456-2.448-4.51 3.933-5.221h5.535l-1.566 4.799Z"/>
  <path fill="#263238" d="M104.759 229.889a.043.043 0 0 0 .015.018.046.046 0 0 0 .046 0 .043.043 0 0 0 .015-.018c1.461-4.61 1.584-10.103-.088-14.674-.052-.15-.333-.133-.309.044.771 5.044 1.04 9.565.321 14.63Zm-5.99.416c0 .05.087.067.105 0 1.479-4.759 1.438-10.947-1.169-16.006-.087-.173-.35-.245-.263-.034 1.473 3.494 1.999 11.486 1.327 16.04Zm-8.229-16.368c2.274 4.943 2.653 10.081 2.25 15.407 0 .073.094.073.117 0 .947-2.555.836-5.981.509-8.636a13.763 13.763 0 0 0-2.695-6.86c-.058-.077-.228-.027-.18.089Zm-1.735 16.89c-1.97-.555-3.56-1.916-5.213-2.977a2.483 2.483 0 0 0-.65-.289 2.174 2.174 0 0 0-.7.034c-.491.083-.976.222-1.473.344-.98.27-1.98.472-2.992.605a6.265 6.265 0 0 1-1.584 0 2.546 2.546 0 0 1-1.45-.722 1.947 1.947 0 0 1-.42-.683 1.792 1.792 0 0 1-.14-.783c.03-.537.27-1.043.672-1.422a7.067 7.067 0 0 1 2.7-1.455 9.116 9.116 0 0 1 3.015-.466 10.006 10.006 0 0 0-2.922.672 6.654 6.654 0 0 0-2.501 1.488c-.341.311-.55.73-.585 1.178a1.69 1.69 0 0 0 .48 1.188 2.07 2.07 0 0 0 1.215.556c.484.072.975.083 1.461.033a22.939 22.939 0 0 0 2.97-.556c.496-.111.993-.222 1.513-.294.269-.044.543-.044.812 0 .259.077.503.191.725.339.859.555 1.613 1.194 2.437 1.761a11.358 11.358 0 0 0 2.63 1.449Z"/>
  <path fill="#65BEDC" d="m58.217 208.05-21.483.556s11.273-19.312 17.532-26.504c6.505-7.493 10.97-6.976 8.655 5.698a193.01 193.01 0 0 1-4.704 20.25Z"/>
  <path fill="#263238" d="M40.176 205.218c.537-.067 1.087-.067 1.63-.084l1.672-.072c1.128-.044 2.261-.072 3.39-.094 2.255-.045 4.517-.095 6.773-.106h1.864c.62 0 1.303.072 1.958.089.04 0 .035.055 0 .055-.556.028-1.117.1-1.672.128-.555.028-1.169.056-1.753.072-1.128.028-2.256.056-3.39.067-2.22.028-4.447.067-6.674.05h-1.858c-.649 0-1.315 0-1.958-.039a.037.037 0 0 1-.022-.015.034.034 0 0 1-.004-.026.037.037 0 0 1 .016-.022.037.037 0 0 1 .028-.003Zm20.682-6.704c.447-.679.75-1.433.894-2.222-.215.677-.49 1.335-.824 1.966.064-.283.123-.555.181-.85.21-1.022.433-2.049.585-3.082-.497 1.761-.912 3.543-1.368 5.315a843.004 843.004 0 0 0-1.361 5.393c-.246.983-.497 1.966-.72 2.949-.35.039-.625.034-.928.067-.088 0-.094.144 0 .144.39.024.781.011 1.168-.038.947-3.161 1.69-6.404 2.373-9.642Z"/>
  <path fill="#AD6359" d="M68.917 185.351c-2.694.405-6.931-3.76-8.48-7.004-.105-.228.415-2.449.918-5.188.298-1.666.584-3.515.725-5.226l11.103 3.416a26.095 26.095 0 0 0-1.63 6.487 3.475 3.475 0 0 0 0 .705v.117c.152 1.361-.03 6.298-2.636 6.693Z"/>
  <path fill="#263238" d="M62.857 168.177c.146 2.289 1.128 9.864 7.556 10.464.389.033.78.033 1.169 0v-.111a3.599 3.599 0 0 1 0-.716 26.319 26.319 0 0 1 1.607-6.488l-10.332-3.149Z"/>
  <path fill="#AD6359" d="M63.827 153.981c-2.127 3.444-2.747 14.635-.585 17.657 3.174 4.376 9.684 6.198 13.95 2.31 4.12-3.782 4.676-18.378 2.104-21.255-3.781-4.244-12.337-3.799-15.47 1.288Z"/>
  <path fill="#263238" d="M72.903 163.162c0-.028-.065.033-.065.067 0 .75-.18 1.616-.911 1.821v.045c.888-.067 1.08-1.216.976-1.933Z"/>
  <path fill="#263238" d="M72.242 162.335c-1.268-.161-1.52 2.266-.339 2.416 1.18.15 1.403-2.278.34-2.416Zm5.371 1.11s.058.039.053.073c-.105.744-.088 1.621.584 1.938v.039c-.853-.195-.865-1.355-.637-2.05Z"/>
  <path fill="#263238" d="M78.396 162.723c1.28 0 1.134 2.461-.052 2.433-1.187-.028-1.023-2.455.052-2.433Zm-7.048-1.588a10.47 10.47 0 0 0 1.023-.239 1.72 1.72 0 0 0 .993-.433.496.496 0 0 0 0-.628 1.388 1.388 0 0 0-1.333-.255 1.98 1.98 0 0 0-1.215.7.534.534 0 0 0-.012.583.573.573 0 0 0 .232.21.622.622 0 0 0 .312.062Zm8.182.461c-.345-.089-.654-.228-.988-.344a1.734 1.734 0 0 1-.935-.556.483.483 0 0 1 .094-.622 1.39 1.39 0 0 1 1.356-.117c.471.13.874.423 1.128.822a.536.536 0 0 1-.04.617.611.611 0 0 1-.614.2Zm-7.936 8.364c.17.195.333.456.62.506.294.021.591-.017.87-.111 0 0 .047 0 .03.038a1.066 1.066 0 0 1-.478.297 1.11 1.11 0 0 1-.569.02.85.85 0 0 1-.393-.281.782.782 0 0 1-.162-.441c-.006-.044.058-.056.082-.028Z"/>
  <path fill="#263238" d="M72.657 167.789c.17.316.406.595.695.82.288.224.623.39.983.485.313.086.638.131.964.133a.974.974 0 0 0 .187 0 .856.856 0 0 0 .175 0 .198.198 0 0 0 .115-.046.184.184 0 0 0 .06-.104.174.174 0 0 0 0-.078v-.066c.076-.556.112-1.461.112-1.461.21.122 1.291.717 1.309.411.093-2.516.204-5.315-.258-7.837a.075.075 0 0 0-.027-.038.081.081 0 0 0-.091 0 .076.076 0 0 0-.028.038c-.192 2.411.059 4.843-.099 7.271a5.085 5.085 0 0 0-1.233-.484c-.088 0 0 1.717-.082 1.972a.101.101 0 0 1 0 .028 3.954 3.954 0 0 1-1.468-.281 3.793 3.793 0 0 1-1.238-.802c-.052-.067-.117-.022-.076.039Zm4.833-12.347a4.53 4.53 0 0 1-1.93 1.095 4.697 4.697 0 0 1-4.286-.935 4.335 4.335 0 0 1-1.27-1.815.034.034 0 0 0 .003-.017.035.035 0 0 0-.006-.015.035.035 0 0 0-.013-.011.032.032 0 0 0-.016-.004.032.032 0 0 0-.017.004.034.034 0 0 0-.018.026 4.238 4.238 0 0 0 1.187 2.016 4.573 4.573 0 0 0 2.1 1.133 4.84 4.84 0 0 0 2.374-.159 4.625 4.625 0 0 0 1.974-1.263c.041-.033-.03-.105-.082-.055Zm-3.559-9.431a5.065 5.065 0 0 0-2.796-.044 4.851 4.851 0 0 0-2.352 1.438 6.175 6.175 0 0 0-1.409 2.838c0 .009.004.018.01.024a.04.04 0 0 0 .025.01c.01 0 .019-.004.025-.01a.033.033 0 0 0 .01-.024 5.64 5.64 0 0 1 1.248-2.291 6.027 6.027 0 0 1 2.177-1.541 4.24 4.24 0 0 1 2.451-.199c.82.177 1.56.592 2.12 1.188a3.844 3.844 0 0 1 1.028 2.393.08.08 0 0 0 .029.042c.014.01.032.016.05.016a.08.08 0 0 0 .079-.058 3.837 3.837 0 0 0-.72-2.295 4.155 4.155 0 0 0-1.975-1.487Zm13.529 5.254a5.11 5.11 0 0 0-2.086-2.904c-1.432-.983-3.138-.972-4.833-.922-.04 0-.04.066 0 .066 1.438-.039 2.922 0 4.173.739a5.117 5.117 0 0 1 2.267 2.616 4.688 4.688 0 0 1-.134 3.432 5.025 5.025 0 0 1-2.466 2.511 5.502 5.502 0 0 1-4.161.122c-.053 0-.1.05-.047.072a5.496 5.496 0 0 0 2.869.401 5.399 5.399 0 0 0 2.656-1.104 5.002 5.002 0 0 0 1.637-2.275c.31-.889.352-1.843.12-2.754h.006Z"/>
  <path fill="#263238" d="M63.29 154.509s.525-3.394 1.554-4.36c1.028-.966 3.109-1.033 3.109-1.033s1.473-2.777 4.389-2.727c2.618.05 4.172 2.377 4.172 2.377s3.916-3.088 7.85-.811c3.728 2.166 2.705 7.776-1.246 9.259-2.776 1.044-6.224-1.472-6.224-1.472-.35 0-4.09 1.811-6.55-1.416 0 0-2.607 1.599-3.893.211 0 .011-1.952.699-3.162-.028Z"/>
  <path fill="#263238" d="M61.904 163.468c.73-.411 2.309-3.166 3.022-4.316.648-1.039 1.116-5.437 1.309-7.631a8.088 8.088 0 0 0-2.414 2.46c-1.11 1.8-1.823 5.726-1.917 9.487Z" opacity=".2"/>
  <path fill="#AD6359" d="M64.049 163.268s-1.753-4.011-3.63-3.488c-1.875.522-1.086 5.976.708 7.07.221.159.474.273.744.336a2.15 2.15 0 0 0 1.59-.254c.233-.143.433-.33.588-.549v-3.115Z"/>
  <path fill="#263238" d="M60.683 161.335a.03.03 0 0 0-.012.01.03.03 0 0 0-.005.015c0 .005.002.01.005.015a.03.03 0 0 0 .012.01c1.25.811 1.694 2.166 1.91 3.521a1.064 1.064 0 0 0-.24-.395 1.136 1.136 0 0 0-.866-.345c-.162.005-.32.044-.465.113a.043.043 0 0 0-.03.011.037.037 0 0 0 0 .055.043.043 0 0 0 .03.011c.258-.022.517.032.741.154.225.122.405.307.515.53.178.373.313.765.403 1.166.041.133.275.117.258-.028a.068.068 0 0 0 0-.033c.403-1.639-.421-4.255-2.256-4.81Z"/>
  <path fill="#65BEDC" d="m101.228 153.357-17.357 16.588.829.783 17.357-16.588-.829-.783Z"/>
  <path fill="#fff" d="M127.452 158.386c19.036 0 34.468-14.667 34.468-32.758 0-18.092-15.432-32.758-34.468-32.758-19.037 0-34.469 14.666-34.469 32.758 0 18.091 15.432 32.758 34.469 32.758Z"/>
  <path fill="#65BEDC" d="M127.452 158.663c-6.875 0-13.596-1.937-19.312-5.567-5.717-3.63-10.172-8.79-12.803-14.826a31.516 31.516 0 0 1-1.978-19.087c1.341-6.409 4.652-12.295 9.513-16.915 4.862-4.62 11.055-7.767 17.798-9.041a36.45 36.45 0 0 1 20.084 1.88c6.352 2.5 11.781 6.734 15.6 12.167 3.82 5.433 5.858 11.82 5.858 18.353-.009 8.759-3.674 17.157-10.191 23.35-6.517 6.194-15.353 9.677-24.569 9.686Zm0-65.538c-6.759 0-13.365 1.904-18.985 5.472-5.62 3.568-10 8.64-12.588 14.573a30.989 30.989 0 0 0-1.949 18.764c1.317 6.3 4.57 12.087 9.347 16.63 4.777 4.544 10.865 7.639 17.493 8.895a35.843 35.843 0 0 0 19.744-1.84c6.246-2.455 11.585-6.614 15.343-11.953 3.758-5.338 5.766-11.616 5.771-18.039-.009-8.611-3.613-16.867-10.02-22.957-6.408-6.09-15.095-9.514-24.156-9.523v-.022Z"/>
  <path fill="#65BEDC" d="M127.452 163.184c-7.816 0-15.457-2.203-21.955-6.329-6.499-4.127-11.564-9.993-14.555-16.855-2.991-6.863-3.774-14.414-2.249-21.699 1.525-7.286 5.289-13.978 10.815-19.23 5.527-5.252 12.568-8.83 20.234-10.278a41.44 41.44 0 0 1 22.833 2.137c7.22 2.842 13.392 7.656 17.735 13.832 4.342 6.176 6.66 13.437 6.66 20.865-.011 9.958-4.178 19.505-11.587 26.546s-17.454 11.001-27.931 11.011Zm0-74.002c-7.585 0-14.999 2.137-21.306 6.142-6.306 4.005-11.222 9.697-14.124 16.356a34.773 34.773 0 0 0-2.183 21.058c1.48 7.069 5.133 13.564 10.496 18.661 5.363 5.097 12.196 8.568 19.635 9.974a40.21 40.21 0 0 0 22.157-2.074c7.008-2.758 12.997-7.43 17.211-13.423 4.214-5.994 6.463-13.04 6.463-20.249-.011-9.662-4.055-18.927-11.244-25.76-7.19-6.832-16.938-10.675-27.105-10.685Z"/>
  <path fill="#F7A9A0" d="M131.589 117.057c6.633 12.63 15.026 26.288 22.746 28.36 7.346 1.971 21.336-15.274 25.714-19.823 1.583-1.666-11.542-10.797-13.547-9.364-3.769 2.705-10.519 9.997-11.688 9.786-1.169-.211-10.829-8.786-19.572-15.973-5.26-4.355-8.246-1.733-3.653 7.014Z"/>
  <path fill="#F7A9A0" d="M178.237 127.849c1.642-1.294 10.093-8.803 11.601-11.041 1.507-2.239 5.37-8.976 3.687-10.253-1.683-1.278-2.98.616-2.98.616s1.169-3.093-.666-4.226c-1.836-1.133-3.735 1.86-3.735 1.86s.941-3.254-.958-4.265c-1.9-1.011-3.291 2.316-3.291 2.316s1.006-2.938-.929-3.144c-2.337-.25-3.535 5.371-5.4 7.72-.426.556-9.391 10.242-9.391 10.242l12.062 10.175Z"/>
  <path fill="#263238" d="M182.018 102.556c-.9 4.127-2.051 5.787-5.084 8.775-.059.056 0 .156.087.1 3.25-2.671 5.003-4.554 5.213-8.842.006-.211-.169-.228-.216-.033Zm4.19 1.905c-1.332 4.21-2.559 6.02-5.493 9.37-.041.05.035.122.082.077 3.173-3.06 4.874-4.998 5.628-9.347.052-.2-.152-.295-.217-.1Zm4.179 2.838c-1.601 3.988-2.852 6.026-6.142 8.931a.076.076 0 0 0-.012.111.085.085 0 0 0 .117.011c3.658-2.655 5.26-5.187 6.16-8.997.058-.234-.024-.284-.123-.056Z"/>
  <path fill="#F7A9A0" d="M163.913 120.112s.386-5.271 1.087-7.553c.701-2.283 6.627-9.859 8.427-8.737 2.338 1.45-.193 6.465-1.753 8.77 0 0 5.365 3.332 4.383 7.315-.982 3.982-12.144.205-12.144.205Z"/>
  <path fill="#263238" d="M173.924 104.417c1.11 2.777-1.169 5.67-2.495 8.014a.226.226 0 0 0-.037.111.247.247 0 0 0 .206.256c2.151 1.544 4.71 4.321 4.599 7.02a.06.06 0 0 0 .019.043.065.065 0 0 0 .046.018.063.063 0 0 0 .045-.018.06.06 0 0 0 .019-.043c.532-2.882-1.753-5.804-4.214-7.353 1.415-2.383 3.553-5.382 1.841-8.076l-.029.028Z"/>
  <path fill="#65BEDC" d="m163.247 117.091 14.172 14.89s-15.656 16.002-22.792 14.158c-7.136-1.844-20.969-20.106-25.066-31.931-2.84-8.175 2.519-7.27 7.422-3.188 4.904 4.082 17.749 14.213 18.322 14.08.572-.134 7.942-8.009 7.942-8.009Z"/>
  <path fill="#000" d="M158.87 145.7a7.563 7.563 0 0 1-4.255.439c-7.147-1.844-20.969-20.106-25.065-31.931-1.754-5.071-.368-6.665 2.115-6.137 6.645 9.225 21.997 30.431 27.205 37.629Z" opacity=".1"/>
  <path fill="#263238" d="M172.668 134.314c-2.058-2.055-10.146-10.752-11.759-12.746-.111-.139-.047-.239.094-.111 6.311 6.02 9.835 10.663 11.746 12.774.047.055-.035.139-.081.083Z"/>
  <path fill="#65BEDC" d="M148.824 152.482c-6.883 4.125-14.941 6.123-23.067 5.719-8.126-.403-15.921-3.189-22.313-7.974 2.151-10.631 7.44-28.771 18.392-40.723 3.056-3.332 11.384-2.36 12.354-1.022 6.54 9.026 12.337 32.569 14.634 44Z"/>
  <path fill="#A6A6A6" d="m146.843 158.663 24.662 1.389 6.732-32.914-24.662-1.388-6.732 32.913Z"/>
  <path fill="#C7C7C7" d="m148.058 158.73 24.662 1.388 6.733-32.908-24.662-1.394-6.733 32.914Z"/>
  <path fill="#fff" d="M167.081 141.701a2.52 2.52 0 0 1-.949 1.561 2.768 2.768 0 0 1-1.798.572 2.263 2.263 0 0 1-.884-.219 2.157 2.157 0 0 1-.712-.544 2.029 2.029 0 0 1-.413-.775 1.954 1.954 0 0 1-.042-.867 2.528 2.528 0 0 1 .953-1.56 2.783 2.783 0 0 1 1.799-.573c.308.012.61.086.885.217.276.131.518.317.712.545.194.228.334.492.411.775.078.284.09.58.038.868Z"/>
  <path fill="#F7A9A0" d="M116.447 116.541c-5.201 10.197-16.182 33.325-10.958 37.401 8.585 6.665 27.298 10.714 33.049 11.375 2.484.283 7.971-17.406 5.499-18.384-2.963-1.172-21.231-4.743-21.459-5.521-.228-.777.929-12.53.38-21.505-.684-11.142-4.337-7.609-6.511-3.366Z"/>
  <path fill="#F7A9A0" d="M135.23 147.205s6.832-3.188 11.402-5.071c2.548-1.055 7.089-2.482 9.351-2.444 3.354.062 17.357 2.361 16.842 5.599-.467 2.933-12.231-.494-12.231-.494s12.196 2.46 10.952 5.893c-1.245 3.432-13.991-2.122-13.991-2.122s12.465 2.777 10.595 6.143c-1.414 2.527-13.26-1.883-13.26-1.883s10.7 2.471 9.35 5.132c-1.478 2.938-12.681-.478-12.681-.478-4.594 6.215-9.287 7.715-13.021 7.837-.871.028-3.308-18.112-3.308-18.112Z"/>
  <path fill="#263238" d="M156.994 143.823c9.122 1.161 13.225 4.387 13.096 4.321-3.004-1.528-8.053-2.894-9.467-3.255-1.414-.361-2.233-.655-3.647-1.016-.035-.011-.017-.056.018-.05Zm-2.04 4.698a32.53 32.53 0 0 1 10.706 2.778c.129.066.071.099-.07.055-1.788-.505-8.842-2.366-10.648-2.777-.023-.022-.023-.056.012-.056Zm-2.04 3.938a24.124 24.124 0 0 1 8.223 2.372c.129.061.035.111-.105.072-2.718-.839-4.845-1.516-8.135-2.355-.053-.011-.041-.1.017-.089Z"/>
  <path fill="#65BEDC" d="m138.316 145.278-6.078 21.105s-25.095-7.986-27.835-13.235c-2.741-5.249 8.456-32.103 12.272-37.84 3.816-5.737 5.751-3.96 6.645 1.722.894 5.682-.584 24.071-.403 24.382.181.311 15.399 3.866 15.399 3.866Z"/>
  <path fill="#263238" d="M123.133 132.803c.07-1.373.132-2.747.187-4.121 0-.711.052-1.427.087-2.138l.053-.989c0-.161.035-.327.035-.488-.015-.22.003-.441.053-.656 0-.039.064-.039.07 0 0 .372.076.211.052.5-.011.215-.011.43 0 .644v3.272a.29.29 0 0 0 0-.072c.129-.75.263-1.5.398-2.25 0-.033.058 0 .058 0a24.565 24.565 0 0 1-.233 2.261c-.071.433-.17.866-.263 1.294 0 .9-.041 1.799-.076 2.699-.111 2.777-.234 5.593-.585 8.364 1.298.323 2.612.595 3.904.922 1.292.328 2.601.672 3.892 1.017 1.292.344 2.595.683 3.881 1.05l1.841.555c.666.2 1.315.467 1.981.65.07 0 .029.111-.041.094-.696-.178-1.414-.266-2.116-.427-.701-.162-1.233-.278-1.846-.428-1.304-.317-2.601-.656-3.904-.989a296.23 296.23 0 0 1-3.892-1.022c-1.298-.35-2.56-.761-3.852-1.111a.112.112 0 0 1-.054-.025.099.099 0 0 1-.033-.047.14.14 0 0 1-.094-.139c.14-2.821.351-5.598.497-8.42Zm7.013 21.745c.456-1.533 2.337-7.648 2.922-9.131h.047c-.269 1.522-1.947 7.609-2.402 9.142a83.925 83.925 0 0 1-3.028 9.108c0 .05-.117.039-.105 0 .649-3.099 1.66-6.098 2.566-9.119Z"/>
  <path fill="#65BEDC" d="M131.274 118.502s-7.843-5.71-12.372-5.038l-3.437 3.699s-1.215.555-1.706-.178c-1.21-1.771-1.987-6.315 1.753-9.747 3.436-3.149 11.268-3.488 16.592-2.777 5.119.672 8.181 3.127 7.077 6.376-1.105 3.249-7.907 7.665-7.907 7.665Z"/>
  <path fill="#000" d="M131.589 117.002s5.196-4.515 5.488-6.87c.292-2.355-4.804-3.988-8.024-4.488-4.991-.772-8.234-.1-10.625 2.655-2.39 2.755 13.161 8.703 13.161 8.703Z" opacity=".1"/>
  <path fill="#65BEDC" d="M131.589 117.002s-6.779-8.398-13.914-8.481l1.227 4.943s4.19-.472 12.372 5.038l.315-1.5Z"/>
  <path fill="#263238" d="M117.026 113.775a9.456 9.456 0 0 1 3.828.045c1.256.236 2.48.609 3.646 1.111a29.644 29.644 0 0 1 3.408 1.699l1.613 1.005 1.572 1.072.175.117.169-.106a32.76 32.76 0 0 0 3.507-2.604 18.01 18.01 0 0 0 1.578-1.483c.499-.515.947-1.073 1.338-1.667a19.324 19.324 0 0 1-3.173 2.888 56.78 56.78 0 0 1-1.753 1.245c-.585.399-1.204.805-1.812 1.171h.339l-1.578-1.11c-.538-.35-1.093-.689-1.642-1.028-.55-.339-1.169-.622-1.718-.911a13.049 13.049 0 0 0-1.8-.772 16.235 16.235 0 0 0-3.805-.977c-.327-.05-.654-.061-.982-.089-.327-.028-.66 0-.987 0a5.888 5.888 0 0 0-1.923.394Z"/>
  <path fill="#263238" d="M115.465 117.163a20.747 20.747 0 0 0 3.437-3.699 19.103 19.103 0 0 0-1.835 1.75 18.027 18.027 0 0 0-1.602 1.949Z"/>
  <path fill="#65BEDC" d="M128.358 115.197a35.173 35.173 0 0 0-.474 6.382c0 1.488.789 6.809 2.525 6.57 1.736-.239-1.204-3.632-1.788-6.409-.585-2.777.14-4.888.192-6.576l-.455.033Z"/>
  <path fill="#000" d="M128.358 115.197a35.173 35.173 0 0 0-.474 6.382c0 1.488.789 6.809 2.525 6.57 1.736-.239-1.204-3.632-1.788-6.409-.585-2.777.14-4.888.192-6.576l-.455.033Z" opacity=".1"/>
  <path fill="#65BEDC" d="M134.71 114.669a32.363 32.363 0 0 1 1.473 5.627c.234 1.333.426 6.204-1.169 6.248-1.595.044.485-3.405.544-5.993.058-2.588-.936-4.349-1.257-5.848l.409-.034Z"/>
  <path fill="#000" d="M134.71 114.669a32.363 32.363 0 0 1 1.473 5.627c.234 1.333.426 6.204-1.169 6.248-1.595.044.485-3.405.544-5.993.058-2.588-.936-4.349-1.257-5.848l.409-.034Z" opacity=".1"/>
  <path fill="#263238" d="M121.538 95.852c.07 1.192.027 2.387-.129 3.571-.251.922-2.425 1.883-2.425 1.883s2.478.839 3.185.678c.707-.161 1.841-1.878 1.841-1.878s-1.047 2.75-2.052 2.894c-.631.089 1.531.111 1.531.111a2.985 2.985 0 0 0 1.888-.833c.736-.789-3.839-6.426-3.839-6.426Z"/>
  <path fill="#F7A9A0" d="M132.934 115.164c-2.636.672-7.306-3.061-9.199-6.11-.129-.211.152-2.477.351-5.249.111-1.666.198-3.554.146-5.27l11.402 2.288a26.158 26.158 0 0 0-.9 6.615c.01.236.044.47.099.7v.116c.292 1.333.649 6.265-1.899 6.91Z"/>
  <path fill="#263238" d="M134.733 107.433c.011.205.039.409.082.611-5.61-.745-8.865-3.522-10.636-5.866a48.31 48.31 0 0 0 .058-3.66l11.396 2.305a26.307 26.307 0 0 0-.9 6.61Z"/>
  <path fill="#F7A9A0" d="M121.391 86.5c-.853 3.887 2.338 14.701 5.4 16.9 4.465 3.188 11.25 2.938 13.968-2.049 2.63-4.832-1.754-18.829-5.155-20.778-4.996-2.866-12.95.156-14.213 5.926Z"/>
  <path fill="#263238" d="M131.788 92.22s-.053.05-.041.078c.234.722.374 1.588-.251 2.01v.04c.836-.334.631-1.49.292-2.128Z"/>
  <path fill="#263238" d="M130.882 91.637c-1.256.233-.678 2.604.491 2.388 1.169-.217.567-2.583-.491-2.388Zm5.523-.683s.07 0 .076.05c.152.738.462 1.566 1.221 1.666v.044c-.9.061-1.274-1.038-1.297-1.76Z"/>
  <path fill="#263238" d="M136.908 90.031c1.221-.366 1.899 1.989.765 2.322-1.134.333-1.788-2.016-.765-2.322Zm-7.276.739c.307-.168.604-.353.888-.555.339-.211.631-.344.795-.711a.488.488 0 0 0-.011-.333.517.517 0 0 0-.223-.256 1.416 1.416 0 0 0-1.35.161 1.865 1.865 0 0 0-.912 1.039.534.534 0 0 0 .184.577.614.614 0 0 0 .629.078Zm7.948-2.144h-1.052a1.78 1.78 0 0 1-1.07-.222.496.496 0 0 1-.117-.617c.14-.184.329-.33.548-.422.219-.092.459-.126.697-.1a2 2 0 0 1 1.344.44.533.533 0 0 1-.065.803.6.6 0 0 1-.285.118Zm-4.436 10.397c.228.134.467.328.754.29a2.13 2.13 0 0 0 .789-.373s.052 0 .041.034a1.025 1.025 0 0 1-.352.424 1.095 1.095 0 0 1-.531.192.89.89 0 0 1-.467-.149.821.821 0 0 1-.304-.368c-.018-.038.035-.066.07-.05Z"/>
  <path fill="#263238" d="M133.419 96.641c.267.248.585.44.933.565.349.125.722.18 1.094.163a3.774 3.774 0 0 0 1.134-.228l.164-.061a.195.195 0 0 0 .094-.081.183.183 0 0 0 .023-.12s0-.05-.03-.071v-.067a21.832 21.832 0 0 0-.391-1.416c.245.055 1.473.283 1.379 0-.754-2.416-1.589-5.105-2.875-7.354a.072.072 0 0 0-.038-.038.078.078 0 0 0-.056 0 .07.07 0 0 0-.039.036.064.064 0 0 0-.002.052c.626 2.35 1.684 4.577 2.338 6.926a5.038 5.038 0 0 0-1.327-.089c-.081.045.55 1.633.585 1.894a.065.065 0 0 1 0 .028 3.922 3.922 0 0 1-2.922-.206c-.076-.044-.129.023-.064.067Z"/>
  <path fill="#263238" d="M135.99 97.085a3.163 3.163 0 0 1-1.081 1.155 1.516 1.516 0 0 1-.853.2c-.655-.028-.76-.583-.76-1.072.014-.258.062-.513.14-.76a4.34 4.34 0 0 0 2.554.477Z"/>
  <path fill="#FF9CBD" d="M134.909 98.24a1.516 1.516 0 0 1-.853.2c-.655-.027-.76-.583-.76-1.072.333-.048.673.012.966.17.293.158.521.406.647.702Z"/>
  <path fill="#263238" d="M122.922 96.49c1.982-.921 1.754-7.775 1.754-7.775l1.093 3.588a8.788 8.788 0 0 0 1.817-3.277 6.277 6.277 0 0 0-.514-3.638s2.747 1.905 5.534 2.122c1.029.078 8.246-1.194 8.182-1.616-.24-1.272-3.951-5.327-5.99-6.193-2.338-.994-5.581-1.789-9.596.516-4.015 2.305-4.646 5.138-4.898 7.293-.251 2.155 1.888 9.32 2.618 8.98Z"/>
  <path fill="#F7A9A0" d="M124.723 95.23s-3.022-3.266-4.611-2.222c-1.59 1.045.981 5.988 3.05 6.482a2.137 2.137 0 0 0 1.588-.138c.241-.123.454-.292.625-.495.171-.204.297-.438.37-.689l-1.022-2.938Z"/>
  <path fill="#263238" d="M120.883 94.425v.05c1.455.389 2.337 1.538 2.992 2.777a1.094 1.094 0 0 0-.362-.302 1.157 1.157 0 0 0-.937-.061 1.121 1.121 0 0 0-.402.252c-.035.027 0 .077.047.066a1.3 1.3 0 0 1 1.414.267c.296.284.556.6.778.938.081.112.298 0 .233-.11v-.028c-.175-1.667-1.835-3.883-3.763-3.85Z"/>
  <path fill="#65BEDC" d="M130.596 78.607a17.577 17.577 0 0 0-4.862-.5c-1.83.094-7.382 1.489-8.521 2.777-1.14 1.288-.526 6.41-.421 7.154.105.744 1.309 5.143 3.22 5.926 1.911.783.585-6.826 2.805-9.803 2.221-2.977 7.779-5.554 7.779-5.554Z"/>
  <path fill="#000" d="M130.596 78.613s-5.581 2.588-7.779 5.554c-2.197 2.966-.9 10.58-2.811 9.803-.835-.344-1.338-.983-1.876-2.116-.07-2.278.211-5.876 1.695-8.593 1.385-2.543 4.301-4.215 7.598-5.16 1.071.085 2.132.256 3.173.512Z" opacity=".1"/>
  <path fill="#65BEDC" d="M121.339 98.412c-.234-2.049.882-7.825 2.548-11.319 1.665-3.493 7.983-6.46 8.924-6.57 2.285-.272 3.173.244 3.506 0 .333-.245-2.337-1.46-3.021-1.71-.684-.25-2.583-.812-3.559-.617-.976.194-6.96 1.8-8.673 4.665-1.712 2.866-3.506 10.264-2.606 11.93.222.4.865.556 1.169 1.111.397.744.748 1.622 1.104 2.133.292.377.631.544.608.377Z"/>
  <path fill="#263238" d="M124.144 85.605a10.954 10.954 0 0 1-1.666-.772 8 8 0 0 1-1.507-1.055c0-.028-.082 0-.053.044.402.48.881.896 1.42 1.233a5.36 5.36 0 0 0 1.753.661c.094.011.111-.078.053-.111Zm-3.214 10.78c-.088-.133-.211-.244-.31-.372a2.467 2.467 0 0 1-.298-.466 4.842 4.842 0 0 0-.427-.939 3.827 3.827 0 0 0-.625-.583 1.376 1.376 0 0 1-.584-.745c0-.044-.082-.033-.071 0 .111.611.632.972 1.011 1.433.195.32.361.654.497 1 .148.316.401.577.719.745.053.027.123-.023.088-.073Zm.315-2.305c-.245-.2-.502-.366-.73-.555a6.808 6.808 0 0 1-.585-.678c-.181-.233-.344-.477-.526-.71-.181-.234-.455-.556-.654-.828 0-.039-.082 0-.053.044.205.3.351.634.544.939.177.262.372.512.584.75.189.232.403.446.637.638.232.203.505.36.801.461 0 0 0-.05-.018-.06Zm.392-2.11a6.148 6.148 0 0 1-1.397-1.039 23.68 23.68 0 0 1-1.134-1.25c0-.033-.082 0-.064.034.285.504.63.976 1.029 1.405.2.207.424.393.666.555.272.155.562.278.865.367.035.006.07-.05.035-.072Zm.473-2.033a2.197 2.197 0 0 1-.666-.444 16.382 16.382 0 0 1-.666-.6c-.205-.2-.421-.389-.625-.589a1.974 1.974 0 0 1-.526-.672.042.042 0 0 0-.013-.014.038.038 0 0 0-.039 0 .034.034 0 0 0-.013.014c.074.273.208.529.392.75.19.253.403.489.637.705.228.213.47.412.724.594.216.182.486.297.772.328.053.017.105-.055.023-.072Zm.146-2.505c-.234-.15-.461-.3-.684-.466a11.453 11.453 0 0 1-.631-.517c-.204-.178-.444-.372-.648-.555-.03-.034-.076 0-.053.044.159.235.337.458.532.667.201.196.414.382.637.555.221.175.455.335.701.478.233.16.497.275.777.338a.048.048 0 0 0 .031-.002.047.047 0 0 0 .023-.02.043.043 0 0 0 .004-.03.045.045 0 0 0-.017-.025 4.2 4.2 0 0 0-.672-.467Zm3.291-3.26c-.258-.211-.509-.417-.784-.605a8.536 8.536 0 0 0-.882-.522 9.115 9.115 0 0 0-1.853-.773c-.035 0-.07.04-.029.062 1.169.644 2.338 1.238 3.507 1.894a.035.035 0 0 0 .026.005.034.034 0 0 0 .023-.014.03.03 0 0 0 .006-.025.033.033 0 0 0-.014-.022Zm.952-1.95a4.526 4.526 0 0 0-.847-.527 9.87 9.87 0 0 0-2.005-.644c-.041 0-.07.044 0 .06.62.256 1.239.495 1.841.784.299.136.59.288.871.455.281.172.514.4.789.556 0 0 .053 0 .041-.034a2.531 2.531 0 0 0-.69-.65Zm1.619-1.099a4.417 4.417 0 0 0-.795-.556 5.438 5.438 0 0 0-1.718-.594c-.041 0-.053.05 0 .061.575.207 1.13.46 1.66.756.263.15.52.31.783.466.263.156.491.372.76.506 0 0 .041 0 .029-.04a5.32 5.32 0 0 0-.719-.6Zm1.087-1.233c-.257-.134-.52-.25-.783-.372a3.028 3.028 0 0 0-.812-.267.034.034 0 0 0-.025.01.032.032 0 0 0-.011.023c0 .01.004.018.011.024.006.006.015.01.025.01.496.255.993.516 1.484.783.438.27.843.585 1.21.938v-.027a2.702 2.702 0 0 0-1.099-1.122Zm1.525-.6a4.643 4.643 0 0 0-1.578-.594c-.041 0-.058.055 0 .066a5.685 5.685 0 0 1 1.467.7c.453.295.87.636 1.245 1.017h.047a3.553 3.553 0 0 0-1.181-1.189Zm2.262.539a2.801 2.801 0 0 0-.24-.272 3.457 3.457 0 0 0-.584-.467 8.002 8.002 0 0 0-1.373-.672c-.047 0-.071.044 0 .061.462.187.9.425 1.303.711.205.139.401.291.584.455.082.084.164.167.24.256.07.091.148.177.234.255 0 0 .064 0 .052-.033a.894.894 0 0 0-.216-.294Zm1.297-.111a5.08 5.08 0 0 0-.473-.39 6.139 6.139 0 0 0-.52-.327c-.187-.1-.374-.194-.555-.3-.047 0-.082.034-.035.061.188.1.366.215.531.345l.48.35.479.355c.152.132.312.254.479.367.029 0 .059 0 .041-.04a2.483 2.483 0 0 0-.427-.421Z"/>
  <path fill="#fff" d="M209.538 74.691c19.036 0 34.468-14.666 34.468-32.758 0-18.091-15.432-32.758-34.468-32.758-19.037 0-34.469 14.666-34.469 32.758 0 18.092 15.432 32.758 34.469 32.758Z"/>
  <path fill="#65BEDC" d="M209.538 74.969c-6.873-.007-13.59-1.95-19.302-5.584-5.712-3.634-10.162-8.796-12.788-14.833a31.52 31.52 0 0 1-1.963-19.084c1.345-6.406 4.658-12.29 9.521-16.906 4.863-4.617 11.057-7.76 17.799-9.032a36.45 36.45 0 0 1 20.079 1.886c6.349 2.501 11.776 6.735 15.594 12.167 3.818 5.432 5.856 11.818 5.856 18.35-.011 8.764-3.681 17.166-10.206 23.36-6.524 6.195-15.368 9.674-24.59 9.676Zm0-65.538c-6.757.006-13.36 1.917-18.975 5.489-5.615 3.571-9.99 8.645-12.572 14.58a30.984 30.984 0 0 0-1.935 18.76c1.321 6.298 4.576 12.082 9.355 16.622 4.779 4.54 10.866 7.632 17.493 8.885a35.84 35.84 0 0 0 19.74-1.845c6.243-2.456 11.58-6.615 15.337-11.953 3.757-5.338 5.764-11.614 5.769-18.036-.011-8.617-3.62-16.877-10.035-22.967-6.414-6.09-15.11-9.511-24.177-9.513v-.022Z"/>
  <path fill="#65BEDC" d="M209.538 79.49c-7.817 0-15.459-2.203-21.958-6.33-6.5-4.129-11.566-9.995-14.557-16.86-2.992-6.863-3.774-14.416-2.248-21.702 1.525-7.287 5.29-13.98 10.818-19.233s12.571-8.83 20.238-10.278a41.442 41.442 0 0 1 22.836 2.14c7.222 2.843 13.395 7.659 17.737 13.836 4.342 6.178 6.659 13.44 6.658 20.87-.012 9.958-4.181 19.505-11.59 26.546-7.41 7.04-17.456 11-27.934 11.01Zm0-74.008c-7.586 0-15.001 2.138-21.308 6.143-6.308 4.005-11.224 9.698-14.127 16.359a34.781 34.781 0 0 0-2.183 21.06c1.48 7.072 5.133 13.567 10.497 18.664 5.364 5.098 12.199 8.57 19.639 9.976a40.218 40.218 0 0 0 22.16-2.074c7.009-2.759 12.999-7.431 17.213-13.425 4.215-5.995 6.464-13.042 6.464-20.252-.011-9.664-4.055-18.93-11.246-25.763-7.19-6.834-16.94-10.678-27.109-10.688Z"/>
  <path fill="#263238" d="M198.236 1.938s5.943-4.61 14.125.39c8.182 4.998 6.586 25.703 5.213 28.836 0 0-15.779 6.431-29.326.205 0 0 8.141-14.918 7.264-22.216-.508-4.227 2.724-7.215 2.724-7.215Z"/>
  <path fill="#263238" d="m194.659 14.752-.152.416a30.475 30.475 0 0 1-2.56 4.999 18.614 18.614 0 0 1-3.401 4.176c-.035.034-.094 0-.059-.05a16.652 16.652 0 0 0 3.18-4.443 45.649 45.649 0 0 0 2.244-4.826 41.523 41.523 0 0 0 2.659-10.475c0-.073.134-.067.134 0 0 .5-.052 1-.093 1.494a.06.06 0 0 1 .064.007.052.052 0 0 1 .018.027 46.68 46.68 0 0 1-1.754 9.84 36.203 36.203 0 0 1-4.371 8.943 45.918 45.918 0 0 1-3.384 4.515s-.052 0-.035-.033a46.753 46.753 0 0 0 7.51-14.59ZM210.678 1.46c7.486 4.716 9.35 13.542 9.017 21.306a35.095 35.095 0 0 1-.982 7.104.038.038 0 0 1-.015.018.044.044 0 0 1-.023.006.044.044 0 0 1-.023-.006.038.038 0 0 1-.015-.018c.715-4.086.799-8.249.251-12.358-.531-3.849-1.484-7.842-3.664-11.23a15.247 15.247 0 0 0-4.605-4.699c-.07-.061-.012-.167.059-.122Z"/>
  <path fill="#EB9481" d="M206.931 36.501c-5.417 13.191-22.704 28.576-28.566 29.081-6.837.584-21.003-6.875-27.841-15.912-1.619-2.144 12.857-12.336 15.318-10.742 5.025 3.272 10.986 7.715 11.799 7.776 1.613.117 12.366-7.881 20.945-13.596 10.648-7.11 10.479-1.866 8.345 3.393Z"/>
  <path fill="#EB9481" d="M152.581 52.064s-6.265-6.149-6.931-11.936c-.456-4.01 0-14.635 10.116-21.827 2.402-1.711 7.107-2.522 4.243 1.621-2.034 2.944-4.26 4.227-5.113 6.143 0 0 6.107-.355 7.813 2a52.791 52.791 0 0 1 3.998 6.476 11.83 11.83 0 0 1-1.204.822s1.373 2.343.42 6.32l-13.342 10.38Z"/>
  <path fill="#A6A6A6" d="m167.554 14.18 6.949 20.977a.736.736 0 0 1 .029.774.787.787 0 0 1-.29.292.837.837 0 0 1-.406.112l-11.565.638a1.952 1.952 0 0 1-.994-.293 1.822 1.822 0 0 1-.678-.75l-6.948-20.984a.74.74 0 0 1-.127-.387.738.738 0 0 1 .1-.393c.07-.12.174-.22.299-.29a.832.832 0 0 1 .412-.102l11.559-.639c.352.008.695.11.989.294a1.8 1.8 0 0 1 .671.75Z"/>
  <path fill="#C7C7C7" d="m166.181 14.24 6.948 20.984a.725.725 0 0 1 .028.778.772.772 0 0 1-.296.289.833.833 0 0 1-.41.105l-11.565.638a1.937 1.937 0 0 1-.996-.29 1.804 1.804 0 0 1-.676-.754l-6.936-20.978c-.281-.616 0-1.138.666-1.177l11.559-.639c.355.007.7.109.997.293.297.185.533.445.681.752Z"/>
  <path fill="#263238" d="M163.101 15.39a.9.9 0 0 0 .209.504.98.98 0 0 0 .468.31c.185.056.383.06.57.009a.986.986 0 0 0 .479-.293.893.893 0 0 0 .126-1.03.955.955 0 0 0-.395-.39 1.026 1.026 0 0 0-1.228.209.892.892 0 0 0-.229.681Z"/>
  <path fill="#EB9481" d="M146.27 34.43c1.274-1.733 4.032-5.36 7.375-7.582 3.717-2.466 11.566-6.265 13.441-3.643 1.38 1.927-1.484 3.627-1.484 3.627s3.594-.922 4.447 1.077c.778 1.822-1.525 3.01-1.525 3.01s2.285-.2 2.677 1.667c.467 2.277-4.389 2.327-6.008 4.998-.339.65-18.923-3.154-18.923-3.154Z"/>
  <path fill="#263238" d="M155.737 31.014c1.473-1.444 5.71-3.888 9.801-4.221.093 0 .146.055.064.078a45.775 45.775 0 0 0-9.842 4.176l-.023-.033Zm2.729 3.493c1.409-1.11 5.897-3.471 10.046-3.66.094 0 .147.061.065.083a49.145 49.145 0 0 0-10.093 3.61s-.058 0-.018-.033Zm7.557 2.189c0 1.277-.035 2.516-.158 3.749a17.885 17.885 0 0 1-.28 1.833 15.505 15.505 0 0 1-.526 1.81 6.535 6.535 0 0 0 1.385-3.593c.061-.64.061-1.283 0-1.922a7.684 7.684 0 0 0-.421-1.877Z"/>
  <path fill="#65BEDC" d="m199.562 50.153-10.677-11.33s8.491-6.92 14.645-9.537c6.154-2.616 7.013 1.156 4.313 6.843-2.7 5.688-8.281 14.024-8.281 14.024Z"/>
  <path fill="#000" d="m199.562 50.153-10.677-11.33s8.491-6.92 14.645-9.537c6.154-2.616 7.013 1.156 4.313 6.843-2.7 5.688-8.281 14.024-8.281 14.024Z" opacity=".1"/>
  <path fill="#000" d="m191.737 41.822 7.843 8.331s5.575-8.331 8.281-14.024c2.028-4.276 2.051-7.47-.684-7.676l-15.44 13.369Z" opacity=".1"/>
  <path fill="#263238" d="M191.942 37.101c1.805 1.61 6.568 6.11 9.239 9.48 0 0-.064.09-.082.073-2.682-2.444-7.597-7.687-9.274-9.442-.03-.039.081-.144.117-.11Z"/>
  <path fill="#65BEDC" d="M231.781 66.954c-5.761 4.623-12.958 7.324-20.488 7.69-7.53.364-14.978-1.626-21.204-5.668 1.648-8.137 6.68-34.74 12.167-40.056 2.198-2.127 6.359-2.022 8.837-1.227 1.928.622 5.166 1.544 11.641 13.602 3.033 5.66 6.645 17.19 9.047 25.66Z"/>
  <path fill="#EB9481" d="M203.326 35.252c2.63.3 6.58-3.888 7.954-7.087.093-.222-.503-2.36-1.093-4.999-.351-1.6-.702-3.388-.9-5.043-.041-.339-10.619 3.699-10.619 3.699a25.467 25.467 0 0 1 1.835 6.243c.02.229.02.46 0 .688v.112c-.082 1.316.286 6.098 2.823 6.387Z"/>
  <path fill="#263238" d="M208.621 18.245c-.176 2.85-1.199 9.803-7.013 10.553a6.66 6.66 0 0 1-1.123.061.413.413 0 0 1 0-.111c.021-.23.021-.46 0-.689a25.539 25.539 0 0 0-1.817-6.243s7.632-2.904 9.953-3.57Z"/>
  <path fill="#EB9481" d="M210.654 6.948c1.169 3.71-.958 14.396-3.74 16.762-4.038 3.438-10.619 3.733-13.681-.872-2.969-4.443.053-18.328 3.162-20.494 4.576-3.166 12.535-.872 14.259 4.604Z"/>
  <path fill="#263238" d="M201.923 11.175a9.85 9.85 0 0 1-.964-.328 1.641 1.641 0 0 1-.912-.511.481.481 0 0 1-.066-.316.499.499 0 0 1 .148-.29 1.37 1.37 0 0 1 1.315-.122c.459.125.854.408 1.104.795a.53.53 0 0 1-.072.562.584.584 0 0 1-.246.177.612.612 0 0 1-.307.033Zm-7.907-1.228c.34-.007.68-.031 1.017-.072.364.022.725-.07 1.029-.26a.482.482 0 0 0 .082-.605 1.305 1.305 0 0 0-.553-.386 1.365 1.365 0 0 0-.681-.065 1.958 1.958 0 0 0-1.279.483.525.525 0 0 0-.091.562.554.554 0 0 0 .188.234.62.62 0 0 0 .288.11Zm5.558 10.392a1.233 1.233 0 0 1-.719.311 2.16 2.16 0 0 1-.777-.322h-.041c.082.16.208.295.364.393.156.098.337.154.524.162a.857.857 0 0 0 .449-.173.787.787 0 0 0 .27-.382c.018.017-.035-.011-.07.011Zm-.38-2.299a2.604 2.604 0 0 1-.879.591 2.72 2.72 0 0 1-1.056.203 3.354 3.354 0 0 1-.935-.122.803.803 0 0 1-.175-.05l-.164-.05a.19.19 0 0 1-.091-.076.18.18 0 0 1-.026-.113.435.435 0 0 1 0-.072v-.061c.094-.556.31-1.394.31-1.394-.234.066-1.408.344-1.338.055a36.451 36.451 0 0 1 2.425-7.248.071.071 0 0 1 .088-.044.066.066 0 0 1 .041.032.065.065 0 0 1 .006.051c-.491 2.305-1.403 4.51-1.941 6.815.42-.106.853-.152 1.286-.139.082.033-.45 1.6-.467 1.855a.034.034 0 0 0 0 .028 3.822 3.822 0 0 0 2.822-.328c.1-.039.146.017.094.067Z"/>
  <path fill="#263238" d="M196.722 18.495c.245.45.607.832 1.052 1.11.247.15.538.218.829.195.632-.044.749-.555.725-1.038a2.916 2.916 0 0 0-.14-.74 4.208 4.208 0 0 1-2.466.473Z"/>
  <path fill="#FF98B9" d="M197.774 19.606a1.4 1.4 0 0 0 .83.194c.631-.044.748-.555.724-1.038a1.506 1.506 0 0 0-.931.165 1.395 1.395 0 0 0-.623.679Z"/>
  <path fill="#263238" d="M193.806 12.352c.086-.17.217-.318.38-.427a.828.828 0 0 1 .625-.084c.107.03.205.082.287.155a.662.662 0 0 1 .18.262c.067.178.087.368.059.555a2.1 2.1 0 0 1-.076.322c-.059.224-.176.43-.339.6.058-.156.097-.318.117-.483.021-.15.031-.3.029-.45 0-.305-.117-.583-.357-.633-.239-.05-.485.067-.666.322a4.82 4.82 0 0 0-.456.85c-.01-.341.064-.68.217-.989Zm5.832 1.144c.056-.18.163-.341.31-.466a.827.827 0 0 1 .613-.167.76.76 0 0 1 .303.121c.09.062.164.142.217.235.092.172.138.362.135.555a2.19 2.19 0 0 1-.029.333 1.372 1.372 0 0 1-.252.633 2.05 2.05 0 0 0 .047-.494 2.21 2.21 0 0 0-.041-.444c-.053-.306-.193-.556-.438-.589-.246-.033-.474.133-.614.405-.145.29-.257.593-.333.906a2.04 2.04 0 0 1 .082-1.028Zm8.795 3.41c-.584-.555-1.168-4.193-1.168-4.193s-6.961-3.038-7.452-9.197c0 0-3.348 3.848-6.381 4.487 0 0 .491-6.587 6.65-7.131 0 0 5.844-2.033 10.596 3.638 4.751 5.67-.404 12.624-.404 12.624l-1.841-.228Z"/>
  <path fill="#263238" d="M200.041 2.366a5.542 5.542 0 0 0 .035 3.082c.243 1.004.636 1.97 1.169 2.866.523.928 1.2 1.77 2.005 2.494a13.05 13.05 0 0 0 3.249 1.822c.035 0 0 .072-.029.06a15.039 15.039 0 0 1-3.46-1.749 9.92 9.92 0 0 1-2.215-2.504 7.604 7.604 0 0 1-1.28-3.05 6.365 6.365 0 0 1 .403-3.06c.03-.067.152-.033.123.039Z"/>
  <path fill="#EB9481" d="M207.604 15.53s2.635-3.394 4.26-2.495c1.625.9-.421 5.871-2.379 6.51a2.056 2.056 0 0 1-1.547-.006 1.973 1.973 0 0 1-.647-.43 1.867 1.867 0 0 1-.418-.636l.731-2.944Z"/>
  <path fill="#263238" d="M211.244 14.446v.05c-1.373.489-2.121 1.666-2.653 2.9.083-.128.194-.236.325-.319a1.15 1.15 0 0 1 .9-.135c.151.041.292.112.412.209a.038.038 0 0 1 .01.05.041.041 0 0 1-.051.017 1.276 1.276 0 0 0-.734-.017 1.217 1.217 0 0 0-.61.389 5.403 5.403 0 0 0-.667 1.01c-.07.112-.286.045-.239-.083v-.033c.029-1.644 1.437-3.938 3.307-4.038Zm-12.932 7.276a1.584 1.584 0 0 0 1.502-.072c.114.428.044.881-.193 1.26l-.029-.444a2.89 2.89 0 0 1-.515 1.383 1.692 1.692 0 0 1-.421-.889l.03.556a2.01 2.01 0 0 1-.374-1.794Z"/>
  <path fill="#EB9481" d="M216.627 39.828c-2.957 17.218-10.326 28.354-13.774 28.881-9.281 1.455-24.966-12.963-29.647-16.35-1.894-1.367 13.54-13.642 15.364-11.959 4.301 3.955 10.081 10.17 10.385 10.236.584.14 2.793-3.77 10.204-14.83 5.996-8.93 8.672-3.01 7.468 4.022Z"/>
  <path fill="#EB9481" d="M164.614 23.838c-1.285 1.855 3.799 4.443 3.799 4.443a4.42 4.42 0 0 0-2.747.967c-1.303 1.15 0 3.593 0 3.593a5.382 5.382 0 0 0-2.729 1.455c-1.134 1.217-.169 3.888-.169 3.888a4.536 4.536 0 0 0-1.549 2.722c-.585 4.693 10.198 11.413 13.704 12.708l14.149-12.147s-5.26-11.153-9.526-14.035c-2.355-1.595-12.974-6.432-14.932-3.594Z"/>
  <path fill="#263238" d="M168.495 28.281c3.045.872 5.844 2.438 8.567 3.977a.05.05 0 0 1 .023.032.05.05 0 0 1-.008.037.054.054 0 0 1-.034.022.053.053 0 0 1-.039-.008c-2.671-1.555-5.844-2.471-8.574-3.927-.07-.039-.023-.155.065-.133Zm-2.612 4.444a8.256 8.256 0 0 1 1.893 1.021c.635.404 1.266.82 1.894 1.25a81.03 81.03 0 0 1 3.681 2.644c.053.039 0 .128-.058.089a105.514 105.514 0 0 0-3.787-2.477l-1.94-1.178a9.924 9.924 0 0 1-1.794-1.2.102.102 0 0 1-.011-.053.108.108 0 0 1 .02-.052.109.109 0 0 1 .045-.035.113.113 0 0 1 .057-.01Zm-3.045 5.498a5.694 5.694 0 0 1 1.642 1.01c.584.4 1.128.795 1.695 1.19 1.128.788 2.262 1.571 3.419 2.321.058.039 0 .128-.059.089-1.169-.755-2.372-1.494-3.547-2.26l-1.724-1.111a5.423 5.423 0 0 1-1.467-1.156.045.045 0 0 1-.023-.06.046.046 0 0 1 .027-.025.05.05 0 0 1 .037.002Z"/>
  <path fill="#263238" d="M185.63 61.9a217.509 217.509 0 0 1-5.546-3.888 93.083 93.083 0 0 1-2.694-2.05 51.973 51.973 0 0 1-2.601-2.176l.058.033a48.389 48.389 0 0 1-5.119-2.71 36.17 36.17 0 0 1-4.675-3.333 13.009 13.009 0 0 1-3.618-4.443 5.173 5.173 0 0 1-.391-2.866c.078-.5.271-.976.566-1.395.295-.42.685-.773 1.14-1.032l-.134.322a6.814 6.814 0 0 1-.409-1.822 3.655 3.655 0 0 1 .303-1.883c.146-.292.344-.56.585-.788.233-.233.498-.435.789-.6a4.044 4.044 0 0 1 1.911-.555l-.193.35a5.021 5.021 0 0 1-.69-1.667 2.347 2.347 0 0 1 .293-1.788c.363-.511.886-.9 1.496-1.111a5.904 5.904 0 0 1 1.811-.344l-.07.288c-.681-.35-1.334-.75-1.952-1.194a7.547 7.547 0 0 1-1.654-1.555 2.166 2.166 0 0 1-.438-1.039 1.32 1.32 0 0 1 .066-.56c.063-.18.163-.347.296-.49a2.59 2.59 0 0 1 1-.547 2.681 2.681 0 0 1 1.151-.074 2.645 2.645 0 0 0-1.117.116 2.547 2.547 0 0 0-.952.567 1.219 1.219 0 0 0-.304.972c.065.349.22.677.45.955a7.142 7.142 0 0 0 1.619 1.433c.622.411 1.272.782 1.946 1.111l.52.255-.584.034a5.604 5.604 0 0 0-1.683.355 2.73 2.73 0 0 0-1.298.978 1.983 1.983 0 0 0-.198 1.51c.128.528.35 1.031.654 1.489l.217.322h-.415a3.795 3.795 0 0 0-1.654.511c-.25.144-.478.32-.678.522-.202.196-.37.42-.497.667a3.19 3.19 0 0 0-.24 1.666 6.35 6.35 0 0 0 .386 1.666l.082.206-.21.116a2.81 2.81 0 0 0-.93.867 3.225 3.225 0 0 0-.467 1.194 4.658 4.658 0 0 0 .38 2.566 12.727 12.727 0 0 0 3.448 4.27 35.438 35.438 0 0 0 4.611 3.333 56.483 56.483 0 0 0 5.026 2.777h.035c1.619 1.528 3.395 2.927 5.16 4.316a301.033 301.033 0 0 0 5.412 4.143Zm2.939-21.489a31.96 31.96 0 0 1 1.724 1.461 68.678 68.678 0 0 1 1.637 1.539 48.182 48.182 0 0 1 3.044 3.271 35.717 35.717 0 0 1-1.718-1.46 71.152 71.152 0 0 1-1.642-1.54 41.005 41.005 0 0 1-1.566-1.604c-.509-.55-1.011-1.083-1.479-1.667Z"/>
  <path fill="#65BEDC" d="m214.809 53.797-14.242-6.949s5.324-9.347 10.081-13.885c4.758-4.538 7.013-1.31 6.604 4.921-.409 6.232-2.443 15.913-2.443 15.913Z"/>
  <path fill="#000" d="m214.809 53.797-14.242-6.949s5.324-9.347 10.081-13.885c4.758-4.538 7.013-1.31 6.604 4.921-.409 6.232-2.443 15.913-2.443 15.913Z" opacity=".1"/>
  <path fill="#263238" d="M203.11 44.222c2.296.894 8.444 3.493 12.196 5.71 0 0 0 .105-.046.094-3.419-1.367-10.017-4.583-12.215-5.671-.041-.017.024-.15.065-.133Z"/>
  <path fill="#65BEDC" d="m185.213 70.768-29.504 29.486.847.765 29.504-29.485-.847-.766Z"/>
  <path fill="#fff" d="M80.03 89.943c4.486-17.582-6.875-35.291-25.375-39.555-18.5-4.263-37.134 6.534-41.62 24.116-4.486 17.582 6.875 35.292 25.375 39.555 18.5 4.263 37.134-6.534 41.62-24.116Z"/>
  <path fill="#65BEDC" d="M46.534 115.269c-6.877.003-13.6-1.932-19.32-5.561-5.72-3.628-10.18-8.788-12.813-14.825a31.522 31.522 0 0 1-1.985-19.093c1.34-6.41 4.65-12.3 9.513-16.922 4.862-4.622 11.057-7.77 17.802-9.046a36.456 36.456 0 0 1 20.09 1.88c6.354 2.501 11.784 6.737 15.605 12.172 3.82 5.434 5.858 11.824 5.857 18.36-.012 8.756-3.677 17.15-10.19 23.342-6.514 6.193-15.346 9.678-24.559 9.693Zm0-65.538c-6.76-.003-13.37 1.899-18.993 5.466-5.624 3.566-10.008 8.638-12.598 14.573a30.991 30.991 0 0 0-1.955 18.768c1.315 6.303 4.568 12.092 9.346 16.638 4.778 4.546 10.867 7.642 17.497 8.899a35.839 35.839 0 0 0 19.75-1.839c6.248-2.456 11.588-6.617 15.347-11.957 3.76-5.34 5.767-11.62 5.77-18.045-.01-8.61-3.612-16.865-10.017-22.954-6.404-6.09-15.087-9.518-24.147-9.532v-.017Z"/>
  <path fill="#65BEDC" d="M46.534 119.79c-7.817.001-15.46-2.201-21.96-6.328-6.5-4.127-11.568-9.993-14.56-16.857-2.992-6.864-3.775-14.417-2.25-21.704 1.525-7.286 5.289-13.98 10.817-19.233 5.528-5.254 12.57-8.832 20.238-10.28a41.444 41.444 0 0 1 22.837 2.138c7.222 2.844 13.395 7.66 17.738 13.837 4.342 6.178 6.66 13.441 6.658 20.87-.014 9.957-4.182 19.502-11.59 26.543-7.408 7.04-17.451 11.001-27.928 11.014Zm0-74.008c-7.586 0-15.002 2.136-21.31 6.14-6.308 4.005-11.225 9.698-14.13 16.358C8.192 74.94 7.43 82.27 8.91 89.341c1.479 7.072 5.131 13.567 10.495 18.666 5.364 5.098 12.198 8.57 19.639 9.977a40.216 40.216 0 0 0 22.16-2.073c7.01-2.759 13-7.431 17.215-13.426 4.215-5.994 6.464-13.042 6.464-20.251-.01-9.664-4.054-18.929-11.243-25.762-7.19-6.834-16.938-10.678-27.106-10.69Z"/>
  <path fill="#263238" d="M29.534 39.884s5.686-5.888 13.085-3.716c9.227 2.705 9.555 26.515 10.636 30.886 1.081 4.371 5.05 5.493.55 9.487-4.5 3.993-10.86 5.326-17.358 5.21-6.498-.117-11.42-2.722-12.436-5.455-.584-1.666.771-3.299.988-6.11.14-1.632-4.249-29.258 4.535-30.302Z"/>
  <path fill="#263238" d="M23.514 72.92c.047-1.883.55-3.689.491-5.6-.058-1.91-.584-12.774-.771-14.656-.515-4.76-.147-12.13 6.317-12.636a.1.1 0 0 1 .054.034.092.092 0 0 1 0 .116.1.1 0 0 1-.054.033c-7.948 1.422-5.926 12.103-5.26 22.717.17 2.63.088 5.27-.245 7.886-.49 3.333-.03 6.182 2.782 8.47a.06.06 0 0 1 .009.086.067.067 0 0 1-.09.008 8.075 8.075 0 0 1-2.42-2.866 7.655 7.655 0 0 1-.813-3.593Zm7.282-33.242c3.25-2.66 7.13-4.937 11.612-3.777 3.88 1 6.464 4.271 7.814 7.643 1.887 4.715 1.975 19 4.044 23.66.73 1.666 2.425 3.333 2.39 5.232-.035 1.666-1.397 2.277-2.922 2.683-.082 0-.134-.09-.047-.111 3.711-1.111 2.513-3.533 1.17-5.838a21.107 21.107 0 0 1-2.07-5.082c-.952-3.538-1.443-16.3-2.682-19.772-1.204-3.372-3.413-6.698-7.147-7.998-4.676-1.622-8.615.778-12.139 3.421-.017.034-.064-.027-.023-.06Z"/>
  <path fill="#263238" d="M30.025 39.834c-1.602 1.194-6.528.616-8.398-1.822-2.583-3.36 1.905-9.025 6.376-7.081 4.47 1.944 3.26 7.98 2.022 8.903Z"/>
  <path fill="#263238" d="M22.579 32.041a8.206 8.206 0 0 0-1.987 3.56 2.976 2.976 0 0 0 .134 1.873 3.157 3.157 0 0 0 1.24 1.46c.569.384 1.19.695 1.846.922a9.726 9.726 0 0 0 2.034.555c1.42.214 2.875.02 4.178-.555a6.502 6.502 0 0 1-4.26 1.05 9.285 9.285 0 0 1-2.203-.456 8.522 8.522 0 0 1-2.034-.983 3.887 3.887 0 0 1-1.438-1.766 3.508 3.508 0 0 1-.046-2.221 6.961 6.961 0 0 1 2.536-3.438Z"/>
  <path fill="#65BEDC" d="M5.93 113.586a3.087 3.087 0 0 0-.012.078c.005-.028.005-.05.011-.078Zm18.584 3.155a1.508 1.508 0 0 1-.193.094v-.044l.198-.039-.005-.011Z"/>
  <path fill="#D3766A" d="M32.193 69.693C20.563 80.9 5.929 104.467 8.659 109.243c3.038 5.321 19.233-10.386 19.168-11.302-.047-.695 5.651-14.996 9.97-25.421 4.32-10.425-2.717-5.593-5.604-2.827Z"/>
  <path fill="#65BEDC" d="M27.95 97.957c.49-1.527 8.246-20.406 10.46-26.376 2.216-5.97.164-7.815-6.165-2.35-6.329 5.466-20.203 23.733-23.376 33.43-3.05 9.337 2.004 9.337 8.678 5.032 5.482-3.526 10.403-9.736 10.403-9.736Z"/>
  <path fill="#fff" d="M27.95 97.957c.49-1.527 8.246-20.406 10.46-26.376 2.216-5.97.164-7.815-6.165-2.35-6.329 5.466-20.203 23.733-23.376 33.43-3.05 9.337 2.004 9.337 8.678 5.032 5.482-3.526 10.403-9.736 10.403-9.736Z" opacity=".5"/>
  <path fill="#65BEDC" d="M65.399 109.321c-6.357 3.649-13.67 5.518-21.095 5.391-7.425-.126-14.662-2.244-20.877-6.108l.087-.494 1.666-11.747s-3.927-6.526-1.642-11.202c1.168-2.366 11.25-17.118 15.51-20.045 3.986-2.777 9.771.194 11.928 2.35 7.597 7.62 11.524 22.144 14.423 41.855Z"/>
  <path fill="#fff" d="M65.399 109.321c-6.357 3.649-13.67 5.518-21.095 5.391-7.425-.126-14.662-2.244-20.877-6.108l.087-.494 1.666-11.747s-3.927-6.526-1.642-11.202c1.168-2.366 11.25-17.118 15.51-20.045 3.986-2.777 9.771.194 11.928 2.35 7.597 7.62 11.524 22.144 14.423 41.855Z" opacity=".5"/>
  <path fill="#263238" d="M23.497 108.11c.202-1.966.426-3.93.672-5.893.25-1.96.467-3.927.748-5.882l.046.178a12.814 12.814 0 0 1-2.279-5.404 12.258 12.258 0 0 1-.134-2.927c.114-.977.37-1.933.76-2.844a27.476 27.476 0 0 1 2.88-5.093 45.236 45.236 0 0 1 3.63-4.604 75.536 75.536 0 0 0-3.331 4.782 32.208 32.208 0 0 0-2.689 5.093 9.761 9.761 0 0 0-.695 2.71c-.052.928-.003 1.859.146 2.777a12.318 12.318 0 0 0 2.121 5.194l.065.088v.095a212.317 212.317 0 0 1-.918 5.859c-.333 1.972-.666 3.949-1.022 5.871Z"/>
  <path fill="#263238" d="M26.448 80.273a2.9 2.9 0 0 1 .14-.777 6.73 6.73 0 0 1 .28-.745 8.12 8.12 0 0 1 .375-.7 5.6 5.6 0 0 1 .462-.65c-.157.5-.353.989-.585 1.461-.187.478-.432.933-.672 1.411Zm1.654 15.651c2.342-.182 4.7.017 6.972.59v.044c-1.17-.128-2.303-.256-3.466-.35-1.163-.095-2.337-.15-3.506-.222-.053-.006-.047-.056 0-.062Z"/>
  <path fill="#D3766A" d="M8.67 109.243c2.618 3.56 9.742 4.238 27.514 7.548 2.46.455 10.52-15.168 7.93-15.79-3.272-.778-16.158-3.116-17.123-3.177-8.14-.489-20.097 9.003-18.32 11.419Z"/>
  <path fill="#D3766A" d="M40.561 100.234s7.528 1.078 11.297 2.811c5.05 2.321 8.41 6.298 9.707 8.048 2.712 3.649 6.621 14.251 3.606 15.851-2.735 1.45-6.154-9.581-6.154-9.581s5.44 10.703 1.812 11.875c-3.63 1.172-6.826-11.847-6.826-11.847s5.33 11.108 1.385 11.758c-2.975.489-6.575-11.147-6.575-11.147s4.512 9.581 1.467 10.208c-3.354.695-7.387-9.847-7.387-9.847-8.012.355-11.98-2.588-14.54-4.999-.62-.583 12.208-13.13 12.208-13.13Z"/>
  <path fill="#263238" d="M57.387 113.547c.69 1.239 1.39 2.483 1.963 3.772a41.905 41.905 0 0 1 1.526 3.932c.608 1.731 1 3.525 1.169 5.343-.585-3.205-2.531-7.848-3.098-9.136-.567-1.289-1.07-2.6-1.636-3.888.011-.034.064-.05.076-.023Zm-4.933 1.872c.807 1.611 1.666 3.183 2.396 4.832.73 1.65 1.268 3.255 1.87 4.938.047.128-.04.111-.093 0-.678-1.666-1.438-3.144-2.133-4.793-.696-1.65-1.327-3.333-2.08-4.949-.013-.039.028-.055.04-.028Zm-4.534.878a38.668 38.668 0 0 1 3.067 7.665c.041.127-.07.088-.122-.039-.97-2.566-1.713-4.582-3.034-7.576-.023-.056.059-.1.088-.05Z"/>
  <path fill="#65BEDC" d="m42.128 100.234-15.569 16.507s-15.744-3.438-18.064-7.276C6.964 106.938 18.82 96.691 27.78 97.902l14.348 2.332Z"/>
  <path fill="#fff" d="m42.128 100.234-15.569 16.507s-15.744-3.438-18.064-7.276C6.964 106.938 18.82 96.691 27.78 97.902l14.348 2.332Z" opacity=".5"/>
  <path fill="#263238" d="M17.092 100.551c3.095-2.113 6.899-3.072 10.688-2.694.047 0 .047.078 0 .078-3.903-.106-9.18 1.838-10.653 2.682-.041.017-.07-.038-.035-.066Zm5.207 13.413c1.613-1.9 3.325-3.716 5.049-5.526 1.724-1.811 3.436-3.627 5.207-5.399 1-1 1.993-2.011 3.033-2.977 0 0 .076 0 .053.044-1.607 1.894-3.32 3.722-5.02 5.555a292.55 292.55 0 0 1-5.19 5.42 86.965 86.965 0 0 1-3.027 2.977c-.053.022-.146-.05-.105-.094Z"/>
  <path fill="#263238" d="M42.157 100.018a22.387 22.387 0 0 0-2.922-.628c-.982-.178-1.97-.339-2.957-.489-1.964-.3-6.084-1.144-9.713-1.11-.041 0 .163.183.204.183 1.754-.09 14.096 2.249 15.113 2.316-.04.063-.077.128-.11.194 0 .05 0 .111.087.078s.216-.183.333-.272a.143.143 0 0 0 .081-.057.134.134 0 0 0-.023-.179.15.15 0 0 0-.093-.036Z"/>
  <path fill="#65BEDC" d="M53.816 68.493c14.88 12.335 26.585 27.576 25.825 31.386-1.414 7.092-11.244 7.537-12.734 6.004-6.025-6.204-12.384-18.223-19.286-31.658-6.171-11.964 1.268-9.792 6.195-5.732Z"/>
  <path fill="#fff" d="M53.816 68.493c14.88 12.335 26.585 27.576 25.825 31.386-1.414 7.092-11.244 7.537-12.734 6.004-6.025-6.204-12.384-18.223-19.286-31.658-6.171-11.964 1.268-9.792 6.195-5.732Z" opacity=".5"/>
  <path fill="#263238" d="M64.423 103.111c-1.093-1.605-2.116-3.265-3.162-4.904a273.2 273.2 0 0 1-3.085-4.948c-2.005-3.277-3.863-6.627-5.657-9.998-1.017-1.916-2.046-3.827-3.016-5.765-.03-.061-.134 0-.111.05.935 2.251 1.94 4.473 3.016 6.665l-.059-.072-.719-.928c-.461-.616-.9-1.25-1.32-1.894a.05.05 0 0 0-.067-.014.045.045 0 0 0-.015.064 21.23 21.23 0 0 0 1.63 2.527c.285.389.596.76.93 1.111h.029c.49.974.999 1.94 1.525 2.9 1.87 3.387 3.851 6.742 6.072 9.947.625.9 1.25 1.8 1.905 2.682.655.883 1.35 1.733 2.028 2.605.03.061.111.022.076-.028Z"/>
  <path fill="#D3766A" d="M69.344 104.522c-2.817-3.849-1.391-11.497 1.706-29.848.427-2.538 20.706-2.738 20.396 0-.391 3.438-4.003 17.046-4.944 19.05-4.605 9.782-15.247 13.392-17.158 10.798Zm22.762-37.479c-.783-5.837-1.928-7.22.164-12.48 1.374-3.449-.356-5.765-3.378-3.221-4.938 4.165-5.593 11.897-5.008 14.64l8.222 1.061Z"/>
  <path fill="#A6A6A6" d="m72.517 45.599-7.358 23.505c-.298.683.047 1.266.766 1.294l12.898.522a2.161 2.161 0 0 0 1.106-.342 2.01 2.01 0 0 0 .74-.852l7.329-23.522c.298-.688-.047-1.272-.766-1.3l-12.897-.516c-.392.02-.77.144-1.092.358a2.01 2.01 0 0 0-.726.853Z"/>
  <path fill="#DBDBDB" d="m74.02 45.649-7.347 23.505c-.292.683.047 1.266.772 1.294l12.898.516c.393-.012.775-.13 1.101-.34.326-.21.582-.505.74-.848L89.54 46.27c.298-.689-.047-1.267-.766-1.294l-12.897-.517a2.156 2.156 0 0 0-1.112.337c-.33.21-.589.506-.747.852Z"/>
  <path fill="#263238" d="M77.508 46.877a1.015 1.015 0 0 1-.225.567 1.098 1.098 0 0 1-.52.353 1.152 1.152 0 0 1-.637.019 1.11 1.11 0 0 1-.541-.32 1 1 0 0 1-.158-1.15c.096-.187.248-.34.437-.443.188-.103.404-.151.621-.137.144.008.285.044.415.104s.245.145.34.248a.997.997 0 0 1 .268.759Z"/>
  <path fill="#D3766A" d="M88.921 83.539s3.676-7.581 3.507-13.885c-.129-4.355-1.52-13.802-13.5-20.095-2.84-1.488-8-1.7-4.295 2.338 2.635 2.866 5.219 3.933 6.428 5.865 0 0-6.598.472-8.059 3.233a55.391 55.391 0 0 0-3.278 7.481c.457.264.932.502 1.42.711 0 0-1.11 2.7.526 6.832l17.251 7.52Z"/>
  <path fill="#D3766A" d="M91.586 65.521c-1.63-1.666-5.148-5.176-9.076-7.087-4.36-2.127-13.365-5.098-14.978-2.027-1.169 2.255 2.145 3.683 2.145 3.683s-3.992-.484-4.594 1.771c-.55 2.06 2.098 3.016 2.098 3.016s-2.478.1-2.6 2.183c-.152 2.5 5.06 1.877 7.211 4.537.48.6 19.794-6.076 19.794-6.076Z"/>
  <path fill="#263238" d="M80.92 63.183c-1.805-1.338-6.726-3.377-11.156-3.15-.105 0-.151.079-.058.095a50.068 50.068 0 0 1 11.192 3.094s.04-.022.023-.039Zm-2.384 4.127c-1.683-1-6.855-2.889-11.337-2.51-.1 0-.14.082-.053.094a53.655 53.655 0 0 1 11.373 2.46l.017-.044Z"/>
  <path fill="#65BEDC" d="m91.768 80.878-23.511 6.338s-4.676 14.651-1.713 18.328c3.191 3.927 17.995-2.16 20.94-10.72l4.284-13.946Z"/>
  <path fill="#fff" d="m91.768 80.878-23.511 6.338s-4.676 14.651-1.713 18.328c3.191 3.927 17.995-2.16 20.94-10.72l4.284-13.946Z" opacity=".5"/>
  <path fill="#263238" d="M69.01 92.303c2.63-.555 5.22-1.266 7.808-1.972 2.59-.705 5.184-1.405 7.755-2.171 1.45-.433 2.922-.856 4.343-1.339.04 0 0-.078 0-.067-2.624.556-5.22 1.25-7.808 1.939a435.061 435.061 0 0 0-7.767 2.144c-1.455.416-2.922.86-4.348 1.338-.07.023-.047.128.017.128Zm.082-5.326c-.368.038-.73.11-1.092.172a.16.16 0 0 0-.073.043.147.147 0 0 0-.039.073c-.403 1.294-.69 2.639-.975 3.966a95.293 95.293 0 0 0-.754 3.943 42.653 42.653 0 0 0-.322 2.133 7.481 7.481 0 0 0-.812 2.777c0 .05.082.056.088 0a9.311 9.311 0 0 1 .695-2.488 16.561 16.561 0 0 0 .146 5.232c-.462-2.577.222-5.27.666-7.81.222-1.271.48-2.543.737-3.81.257-1.266.584-2.515.818-3.781.31-.112.625-.223.923-.356.064-.028.041-.1-.006-.094Z"/>
  <path fill="#D3766A" d="M32.479 69.032s2.472 5.97 6.943 5.97c5.412 0 13.132-7.448 13.132-7.448s-4.921-4.443-11.25-3.549c-5.348.739-8.825 5.027-8.825 5.027Z"/>
  <path fill="#D3766A" d="M46.289 64.466c-.123.739-3.402 5.699-6.902 5.787-1.169 0-1.572-5.881-1.572-5.881l-.135-.428-1.91-6.01 7.2-5.131 1.045-.684s.404 1.667.895 3.766c0 .1.04.194.064.3.023.105.064.228.087.339.076.31.152.633.222.95.07.316.111.477.158.733.047.255.1.51.152.766.365 1.814.597 3.65.696 5.493Z"/>
  <path fill="#263238" d="M46.218 63.344c-4.862.828-7.673-.26-9.128-1.238l-1.327-4.172 7.2-5.131 1.04-.684a315.393 315.393 0 0 0 .965 4.066c0 .117.064.233.088.344.076.311.152.628.222.95.052.239.105.478.152.733.046.256.105.506.157.761.316 1.627.532 3.3.631 4.371Z"/>
  <path fill="#D3766A" d="M49.76 48.081c2.192 10.82-4.383 13.286-6.837 13.73-2.227.406-9.871 1.516-13.226-9.03-3.354-10.548 1.251-14.908 6.295-16.113 5.043-1.205 11.583.594 13.768 11.413Z"/>
  <path fill="#263238" d="M47.615 46.01a7.651 7.651 0 0 1-.8-.056c-.283.02-.565-.05-.801-.2a.373.373 0 0 1-.07-.478 1.02 1.02 0 0 1 .431-.302c.17-.062.354-.08.533-.053.373.004.73.138 1.005.378a.397.397 0 0 1 .097.449.421.421 0 0 1-.156.187.454.454 0 0 1-.239.075Zm-7.825 1.66c.269-.06.503-.16.76-.244.28-.051.534-.188.724-.389a.379.379 0 0 0-.064-.477 1.071 1.071 0 0 0-1.028-.111c-.36.094-.67.312-.871.61a.4.4 0 0 0 .03.455.46.46 0 0 0 .449.157Zm2.139 2.011c0-.027-.053.045-.047.073.135.738.164 1.61-.508 1.949v.044c.859-.233.812-1.388.555-2.066Z"/>
  <path fill="#263238" d="M41.117 48.981c-1.274.084-1.005 2.494.17 2.416 1.174-.078.893-2.466-.17-2.416Z"/>
  <path fill="#263238" d="M40.632 49.176c-.205.16-.398.422-.66.472-.264.05-.585-.167-.796-.389 0 0-.04 0-.04.033.046.461.28.917.812.933.532.017.777-.427.847-.905.012-.089-.082-.205-.163-.144Zm5.861-.25c0-.028.064.033.07.061.064.75.27 1.594 1.011 1.766v.045c-.882-.023-1.145-1.15-1.08-1.872Z"/>
  <path fill="#263238" d="M47.101 48.076c1.25-.228 1.636 2.166.48 2.377-1.158.211-1.526-2.188-.48-2.377Z"/>
  <path fill="#263238" d="M47.65 48.154c.222.1.456.3.696.283.24-.017.438-.316.584-.589h.047c.088.456 0 .956-.444 1.111-.444.156-.783-.205-.97-.644-.047-.061 0-.2.087-.161Zm-1.864 4.271s.298 1.11.362 1.622c0 .05-.122.083-.31.116a2.794 2.794 0 0 1-1.427.029 2.695 2.695 0 0 1-1.237-.678.054.054 0 0 1-.001-.074.061.061 0 0 1 .077-.01c.76.378 1.63.515 2.478.389 0-.15-.585-1.86-.491-1.877a5.13 5.13 0 0 1 1.285.133c-.549-2.3-1.484-4.493-1.998-6.793a.069.069 0 0 1 .008-.049.075.075 0 0 1 .04-.032.08.08 0 0 1 .052 0 .075.075 0 0 1 .04.031c1.169 2.222 1.847 4.866 2.484 7.22.058.306-1.128.04-1.362-.027Z"/>
  <path fill="#263238" d="M30.223 52.803c1.894-.034 1.97-3.822 1.97-3.822s3.816-.333 4.552-5.665a7.74 7.74 0 0 1-1.256 4.443s6.662-1.283 8.959-6.892c0 0-.86 2.827-1.818 3.888 0 0 2.747-1.006 3.904-3.333 0 0 1.49 2.983 2.484 3.755 0 0-1.403-11.164-12.19-8.987 0 0-6.792 1.05-8.732 6.41-1.94 5.36 2.127 10.203 2.127 10.203Z"/>
  <path fill="#D3766A" d="M32.04 53.008s-2.886-3.177-4.43-2.16c-1.542 1.016.895 5.787 2.888 6.276a2.055 2.055 0 0 0 1.533-.12c.233-.118.44-.279.606-.474.166-.195.29-.42.362-.662l-.958-2.86Z"/>
  <path fill="#263238" d="M28.347 52.197v.05c1.403.389 2.238 1.5 2.87 2.683a1.072 1.072 0 0 0-.348-.292 1.128 1.128 0 0 0-1.295.17c-.035 0 0 .077.041.066.23-.095.484-.12.729-.073.244.048.468.166.639.34.281.291.53.61.742.95.076.11.286 0 .222-.1a.041.041 0 0 0 0-.028c-.163-1.633-1.741-3.782-3.6-3.766Z"/>
  <path fill="#65BEDC" d="M5.988 113.27c-.032.13-.056.261-.07.394v-.078c.017-.106.04-.212.07-.316Z"/>
  <path fill="#65BEDC" d="M5.988 113.27c-.032.13-.056.261-.07.394v-.078c.017-.106.04-.212.07-.316Z"/>
  <path fill="#DBDBDB" d="M5.988 113.27c-.032.13-.056.261-.07.394v-.078c.017-.106.04-.212.07-.316Z"/>
  <path fill="#65BEDC" d="m74.12 107.988-.387 1.047 16.533 5.528.388-1.048-16.533-5.527Z"/>
</svg>
