<svg xmlns="http://www.w3.org/2000/svg" width="160" height="160" viewBox="0 0 160 160" version="1.1"><path d="M 72.193 30.019 C 63.583 31.210, 55.873 33.557, 47.525 37.530 C 39.407 41.392, 29.001 48.594, 33 47.582 C 34.375 47.234, 39.325 45.950, 44 44.729 C 51.409 42.794, 55.066 42.508, 72.500 42.504 C 90.756 42.500, 93.078 42.700, 99.125 44.790 C 119.131 51.705, 131 64.902, 131 80.231 C 131 86.928, 128.966 90.396, 123.835 92.449 C 114.498 96.185, 103.958 90.490, 103.705 81.572 C 103.535 75.564, 108.926 72.032, 115.023 74.158 C 119.746 75.804, 121.050 82.016, 116.667 81.985 C 114.050 81.966, 112.482 81.011, 111.766 79 C 111.327 77.763, 111.102 77.819, 110.485 79.314 C 109.396 81.956, 111.535 85.845, 114.485 86.586 C 115.890 86.938, 118.351 86.683, 119.955 86.019 C 126.023 83.505, 125.783 74.651, 119.497 69.132 C 108.238 59.246, 92.014 69.176, 94.457 84.458 C 95.769 92.667, 102.788 100.506, 112.431 104.536 C 116.858 106.385, 128.031 106.432, 132.371 104.618 C 139.738 101.540, 145 92.293, 145 82.424 C 145 71.719, 136.233 54.984, 125.476 45.152 C 119.297 39.505, 108.487 33.788, 99.831 31.591 C 92.203 29.654, 79.893 28.954, 72.193 30.019 M 68.568 49.075 C 63.227 53.764, 57.216 63.479, 54.864 71.223 C 50.468 85.694, 53.934 99.170, 64.548 108.869 C 69.490 113.387, 80.414 118.920, 81.750 117.583 C 82.018 117.315, 80.613 115.197, 78.627 112.877 C 69.413 102.113, 66.886 83.088, 72.872 69.556 C 76.768 60.749, 85.776 52.308, 93.250 50.462 C 94.763 50.089, 96 49.428, 96 48.994 C 96 47.889, 84.458 46, 77.703 46 C 72.839 46, 71.591 46.420, 68.568 49.075 M 30.527 57.371 C 31.612 58.125, 36.432 61.274, 41.237 64.369 L 49.974 69.995 53.021 63.958 C 54.698 60.637, 55.802 57.488, 55.475 56.960 C 55.145 56.425, 49.052 56, 41.718 56 C 30.275 56, 28.813 56.179, 30.527 57.371 M 30.404 67.156 C 30.075 67.688, 29.576 73.383, 29.294 79.812 C 28.684 93.757, 30.265 101.909, 35.513 111.887 C 51.141 141.595, 89.663 149.357, 125.163 129.951 C 129.377 127.647, 135.002 123.800, 137.663 121.402 L 142.500 117.043 138 118.683 C 131.246 121.145, 118.074 120.786, 110.507 117.934 C 102.976 115.095, 94.842 107.153, 90.090 98 C 86.217 90.539, 84.251 88, 82.345 88 C 81.453 88, 81 89.287, 81 91.818 C 81 100.038, 86.387 112.745, 93.688 121.750 L 97.134 126 90.797 126 C 83.306 126, 71.487 122.928, 64.555 119.178 C 61.832 117.705, 57.001 114.096, 53.820 111.159 C 46.115 104.044, 42.482 96.529, 40.021 82.618 C 38.970 76.677, 37.439 70.793, 36.619 69.542 C 34.976 67.034, 31.342 65.638, 30.404 67.156 M 81.228 70.230 C 76.132 72.686, 78.170 81, 83.868 81 C 89.718 81, 91.946 74.676, 87.365 71.073 C 84.392 68.734, 84.346 68.728, 81.228 70.230 M 15.465 80.677 C 16.570 89.696, 19.690 97.725, 25.172 105.655 C 30.561 113.451, 34.044 117.147, 32.562 113.500 C 29.410 105.738, 27.089 97.299, 26.125 90.093 C 24.710 79.514, 22.607 75.617, 18.077 75.177 L 14.751 74.855 15.465 80.677" stroke="none" fill="#67bddc" fill-rule="evenodd"/><path d="M 61.145 2.953 C 57.100 3.947, 49.675 6.809, 44.645 9.314 C 17.076 23.044, 1.028 48.968, 1.007 79.803 C 0.998 93.267, 3.065 102.242, 9 114.500 C 22.656 142.707, 48.537 158.972, 79.803 158.993 C 93.267 159.002, 102.242 156.935, 114.500 151 C 142.707 137.344, 158.972 111.463, 158.993 80.197 C 159.002 66.733, 156.935 57.758, 151 45.500 C 140.316 23.430, 122.141 8.599, 98.976 3.046 C 88.051 0.427, 71.597 0.387, 61.145 2.953 M 72.193 30.019 C 63.583 31.210, 55.873 33.557, 47.525 37.530 C 39.407 41.392, 29.001 48.594, 33 47.582 C 34.375 47.234, 39.325 45.950, 44 44.729 C 51.409 42.794, 55.066 42.508, 72.500 42.504 C 90.756 42.500, 93.078 42.700, 99.125 44.790 C 119.131 51.705, 131 64.902, 131 80.231 C 131 86.928, 128.966 90.396, 123.835 92.449 C 114.498 96.185, 103.958 90.490, 103.705 81.572 C 103.535 75.564, 108.926 72.032, 115.023 74.158 C 119.746 75.804, 121.050 82.016, 116.667 81.985 C 114.050 81.966, 112.482 81.011, 111.766 79 C 111.327 77.763, 111.102 77.819, 110.485 79.314 C 109.396 81.956, 111.535 85.845, 114.485 86.586 C 115.890 86.938, 118.351 86.683, 119.955 86.019 C 126.023 83.505, 125.783 74.651, 119.497 69.132 C 108.238 59.246, 92.014 69.176, 94.457 84.458 C 95.769 92.667, 102.788 100.506, 112.431 104.536 C 116.858 106.385, 128.031 106.432, 132.371 104.618 C 139.738 101.540, 145 92.293, 145 82.424 C 145 71.719, 136.233 54.984, 125.476 45.152 C 119.297 39.505, 108.487 33.788, 99.831 31.591 C 92.203 29.654, 79.893 28.954, 72.193 30.019 M 68.568 49.075 C 63.227 53.764, 57.216 63.479, 54.864 71.223 C 50.468 85.694, 53.934 99.170, 64.548 108.869 C 69.490 113.387, 80.414 118.920, 81.750 117.583 C 82.018 117.315, 80.613 115.197, 78.627 112.877 C 69.413 102.113, 66.886 83.088, 72.872 69.556 C 76.768 60.749, 85.776 52.308, 93.250 50.462 C 94.763 50.089, 96 49.428, 96 48.994 C 96 47.889, 84.458 46, 77.703 46 C 72.839 46, 71.591 46.420, 68.568 49.075 M 30.527 57.371 C 31.612 58.125, 36.432 61.274, 41.237 64.369 L 49.974 69.995 53.021 63.958 C 54.698 60.637, 55.802 57.488, 55.475 56.960 C 55.145 56.425, 49.052 56, 41.718 56 C 30.275 56, 28.813 56.179, 30.527 57.371 M 30.404 67.156 C 30.075 67.688, 29.576 73.383, 29.294 79.812 C 28.684 93.757, 30.265 101.909, 35.513 111.887 C 51.141 141.595, 89.663 149.357, 125.163 129.951 C 129.377 127.647, 135.002 123.800, 137.663 121.402 L 142.500 117.043 138 118.683 C 131.246 121.145, 118.074 120.786, 110.507 117.934 C 102.976 115.095, 94.842 107.153, 90.090 98 C 86.217 90.539, 84.251 88, 82.345 88 C 81.453 88, 81 89.287, 81 91.818 C 81 100.038, 86.387 112.745, 93.688 121.750 L 97.134 126 90.797 126 C 83.306 126, 71.487 122.928, 64.555 119.178 C 61.832 117.705, 57.001 114.096, 53.820 111.159 C 46.115 104.044, 42.482 96.529, 40.021 82.618 C 38.970 76.677, 37.439 70.793, 36.619 69.542 C 34.976 67.034, 31.342 65.638, 30.404 67.156 M 81.228 70.230 C 76.132 72.686, 78.170 81, 83.868 81 C 89.718 81, 91.946 74.676, 87.365 71.073 C 84.392 68.734, 84.346 68.728, 81.228 70.230 M 15.465 80.677 C 16.570 89.696, 19.690 97.725, 25.172 105.655 C 30.561 113.451, 34.044 117.147, 32.562 113.500 C 29.410 105.738, 27.089 97.299, 26.125 90.093 C 24.710 79.514, 22.607 75.617, 18.077 75.177 L 14.751 74.855 15.465 80.677" stroke="none" fill="#fafbfb" fill-rule="evenodd"/></svg>